<?xml version="1.0" encoding="UTF-8"?>
<svg width="36px" height="40px" viewBox="0 0 36 40" version="1.1" xmlns="http://www.w3.org/2000/svg" xmlns:xlink="http://www.w3.org/1999/xlink">
    <!-- Generator: Sketch 62 (91390) - https://sketch.com -->
    <title>bee</title>
    <desc>Created with Sketch.</desc>
    <g id="map-icons">
        <g id="art" transform="translate(-921.000000, -596.000000)">
            <path d="M942.782612,622.928014 C942.58349,622.685547 942.413301,622.491236 942.258428,622.286787 C941.274731,620.9849 940.548872,619.560513 940.165094,617.968005 C940.133609,617.836211 939.908107,617.669779 939.761744,617.659641 C939.268194,617.620779 938.768687,617.650348 938.271733,617.641899 C937.999429,617.63683 937.886253,617.769469 937.819879,618.01785 C937.710106,618.435197 937.582464,618.850009 937.434399,619.255529 C936.929786,620.644433 936.152019,621.875353 935.143645,623.015032 C937.71351,623.60557 940.228915,623.552345 942.782612,622.928014 M932.259779,627.512073 C933.268154,629.97138 936.220095,632.033615 939.830671,631.678786 C942.819203,631.385629 945.15676,629.336066 945.797524,627.335504 C941.307918,628.860426 936.799591,628.956736 932.259779,627.512073 M941.791257,615.405629 C941.850823,615.881269 941.897626,616.445617 941.995485,617.001517 C942.292466,618.691181 943.043003,620.181465 944.167106,621.467299 C945.226537,622.680478 946.525936,623.582759 948.049135,624.153866 C948.945184,624.489264 949.863357,624.705541 950.818122,624.56192 C952.250269,624.345643 953.378627,623.608104 954.290844,622.499684 C955.0584,621.56699 955.197105,620.588674 954.650795,619.510668 C954.082362,618.390421 953.20163,617.525312 952.220486,616.789464 C950.366268,615.398025 948.303568,614.381692 946.05366,613.770034 C945.029968,613.492084 943.988407,613.296083 942.914509,613.348462 C942.196309,613.3831 942.015056,613.525877 941.914645,614.237226 C941.864439,614.593745 941.838059,614.953643 941.791257,615.405629 M936.23371,615.32199 C936.162231,614.827763 936.115428,614.329312 936.006507,613.843534 C935.972469,613.691464 935.795472,613.520808 935.642301,613.45829 C935.43552,613.372118 935.18449,613.340014 934.958138,613.3586 C934.211005,613.416049 933.457915,613.45829 932.724397,613.595153 C931.185031,613.882396 929.724803,614.445054 928.359881,615.182593 C927.286834,615.762993 926.286119,616.491238 925.304975,617.222018 C924.417435,617.883521 923.705191,618.725819 923.249082,619.746376 C922.92402,620.474622 922.877218,621.246798 923.329071,621.915905 C923.711148,622.482788 924.189381,623.011653 924.711863,623.455189 C925.914254,624.479126 927.348103,624.847473 928.882363,624.480816 C930.963784,623.982365 932.692061,622.875635 934.043368,621.206246 C935.433818,619.489547 936.155423,617.536295 936.23371,615.32199 M929.723952,626.310722 C927.504677,626.848035 925.513457,626.505878 923.706893,625.209061 C922.724898,624.503626 921.934366,623.633449 921.412735,622.535167 C920.74474,621.125142 920.928545,619.739618 921.669721,618.447869 C922.810844,616.463358 924.571457,615.106558 926.526937,613.96519 C927.954829,613.130496 929.461009,612.484199 931.048879,611.987438 C930.691481,610.36705 930.977399,608.870852 931.853026,607.486172 C932.715888,606.120923 933.967634,605.222867 935.443179,604.585863 C935.194702,602.880992 934.447569,601.40676 933.286875,600.162322 C932.324451,599.129092 931.124614,598.412674 929.769903,597.976741 C929.340174,597.838189 929.035534,597.587273 928.948737,597.147116 C928.872152,596.758493 929.024472,596.39606 929.360597,596.213576 C929.610776,596.078403 929.975833,595.980403 930.232819,596.054748 C931.453931,596.410422 932.571227,596.993356 933.574495,597.776516 C934.729233,598.677952 935.645705,599.784682 936.339228,601.067982 C936.779168,601.88071 937.111889,602.738215 937.277824,603.652324 C937.298247,603.764686 937.342497,603.87367 937.368876,603.959842 L940.607587,603.959842 C940.793094,603.378598 940.961582,602.736525 941.199848,602.120643 C942.053349,599.918165 943.510174,598.20738 945.572873,597.036443 C946.250229,596.651199 946.981194,596.346215 947.713861,596.075024 C948.562257,595.760746 949.117075,596.501664 949.066018,597.042357 C949.026024,597.459704 948.801373,597.730895 948.404831,597.90831 C947.656847,598.243708 946.885037,598.553761 946.194917,598.98716 C944.361122,600.138667 943.230211,601.814814 942.70007,603.89648 C942.671989,604.007153 942.64561,604.117826 942.622634,604.230189 C942.599658,604.340017 942.581788,604.45069 942.558813,604.579949 C944.026699,605.218642 945.29206,606.116699 946.160028,607.495465 C947.027996,608.875076 947.310511,610.356912 946.970131,611.933368 C947.907026,612.313543 948.855834,612.664993 949.776561,613.078116 C951.073407,613.659361 952.28686,614.384226 953.409261,615.265386 C954.416784,616.056149 955.33666,616.919568 956.051457,617.983212 C956.613083,618.818751 956.98665,619.734549 956.999713,620.742433 C957.013029,621.874508 956.561175,622.867186 955.85659,623.738208 C954.902676,624.917594 953.712199,625.774254 952.252822,626.24567 C950.96023,626.662172 949.660832,626.631758 948.312078,626.32086 C948.175075,626.748345 948.048284,627.195261 947.890858,627.631195 C947.361568,629.101203 946.497004,630.337192 945.294613,631.353525 C944.068396,632.390134 942.691561,633.11838 941.1122,633.414071 C940.603332,633.509537 940.389744,633.780728 940.221256,634.204834 C940.028091,634.690612 939.781316,635.15527 939.568579,635.63429 C939.446042,635.91224 939.227348,636.064309 938.952492,635.973912 C938.745711,635.906326 938.512551,635.749187 938.41299,635.565858 C938.131326,635.051356 937.898166,634.508129 937.675218,633.964902 C937.545873,633.649779 937.376535,633.526434 937.009776,633.459692 C935.954599,633.267915 934.964946,632.861551 934.042517,632.306496 C932.022365,631.089938 930.622554,629.39267 929.947751,627.129365 C929.908608,626.995036 929.855849,626.865777 929.819258,626.731449 C929.782667,626.599655 929.75799,626.463637 929.723952,626.310722" id="bee"></path>
        </g>
    </g>
</svg>
