<?xml version="1.0" encoding="UTF-8"?>
<svg width="47px" height="32px" viewBox="0 0 47 32" version="1.1" xmlns="http://www.w3.org/2000/svg" xmlns:xlink="http://www.w3.org/1999/xlink">
    <!-- Generator: Sketch 49.3 (51167) - http://www.bohemiancoding.com/sketch -->
    <title>droplets</title>
    <desc>Created with Sketch.</desc>
    <defs></defs>
    <g id="droplets">
        <path d="M6.6056,29.0775 C6.1996,28.9855 5.7896,28.9105 5.3886,28.7975 C1.9256,27.8275 -0.3594,24.3475 0.0466,20.6085 C0.1876,19.3145 0.6686,18.1155 1.2186,16.9575 C2.8106,13.6065 4.9496,10.6535 7.2896,7.7485 C7.9606,8.6205 8.6196,9.4495 9.2476,10.3025 C10.9206,12.5735 12.4746,14.9285 13.6046,17.5585 C14.1426,18.8105 14.5636,20.0945 14.5526,21.5065 C14.5246,25.0355 12.1526,28.1365 8.8696,28.8835 C8.5656,28.9535 8.2606,29.0135 7.9556,29.0775 L6.6056,29.0775 Z M10.2166,15.0345 C10.2786,15.1685 10.3436,15.3015 10.4016,15.4375 C10.8066,16.3825 11.2766,17.3045 11.6006,18.2795 C12.5086,21.0025 12.0976,23.4575 10.0656,25.4975 C9.7386,25.8255 9.3296,26.0615 8.8726,26.4045 C9.1346,26.3505 9.3066,26.3275 9.4726,26.2795 C11.4826,25.7045 12.9036,23.5335 12.7446,21.1735 C12.5856,18.8325 11.3686,16.9425 10.2166,15.0345 Z" id="Fill-1"></path>
        <path d="M22.365,21.3295 C21.959,21.2375 21.549,21.1625 21.148,21.0495 C17.685,20.0795 15.4,16.5995 15.806,12.8605 C15.947,11.5665 16.428,10.3675 16.978,9.2095 C18.57,5.8585 20.709,2.9055 23.049,0.0005 C23.72,0.8725 24.379,1.7015 25.007,2.5545 C26.68,4.8255 28.234,7.1805 29.364,9.8105 C29.902,11.0625 30.323,12.3465 30.312,13.7585 C30.284,17.2875 27.912,20.3885 24.629,21.1355 C24.325,21.2055 24.02,21.2655 23.715,21.3295 L22.365,21.3295 Z M25.976,7.2865 C26.038,7.4205 26.103,7.5535 26.161,7.6895 C26.566,8.6345 27.036,9.5565 27.36,10.5315 C28.268,13.2545 27.857,15.7095 25.825,17.7495 C25.498,18.0775 25.089,18.3135 24.632,18.6565 C24.894,18.6025 25.066,18.5795 25.232,18.5315 C27.242,17.9565 28.663,15.7855 28.504,13.4255 C28.345,11.0845 27.128,9.1945 25.976,7.2865 Z" id="Fill-4"></path>
        <path d="M38.4028,31.9942 C37.9968,31.9022 37.5868,31.8272 37.1858,31.7142 C33.7228,30.7442 31.4378,27.2642 31.8438,23.5252 C31.9848,22.2312 32.4658,21.0322 33.0158,19.8742 C34.6078,16.5232 36.7468,13.5702 39.0868,10.6652 C39.7578,11.5372 40.4168,12.3662 41.0448,13.2192 C42.7178,15.4902 44.2718,17.8452 45.4018,20.4752 C45.9398,21.7272 46.3608,23.0112 46.3498,24.4232 C46.3218,27.9522 43.9498,31.0532 40.6668,31.8002 C40.3628,31.8702 40.0578,31.9302 39.7528,31.9942 L38.4028,31.9942 Z M42.0138,17.9512 C42.0758,18.0852 42.1408,18.2182 42.1988,18.3542 C42.6038,19.2992 43.0738,20.2212 43.3978,21.1962 C44.3058,23.9192 43.8948,26.3742 41.8628,28.4142 C41.5358,28.7422 41.1268,28.9782 40.6698,29.3212 C40.9318,29.2672 41.1038,29.2442 41.2698,29.1962 C43.2798,28.6212 44.7008,26.4502 44.5418,24.0902 C44.3828,21.7492 43.1658,19.8592 42.0138,17.9512 Z" id="Fill-6"></path>
    </g>
</svg>