<?xml version="1.0" encoding="UTF-8"?>
<svg width="57px" height="42px" viewBox="0 0 57 42" version="1.1" xmlns="http://www.w3.org/2000/svg" xmlns:xlink="http://www.w3.org/1999/xlink">
    <!-- Generator: Sketch 49.3 (51167) - http://www.bohemiancoding.com/sketch -->
    <title>kids</title>
    <desc>Created with Sketch.</desc>
    <defs></defs>
    <g id="kids">
        <path d="M28.4646,14.2503 C26.8056,15.6883 24.8686,17.3183 23.0116,19.0253 C22.6986,19.3133 22.6236,19.9373 22.6216,20.4073 C22.5966,26.3343 22.6116,32.2623 22.6006,38.1893 C22.5976,39.8703 21.5496,41.0573 20.0036,41.1993 C18.0516,41.3793 16.6966,40.2913 16.6696,38.4273 C16.6286,35.6333 16.6556,32.8383 16.6546,30.0443 C16.6536,29.5883 16.6546,29.1333 16.6546,28.5953 L14.4176,28.5953 C14.4176,30.7183 14.4186,32.7823 14.4166,34.8463 C14.4166,36.0323 14.4576,37.2203 14.3966,38.4023 C14.3056,40.1663 13.1846,41.2083 11.4646,41.2223 C9.7326,41.2373 8.4666,40.0993 8.4136,38.3463 C8.3526,36.3583 8.3976,34.3673 8.3966,32.3773 C8.3966,28.3553 8.4236,24.3323 8.3656,20.3113 C8.3576,19.7513 8.0756,19.0703 7.6736,18.6633 C5.5056,16.4693 3.2536,14.3493 1.0426,12.1923 C-0.2314,10.9503 -0.3444,9.3863 0.7386,8.3773 C1.8966,7.2983 3.3366,7.4093 4.7426,8.7193 C6.4306,10.2933 8.0646,11.9223 9.7986,13.4483 C10.2626,13.8563 11.0026,14.1733 11.6276,14.1923 C14.2626,14.2733 16.9026,14.2663 19.5376,14.1963 C20.1256,14.1803 20.8326,13.9113 21.2606,13.5313 C23.0206,11.9693 24.6956,10.3203 26.3996,8.7013 C27.8756,7.2983 29.2036,7.2963 30.6546,8.6823 C32.3856,10.3363 34.1016,12.0043 35.8816,13.6093 C36.2526,13.9433 36.8696,14.1893 37.3786,14.2003 C40.1486,14.2563 42.9216,14.2623 45.6916,14.1963 C46.2336,14.1833 46.8796,13.8863 47.2816,13.5243 C49.0326,11.9523 50.7046,10.3013 52.4176,8.6903 C53.7696,7.4183 55.1456,7.3063 56.2956,8.3523 C57.3736,9.3343 57.2716,10.7673 55.9686,12.0553 C53.7416,14.2563 51.4526,16.4013 49.2696,18.6393 C48.8156,19.1033 48.4806,19.8673 48.4746,20.4963 C48.4146,26.3813 48.4486,32.2663 48.4316,38.1523 C48.4266,39.9493 47.4926,41.0313 45.9026,41.1953 C43.8916,41.4023 42.4886,40.2063 42.4746,38.2113 C42.4516,35.0403 42.4686,31.8703 42.4686,28.6043 L40.3136,28.6043 C40.3136,31.2943 40.3136,33.9493 40.3136,36.6043 C40.3136,37.2393 40.3386,37.8753 40.3066,38.5093 C40.2246,40.1093 38.9186,41.2533 37.2406,41.2223 C35.5626,41.1903 34.3856,40.1353 34.3766,38.4883 C34.3446,32.5183 34.3466,26.5483 34.3726,20.5793 C34.3756,19.7643 34.2016,19.1323 33.5276,18.5753 C31.7446,17.0993 30.0066,15.5733 28.4646,14.2503" id="Fill-1"></path>
        <path d="M35.0929,3.5375 C33.5559,4.7835 32.1999,6.3165 29.9459,5.7195 C28.9449,5.4545 28.0299,4.8995 27.1369,4.2605 C28.5919,4.2825 29.4389,3.5675 30.3189,2.7285 C32.1099,1.0225 34.1199,1.5455 36.1029,2.4415 C39.1749,-0.7115 43.7229,-0.7945 46.8989,2.2475 C48.2399,2.0155 49.4399,1.6275 50.6239,1.6665 C51.4189,1.6935 52.3309,2.1835 52.9409,2.7205 C53.8499,3.5215 54.6819,4.2755 56.2479,4.0065 C55.0099,5.5115 53.4859,6.1715 51.8939,5.7215 C50.4819,5.3225 49.2659,4.3005 47.8769,3.5045 C49.3789,7.1655 48.7009,10.2845 45.1069,12.4895 C42.8679,13.8645 39.6529,13.6925 37.5399,12.1945 C34.3739,9.9495 33.8999,7.0015 35.0929,3.5375" id="Fill-4"></path>
        <path d="M15.7395,-9.99999999e-05 C19.5675,-0.0081 22.7885,3.0419 22.8305,6.7119 C22.8725,10.3099 19.5885,13.4289 15.7575,13.4319 C11.8925,13.4339 8.6695,10.3879 8.6715,6.7329 C8.6725,3.0899 11.9085,0.0079 15.7395,-9.99999999e-05" id="Fill-6"></path>
    </g>
</svg>