<?xml version="1.0" encoding="UTF-8"?>
<svg width="32px" height="53px" viewBox="0 0 32 53" version="1.1" xmlns="http://www.w3.org/2000/svg" xmlns:xlink="http://www.w3.org/1999/xlink">
    <!-- Generator: Sketch 49.3 (51167) - http://www.bohemiancoding.com/sketch -->
    <title>leaf</title>
    <desc>Created with Sketch.</desc>
    <defs></defs>
    <g id="leaf">
        <path d="M31.2,-0.0001 C25.214,11.6999 29.326,3.2079 11.302,22.4219 C0.492,33.9469 4.469,43.3649 6.94,47.2719 C6.198,48.0169 3.004,51.1079 1.039,51.2569 L0.01,52.0859 C0.01,52.0859 -0.196,52.5009 1.24,52.3839 C4.042,52.1539 6.671,49.3119 7.858,47.9359 C35.565,33.9199 19.383,33.1479 31.2,-0.0001 M22.061,19.4329 L22.273,19.0469 C22.344,18.9449 22.283,19.1059 22.061,19.4329 M19.998,22.9439 L8.235,45.8519 C9.016,41.9219 16.436,28.9719 19.998,22.9439" id="Fill-1"></path>
    </g>
</svg>