<?xml version="1.0" encoding="UTF-8"?>
<svg width="31px" height="35px" viewBox="0 0 31 35" version="1.1" xmlns="http://www.w3.org/2000/svg" xmlns:xlink="http://www.w3.org/1999/xlink">
    <!-- Generator: Sketch 62 (91390) - https://sketch.com -->
    <title>rain</title>
    <desc>Created with Sketch.</desc>
    <g id="map-icons">
        <g id="art" transform="translate(-1185.000000, -595.000000)">
            <g id="rain" transform="translate(1185.000000, 595.000000)">
                <path d="M9.97794368,34.3997256 C10.0130437,34.3979256 10.0481437,34.3961256 10.0832437,34.3934256 C11.1965437,34.3277256 12.0560438,33.3314255 11.8832438,32.2316255 C11.8085438,31.7591255 11.6051437,31.3055255 11.4395437,30.8528254 C11.2460437,30.3209254 10.9211437,29.8322254 10.9382437,29.2346254 C10.9391437,29.2031254 10.9049437,29.1509254 10.8770437,29.1428254 C10.8509437,29.1347254 10.7951437,29.1653254 10.7807437,29.1932254 C10.5593437,29.6081254 10.1714437,29.8448254 9.81954367,30.1256254 C9.35424365,30.4982254 8.85924363,30.8519254 8.46054362,31.2893255 C7.9196436,31.8833255 7.8908436,32.6123255 8.23014361,33.3215255 C8.57304362,34.0379256 9.18054365,34.3871256 9.97794368,34.3997256 M3.89484344,32.4863255 C3.89394344,32.4656255 3.89304344,32.4440255 3.89214344,32.4224255 C3.86874344,31.8383255 3.61404343,31.3244255 3.40164342,30.7961254 C3.19824341,30.2903254 2.9273434,29.8034254 2.9228434,29.2346254 C2.9228434,29.2013254 2.8859434,29.1680254 2.8661434,29.1338254 C2.82474339,29.1644254 2.77614339,29.1869254 2.74284339,29.2238254 C2.58894339,29.3948254 2.45484338,29.5883254 2.28564337,29.7422254 C2.06694336,29.9402254 1.81764335,30.1040254 1.58814335,30.2903254 C1.22724333,30.5819254 0.841143316,30.8501254 0.522543303,31.1831255 C-0.0444567193,31.7771255 -0.136256723,32.4890255 0.18054329,33.2387255 C0.536043304,34.0811256 1.46934334,34.5608256 2.34324338,34.3718256 C3.24684341,34.1756256 3.90114344,33.3800255 3.89484344,32.4863255 M4.38624346,25.6472252 C4.41054346,26.4356253 4.74984347,27.0458253 5.4689435,27.3932253 C6.17454353,27.7343253 6.87474356,27.6695253 7.49484358,27.1826253 C8.1068436,26.7002253 8.39574362,26.0486253 8.20674361,25.2782252 C8.0708436,24.7229252 7.83234359,24.1919252 7.62804359,23.6555252 C7.47504358,23.2541251 7.28694357,22.8653251 7.28334357,22.4225251 C7.28244357,22.3883251 7.25004357,22.3541251 7.23204357,22.3199251 C7.18974357,22.3478251 7.14024357,22.3694251 7.10784356,22.4063251 C6.94044356,22.5926251 6.79824355,22.8095251 6.60744354,22.9679251 C6.14124353,23.3531251 5.64174351,23.6978252 5.17554349,24.0830252 C4.69134347,24.4835252 4.35564346,24.9749252 4.38624346,25.6472252 M14.3204439,27.5813498 C15.6218439,27.5876253 16.5587439,26.3780253 16.1969439,25.1288252 C16.0583439,24.6518252 15.8468439,24.1964252 15.6677439,23.7311252 C15.5048439,23.3063251 15.2753439,22.9004251 15.3077439,22.4207251 C15.3104439,22.3892251 15.2672439,22.3244251 15.2510439,22.3271251 C15.2105439,22.3316251 15.1673439,22.3577251 15.1367439,22.3883251 C14.8865439,22.6421251 14.6552439,22.9175251 14.3852439,23.1479251 C13.9199438,23.5457252 13.4006438,23.8832252 12.9596438,24.3053252 C12.3629438,24.8759252 12.2333438,25.5968252 12.5285438,26.3645253 C12.8174438,27.1178253 13.5212438,27.5768253 14.3204439,27.5813498 M22.2764442,27.5939253 C23.4725442,27.5561253 24.3527443,26.6444253 24.2762442,25.5725252 C24.2483442,25.1882252 24.1097442,24.8057252 23.9837442,24.4349252 C23.7542442,23.7590252 23.3276442,23.1497251 23.3114442,22.4027251 C23.3114442,22.3766251 23.2745442,22.3289251 23.2565442,22.3289251 C23.2205442,22.3307251 23.1674442,22.3487251 23.1530442,22.3775251 C22.8839442,22.8788251 22.3943442,23.1407251 21.9740442,23.4782252 C21.6059441,23.7725252 21.2180441,24.0515252 20.8976441,24.3935252 C20.3279441,25.0010252 20.2523441,25.7309252 20.5916441,26.4734253 C20.9345441,27.2240253 21.5627441,27.5768253 22.2764442,27.5939253 M16.0313439,32.6744255 C16.0187439,33.2837255 16.6496439,34.3124256 17.861044,34.3997256 C19.152544,34.4924256 20.0858441,33.3206255 19.8941441,32.2586255 C19.7969441,31.7195255 19.5611441,31.2038255 19.3757441,30.6827254 C19.205644,30.2084254 18.940144,29.7638254 18.954544,29.2346254 C18.955444,29.2022254 18.914944,29.1392254 18.897844,29.1401158 C18.857344,29.1437254 18.811444,29.1698254 18.781744,29.2004254 C18.520744,29.4632254 18.279544,29.7476254 18.000544,29.9888254 C17.541544,30.3830254 17.043844,30.7322254 16.5920439,31.1336255 C16.2050439,31.4765255 16.0403439,31.9418255 16.0313439,32.6744255 M4.37724346,10.3643246 C4.29534345,10.3967246 4.21254345,10.4318246 4.12794345,10.4633246 C1.35684334,11.5190247 -0.0714567204,14.6087248 0.925743319,17.3915249 C1.69344335,19.530825 3.73284343,20.9951251 6.00354352,21.0077251 C8.26794361,21.0203251 10.5323437,21.0086251 12.7967438,21.0086251 C16.860244,21.0086251 20.9237441,21.0104251 24.9863443,21.0068251 C25.3166443,21.0059251 25.6523443,21.0032251 25.9781443,20.9528251 C28.4261444,20.573025 30.2468445,18.573225 30.3440445,16.0991249 C30.4322445,13.8662248 29.4359445,12.2264247 27.4685444,11.1815247 C26.8655443,10.8620246 26.2067443,10.7063246 25.5074443,10.6667246 C25.9529443,9.10792458 25.7495443,7.68232452 24.6173443,6.48892448 C23.4860442,5.29642443 22.0874442,4.95352441 20.5052441,5.33782443 C18.734044,0.890924253 13.9181438,-0.871275817 10.0148437,0.405824234 C6.09354352,1.68922428 3.33054341,5.84002445 4.37724346,10.3643246" id="Fill-4"></path>
                <path d="M4.37706346,10.3642346 C3.33036341,5.83993445 6.09336352,1.68913428 10.0146637,0.406634234 C13.9179638,-0.871365817 18.733864,0.890834253 20.5050641,5.33773443 C22.0872642,4.95343441 23.4858642,5.29633443 24.6171643,6.48883448 C25.7493643,7.68313452 25.9527643,9.10783458 25.5072643,10.6666346 C26.2065643,10.7062346 26.8653643,10.8619346 27.4683644,11.1814347 C29.4357645,12.2263347 30.4320645,13.8661348 30.3438645,16.0990349 C30.2466645,18.573135 28.4259644,20.572935 25.9779643,20.9527351 C25.6521643,21.0031351 25.3173643,21.0058351 24.9861643,21.0067351 C20.9235641,21.0103351 16.860064,21.0085351 12.7965638,21.0085351 C10.5321637,21.0085351 8.26776361,21.0202351 6.00426352,21.0076351 C3.73266343,20.9959351 1.69326335,19.531635 0.926463319,17.3914349 C-0.0707367204,14.6086348 1.35756334,11.5189347 4.12776345,10.4632346 C4.21236345,10.4317346 4.29516345,10.3966346 4.37706346,10.3642346" id="Fill-6"></path>
                <path d="M16.0309839,32.6744255 C16.0408839,31.9418255 16.2055839,31.4765255 16.5916839,31.1336255 C17.043484,30.7322254 17.542084,30.3830254 18.000184,29.9888254 C18.280084,29.7476254 18.520384,29.4632254 18.781384,29.2004254 C18.811084,29.1698254 18.856984,29.1437254 18.897484,29.1401158 C18.915484,29.1392254 18.955984,29.2022254 18.955084,29.2346254 C18.939784,29.7638254 19.206184,30.2084254 19.3753841,30.6827254 C19.5616841,31.2038255 19.7965841,31.7195255 19.8937841,32.2586255 C20.0854841,33.3206255 19.152184,34.4924256 17.861584,34.3997256 C16.6492839,34.3124256 16.0192839,33.2837255 16.0309839,32.6744255" id="Fill-8"></path>
                <path d="M22.2764442,27.5942853 C21.5627441,27.5762853 20.9345441,27.2243853 20.5916441,26.4737853 C20.2523441,25.7312852 20.3279441,25.0004852 20.8976441,24.3929852 C21.2180441,24.0509852 21.6059441,23.7728852 21.9740442,23.4785852 C22.3943442,23.1410851 22.8839442,22.8791851 23.1530442,22.3769851 C23.1674442,22.3490851 23.2205442,22.3301851 23.2565442,22.3283851 C23.2745442,22.3283851 23.3114442,22.3760851 23.3114442,22.4021851 C23.3276442,23.1500851 23.7542442,23.7584852 23.9828442,24.4343852 C24.1097442,24.8051852 24.2483442,25.1876852 24.2762442,25.5728852 C24.3527443,26.6438853 23.4725442,27.5555853 22.2764442,27.5942853" id="Fill-10"></path>
                <path d="M14.3206239,27.5811698 C13.5205238,27.5766453 12.8176238,27.1176453 12.5287238,26.3643453 C12.2335238,25.5966452 12.3631238,24.8757452 12.9598238,24.3051452 C13.4008238,23.8839452 13.9201238,23.5464452 14.3854239,23.1477451 C14.6554239,22.9173451 14.8858239,22.6419451 15.1369239,22.3881451 C15.1666239,22.3575451 15.2107239,22.3314451 15.2512239,22.3269451 C15.2674239,22.3242451 15.3106239,22.3890451 15.3079239,22.4214451 C15.2755239,22.9002451 15.5050239,23.3061451 15.6679239,23.7309452 C15.8470239,24.1962452 16.0585239,24.6516452 16.1971239,25.1286452 C16.5589239,26.3778453 15.6211239,27.5874453 14.3206239,27.5811698" id="Fill-12"></path>
                <path d="M4.38633346,25.6474952 C4.35573346,24.9751952 4.69143347,24.4837952 5.17563349,24.0832952 C5.64183351,23.6980952 6.14133353,23.3524951 6.60753355,22.9672951 C6.79833355,22.8097951 6.93963356,22.5919951 7.10703356,22.4056951 C7.14033357,22.3687951 7.18983357,22.3480951 7.23213357,22.3201951 C7.25013357,22.3543951 7.28253357,22.3885951 7.28343357,22.4227951 C7.28703357,22.8646951 7.47513358,23.2543951 7.62813359,23.6548952 C7.83243359,24.1921952 8.0709336,24.7231952 8.20683361,25.2784952 C8.39583362,26.0479953 8.1069336,26.7004953 7.49493358,27.1828953 C6.87483356,27.6697953 6.17463353,27.7336953 5.4690335,27.3925953 C4.74993347,27.0460953 4.41063346,26.4358953 4.38633346,25.6474952" id="Fill-14"></path>
                <path d="M3.89457344,32.4863255 C3.90087344,33.3800255 3.24657341,34.1756256 2.34297338,34.3718256 C1.46997334,34.5608256 0.536673304,34.0811256 0.18027329,33.2387255 C-0.136526723,32.4890255 -0.0438267193,31.7771255 0.522273303,31.1831255 C0.840873316,30.8501254 1.22787333,30.5819254 1.58787335,30.2903254 C1.81737335,30.1040254 2.06667336,29.9402254 2.28537337,29.7422254 C2.45457338,29.5883254 2.58867339,29.3948254 2.74257339,29.2238254 C2.77587339,29.1869254 2.82447339,29.1644254 2.8658734,29.1338254 C2.8856734,29.1671254 2.9225734,29.2013254 2.9225734,29.2346254 C2.9270734,29.8034254 3.19797341,30.2903254 3.40227342,30.7961254 C3.61377343,31.3244255 3.86847344,31.8383255 3.89187344,32.4224255 C3.89277344,32.4440255 3.89367344,32.4656255 3.89457344,32.4863255" id="Fill-16"></path>
                <path d="M9.97794368,34.3997256 C9.18054365,34.3871256 8.57304362,34.0379256 8.23014361,33.3215255 C7.8908436,32.6123255 7.9196436,31.8833255 8.46054362,31.2893255 C8.85924363,30.8519254 9.35424365,30.4982254 9.81954367,30.1256254 C10.1714437,29.8448254 10.5593437,29.6081254 10.7807437,29.1932254 C10.7951437,29.1653254 10.8509437,29.1347254 10.8770437,29.1428254 C10.9049437,29.1509254 10.9391437,29.2031254 10.9382437,29.2346254 C10.9211437,29.8322254 11.2460437,30.3209254 11.4395437,30.8528254 C11.6051437,31.3055255 11.8085438,31.7591255 11.8832438,32.2316255 C12.0560438,33.3314255 11.1965437,34.3277256 10.0832437,34.3934256 C10.0481437,34.3961256 10.0130437,34.3979256 9.97794368,34.3997256" id="Fill-18"></path>
            </g>
        </g>
    </g>
</svg>
