<?xml version="1.0" encoding="UTF-8"?>
<svg width="17px" height="52px" viewBox="0 0 17 52" version="1.1" xmlns="http://www.w3.org/2000/svg" xmlns:xlink="http://www.w3.org/1999/xlink">
    <!-- Generator: Sketch 62 (91390) - https://sketch.com -->
    <title>rice</title>
    <desc>Created with Sketch.</desc>
    <g id="map-icons">
        <g id="art">
            <g id="Group-3">
                <path d="M6.52151757,43.0092736 C6.5341627,44.2424206 7.14678571,45.0229506 8.28252083,45.2529744 C8.28418141,43.9943051 7.64759921,43.1830836 6.52151757,43.0092736 M9.64719274,40.5258569 L10.0155652,40.7888335 C11.2251712,40.3917841 11.8008571,39.5573019 11.346631,38.2233579 C10.7802625,38.9909653 10.2135612,39.7582496 9.64719274,40.5258569 M7.83095351,18.5857258 C7.93377834,17.3180106 7.14478911,16.2531815 5.83302381,15.8894079 C5.61572732,17.1622922 6.56078401,18.437438 7.83095351,18.5857258 M11.9196548,13.0454485 C11.3745833,12.3317933 10.9998883,11.8404083 10.6248605,11.3490233 C10.259483,11.8597923 9.70775624,12.3282396 9.57331859,12.8906994 C9.38730215,13.6702602 9.36234467,14.7748265 10.4255334,14.8749773 C10.8281808,14.9127762 11.3476293,13.780103 11.9196548,13.0454485 M10.1353611,34.2325103 C11.4587732,34.0997298 13.3196032,32.0618226 13.1072982,30.9785787 C13.0716922,30.7979843 12.5635578,30.5249926 12.3658946,30.5841138 C11.2191814,30.9275341 10.0252154,32.8930742 10.1353611,34.2325103 M6.99704082,37.5245638 C7.22365476,36.1269757 5.90423583,33.8742289 4.60777778,33.479764 C4.39813492,33.4161198 3.84540986,33.7159261 3.81679195,33.9010435 C3.62711508,35.1277292 5.54218594,37.3064935 6.99704082,37.5245638 M14.0317234,20.4372232 C13.720254,20.3060579 13.265695,19.950038 13.0610437,20.0543887 C11.5579376,20.8223191 10.6757738,22.0974649 10.290763,23.6846934 C10.2391842,23.8975946 10.3712925,24.2742908 10.5453294,24.3825183 C10.7143747,24.4875151 11.1007166,24.4241939 11.2990454,24.2981978 C12.6301111,23.4507928 13.4690153,22.2431681 14.0317234,20.4372232 M2.73929422,23.6811397 C2.76957596,25.060313 4.86001474,27.8590431 6.23500567,28.4001804 C7.01001871,28.7054788 7.31682936,28.3704583 7.31183787,27.675541 C7.30252041,26.3115518 5.12889002,23.3881178 3.83209921,22.9539157 C3.13828118,22.7216304 2.72498526,22.9057787 2.73929422,23.6811397 M13.7145969,17.8720706 C14.5787914,16.9070692 15.0796049,15.4981737 15.3607925,14.208813 C15.8955482,11.7602877 16.1574354,9.2558717 16.585373,6.42321958 C16.7660652,12.0326332 17.0728759,17.3047648 15.3840862,22.4282855 C14.4127409,25.3753034 12.6713741,27.6897559 9.48080952,28.720986 C9.19995465,28.8117679 8.86818651,29.2388625 8.85088265,29.5263922 C8.7790051,30.6929875 8.82093367,31.866044 8.89580612,33.0885298 C9.87214286,31.0897138 11.5406338,29.8927503 13.527915,28.9985006 C13.9501956,28.8085372 14.3475187,28.3061679 14.5042517,27.863566 C15.2526434,25.7510304 15.9185091,23.6110341 16.6023441,21.4771761 C16.732123,21.0726961 16.8109887,20.6527089 17,20.2598593 C16.6968498,24.7957211 16.4213192,29.3412748 14.207424,33.4888099 C12.9968197,35.7564177 12.0158243,36.4846109 8.9307466,37.6793129 C8.97799943,38.3651843 9.02724887,39.0817471 9.0764983,39.7979868 C10.0168963,38.3089707 11.4041995,37.5277945 12.9379201,36.8273851 C13.4996298,36.5705467 13.8952891,35.7874322 14.1711525,35.1629435 C14.7671372,33.8151077 15.2363379,32.4146119 15.8163498,31.0532072 C15.3824223,34.2509251 14.9880941,37.4880572 13.1265986,40.2531883 C12.4544104,41.2521117 11.3572795,42.0807788 10.2747902,42.6845911 C9.57098923,43.0774407 9.47448696,43.4066461 9.57464966,44.0359807 C10.466131,49.6130876 10.6209106,49.5358887 10.7493152,50.4360352 C10.9240176,50.8763756 9.27882029,52.1055634 9.0804915,51.3037109 C8.00499036,46.9494129 8.26288435,46.7591131 7.45093424,46.5261817 C5.67362868,46.0157357 4.45270862,44.7438207 3.68235431,43.1989139 C2.52499263,40.8789693 1.56995295,38.4640429 0.529059523,36.0898229 C0.656509069,36.0336093 0.783625849,35.9773956 0.911075396,35.921505 C1.42653061,36.9226899 1.92235261,37.9342129 2.46276531,38.9224751 C3.17621655,40.2270199 3.99215986,41.373585 5.70657256,41.6372077 C6.41869274,41.7470505 7.06326134,42.2684807 7.74410147,42.6054397 C7.93876984,40.6699449 7.93677324,40.6741447 6.2912432,40.0008729 C4.34489229,39.2045126 3.11365646,37.7264807 2.26443651,35.9198897 C0.775306688,32.7509247 0.348367346,29.3529052 0.0665141711,25.9313018 C-0.0143480738,24.9511163 -0.0283242643,23.9654387 0.0628537403,22.9419622 C0.203613944,23.5725891 0.332394557,24.2058006 0.487463718,24.8328738 C0.818566325,26.1694023 1.11705782,27.5159458 1.51404818,28.8343826 C1.98890589,30.411596 2.75393594,31.687711 4.46601927,32.4692102 C5.63036905,33.0009786 6.49156859,34.1578818 7.55375907,35.0928379 C7.55375907,34.4615649 7.59968084,33.7705244 7.52946712,33.0911144 C7.50417687,32.8446142 7.25260544,32.511532 7.01667404,32.4107351 C3.26639626,30.8070301 1.93965646,27.6338653 1.27379082,24.0568667 C0.420244897,19.4709295 0.81623696,14.8833771 1.39624887,10.2984091 C1.58226531,12.3850994 1.75364002,14.4727588 1.96195181,16.5571876 C2.03216553,17.2598585 2.17159467,17.9586526 2.3210068,18.6509853 C2.65111111,20.1794156 3.28103798,21.4274237 4.72224943,22.4050247 C5.99940703,23.2711675 6.9278254,24.6212648 7.9976695,25.7445691 C8.13210714,24.8021824 8.2931661,23.673063 8.46221145,22.4909606 C4.8643407,20.9874064 3.92660487,17.9357148 3.70864286,14.5906783 C3.55557029,12.2410115 3.69999093,9.87292981 3.72461565,7.51292483 C3.72761054,7.25931717 3.82011961,7.00635565 3.93093084,6.45520322 C4.19481462,8.52993998 4.40079705,10.2961477 4.64970635,12.0562171 C4.82041553,13.2622265 5.3065873,14.2382121 6.47126984,14.9366831 C7.9450924,15.8202716 8.7344144,17.2537202 9.0804915,19.0383427 C9.60959014,18.1444161 9.48047676,17.5661261 8.93340873,16.8392251 C7.360089,14.7473658 7.81498072,11.9916037 9.84186111,10.2512414 C10.2172217,9.92849735 10.5436655,9.49655667 10.7493152,9.05233944 C12.0041774,6.34019135 12.8191224,3.51109297 13.0257704,0.531122271 C13.0384155,0.352143112 13.1043033,0.177040757 13.1452336,-1.42108547e-14 C13.2796712,0.0132457501 13.4141088,0.0261684331 13.5485465,0.0390911161 C13.4051241,1.98783171 13.2936474,3.93947991 13.1016412,5.88369757 C13.0290981,6.62158277 12.8330986,7.3630217 12.5848549,8.06666179 C12.1705607,9.24165675 12.0590839,10.2518875 12.7472449,11.4840653 C13.7475408,13.2738569 13.1086293,15.8322251 11.3462982,17.1406467 C10.1832795,18.003882 9.9034229,19.0247739 9.77730442,20.248552 C9.74535884,20.5593425 9.69211621,20.8678716 9.67215023,21.0106672 C10.9919019,20.0191744 12.5811944,19.1381705 13.7145969,17.8720706 Z" id="rice"></path>
            </g>
        </g>
    </g>
</svg>
