<?xml version="1.0" encoding="UTF-8"?>
<svg width="28px" height="57px" viewBox="0 0 28 57" version="1.1" xmlns="http://www.w3.org/2000/svg" xmlns:xlink="http://www.w3.org/1999/xlink">
    <!-- Generator: Sketch 49.3 (51167) - http://www.bohemiancoding.com/sketch -->
    <title>seed</title>
    <desc>Created with Sketch.</desc>
    <defs></defs>
    <g id="seed">
        <path d="M16.3428,17.4521 C17.2928,19.6001 18.4208,21.6841 19.1568,23.9091 C20.7828,28.8221 22.0388,33.8321 21.6318,39.1291 C21.5988,39.5581 21.8788,40.1581 22.2028,40.4511 C25.0068,42.9841 25.6858,45.1651 24.5038,48.8361 C23.1198,53.1301 20.1558,55.6761 15.9388,56.5021 C12.5058,57.1731 9.6558,54.6181 9.4658,50.9271 C9.2108,45.9501 13.4858,40.4291 18.2598,40.0031 C20.3368,39.8171 20.7338,38.8821 20.6288,37.0771 C20.2808,31.1171 19.0578,25.3881 16.5888,19.9761 C16.2678,19.2721 15.9428,18.5701 15.6188,17.8681 C15.8598,17.7291 16.1018,17.5911 16.3428,17.4521 M20.8068,40.5751 C19.9298,44.7121 17.1928,47.2001 13.8608,49.1891 C17.9458,47.8161 20.9028,45.4701 20.8068,40.5751" id="Fill-1"></path>
        <path d="M1.6469,0 C5.8899,0.558 9.7819,1.19 13.1319,3.556 C16.5569,5.975 16.1369,9.555 15.5619,13.187 C15.2019,15.457 14.3099,16.202 11.9799,15.905 C5.1909,15.042 2.5819,12.432 1.9819,5.28 C1.8419,3.615 1.7679,1.944 1.6469,0" id="Fill-4"></path>
        <path d="M17.1072,16.4424 C17.6322,9.9954 21.6272,6.9984 28.0262,8.1134 C27.4892,14.5424 23.7602,17.4344 17.1072,16.4424" id="Fill-9"></path>
        <path d="M0,20.5638 C4.641,14.7078 10.224,14.6818 14.481,20.3708 C9.937,26.2048 4.616,26.3198 0,20.5638" id="Fill-7"></path>
    </g>
</svg>