<?xml version="1.0" encoding="UTF-8"?>
<svg width="50px" height="52px" viewBox="0 0 50 52" version="1.1" xmlns="http://www.w3.org/2000/svg" xmlns:xlink="http://www.w3.org/1999/xlink">
    <!-- Generator: Sketch 49.3 (51167) - http://www.bohemiancoding.com/sketch -->
    <title>tree</title>
    <desc>Created with Sketch.</desc>
    <defs></defs>
    <g id="tree">
        <path d="M33.3695536,7.38005517 C35.9365179,5.82722759 37.9141964,5.82184828 39.7552679,7.33791724 C41.5891964,8.84771034 41.829375,10.7528828 40.5704464,14.0611586 C42.9534821,14.2960552 44.498125,15.5449517 45.1802679,17.8688138 C45.2499107,18.1081931 45.6490179,18.3206759 45.9374107,18.4139172 C48.0008036,19.0791586 49.3534821,20.7512276 49.416875,22.7729517 C49.4847321,24.9094345 48.2784821,26.7392966 46.2865179,27.5246759 C45.2025893,27.9514345 45.079375,28.5072966 45.929375,29.3384 C47.3516964,30.7289517 47.7990179,32.4064 47.2249107,34.2694345 C46.648125,36.1414345 45.2909821,37.2710897 43.3561607,37.5696414 C41.4454464,37.8646069 39.9016964,37.1106069 38.8115179,35.5550897 C38.3186607,34.8504 37.9472321,34.6692966 37.1141964,35.0548138 C32.9222321,36.9967448 28.6347321,34.6845379 27.9552679,30.1022621 C27.6829464,28.2679172 28.4436607,26.668469 29.4570536,24.9201931 C29.1695536,24.9955034 28.8275893,24.9964 28.6034821,25.1595724 C27.7588393,25.7719172 26.9365179,26.4192276 26.1400893,27.094331 C25.9079464,27.2915724 25.6347321,27.6286759 25.6427679,27.8931586 C25.7061607,29.9624 25.7472321,32.0388138 25.9659821,34.0946069 C26.1990179,36.2804 27.3695536,38.014331 28.9275893,39.5286069 C29.2633036,39.8549517 29.498125,40.4296414 29.5284821,40.9066069 C29.6133036,42.2711586 29.5409821,43.6455724 29.5820536,45.0146069 C29.6838393,48.4340552 31.0097321,49.8981241 34.366875,50.3625379 C34.9436607,50.442331 35.5400893,50.4835724 36.0847321,50.6673655 C36.5900893,50.8377103 37.0400893,51.1757103 37.5141964,51.4392966 C37.4775893,51.5459862 37.441875,51.6517793 37.4061607,51.7575724 L13.9516964,51.7575724 C13.5454464,50.7857103 14.2079464,50.3777793 14.991875,50.1706759 C16.116875,49.8748138 17.2758036,49.714331 18.4115179,49.4552276 C22.2222321,48.5882621 23.5400893,46.6454345 23.0347321,42.7947448 C22.7052679,40.2861931 22.4534821,37.7668828 22.1463393,35.0673655 C21.7802679,35.3919172 21.5159821,35.6357793 21.241875,35.8688828 C19.616875,37.2549517 17.7972321,37.9210897 15.6338393,37.5024 C15.2972321,37.4369517 14.7883036,37.6019172 14.5400893,37.8457793 C11.5159821,40.8151586 7.71508929,39.9992966 6.23830357,36.0356414 C6.18473214,35.8912966 6.11955357,35.7514345 6.06151786,35.6142621 C2.68383929,35.9325379 0.652589286,34.3761241 0.101696429,31.6479172 C-0.409017857,29.1232276 1.03741071,27.1382621 3.80794643,26.1072276 C4.40348214,24.5597793 4.93830357,23.1719172 5.48294643,21.7571586 C3.97848214,21.9095724 2.379375,21.5375034 1.348125,20.1308138 C0.733839286,19.2925379 0.246339286,18.2095034 0.124910714,17.1856414 C-0.151875,14.8752276 1.52758929,12.9359862 4.148125,12.2026069 C4.58026786,6.75515862 7.43116071,4.86343448 11.9445536,7.09674483 C12.166875,5.37805517 12.6400893,3.75171034 14.2624107,2.88564138 C15.0579464,2.46067586 16.0445536,2.03302069 16.879375,2.13612414 C18.0097321,2.27688276 18.6624107,1.9344 19.485625,1.23688276 C22.1740179,-1.04394483 26.2427679,-0.0460827586 27.7150893,3.20571034 C28.023125,3.88529655 28.3463393,4.10764138 29.0775893,4.12557241 C30.7079464,4.16591724 31.9525893,4.97908966 32.8115179,6.37053793 C33.0124107,6.69688276 33.1838393,7.04205517 33.3695536,7.38005517" id="Fill-1"></path>
    </g>
</svg>