<?xml version="1.0" encoding="UTF-8"?>
<svg width="30px" height="41px" viewBox="0 0 30 41" version="1.1" xmlns="http://www.w3.org/2000/svg" xmlns:xlink="http://www.w3.org/1999/xlink">
    <!-- Generator: Sketch 62 (91390) - https://sketch.com -->
    <title>treetall</title>
    <desc>Created with Sketch.</desc>
    <g id="map-icons">
        <g id="art" transform="translate(-1098.000000, -592.000000)">
            <path d="M1108.05862,613.893912 C1108.0953,613.924772 1108.13531,613.968142 1108.18282,613.999001 C1109.0206,614.547803 1109.85503,615.100774 1110.69864,615.640401 C1110.9979,615.831397 1111.31884,615.989031 1111.63144,616.16001 C1111.78649,616.244249 1111.91153,616.217559 1111.97989,616.044078 C1112.25665,615.343481 1112.31917,614.603684 1112.41503,613.85638 C1111.44222,613.737946 1110.53442,613.504413 1109.66247,613.133263 C1109.60995,613.110744 1109.52743,613.11408 1109.47741,613.14077 C1109.00559,613.385979 1108.53711,613.63786 1108.05862,613.893912 M1113.83216,613.912261 C1113.82382,613.966474 1113.81299,613.998167 1113.81382,614.030695 C1113.85467,615.006527 1113.88884,615.983193 1113.94136,616.958191 C1113.9547,617.219247 1114.01889,617.478634 1114.0664,617.736354 C1114.10141,617.928184 1114.20978,617.979061 1114.37484,617.871469 C1114.53739,617.763878 1114.71078,617.664626 1114.85082,617.531179 C1115.72194,616.708812 1116.58639,615.880606 1117.44833,615.048229 C1117.70092,614.804688 1117.93683,614.543632 1118.17023,614.300926 C1117.71092,614.003172 1117.27828,613.720431 1116.84064,613.444362 C1116.79312,613.414336 1116.71059,613.405996 1116.65558,613.424345 C1115.74528,613.717094 1114.81331,613.882235 1113.83216,613.912261 M1106.47727,594.589121 C1107.56679,594.021971 1108.73217,593.871843 1109.93923,594.031146 C1110.15346,594.058669 1110.27684,594.036984 1110.41605,593.836813 C1111.02708,592.957731 1111.9082,592.46064 1112.92436,592.208759 C1114.54406,591.806749 1116.09956,591.960213 1117.52002,592.889339 C1118.39364,593.460659 1118.96549,594.245495 1119.00717,595.335591 C1119.01384,595.503234 1118.99217,595.671711 1118.983,595.827677 C1119.41731,595.901907 1119.84995,595.945277 1120.26508,596.052035 C1121.11703,596.271389 1121.8556,596.695083 1122.40578,597.396515 C1123.03765,598.199699 1123.1877,599.090459 1122.83842,600.05795 C1122.82175,600.104657 1122.80841,600.151363 1122.80757,600.154699 C1123.4011,600.283142 1123.99546,600.376555 1124.56898,600.543364 C1125.2467,600.740198 1125.84356,601.102174 1126.31205,601.643468 C1127.07146,602.521717 1127.07313,603.620154 1126.30121,604.48756 C1126.09448,604.719424 1125.84523,604.922097 1125.58848,605.098914 C1125.33173,605.274898 1125.04163,605.401672 1124.7432,605.563477 C1124.82406,605.615188 1124.90325,605.668566 1124.98328,605.717775 C1126.08197,606.398355 1126.9831,607.269098 1127.54245,608.450938 C1128.51193,610.503522 1127.90923,612.693722 1126.03362,613.973146 C1124.70319,614.88142 1123.21187,615.184178 1121.62802,615.127463 C1120.84277,615.099106 1120.07835,614.952314 1119.32811,614.722118 C1119.24642,614.697931 1119.10304,614.722952 1119.05219,614.781335 C1117.54753,616.501135 1116.05038,618.227606 1114.55239,619.954078 C1114.52488,619.985772 1114.50321,620.023304 1114.47403,620.054163 C1114.00722,620.561262 1113.84133,621.145928 1113.85133,621.844857 C1113.88634,624.225219 1113.848,626.606416 1113.87884,628.986778 C1113.89718,630.386305 1114.19144,630.589035 1114.31148,630.753342 C1114.51655,631.032747 1114.79497,631.261275 1114.98503,631.54902 C1115.20177,631.877634 1115.54877,632.961766 1115.24095,632.964394 C1113.87301,632.97607 1112.50506,632.987747 1111.13795,632.999425 C1111.04459,633.000257 1110.85786,632.167047 1111.17129,631.844272 C1111.20631,631.808408 1111.24465,631.769208 1111.28967,631.748357 C1111.87152,631.473122 1112.11994,631.242034 1112.12911,630.17279 C1112.14494,628.421296 1112.16078,626.668135 1112.11827,624.91831 C1112.06992,622.906595 1111.95322,620.896548 1111.87736,618.883999 C1111.85735,618.36439 1111.66646,617.969053 1111.24382,617.649614 C1109.81419,616.568692 1108.40039,615.46692 1106.9716,614.38433 C1106.88574,614.31844 1106.71651,614.315104 1106.59981,614.342628 C1104.85258,614.757148 1103.10534,614.82971 1101.35894,614.35347 C1100.43697,614.102423 1099.58753,613.69958 1098.91148,613.003987 C1097.78278,611.842997 1097.70025,610.293342 1098.67557,608.883807 C1099.2741,608.020572 1100.07352,607.385864 1100.97548,606.868756 C1101.04884,606.827054 1101.1222,606.785352 1101.19889,606.741982 C1100.99049,606.597692 1100.78042,606.472585 1100.59286,606.319121 C1099.91347,605.761145 1099.8051,604.987986 1100.29693,604.255695 C1100.65288,603.727745 1101.15304,603.36577 1101.69822,603.058008 C1101.78658,603.007965 1101.87578,602.95959 1101.89912,602.945412 C1101.77074,602.503368 1101.58068,602.09135 1101.5415,601.665154 C1101.46231,600.816096 1101.90245,600.170546 1102.51932,599.63509 C1103.10868,599.124654 1103.8039,598.816892 1104.54331,598.599207 C1104.6325,598.573351 1104.7217,598.549164 1104.82507,598.518304 C1104.06149,596.731781 1105.09099,595.311404 1106.47727,594.589121 Z" id="treetall"></path>
        </g>
    </g>
</svg>
