<?xml version="1.0" encoding="UTF-8"?>
<svg width="42px" height="55px" viewBox="0 0 42 55" version="1.1" xmlns="http://www.w3.org/2000/svg" xmlns:xlink="http://www.w3.org/1999/xlink">
    <!-- Generator: Sketch 49.3 (51167) - http://www.bohemiancoding.com/sketch -->
    <title>wineglass</title>
    <desc>Created with Sketch.</desc>
    <defs></defs>
    <g id="wineglass" transform="translate(0.000000, -1.000000)">
        <path d="M24.2331,55.3445 C24.2301,44.2995 24.2241,33.2545 24.2271,22.2095 C24.2281,18.9565 25.7051,16.5375 28.3971,14.7635 C28.7691,14.5185 29.0831,13.9165 29.1101,13.4605 C29.2001,11.9815 29.1441,10.4945 29.1441,8.9195 L36.0781,8.9195 C36.0781,10.4605 36.1101,11.9825 36.0631,13.5005 C36.0421,14.1505 36.2631,14.4855 36.8281,14.8195 C39.4001,16.3405 40.8851,18.6035 40.9501,21.6165 C41.0381,25.6055 41.0061,29.5965 41.0101,33.5875 C41.0171,40.3595 41.0131,47.1315 41.0081,53.9035 C41.0071,54.3835 40.9531,54.8645 40.9231,55.3445 L24.2331,55.3445 Z M25.8841,46.8375 L39.5001,46.8375 L39.5001,30.4395 L25.8841,30.4395 L25.8841,46.8375 Z" id="Fill-1"></path>
        <path d="M11.1512,52.8689 C12.7692,53.1439 14.2762,53.4009 15.9972,53.6939 C14.2722,55.2889 5.6932,55.3619 3.5382,53.9579 C4.9752,52.9209 6.6722,53.3389 8.2812,52.8799 C8.2812,51.0209 8.2812,49.1379 8.2812,47.2549 C8.2812,44.9999 8.3102,42.7439 8.2512,40.4899 C8.2422,40.1299 7.8952,39.5229 7.6122,39.4629 C3.2802,38.5469 -0.3428,33.5289 0.0262,28.1629 C0.1552,26.2819 0.8212,24.4339 1.2862,22.5819 C1.4492,21.9299 1.9042,21.6849 2.6392,21.6909 C7.3102,21.7299 11.9832,21.6939 16.6542,21.7379 C17.0752,21.7419 17.6832,22.0229 17.8832,22.3639 C20.5352,26.8809 19.6532,33.4869 15.8062,37.0469 C14.7222,38.0489 13.2282,38.6049 11.9382,39.3919 C11.6422,39.5729 11.1872,39.8609 11.1842,40.1039 C11.1382,44.3659 11.1512,48.6279 11.1512,52.8689 M9.6992,23.3929 C7.7242,23.3929 5.7492,23.4309 3.7762,23.3729 C3.0062,23.3509 2.6162,23.5949 2.3692,24.3209 C1.1092,28.0239 1.3792,31.5439 3.6812,34.7669 C6.4852,38.6909 11.5602,39.0699 14.8612,35.6649 C17.6882,32.7499 18.5432,27.7589 16.7852,24.1009 C16.6272,23.7739 16.1052,23.4359 15.7422,23.4249 C13.7292,23.3589 11.7132,23.3929 9.6992,23.3929" id="Fill-3"></path>
        <polygon id="Fill-6" points="29.222 6.8525 36.012 6.8525 36.012 0.9995 29.222 0.9995"></polygon>
        <path d="M2.2656,28.6287 L16.8086,28.6287 C16.5556,34.2137 13.6246,37.4417 9.0836,37.1987 C5.3226,36.9977 2.4496,32.9427 2.2656,28.6287" id="Fill-8"></path>
    </g>
</svg>