<?xml version="1.0" encoding="UTF-8"?>
<svg width="778px" height="105px" viewBox="0 0 778 105" version="1.1" xmlns="http://www.w3.org/2000/svg" xmlns:xlink="http://www.w3.org/1999/xlink">
    <!-- Generator: Sketch 48.2 (47327) - http://www.bohemiancoding.com/sketch -->
    <title>AES Logo</title>
    <desc>Created with Sketch.</desc>
    <defs></defs>
    <g id="phase1" stroke="none" stroke-width="1" fill="none" fill-rule="evenodd" transform="translate(-325.000000, -265.000000)">
        <g id="AES-Logo" transform="translate(325.000000, 265.000000)" fill="#FFFFFF">
            <path d="M92.84,47.08 C92.84,47.08 94.6,45.96 95.56,48.52 C95.56,48.52 84.2,77.72 70.76,86.92 C69.56,86.84 68.28,84.28 67.48,82.2 C65.24,81.16 62.2,77.24 66.52,63.32 C70.36,50.6 77.72,33.88 82.44,23.48 C73.96,31.64 66.04,39 58.76,45.48 C65.32,47.64 67.08,51.72 67.08,51.72 C61.8,50.92 56.84,50.84 52.36,51.16 C24.84,75.48 8.44,86.84 8.44,86.84 C8.44,86.84 5.72,87.48 1.72,81.96 C-2.28,76.52 4.12,58.76 17,42.28 C29.8,25.8 46.04,20.6 47.64,20.84 C49.24,21.16 52.44,22.36 52.44,26.68 C52.44,31 39.32,45.32 39.32,45.32 C42.6,44.68 45.56,44.28 48.2,44.2 C69.8,24.84 87.8,6.84 87.8,6.84 C60.04,12.92 58.44,22.68 58.44,22.68 C58.44,22.68 46.6,18.44 58.2,8.92 C69.88,-0.52 95.48,1 95.48,1 C97.32,1.32 99.48,6.84 99.48,6.84 C97.24,9.08 95.08,11.24 92.84,13.4 C94.6,15.24 95.48,18.12 95.48,18.12 C81.88,38.76 73.96,64.36 70.84,76.12 C76.12,71.88 81.8,62.92 92.84,47.08 Z M7.48,77.72 C16.52,71.24 26.44,63.16 36.2,54.76 C30.76,56.76 27.72,58.76 27.72,58.76 C21.24,56.28 22.2,52.68 22.2,52.68 C35.32,47.48 42.04,31.56 42.04,31.56 C42.04,31.56 35,34.04 21.88,48.36 C8.76,62.76 7.48,77.72 7.48,77.72 Z M159.48,62.48 C159.48,62.48 141.16,57.68 116.12,75.28 C113.48,93.68 110.36,104.72 106.76,104.72 C102.76,104.72 100.2,101.6 100.2,101.6 C100.44,99.92 99.08,97.28 97.8,95.12 C96.84,96.56 96.44,97.28 96.44,97.28 C90.28,97.68 89.88,92.72 89.88,92.72 C93.24,87.28 97.24,82.88 101.48,78.64 C101.48,78.64 103.72,76.24 107.48,72.88 C108.12,72.24 108.76,71.68 109.4,71.04 L109.88,67.52 C110.76,63.12 111.56,59.28 112.44,55.92 C109.56,59.92 106.28,64.56 103.64,68.88 C103.64,68.88 101.96,69.52 100.52,71.04 C99,72.56 92.36,66.8 92.36,63.76 C92.36,60.72 101.24,30.56 113.24,30.56 C113.24,30.56 117.64,31.04 121.16,34.24 C122.84,31.52 123.88,30.56 123.88,30.56 C127.88,30.56 131.8,35.6 131.8,35.6 C131.8,35.6 123.4,45.44 118.92,60.56 L118.04,64.64 C127.4,58.08 140.04,51.52 153.8,50.48 C153.8,50.48 158.36,53.68 159.48,62.48 Z M99.8,64.08 L115.16,47.2 C116.52,43.2 117.88,40 119.08,37.68 C115,37.28 106.12,39.68 99.8,64.08 Z M102.6,96.96 C102.6,96.96 103.8,97.04 107,82.48 C106.6,82.8 106.2,83.12 105.88,83.52 C103.4,86.8 101.4,89.84 99.8,92.16 C101.88,94.32 102.6,96.96 102.6,96.96 Z M242.439999,20.7599994 C242.439999,20.7599994 242.439999,20.7599994 242.439999,20.7599994 C242.439999,20.7599994 242.439999,20.7599994 242.439999,20.7599994 Z M242.439999,20.7599994 C242.435213,20.7571663 226.356309,11.2405596 201.56,15 C169.08,19.88 173,34.52 173,34.52 C163.32,33.64 165.24,20.76 165.24,20.76 C194.28,-1.24 229.72,5.56 238.28,7.64 C246.83979,9.71994897 242.440216,20.7594583 242.44,20.76 L242.439999,20.7599994 Z M216.279999,86.4399995 C216.279999,86.4399995 216.279999,86.4399995 216.279999,86.4399995 C216.279999,86.4399995 216.279999,86.4399995 216.279999,86.4399995 Z M216.279999,86.4399995 C216.276319,86.4372598 201.555839,75.4827107 168.28,97.16 C168.28,97.16 160.68,96.2 159.4,90.6 C159.4,90.6 162.44,85.72 173.08,81.4 C172.44,74.84 176.2,64.84 180.68,55.48 C179.56,56.12 178.36,56.76 177.16,57.4 C177.16,57.4 172.76,56.76 173,50.84 C173,50.84 178.28,45.8 187.56,42.36 C190.28,37.4 192.6,33.56 193.32,32.04 C198.52,21.96 198.6,17.64 198.6,17.64 C208.6,19.08 206.52,27.56 200.84,39.24 C203.08,39.08 205.32,39 207.72,39.08 C207.72,39.08 216.28,47.72 212.6,48.76 C210.12,49.48 205.24,47.24 195.56,49.56 C192.12,55.96 188.44,62.76 185.48,69.72 C183.96,73.08 182.76,76.04 181.8,78.52 C185.48,77.56 189.72,76.68 194.6,76.04 C222.99942,72.4400735 216.280274,86.4394283 216.28,86.44 L216.279999,86.4399995 Z M257.32,48.6 C253.48,54.68 242.68,71.48 241.08,71.4 C239.08,68.84 236.52,61.64 233.56,56.2 C227.72,62.04 222.2,68.04 218.76,72.6 C218.76,72.6 215.72,73.8 212.52,69 C212.52,69 220.68,59.56 229.96,49.48 L227,43.56 C224.92,47.48 221.88,51.72 217.72,56.04 C217.72,56.04 215.72,56.28 215.96,54.12 C215.96,54.12 218.36,50.44 220.92,45.08 C222.28,41.48 223.4,36.44 222.12,32.04 C222.12,32.04 226.28,29.64 229.48,32.04 C230.68,33 232.84,37.88 235.24,43.72 C241.64,36.76 248.04,30.2 252.04,26.92 C252.04,26.92 256.44,30.52 256.84,33.72 C256.84,33.72 248.04,41.88 238.52,51.32 C240.04,54.76 241.64,58.44 243.56,60.84 C248.84,54.44 254.6,47.16 254.6,47.16 C256.68,47 257.32,48.6 257.32,48.6 Z M264.84,64.76 C264.84,64.68 264.92,64.68 264.92,64.6 C265.48,63.88 266.04,63.08 266.6,62.28 C265.8,61.96 265.16,61.64 264.68,61.4 C264.52,63.32 264.76,64.76 264.84,64.76 Z M311.8,69.4 C309.72,71.64 310.76,70.36 309.16,71.72 C304.28,75.64 301.48,75.64 300.6,75.64 C299,75.64 282.44,73.8 289.16,53.8 C295.8,33.8 307.24,33.8 307.24,33.8 C307.24,33.8 316.84,36.04 316.84,42.6 C316.84,52.76 306.12,56.84 306.12,56.84 C301.24,56.84 299.32,54.12 299.08,51.48 C297.56,54.04 295.56,58.28 295.56,61.32 C295.56,68.2 298.76,69.16 298.76,69.16 C306.12,69.4 313.64,61.32 318.36,53.32 C320.76,49.96 322.28,47.64 322.28,47.64 C324.36,47.48 325.08,49.08 325.08,49.08 C319.96,57.16 315.32,65.56 311.8,69.4 Z M309.8,41.32 C307.32,41.32 304.12,44.12 301.08,48.6 C300.84,50.6 302.36,51.8 302.36,51.8 C306.92,49.88 309.8,41.32 309.8,41.32 Z M327.8,25.8 C327.8,25.8 328.36,26.28 329.32,27.08 C329.32,26.68 329.4,26.28 329.48,25.8 C329.48,25.8 328.2,23.32 327.8,25.8 Z M370.2,24.52 C370.2,24.52 366.36,25.4 363.88,21.48 C363.88,21.48 364.28,10.52 369.72,6.84 C369.72,6.84 375,7 376.6,11.16 C376.6,11.16 367.8,21.72 370.2,24.52 Z M367.8,47.4 C369.88,47.24 370.52,48.84 370.52,48.84 C360.6,64.6 353.32,75.8 353.32,75.8 C351.8,75.8 350.44,73.48 349.08,72.2 C346.92,70.52 346.12,68.36 346.12,68.36 C346.12,46.28 356.84,34.2 356.84,34.2 C363.4,34.2 364.36,39.08 364.36,39.08 C355.4,47.24 353.56,62.68 353.24,67.96 C359.24,61 367.8,47.4 367.8,47.4 Z M437.32,69.4 C435.24,71.64 436.28,70.36 434.68,71.72 C429.8,75.64 427,75.64 426.12,75.64 C424.52,75.64 407.96,73.8 414.68,53.8 C421.32,33.8 432.76,33.8 432.76,33.8 C432.76,33.8 442.36,36.04 442.36,42.6 C442.36,52.76 431.64,56.84 431.64,56.84 C426.76,56.84 424.84,54.12 424.6,51.48 C423.08,54.04 421.08,58.28 421.08,61.32 C421.08,68.2 424.28,69.16 424.28,69.16 C431.64,69.4 439.16,61.32 443.88,53.32 C446.28,49.96 447.8,47.64 447.8,47.64 C449.88,47.48 450.6,49.08 450.6,49.08 C445.48,57.16 440.84,65.56 437.32,69.4 Z M435.32,41.32 C432.84,41.32 429.64,44.12 426.6,48.6 C426.36,50.6 427.88,51.8 427.88,51.8 C432.44,49.88 435.32,41.32 435.32,41.32 Z M491.64,48.84 C489.16,52.84 486.76,56.2 484.44,59.16 C477.56,70.12 471.96,77.08 471.96,77.08 C465.08,75.96 462.76,70.04 462.76,70.04 C464.28,53.56 470.36,46.84 470.36,46.84 C455.96,57.88 448.84,74.84 448.84,74.84 C446.84,75.72 444.36,73.48 442.52,72.12 C440.68,70.76 442.6,66.76 449.08,52.92 C455.48,39.08 454.04,32.92 454.04,32.92 C467.4,32.92 458.44,50.28 458.44,50.28 C462.6,44.36 476.52,32.92 479.16,32.92 C481.8,32.92 485.48,37.96 485.48,37.96 C474.76,53.72 471,67.4 470.28,70.04 C474.12,65.96 488.92,47.4 488.92,47.4 C491,47.24 491.64,48.84 491.64,48.84 Z M601.517527,27.8930297 C598.157527,31.2530297 597.837527,39.4930297 597.837527,39.4930297 C612.797527,30.2930297 614.317527,14.1330297 614.317527,14.1330297 C594.077527,11.8930297 569.517527,45.8130297 573.997527,48.0530297 C583.677527,53.0130297 590.237527,57.2530297 594.637527,60.9330297 C606.877527,71.4930297 604.237527,84.3730297 595.917527,93.8930297 C587.677527,103.33303 578.877527,100.29303 573.677527,95.8930297 C568.477527,91.4130297 570.317527,86.5330297 575.517527,79.8130297 C580.717527,73.0930297 588.637527,69.0930297 588.637527,69.0930297 C591.117527,68.5330297 591.117527,71.4930297 591.117527,71.4930297 C581.677527,80.0530297 578.877527,91.4130297 578.877527,91.4130297 C599.037527,80.6930297 598.317527,68.4530297 584.717527,61.4930297 C568.237527,53.0130297 565.997527,49.6530297 564.717527,44.0530297 C563.437527,38.0530297 569.117527,30.2930297 576.477527,22.3730297 C583.757527,14.4530297 603.917527,1.01302974 615.517527,7.73302974 C627.197527,14.4530297 624.397527,20.6130297 624.397527,20.6130297 C616.157527,39.3330297 599.357527,50.4530297 596.317527,50.1330297 C593.277527,49.8930297 588.637527,47.7330297 591.117527,39.1730297 C593.597527,30.6130297 601.517527,27.8930297 601.517527,27.8930297 Z M666.536639,47.9898093 C668.616639,47.8298093 669.336639,49.4298093 669.336639,49.4298093 C663.736639,58.5498093 652.696639,73.8298093 652.696639,73.8298093 C649.656639,73.8298093 645.176639,69.6698093 645.176639,69.6698093 C644.296639,68.0698093 644.376639,66.3098093 644.856639,64.5498093 C639.496639,71.8298093 635.976639,73.8298093 635.976639,73.8298093 C628.136639,73.8298093 626.536639,66.7898093 626.536639,66.7898093 C628.136639,44.3898093 643.736639,33.9098093 649.496639,33.9098093 C661.096639,33.9098093 657.816639,43.3498093 657.816639,43.3498093 C656.056639,42.0698093 654.936639,38.2298093 651.176639,40.4698093 C632.776639,51.5898093 634.216639,68.7898093 634.216639,68.7898093 C641.976639,64.8698093 653.336639,44.9498093 653.336639,44.9498093 C653.336639,44.9498093 657.416639,45.2698093 658.456639,48.7898093 C659.496639,52.3098093 652.376639,66.6298093 652.376639,66.6298093 C656.856639,64.0698093 666.536639,47.9898093 666.536639,47.9898093 Z M703.856639,25.5898093 C703.856639,25.5898093 700.016639,26.4698093 697.536639,22.5498093 C697.536639,22.5498093 697.936639,11.5898093 703.376639,7.90980934 C703.376639,7.90980934 708.656639,8.06980934 710.256639,12.2298093 C710.256639,12.2298093 701.456639,22.7898093 703.856639,25.5898093 Z M740.474143,49.7098093 C737.834143,54.5098093 729.594143,65.5498093 726.234143,66.1898093 C723.434143,66.6698093 721.834143,66.5098093 720.234143,65.9498093 C715.674143,72.2698093 711.434143,74.7498093 711.434143,74.7498093 C703.594143,75.3898093 694.714143,69.7098093 698.394143,54.8298093 C702.074143,39.8698093 713.514143,32.9098093 713.514143,32.9098093 C715.434143,32.9098093 716.874143,33.6298093 717.994143,34.4298093 C719.834143,31.7898093 734.234143,31.8698093 728.474143,49.7898093 C727.034143,54.0298093 725.354143,57.6298093 723.674143,60.7498093 C728.714143,59.0698093 737.754143,48.2698093 737.754143,48.2698093 C739.834143,48.1098093 740.474143,49.7098093 740.474143,49.7098093 Z M706.086688,69.9498093 C709.366688,67.8698093 712.006688,65.3898093 714.166688,62.6698093 C712.726688,60.8298093 711.766688,58.2698093 711.526688,54.7498093 C711.366688,51.7098093 711.606688,49.1498093 712.166688,46.9098093 C699.926688,62.9898093 706.086688,69.9498093 706.086688,69.9498093 Z M718.101735,57.0698093 C723.301735,47.9498093 723.701735,38.9098093 723.701735,38.9098093 C717.781735,43.5498093 716.661735,51.9498093 718.101735,57.0698093 Z" id="Ag-Experiment-Statio"></path>
            <path d="M294.92,48.6 C288.76,59.72 281.48,63.16 275.56,63.64 C271.16,71.64 267.88,74.52 267.88,74.52 C263.8,74.6 261.08,70.6 261.08,70.6 C260.44,66.44 261.88,60.36 261.88,60.36 C262.04,60.12 262.2,59.88 262.36,59.72 C261.96,58.6 262.2,57 263.4,55.88 C265.32,57.16 267.16,57.96 269,58.52 C273.8,50.12 277.16,40.28 277.16,40.28 C247.72,64.36 248.2,94.6 248.2,94.6 C244.52,95.16 239.96,89.56 239.96,89.56 C248.36,57.72 260.6,32.6 260.6,32.6 C263.64,32.6 266.68,36.28 266.68,36.28 C265.08,38.68 262.04,46.44 260.04,51.56 C267.8,40.84 277.88,32.6 280.68,32.6 C284.52,32.6 285.96,37.88 285.96,37.88 C283.4,46.44 280.68,53.08 278.28,58.36 C286.68,55.72 292.12,47.16 292.12,47.16 C294.2,47 294.92,48.6 294.92,48.6 Z" id="Path"></path>
            <path d="M350.84,52.2 C344.52,61.48 336.44,71.16 333.56,73.8 C332.28,75.16 330.92,76.52 329.48,77.88 C329.48,77.88 322.12,74.28 321.4,71.56 C321.4,71.56 327.4,51.16 335,41.64 C335,41.64 333.72,39.8 331.96,37.48 C329.96,42.92 326.36,49.32 319.88,56.04 C319.88,56.04 317.88,56.28 318.12,54.12 C318.12,54.12 324.76,43.8 327.96,32.76 C326.2,30.84 324.36,29.16 322.76,28.36 C322.76,28.36 325.8,20.04 328.92,20.2 C332.12,20.28 334.2,23.08 334.2,23.08 C334.2,23.08 334.68,26.2 333.72,31.16 C337.24,34.6 341.4,39.24 342.76,43.24 C342.76,43.24 332.36,61.24 330.12,69.96 C330.12,69.96 335.48,64.84 343.96,55.16 C347.56,50.76 350.44,47.16 350.44,47.16 C352.52,47 353.16,48.6 353.16,48.6 C352.36,49.8 351.64,51 350.84,52.2 Z" id="Path"></path>
            <path d="M420.28,48.84 C419.4,50.28 418.44,51.64 417.56,53 C408.6,67 396.44,80.92 396.44,80.92 C396.44,80.92 390.12,80.28 390.6,73.32 C391.16,66.28 396.44,53.64 396.44,53.64 C392.2,56.52 382.92,67.96 382.92,67.96 C379.72,67.96 378.28,65.72 378.28,65.72 C379.88,61.72 383.08,48.52 383.08,48.52 C376.92,54.6 366.44,73.32 366.44,73.32 C360.28,70.84 359.08,62.28 364.2,53.96 C369.32,45.8 368.52,34.04 368.52,34.04 C379.72,33.24 374.6,49.48 374.6,49.48 C380.04,41.16 388.2,34.04 388.2,34.04 C391.32,34.04 392.92,37.32 392.92,37.32 C392.52,40.84 388.04,53 388.04,53 C396.92,43.8 409.72,28.92 409.72,28.92 C414.84,30.52 415.8,34.04 415.8,34.04 C408.12,42.44 399.56,68.2 398.92,70.04 C402.76,66.04 417.48,47.4 417.48,47.4 C419.64,47.24 420.28,48.84 420.28,48.84 Z" id="Path"></path>
            <path d="M508.056639,20.5898093 C525.176639,20.5098093 565.896639,17.2298093 565.896639,17.2298093 C565.896639,18.7498093 561.256639,26.9098093 561.256639,26.9098093 C551.256639,26.0298093 513.496639,25.7098093 505.496639,25.9498093 C500.216639,37.5498093 497.016639,47.2298093 495.096639,54.4298093 C492.536639,64.5098093 492.936639,77.3098093 498.136639,79.7898093 C503.656639,82.5098093 519.496639,73.7098093 521.256639,51.6298093 C522.936639,29.5498093 506.616639,35.3098093 506.616639,35.3098093 C507.816639,28.9898093 533.976639,22.5898093 532.296639,50.9098093 C530.536639,80.2698093 510.616639,88.7498093 500.056639,88.7498093 C470.616639,88.7498093 492.616639,35.7098093 496.376639,26.3498093 C485.976639,27.0698093 479.736639,28.1898093 479.736639,28.1898093 C479.016639,27.5498093 478.536639,26.9098093 478.536639,26.9098093 C480.296639,21.7898093 485.336639,18.9098093 485.336639,18.9098093 C489.496639,19.0698093 494.136639,19.4698093 499.016639,19.7898093 C502.536639,11.2298093 503.416639,8.90980934 503.416639,8.90980934 C509.576639,8.90980934 510.856639,14.9898093 510.856639,14.9898093 C509.096639,18.3498093 509.416639,17.7098093 508.056639,20.5898093 Z" id="Path"></path>
            <path d="M634.2,23.6 C647.96,24.88 660.44,26.4 660.44,26.4 C660.44,27.92 658.6,29.68 658.6,29.68 C648.68,28.8 639.56,28.64 631.64,28.88 C622.84,48.24 619.8,62.4 618.92,67.84 C624.68,60.24 632.76,48.88 632.76,48.88 C634.84,48.72 635.48,50.32 635.48,50.32 C627.24,63.44 620.28,75.68 618.2,79.28 C618.04,80.08 617.64,80.4 617.64,80.4 C617.32,80.4 617.08,80.32 616.92,80.08 C608.2,76.56 609,70.64 609,70.64 C609,63.44 617.08,43.04 622.6,29.28 C612.36,30 606.12,31.12 606.12,31.12 C605.48,30.48 605,29.84 605,29.84 C606.68,24.8 611.72,21.92 611.72,21.92 C615.8,22.08 620.44,22.48 625.24,22.8 C628.76,14.32 629.56,12 629.56,12 C635.72,12 636.92,18.08 636.92,18.08 C635.24,21.36 635.56,20.72 634.2,23.6 Z" id="Path"></path>
            <path d="M777.784035,49.92 C775.304035,53.92 772.904035,57.28 770.584035,60.24 C763.704035,71.2 758.104035,78.16 758.104035,78.16 C751.224035,77.04 748.904035,71.12 748.904035,71.12 C750.424035,54.64 756.504035,47.92 756.504035,47.92 C742.104035,58.96 734.984035,75.92 734.984035,75.92 C732.984035,76.8 730.504035,74.56 728.664035,73.2 C726.824035,71.84 728.744035,67.84 735.224035,54 C741.624035,40.16 740.184035,34 740.184035,34 C753.544035,34 744.584035,51.36 744.584035,51.36 C748.744035,45.44 762.664035,34 765.304035,34 C767.944035,34 771.624035,39.04 771.624035,39.04 C760.904035,54.8 757.144035,68.48 756.424035,71.12 C760.264035,67.04 775.064035,48.48 775.064035,48.48 C777.144035,48.32 777.784035,49.92 777.784035,49.92 Z" id="Path"></path>
            <path d="M685.2,23.6 C698.96,24.88 711.44,26.4 711.44,26.4 C711.44,27.92 709.6,29.68 709.6,29.68 C699.68,28.8 690.56,28.64 682.64,28.88 C673.84,48.24 670.8,62.4 669.92,67.84 C675.68,60.24 683.76,48.88 683.76,48.88 C685.84,48.72 686.48,50.32 686.48,50.32 C678.24,63.44 671.28,75.68 669.2,79.28 C669.04,80.08 668.64,80.4 668.64,80.4 C668.32,80.4 668.08,80.32 667.92,80.08 C659.2,76.56 660,70.64 660,70.64 C660,63.44 668.08,43.04 673.6,29.28 C663.36,30 657.12,31.12 657.12,31.12 C656.48,30.48 656,29.84 656,29.84 C657.68,24.8 662.72,21.92 662.72,21.92 C666.8,22.08 671.44,22.48 676.24,22.8 C679.76,14.32 680.56,12 680.56,12 C686.72,12 687.92,18.08 687.92,18.08 C686.24,21.36 686.56,20.72 685.2,23.6 Z" id="Path"></path>
            <path d="M701.68,49.2 C703.76,49.04 704.4,50.64 704.4,50.64 C694.48,66.4 687.2,77.6 687.2,77.6 C685.68,77.6 684.32,75.28 682.96,74 C680.8,72.32 680,70.16 680,70.16 C680,48.08 690.72,36 690.72,36 C697.28,36 698.24,40.88 698.24,40.88 C689.28,49.04 687.44,64.48 687.12,69.76 C693.12,62.8 701.68,49.2 701.68,49.2 Z" id="Path"></path>
        </g>
    </g>
</svg>