
<svg roll="img" width="24px" height="49px" viewBox="0 0 24 49" version="1.1" xmlns="http://www.w3.org/2000/svg" xmlns:xlink="http://www.w3.org/1999/xlink" aria-labelledby="agsciences-title">
  <title id="agsciences-title">An icon of a seed</title>
    <g id="agsciences-icon" stroke="none" stroke-width="1" fill="none" fill-rule="evenodd">
        <g transform="translate(-299.000000, -618.000000)" fill="#43B02A">
            <g transform="translate(157.000000, 618.000000)">
                <g>
                    <g id="agsciences-icon" transform="translate(142.000000, 0.000000)">
                        <path d="M13.8601566,15.6490317 C14.6658416,17.4707279 15.6224865,19.2381463 16.2466803,21.1251454 C17.6256738,25.2918089 18.6908742,29.5407372 18.3457018,34.0330671 C18.3177148,34.3968975 18.5551799,34.9057512 18.8299609,35.1542414 C21.2080037,37.302452 21.7838565,39.1521351 20.7814147,42.2654716 C19.6076589,45.9071678 17.0939217,48.0664035 13.5175284,48.7669254 C10.6060373,49.3359935 8.18898229,47.1691249 8.02784529,44.0388267 C7.81158248,39.8178854 11.437165,35.1355834 15.4859441,34.7742973 C17.2474259,34.6165527 17.5841174,33.823589 17.495068,32.2927875 C17.1999329,27.2381743 16.1627195,22.3794697 14.0687866,17.7896095 C13.7965499,17.1925545 13.5209208,16.5971957 13.2461398,16.0018369 C13.4505294,15.8839525 13.655767,15.7669161 13.8601566,15.6490317 M17.646028,35.2594045 C16.9022535,38.7679506 14.5810326,40.8779972 11.7551985,42.5648472 C15.219644,41.4004203 17.7274445,39.4108024 17.646028,35.2594045" id="Fill-1"></path>
                        <path d="M1.39671855,0.848089469 C4.99516216,1.32132339 8.29592637,1.85731594 11.1370261,3.86389562 C14.0417325,5.91542404 13.6855349,8.95158434 13.1978835,12.0318453 C12.8925713,13.9570084 12.1360755,14.588835 10.160027,14.3369525 C4.40234762,13.6050513 2.1896822,11.3915377 1.68082852,5.32600186 C1.56209599,3.9139329 1.49933737,2.4967754 1.39671855,0.848089469" id="Fill-4"></path>
                        <path d="M0,18.2880317 C3.93598322,13.3216198 8.67086673,13.2995694 12.2811836,18.1243504 C8.42746505,23.0721044 3.91478099,23.1696347 0,18.2880317" id="Fill-7"></path>
                        <path d="M14.5084362,14.7927158 C14.9536831,9.32508295 18.3418006,6.78335881 23.7687251,7.72897856 C23.313301,13.1813458 20.1507754,15.6340205 14.5084362,14.7927158" id="Fill-9"></path>
                    </g>
                </g>
            </g>
        </g>
    </g>
</svg>
