<?xml version="1.0" encoding="UTF-8"?>
<svg width="45px" height="27px" viewBox="0 0 45 27" version="1.1" xmlns="http://www.w3.org/2000/svg" xmlns:xlink="http://www.w3.org/1999/xlink">
    <!-- Generator: Sketch 48.2 (47327) - http://www.bohemiancoding.com/sketch -->
    <title>animal-icon</title>
    <desc>Created with Sketch.</desc>
    <defs></defs>
    <g id="phase2" stroke="none" stroke-width="1" fill="none" fill-rule="evenodd" transform="translate(-994.000000, -1222.000000)">
        <g id="Funding" transform="translate(99.000000, 1184.000000)" fill="#BA0C2F">
            <g id="animalscience-funding" transform="translate(871.000000, 6.000000)">
                <path d="M24,39.21471 L24,38.7853094 C24.2721919,38.3734486 24.6236378,38.0375936 25.0354986,37.7686498 C25.8787089,37.2184193 26.5841992,36.5298193 27.1896476,35.7353307 C27.4033735,35.4559929 27.6190482,35.1779544 27.8262778,34.8940692 C28.1653809,34.4282897 28.647401,34.1372588 29.1229248,33.8377827 C29.2457035,33.7604776 29.3665333,33.6812236 29.5159466,33.5850794 C29.2599952,33.5850794 29.0521159,33.5889772 28.8448863,33.5844298 C28.311546,33.5740359 27.7730088,33.6032689 27.2468144,33.537657 C26.5900458,33.4558045 26.1619444,32.9828792 26.074895,32.3605406 C26.040465,32.1156328 26.1483024,32.0097443 26.3834658,32.0909472 C26.572506,32.1565591 26.75505,32.2501047 26.9252511,32.354694 C27.1740566,32.5073553 27.4365042,32.571668 27.7275352,32.566471 C28.6642912,32.5495808 29.5367345,32.2429589 30.4241191,32 L31.0315164,32 C31.4687125,32.1208298 31.736357,32.4216051 31.9214995,32.8133277 C31.958528,32.8906328 32.008549,32.9620913 32.0579203,33.0322505 C32.273595,33.3362739 32.4379496,33.4005866 32.8010887,33.3109387 C32.9407576,33.2765087 33.0791272,33.2310351 33.210351,33.1732186 C33.5195714,33.0354986 33.8248941,32.8899831 34.1302168,32.7431684 C34.3413442,32.6411776 34.4888085,32.6788557 34.5836534,32.8665967 C34.8123206,33.3213326 34.5765076,33.9735538 34.1120273,34.1736376 C34.0191313,34.2132646 33.9203886,34.2476946 33.8398354,34.3048614 C33.7625303,34.3600794 33.7053635,34.4419318 33.639102,34.5120911 C33.7138086,34.5731556 33.7787709,34.6615043 33.8645211,34.6907373 C35.2514656,35.1695093 36.6663439,35.4059719 38.122798,35.0629711 C39.1381584,34.8232604 40.1418255,34.7992243 41.1708279,34.9967096 C42.4109576,35.2344715 43.6601821,35.4365042 44.9126548,35.5943625 C46.4873402,35.7931471 48.0750182,35.7788554 49.6574991,35.7203893 C51.5855794,35.6495805 53.51301,35.543692 55.4384918,35.4157163 C56.6844682,35.3325646 57.9252476,35.1688597 59.1699247,35.0662193 C59.8955533,35.006454 60.6302766,34.9246015 61.3507082,34.9817683 C62.1542915,35.0447817 62.9520282,35.1857498 63.7640566,35.1915964 C63.9738848,35.1935453 64.2142452,35.2786459 64.3876944,35.4001253 C65.2952174,36.0348067 65.9253514,36.8760682 66.2404184,37.9407998 C66.6834611,39.4401291 66.6120026,40.9686913 66.5165081,42.4979032 C66.4794796,43.0897095 66.3937294,43.679567 66.3774888,44.2713733 C66.3586498,44.9749147 66.5944628,45.5875089 67.1511895,46.0630327 C67.4402716,46.310539 67.7196094,46.5736362 67.9788089,46.8516747 C68.5186453,47.4311382 68.5790603,47.9508364 68.2289136,48.6569763 C68.1795423,48.7570182 68.1405649,48.8733007 68.1392657,48.9830869 C68.1353679,49.232542 68.154207,49.4826468 68.1691483,49.7321019 C68.1892866,50.0738035 68.2321617,50.415505 68.2308625,50.7572066 C68.2295632,51.0404421 68.0931425,51.1372359 67.8086077,51.106054 C67.429228,51.0638285 67.1856195,50.8358109 67.0673882,50.4973575 C66.976441,50.2368588 66.897187,49.9588202 66.8874427,49.6859787 C66.862757,48.9804884 66.6236959,48.3620476 66.2196305,47.7923284 C66.0370865,47.5350778 65.8701335,47.2667837 65.6999323,47.001088 C65.5212861,46.7217502 65.433587,46.4131794 65.4504772,46.0831711 C65.473214,45.6479238 65.5238846,45.2139758 65.5362274,44.7787286 C65.5855987,43.0936073 65.4966004,41.4175806 65.1419064,39.7642908 C65.0308209,39.2484904 64.8918017,38.7385365 64.7410892,38.2324804 C64.6962652,38.0830672 64.5676399,37.95769 64.4773424,37.8212692 C64.4585033,37.8323128 64.4403139,37.8427068 64.4221244,37.8537504 C64.4247229,37.8946766 64.4227741,37.9375517 64.4318688,37.9771787 C64.5942745,38.6943622 64.7384907,39.416093 64.9249324,40.1267803 C65.25624,41.3857491 65.1899785,42.6453676 65.0041864,43.9147304 C64.8905024,44.6916792 64.8209928,45.4751242 64.7469358,46.2572699 C64.6878201,46.8841559 64.8853054,47.4252916 65.3497857,47.8676847 C65.4634697,47.9761717 65.5550665,48.1080451 65.6499114,48.2340719 C65.877929,48.5400442 65.9474386,48.8843442 65.8603891,49.2513811 C65.8058208,49.4800483 65.7317638,49.7054674 65.6499114,49.9263391 C65.4179961,50.5564731 65.2939181,51.2047966 65.2692325,51.8758569 C65.2367513,52.7664896 65.3426398,53.6467284 65.4777614,54.5230695 C65.557665,55.0369211 65.684991,55.5442764 65.7772374,56.0568287 C65.8246599,56.3205756 65.8415501,56.5966652 65.6031386,56.7922017 C65.35953,56.9922855 65.2900204,57.2436895 65.3257496,57.5392678 C65.3419902,57.6743893 65.3627781,57.8088612 65.3738217,57.9439828 C65.4192953,58.5137019 65.2815753,58.6962459 64.7177028,58.8411117 C64.0089644,59.0217069 63.2865839,59.0379474 62.5635538,59.0002693 C62.3231934,58.9872769 62.077636,58.921665 61.8515673,58.8352651 C61.5936671,58.7378217 61.5774265,58.5728176 61.7937509,58.4091126 C62.0399579,58.2220213 62.2965589,58.0472728 62.5544591,57.876422 C62.9884071,57.5879895 63.2904816,57.2008144 63.3879251,56.6941086 C63.4853685,56.1900014 63.556827,55.6787483 63.6035998,55.1681449 C63.7127364,53.9650436 63.5366887,52.7996204 63.0553182,51.6868167 C62.8435412,51.1983004 62.5668019,50.7487615 62.1776779,50.357039 C62.1432479,50.4038118 62.1146645,50.4349937 62.0945262,50.4700733 C61.2259806,51.9518628 60.6081894,53.5142054 60.4568273,55.2396034 C60.4016094,55.8723359 60.2515465,56.4667407 59.5493044,56.7525747 C59.4083362,56.8103911 59.3030974,57.0462042 59.2563245,57.2196534 C59.1926615,57.4574153 59.200457,57.7140163 59.1764209,57.974515 C59.1121083,57.9914052 59.0438979,58.0154413 58.9737386,58.0264849 C58.3397069,58.1291252 57.7069743,58.2454077 57.0696944,58.3246617 C56.7507297,58.3642887 56.421371,58.3603909 56.1004573,58.3298587 C55.823718,58.3038738 55.7808429,58.1817447 55.9542922,57.9576248 C56.1257926,57.7374027 56.3083366,57.5191295 56.5188144,57.3372351 C57.1970205,56.7538739 57.7881772,56.1146452 58.1298787,55.2707853 C58.417012,54.5620469 58.7541662,53.8727971 59.0464964,53.165358 C59.2712659,52.6203245 59.3641619,52.051255 59.2069532,51.465945 C59.1264,51.1658193 58.9497026,51.0735728 58.652825,51.1690674 C58.3416557,51.2691093 58.1980891,51.5075208 58.0785585,51.7920556 C57.9031604,52.2104126 57.7154194,52.2415945 57.3522803,51.9687529 C57.1690867,51.8316825 56.9871923,51.6699265 56.7780138,51.593271 C56.3888898,51.450354 56.1433324,51.4834848 55.9562411,51.8147924 C55.9315554,51.8583171 55.8984247,51.8966448 55.8678924,51.9369214 C55.7561573,52.0837362 55.6145395,52.1779315 55.4216016,52.1350564 C55.2351599,52.0934805 55.1032864,51.9642056 55.0811993,51.7842601 C55.0389738,51.4341134 54.799263,51.2619634 54.5361658,51.0826675 C54.0788314,50.7708486 53.6137015,50.4635771 53.1940453,50.1062846 C52.9309481,49.8821647 52.6691501,49.8035604 52.3443387,49.8412385 C52.1072264,49.8685227 51.8701141,49.9010038 51.6323522,49.9042519 C50.6774068,49.9159451 49.7542929,49.70092 48.8298798,49.5027851 C47.9873191,49.32219 47.1428096,49.1682294 46.274264,49.2260458 C45.1003957,49.3033509 44.535224,49.7736778 44.3227973,50.9157145 C44.2324998,51.3983842 44.2123615,51.894696 44.1818292,52.3858107 C44.1571435,52.7853287 44.1733841,53.1867956 44.1551947,53.5869631 C44.1110203,54.544507 44.0350145,55.5014013 44.4916992,56.4050265 C44.5735517,56.566133 44.5690043,56.7805085 44.5657562,56.9695487 C44.5618585,57.1637859 44.4540211,57.3131991 44.2383464,57.333987 C43.9590086,57.3619208 43.8368795,57.5314723 43.7985518,57.7841756 C43.781012,57.8972099 43.7634722,58.0102443 43.7504797,58.1232786 C43.7147505,58.4318494 43.5497463,58.6449257 43.2561168,58.7410698 C43.0865653,58.7969374 42.9053205,58.8281193 42.7273239,58.8443599 C42.2238663,58.8885342 41.7191094,58.9255627 41.2143526,58.9534965 C40.9629486,58.9677882 40.7082965,58.9710363 40.4568925,58.9502484 C40.3555513,58.9418033 40.2600568,58.8560531 40.1619638,58.8060321 C40.2191306,58.7124864 40.2574583,58.5988025 40.3360627,58.5292928 C40.5413434,58.3493473 40.7602663,58.1836936 40.981138,58.0219375 C41.5995789,57.5691505 41.9945495,56.9734464 42.1686484,56.2328765 C42.3492435,55.4637232 42.3628856,54.6867744 42.2563474,53.9085264 C42.1569552,53.1887444 41.9269887,52.5014436 41.690526,51.7946541 C41.6508991,51.8368795 41.6281623,51.8544193 41.6132209,51.8778058 C40.9713937,52.8723782 40.592014,53.9514015 40.5290006,55.136963 C40.5004172,55.6852446 40.4568925,56.2335261 40.4016746,56.7798588 C40.3789378,57.0046283 40.2535606,57.1592385 39.9917626,57.1637859 C39.798175,57.167034 39.6883888,57.2813676 39.6578565,57.4678093 C39.6318716,57.630215 39.6039379,57.791971 39.5857484,57.9550264 C39.5610628,58.186292 39.443481,58.3136181 39.2050695,58.3460992 C38.355363,58.4630313 37.5069557,58.4000179 36.6507529,58.3681864 C36.5818929,57.9647707 36.7468971,57.6802359 37.0548183,57.4730063 C37.2750404,57.3248923 37.5115031,57.1982159 37.7486154,57.0767364 C38.1598265,56.8649594 38.4417628,56.5466443 38.5950738,56.1152948 C38.9796504,55.0343226 39.0212263,53.9319128 38.7795666,52.8191091 C38.5970226,51.9804462 38.3904426,51.1469802 38.4443613,50.2771354 C38.4567041,50.0777012 38.3300277,49.9640172 38.1442356,49.9490759 C37.8213731,49.923091 37.4959121,49.9152955 37.1717504,49.9113978 C36.9028066,49.9081497 36.6819348,49.8152536 36.4909458,49.6301111 C36.1986155,49.3475252 36.063494,48.9876343 35.9796927,48.607605 C35.8250825,47.906662 35.6542317,47.2083176 35.2638084,46.596373 C34.8551957,45.955845 34.4134523,45.3361049 33.9749569,44.7157152 C33.4364197,43.9543574 32.908926,43.1839048 32.3346596,42.4491815 C31.4739095,41.3474214 30.3351208,40.8647517 28.9143959,40.9920778 C28.1173088,41.0628866 27.311127,41.0732806 26.5114415,41.0485949 C26.0567055,41.0343032 25.5993711,40.9180208 25.1556788,40.8017383 C24.8081307,40.7107911 24.5586755,40.47173 24.4164082,40.1287292 C24.2884325,39.8201584 24.1396689,39.519383 24,39.21471" id="animal-icon"></path>
            </g>
        </g>
    </g>
</svg>