<?xml version="1.0" encoding="UTF-8"?>
<svg width="482px" height="472px" viewBox="0 0 482 472" version="1.1" xmlns="http://www.w3.org/2000/svg" xmlns:xlink="http://www.w3.org/1999/xlink">
    <!-- Generator: Sketch 48.2 (47327) - http://www.bohemiancoding.com/sketch -->
    <title>blob-placeholder</title>
    <desc>Created with Sketch.</desc>
    <defs>
        <circle id="path-1" cx="114" cy="114" r="114"></circle>
        <circle id="path-2" cx="111.5" cy="266.5" r="33.5"></circle>
        <circle id="path-3" cx="153.5" cy="244.5" r="20.5"></circle>
        <circle id="path-4" cx="207" cy="294" r="10"></circle>
        <circle id="path-5" cx="257.5" cy="313.5" r="9.5"></circle>
        <circle id="path-6" cx="147" cy="283" r="6"></circle>
        <circle id="path-7" cx="154" cy="285" r="5"></circle>
    </defs>
    <g id="phase2" stroke="none" stroke-width="1" fill="none" fill-rule="evenodd" transform="translate(-459.000000, -1222.000000)">
        <g id="Funding" transform="translate(99.000000, 1184.000000)" fill-rule="nonzero">
            <g id="blob-placeholder" transform="translate(361.000000, 39.000000)">
                <circle id="nytg-circle47" stroke="#078EB0" fill="#00B5E2" cx="248.5" cy="461.5" r="8.5"></circle>
                <circle id="nytg-circle33" stroke="#078EB0" fill="#00B5E2" cx="231" cy="464" r="4"></circle>
                <circle id="nytg-circle122" stroke="#078EB0" fill="#00B5E2" cx="216.5" cy="460.5" r="3.5"></circle>
                <circle id="nytg-circle444" stroke="#078EB0" fill="#00B5E2" cx="237" cy="462" r="3"></circle>
                <circle id="nytg-circle186" stroke="#078EB0" fill="#00B5E2" cx="260" cy="464" r="3"></circle>
                <circle id="nytg-circle82" stroke="#078EB0" fill="#00B5E2" cx="279.5" cy="461.5" r="2.5"></circle>
                <circle id="nytg-circle111" stroke="#078EB0" fill="#00B5E2" cx="266.5" cy="465.5" r="2.5"></circle>
                <circle id="nytg-circle113" stroke="#078EB0" fill="#00B5E2" cx="284.5" cy="458.5" r="1.5"></circle>
                <circle id="nytg-circle242" stroke="#078EB0" fill="#00B5E2" cx="272.5" cy="464.5" r="1.5"></circle>
                <circle id="nytg-circle34" stroke="#078EB0" fill="#00B5E2" cx="257.5" cy="461.5" r="1.5"></circle>
                <circle id="nytg-circle55" stroke="#078EB0" fill="#00B5E2" cx="221.5" cy="464.5" r="1.5"></circle>
                <circle id="nytg-circle202" stroke="#078EB0" fill="#00B5E2" cx="256.5" cy="456.5" r="1.5"></circle>
                <g id="green" transform="translate(0.000000, 53.000000)" fill="#78BE20" stroke="#62A113">
                    <circle id="nytg-circle302" cx="29.5" cy="189.5" r="29.5"></circle>
                    <circle id="nytg-circle293" cx="18" cy="153" r="5"></circle>
                    <circle id="nytg-circle308" cx="21.5" cy="230.5" r="4.5"></circle>
                    <circle id="nytg-circle315" cx="26.5" cy="226.5" r="4.5"></circle>
                    <circle id="nytg-circle401" cx="18.5" cy="144.5" r="4.5"></circle>
                    <circle id="nytg-circle343" cx="54" cy="204" r="3"></circle>
                    <circle id="nytg-circle389" cx="20" cy="236" r="3"></circle>
                    <circle id="nytg-circle392" cx="23.5" cy="150.5" r="1.5"></circle>
                    <circle id="nytg-circle301" cx="17.5" cy="140.5" r="1.5"></circle>
                    <ellipse id="nytg-circle447" cx="116" cy="98.5" rx="98" ry="98.5"></ellipse>
                </g>
                <circle id="nytg-circle357" stroke="#431345" fill="#642667" cx="201.5" cy="30.5" r="30.5"></circle>
                <circle id="nytg-circle201" stroke="#8A0058" fill="#C6007E" cx="462" cy="222" r="18"></circle>
                <circle id="nytg-circle396" stroke="#431345" fill="#642667" cx="164.5" cy="39.5" r="13.5"></circle>
                <circle id="nytg-circle2" stroke="#8A0058" fill="#C6007E" cx="460.5" cy="191.5" r="13.5"></circle>
                <circle id="nytg-circle140" stroke="#431345" fill="#642667" cx="427" cy="139" r="13"></circle>
                <circle id="nytg-circle352" stroke="#431345" fill="#642667" cx="419" cy="93" r="12"></circle>
                <circle id="nytg-circle415" stroke="#431345" fill="#642667" cx="276.5" cy="11.5" r="11.5"></circle>
                <circle id="nytg-circle439" stroke="#431345" fill="#642667" cx="256" cy="14" r="11"></circle>
                <circle id="nytg-circle436" stroke="#431345" fill="#642667" cx="445.5" cy="129.5" r="10.5"></circle>
                <circle id="nytg-circle377" stroke="#431345" fill="#642667" cx="239.5" cy="12.5" r="10.5"></circle>
                <circle id="nytg-circle67" stroke="#431345" fill="#642667" cx="421" cy="171" r="10"></circle>
                <circle id="nytg-circle394" stroke="#431345" fill="#642667" cx="144" cy="32" r="10"></circle>
                <circle id="nytg-circle88" stroke="#431345" fill="#642667" cx="427.5" cy="112.5" r="9.5"></circle>
                <circle id="nytg-circle296" stroke="#431345" fill="#642667" cx="149" cy="46" r="9"></circle>
                <circle id="nytg-circle147" stroke="#431345" fill="#642667" cx="443" cy="149" r="9"></circle>
                <circle id="nytg-circle120" stroke="#431345" fill="#642667" cx="454.5" cy="166.5" r="8.5"></circle>
                <circle id="nytg-circle132" stroke="#431345" fill="#642667" cx="442" cy="183" r="8"></circle>
                <circle id="nytg-circle203" stroke="#431345" fill="#642667" cx="407" cy="71" r="8"></circle>
                <circle id="nytg-circle142" stroke="#431345" fill="#642667" cx="430.5" cy="158.5" r="7.5"></circle>
                <circle id="nytg-circle161" stroke="#431345" fill="#642667" cx="455" cy="153" r="7"></circle>
                <circle id="nytg-circle214" stroke="#431345" fill="#642667" cx="349" cy="26" r="7"></circle>
                <circle id="nytg-circle362" stroke="#431345" fill="#642667" cx="306.5" cy="13.5" r="6.5"></circle>
                <circle id="nytg-circle116" stroke="#8A0058" fill="#C6007E" cx="446.5" cy="239.5" r="6.5"></circle>
                <circle id="nytg-circle375" stroke="#431345" fill="#642667" cx="366.5" cy="36.5" r="6.5"></circle>
                <circle id="nytg-circle3" stroke="#431345" fill="#642667" cx="392.5" cy="56.5" r="5.5"></circle>
                <circle id="nytg-circle424" stroke="#431345" fill="#642667" cx="237" cy="25" r="5"></circle>
                <circle id="nytg-circle431" stroke="#431345" fill="#642667" cx="178" cy="58" r="5"></circle>
                <circle id="nytg-circle259" stroke="#431345" fill="#642667" cx="453.5" cy="176.5" r="4.5"></circle>
                <circle id="nytg-circle260" stroke="#431345" fill="#642667" cx="437.5" cy="165.5" r="4.5"></circle>
                <circle id="nytg-circle29" stroke="#431345" fill="#642667" cx="433.5" cy="122.5" r="4.5"></circle>
                <circle id="nytg-circle65" stroke="#431345" fill="#642667" cx="382.5" cy="48.5" r="4.5"></circle>
                <circle id="nytg-circle172" stroke="#431345" fill="#642667" cx="439" cy="110" r="4"></circle>
                <circle id="nytg-circle256" stroke="#431345" fill="#642667" cx="443" cy="161" r="4"></circle>
                <circle id="nytg-circle15" stroke="#431345" fill="#642667" cx="454" cy="143" r="4"></circle>
                <circle id="nytg-circle432" stroke="#431345" fill="#642667" cx="396.5" cy="65.5" r="3.5"></circle>
                <circle id="nytg-circle150" stroke="#8A0058" fill="#C6007E" cx="472.5" cy="240.5" r="3.5"></circle>
                <circle id="nytg-circle420" stroke="#431345" fill="#642667" cx="412.5" cy="181.5" r="3.5"></circle>
                <circle id="nytg-circle123" stroke="#8A0058" fill="#C6007E" cx="437.5" cy="234.5" r="3.5"></circle>
                <circle id="nytg-circle144" stroke="#431345" fill="#642667" cx="425.5" cy="181.5" r="3.5"></circle>
                <circle id="nytg-circle303" stroke="#431345" fill="#642667" cx="164.5" cy="20.5" r="3.5"></circle>
                <circle id="nytg-circle46" stroke="#8A0058" fill="#C6007E" cx="442.5" cy="229.5" r="3.5"></circle>
                <circle id="nytg-circle408" stroke="#431345" fill="#642667" cx="434.5" cy="102.5" r="3.5"></circle>
                <circle id="nytg-circle148" stroke="#431345" fill="#642667" cx="440" cy="173" r="3"></circle>
                <circle id="nytg-circle30" stroke="#431345" fill="#642667" cx="463" cy="161" r="3"></circle>
                <circle id="nytg-circle153" stroke="#431345" fill="#642667" cx="420" cy="156" r="3"></circle>
                <circle id="nytg-circle68" stroke="#431345" fill="#642667" cx="421" cy="123" r="3"></circle>
                <circle id="nytg-circle427" stroke="#431345" fill="#642667" cx="158" cy="23" r="3"></circle>
                <circle id="nytg-circle79" stroke="#431345" fill="#642667" cx="445" cy="170" r="3"></circle>
                <circle id="nytg-circle41" stroke="#431345" fill="#642667" cx="379" cy="43" r="3"></circle>
                <circle id="nytg-circle174" stroke="#431345" fill="#642667" cx="418" cy="118" r="3"></circle>
                <circle id="nytg-circle121" stroke="#431345" fill="#642667" cx="441" cy="117" r="3"></circle>
                <circle id="nytg-circle50" stroke="#8A0058" fill="#C6007E" cx="452" cy="204" r="3"></circle>
                <circle id="nytg-circle235" stroke="#431345" fill="#642667" cx="388" cy="50" r="3"></circle>
                <circle id="nytg-circle358" stroke="#431345" fill="#642667" cx="406" cy="81" r="3"></circle>
                <circle id="nytg-circle337" stroke="#431345" fill="#642667" cx="321" cy="16" r="3"></circle>
                <circle id="nytg-circle305" stroke="#431345" fill="#642667" cx="410.5" cy="81.5" r="2.5"></circle>
                <circle id="nytg-circle252" stroke="#431345" fill="#642667" cx="417.5" cy="108.5" r="2.5"></circle>
                <circle id="nytg-circle163" stroke="#431345" fill="#642667" cx="435.5" cy="170.5" r="2.5"></circle>
                <circle id="nytg-circle407" stroke="#431345" fill="#642667" cx="295.5" cy="11.5" r="2.5"></circle>
                <circle id="nytg-circle170" stroke="#431345" fill="#642667" cx="432.5" cy="173.5" r="2.5"></circle>
                <circle id="nytg-circle169" stroke="#431345" fill="#642667" cx="455.5" cy="137.5" r="2.5"></circle>
                <circle id="nytg-circle78" stroke="#431345" fill="#642667" cx="441.5" cy="169.5" r="2.5"></circle>
                <circle id="nytg-circle36" stroke="#431345" fill="#642667" cx="331.5" cy="19.5" r="2.5"></circle>
                <circle id="nytg-circle44" stroke="#431345" fill="#642667" cx="431.5" cy="98.5" r="2.5"></circle>
                <circle id="nytg-circle23" stroke="#8A0058" fill="#C6007E" cx="444" cy="233" r="2"></circle>
                <circle id="nytg-circle149" stroke="#431345" fill="#642667" cx="374" cy="43" r="2"></circle>
                <circle id="nytg-circle28" stroke="#431345" fill="#642667" cx="400" cy="61" r="2"></circle>
                <circle id="nytg-circle265" stroke="#431345" fill="#642667" cx="465" cy="174" r="2"></circle>
                <circle id="nytg-circle206" stroke="#431345" fill="#642667" cx="465" cy="177" r="2"></circle>
                <circle id="nytg-circle195" stroke="#431345" fill="#642667" cx="374" cy="39" r="2"></circle>
                <circle id="nytg-circle26" stroke="#431345" fill="#642667" cx="409" cy="185" r="2"></circle>
                <circle id="nytg-circle221" stroke="#431345" fill="#642667" cx="434" cy="177" r="2"></circle>
                <circle id="nytg-circle268" stroke="#431345" fill="#642667" cx="463" cy="155" r="2"></circle>
                <circle id="nytg-circle284" stroke="#431345" fill="#642667" cx="473" cy="189" r="2"></circle>
                <circle id="nytg-circle278" stroke="#8A0058" fill="#C6007E" cx="453" cy="244" r="2"></circle>
                <circle id="nytg-circle236" stroke="#431345" fill="#642667" cx="447" cy="175" r="2"></circle>
                <circle id="nytg-circle184" stroke="#431345" fill="#642667" cx="460" cy="147" r="2"></circle>
                <circle id="nytg-circle220" stroke="#431345" fill="#642667" cx="464" cy="171" r="2"></circle>
                <circle id="nytg-circle126" stroke="#431345" fill="#642667" cx="431" cy="180" r="2"></circle>
                <circle id="nytg-circle247" stroke="#431345" fill="#642667" cx="444" cy="114" r="2"></circle>
                <circle id="nytg-circle307" stroke="#431345" fill="#642667" cx="324.5" cy="17.5" r="1.5"></circle>
                <circle id="nytg-circle266" stroke="#431345" fill="#642667" cx="461.5" cy="174.5" r="1.5"></circle>
                <circle id="nytg-circle103" stroke="#8A0058" fill="#C6007E" cx="436.5" cy="230.5" r="1.5"></circle>
                <circle id="nytg-circle106" stroke="#431345" fill="#642667" cx="437.5" cy="117.5" r="1.5"></circle>
                <circle id="nytg-circle180" stroke="#8A0058" fill="#C6007E" cx="477.5" cy="230.5" r="1.5"></circle>
                <circle id="nytg-circle275" stroke="#431345" fill="#642667" cx="417.5" cy="112.5" r="1.5"></circle>
                <circle id="nytg-circle402" stroke="#431345" fill="#642667" cx="317.5" cy="16.5" r="1.5"></circle>
                <circle id="nytg-circle223" stroke="#431345" fill="#642667" cx="431.5" cy="177.5" r="1.5"></circle>
                <circle id="nytg-circle164" stroke="#431345" fill="#642667" cx="438.5" cy="104.5" r="1.5"></circle>
                <circle id="nytg-circle175" stroke="#431345" fill="#642667" cx="417.5" cy="159.5" r="1.5"></circle>
                <circle id="nytg-circle371" stroke="#431345" fill="#642667" cx="399.5" cy="72.5" r="1.5"></circle>
                <circle id="nytg-circle194" stroke="#431345" fill="#642667" cx="465.5" cy="168.5" r="1.5"></circle>
                <circle id="nytg-circle196" stroke="#431345" fill="#642667" cx="467.5" cy="172.5" r="1.5"></circle>
                <circle id="nytg-circle271" stroke="#431345" fill="#642667" cx="458.5" cy="144.5" r="1.5"></circle>
                <circle id="nytg-circle215" stroke="#431345" fill="#642667" cx="464.5" cy="166.5" r="1.5"></circle>
                <circle id="nytg-circle280" stroke="#431345" fill="#642667" cx="385.5" cy="53.5" r="1.5"></circle>
                <circle id="nytg-circle460" stroke="#431345" fill="#642667" cx="184.5" cy="61.5" r="1.5"></circle>
                <circle id="nytg-circle374" stroke="#431345" fill="#642667" cx="292.5" cy="11.5" r="1.5"></circle>
                <circle id="nytg-circle219" stroke="#431345" fill="#642667" cx="327.5" cy="18.5" r="1.5"></circle>
                <circle id="nytg-circle38" stroke="#078EB0" fill="#00B5E2" cx="222.5" cy="463.5" r="1.5"></circle>
                <circle id="nytg-circle366" stroke="#B26D0A" fill="#ED8B00" cx="185" cy="268" r="35"></circle>
                <circle id="nytg-circle382" stroke="#B26D0A" fill="#ED8B00" cx="243.5" cy="259.5" r="32.5"></circle>
                <circle id="nytg-circle285" stroke="#8A0058" fill="#C6007E" cx="424" cy="208" r="26"></circle>
                <circle id="nytg-circle395" stroke="#B26D0A" fill="#ED8B00" cx="235.5" cy="305.5" r="25.5"></circle>
                <circle id="nytg-circle261" stroke="#8A0058" fill="#C6007E" cx="392.5" cy="219.5" r="11.5"></circle>
                <circle id="nytg-circle438" stroke="#B26D0A" fill="#ED8B00" cx="196.5" cy="329.5" r="11.5"></circle>
                <circle id="nytg-circle354" stroke="#B26D0A" fill="#ED8B00" cx="180.5" cy="340.5" r="11.5"></circle>
                <circle id="nytg-circle411" stroke="#B26D0A" fill="#ED8B00" cx="200.5" cy="228.5" r="7.5"></circle>
                <circle id="nytg-circle418" stroke="#B26D0A" fill="#ED8B00" cx="197" cy="312" r="7"></circle>
                <circle id="nytg-circle490" stroke="#B26D0A" fill="#ED8B00" cx="176" cy="322" r="7"></circle>
                <circle id="nytg-circle316" stroke="#B26D0A" fill="#ED8B00" cx="185.5" cy="318.5" r="5.5"></circle>
                <circle id="nytg-circle288" stroke="#B26D0A" fill="#ED8B00" cx="183" cy="311" r="5"></circle>
                <circle id="nytg-circle277" stroke="#8A0058" fill="#C6007E" cx="403.5" cy="238.5" r="4.5"></circle>
                <circle id="nytg-circle463" stroke="#B26D0A" fill="#ED8B00" cx="210.5" cy="229.5" r="4.5"></circle>
                <circle id="nytg-circle423" stroke="#B26D0A" fill="#ED8B00" cx="168.5" cy="349.5" r="4.5"></circle>
                <circle id="nytg-circle199" stroke="#B26D0A" fill="#ED8B00" cx="295" cy="322" r="4"></circle>
                <circle id="nytg-circle20" stroke="#B26D0A" fill="#ED8B00" cx="291" cy="325" r="4"></circle>
                <circle id="nytg-circle360" stroke="#B26D0A" fill="#ED8B00" cx="205.5" cy="318.5" r="3.5"></circle>
                <circle id="nytg-circle137" stroke="#B26D0A" fill="#ED8B00" cx="283.5" cy="318.5" r="3.5"></circle>
                <circle id="nytg-circle332" stroke="#B26D0A" fill="#ED8B00" cx="203.5" cy="307.5" r="3.5"></circle>
                <circle id="nytg-circle434" stroke="#B26D0A" fill="#ED8B00" cx="168" cy="342" r="3"></circle>
                <circle id="nytg-circle290" stroke="#B26D0A" fill="#ED8B00" cx="193.5" cy="351.5" r="2.5"></circle>
                <circle id="nytg-circle18" stroke="#8A0058" fill="#C6007E" cx="368.5" cy="233.5" r="2.5"></circle>
                <circle id="nytg-circle125" stroke="#B26D0A" fill="#ED8B00" cx="314.5" cy="317.5" r="2.5"></circle>
                <circle id="nytg-circle449" stroke="#B26D0A" fill="#ED8B00" cx="208" cy="223" r="2"></circle>
                <circle id="nytg-circle376" stroke="#B26D0A" fill="#ED8B00" cx="213" cy="234" r="2"></circle>
                <circle id="nytg-circle81" stroke="#8A0058" fill="#C6007E" cx="372" cy="230" r="2"></circle>
                <circle id="nytg-circle5" stroke="#B26D0A" fill="#ED8B00" cx="349" cy="243" r="2"></circle>
                <circle id="nytg-circle238" stroke="#B26D0A" fill="#ED8B00" cx="303" cy="321" r="2"></circle>
                <circle id="nytg-circle107" stroke="#8A0058" fill="#C6007E" cx="372" cy="235" r="2"></circle>
                <circle id="nytg-circle31" stroke="#B26D0A" fill="#ED8B00" cx="323" cy="314" r="2"></circle>
                <circle id="nytg-circle448" stroke="#B26D0A" fill="#ED8B00" cx="175" cy="351" r="2"></circle>
                <circle id="nytg-circle467" stroke="#B26D0A" fill="#ED8B00" cx="176.5" cy="312.5" r="1.5"></circle>
                <circle id="nytg-circle429" stroke="#B26D0A" fill="#ED8B00" cx="190.5" cy="350.5" r="1.5"></circle>
                <circle id="nytg-circle289" stroke="#B26D0A" fill="#ED8B00" cx="192.5" cy="347.5" r="1.5"></circle>
                <circle id="nytg-circle91" stroke="#B26D0A" fill="#ED8B00" cx="325.5" cy="314.5" r="1.5"></circle>
                <circle id="nytg-circle263" stroke="#B26D0A" fill="#ED8B00" cx="325.5" cy="311.5" r="1.5"></circle>
                <circle id="nytg-circle459" stroke="#B26D0A" fill="#ED8B00" cx="164.5" cy="352.5" r="1.5"></circle>
                <circle id="nytg-circle356" stroke="#B26D0A" fill="#ED8B00" cx="195.5" cy="347.5" r="1.5"></circle>
                <circle id="nytg-circle403" stroke="#B26D0A" fill="#ED8B00" cx="173" cy="353" r="1"></circle>
                <circle id="nytg-circle102" stroke="#B26D0A" fill="#ED8B00" cx="320" cy="315" r="1"></circle>
                <circle id="nytg-circle370" stroke="#B26D0A" fill="#ED8B00" cx="169" cy="353" r="1"></circle>
                <circle id="nytg-circle383" stroke="#B26D0A" fill="#ED8B00" cx="166" cy="353" r="1"></circle>
                <circle id="nytg-circle452" stroke="#B26D0A" fill="#ED8B00" cx="172" cy="353" r="1"></circle>
                <circle id="nytg-circle433" stroke="#B26D0A" fill="#ED8B00" cx="162" cy="353" r="1"></circle>
                <circle id="nytg-circle489" stroke="#B99812" fill="#FFCD00" cx="96.5" cy="316.5" r="72.5"></circle>
                <circle id="nytg-circle230" stroke="#078EB0" fill="#00B5E2" cx="250.5" cy="370.5" r="55.5"></circle>
                <circle id="nytg-circle347" stroke="#B99812" fill="#FFCD00" cx="180" cy="433" r="33"></circle>
                <circle id="nytg-circle198" stroke="#078EB0" fill="#00B5E2" cx="231" cy="439" r="16"></circle>
                <circle id="nytg-circle488" stroke="#B99812" fill="#FFCD00" cx="160" cy="394" r="14"></circle>
                <circle id="nytg-circle414" stroke="#B99812" fill="#FFCD00" cx="113" cy="413" r="13"></circle>
                <circle id="nytg-circle101" stroke="#078EB0" fill="#00B5E2" cx="256.5" cy="437.5" r="11.5"></circle>
                <circle id="nytg-circle155" stroke="#078EB0" fill="#00B5E2" cx="269.5" cy="453.5" r="11.5"></circle>
                <circle id="nytg-circle86" stroke="#B99812" fill="#FFCD00" cx="187" cy="388" r="11"></circle>
                <circle id="nytg-circle272" stroke="#078EB0" fill="#00B5E2" cx="361.5" cy="422.5" r="10.5"></circle>
                <circle id="nytg-circle98" stroke="#B99812" fill="#FFCD00" cx="149.5" cy="379.5" r="10.5"></circle>
                <circle id="nytg-circle348" stroke="#B99812" fill="#FFCD00" cx="183" cy="360" r="10"></circle>
                <circle id="nytg-circle128" stroke="#078EB0" fill="#00B5E2" cx="378.5" cy="411.5" r="9.5"></circle>
                <circle id="nytg-circle8" stroke="#078EB0" fill="#00B5E2" cx="216.5" cy="424.5" r="8.5"></circle>
                <circle id="nytg-circle269" stroke="#078EB0" fill="#00B5E2" cx="279.5" cy="443.5" r="8.5"></circle>
                <circle id="nytg-circle32" stroke="#B99812" fill="#FFCD00" cx="139.5" cy="401.5" r="8.5"></circle>
                <circle id="nytg-circle339" stroke="#B99812" fill="#FFCD00" cx="96.5" cy="406.5" r="7.5"></circle>
                <circle id="nytg-circle264" stroke="#078EB0" fill="#00B5E2" cx="226" cy="457" r="7"></circle>
                <circle id="nytg-circle311" stroke="#B99812" fill="#FFCD00" cx="176.5" cy="375.5" r="6.5"></circle>
                <circle id="nytg-circle249" stroke="#B99812" fill="#FFCD00" cx="200.5" cy="404.5" r="6.5"></circle>
                <circle id="nytg-circle390" stroke="#B99812" fill="#FFCD00" cx="134.5" cy="421.5" r="6.5"></circle>
                <circle id="nytg-circle353" stroke="#B99812" fill="#FFCD00" cx="130.5" cy="410.5" r="6.5"></circle>
                <circle id="nytg-circle338" stroke="#B99812" fill="#FFCD00" cx="87" cy="398" r="6"></circle>
                <circle id="nytg-circle364" stroke="#B99812" fill="#FFCD00" cx="139" cy="430" r="6"></circle>
                <circle id="nytg-circle94" stroke="#B99812" fill="#FFCD00" cx="114.5" cy="394.5" r="5.5"></circle>
                <circle id="nytg-circle458" stroke="#B99812" fill="#FFCD00" cx="124.5" cy="390.5" r="5.5"></circle>
                <circle id="nytg-circle95" stroke="#B99812" fill="#FFCD00" cx="176.5" cy="396.5" r="5.5"></circle>
                <circle id="nytg-circle336" stroke="#B99812" fill="#FFCD00" cx="127" cy="429" r="5"></circle>
                <circle id="nytg-circle253" stroke="#B99812" fill="#FFCD00" cx="131" cy="393" r="5"></circle>
                <circle id="nytg-circle276" stroke="#078EB0" fill="#00B5E2" cx="244" cy="452" r="5"></circle>
                <circle id="nytg-circle410" stroke="#B99812" fill="#FFCD00" cx="160" cy="366" r="5"></circle>
                <circle id="nytg-circle27" stroke="#B99812" fill="#FFCD00" cx="187.5" cy="371.5" r="4.5"></circle>
                <circle id="nytg-circle71" stroke="#B99812" fill="#FFCD00" cx="209.5" cy="410.5" r="4.5"></circle>
                <circle id="nytg-circle312" stroke="#B99812" fill="#FFCD00" cx="144.5" cy="418.5" r="4.5"></circle>
                <circle id="nytg-circle333" stroke="#B99812" fill="#FFCD00" cx="167.5" cy="361.5" r="4.5"></circle>
                <circle id="nytg-circle405" stroke="#B99812" fill="#FFCD00" cx="153.5" cy="368.5" r="4.5"></circle>
                <circle id="nytg-circle13" stroke="#078EB0" fill="#00B5E2" cx="275" cy="430" r="4"></circle>
                <circle id="nytg-circle369" stroke="#B99812" fill="#FFCD00" cx="97.5" cy="396.5" r="3.5"></circle>
                <circle id="nytg-circle342" stroke="#B99812" fill="#FFCD00" cx="89.5" cy="391.5" r="3.5"></circle>
                <circle id="nytg-circle419" stroke="#B99812" fill="#FFCD00" cx="136.5" cy="437.5" r="3.5"></circle>
                <circle id="nytg-circle381" stroke="#B99812" fill="#FFCD00" cx="99.5" cy="391.5" r="3.5"></circle>
                <circle id="nytg-circle310" stroke="#B99812" fill="#FFCD00" cx="139.5" cy="377.5" r="3.5"></circle>
                <circle id="nytg-circle295" stroke="#B99812" fill="#FFCD00" cx="168.5" cy="376.5" r="3.5"></circle>
                <circle id="nytg-circle417" stroke="#B99812" fill="#FFCD00" cx="137.5" cy="387.5" r="3.5"></circle>
                <circle id="nytg-circle165" stroke="#078EB0" fill="#00B5E2" cx="366" cy="411" r="3"></circle>
                <circle id="nytg-circle115" stroke="#B99812" fill="#FFCD00" cx="198" cy="396" r="3"></circle>
                <circle id="nytg-circle378" stroke="#B99812" fill="#FFCD00" cx="161" cy="359" r="3"></circle>
                <circle id="nytg-circle297" stroke="#B99812" fill="#FFCD00" cx="105" cy="392" r="3"></circle>
                <circle id="nytg-circle77" stroke="#078EB0" fill="#00B5E2" cx="214" cy="455" r="3"></circle>
                <circle id="nytg-circle454" stroke="#B99812" fill="#FFCD00" cx="115" cy="387" r="3"></circle>
                <circle id="nytg-circle455" stroke="#B99812" fill="#FFCD00" cx="142" cy="413" r="3"></circle>
                <circle id="nytg-circle74" stroke="#B99812" fill="#FFCD00" cx="147.5" cy="409.5" r="2.5"></circle>
                <circle id="nytg-circle187" stroke="#B99812" fill="#FFCD00" cx="190.5" cy="375.5" r="2.5"></circle>
                <circle id="nytg-circle406" stroke="#B99812" fill="#FFCD00" cx="170.5" cy="356.5" r="2.5"></circle>
                <circle id="nytg-circle66" stroke="#B99812" fill="#FFCD00" cx="110.5" cy="389.5" r="2.5"></circle>
                <circle id="nytg-circle112" stroke="#078EB0" fill="#00B5E2" cx="269.5" cy="433.5" r="2.5"></circle>
                <circle id="nytg-circle345" stroke="#B99812" fill="#FFCD00" cx="118.5" cy="398.5" r="2.5"></circle>
                <circle id="nytg-circle379" stroke="#B99812" fill="#FFCD00" cx="171.5" cy="368.5" r="2.5"></circle>
                <circle id="nytg-circle393" stroke="#B99812" fill="#FFCD00" cx="120.5" cy="429.5" r="2.5"></circle>
                <circle id="nytg-circle218" stroke="#078EB0" fill="#00B5E2" cx="266.5" cy="428.5" r="2.5"></circle>
                <circle id="nytg-circle306" stroke="#B99812" fill="#FFCD00" cx="104.5" cy="398.5" r="2.5"></circle>
                <circle id="nytg-circle440" stroke="#B99812" fill="#FFCD00" cx="165.5" cy="374.5" r="2.5"></circle>
                <circle id="nytg-circle435" stroke="#B99812" fill="#FFCD00" cx="136.5" cy="380.5" r="2.5"></circle>
                <circle id="nytg-circle209" stroke="#078EB0" fill="#00B5E2" cx="312.5" cy="381.5" r="2.5"></circle>
                <circle id="nytg-circle304" stroke="#B99812" fill="#FFCD00" cx="130" cy="435" r="2"></circle>
                <circle id="nytg-circle114" stroke="#B99812" fill="#FFCD00" cx="125" cy="400" r="2"></circle>
                <circle id="nytg-circle313" stroke="#B99812" fill="#FFCD00" cx="131" cy="383" r="2"></circle>
                <circle id="nytg-circle346" stroke="#B99812" fill="#FFCD00" cx="164" cy="356" r="2"></circle>
                <circle id="nytg-circle409" stroke="#B99812" fill="#FFCD00" cx="126" cy="384" r="2"></circle>
                <circle id="nytg-circle426" stroke="#B99812" fill="#FFCD00" cx="133" cy="433" r="2"></circle>
                <circle id="nytg-circle9" stroke="#078EB0" fill="#00B5E2" cx="252" cy="452" r="2"></circle>
                <circle id="nytg-circle12" stroke="#078EB0" fill="#00B5E2" cx="354" cy="433" r="2"></circle>
                <circle id="nytg-circle17" stroke="#078EB0" fill="#00B5E2" cx="255" cy="453" r="2"></circle>
                <circle id="nytg-circle93" stroke="#078EB0" fill="#00B5E2" cx="352" cy="428" r="2"></circle>
                <circle id="nytg-circle205" stroke="#B99812" fill="#FFCD00" cx="191" cy="367" r="2"></circle>
                <circle id="nytg-circle154" stroke="#078EB0" fill="#00B5E2" cx="369" cy="406" r="2"></circle>
                <circle id="nytg-circle279" stroke="#078EB0" fill="#00B5E2" cx="214" cy="415" r="2"></circle>
                <circle id="nytg-circle469" stroke="#B99812" fill="#FFCD00" cx="172" cy="365" r="2"></circle>
                <circle id="nytg-circle96" stroke="#078EB0" fill="#00B5E2" cx="375" cy="423" r="2"></circle>
                <circle id="nytg-circle457" stroke="#B99812" fill="#FFCD00" cx="122" cy="398" r="2"></circle>
                <circle id="nytg-circle445" stroke="#B99812" fill="#FFCD00" cx="193.5" cy="357.5" r="1.5"></circle>
                <circle id="nytg-circle294" stroke="#B99812" fill="#FFCD00" cx="108.5" cy="398.5" r="1.5"></circle>
                <circle id="nytg-circle7" stroke="#078EB0" fill="#00B5E2" cx="213.5" cy="450.5" r="1.5"></circle>
                <circle id="nytg-circle211" stroke="#078EB0" fill="#00B5E2" cx="217.5" cy="415.5" r="1.5"></circle>
                <circle id="nytg-circle138" stroke="#B99812" fill="#FFCD00" cx="184.5" cy="377.5" r="1.5"></circle>
                <circle id="nytg-circle146" stroke="#078EB0" fill="#00B5E2" cx="270.5" cy="427.5" r="1.5"></circle>
                <circle id="nytg-circle108" stroke="#078EB0" fill="#00B5E2" cx="268.5" cy="425.5" r="1.5"></circle>
                <circle id="nytg-circle450" stroke="#B99812" fill="#FFCD00" cx="161.5" cy="372.5" r="1.5"></circle>
                <circle id="nytg-circle291" stroke="#B99812" fill="#FFCD00" cx="163.5" cy="369.5" r="1.5"></circle>
                <circle id="nytg-circle54" stroke="#078EB0" fill="#00B5E2" cx="351.5" cy="413.5" r="1.5"></circle>
                <circle id="nytg-circle367" stroke="#B99812" fill="#FFCD00" cx="163.5" cy="372.5" r="1.5"></circle>
                <circle id="nytg-circle437" stroke="#B99812" fill="#FFCD00" cx="136.5" cy="383.5" r="1.5"></circle>
                <circle id="nytg-circle341" stroke="#B99812" fill="#FFCD00" cx="107.5" cy="397.5" r="1.5"></circle>
                <circle id="nytg-circle404" stroke="#B99812" fill="#FFCD00" cx="121.5" cy="426.5" r="1.5"></circle>
                <circle id="nytg-circle385" stroke="#B99812" fill="#FFCD00" cx="120.5" cy="386.5" r="1.5"></circle>
                <circle id="nytg-circle480" stroke="#B99812" fill="#FFCD00" cx="134.5" cy="384.5" r="1.5"></circle>
                <circle id="nytg-circle387" stroke="#B99812" fill="#FFCD00" cx="166.5" cy="370.5" r="1.5"></circle>
                <circle id="nytg-circle365" stroke="#B99812" fill="#FFCD00" cx="172.5" cy="360.5" r="1.5"></circle>
                <circle id="nytg-circle386" stroke="#B99812" fill="#FFCD00" cx="129.5" cy="385.5" r="1.5"></circle>
                <circle id="nytg-circle451" stroke="#B99812" fill="#FFCD00" cx="164.5" cy="366.5" r="1.5"></circle>
                <circle id="nytg-circle461" stroke="#B99812" fill="#FFCD00" cx="167.5" cy="355.5" r="1.5"></circle>
                <circle id="nytg-circle399" stroke="#B99812" fill="#FFCD00" cx="158.5" cy="360.5" r="1.5"></circle>
                <circle id="nytg-circle425" stroke="#B99812" fill="#FFCD00" cx="193.5" cy="355.5" r="1.5"></circle>
                <circle id="nytg-circle466" stroke="#B99812" fill="#FFCD00" cx="169.5" cy="368.5" r="1.5"></circle>
                <circle id="nytg-circle335" stroke="#B99812" fill="#FFCD00" cx="114.5" cy="427.5" r="1.5"></circle>
                <circle id="nytg-circle391" stroke="#B99812" fill="#FFCD00" cx="193.5" cy="362.5" r="1.5"></circle>
                <circle id="nytg-circle464" stroke="#B99812" fill="#FFCD00" cx="167.5" cy="368.5" r="1.5"></circle>
                <circle id="nytg-circle355" stroke="#B99812" fill="#FFCD00" cx="175" cy="367" r="1"></circle>
                <circle id="nytg-circle334" stroke="#B99812" fill="#FFCD00" cx="165" cy="368" r="1"></circle>
                <circle id="nytg-circle340" stroke="#B99812" fill="#FFCD00" cx="113" cy="400" r="1"></circle>
                <circle id="nytg-circle413" stroke="#B99812" fill="#FFCD00" cx="169" cy="370" r="1"></circle>
                <circle id="nytg-circle373" stroke="#B99812" fill="#FFCD00" cx="173" cy="356" r="1"></circle>
                <circle id="nytg-circle351" stroke="#B99812" fill="#FFCD00" cx="159" cy="371" r="1"></circle>
                <circle id="nytg-circle156" stroke="#078EB0" fill="#00B5E2" cx="388" cy="362" r="41"></circle>
                <circle id="nytg-circle241" stroke="#078EB0" fill="#00B5E2" cx="316.5" cy="424.5" r="35.5"></circle>
                <circle id="nytg-circle248" stroke="#078EB0" fill="#00B5E2" cx="323.5" cy="345.5" r="28.5"></circle>
                <circle id="nytg-circle243" stroke="#8A0058" fill="#C6007E" cx="406.5" cy="268.5" r="20.5"></circle>
                <circle id="nytg-circle173" stroke="#8A0058" fill="#C6007E" cx="422.5" cy="299.5" r="19.5"></circle>
                <circle id="nytg-circle162" stroke="#078EB0" fill="#00B5E2" cx="431" cy="324" r="15"></circle>
                <circle id="nytg-circle1" stroke="#078EB0" fill="#00B5E2" cx="332.5" cy="383.5" r="14.5"></circle>
                <circle id="nytg-circle143" stroke="#8A0058" fill="#C6007E" cx="373.5" cy="277.5" r="13.5"></circle>
                <circle id="nytg-circle231" stroke="#8A0058" fill="#C6007E" cx="465" cy="263" r="13"></circle>
                <circle id="nytg-circle97" stroke="#8A0058" fill="#C6007E" cx="388" cy="238" r="13"></circle>
                <circle id="nytg-circle217" stroke="#078EB0" fill="#00B5E2" cx="353.5" cy="320.5" r="12.5"></circle>
                <circle id="nytg-circle176" stroke="#8A0058" fill="#C6007E" cx="446.5" cy="257.5" r="12.5"></circle>
                <circle id="nytg-circle363" stroke="#8A0058" fill="#C6007E" cx="358" cy="295" r="12"></circle>
                <circle id="nytg-circle52" stroke="#8A0058" fill="#C6007E" cx="445.5" cy="279.5" r="11.5"></circle>
                <circle id="nytg-circle87" stroke="#8A0058" fill="#C6007E" cx="362.5" cy="246.5" r="11.5"></circle>
                <circle id="nytg-circle89" stroke="#078EB0" fill="#00B5E2" cx="434.5" cy="354.5" r="10.5"></circle>
                <circle id="nytg-circle181" stroke="#8A0058" fill="#C6007E" cx="431" cy="244" r="10"></circle>
                <ellipse id="nytg-circle110" stroke="#8A0058" fill="#C6007E" cx="414.5" cy="241" rx="9.5" ry="10"></ellipse>
                <circle id="nytg-circle51" stroke="#8A0058" fill="#C6007E" cx="377.5" cy="258.5" r="9.5"></circle>
                <circle id="nytg-circle131" stroke="#078EB0" fill="#00B5E2" cx="358.5" cy="404.5" r="8.5"></circle>
                <circle id="nytg-circle177" stroke="#8A0058" fill="#C6007E" cx="463.5" cy="284.5" r="8.5"></circle>
                <circle id="nytg-circle178" stroke="#078EB0" fill="#00B5E2" cx="347.5" cy="399.5" r="6.5"></circle>
                <circle id="nytg-circle22" stroke="#8A0058" fill="#C6007E" cx="455.5" cy="306.5" r="6.5"></circle>
                <circle id="nytg-circle422" stroke="#8A0058" fill="#C6007E" cx="388" cy="288" r="6"></circle>
                <circle id="nytg-circle151" stroke="#8A0058" fill="#C6007E" cx="459.5" cy="243.5" r="5.5"></circle>
                <circle id="nytg-circle119" stroke="#078EB0" fill="#00B5E2" cx="352.5" cy="389.5" r="5.5"></circle>
                <circle id="nytg-circle228" stroke="#940C27" fill="#BA0C2F" cx="358.5" cy="307.5" r="5.5"></circle>
                <circle id="nytg-circle282" stroke="#078EB0" fill="#00B5E2" cx="345.5" cy="373.5" r="5.5"></circle>
                <circle id="nytg-circle179" stroke="#8A0058" fill="#C6007E" cx="394" cy="250" r="5"></circle>
                <circle id="nytg-circle171" stroke="#940C27" fill="#BA0C2F" cx="356" cy="282" r="5"></circle>
                <g id="red-active" transform="translate(190.000000, 20.000000)">
                    <g id="nytg-circle309">
                        <use fill="#BA0C2F" fill-rule="evenodd" xlink:href="#path-1"></use>
                        <circle stroke="#000000" stroke-width="3" cx="114" cy="114" r="115.5"></circle>
                    </g>
                    <g id="nytg-circle416">
                        <use fill="#BA0C2F" fill-rule="evenodd" xlink:href="#path-2"></use>
                        <circle stroke="#000000" stroke-width="3" cx="111.5" cy="266.5" r="35"></circle>
                    </g>
                    <g id="nytg-circle287">
                        <use fill="#BA0C2F" fill-rule="evenodd" xlink:href="#path-3"></use>
                        <circle stroke="#000000" stroke-width="3" cx="153.5" cy="244.5" r="22"></circle>
                    </g>
                    <g id="nytg-circle117">
                        <use fill="#BA0C2F" fill-rule="evenodd" xlink:href="#path-4"></use>
                        <circle stroke="#000000" stroke-width="3" cx="207" cy="294" r="11.5"></circle>
                    </g>
                    <g id="nytg-circle42">
                        <use fill="#BA0C2F" fill-rule="evenodd" xlink:href="#path-5"></use>
                        <circle stroke="#000000" stroke-width="3" cx="257.5" cy="313.5" r="11"></circle>
                    </g>
                    <g id="nytg-circle80">
                        <use fill="#BA0C2F" fill-rule="evenodd" xlink:href="#path-6"></use>
                        <circle stroke="#000000" stroke-width="3" cx="147" cy="283" r="7.5"></circle>
                    </g>
                    <g id="nytg-circle129">
                        <use fill="#BA0C2F" fill-rule="evenodd" xlink:href="#path-7"></use>
                        <circle stroke="#000000" stroke-width="3" cx="154" cy="285" r="6.5"></circle>
                    </g>
                </g>
                <circle id="nytg-circle21" stroke="#078EB0" fill="#00B5E2" cx="394.5" cy="406.5" r="4.5"></circle>
                <circle id="nytg-circle73" stroke="#8A0058" fill="#C6007E" cx="380.5" cy="304.5" r="4.5"></circle>
                <circle id="nytg-circle25" stroke="#940C27" fill="#BA0C2F" cx="330.5" cy="311.5" r="4.5"></circle>
                <circle id="nytg-circle10" stroke="#8A0058" fill="#C6007E" cx="391.5" cy="297.5" r="4.5"></circle>
                <circle id="nytg-circle45" stroke="#8A0058" fill="#C6007E" cx="375.5" cy="246.5" r="4.5"></circle>
                <circle id="nytg-circle118" stroke="#078EB0" fill="#00B5E2" cx="429.5" cy="341.5" r="4.5"></circle>
                <circle id="nytg-circle453" stroke="#8A0058" fill="#C6007E" cx="398.5" cy="294.5" r="4.5"></circle>
                <circle id="nytg-circle258" stroke="#8A0058" fill="#C6007E" cx="468.5" cy="245.5" r="4.5"></circle>
                <circle id="nytg-circle157" stroke="#940C27" fill="#BA0C2F" cx="374.5" cy="308.5" r="4.5"></circle>
                <circle id="nytg-circle70" stroke="#8A0058" fill="#C6007E" cx="432" cy="269" r="4"></circle>
                <circle id="nytg-circle134" stroke="#8A0058" fill="#C6007E" cx="438" cy="287" r="4"></circle>
                <circle id="nytg-circle254" stroke="#940C27" fill="#BA0C2F" cx="446.5" cy="305.5" r="3.5"></circle>
                <circle id="nytg-circle191" stroke="#940C27" fill="#BA0C2F" cx="370.5" cy="312.5" r="3.5"></circle>
                <circle id="nytg-circle24" stroke="#8A0058" fill="#C6007E" cx="428.5" cy="261.5" r="3.5"></circle>
                <circle id="nytg-circle139" stroke="#078EB0" fill="#00B5E2" cx="418.5" cy="333.5" r="3.5"></circle>
                <circle id="nytg-circle72" stroke="#940C27" fill="#BA0C2F" cx="449.5" cy="312.5" r="3.5"></circle>
                <circle id="nytg-circle421" stroke="#940C27" fill="#BA0C2F" cx="339.5" cy="292.5" r="3.5"></circle>
                <circle id="nytg-circle234" stroke="#8A0058" fill="#C6007E" cx="450" cy="295" r="3"></circle>
                <circle id="nytg-circle90" stroke="#8A0058" fill="#C6007E" cx="426" cy="256" r="3"></circle>
                <circle id="nytg-circle158" stroke="#940C27" fill="#BA0C2F" cx="338" cy="314" r="3"></circle>
                <circle id="nytg-circle237" stroke="#8A0058" fill="#C6007E" cx="454" cy="291" r="3"></circle>
                <circle id="nytg-circle99" stroke="#940C27" fill="#BA0C2F" cx="451" cy="317" r="3"></circle>
                <circle id="nytg-circle224" stroke="#940C27" fill="#BA0C2F" cx="411" cy="324" r="3"></circle>
                <circle id="nytg-circle105" stroke="#940C27" fill="#BA0C2F" cx="455" cy="320" r="3"></circle>
                <circle id="nytg-circle465" stroke="#8A0058" fill="#C6007E" cx="382" cy="294" r="3"></circle>
                <circle id="nytg-circle286" stroke="#8A0058" fill="#C6007E" cx="385" cy="298" r="3"></circle>
                <circle id="nytg-circle213" stroke="#940C27" fill="#BA0C2F" cx="408.5" cy="319.5" r="2.5"></circle>
                <circle id="nytg-circle135" stroke="#8A0058" fill="#C6007E" cx="387.5" cy="303.5" r="2.5"></circle>
                <circle id="nytg-circle85" stroke="#8A0058" fill="#C6007E" cx="453.5" cy="298.5" r="2.5"></circle>
                <circle id="nytg-circle245" stroke="#8A0058" fill="#C6007E" cx="373.5" cy="294.5" r="2.5"></circle>
                <circle id="nytg-circle226" stroke="#940C27" fill="#BA0C2F" cx="440.5" cy="343.5" r="2.5"></circle>
                <circle id="nytg-circle222" stroke="#8A0058" fill="#C6007E" cx="375.5" cy="298.5" r="2.5"></circle>
                <circle id="nytg-circle189" stroke="#940C27" fill="#BA0C2F" cx="384.5" cy="310.5" r="2.5"></circle>
                <circle id="nytg-circle141" stroke="#078EB0" fill="#00B5E2" cx="349.5" cy="383.5" r="2.5"></circle>
                <circle id="nytg-circle229" stroke="#8A0058" fill="#C6007E" cx="433.5" cy="262.5" r="2.5"></circle>
                <circle id="nytg-circle193" stroke="#8A0058" fill="#C6007E" cx="429.5" cy="275.5" r="2.5"></circle>
                <circle id="nytg-circle200" stroke="#8A0058" fill="#C6007E" cx="386" cy="252" r="2"></circle>
                <circle id="nytg-circle185" stroke="#940C27" fill="#BA0C2F" cx="343" cy="297" r="2"></circle>
                <circle id="nytg-circle11" stroke="#940C27" fill="#BA0C2F" cx="459" cy="312" r="2"></circle>
                <circle id="nytg-circle210" stroke="#8A0058" fill="#C6007E" cx="432" cy="273" r="2"></circle>
                <circle id="nytg-circle183" stroke="#8A0058" fill="#C6007E" cx="377" cy="292" r="2"></circle>
                <circle id="nytg-circle69" stroke="#940C27" fill="#BA0C2F" cx="457" cy="315" r="2"></circle>
                <circle id="nytg-circle204" stroke="#8A0058" fill="#C6007E" cx="365" cy="261" r="2"></circle>
                <circle id="nytg-circle145" stroke="#8A0058" fill="#C6007E" cx="378" cy="296" r="2"></circle>
                <circle id="nytg-circle83" stroke="#8A0058" fill="#C6007E" cx="399" cy="301" r="2"></circle>
                <circle id="nytg-circle100" stroke="#8A0058" fill="#C6007E" cx="460" cy="297" r="2"></circle>
                <circle id="nytg-circle225" stroke="#940C27" fill="#BA0C2F" cx="374" cy="318" r="2"></circle>
                <circle id="nytg-circle14" stroke="#940C27" fill="#BA0C2F" cx="382" cy="317" r="2"></circle>
                <circle id="nytg-circle136" stroke="#940C27" fill="#BA0C2F" cx="378" cy="317" r="2"></circle>
                <circle id="nytg-circle267" stroke="#940C27" fill="#BA0C2F" cx="389" cy="307" r="2"></circle>
                <circle id="nytg-circle37" stroke="#940C27" fill="#BA0C2F" cx="380" cy="313" r="2"></circle>
                <circle id="nytg-circle227" stroke="#8A0058" fill="#C6007E" cx="381" cy="299" r="2"></circle>
                <circle id="nytg-circle43" stroke="#8A0058" fill="#C6007E" cx="433" cy="276" r="2"></circle>
                <circle id="nytg-circle208" stroke="#940C27" fill="#BA0C2F" cx="340" cy="296" r="2"></circle>
                <circle id="nytg-circle255" stroke="#8A0058" fill="#C6007E" cx="433" cy="266" r="2"></circle>
                <circle id="nytg-circle274" stroke="#8A0058" fill="#C6007E" cx="431" cy="279" r="2"></circle>
                <circle id="nytg-circle273" stroke="#8A0058" fill="#C6007E" cx="401.5" cy="292.5" r="1.5"></circle>
                <circle id="nytg-circle53" stroke="#8A0058" fill="#C6007E" cx="459.5" cy="293.5" r="1.5"></circle>
                <circle id="nytg-circle159" stroke="#940C27" fill="#BA0C2F" cx="443.5" cy="345.5" r="1.5"></circle>
                <circle id="nytg-circle104" stroke="#8A0058" fill="#C6007E" cx="445.5" cy="297.5" r="1.5"></circle>
                <circle id="nytg-circle257" stroke="#8A0058" fill="#C6007E" cx="448.5" cy="300.5" r="1.5"></circle>
                <circle id="nytg-circle216" stroke="#940C27" fill="#BA0C2F" cx="370.5" cy="305.5" r="1.5"></circle>
                <circle id="nytg-circle283" stroke="#940C27" fill="#BA0C2F" cx="330.5" cy="306.5" r="1.5"></circle>
                <circle id="nytg-circle281" stroke="#8A0058" fill="#C6007E" cx="371.5" cy="300.5" r="1.5"></circle>
                <circle id="nytg-circle182" stroke="#8A0058" fill="#C6007E" cx="461.5" cy="300.5" r="1.5"></circle>
                <circle id="nytg-circle19" stroke="#8A0058" fill="#C6007E" cx="448.5" cy="298.5" r="1.5"></circle>
                <circle id="nytg-circle192" stroke="#940C27" fill="#BA0C2F" cx="376.5" cy="314.5" r="1.5"></circle>
                <circle id="nytg-circle35" stroke="#940C27" fill="#BA0C2F" cx="393.5" cy="304.5" r="1.5"></circle>
                <circle id="nytg-circle84" stroke="#940C27" fill="#BA0C2F" cx="339.5" cy="310.5" r="1.5"></circle>
                <circle id="nytg-circle133" stroke="#940C27" fill="#BA0C2F" cx="373.5" cy="315.5" r="1.5"></circle>
                <circle id="nytg-circle39" stroke="#940C27" fill="#BA0C2F" cx="335.5" cy="312.5" r="1.5"></circle>
                <circle id="nytg-circle166" stroke="#940C27" fill="#BA0C2F" cx="342.5" cy="311.5" r="1.5"></circle>
                <circle id="nytg-circle212" stroke="#8A0058" fill="#C6007E" cx="456.5" cy="295.5" r="1.5"></circle>
                <circle id="nytg-circle16" stroke="#8A0058" fill="#C6007E" cx="459.5" cy="300.5" r="1.5"></circle>
                <circle id="nytg-circle160" stroke="#940C27" fill="#BA0C2F" cx="397.5" cy="303.5" r="1.5"></circle>
                <circle id="nytg-circle6" stroke="#8A0058" fill="#C6007E" cx="457.5" cy="297.5" r="1.5"></circle>
                <circle id="nytg-circle40" stroke="#8A0058" fill="#C6007E" cx="457.5" cy="293.5" r="1.5"></circle>
                <circle id="nytg-circle262" stroke="#940C27" fill="#BA0C2F" cx="386.5" cy="307.5" r="1.5"></circle>
                <circle id="nytg-circle48" stroke="#940C27" fill="#BA0C2F" cx="392.5" cy="303.5" r="1.5"></circle>
                <circle id="nytg-circle197" stroke="#940C27" fill="#BA0C2F" cx="370.5" cy="303.5" r="1.5"></circle>
                <circle id="nytg-circle4" stroke="#940C27" fill="#BA0C2F" cx="327.5" cy="315.5" r="1.5"></circle>
                <circle id="nytg-circle49" stroke="#8A0058" fill="#C6007E" cx="463.5" cy="297.5" r="1.5"></circle>
                <circle id="nytg-circle190" stroke="#8A0058" fill="#C6007E" cx="462.5" cy="294.5" r="1.5"></circle>
                <circle id="nytg-circle152" stroke="#940C27" fill="#BA0C2F" cx="383.5" cy="313.5" r="1.5"></circle>
                <circle id="nytg-circle167" stroke="#8A0058" fill="#C6007E" cx="457.5" cy="300.5" r="1.5"></circle>
                <circle id="nytg-circle188" stroke="#940C27" fill="#BA0C2F" cx="373.5" cy="302.5" r="1.5"></circle>
                <circle id="nytg-circle232" stroke="#940C27" fill="#BA0C2F" cx="368.5" cy="306.5" r="1.5"></circle>
                <circle id="nytg-circle240" stroke="#940C27" fill="#BA0C2F" cx="386.5" cy="312.5" r="1.5"></circle>
                <circle id="nytg-circle168" stroke="#8A0058" fill="#C6007E" cx="395.5" cy="302.5" r="1.5"></circle>
                <circle id="nytg-circle244" stroke="#940C27" fill="#BA0C2F" cx="335.5" cy="316.5" r="1.5"></circle>
                <circle id="nytg-circle250" stroke="#940C27" fill="#BA0C2F" cx="367" cy="311" r="1"></circle>
                <circle id="nytg-circle127" stroke="#8A0058" fill="#C6007E" cx="376" cy="301" r="1"></circle>
                <circle id="nytg-circle109" stroke="#940C27" fill="#BA0C2F" cx="367" cy="308" r="1"></circle>
                <circle id="nytg-circle239" stroke="#940C27" fill="#BA0C2F" cx="378" cy="314" r="1"></circle>
            </g>
        </g>
    </g>
</svg>