<?xml version="1.0" encoding="UTF-8"?>
<svg width="60px" height="60px" viewBox="0 0 60 60" version="1.1" xmlns="http://www.w3.org/2000/svg" xmlns:xlink="http://www.w3.org/1999/xlink">
    <!-- Generator: Sketch 49.1 (51147) - http://www.bohemiancoding.com/sketch -->
    <title>environment</title>
    <desc>Created with Sketch.</desc>
    <defs></defs>
    <g id="Page-1" stroke="none" stroke-width="1" fill="none" fill-rule="evenodd">
        <g id="phase4" transform="translate(-669.000000, -1620.000000)">
            <g id="topics" transform="translate(0.000000, 1592.000000)">
                <g id="items-collapsed" transform="translate(270.000000, 30.000000)">
                    <g id="environment" transform="translate(379.000000, 0.000000)">
                        <g transform="translate(22.000000, 0.000000)">
                            <circle id="Oval-2" stroke="#00B5E2" stroke-width="2.4" cx="28" cy="28" r="28"></circle>
                            <path d="M33.3041774,16.5323163 C34.8764922,15.6014487 36.0878582,15.598224 37.2155497,16.507056 C38.3388661,17.4121259 38.4859801,18.5542122 37.7148622,20.5374116 C39.1745173,20.6782241 40.1206406,21.4268953 40.5384662,22.8199719 C40.5811238,22.9634717 40.8255845,23.0908479 41.0022307,23.146743 C42.2660983,23.5455327 43.0946399,24.5478814 43.1334692,25.7598365 C43.175033,27.0405856 42.4361818,28.1375259 41.2160655,28.6083342 C40.5521385,28.8641616 40.4766674,29.1973821 40.9973087,29.6956005 C41.8685078,30.5291891 42.1425007,31.5347626 41.7908491,32.6515886 C41.4375568,33.7737893 40.6062808,34.4509793 39.4211656,34.6299509 C38.2508165,34.8067728 37.3052401,34.3547753 36.6374848,33.4222954 C36.3356003,32.9998578 36.1080932,32.8912924 35.5978429,33.1223969 C33.0301845,34.2865188 30.4040086,32.9004291 29.9878237,30.1535099 C29.8210216,29.0538823 30.2869737,28.0950672 30.9076962,27.047035 C30.7315969,27.092181 30.5221373,27.0927185 30.3848673,27.1905348 C29.8675074,27.5576148 29.3638198,27.9456554 28.875992,28.3503571 C28.7338001,28.4685966 28.5664511,28.6706787 28.5713731,28.8292272 C28.6102025,30.0696673 28.6353595,31.3144071 28.7693481,32.5467854 C28.9120869,33.8570944 29.6290625,34.8965273 30.5833892,35.8042844 C30.7890206,35.9999171 30.9328532,36.3444241 30.9514476,36.6303488 C31.0034023,37.4483513 30.9591041,38.2722658 30.9842611,39.0929556 C31.0466068,41.1427991 31.8587416,42.0204589 33.9150559,42.2988592 C34.2683482,42.3466925 34.6336721,42.3714153 34.9672763,42.481593 C35.2768172,42.583709 35.5524509,42.7863285 35.8428506,42.9443395 C35.820428,43.0082964 35.7985523,43.0717158 35.7766766,43.1351351 L21.4103679,43.1351351 C21.161532,42.5525367 21.5673259,42.3079959 22.0474972,42.1838444 C22.7365812,42.0064851 23.4464472,41.9102811 24.142094,41.7549574 C26.4762295,41.2352409 27.2834422,40.0705816 26.9739013,37.7622235 C26.7720981,36.2584317 26.6178745,34.7481905 26.4297436,33.1299213 C26.2055179,33.324479 26.0436378,33.4706661 25.8757419,33.6104037 C24.8803983,34.4413051 23.7658322,34.8406323 22.4407126,34.589642 C22.2345343,34.550408 21.9228058,34.6492992 21.7707698,34.7954863 C19.9184462,36.5755286 17.5903265,36.0864469 16.685767,33.7103699 C16.6529535,33.62384 16.6130303,33.5399975 16.5774824,33.4577672 C14.5085895,33.6485628 13.26441,32.7155455 12.9269775,31.0800778 C12.6141553,29.5666119 13.5001205,28.3766923 15.1971267,27.758622 C15.5619037,26.8309792 15.8894921,25.9990029 16.2230963,25.150903 C15.3015831,25.2422699 14.3220993,25.0192271 13.6904389,24.1759643 C13.3141772,23.6734463 13.0155741,23.0242038 12.9411967,22.4104332 C12.7716602,21.0254184 13.8003642,19.8629088 15.4054926,19.4232728 C15.6701884,16.157712 17.4164148,15.0236874 20.1809544,16.3624813 C20.3171306,15.3321851 20.6069834,14.3572464 21.6006863,13.8380674 C22.0879672,13.583315 22.692283,13.3269502 23.2036271,13.3887572 C23.8959925,13.4731372 24.2957706,13.2678304 24.8000052,12.8496925 C26.4466973,11.4824136 28.9388846,12.0805981 29.8407097,14.0299379 C30.0293875,14.4373268 30.2273624,14.570615 30.6752671,14.5813641 C31.673892,14.6055495 32.4362596,15.0930188 32.9623698,15.9271449 C33.0854206,16.1227776 33.1904238,16.3296967 33.3041774,16.5323163" id="Fill-1" fill="#00B5E2"></path>
                        </g>
                    </g>
                </g>
            </g>
        </g>
    </g>
</svg>