<?xml version="1.0" encoding="UTF-8"?>
<svg width="78px" height="78px" viewBox="0 0 78 78" version="1.1" xmlns="http://www.w3.org/2000/svg" xmlns:xlink="http://www.w3.org/1999/xlink">
    <!-- Generator: Sketch 48.2 (47327) - http://www.bohemiancoding.com/sketch -->
    <title>bluetopic</title>
    <desc>Created with Sketch.</desc>
    <defs></defs>
    <g id="phase2" stroke="none" stroke-width="1" fill="none" fill-rule="evenodd" transform="translate(-823.000000, -871.000000)">
        <g id="topics" transform="translate(0.000000, 785.000000)">
            <g id="items" transform="translate(177.000000, 78.000000)">
                <g id="bluetopic" transform="translate(648.000000, 10.000000)">
                    <circle id="Oval-2" stroke="#00B5E2" stroke-width="3.2" cx="37" cy="37" r="37"></circle>
                    <path d="M44.0090916,21.8462751 C46.0867933,20.6162001 47.6875269,20.6119389 49.1776907,21.8128955 C50.6620731,23.0088806 50.8564737,24.5180662 49.8374965,27.1387224 C51.7663264,27.3247961 53.0165608,28.3141116 53.5686875,30.1549629 C53.6250564,30.3445876 53.9480938,30.5129062 54.1815191,30.5867675 C55.85163,31.1137396 56.9464884,32.4382718 56.9977986,34.039784 C57.0527222,35.7322024 56.0763831,37.1817307 54.4640866,37.8038703 C53.5867544,38.1419278 53.4870247,38.5822549 54.175015,39.2406149 C55.3262424,40.3421428 55.6883045,41.6709362 55.223622,43.1467421 C54.7567715,44.6296501 53.6582996,45.5245083 52.0922546,45.7610066 C50.5457218,45.994664 49.2962101,45.3973816 48.4138192,44.165176 C48.0149005,43.6069549 47.7142661,43.4634935 47.0400067,43.7688817 C43.6470295,45.3071856 40.1767256,43.475567 39.626767,39.8457095 C39.40635,38.3926302 40.0220723,37.1256245 40.8423128,35.7407249 C40.6096102,35.8003821 40.3328242,35.8010923 40.1514318,35.9303496 C39.4677777,36.4154196 38.8021904,36.9281875 38.1575609,37.4629719 C37.9696644,37.619217 37.7485247,37.886254 37.7550288,38.0957645 C37.806339,39.7349175 37.8395822,41.3797522 38.0166385,43.0082522 C38.2052577,44.7397319 39.1526897,46.1132682 40.4137643,47.3128044 C40.6854915,47.571319 40.8755561,48.0265604 40.9001271,48.4043894 C40.9687816,49.4853214 40.9102446,50.5740656 40.9434879,51.6585485 C41.0258733,54.3672702 42.0990514,55.5270349 44.8163239,55.8949211 C45.2831744,55.9581293 45.7659239,55.9907988 46.206758,56.1363908 C46.6157942,56.2713297 46.9800243,56.539077 47.3637668,56.7478772 C47.334137,56.8323916 47.3052298,56.9161958 47.2763227,57 L28.2922719,57 C27.963453,56.2301378 28.4996807,55.9069946 29.1341927,55.7429372 C30.0447681,55.5085696 30.9828052,55.3814429 31.9020527,55.1761937 C34.9864461,54.4894255 36.0531201,52.9504113 35.6440838,49.9000811 C35.3774153,47.9129276 35.1736199,45.9172517 34.9250184,43.7788245 C34.62872,44.0359187 34.4148071,44.2290945 34.1929447,44.4137478 C32.8776692,45.5117246 31.4048497,46.0394069 29.6537988,45.7077412 C29.3813489,45.6558962 28.9694219,45.786574 28.7685172,45.9797497 C26.3208039,48.3319485 23.2443601,47.685662 22.0490492,44.5458459 C22.0056885,44.4315029 21.952933,44.3207109 21.9059588,44.2120496 C19.1720647,44.4641723 17.5279703,43.2312565 17.0820775,41.0701028 C16.6687052,39.0701657 17.8394449,37.4977719 20.0819174,36.6810362 C20.5639442,35.4552225 20.9968288,34.3558252 21.4376629,33.2351218 C20.2199491,33.3558566 18.9256312,33.0611216 18.0909372,31.94681 C17.5937341,31.2827684 17.1991515,30.4248408 17.1008671,29.6137867 C16.8768367,27.7835885 18.2361956,26.2474152 20.357258,25.6664676 C20.7070346,21.3512623 23.0145482,19.8527298 26.6676898,21.6218503 C26.8476368,20.2603874 27.2306566,18.9720757 28.5437641,18.2860177 C29.187671,17.9493805 29.9862311,17.6106128 30.6619358,17.6922863 C31.5768472,17.8037885 32.1051255,17.5324902 32.7714354,16.9799508 C34.9474214,15.1731893 38.240669,15.9636475 39.4323664,18.5395608 C39.6816906,19.0778962 39.9433003,19.254027 40.5351743,19.2682311 C41.8547859,19.3001903 42.8622002,19.9443462 43.5574173,21.0465843 C43.72002,21.3050989 43.8587744,21.5785278 44.0090916,21.8462751" id="Fill-1" fill="#00B5E2"></path>
                </g>
            </g>
        </g>
    </g>
</svg>