<?xml version="1.0" encoding="UTF-8"?>
<svg width="310px" height="60px" viewBox="0 0 310 60" version="1.1" xmlns="http://www.w3.org/2000/svg" xmlns:xlink="http://www.w3.org/1999/xlink">
    <!-- Generator: Sketch 62 (91390) - https://sketch.com -->
    <title>Group</title>
    <desc>Created with Sketch.</desc>
    <g id="Page-1" stroke="none" stroke-width="1" fill="none" fill-rule="evenodd">
        <g id="phase-5-brand-2.0" transform="translate(-993.000000, -71.000000)" fill="#FFFFFF">
            <g id="head" transform="translate(-1.000000, 0.000000)">
                <g id="Group" transform="translate(994.000000, 71.000000)">
                    <path d="M29.9513324,16.5047031 C30.2304547,11.5769671 29.2984901,6.86514149 27.424634,2.63896965 C27.0228849,1.73191428 26.562158,0.857853262 26.0763219,0 L0,0 L0,44 L7.51177455,44 C19.8322761,40.6646758 29.1927974,29.8413692 29.9513324,16.5047031" id="Fill-1"></path>
                    <path d="M29.3675463,0 C31.9571088,3.70983911 33.8547054,8.02341705 34.7965169,12.8000737 C37.1373518,24.6803573 33.0459212,36.3678844 25,44 L44,44 L44,0 L29.3675463,0" id="Fill-2"></path>
                    <path d="M164.76068,19.9776923 L166.868914,14.4538462 L167.233473,14.7684615 C168.525716,15.8138462 170.279475,16.7030769 171.933174,16.7384615 C173.413902,16.7723077 174.136038,16.3815385 173.939797,15.1392308 C173.794749,14.2115385 172.738305,14.0484615 172.077446,13.92 L170.630847,13.6330769 C167.815215,13.1107692 165.447136,11.3884615 165.447136,8.12384615 C165.447136,3.18769231 169.73574,0.420769231 174.050716,0.420769231 C176.316408,0.420769231 178.396718,0.993076923 180.342064,2.24923077 L178.515394,7.14384615 C177.511695,6.42692308 175.995286,5.41846154 174.073986,5.35 C173.442601,5.32615385 171.995227,5.65538462 172.458294,7.11076923 C172.658413,7.73076923 173.554296,7.99153846 174.105788,8.12384615 L175.740871,8.51538462 C178.789976,9.22 180.99827,10.9430769 180.99827,14.4676923 C180.99827,19.4292308 176.682518,21.8838462 172.397017,21.8838462 C169.894749,21.8838462 166.998449,21.1776923 164.76068,19.9776923" id="Fill-4"></path>
                    <polygon id="Fill-5" points="155.864678 21.5715385 163.209368 21.5715385 163.209368 0.76 155.864678 0.76"></polygon>
                    <polyline id="Fill-6" points="147.58222 0.759230769 155.104535 0.759230769 147.420107 21.5715385 141.316468 21.5715385 133.656862 0.759230769 141.15358 0.759230769 144.369451 13.3184615 147.58222 0.759230769"></polyline>
                    <path d="M126.786098,6.76692308 L126.786098,6.76692308 C126.919511,7.65230769 128.235024,14.0223077 128.235024,14.0223077 L125.347255,14.0223077 L126.786098,6.76692308 Z M115.838484,21.5715385 L123.470167,21.5715385 L124.051134,18.9576923 L129.496241,18.9576923 L130.219153,21.5715385 L137.855489,21.5715385 L130.707816,0.76 L122.702267,0.76 L115.838484,21.5715385 L115.838484,21.5715385 Z" id="Fill-7"></path>
                    <path d="M96.9683174,0.759230769 L104.491408,0.759230769 C111.205489,0.759230769 116.334905,3.81615385 116.334905,11.4661538 C116.334905,17.6292308 112.155668,21.5715385 106.28395,21.5715385 L96.9683174,21.56 L96.9683174,0.759230769 Z M104.362649,15.5961538 L104.855191,15.5961538 C107.276014,15.5961538 109.072434,14.1553846 109.072434,11.4392308 C109.072434,8.51538462 107.481563,6.88461538 104.821838,6.88461538 L104.362649,6.88461538 L104.362649,15.5961538 L104.362649,15.5961538 Z" id="Fill-8"></path>
                    <path d="M92.5757757,1.41230769 L92.9682578,4.82846154 C93.0597852,5.63846154 93.527506,7.58307692 92.9488663,7.32230769 C92.5889618,7.16230769 92.2918854,6.28076923 91.997136,5.49769231 C91.8474344,5.1 91.1322792,3.22 90.9453461,3.08153846 C90.0401551,2.41153846 87.7853222,1.65461538 86.2596062,1.64769231 C81.6335919,1.63076923 78.5736277,5.01538462 78.5736277,11.0223077 C78.5736277,15.33 80.6523866,20.4976923 85.9431384,20.4976923 C87.8388425,20.4976923 91.4689141,19.9061538 92.4578759,17.2315385 C92.9046539,16.0207692 93.3126492,14.9446154 93.6081742,15.2723077 C93.8284606,15.51 93.5422434,16.4792308 93.4103819,17.0015385 C92.7867542,19.4807692 92.7526253,20.2323077 92.5563842,20.3284615 C90.1658115,21.52 87.1004177,21.9115385 84.4181981,21.9115385 C75.8859785,21.9115385 72.9408115,16.9753846 72.9408115,12.0407692 C72.9408115,3.47692308 78.2455251,-0.13 86.4667064,0.239230769 C88.5470167,0.316153846 90.6281026,0.683076923 92.5757757,1.41230769" id="Fill-10"></path>
                    <path d="M67.3871122,1.79230769 L66.0204057,1.31923077 C65.5635442,0.91 66.1220167,0.795384615 66.1220167,0.795384615 C66.1220167,0.795384615 68.0960621,1.15923077 73.0144988,0.744615385 C73.0144988,0.744615385 73.4411098,0.83 73.147136,1.17307692 L71.5322196,1.85846154 C70.4812053,2.31384615 70.4812053,2.05307692 70.4812053,3.19538462 L70.4718974,13.8015385 C70.4718974,22.0969231 61.9652745,21.9115385 60.3076969,21.9115385 C59.5173031,21.9115385 51.7142005,21.9115385 51.7142005,15.2523077 L51.7142005,4.02384615 C51.7142005,2.06692308 51.9259547,2.11769231 51.2697494,1.88923077 L49.2964797,1.15461538 C49.2964797,1.15461538 48.9606205,0.684615385 49.5571002,0.714615385 C51.1704654,0.795384615 53.5051909,1.13769231 58.9976134,0.744615385 C58.9976134,0.744615385 59.4761933,0.860769231 59.1612768,1.20307692 L57.5192124,1.66230769 C56.2696301,2.21769231 56.4348449,1.79230769 56.4014916,3.06538462 L56.4410501,14.1353846 C56.4410501,16.85 57.849642,20.2115385 62.2794153,20.2115385 C68.3093675,20.2115385 68.3667661,15.0384615 68.3667661,13.8876923 L68.3768496,2.92153846 C68.4412291,1.88923077 68.3093675,2.18307692 67.3871122,1.79230769" id="Fill-12"></path>
                    <polygon id="line" points="51.7157518 27.0515385 309.786695 27.0515385 309.786695 26.1823077 51.7157518 26.1823077"></polygon>
                    <g id="college" transform="translate(50.760143, 31.908462)">
                        <path d="M8.47094272,3.85307692 C8.32977327,3.66307692 8.16921241,3.49692308 7.9900358,3.35538462 C7.81008353,3.21230769 7.61694511,3.09384615 7.40829356,2.99615385 C7.20196897,2.89923077 6.98556086,2.82615385 6.7575179,2.77615385 C6.5302506,2.72692308 6.29988067,2.70153846 6.06795943,2.70153846 C5.64910501,2.70153846 5.26670644,2.77615385 4.91998807,2.92538462 C4.574821,3.07307692 4.27852029,3.28 4.03341289,3.54153846 C3.78752983,3.80307692 3.59594272,4.11 3.45942721,4.46230769 C3.32368735,4.81384615 3.25542959,5.19384615 3.25542959,5.6 C3.25542959,6.01538462 3.32368735,6.39615385 3.45942721,6.74384615 C3.59594272,7.09153846 3.78908115,7.39076923 4.03961814,7.64076923 C4.29015513,7.89153846 4.59110979,8.08846154 4.94093079,8.23 C5.29152745,8.37153846 5.68013126,8.44230769 6.10906921,8.44230769 C6.33168258,8.44230769 6.55274463,8.41769231 6.77380668,8.36538462 C6.99486874,8.31307692 7.20662291,8.23923077 7.40829356,8.14230769 C7.61151551,8.04461538 7.80310263,7.92846154 7.98227924,7.79307692 C8.1622315,7.65769231 8.32589499,7.50461538 8.47094272,7.33307692 L8.47094272,10.5892308 C8.24289976,10.6569231 8.02959427,10.7215385 7.82869928,10.7830769 C7.62935561,10.8430769 7.43311456,10.8953846 7.24152745,10.9384615 C7.05071599,10.9815385 6.85912888,11.0153846 6.66443914,11.04 C6.47130072,11.0653846 6.2673031,11.0776923 6.05399761,11.0776923 C5.31634845,11.0776923 4.60972554,10.9438462 3.93412888,10.6776923 C3.25775656,10.4115385 2.64498807,10.0323077 2.09349642,9.54 C1.51175418,9.01692308 1.08359189,8.42153846 0.810560859,7.75615385 C0.537529833,7.09076923 0.40101432,6.36692308 0.40101432,5.58692308 C0.40101432,4.86846154 0.533651551,4.18 0.797374702,3.52153846 C1.06109785,2.86230769 1.44815036,2.27538462 1.95775656,1.76076923 C2.21760143,1.49923077 2.50149165,1.26307692 2.81097852,1.05307692 C3.12046539,0.843846154 3.44779236,0.664615385 3.79140811,0.517692308 C4.13347255,0.371538462 4.49027446,0.259230769 4.85948687,0.183076923 C5.22792363,0.106153846 5.59636038,0.0676923077 5.96479714,0.0676923077 C6.40692124,0.0676923077 6.83275656,0.114615385 7.24152745,0.206923077 C7.65184964,0.3 8.06139618,0.428461538 8.47094272,0.596923077 L8.47094272,3.85307692" id="Fill-14"></path>
                        <path d="M16.3710024,2.63384615 C15.9614558,2.63384615 15.5759547,2.70923077 15.2168258,2.86076923 C14.8576969,3.01230769 14.5420048,3.21538462 14.2713007,3.47076923 C14.0013723,3.72538462 13.7865155,4.01923077 13.6298329,4.35 C13.4731504,4.68230769 13.3940334,5.02846154 13.3940334,5.39 C13.3940334,5.84153846 13.4731504,6.25769231 13.6298329,6.63923077 C13.7865155,7.02 14.0013723,7.34923077 14.2713007,7.62692308 C14.5420048,7.90461538 14.8576969,8.12076923 15.2168258,8.27692308 C15.5759547,8.43307692 15.9614558,8.51153846 16.3710024,8.51153846 C16.7797733,8.51153846 17.1660501,8.43307692 17.527506,8.27692308 C17.8897375,8.12076923 18.2046539,7.90461538 18.473031,7.62692308 C18.7414081,7.34923077 18.9547136,7.02 19.1106205,6.63923077 C19.2688544,6.25769231 19.3479714,5.84153846 19.3479714,5.39 C19.3479714,5.02846154 19.2688544,4.68230769 19.1106205,4.35 C18.9547136,4.01923077 18.7414081,3.72538462 18.473031,3.47076923 C18.2046539,3.21538462 17.8897375,3.01230769 17.527506,2.86076923 C17.1660501,2.70923077 16.7797733,2.63384615 16.3710024,2.63384615 M16.3710024,3.10862447e-14 C16.8759547,3.10862447e-14 17.3708234,0.06 17.8556086,0.18 C18.3403938,0.3 18.7988067,0.469230769 19.2308473,0.690769231 C19.6636635,0.911538462 20.0623508,1.18153846 20.4261337,1.5 C20.7899165,1.81846154 21.1032816,2.17692308 21.3646778,2.57692308 C21.6268496,2.97615385 21.8316229,3.41 21.9797733,3.88 C22.127148,4.34923077 22.201611,4.84846154 22.201611,5.37615385 C22.201611,6.22461538 22.0573389,7.00230769 21.7680191,7.70846154 C21.4786993,8.41538462 21.0745823,9.02230769 20.5556683,9.53 C20.0367542,10.0384615 19.4216587,10.4338462 18.7088305,10.7176923 C17.996778,11.0023077 17.2172434,11.1446154 16.3710024,11.1446154 C15.8055489,11.1446154 15.2703461,11.0807692 14.7630668,10.9523077 C14.2557876,10.8238462 13.7865155,10.6392308 13.3560263,10.4 C12.9263126,10.1615385 12.5377088,9.87 12.1894391,9.53 C11.8403938,9.18923077 11.5448687,8.80461538 11.3013126,8.37615385 C11.0585322,7.94692308 10.8700477,7.48 10.7389618,6.97769231 C10.6071002,6.47384615 10.5403938,5.94076923 10.5403938,5.37615385 C10.5403938,4.84846154 10.6148568,4.34923077 10.7622315,3.88 C10.9103819,3.41 11.1159308,2.97615385 11.3804296,2.57692308 C11.6441527,2.17692308 11.9567422,1.81846154 12.3189737,1.5 C12.6804296,1.18153846 13.0783413,0.911538462 13.5103819,0.690769231 C13.9424224,0.469230769 14.4008353,0.3 14.8856205,0.18 C15.3711814,0.06 15.8652745,3.10862447e-14 16.3710024,3.10862447e-14" id="Fill-15"></path>
                        <polyline id="Fill-16" points="27.2922434 8.49769231 30.5825776 8.49769231 30.5825776 10.8 24.5541766 10.8 24.5541766 0.345384615 27.2922434 0.345384615 27.2922434 8.49769231"></polyline>
                        <polyline id="Fill-17" points="35.7810263 8.49769231 39.072136 8.49769231 39.072136 10.8 33.0429594 10.8 33.0429594 0.345384615 35.7810263 0.345384615 35.7810263 8.49769231"></polyline>
                        <polyline id="Fill-18" points="44.2698091 2.64769231 44.2698091 4.39384615 47.3615752 4.39384615 47.3615752 6.69692308 44.2698091 6.69692308 44.2698091 8.49769231 47.5329952 8.49769231 47.5329952 10.7984615 41.5317422 10.7984615 41.5317422 0.345384615 47.5329952 0.345384615 47.5329952 2.64769231 44.2698091 2.64769231"></polyline>
                        <path d="M61.0332936,4.96307692 C61.025537,5.34230769 61.0084726,5.71 60.9859785,6.06692308 C60.9627088,6.42307692 60.9138425,6.77230769 60.8386038,7.11307692 C60.7649165,7.45307692 60.6571002,7.78846154 60.5182578,8.11461538 C60.3794153,8.44230769 60.1909308,8.76846154 59.9551313,9.09384615 C59.6952864,9.45 59.4059666,9.75769231 59.0879475,10.0169231 C58.7691527,10.2769231 58.425537,10.4907692 58.0563246,10.6576923 C57.6886635,10.8238462 57.299284,10.9476923 56.8905131,11.0261538 C56.4794153,11.1053846 56.05358,11.1446154 55.6130072,11.1446154 C54.7846062,11.1446154 54.0252387,11.0115385 53.3356802,10.7461538 C52.6468974,10.4792308 52.0535203,10.1038462 51.5578759,9.61846154 C51.0614558,9.13230769 50.6759547,8.55230769 50.399821,7.87461538 C50.124463,7.19769231 49.9871718,6.44846154 49.9871718,5.62615385 C49.9871718,4.77769231 50.1260143,4.00692308 50.4036993,3.31461538 C50.6813842,2.62230769 51.072315,2.03076923 51.5741647,1.54076923 C52.07679,1.05153846 52.6794749,0.672307692 53.3806683,0.403076923 C54.0810859,0.134615385 54.8567422,3.10862447e-14 55.7084129,3.10862447e-14 C56.7920048,3.10862447e-14 57.7406325,0.243076923 58.5550716,0.728461538 C59.3702864,1.21384615 60.0047733,1.94615385 60.4600835,2.92538462 L57.8600835,4.00230769 C57.7631265,3.75384615 57.6428998,3.52846154 57.497852,3.32538462 C57.3504773,3.12076923 57.1829356,2.94615385 56.9921241,2.8 C56.800537,2.65307692 56.5872315,2.54076923 56.3498807,2.46153846 C56.1133055,2.38307692 55.8565632,2.34384615 55.5796539,2.34384615 C55.1289976,2.34384615 54.7310859,2.44 54.3905728,2.63461538 C54.049284,2.82846154 53.7638425,3.08230769 53.5334726,3.39538462 C53.3038783,3.71 53.1309069,4.06307692 53.0153341,4.45538462 C52.8989857,4.84846154 52.8408115,5.24307692 52.8408115,5.64076923 C52.8408115,6.04692308 52.9013126,6.44461538 53.0215394,6.83615385 C53.1425418,7.22538462 53.3201671,7.57538462 53.5544153,7.88461538 C53.7886635,8.19384615 54.0795346,8.44230769 54.42858,8.63 C54.776074,8.81769231 55.1763126,8.91076923 55.626969,8.91076923 C55.9217184,8.91076923 56.1986277,8.87307692 56.4561456,8.79538462 C56.7128878,8.71846154 56.9378282,8.60384615 57.1317422,8.45384615 C57.3248807,8.30230769 57.4831146,8.11384615 57.6056683,7.88769231 C57.7289976,7.66230769 57.8042363,7.39846154 57.8313842,7.09615385 L55.5928401,7.09615385 L55.5928401,4.96307692 L61.0332936,4.96307692" id="Fill-19"></path>
                        <polyline id="Fill-20" points="66.0905728 2.64769231 66.0905728 4.39384615 69.1831146 4.39384615 69.1831146 6.69692308 66.0905728 6.69692308 66.0905728 8.49769231 69.3537589 8.49769231 69.3537589 10.7984615 63.352506 10.7984615 63.352506 0.345384615 69.3537589 0.345384615 69.3537589 2.64769231 66.0905728 2.64769231"></polyline>
                        <path d="M80.8536396,4.96923077 C80.5612172,4.96923077 80.2866348,5.02307692 80.0298926,5.13076923 C79.7723747,5.24 79.5466587,5.38384615 79.3550716,5.56692308 C79.1611575,5.74846154 79.0083532,5.95769231 78.8966587,6.19461538 C78.7841885,6.43153846 78.7291169,6.68 78.7291169,6.93615385 C78.7291169,7.26 78.7841885,7.55615385 78.8966587,7.82923077 C79.0083532,8.10153846 79.1611575,8.33615385 79.3550716,8.53538462 C79.5466587,8.73230769 79.7723747,8.88769231 80.0298926,8.99923077 C80.2866348,9.11 80.5612172,9.16615385 80.8536396,9.16615385 C81.1460621,9.16615385 81.4206444,9.11 81.6789379,8.99923077 C81.9387828,8.88769231 82.1637232,8.73230769 82.3553103,8.53538462 C82.5468974,8.33615385 82.6981504,8.10153846 82.8106205,7.82923077 C82.922315,7.55615385 82.9789379,7.26 82.9789379,6.93615385 C82.9789379,6.68 82.922315,6.43153846 82.8106205,6.19461538 C82.6981504,5.95769231 82.5468974,5.74846154 82.3553103,5.56692308 C82.1637232,5.38384615 81.9387828,5.24 81.6789379,5.13076923 C81.4206444,5.02307692 81.1460621,4.96923077 80.8536396,4.96923077 M80.8536396,3.08846154 C81.2143198,3.08846154 81.5672434,3.13153846 81.9131862,3.21692308 C82.2599045,3.30307692 82.5864558,3.42384615 82.8959427,3.58230769 C83.2038783,3.73923077 83.4893198,3.93153846 83.7491647,4.16 C84.0082339,4.38692308 84.2323986,4.64230769 84.4193317,4.92846154 C84.6054893,5.21384615 84.7513126,5.52384615 84.8583532,5.85923077 C84.9630668,6.19384615 85.0158115,6.55 85.0158115,6.92692308 C85.0158115,7.53307692 84.9126492,8.08846154 84.7063246,8.59230769 C84.5,9.09615385 84.2130072,9.53076923 83.8414678,9.89384615 C83.4714797,10.2553846 83.0324582,10.5392308 82.522852,10.7423077 C82.0140215,10.9446154 81.4586516,11.0461538 80.8536396,11.0461538 C80.4502983,11.0461538 80.0678998,11.0015385 79.7056683,10.9084615 C79.3426611,10.8161538 79.0083532,10.6853846 78.7011933,10.5130769 C78.3940334,10.3438462 78.1163484,10.1369231 77.8673628,9.89384615 C77.6191527,9.64923077 77.4081742,9.37461538 77.2336516,9.06846154 C77.0606802,8.76307692 76.9264916,8.42923077 76.8326372,8.07153846 C76.7372315,7.71076923 76.6906921,7.33 76.6906921,6.92692308 C76.6906921,6.55 76.7434368,6.19384615 76.8504773,5.85923077 C76.9551909,5.52384615 77.10179,5.21384615 77.2902745,4.92846154 C77.4779833,4.64230769 77.7029236,4.38692308 77.9604415,4.16 C78.2187351,3.93153846 78.5026253,3.73923077 78.8113365,3.58230769 C79.1200477,3.42384615 79.4473747,3.30307692 79.7933174,3.21692308 C80.1400358,3.13153846 80.4921838,3.08846154 80.8536396,3.08846154" id="Fill-21"></path>
                        <polyline id="Fill-22" points="88.2696897 4.97923077 88.2696897 6.22615385 90.4198091 6.22615385 90.4198091 7.87 88.2696897 7.87 88.2696897 10.8 86.3150358 10.8 86.3150358 3.33615385 90.6385442 3.33615385 90.6385442 4.97923077 88.2696897 4.97923077"></polyline>
                        <path d="M102.156265,3.57538462 L102.129893,3.57538462 L100.995883,6.90615385 L103.275537,6.90615385 L102.156265,3.57538462 Z M100.238067,8.98461538 L99.5143795,10.7984615 L96.6064439,10.7984615 L100.661575,0.345384615 L103.65173,0.345384615 L107.625418,10.7984615 L104.70352,10.7984615 L104.013962,8.98461538 L100.238067,8.98461538 L100.238067,8.98461538 Z" id="Fill-23"></path>
                        <path d="M120.201909,4.96307692 C120.192601,5.34230769 120.176313,5.71 120.154594,6.06692308 C120.131325,6.42307692 120.082458,6.77230769 120.00722,7.11307692 C119.932757,7.45307692 119.82494,7.78846154 119.686098,8.11461538 C119.547255,8.44230769 119.359547,8.76846154 119.122971,9.09384615 C118.863902,9.45 118.574582,9.75769231 118.256563,10.0169231 C117.937768,10.2769231 117.594153,10.4907692 117.22494,10.6576923 C116.857279,10.8238462 116.4679,10.9476923 116.058353,11.0261538 C115.647255,11.1053846 115.222196,11.1446154 114.781623,11.1446154 C113.952446,11.1446154 113.193079,11.0115385 112.504296,10.7461538 C111.813962,10.4792308 111.22136,10.1038462 110.725716,9.61846154 C110.230072,9.13230769 109.84457,8.55230769 109.569212,7.87461538 C109.292303,7.19769231 109.155788,6.44846154 109.155788,5.62615385 C109.155788,4.77769231 109.29463,4.00692308 109.571539,3.31461538 C109.85,2.62230769 110.240155,2.03076923 110.74278,1.54076923 C111.246181,1.05153846 111.848091,0.672307692 112.548508,0.403076923 C113.250477,0.134615385 114.026134,3.10862447e-14 114.877029,3.10862447e-14 C115.960621,3.10862447e-14 116.908473,0.243076923 117.722912,0.728461538 C118.538126,1.21384615 119.172613,1.94615385 119.628699,2.92538462 L117.027924,4.00230769 C116.931742,3.75384615 116.81074,3.52846154 116.665692,3.32538462 C116.519093,3.12076923 116.352327,2.94615385 116.159964,2.8 C115.969153,2.65307692 115.755847,2.54076923 115.517721,2.46153846 C115.281146,2.38307692 115.025179,2.34384615 114.746718,2.34384615 C114.296062,2.34384615 113.901253,2.44 113.558413,2.63461538 C113.2179,2.82846154 112.931683,3.08230769 112.702864,3.39538462 C112.472494,3.71 112.299523,4.06307692 112.18395,4.45538462 C112.067601,4.84846154 112.009427,5.24307692 112.009427,5.64076923 C112.009427,6.04692308 112.069153,6.44461538 112.189379,6.83615385 C112.311158,7.22538462 112.488007,7.57538462 112.723031,7.88461538 C112.957279,8.19384615 113.248926,8.44230769 113.59642,8.63 C113.94469,8.81769231 114.344153,8.91076923 114.794809,8.91076923 C115.090334,8.91076923 115.366468,8.87307692 115.623986,8.79538462 C115.880728,8.71846154 116.106444,8.60384615 116.300358,8.45384615 C116.493496,8.30230769 116.65173,8.11384615 116.774284,7.88769231 C116.897613,7.66230769 116.972852,7.39846154 117,7.09615385 L114.761456,7.09615385 L114.761456,4.96307692 L120.201909,4.96307692" id="Fill-24"></path>
                        <path d="M125.818437,5.03153846 L126.083711,5.03153846 C126.3071,5.03153846 126.532816,5.01615385 126.760084,4.98692308 C126.988126,4.95769231 127.192124,4.89692308 127.375179,4.80384615 C127.556683,4.71076923 127.704057,4.58076923 127.818079,4.41153846 C127.931325,4.24230769 127.988723,4.01615385 127.988723,3.73076923 C127.988723,3.44692308 127.931325,3.21846154 127.818079,3.04692308 C127.704057,2.87538462 127.556683,2.74307692 127.375179,2.65076923 C127.192124,2.55846154 126.988126,2.49769231 126.760084,2.46769231 C126.532816,2.43846154 126.3071,2.42461538 126.083711,2.42461538 L125.818437,2.42461538 L125.818437,5.03153846 Z M131.846062,10.8 L128.432399,10.8 L125.852566,6.77846154 L125.818437,6.77846154 L125.818437,10.8 L123.079594,10.8 L123.079594,0.345384615 L127.176611,0.345384615 C127.695525,0.345384615 128.178759,0.408461538 128.627088,0.535384615 C129.075418,0.662307692 129.464021,0.855384615 129.791348,1.11769231 C130.119451,1.37923077 130.376193,1.71230769 130.562351,2.11538462 C130.749284,2.52 130.842363,3.00153846 130.842363,3.56076923 C130.842363,3.92307692 130.792721,4.26615385 130.692661,4.59461538 C130.591826,4.92230769 130.443675,5.21615385 130.24821,5.47692308 C130.052745,5.74 129.811516,5.96076923 129.524523,6.14153846 C129.238305,6.32230769 128.907876,6.44615385 128.535561,6.51384615 L131.846062,10.8 L131.846062,10.8 Z" id="Fill-25"></path>
                        <polygon id="Fill-26" points="134.225776 10.7984615 136.963842 10.7984615 136.963842 0.345384615 134.225776 0.345384615"></polygon>
                        <path d="M147.653162,3.85307692 C147.511993,3.66307692 147.351432,3.49692308 147.17148,3.35538462 C146.992303,3.21230769 146.798389,3.09384615 146.590513,2.99615385 C146.384189,2.89923077 146.167005,2.82615385 145.938962,2.77615385 C145.711695,2.72692308 145.4821,2.70153846 145.250179,2.70153846 C144.831325,2.70153846 144.44815,2.77615385 144.102208,2.92538462 C143.756265,3.07307692 143.459964,3.28 143.214857,3.54153846 C142.968974,3.80307692 142.778162,4.11 142.641647,4.46230769 C142.505131,4.81384615 142.437649,5.19384615 142.437649,5.6 C142.437649,6.01538462 142.505131,6.39615385 142.641647,6.74384615 C142.778162,7.09153846 142.971301,7.39076923 143.221062,7.64076923 C143.472375,7.89153846 143.772554,8.08846154 144.122375,8.23 C144.474523,8.37153846 144.862351,8.44230769 145.290513,8.44230769 C145.513126,8.44230769 145.73574,8.41769231 145.956026,8.36538462 C146.177088,8.31307692 146.388067,8.23923077 146.590513,8.14230769 C146.793735,8.04461538 146.985322,7.92846154 147.164499,7.79307692 C147.343675,7.65769231 147.507339,7.50461538 147.653162,7.33307692 L147.653162,10.5892308 C147.425119,10.6569231 147.211814,10.7215385 147.010919,10.7830769 C146.8108,10.8430769 146.614558,10.8953846 146.423747,10.9384615 C146.23216,10.9815385 146.040573,11.0153846 145.846659,11.04 C145.65352,11.0653846 145.449523,11.0776923 145.236217,11.0776923 C144.499344,11.0776923 143.791945,10.9438462 143.116348,10.6776923 C142.439976,10.4115385 141.826432,10.0323077 141.276492,9.54 C140.693974,9.01692308 140.265811,8.42153846 139.99278,7.75615385 C139.719749,7.09076923 139.583234,6.36692308 139.583234,5.58692308 C139.583234,4.86846154 139.715095,4.18 139.979594,3.52153846 C140.242542,2.86230769 140.629594,2.27538462 141.139976,1.76076923 C141.399045,1.49923077 141.683711,1.26307692 141.992422,1.05307692 C142.302685,0.843846154 142.629236,0.664615385 142.972852,0.517692308 C143.317243,0.371538462 143.671718,0.259230769 144.040931,0.183076923 C144.410143,0.106153846 144.777804,0.0676923077 145.147792,0.0676923077 C145.589141,0.0676923077 146.0142,0.114615385 146.423747,0.206923077 C146.833294,0.3 147.243616,0.428461538 147.653162,0.596923077 L147.653162,3.85307692" id="Fill-27"></path>
                        <path d="M160.067542,0.345384615 L160.067542,6.22230769 C160.067542,6.56076923 160.059785,6.89538462 160.043496,7.22384615 C160.027983,7.55461538 159.983771,7.87538462 159.910859,8.19 C159.837947,8.50307692 159.727804,8.80615385 159.578878,9.09769231 C159.431504,9.38769231 159.228282,9.66 158.968437,9.91230769 C158.749702,10.1292308 158.501492,10.3107692 158.224582,10.4576923 C157.946897,10.6046154 157.655251,10.7238462 157.350418,10.8161538 C157.044809,10.9092308 156.73222,10.9753846 156.410322,11.0169231 C156.090752,11.0561538 155.777387,11.0769231 155.472554,11.0769231 C155.163067,11.0769231 154.84815,11.0561538 154.526253,11.0169231 C154.205907,10.9753846 153.894869,10.9092308 153.590811,10.8161538 C153.289081,10.7238462 152.998986,10.6046154 152.721301,10.4576923 C152.444391,10.3107692 152.195406,10.1292308 151.976671,9.91230769 C151.713723,9.66 151.507399,9.38769231 151.359248,9.09769231 C151.211098,8.80615385 151.100955,8.50307692 151.028819,8.19 C150.955907,7.87538462 150.910143,7.55461538 150.896181,7.22384615 C150.879117,6.89538462 150.87136,6.56076923 150.87136,6.22230769 L150.87136,0.345384615 L153.609427,0.345384615 L153.609427,5.85 C153.609427,6.07538462 153.614857,6.30461538 153.626492,6.53384615 C153.636575,6.76461538 153.662172,6.98384615 153.700955,7.19461538 C153.739737,7.40307692 153.798687,7.60076923 153.87858,7.78307692 C153.958473,7.96615385 154.067064,8.12461538 154.205907,8.26 C154.345525,8.39538462 154.516945,8.50230769 154.720943,8.57923077 C154.926492,8.65538462 155.176253,8.69384615 155.472554,8.69384615 C155.7642,8.69384615 156.013186,8.65538462 156.220286,8.57923077 C156.427387,8.50230769 156.599582,8.39538462 156.736098,8.26 C156.872613,8.12461538 156.98043,7.96615385 157.059547,7.78307692 C157.140215,7.60076923 157.200716,7.40307692 157.24105,7.19461538 C157.281384,6.98384615 157.306205,6.76461538 157.315513,6.53384615 C157.324821,6.30461538 157.330251,6.07538462 157.330251,5.85 L157.330251,0.345384615 L160.067542,0.345384615" id="Fill-28"></path>
                        <polyline id="Fill-29" points="166.189797 8.49769231 169.480131 8.49769231 169.480131 10.8 163.450955 10.8 163.450955 0.345384615 166.189797 0.345384615 166.189797 8.49769231"></polyline>
                        <polyline id="Fill-30" points="175.390632 10.8 172.653341 10.8 172.653341 2.64846154 170.386874 2.64846154 170.386874 0.345384615 177.658652 0.345384615 177.658652 2.64846154 175.390632 2.64846154 175.390632 10.8"></polyline>
                        <path d="M189.319869,0.345384615 L189.319869,6.22230769 C189.319869,6.56076923 189.312112,6.89538462 189.295823,7.22384615 C189.28031,7.55461538 189.236098,7.87538462 189.163962,8.19 C189.090274,8.50307692 188.980131,8.80615385 188.831981,9.09769231 C188.683831,9.38769231 188.481384,9.66 188.222315,9.91230769 C188.002804,10.1292308 187.753819,10.3107692 187.477685,10.4576923 C187.199224,10.6046154 186.907578,10.7238462 186.602745,10.8161538 C186.297136,10.9092308 185.985322,10.9753846 185.663425,11.0169231 C185.343854,11.0561538 185.029714,11.0769231 184.725656,11.0769231 C184.416945,11.0769231 184.100477,11.0561538 183.779356,11.0169231 C183.458234,10.9753846 183.147196,10.9092308 182.84469,10.8161538 C182.542184,10.7238462 182.252088,10.6046154 181.974403,10.4576923 C181.696718,10.3107692 181.448508,10.1292308 181.230549,9.91230769 C180.96605,9.66 180.759726,9.38769231 180.612351,9.09769231 C180.4642,8.80615385 180.353282,8.50307692 180.281146,8.19 C180.208234,7.87538462 180.163246,7.55461538 180.148508,7.22384615 C180.131444,6.89538462 180.123687,6.56076923 180.123687,6.22230769 L180.123687,0.345384615 L182.861754,0.345384615 L182.861754,5.85 C182.861754,6.07538462 182.867184,6.30461538 182.878819,6.53384615 C182.889678,6.76461538 182.915274,6.98384615 182.954057,7.19461538 C182.99284,7.40307692 183.051014,7.60076923 183.131683,7.78307692 C183.211575,7.96615385 183.320167,8.12461538 183.458234,8.26 C183.597852,8.39538462 183.770048,8.50230769 183.974045,8.57923077 C184.178819,8.65538462 184.429356,8.69384615 184.725656,8.69384615 C185.016527,8.69384615 185.266289,8.65538462 185.473389,8.57923077 C185.680489,8.50230769 185.851909,8.39538462 185.9892,8.26 C186.125716,8.12461538 186.231981,7.96615385 186.313425,7.78307692 C186.392542,7.60076923 186.453043,7.40307692 186.492601,7.19461538 C186.534487,6.98384615 186.559308,6.76461538 186.568616,6.53384615 C186.577924,6.30461538 186.582578,6.07538462 186.582578,5.85 L186.582578,0.345384615 L189.319869,0.345384615" id="Fill-31"></path>
                        <path d="M195.442124,5.03153846 L195.707399,5.03153846 C195.930788,5.03153846 196.156504,5.01615385 196.382995,4.98692308 C196.611038,4.95769231 196.816587,4.89692308 196.998866,4.80384615 C197.181146,4.71076923 197.32852,4.58076923 197.443317,4.41153846 C197.556563,4.24230769 197.612411,4.01615385 197.612411,3.73076923 C197.612411,3.44692308 197.556563,3.21846154 197.443317,3.04692308 C197.32852,2.87538462 197.181146,2.74307692 196.998866,2.65076923 C196.816587,2.55846154 196.611038,2.49769231 196.382995,2.46769231 C196.156504,2.43846154 195.930788,2.42461538 195.707399,2.42461538 L195.442124,2.42461538 L195.442124,5.03153846 Z M201.470525,10.8 L198.056086,10.8 L195.476253,6.77846154 L195.442124,6.77846154 L195.442124,10.8 L192.704057,10.8 L192.704057,0.345384615 L196.799523,0.345384615 C197.318437,0.345384615 197.802446,0.408461538 198.251551,0.535384615 C198.699881,0.662307692 199.088484,0.855384615 199.415811,1.11769231 C199.742363,1.37923077 199.999881,1.71230769 200.186814,2.11538462 C200.372971,2.52 200.46605,3.00153846 200.46605,3.56076923 C200.46605,3.92307692 200.416408,4.26615385 200.316348,4.59461538 C200.216289,4.92230769 200.068138,5.21615385 199.872673,5.47692308 C199.676432,5.74 199.435979,5.96076923 199.148986,6.14153846 C198.862768,6.32230769 198.532339,6.44615385 198.159248,6.51384615 L201.470525,10.8 L201.470525,10.8 Z" id="Fill-32"></path>
                        <path d="M208.926134,3.57538462 L208.900537,3.57538462 L207.765752,6.90615385 L210.046181,6.90615385 L208.926134,3.57538462 Z M207.008711,8.98461538 L206.2858,10.7984615 L203.376313,10.7984615 L207.43222,0.345384615 L210.422375,0.345384615 L214.395286,10.7984615 L211.473389,10.7984615 L210.784606,8.98461538 L207.008711,8.98461538 L207.008711,8.98461538 Z" id="Fill-33"></path>
                        <polyline id="Fill-34" points="219.560382 8.49769231 222.850716 8.49769231 222.850716 10.8 216.822315 10.8 216.822315 0.345384615 219.560382 0.345384615 219.560382 8.49769231"></polyline>
                        <path d="M3.96360382,21.8192308 L3.94343675,21.8192308 L3.13442721,24.1969231 L4.76330549,24.1969231 L3.96360382,21.8192308 Z M2.59301909,25.6815385 L2.07643198,26.9769231 L1.86517468e-14,26.9769231 L2.89630072,19.5130769 L5.03090692,19.5130769 L7.8674821,26.9769231 L5.78096659,26.9769231 L5.28920048,25.6815385 L2.59301909,25.6815385 L2.59301909,25.6815385 Z" id="Fill-35"></path>
                        <polyline id="Fill-36" points="8.824642 19.5130769 10.7792959 19.5130769 14.3667064 24.0761538 14.3876492 24.0761538 14.3876492 19.5130769 16.3407518 19.5130769 16.3407518 26.9769231 14.3876492 26.9769231 10.8041169 22.4030769 10.7792959 22.4030769 10.7792959 26.9769231 8.824642 26.9769231 8.824642 19.5130769"></polyline>
                        <path d="M19.9770286,25.3338462 L20.4214797,25.3338462 C20.7131265,25.3338462 20.9908115,25.2930769 21.2522076,25.2130769 C21.5136038,25.1323077 21.7431981,25.0053846 21.9394391,24.8353846 C22.1364558,24.6653846 22.2931384,24.4476923 22.4094869,24.1853846 C22.526611,23.9223077 22.5847852,23.6092308 22.5847852,23.2446154 C22.5847852,22.91 22.5320406,22.6115385 22.4265513,22.3523077 C22.3210621,22.0938462 22.1736874,21.8753846 21.9836516,21.6984615 C21.7928401,21.5207692 21.5671241,21.3861538 21.3057279,21.2946154 C21.0443317,21.2023077 20.7557876,21.1553846 20.4400955,21.1553846 L19.9770286,21.1553846 L19.9770286,25.3338462 Z M18.0231504,19.5130769 L20.7968974,19.5130769 C21.1443914,19.5130769 21.4810263,19.5561538 21.8060263,19.6430769 C22.1310263,19.73 22.4350835,19.8538462 22.7197494,20.0130769 C23.0044153,20.1723077 23.2627088,20.3653846 23.496957,20.5907692 C23.7312053,20.8169231 23.9305489,21.0684615 24.097315,21.3446154 C24.2617542,21.6230769 24.3912888,21.9207692 24.4843675,22.2423077 C24.5774463,22.5615385 24.6224344,22.8961538 24.6224344,23.2446154 C24.6224344,23.5930769 24.5774463,23.9276923 24.4843675,24.2484615 C24.3912888,24.5684615 24.2609785,24.8676923 24.0942124,25.1446154 C23.9266706,25.4215385 23.7257757,25.6730769 23.4915274,25.8984615 C23.2580549,26.1238462 22.9997613,26.3161538 22.7174224,26.4761538 C22.4343079,26.6353846 22.1310263,26.7584615 21.8060263,26.8461538 C21.4810263,26.9330769 21.1443914,26.9769231 20.7968974,26.9769231 L18.0231504,26.9769231 L18.0231504,19.5130769 L18.0231504,19.5130769 Z" id="Fill-37"></path>
                        <polyline id="Fill-38" points="34.0963007 18.8253846 34.0963007 20.5723077 37.1888425 20.5723077 37.1888425 22.8746154 34.0963007 22.8746154 34.0963007 24.6753846 37.3594869 24.6753846 37.3594869 26.9761538 31.3582339 26.9761538 31.3582339 16.5223077 37.3594869 16.5223077 37.3594869 18.8253846 34.0963007 18.8253846"></polyline>
                        <polyline id="Fill-39" points="40.4365155 16.5230769 43.1738067 16.5230769 48.1977327 22.9146154 48.2256563 22.9146154 48.2256563 16.5230769 50.9637232 16.5230769 50.9637232 26.9769231 48.2256563 26.9769231 43.2079356 20.5723077 43.1738067 20.5723077 43.1738067 26.9769231 40.4365155 26.9769231 40.4365155 16.5230769"></polyline>
                        <polyline id="Fill-40" points="58.5085322 22.8746154 61.0681981 16.5223077 64.0451671 16.5223077 59.5463604 26.9776923 57.4156325 26.9776923 52.9843079 16.5223077 55.9690334 16.5223077 58.5085322 22.8746154"></polyline>
                        <polygon id="Fill-41" points="66.074284 26.9753846 68.8123508 26.9753846 68.8123508 16.5223077 66.074284 16.5223077"></polygon>
                        <path d="M74.7174224,21.2092308 L74.9834726,21.2092308 C75.2068616,21.2092308 75.4318019,21.1938462 75.6590692,21.1646154 C75.8871122,21.1346154 76.0911098,21.0738462 76.2741647,20.9815385 C76.4548926,20.8892308 76.6038186,20.7584615 76.7170644,20.5892308 C76.8310859,20.4184615 76.8884845,20.1923077 76.8884845,19.9076923 C76.8884845,19.6238462 76.8310859,19.3961538 76.7170644,19.2246154 C76.6038186,19.0530769 76.4548926,18.9207692 76.2741647,18.8276923 C76.0911098,18.7353846 75.8871122,18.6746154 75.6590692,18.6461538 C75.4318019,18.6161538 75.2068616,18.6007692 74.9834726,18.6007692 L74.7174224,18.6007692 L74.7174224,21.2092308 Z M80.7450477,26.9769231 L77.3313842,26.9769231 L74.7507757,22.9553846 L74.7174224,22.9553846 L74.7174224,26.9769231 L71.9793556,26.9769231 L71.9793556,16.5230769 L76.0755967,16.5230769 C76.5945107,16.5230769 77.0785203,16.5861538 77.526074,16.7123077 C77.975179,16.8384615 78.3630072,17.0330769 78.6903341,17.2946154 C79.0184368,17.5569231 79.2744033,17.8892308 79.4613365,18.2930769 C79.647494,18.6976923 79.7413484,19.1792308 79.7413484,19.7392308 C79.7413484,20.1 79.6917064,20.4446154 79.5916468,20.7715385 C79.4915871,21.0992308 79.3434368,21.3930769 79.1471957,21.6546154 C78.9517303,21.9169231 78.7105012,22.1384615 78.4235084,22.3192308 C78.1372912,22.4984615 77.8068616,22.6238462 77.4345465,22.6907692 L80.7450477,26.9769231 L80.7450477,26.9769231 Z" id="Fill-42"></path>
                        <path d="M87.8849642,18.8107692 C87.4754177,18.8107692 87.0914678,18.8869231 86.7315632,19.0376923 C86.3716587,19.19 86.0567422,19.3923077 85.7852625,19.6476923 C85.5153341,19.9023077 85.3004773,20.1961538 85.1445704,20.5276923 C84.9871122,20.86 84.9087709,21.2061538 84.9087709,21.5676923 C84.9087709,22.0176923 84.9871122,22.4346154 85.1445704,22.8161538 C85.3004773,23.1976923 85.5153341,23.5261538 85.7852625,23.8053846 C86.0567422,24.0830769 86.3716587,24.2976923 86.7315632,24.4538462 C87.0914678,24.6107692 87.4754177,24.6884615 87.8849642,24.6884615 C88.2945107,24.6884615 88.6807876,24.6107692 89.0430191,24.4538462 C89.4036993,24.2976923 89.7193914,24.0830769 89.9877685,23.8053846 C90.2576969,23.5261538 90.4694511,23.1976923 90.6269093,22.8161538 C90.7835919,22.4346154 90.8619332,22.0176923 90.8619332,21.5676923 C90.8619332,21.2061538 90.7835919,20.86 90.6269093,20.5276923 C90.4694511,20.1961538 90.2576969,19.9023077 89.9877685,19.6476923 C89.7193914,19.3923077 89.4036993,19.19 89.0430191,19.0376923 C88.6807876,18.8869231 88.2945107,18.8107692 87.8849642,18.8107692 M87.8849642,16.1769231 C88.3906921,16.1769231 88.8863365,16.2376923 89.3703461,16.3576923 C89.8551313,16.4769231 90.3135442,16.6469231 90.7455847,16.8692308 C91.178401,17.09 91.5763126,17.3592308 91.9400955,17.6776923 C92.3046539,17.9961538 92.6180191,18.3538462 92.8794153,18.7538462 C93.1415871,19.1530769 93.3463604,19.5869231 93.4945107,20.0576923 C93.6418854,20.5269231 93.7163484,21.0246154 93.7163484,21.5530769 C93.7163484,22.4023077 93.5713007,23.1792308 93.2819809,23.8853846 C92.9926611,24.5923077 92.5893198,25.1992308 92.0711814,25.7069231 C91.5514916,26.2161538 90.9356205,26.6107692 90.223568,26.8953846 C89.5107399,27.1792308 88.7319809,27.3223077 87.8849642,27.3223077 C87.3210621,27.3223077 86.7850835,27.2584615 86.2770286,27.1284615 C85.7705251,27.0007692 85.3004773,26.8169231 84.8707637,26.5769231 C84.4410501,26.3384615 84.0516706,26.0484615 83.7041766,25.7069231 C83.3559069,25.3661538 83.0596062,24.9815385 82.8160501,24.5530769 C82.5732697,24.1246154 82.3855609,23.6576923 82.2536993,23.1546154 C82.1210621,22.6523077 82.0551313,22.1176923 82.0551313,21.5530769 C82.0551313,21.0246154 82.1295943,20.5269231 82.2761933,20.0576923 C82.4243437,19.5869231 82.6306683,19.1530769 82.8951671,18.7538462 C83.1588902,18.3538462 83.4714797,17.9961538 83.8329356,17.6776923 C84.1951671,17.3592308 84.5923031,17.09 85.0243437,16.8692308 C85.4571599,16.6469231 85.9155728,16.4769231 86.400358,16.3576923 C86.8851432,16.2376923 87.3800119,16.1769231 87.8849642,16.1769231" id="Fill-44"></path>
                        <polyline id="Fill-46" points="96.6281623 16.5230769 99.3662291 16.5230769 104.390931 22.9146154 104.418079 22.9146154 104.418079 16.5230769 107.15537 16.5230769 107.15537 26.9769231 104.418079 26.9769231 99.400358 20.5723077 99.3662291 20.5723077 99.3662291 26.9769231 96.6281623 26.9769231 96.6281623 16.5230769"></polyline>
                        <polyline id="Fill-47" points="111.452506 16.5230769 114.149463 16.5230769 116.292601 22.1092308 118.552864 16.5230769 121.28395 16.5230769 122.874821 26.9769231 120.13753 26.9769231 119.364976 20.9569231 119.337828 20.9569231 116.80531 26.9769231 115.719391 26.9769231 113.295465 20.9569231 113.269093 20.9569231 112.387947 26.9769231 109.665394 26.9769231 111.452506 16.5230769"></polyline>
                        <polyline id="Fill-48" points="128.157041 18.8253846 128.157041 20.5723077 131.250358 20.5723077 131.250358 22.8746154 128.157041 22.8746154 128.157041 24.6753846 131.419451 24.6753846 131.419451 26.9761538 125.418974 26.9761538 125.418974 16.5223077 131.419451 16.5223077 131.419451 18.8253846 128.157041 18.8253846"></polyline>
                        <polyline id="Fill-49" points="134.49648 16.5230769 137.235322 16.5230769 142.259248 22.9146154 142.285621 22.9146154 142.285621 16.5230769 145.024463 16.5230769 145.024463 26.9769231 142.285621 26.9769231 137.268675 20.5723077 137.235322 20.5723077 137.235322 26.9769231 134.49648 26.9769231 134.49648 16.5230769"></polyline>
                        <polyline id="Fill-50" points="152.238067 26.9769231 149.500776 26.9769231 149.500776 18.8253846 147.233532 18.8253846 147.233532 16.5230769 154.50531 16.5230769 154.50531 18.8253846 152.238067 18.8253846 152.238067 26.9769231"></polyline>
                        <path d="M160.65006,19.7523077 L160.622912,19.7523077 L159.489678,23.0830769 L161.769332,23.0830769 L160.65006,19.7523077 Z M158.731086,25.1615385 L158.008174,26.9769231 L155.099463,26.9769231 L159.15537,16.5230769 L162.145525,16.5230769 L166.119212,26.9769231 L163.196539,26.9769231 L162.507757,25.1615385 L158.731086,25.1615385 L158.731086,25.1615385 Z" id="Fill-51"></path>
                        <polyline id="Fill-52" points="171.282757 24.6753846 174.573866 24.6753846 174.573866 26.9776923 168.54469 26.9776923 168.54469 16.5223077 171.282757 16.5223077 171.282757 24.6753846"></polyline>
                        <path d="M188.846718,19.2107692 C188.590752,19.0030769 188.309189,18.8361538 188.000477,18.71 C187.689439,18.5830769 187.366766,18.52 187.030131,18.52 C186.902148,18.52 186.771062,18.5384615 186.633771,18.5738462 C186.498031,18.6107692 186.370823,18.6653846 186.256026,18.7369231 C186.138902,18.81 186.042721,18.9007692 185.968258,19.0115385 C185.893795,19.1223077 185.855788,19.2492308 185.855788,19.3930769 C185.855788,19.5469231 185.896897,19.6784615 185.979117,19.7861538 C186.060561,19.8946154 186.163723,19.9869231 186.286277,20.0638462 C186.408831,20.14 186.540692,20.2053846 186.681862,20.2569231 C186.822255,20.3092308 186.953341,20.3530769 187.071241,20.3884615 L187.767005,20.5992308 C188.136217,20.7076923 188.478282,20.8361538 188.794749,20.9884615 C189.110442,21.1392308 189.386575,21.3276923 189.617721,21.5538462 C189.850418,21.7792308 190.032697,22.0469231 190.168437,22.3561538 C190.301074,22.6646154 190.368556,23.0323077 190.368556,23.4561538 C190.368556,23.7130769 190.352267,23.9723077 190.318138,24.2307692 C190.28401,24.4907692 190.224284,24.7423077 190.140513,24.9861538 C190.055967,25.23 189.943496,25.4615385 189.802327,25.6807692 C189.661158,25.8992308 189.485084,26.0961538 189.275656,26.2723077 C188.862232,26.6207692 188.395286,26.8707692 187.87327,27.0238462 C187.352029,27.1784615 186.822255,27.2546154 186.286277,27.2546154 C185.621539,27.2546154 184.972315,27.1492308 184.340931,26.9392308 C183.707995,26.7292308 183.120823,26.4376923 182.579415,26.0630769 L183.752983,23.8684615 C183.92673,24.0192308 184.106683,24.1584615 184.292064,24.2892308 C184.478998,24.42 184.675239,24.5346154 184.878461,24.6346154 C185.085561,24.7330769 185.294988,24.8115385 185.514499,24.8676923 C185.732458,24.9238462 185.958174,24.9530769 186.190871,24.9530769 C186.349881,24.9530769 186.509666,24.9315385 186.668675,24.8923077 C186.826909,24.8507692 186.970406,24.7876923 187.094511,24.7023077 C187.220943,24.6153846 187.322554,24.5069231 187.399344,24.3738462 C187.476909,24.24 187.514916,24.0815385 187.514916,23.8969231 C187.514916,23.7069231 187.455967,23.5461538 187.337291,23.4161538 C187.219391,23.2846154 187.074344,23.1723077 186.902924,23.0792308 C186.733055,22.9876923 186.553103,22.9123077 186.36074,22.8530769 C186.169928,22.7953846 186.001611,22.7453846 185.855788,22.7046154 C185.422971,22.5823077 185.032041,22.4553846 184.681444,22.3253846 C184.331623,22.1938462 184.032995,22.0215385 183.78401,21.8076923 C183.5358,21.5938462 183.343437,21.3230769 183.207697,20.9984615 C183.070406,20.6730769 183.001372,20.2576923 183.001372,19.7515385 C183.001372,19.2246154 183.091348,18.7438462 183.270525,18.31 C183.452029,17.8769231 183.704117,17.5076923 184.026014,17.2030769 C184.349463,16.8992308 184.732637,16.6630769 185.176313,16.4953846 C185.620764,16.3284615 186.106325,16.2453846 186.633771,16.2453846 C186.89827,16.2453846 187.175179,16.2653846 187.466826,16.3061538 C187.757697,16.3469231 188.047017,16.4046154 188.33401,16.4784615 C188.621002,16.5530769 188.901014,16.6438462 189.17327,16.75 C189.446301,16.8561538 189.701492,16.9746154 189.938842,17.1053846 L188.846718,19.2107692" id="Fill-53"></path>
                        <path d="M200.497076,20.03 C200.356683,19.84 200.19457,19.6753846 200.016169,19.5330769 C199.836993,19.39 199.643079,19.2707692 199.435203,19.1730769 C199.228878,19.0761538 199.011695,19.0046154 198.783652,18.9538462 C198.55716,18.9038462 198.326014,18.8792308 198.093317,18.8792308 C197.675239,18.8792308 197.293616,18.9538462 196.947673,19.1023077 C196.600955,19.2515385 196.304654,19.4569231 196.060322,19.7184615 C195.813663,19.98 195.622852,20.2869231 195.486337,20.64 C195.349821,20.9923077 195.280788,21.3715385 195.280788,21.7769231 C195.280788,22.1923077 195.349821,22.5730769 195.486337,22.9207692 C195.622852,23.2684615 195.815215,23.5684615 196.065752,23.8184615 C196.316289,24.0684615 196.617243,24.2646154 196.967064,24.4076923 C197.317661,24.5492308 197.707041,24.62 198.135203,24.62 C198.357816,24.62 198.579654,24.5946154 198.800716,24.5430769 C199.021778,24.49 199.233532,24.4161538 199.435203,24.32 C199.6392,24.2230769 199.830012,24.1053846 200.008413,23.97 C200.188365,23.8353846 200.352804,23.6815385 200.497076,23.51 L200.497076,26.7669231 C200.269033,26.8346154 200.056504,26.8984615 199.855609,26.96 C199.655489,27.02 199.460024,27.0730769 199.268437,27.1153846 C199.077625,27.1584615 198.884487,27.1930769 198.691348,27.2176923 C198.49821,27.2423077 198.294988,27.2546154 198.080907,27.2546154 C197.342482,27.2546154 196.636635,27.1207692 195.959487,26.8546154 C195.284666,26.5892308 194.671122,26.2092308 194.120406,25.7169231 C193.537888,25.1938462 193.110501,24.5992308 192.83747,23.9330769 C192.564439,23.2676923 192.428699,22.5438462 192.428699,21.7630769 C192.428699,21.0461538 192.559785,20.3569231 192.823508,19.6984615 C193.087232,19.0384615 193.474284,18.4530769 193.984666,17.9376923 C194.243735,17.6761538 194.529177,17.44 194.837112,17.23 C195.146599,17.0215385 195.473926,16.8423077 195.817542,16.6946154 C196.161933,16.5492308 196.516408,16.4369231 196.885621,16.36 C197.254833,16.2838462 197.62327,16.2453846 197.991706,16.2453846 C198.433831,16.2453846 198.859666,16.2915385 199.268437,16.3846154 C199.677983,16.4769231 200.089081,16.6061538 200.497076,16.7730769 L200.497076,20.03" id="Fill-54"></path>
                        <polygon id="Fill-55" points="203.588067 26.9753846 206.326909 26.9753846 206.326909 16.5223077 203.588067 16.5223077"></polygon>
                        <polyline id="Fill-56" points="212.231981 18.8253846 212.231981 20.5723077 215.323747 20.5723077 215.323747 22.8746154 212.231981 22.8746154 212.231981 24.6753846 215.495167 24.6753846 215.495167 26.9761538 209.493914 26.9761538 209.493914 16.5223077 215.495167 16.5223077 215.495167 18.8253846 212.231981 18.8253846"></polyline>
                        <polyline id="Fill-57" points="218.844451 16.5230769 221.582518 16.5230769 226.607995 22.9146154 226.633592 22.9146154 226.633592 16.5230769 229.37321 16.5230769 229.37321 26.9769231 226.633592 26.9769231 221.617422 20.5723077 221.582518 20.5723077 221.582518 26.9769231 218.844451 26.9769231 218.844451 16.5230769"></polyline>
                        <path d="M239.788723,20.03 C239.648329,19.84 239.486993,19.6753846 239.307816,19.5330769 C239.12864,19.39 238.934726,19.2707692 238.72685,19.1730769 C238.521301,19.0761538 238.302566,19.0046154 238.074523,18.9538462 C237.848031,18.9038462 237.618437,18.8792308 237.38574,18.8792308 C236.967661,18.8792308 236.584487,18.9538462 236.238544,19.1023077 C235.892601,19.2515385 235.596301,19.4569231 235.351969,19.7184615 C235.10531,19.98 234.914499,20.2869231 234.777983,20.64 C234.641468,20.9923077 234.57321,21.3715385 234.57321,21.7769231 C234.57321,22.1923077 234.641468,22.5730769 234.777983,22.9207692 C234.914499,23.2684615 235.106862,23.5684615 235.357399,23.8184615 C235.608711,24.0684615 235.90889,24.2646154 236.259487,24.4076923 C236.610859,24.5492308 236.998687,24.62 237.42685,24.62 C237.650239,24.62 237.871301,24.5946154 238.092363,24.5430769 C238.312649,24.49 238.524403,24.4161538 238.72685,24.32 C238.930072,24.2230769 239.121659,24.1053846 239.30006,23.97 C239.480012,23.8353846 239.643675,23.6815385 239.788723,23.51 L239.788723,26.7669231 C239.559905,26.8346154 239.347375,26.8984615 239.14648,26.96 C238.94636,27.02 238.750895,27.0730769 238.560084,27.1153846 C238.369272,27.1584615 238.176134,27.1930769 237.98222,27.2176923 C237.789081,27.2423077 237.585859,27.2546154 237.372554,27.2546154 C236.634129,27.2546154 235.927506,27.1207692 235.251909,26.8546154 C234.576313,26.5892308 233.962768,26.2092308 233.412828,25.7169231 C232.829535,25.1938462 232.401372,24.5992308 232.128341,23.9330769 C231.85531,23.2676923 231.71957,22.5438462 231.71957,21.7630769 C231.71957,21.0461538 231.850656,20.3569231 232.114379,19.6984615 C232.378878,19.0384615 232.766706,18.4530769 233.275537,17.9376923 C233.535382,17.6761538 233.820048,17.44 234.127983,17.23 C234.438246,17.0215385 234.764797,16.8423077 235.108413,16.6946154 C235.452804,16.5492308 235.808831,16.4369231 236.178043,16.36 C236.54648,16.2838462 236.914141,16.2453846 237.284129,16.2453846 C237.724702,16.2453846 238.150537,16.2915385 238.560084,16.3846154 C238.970406,16.4769231 239.379952,16.6061538 239.788723,16.7730769 L239.788723,20.03" id="Fill-58"></path>
                        <polyline id="Fill-59" points="245.608473 18.8253846 245.608473 20.5723077 248.70179 20.5723077 248.70179 22.8746154 245.608473 22.8746154 245.608473 24.6753846 248.870883 24.6753846 248.870883 26.9761538 242.870406 26.9761538 242.870406 16.5223077 248.870883 16.5223077 248.870883 18.8253846 245.608473 18.8253846"></polyline>
                        <path d="M257.580728,19.2107692 C257.325537,19.0030769 257.043198,18.8361538 256.733711,18.71 C256.424224,18.5830769 256.102327,18.52 255.764916,18.52 C255.636933,18.52 255.505072,18.5384615 255.368556,18.5738462 C255.232041,18.6107692 255.105609,18.6653846 254.990036,18.7369231 C254.874463,18.81 254.777506,18.9007692 254.702267,19.0115385 C254.627804,19.1223077 254.589797,19.2492308 254.589797,19.3930769 C254.589797,19.5469231 254.630907,19.6784615 254.713902,19.7861538 C254.795346,19.8946154 254.896957,19.9869231 255.021062,20.0638462 C255.14284,20.14 255.274702,20.2053846 255.415871,20.2569231 C255.557041,20.3092308 255.686575,20.3530769 255.806026,20.3884615 L256.501014,20.5992308 C256.870227,20.7076923 257.213067,20.8361538 257.529535,20.9884615 C257.846002,21.1392308 258.120585,21.3276923 258.35173,21.5538462 C258.584427,21.7792308 258.767482,22.0469231 258.900895,22.3561538 C259.035859,22.6646154 259.103341,23.0323077 259.103341,23.4561538 C259.103341,23.7130769 259.085501,23.9723077 259.051372,24.2307692 C259.018019,24.4907692 258.958294,24.7423077 258.874523,24.9861538 C258.7892,25.23 258.677506,25.4615385 258.536337,25.6807692 C258.395167,25.8992308 258.219869,26.0961538 258.011217,26.2723077 C257.596241,26.6207692 257.129296,26.8707692 256.607279,27.0238462 C256.086814,27.1784615 255.557041,27.2546154 255.021062,27.2546154 C254.356325,27.2546154 253.7071,27.1492308 253.07494,26.9392308 C252.44278,26.7292308 251.854833,26.4376923 251.3142,26.0630769 L252.487768,23.8684615 C252.66074,24.0192308 252.839916,24.1584615 253.02685,24.2892308 C253.213007,24.42 253.409248,24.5346154 253.614021,24.6346154 C253.81957,24.7330769 254.030549,24.8115385 254.249284,24.8676923 C254.467243,24.9238462 254.692184,24.9530769 254.924881,24.9530769 C255.08389,24.9530769 255.243675,24.9315385 255.402685,24.8923077 C255.561695,24.8507692 255.704415,24.7876923 255.829296,24.7023077 C255.954952,24.6153846 256.055012,24.5069231 256.133353,24.3738462 C256.210143,24.24 256.249702,24.0815385 256.249702,23.8969231 C256.249702,23.7069231 256.190752,23.5461538 256.072076,23.4161538 C255.953401,23.2846154 255.809129,23.1723077 255.637709,23.0792308 C255.46784,22.9876923 255.287112,22.9123077 255.096301,22.8530769 C254.905489,22.7953846 254.735621,22.7453846 254.589797,22.7046154 C254.157757,22.5823077 253.76605,22.4553846 253.416229,22.3253846 C253.064857,22.1938462 252.765453,22.0215385 252.518795,21.8076923 C252.269033,21.5938462 252.077446,21.3230769 251.940155,20.9984615 C251.805191,20.6730769 251.736933,20.2576923 251.736933,19.7515385 C251.736933,19.2246154 251.826134,18.7438462 252.00531,18.31 C252.186038,17.8769231 252.438126,17.5076923 252.7608,17.2030769 C253.084248,16.8992308 253.466647,16.6630769 253.910322,16.4953846 C254.355549,16.3284615 254.84111,16.2453846 255.368556,16.2453846 C255.632279,16.2453846 255.909964,16.2653846 256.201611,16.3061538 C256.492482,16.3469231 256.781802,16.4046154 257.068795,16.4784615 C257.355012,16.5530769 257.6358,16.6438462 257.908055,16.75 C258.18031,16.8561538 258.435501,16.9746154 258.672852,17.1053846 L257.580728,19.2107692" id="Fill-60"></path>
                    </g>
                </g>
            </g>
        </g>
    </g>
</svg>