<?xml version="1.0" encoding="UTF-8"?>
<svg width="56px" height="34px" viewBox="0 0 56 34" version="1.1" xmlns="http://www.w3.org/2000/svg" xmlns:xlink="http://www.w3.org/1999/xlink">
    <!-- Generator: Sketch 48.2 (47327) - http://www.bohemiancoding.com/sketch -->
    <title>cow-white</title>
    <desc>Created with Sketch.</desc>
    <defs></defs>
    <g id="Page-1" stroke="none" stroke-width="1" fill="none" fill-rule="evenodd">
        <path d="M0,8.96963944 L0,8.43579002 C0.338400768,7.92374685 0.775333501,7.50619746 1.28737667,7.17183488 C2.33569217,6.4877646 3.21278819,5.63166719 3.9655078,4.64392461 C4.23122105,4.29663982 4.49935722,3.9509703 4.75699408,3.59803203 C5.17858167,3.01895482 5.77784986,2.65713252 6.36904165,2.28481091 C6.52168544,2.18870186 6.6719063,2.0901699 6.85766329,1.97063931 C6.5394535,1.97063931 6.281009,1.97548515 6.02337214,1.96983168 C5.36030046,1.95690945 4.69076768,1.99325321 4.03658004,1.91168166 C3.22005695,1.80991914 2.6878228,1.2219579 2.57959917,0.44823968 C2.5367943,0.143759753 2.67086238,0.012114586 2.96322772,0.113069469 C3.19825069,0.194641014 3.42519727,0.310941039 3.6367987,0.440970929 C3.94612446,0.630766109 4.27241065,0.710722376 4.63423295,0.704261263 C5.79884848,0.683262648 6.88350774,0.30205701 7.9867427,0 L8.74188522,0 C9.28542631,0.150220866 9.61817361,0.524157752 9.84835074,1.01116411 C9.89438617,1.10727316 9.95657437,1.19611345 10.0179549,1.28333847 C10.2860911,1.66131355 10.4904238,1.74126982 10.941894,1.62981563 C11.1155364,1.58701076 11.2875636,1.53047603 11.4507066,1.45859615 C11.8351428,1.28737667 12.2147332,1.10646552 12.5943236,0.923939089 C12.8568063,0.797139756 13.0401403,0.843982821 13.1580556,1.07739051 C13.4423446,1.64273786 13.1491716,2.45360747 12.5717097,2.70236031 C12.4562173,2.75162629 12.3334561,2.79443116 12.2333089,2.8655034 C12.1371998,2.93415272 12.0661276,3.03591524 11.9837484,3.12314026 C12.0766269,3.19905833 12.1573908,3.30889724 12.2639992,3.345241 C13.9883086,3.94047099 15.7473465,4.23445161 17.5580732,3.80801818 C18.8204131,3.50999937 20.0682154,3.48011672 21.3475157,3.725639 C22.8892987,4.0212349 24.4423886,4.27241065 25.9995167,4.46866694 C27.9572338,4.71580449 29.9311037,4.69803643 31.8985124,4.62534892 C34.2955852,4.53731626 36.6918503,4.40567109 39.0856925,4.2465662 C40.6347442,4.1431884 42.1773348,3.93966335 43.7247713,3.81205638 C44.6269041,3.73775359 45.5403439,3.63599106 46.4360156,3.7070633 C47.4350651,3.78540429 48.4268459,3.96066197 49.4363947,3.96793072 C49.6972621,3.97035364 49.9960886,4.07615435 50.2117282,4.22718286 C51.34,5.01624622 52.1234099,6.06213881 52.5151148,7.38585924 C53.0659247,9.24989019 52.9770844,11.1502649 52.8583614,13.0514473 C52.812326,13.7872065 52.7057176,14.5205427 52.6855267,15.2563019 C52.6621051,16.130975 52.9552781,16.8925787 53.6474248,17.4837704 C54.0068242,17.7914809 54.354109,18.1185747 54.676357,18.4642443 C55.347505,19.1846583 55.4226154,19.8307696 54.987298,20.7086732 C54.9259174,20.8330496 54.8774591,20.977617 54.8758438,21.114108 C54.870998,21.4242414 54.8944195,21.7351825 54.9129952,22.0453159 C54.938032,22.470134 54.9913362,22.8949522 54.9897209,23.3197703 C54.9881056,23.6719009 54.8185014,23.7922392 54.4647555,23.7534725 C53.9930943,23.700976 53.6902297,23.4174946 53.5432393,22.9967147 C53.4301699,22.6728514 53.3316379,22.3271819 53.3195233,21.9879735 C53.288833,21.1108775 52.9916219,20.3420051 52.4892704,19.6337056 C52.2623238,19.3138806 52.0547606,18.9803256 51.8431591,18.6500013 C51.6210584,18.3027165 51.5120271,17.9190879 51.5330257,17.5088073 C51.5612931,16.9676891 51.6242889,16.4281862 51.6396341,15.887068 C51.7010146,13.7920523 51.5903681,11.7083435 51.1493972,9.65290209 C51.0112909,9.01163667 50.8384561,8.37764 50.6510839,7.74848917 C50.5953568,7.56273219 50.4354442,7.40685785 50.3231824,7.23725365 C50.2997609,7.25098351 50.277147,7.26390574 50.2545331,7.2776356 C50.2577636,7.32851686 50.2553407,7.38182104 50.2666477,7.43108702 C50.4685574,8.32272055 50.6478533,9.22000755 50.8796457,10.1035647 C51.2915416,11.6687692 51.2091625,13.2347813 50.9781777,14.8129081 C50.8368408,15.7788444 50.7504235,16.7528571 50.6583526,17.7252545 C50.5848575,18.5046262 50.8303797,19.1773896 51.4078417,19.7273918 C51.5491785,19.8622675 51.6630556,20.0262182 51.7809709,20.1829002 C52.0644522,20.5632982 52.1508696,20.9913469 52.042646,21.447663 C51.9748043,21.7319519 51.8827334,22.0122027 51.7809709,22.2868 C51.4926438,23.0702098 51.3383847,23.8762336 51.3076944,24.7105248 C51.2673125,25.8177979 51.3989576,26.9121489 51.5669466,28.001654 C51.6662862,28.6404965 51.8245834,29.2712626 51.9392682,29.9084898 C51.9982258,30.2363913 52.0192244,30.5796379 51.7228209,30.8227372 C51.4199563,31.07149 51.3335389,31.3840464 51.377959,31.7515221 C51.39815,31.9195111 51.4239944,32.0866924 51.4377243,32.2546813 C51.494259,32.9629807 51.3230396,33.1899273 50.6220089,33.3700308 C49.7408746,33.5945545 48.84278,33.6147455 47.9438777,33.5679024 C47.6450513,33.5517496 47.3397637,33.4701781 47.0587053,33.3627621 C46.7380726,33.2416162 46.7178816,33.0364759 46.9868254,32.8329508 C47.2929206,32.6003508 47.6119381,32.3830959 47.9325708,32.1706868 C48.4720737,31.8120951 48.8476258,31.3307422 48.9687717,30.7007837 C49.0899176,30.0740558 49.1787579,29.4384439 49.2369079,28.8036396 C49.3725912,27.307892 49.153721,25.8589875 48.5552605,24.4755018 C48.2919702,23.8681572 47.9479159,23.309271 47.4641401,22.8222647 C47.4213352,22.8804147 47.3857991,22.9191813 47.3607623,22.9627939 C46.2809489,24.8050186 45.5128841,26.7473905 45.3247042,28.8924799 C45.2560549,29.6791203 45.0694903,30.41811 44.1964325,30.7734712 C44.0211748,30.8453511 43.8903373,31.1385241 43.8321873,31.3541637 C43.7530386,31.6497596 43.7627303,31.968777 43.7328476,32.2926403 C43.6528914,32.3136389 43.5680893,32.3435216 43.4808643,32.3572514 C42.6926085,32.4848584 41.9059681,32.6294258 41.1136742,32.7279578 C40.7171234,32.7772238 40.3076504,32.7723779 39.9086767,32.7344189 C39.5646224,32.7021133 39.5113183,32.5502772 39.7269579,32.2716417 C39.9401746,31.9978521 40.1671212,31.7264853 40.4287962,31.5003464 C41.2719714,30.7750865 42.006923,29.9803697 42.4317411,28.9312465 C42.7887176,28.0501123 43.2078823,27.1932073 43.5713198,26.3136883 C43.8507629,25.6360792 43.9662553,24.9285873 43.7708067,24.2009045 C43.6706594,23.8277753 43.4509816,23.7130905 43.0818906,23.8318135 C42.6950314,23.9561899 42.5165432,24.2525934 42.3679376,24.6063393 C42.1498751,25.1264589 41.9164674,25.1652256 41.4649972,24.8260172 C41.2372429,24.6556053 41.011104,24.4545032 40.7510442,24.3592018 C40.2672684,24.1815212 39.9619809,24.2227108 39.7293808,24.6346067 C39.6986905,24.6887185 39.6575009,24.7363692 39.6195419,24.7864429 C39.480628,24.9689693 39.3045627,25.0860769 39.0646939,25.0327728 C38.8329014,24.9810839 38.6689507,24.8203637 38.641491,24.5966477 C38.5889945,24.1613302 38.2909756,23.9473059 37.9638818,23.7243975 C37.3953039,23.3367307 36.8170343,22.9547175 36.2952995,22.510516 C35.9682057,22.2318805 35.6427271,22.1341562 35.2389076,22.1809992 C34.9441194,22.2149201 34.6493311,22.255302 34.3537352,22.2593402 C33.1665058,22.2738777 32.0188507,22.0065492 30.8695803,21.7602193 C29.8220724,21.5356956 28.7721416,21.3442852 27.6923282,21.416165 C26.2329244,21.5122741 25.5302784,22.0970048 25.2661805,23.5168342 C25.1539186,24.1169101 25.1288818,24.7339463 25.0909228,25.3445214 C25.0602325,25.8412195 25.0804235,26.3403404 25.0578096,26.8378461 C25.0028901,28.0283061 24.9083964,29.2179584 25.4761666,30.3413843 C25.5779291,30.5416788 25.5722757,30.8081997 25.5682375,31.0432227 C25.5633916,31.2847068 25.4293236,31.4704637 25.1611874,31.4963082 C24.8139026,31.5310367 24.6620664,31.7418305 24.6144157,32.0560021 C24.5926095,32.1965313 24.5708032,32.3370605 24.5546504,32.4775897 C24.5102303,32.8612182 24.30509,33.1261238 23.9400371,33.2456544 C23.7292433,33.3151114 23.503912,33.353878 23.2826189,33.374069 C22.6566986,33.4289885 22.0291631,33.4750239 21.4016275,33.5097524 C21.0890712,33.5275204 20.7724767,33.5315586 20.4599204,33.5057142 C20.3339287,33.4952149 20.2152058,33.3886065 20.0932523,33.3264183 C20.1643245,33.2101183 20.2119752,33.0687815 20.3096995,32.9823641 C20.5649135,32.7586481 20.8370878,32.5527001 21.1116851,32.351598 C21.8805575,31.7886735 22.3716021,31.0480685 22.5880493,30.12736 C22.812573,29.1711153 22.8295334,28.205179 22.6970806,27.2376274 C22.5735118,26.3427633 22.2876076,25.4882812 21.993627,24.6095699 C21.944361,24.6620664 21.9160936,24.6838727 21.8975179,24.7129477 C21.0995705,25.9494431 20.6279093,27.2909316 20.5495683,28.7648729 C20.5140322,29.4465203 20.4599204,30.1281676 20.3912711,30.8073921 C20.3630037,31.0868352 20.2071294,31.2790533 19.8816508,31.2847068 C19.6409744,31.288745 19.5044834,31.4308894 19.4665243,31.6626818 C19.4342188,31.8645916 19.3994903,32.0656937 19.3768764,32.2684111 C19.3461861,32.5559306 19.2000035,32.7142279 18.9035999,32.7546099 C17.847208,32.8999849 16.7924314,32.8216439 15.7279631,32.7820696 C15.6423534,32.2805257 15.8474937,31.9267798 16.2303146,31.669143 C16.5041043,31.4850012 16.7980849,31.3275116 17.0928731,31.1764831 C17.6041087,30.9131928 17.954624,30.5174497 18.1452268,29.9811773 C18.6233492,28.6372659 18.6750381,27.2667024 18.3745963,25.8832167 C18.1476498,24.8405547 17.8908205,23.8043538 17.9578546,22.722925 C17.9731997,22.4749799 17.8157101,22.333643 17.5847253,22.3150673 C17.1833287,22.2827618 16.7787015,22.2730701 16.3756897,22.2682243 C16.0413271,22.2641861 15.7667298,22.1486937 15.5292839,21.9185165 C15.1658463,21.5671935 14.9978574,21.1197615 14.893672,20.6472927 C14.7014539,19.7758501 14.4890448,18.9076381 14.0036537,18.1468421 C13.4956487,17.35051 12.9464542,16.5800223 12.4012978,15.808727 C11.731765,14.862174 11.0759621,13.9043141 10.3620092,12.9908743 C9.29188742,11.6211185 7.87609615,11.0210427 6.10978951,11.1793399 C5.11881638,11.2673726 4.11653631,11.2802948 3.12233262,11.2496045 C2.55698527,11.2318365 1.98840737,11.0872691 1.43678989,10.9427017 C1.00470299,10.8296322 0.694569595,10.532421 0.51769664,10.1059876 C0.358591744,9.72235905 0.173642399,9.34842216 0,8.96963944" id="cow-white" fill="#FFFFFF"></path>
    </g>
</svg>