<?xml version="1.0" encoding="UTF-8"?>
<svg width="60px" height="60px" viewBox="0 0 60 60" version="1.1" xmlns="http://www.w3.org/2000/svg" xmlns:xlink="http://www.w3.org/1999/xlink">
    <!-- Generator: Sketch 49.1 (51147) - http://www.bohemiancoding.com/sketch -->
    <title>agriculture</title>
    <desc>Created with Sketch.</desc>
    <defs></defs>
    <g id="Page-1" stroke="none" stroke-width="1" fill="none" fill-rule="evenodd">
        <g id="phase4" transform="translate(-507.000000, -1620.000000)">
            <g id="topics" transform="translate(0.000000, 1592.000000)">
                <g id="items-collapsed" transform="translate(270.000000, 30.000000)">
                    <g id="ag" transform="translate(232.000000, 0.000000)">
                        <g id="agriculture" transform="translate(7.000000, 0.000000)">
                            <circle id="Oval-2" stroke="#78BE20" stroke-width="2.4" cx="28" cy="28" r="28"></circle>
                            <g id="seed" transform="translate(17.405405, 8.324324)" fill="#78BE20">
                                <path d="M11.0881253,12.5192253 C11.7326733,13.9765823 12.4979892,15.3905171 12.9973443,16.9001163 C14.100539,20.2334472 14.9526993,23.6325897 14.6765614,27.2264537 C14.6541719,27.517518 14.8441439,27.9246009 15.0639687,28.1233931 C16.966403,29.8419616 17.4270852,31.3217081 16.6251318,33.8123773 C15.6861271,36.7257342 13.6751374,38.4531228 10.8140227,39.0135404 C8.48482982,39.4687948 6.55118583,37.7352999 6.42227623,35.2310613 C6.24926598,31.8543083 9.14973197,28.1084667 12.3887553,27.8194378 C13.7979407,27.6932421 14.0672939,27.0588712 13.9960544,25.83423 C13.7599463,21.7905394 12.9301756,17.9035758 11.2550293,14.2316876 C11.0372399,13.7540436 10.8167366,13.2777566 10.5969118,12.8014695 C10.7604235,12.707162 10.9246136,12.6135329 11.0881253,12.5192253 M14.1168224,28.2075236 C13.5218028,31.0143605 11.6648261,32.7023978 9.40415881,34.0518777 C12.1757152,33.1203363 14.1819556,31.5286419 14.1168224,28.2075236" id="Fill-1"></path>
                                <path d="M1.11737484,0.678471575 C3.99612973,1.05705871 6.6367411,1.48585275 8.90962088,3.0911165 C11.233386,4.73233924 10.948428,7.16126747 10.5583068,9.62547623 C10.314057,11.1656067 9.70886039,11.671068 8.12802162,11.469562 C3.5218781,10.884041 1.75174576,9.1132302 1.34466281,4.26080149 C1.24967679,3.13114632 1.1994699,1.99742032 1.11737484,0.678471575" id="Fill-4"></path>
                                <path d="M0,14.6304253 C3.14878658,10.6572958 6.93669338,10.6396555 9.82494688,14.4994803 C6.74197204,18.4576835 3.13182479,18.5357077 0,14.6304253" id="Fill-7"></path>
                                <path d="M11.6067489,11.8341726 C11.9629465,7.46006636 14.6734404,5.42668705 19.0149801,6.18318285 C18.6506408,10.5450766 16.1206203,12.5072164 11.6067489,11.8341726" id="Fill-9"></path>
                            </g>
                        </g>
                    </g>
                </g>
            </g>
        </g>
    </g>
</svg>