<?xml version="1.0" encoding="UTF-8"?>
<svg width="78px" height="78px" viewBox="0 0 78 78" version="1.1" xmlns="http://www.w3.org/2000/svg" xmlns:xlink="http://www.w3.org/1999/xlink">
    <!-- Generator: Sketch 48.2 (47327) - http://www.bohemiancoding.com/sketch -->
    <title>greentopic</title>
    <desc>Created with Sketch.</desc>
    <defs></defs>
    <g id="phase2" stroke="none" stroke-width="1" fill="none" fill-rule="evenodd" transform="translate(-499.000000, -871.000000)">
        <g id="topics" transform="translate(0.000000, 785.000000)">
            <g id="items" transform="translate(177.000000, 78.000000)">
                <g id="greentopic" transform="translate(324.000000, 10.000000)">
                    <circle id="Oval-2" stroke="#78BE20" stroke-width="3.2" cx="37" cy="37" r="37"></circle>
                    <g id="seed" transform="translate(23.000000, 11.000000)" fill="#78BE20">
                        <path d="M14.6521655,16.5432621 C15.5038897,18.4690552 16.5152,20.337469 17.1750621,22.3322966 C18.6328552,26.7370552 19.7589241,31.2287793 19.3940276,35.9778138 C19.3644414,36.3624345 19.6154759,36.9003655 19.9059586,37.1630552 C22.4198897,39.4340207 23.0286483,41.3894 21.9689241,44.6806414 C20.7280966,48.5304345 18.0707172,50.8130552 14.2899586,51.5536069 C11.2120966,52.1551931 8.65692414,49.8645034 8.48657931,46.555331 C8.25795862,42.0931931 12.0907172,37.143331 16.3708552,36.7614 C18.2329931,36.5946414 18.5889241,35.7563655 18.4947862,34.1380897 C18.1827862,28.7946414 17.0863034,23.6582966 14.8727172,18.8061586 C14.5849241,18.1749862 14.2935448,17.5456069 14.0030621,16.9162276 C14.219131,16.7916069 14.4360966,16.6678828 14.6521655,16.5432621 M18.6543724,37.2742276 C17.8680966,40.9832621 15.4142345,43.2138828 12.4269241,44.9971241 C16.0893379,43.7661586 18.7404414,41.6628483 18.6543724,37.2742276" id="Fill-1"></path>
                        <path d="M1.47653103,0.896551724 C5.2806,1.39682759 8.76997931,1.96344828 11.7734276,4.08468966 C14.8441172,6.25344828 14.4675655,9.46310345 13.9520483,12.7193793 C13.6292897,14.7545517 12.8295655,15.4224828 10.7406,15.1562069 C4.65391034,14.3824828 2.3148069,12.0424828 1.77687586,5.63034483 C1.65135862,4.13758621 1.58501379,2.63944828 1.47653103,0.896551724" id="Fill-4"></path>
                        <path d="M0,19.3330621 C4.16089655,14.0828552 9.16634483,14.0595448 12.9829655,19.1600276 C8.90903448,24.3905103 4.13848276,24.4936138 0,19.3330621" id="Fill-7"></path>
                        <path d="M15.3374897,15.6380138 C15.8081793,9.85794483 19.3899034,7.17097931 25.1269379,8.17063448 C24.6454897,13.9345655 21.3022483,16.5273931 15.3374897,15.6380138" id="Fill-9"></path>
                    </g>
                </g>
            </g>
        </g>
    </g>
</svg>