<svg width="31px" height="34px" viewBox="0 0 31 34" version="1.1" xmlns="http://www.w3.org/2000/svg" xmlns:xlink="http://www.w3.org/1999/xlink" aria-labelledby="humansocialsciences-title">
    <title class="humansocialsciences-title">humansocialsciences-icon</title>
    <g stroke="none" stroke-width="1" fill="none" fill-rule="evenodd">
        <g id="iconfill humansocialsciences-icon" transform="translate(-1065.000000, -626.000000)" fill="#FFC72C">
            <g id="departments" transform="translate(157.000000, 618.000000)">
                <g id="humansocial" transform="translate(763.000000, 8.000000)">
                    <path d="M165.224745,33.3533534 L151.522918,33.3533534 C150.946722,33.0356757 150.758772,32.5497336 150.778664,31.8857523 C150.819135,30.5515061 150.814333,29.2144671 150.781408,27.8802209 C150.725846,25.6662519 150.27655,23.6387003 148.735223,21.879953 C147.719333,20.7216513 146.904426,19.3175858 146.250716,17.9037456 C143.705161,12.3984963 145.117529,6.43104344 149.829311,2.81510352 C152.889328,0.467081525 156.413733,-0.289061152 160.202914,0.094944824 C164.665011,0.548071876 168.23949,2.58888909 170.784359,6.34446754 C172.506091,8.88588892 173.517179,11.6786597 172.959503,14.8512472 C172.710504,16.2650874 173.0768,17.4855282 174.022038,18.5404974 C174.545416,19.1241864 175.070167,19.7071773 175.579827,20.3034339 C176.269892,21.1091482 176.013347,21.9316192 174.993341,22.1948379 C174.665458,22.2793192 174.330715,22.3428547 173.995972,22.394521 C173.520609,22.4678312 173.313453,22.68078 173.321684,23.2218793 C173.341576,24.5065538 173.277097,25.7926248 173.255147,27.0779975 C173.233882,28.3012311 172.659057,29.0496936 171.464135,29.1858412 C170.678037,29.2752099 169.871362,29.2179581 169.075661,29.1767647 C167.008212,29.0699412 166.060916,29.8805429 165.974487,31.9527788 C165.948421,32.583945 165.74881,33.0384685 165.224745,33.3533534 M154.121978,4.65065209 C153.984789,4.61853523 153.893557,4.59758945 153.802326,4.57594547 C152.370065,4.23173648 150.835598,4.8887358 150.41031,6.13082058 C150.19012,6.77385604 150.040583,7.3701126 149.445866,7.81625772 C149.178346,8.01733722 148.978735,8.59753534 149.054875,8.93266783 C149.240767,9.74396772 148.900536,10.310202 148.539041,10.955332 C147.591746,12.6449583 147.88396,14.3806653 149.248312,15.6869839 C149.336114,15.7714652 149.40951,15.9201802 149.41294,16.0409675 C149.466444,17.8814035 150.190806,18.4650925 152.06276,18.1132034 C152.317247,18.9238051 152.952436,19.2763924 153.730302,19.430693 C154.086309,19.5005123 154.450548,19.6296779 154.802439,19.604543 C156.001478,19.5172689 156.709377,19.9229189 156.702518,21.2697326 C156.701146,21.4317133 157.039318,21.6677024 157.26088,21.7417108 C157.614143,21.8604036 157.826788,21.6607205 157.935167,21.2816018 C158.137522,20.5736345 158.426993,19.890802 158.610141,19.1786455 C158.949,17.8632505 159.816039,17.2327825 161.078871,17.0226265 C162.015877,16.8662313 162.795114,16.4179916 163.440592,15.6841911 C164.27745,14.7318563 165.271389,14.0287762 166.535593,13.7257606 C167.554227,13.4820914 167.796367,13.1022745 167.898573,12.0193777 C169.068802,11.4531434 169.46871,10.6418435 168.996777,9.38858765 C168.748464,8.72879556 168.225085,8.17652515 167.821747,7.57887221 C167.277789,6.77315785 166.611047,6.16014467 165.816719,5.55481162 C164.901663,4.85731713 164.114194,4.35182562 162.976891,4.42513585 C162.758759,4.43909971 162.451454,4.34344731 162.319752,4.18356118 C161.72915,3.46512091 161.021937,3.31570768 160.161757,3.53563837 C159.894923,3.60336306 159.543031,3.58590825 159.304321,3.46023356 C158.428365,3.00152097 157.598367,3.01618302 156.742303,3.50072874 C156.53103,3.62081788 156.240874,3.69273173 156.006965,3.65572752 C155.161877,3.52237271 154.526688,3.76394738 154.121978,4.65065209" id="humansocialsciences-icon"></path>
                </g>
            </g>
        </g>
    </g>
</svg>
