<?xml version="1.0" encoding="UTF-8"?>
<svg width="78px" height="78px" viewBox="0 0 78 78" version="1.1" xmlns="http://www.w3.org/2000/svg" xmlns:xlink="http://www.w3.org/1999/xlink">
    <!-- Generator: Sketch 48.2 (47327) - http://www.bohemiancoding.com/sketch -->
    <title>orangetopic</title>
    <desc>Created with Sketch.</desc>
    <defs></defs>
    <g id="phase2" stroke="none" stroke-width="1" fill="none" fill-rule="evenodd" transform="translate(-175.000000, -871.000000)">
        <g id="topics" transform="translate(0.000000, 785.000000)">
            <g id="items" transform="translate(177.000000, 78.000000)">
                <g id="orangetopic" transform="translate(0.000000, 10.000000)">
                    <path d="M16.66754,47.4062219 C15.90026,46.7618781 14.97474,45.9843156 13.99954,45.1659719 C16.06586,43.1087844 18.48914,42.5913156 21.16358,43.1595344 C23.74418,43.7069094 26.29442,44.3938469 28.86122,45.0064719 C29.4629,45.1496594 30.07746,45.2366594 31.23022,45.4496281 C29.59906,43.2900344 28.28438,41.5500344 26.97062,39.8100344 C26.84734,39.8607844 26.72498,39.9115344 26.6017,39.9622844 C26.77834,41.1612531 26.95498,42.3611281 27.16658,43.7948156 C25.88042,43.4386594 24.64302,43.1812844 23.48566,42.7272531 C23.09558,42.5740969 22.70826,41.9442531 22.65858,41.4956594 C21.94558,35.0567531 26.89518,30.8916281 33.28366,32.5183469 C35.6499,33.1210031 38.00418,33.7735031 40.37778,34.3507844 C41.09262,34.5247844 41.85162,34.5220656 42.7615,34.2311594 C41.15978,33.0466906 39.55714,31.8622219 37.66562,30.4638781 C37.80546,31.5386906 37.89286,32.2165656 37.99682,33.0131594 C37.51842,32.9016906 37.0299,32.8165031 36.55794,32.6742219 C33.31678,31.7018156 33.05366,31.2659094 33.69306,27.9898156 C34.65722,23.0462219 38.45314,20.6727531 43.99982,21.7267219 C46.3311,22.1689719 48.60626,22.9157219 50.8897,23.5818156 C52.9827,24.1926281 55.03706,24.5515031 56.68938,23.3579719 C57.70598,24.2959406 58.59194,25.1124719 59.53034,25.9770344 C57.0675,28.1384406 54.19434,28.5308469 51.09486,27.7279094 C48.24654,26.9902219 45.42398,26.1573781 42.3245,25.6734406 C43.77074,27.5330656 45.2179,29.3917844 46.66414,31.2514094 C46.81042,31.2260344 46.9567,31.2006594 47.10298,31.1743781 C46.98062,29.9436906 46.85826,28.7130031 46.72118,27.3373156 C47.13978,27.4360969 47.43142,27.4913781 47.71478,27.5747531 C51.13534,28.5743469 51.75266,29.6835969 50.82622,33.1545344 C49.69002,37.4093781 45.55462,39.6922219 40.77706,38.5875031 C37.9591,37.9368156 35.18622,37.0994406 32.38574,36.3735344 C31.80154,36.2221906 31.18422,36.1922844 30.39394,36.5094719 C32.17138,37.9050969 33.94882,39.2998156 36.08414,40.9754719 C35.9167,39.8181906 35.80814,39.0678156 35.65634,38.0156594 C36.97654,38.4125969 38.25718,38.7053156 39.44306,39.2128156 C39.79266,39.3623469 40.03186,40.1118156 40.05578,40.5984719 C40.37778,47.2150031 35.83758,50.8282219 29.12342,49.2730969 C26.80594,48.7365969 24.55838,47.8539094 22.22158,47.4651281 C20.45058,47.1696906 18.5885,47.4062219 16.66754,47.4062219 M27.57782,37.7329094 C27.38186,37.7773156 27.1859,37.8226281 26.98994,37.8670344 C27.16198,38.4125969 27.21074,39.0442531 27.52906,39.4892219 C28.7131,41.1458469 30.05998,42.6928156 31.20262,44.3757219 C32.27074,45.9471594 33.35818,45.7477844 34.70506,44.7635969 C32.27994,42.3710969 29.92842,40.0520031 27.57782,37.7329094 M38.23786,26.8189406 C37.78154,28.0197219 36.75482,28.9948469 38.09066,30.0089406 C39.97022,31.4362844 41.87554,32.8346281 43.83514,34.1514094 C44.22798,34.4151281 44.91338,34.2592531 45.9171,34.3272219 C43.16722,31.6383781 40.80558,29.3292531 38.23786,26.8189406 M46.67058,33.6883156 C46.48658,32.7630344 46.53902,32.1340969 46.25382,31.7471281 C44.93546,29.9590969 43.49658,28.2580656 42.15338,26.4881594 C41.14966,25.1641281 40.15422,25.1786281 39.0125,26.2887844 C41.46982,28.6631594 43.87286,30.9849719 46.67058,33.6883156 M27.89982,36.4179406 C30.70582,39.2345656 33.06102,41.6007844 35.43646,43.9860344 C36.36474,42.8876594 36.3859,41.9125344 35.12642,40.9790969 C33.33242,39.6496281 31.60282,38.2358781 29.79962,36.9190969 C29.43346,36.6517531 28.86214,36.6590031 27.89982,36.4179406" id="Fill-1" fill="#ED8B00"></path>
                    <path d="M49,23 C48.6499628,22.901692 48.3370355,22.8128368 48.0241082,22.7249267 C43.7343967,21.5215994 43.4124427,21.0565271 44.5879259,16.8935627 C44.9329483,15.6694395 45.6761506,14.5455147 46.416344,13 C47.5597321,14.3262123 48.3972138,15.298894 49,15.998393 L49,23 Z M24.7049,49.8228182 C24.7529,49.8064545 24.8119,49.7655455 24.8589,49.7746364 C29.8489,50.7382727 30.6859,52.1955455 28.7229,56.5937273 C28.3859,57.3500909 27.8829,58.0446364 27.3199,59.0000909 C26.1869,58.0228182 25.2029,57.1719091 24.7049,56.7428182 L24.7049,49.8228182 Z" id="Fill-4" fill="#ED8B00"></path>
                    <circle id="Oval-2" stroke="#ED8B00" stroke-width="3.2" cx="37" cy="37" r="37"></circle>
                </g>
            </g>
        </g>
    </g>
</svg>