<?xml version="1.0" encoding="UTF-8"?>
<svg width="28px" height="29px" viewBox="0 0 28 29" version="1.1" xmlns="http://www.w3.org/2000/svg" xmlns:xlink="http://www.w3.org/1999/xlink">
    <!-- Generator: Sketch 49.3 (51167) - http://www.bohemiancoding.com/sketch -->
    <title>small_brain</title>
    <desc>Created with Sketch.</desc>
    <defs>
        <path d="M864.368578,5226 L854.634178,5226 C854.224821,5225.78093 854.091293,5225.44584 854.105426,5224.98796 C854.134178,5224.06789 854.130767,5223.14588 854.107375,5222.22581 C854.067901,5220.69908 853.748701,5219.30091 852.653672,5218.08811 C851.931938,5217.28936 851.35299,5216.32113 850.888566,5215.34617 C849.080087,5211.54983 850.083498,5207.43476 853.430962,5204.94126 C855.604938,5203.32209 858.108835,5202.80067 860.800841,5203.06547 C863.970918,5203.37794 866.51039,5204.78526 868.318381,5207.37505 C869.541578,5209.12758 870.259901,5211.05344 869.863702,5213.24121 C869.686802,5214.21617 869.947035,5215.05777 870.618575,5215.78526 C870.990407,5216.18777 871.363214,5216.58979 871.7253,5217.00096 C872.215553,5217.55657 872.033292,5218.12373 871.308633,5218.30525 C871.07569,5218.3635 870.837873,5218.40732 870.600057,5218.44294 C870.262337,5218.4935 870.115164,5218.64034 870.121012,5219.01348 C870.135145,5219.89937 870.089336,5220.78623 870.073741,5221.6726 C870.058634,5222.51613 869.650252,5223.03226 868.801325,5223.12614 C868.242845,5223.18777 867.669746,5223.14829 867.104444,5223.11988 C865.635634,5223.04622 864.962633,5223.6052 864.901229,5225.03418 C864.882711,5225.46943 864.740898,5225.78286 864.368578,5226 M856.480668,5206.20702 C856.383202,5206.18488 856.318388,5206.17043 856.253573,5206.15551 C855.236029,5205.91815 854.145874,5206.3712 853.84373,5207.22773 C853.687297,5207.67116 853.58106,5208.08233 853.158545,5208.38998 C852.968487,5208.52864 852.826674,5208.92874 852.880767,5209.15984 C853.012834,5209.7193 852.771118,5210.10977 852.514296,5210.55464 C851.841294,5211.71978 852.048897,5212.9167 853.018194,5213.81752 C853.080572,5213.87578 853.132717,5213.97833 853.135153,5214.06162 C853.173165,5215.33076 853.687785,5215.73327 855.017706,5215.49061 C855.198505,5216.04959 855.649772,5216.29273 856.202403,5216.39913 C856.455327,5216.44728 856.714099,5216.53635 856.964099,5216.51902 C857.81595,5216.45883 858.318874,5216.73856 858.314001,5217.66731 C858.313026,5217.77901 858.553279,5217.94174 858.710687,5217.99278 C858.961661,5218.07462 859.112733,5217.93693 859.189731,5217.67549 C859.333493,5217.18729 859.539146,5216.71642 859.669263,5216.22532 C859.910004,5215.31824 860.525988,5214.88348 861.423161,5214.73856 C862.088852,5214.63071 862.642458,5214.32161 863.101035,5213.8156 C863.695577,5213.15888 864.401717,5212.67405 865.299864,5212.46509 C866.023548,5212.29706 866.195575,5212.03514 866.268187,5211.28839 C867.099571,5210.89793 867.383684,5210.33846 867.048401,5209.47424 C866.871988,5209.01925 866.500156,5208.63842 866.213607,5208.22628 C865.827155,5207.67067 865.353471,5207.24795 864.789143,5206.83052 C864.139046,5206.34954 863.579592,5206.00096 862.771601,5206.05151 C862.61663,5206.06114 862.398306,5205.99518 862.304739,5205.88492 C861.885149,5205.3895 861.382712,5205.28647 860.771602,5205.43813 C860.582031,5205.48483 860.332031,5205.47279 860.16244,5205.38613 C859.540121,5205.06981 858.950452,5205.07992 858.342266,5205.41405 C858.192168,5205.49686 857.986028,5205.54646 857.819849,5205.52094 C857.219459,5205.42898 856.768192,5205.59556 856.480668,5206.20702" id="path-1"></path>
        <filter x="-25.0%" y="-15.2%" width="150.0%" height="147.8%" filterUnits="objectBoundingBox" id="filter-2">
            <feOffset dx="0" dy="2" in="SourceAlpha" result="shadowOffsetOuter1"></feOffset>
            <feGaussianBlur stdDeviation="1.5" in="shadowOffsetOuter1" result="shadowBlurOuter1"></feGaussianBlur>
            <feColorMatrix values="0 0 0 0 0   0 0 0 0 0   0 0 0 0 0  0 0 0 0.5 0" type="matrix" in="shadowBlurOuter1"></feColorMatrix>
        </filter>
    </defs>
    <g id="Page-1" stroke="none" stroke-width="1" fill="none" fill-rule="evenodd">
        <g id="phase4" transform="translate(-847.000000, -5202.000000)">
            <g id="small_brain">
                <use fill="black" fill-opacity="1" filter="url(#filter-2)" xlink:href="#path-1"></use>
                <use fill="#FFCD00" fill-rule="evenodd" xlink:href="#path-1"></use>
            </g>
        </g>
    </g>
</svg>