<?xml version="1.0" encoding="UTF-8"?>
<svg width="30px" height="30px" viewBox="0 0 30 30" version="1.1" xmlns="http://www.w3.org/2000/svg" xmlns:xlink="http://www.w3.org/1999/xlink">
    <!-- Generator: Sketch 49.3 (51167) - http://www.bohemiancoding.com/sketch -->
    <title>small_seed</title>
    <desc>Created with Sketch.</desc>
    <defs>
        <circle id="path-1" cx="12" cy="12" r="12"></circle>
        <filter x="-20.8%" y="-16.7%" width="141.7%" height="141.7%" filterUnits="objectBoundingBox" id="filter-2">
            <feOffset dx="0" dy="1" in="SourceAlpha" result="shadowOffsetOuter1"></feOffset>
            <feGaussianBlur stdDeviation="1.5" in="shadowOffsetOuter1" result="shadowBlurOuter1"></feGaussianBlur>
            <feColorMatrix values="0 0 0 0 0   0 0 0 0 0   0 0 0 0 0  0 0 0 0.5 0" type="matrix" in="shadowBlurOuter1"></feColorMatrix>
        </filter>
    </defs>
    <g id="Page-1" stroke="none" stroke-width="1" fill="none" fill-rule="evenodd">
        <g id="phase4" transform="translate(-601.000000, -5198.000000)">
            <g id="small_seed" transform="translate(604.000000, 5200.000000)">
                <g id="Oval-5">
                    <use fill="black" fill-opacity="1" filter="url(#filter-2)" xlink:href="#path-1"></use>
                    <use fill="#FFFFFF" fill-rule="evenodd" xlink:href="#path-1"></use>
                </g>
                <g transform="translate(8.000000, 4.000000)" fill="#78BE20">
                    <path d="M4.76569517,6 C5.00922669,6.60341465 5.29838834,7.18885047 5.48706118,7.81389591 C5.90388462,9.19405243 6.22585893,10.6014581 6.1215249,12.0894876 C6.11306538,12.210002 6.18484309,12.3785536 6.26790016,12.460863 C6.98670269,13.1724315 7.16076364,13.7851165 6.85775915,14.8163713 C6.50297217,16.0226387 5.74315381,16.7378593 4.66213018,16.9698986 C3.78208415,17.1583955 3.05148957,16.4406467 3.00278327,15.4037735 C2.93741428,14.0056382 4.03330615,12.4546827 5.25711615,12.3350111 C5.78955297,12.2827601 5.89132352,12.0201006 5.86440687,11.5130412 C5.77519743,9.83876222 5.46168263,8.22937556 4.82875702,6.70904031 C4.74646899,6.51127312 4.66315558,6.31406778 4.58009851,6.11686243 C4.64187861,6.07781465 4.70391506,6.03904778 4.76569517,6 M5.91003699,12.4956969 C5.68521894,13.6578601 4.9835918,14.3567873 4.12943701,14.9155358 C5.17662257,14.5298336 5.93464649,13.8707969 5.91003699,12.4956969" id="Fill-1"></path>
                    <path d="M1,0 C2.18654722,0.139786938 3.27493793,0.298111928 4.21175933,0.890828586 C5.16955435,1.4968225 5.05210211,2.39366342 4.89130441,3.30353109 C4.79063106,3.87219838 4.54118489,4.05883148 3.88960463,3.98442876 C1.99107315,3.76823498 1.26147105,3.11439285 1.09368214,1.32271511 C1.05453139,0.905608925 1.03383743,0.486999654 1,0" id="Fill-4"></path>
                    <path d="M0,6.53038232 C1.28195567,4.5056685 2.82411436,4.49667899 4,6.46365251 C2.74483806,8.48075983 1.27505007,8.52052111 0,6.53038232" id="Fill-7"></path>
                    <path d="M5,5.93458589 C5.14424398,3.72372717 6.24187197,2.69597107 8,3.07833612 C7.85245902,5.28302213 6.82791464,6.27477076 5,5.93458589" id="Fill-9"></path>
                </g>
            </g>
        </g>
    </g>
</svg>