<?xml version="1.0" encoding="UTF-8"?>
<svg width="30px" height="30px" viewBox="0 0 30 30" version="1.1" xmlns="http://www.w3.org/2000/svg" xmlns:xlink="http://www.w3.org/1999/xlink">
    <!-- Generator: Sketch 49.3 (51167) - http://www.bohemiancoding.com/sketch -->
    <title>small_brain</title>
    <desc>Created with Sketch.</desc>
    <defs>
        <circle id="path-1" cx="12" cy="12" r="12"></circle>
        <filter x="-20.8%" y="-16.7%" width="141.7%" height="141.7%" filterUnits="objectBoundingBox" id="filter-2">
            <feOffset dx="0" dy="1" in="SourceAlpha" result="shadowOffsetOuter1"></feOffset>
            <feGaussianBlur stdDeviation="1.5" in="shadowOffsetOuter1" result="shadowBlurOuter1"></feGaussianBlur>
            <feColorMatrix values="0 0 0 0 0   0 0 0 0 0   0 0 0 0 0  0 0 0 0.5 0" type="matrix" in="shadowBlurOuter1"></feColorMatrix>
        </filter>
    </defs>
    <g id="Page-1" stroke="none" stroke-width="1" fill="none" fill-rule="evenodd">
        <g id="phase4" transform="translate(-844.000000, -5199.000000)">
            <g id="small_brain" transform="translate(847.000000, 5201.000000)">
                <g id="Oval-5">
                    <use fill="black" fill-opacity="1" filter="url(#filter-2)" xlink:href="#path-1"></use>
                    <use fill="#FFFFFF" fill-rule="evenodd" xlink:href="#path-1"></use>
                </g>
                <path d="M14.1436407,19 L7.94902229,19 C7.68852269,18.8571309 7.6035502,18.6385882 7.61254364,18.339976 C7.63084064,17.7399255 7.62866981,17.1386191 7.61378412,16.5385687 C7.58866451,15.5428807 7.38553685,14.6310302 6.68870042,13.8400689 C6.22941482,13.319146 5.86099395,12.6876958 5.56545096,12.0518496 C4.41460094,9.57597441 5.05313508,6.89223247 7.18333954,5.2660362 C8.56677848,4.21006052 10.1601677,3.87000056 11.8732627,4.04269953 C13.890584,4.24648431 15.5066119,5.16430081 16.6571518,6.8532967 C17.4355494,7.99624986 17.8926641,9.25224234 17.6405378,10.6790498 C17.5279647,11.314896 17.693568,11.8637647 18.1209114,12.3382159 C18.3575319,12.6007183 18.5947726,12.8629067 18.8251907,13.1310611 C19.13717,13.493415 19.0211856,13.8633047 18.5600393,13.981682 C18.4118026,14.0196758 18.2604648,14.0482496 18.1091269,14.0714855 C17.8942147,14.1044553 17.8005589,14.2002247 17.8042804,14.4435733 C17.8132738,15.0213298 17.7841226,15.5997144 17.7741989,16.1777849 C17.7645852,16.7279096 17.5047058,17.0645156 16.9644793,17.1257452 C16.6090834,17.165937 16.2443839,17.1401891 15.8846464,17.1216632 C14.949949,17.0736215 14.5216753,17.4381733 14.4826003,18.3701198 C14.4708158,18.6539741 14.3805713,18.8583868 14.1436407,19 M9.50662548,6.34774091 C9.44268699,6.33338975 9.40016789,6.32403029 9.3576488,6.31435886 C8.69013096,6.16055187 7.97497895,6.45412668 7.77676963,7.00914218 C7.67414836,7.29647736 7.6044554,7.56290976 7.32728205,7.76226608 C7.20260199,7.85211682 7.10957149,8.11137364 7.14505735,8.26112488 C7.23169401,8.62364765 7.07312655,8.87666484 6.90464863,9.16493596 C6.46315336,9.91993175 6.59934234,10.6955183 7.23521062,11.2792362 C7.27613126,11.316986 7.31033835,11.3834381 7.31193681,11.4374109 C7.33687282,12.2597948 7.67446805,12.5206115 8.54690874,12.3633727 C8.66551464,12.7255835 8.96154985,12.8831343 9.32408109,12.9520822 C9.49000147,12.9832804 9.65975816,13.040997 9.82376039,13.0297657 C10.3825828,12.990768 10.7125054,13.1720293 10.7093085,13.7738421 C10.7086691,13.8462219 10.8662775,13.9516717 10.9695381,13.9847418 C11.1341797,14.0377786 11.2332844,13.9485519 11.2837958,13.7791458 C11.3781051,13.4627963 11.5130153,13.1576782 11.5983732,12.8394568 C11.7563012,12.2516832 12.1603925,11.9699637 12.7489463,11.8760572 C13.1856462,11.8061733 13.5488168,11.605881 13.8496474,11.2779882 C14.2396722,10.8524452 14.7029066,10.5382795 15.2920997,10.4028795 C15.766843,10.2939979 15.8796945,10.1242798 15.9273286,9.64039612 C16.472724,9.38737893 16.6591047,9.02485616 16.4391562,8.46484895 C16.3234276,8.17002621 16.0795022,7.92324866 15.8915231,7.6561923 C15.638007,7.29616538 15.3272659,7.02224541 14.9570621,6.75175725 C14.5305923,6.4400875 14.1635854,6.21421272 13.6335353,6.24697081 C13.5318731,6.25321044 13.3886509,6.21046894 13.3272699,6.13902513 C13.0520147,5.81799592 12.7224118,5.75123183 12.3215175,5.84950608 C12.1971571,5.87976831 12.0331549,5.87196876 11.9219019,5.81581205 C11.5136547,5.61084005 11.1268268,5.61739167 10.7278506,5.83390699 C10.6293854,5.88756785 10.4941555,5.91970197 10.3851403,5.90316694 C9.99127923,5.84357843 9.69524402,5.9515241 9.50662548,6.34774091" fill="#FFCD00"></path>
            </g>
        </g>
    </g>
</svg>