<?xml version="1.0" encoding="UTF-8"?>
<svg width="30px" height="30px" viewBox="0 0 30 30" version="1.1" xmlns="http://www.w3.org/2000/svg" xmlns:xlink="http://www.w3.org/1999/xlink">
    <!-- Generator: Sketch 49.3 (51167) - http://www.bohemiancoding.com/sketch -->
    <title>small_tree</title>
    <desc>Created with Sketch.</desc>
    <defs>
        <circle id="path-1" cx="12" cy="12" r="12"></circle>
        <filter x="-20.8%" y="-16.7%" width="141.7%" height="141.7%" filterUnits="objectBoundingBox" id="filter-2">
            <feOffset dx="0" dy="1" in="SourceAlpha" result="shadowOffsetOuter1"></feOffset>
            <feGaussianBlur stdDeviation="1.5" in="shadowOffsetOuter1" result="shadowBlurOuter1"></feGaussianBlur>
            <feColorMatrix values="0 0 0 0 0   0 0 0 0 0   0 0 0 0 0  0 0 0 0.5 0" type="matrix" in="shadowBlurOuter1"></feColorMatrix>
        </filter>
    </defs>
    <g id="Page-1" stroke="none" stroke-width="1" fill="none" fill-rule="evenodd">
        <g id="phase4" transform="translate(-111.000000, -5201.000000)">
            <g id="small_tree" transform="translate(114.000000, 5203.000000)">
                <g id="Oval-5">
                    <use fill="black" fill-opacity="1" filter="url(#filter-2)" xlink:href="#path-1"></use>
                    <use fill="#FFFFFF" fill-rule="evenodd" xlink:href="#path-1"></use>
                </g>
                <path d="M14.4031171,7.09840561 C15.115472,6.68695196 15.664295,6.6855266 16.1752083,7.0872403 C16.6841393,7.48729108 16.750791,7.99210575 16.4014274,8.86870158 C17.0627405,8.93094226 17.4913923,9.26186313 17.6806928,9.87761825 C17.7000193,9.94104673 17.810775,9.99734841 17.8908066,10.0220546 C18.463416,10.198324 18.838796,10.6413732 18.8563881,11.1770706 C18.875219,11.7431757 18.5404742,12.2280354 17.9876868,12.4361378 C17.6868872,12.5492163 17.6526942,12.6965034 17.8885766,12.9167214 C18.2832831,13.2851767 18.4074187,13.7296511 18.248099,14.2233005 C18.0880359,14.7193255 17.711417,15.0186509 17.1744873,15.0977583 C16.6442475,15.1759155 16.2158435,14.9761277 15.9133094,14.5639613 C15.7765373,14.3772393 15.6734626,14.3292522 15.442288,14.4314029 C14.2789815,14.9459576 13.0891631,14.3332907 12.9006058,13.1191223 C12.8250343,12.6330749 13.0361391,12.2092681 13.3173644,11.7460264 C13.2375807,11.7659815 13.1426826,11.766219 13.0804909,11.8094549 C12.8460952,11.9717083 12.6178939,12.1432265 12.396878,12.3221091 C12.3324564,12.3743722 12.256637,12.4636947 12.258867,12.5337749 C12.2764591,13.082063 12.2878568,13.6322516 12.3485618,14.1769763 C12.4132312,14.7561472 12.738065,15.215588 13.1704335,15.6168266 C13.2635971,15.7032983 13.3287621,15.8555742 13.3371864,15.981956 C13.3607251,16.3435221 13.3406553,16.7077014 13.352053,17.0704553 C13.3802994,17.9765085 13.7482462,18.3644437 14.6798825,18.4874997 C14.8399455,18.5086426 15.0054596,18.5195703 15.1566027,18.5682701 C15.2968437,18.6134065 15.4217226,18.7029665 15.5532915,18.7728091 C15.5431327,18.8010787 15.5332217,18.8291108 15.5233106,18.8571429 L9.01449321,18.8571429 C8.90175531,18.599628 9.08560481,18.4915383 9.30315179,18.4366619 C9.61534906,18.3582672 9.93696179,18.315744 10.2521324,18.2470892 C11.3096387,18.0173688 11.6753555,17.5025766 11.5351145,16.4822571 C11.4436853,15.8175646 11.3738125,15.1500215 11.2885777,14.4347288 C11.1869897,14.5207254 11.1136482,14.5853417 11.037581,14.6471073 C10.5866294,15.0143748 10.0816627,15.1908818 9.48130245,15.0799413 C9.38789105,15.0625994 9.24665895,15.1063105 9.17777733,15.1709267 C8.33856135,15.9577249 7.28378059,15.7415455 6.87395974,14.6912934 C6.8590932,14.6530463 6.84100558,14.6159869 6.82490017,14.5796403 C5.88756505,14.663974 5.32387554,14.2515701 5.17099799,13.5286755 C5.02927034,12.859707 5.43066683,12.3337495 6.19951454,12.0605557 C6.36478087,11.6505274 6.51319846,11.2827847 6.66434158,10.9079153 C6.24683968,10.9483005 5.80307357,10.8497131 5.51689274,10.4769817 C5.34642312,10.2548633 5.21113764,9.96789099 5.17744016,9.69659765 C5.10062972,9.08440592 5.56669564,8.57056398 6.29391704,8.37624002 C6.41384044,6.9328264 7.20498795,6.43157513 8.45749364,7.0233367 C8.51918977,6.56793448 8.65051084,6.13700092 9.10071912,5.90751811 C9.32148719,5.79491474 9.59527923,5.68159869 9.82694942,5.70891807 C10.1406333,5.74621497 10.3217573,5.65546711 10.5502064,5.47064555 C11.2962588,4.8662933 12.4253722,5.13069741 12.8339542,5.99232697 C12.9194368,6.17239733 13.0091315,6.23131218 13.2120598,6.23606337 C13.664498,6.24675357 14.0098972,6.46222035 14.2482574,6.83091323 C14.3040069,6.91738501 14.3515798,7.00884555 14.4031171,7.09840561" fill="#00B5E2"></path>
            </g>
        </g>
    </g>
</svg>