<?xml version="1.0" encoding="UTF-8"?>
<svg width="30px" height="30px" viewBox="0 0 30 30" version="1.1" xmlns="http://www.w3.org/2000/svg" xmlns:xlink="http://www.w3.org/1999/xlink">
    <!-- Generator: Sketch 49.3 (51167) - http://www.bohemiancoding.com/sketch -->
    <title>small_tree</title>
    <desc>Created with Sketch.</desc>
    <defs>
        <path d="M128.855,5208.13703 C129.997736,5207.47699 130.87814,5207.4747 131.69773,5208.11911 C132.51414,5208.76086 132.621061,5209.57067 132.060623,5210.97688 C133.12148,5211.07672 133.809108,5211.60757 134.112778,5212.59535 C134.143781,5212.6971 134.321452,5212.78741 134.449836,5212.82705 C135.368396,5213.10981 135.970569,5213.82054 135.998789,5214.67988 C136.028997,5215.58801 135.492011,5216.36581 134.605248,5216.69964 C134.122715,5216.88103 134.067864,5217.11731 134.446258,5217.47057 C135.079433,5218.06164 135.278567,5218.77465 135.022992,5219.56654 C134.766224,5220.36225 134.162065,5220.84242 133.30074,5220.96932 C132.450147,5221.0947 131.762916,5220.7742 131.277601,5220.11302 C131.058195,5219.81349 130.892846,5219.73651 130.522004,5219.90038 C128.655866,5220.72581 126.747199,5219.74299 126.444722,5217.79526 C126.323492,5217.01556 126.66214,5216.3357 127.113272,5215.59258 C126.985286,5215.6246 126.833053,5215.62498 126.733288,5215.69433 C126.357278,5215.95462 125.991205,5216.22976 125.636658,5216.51672 C125.533315,5216.60056 125.411689,5216.74384 125.415266,5216.85626 C125.443486,5217.73581 125.46177,5218.6184 125.559151,5219.49223 C125.662892,5220.42132 126.183979,5221.15834 126.87757,5221.80199 C127.02702,5221.94071 127.131556,5222.18498 127.14507,5222.38772 C127.18283,5222.96773 127.150635,5223.55194 127.168918,5224.13386 C127.21423,5225.58732 127.804478,5226.20963 129.298978,5226.40703 C129.555746,5226.44095 129.821258,5226.45848 130.063717,5226.5366 C130.288687,5226.60901 130.489013,5226.75268 130.700072,5226.86471 C130.683775,5226.91006 130.667876,5226.95503 130.651977,5227 L120.21075,5227 C120.029899,5226.5869 120.324824,5226.41351 120.673806,5226.32548 C121.174622,5226.19972 121.690543,5226.13151 122.196129,5226.02137 C123.892545,5225.65286 124.479216,5224.82705 124.254246,5223.19029 C124.107578,5222.12401 123.995491,5221.05316 123.85876,5219.90571 C123.695796,5220.04366 123.578144,5220.14732 123.45612,5220.2464 C122.732718,5220.83556 121.922667,5221.11871 120.959589,5220.94074 C120.809742,5220.91292 120.583182,5220.98304 120.472684,5221.08669 C119.126442,5222.34885 117.434398,5222.00206 116.776977,5220.31728 C116.753129,5220.25593 116.724113,5220.19648 116.698277,5220.13817 C115.194636,5220.27346 114.290384,5219.61189 114.045143,5218.45225 C113.817788,5217.37911 114.461695,5216.53539 115.695055,5216.09714 C115.960169,5215.43939 116.198256,5214.84947 116.440715,5214.24811 C115.770972,5214.3129 115.059097,5214.15475 114.600015,5213.55682 C114.326554,5213.20051 114.109533,5212.74016 114.055477,5212.30496 C113.93226,5211.3229 114.679908,5210.49861 115.846492,5210.18689 C116.038869,5207.87141 117.308002,5207.06732 119.317229,5208.0166 C119.4162,5207.28606 119.626861,5206.59477 120.34907,5206.22664 C120.703219,5206.04601 121.142427,5205.86423 121.514065,5205.90806 C122.017266,5205.96789 122.307819,5205.82231 122.674289,5205.52583 C123.871082,5204.55635 125.682368,5204.98049 126.337802,5206.36269 C126.47493,5206.65155 126.618815,5206.74606 126.944346,5206.75368 C127.670132,5206.77083 128.22421,5207.11648 128.60658,5207.70792 C128.696011,5207.84664 128.772326,5207.99336 128.855,5208.13703" id="path-1"></path>
        <filter x="-31.8%" y="-22.7%" width="163.6%" height="163.6%" filterUnits="objectBoundingBox" id="filter-2">
            <feOffset dx="0" dy="2" in="SourceAlpha" result="shadowOffsetOuter1"></feOffset>
            <feGaussianBlur stdDeviation="2" in="shadowOffsetOuter1" result="shadowBlurOuter1"></feGaussianBlur>
            <feColorMatrix values="0 0 0 0 0   0 0 0 0 0   0 0 0 0 0  0 0 0 0.5 0" type="matrix" in="shadowBlurOuter1"></feColorMatrix>
        </filter>
    </defs>
    <g id="Page-1" stroke="none" stroke-width="1" fill="none" fill-rule="evenodd">
        <g id="phase4" transform="translate(-110.000000, -5203.000000)">
            <g id="small_tree">
                <use fill="black" fill-opacity="1" filter="url(#filter-2)" xlink:href="#path-1"></use>
                <use fill="#00B5E2" fill-rule="evenodd" xlink:href="#path-1"></use>
            </g>
        </g>
    </g>
</svg>