<?xml version="1.0" encoding="UTF-8"?>
<svg width="31px" height="33px" viewBox="0 0 31 33" version="1.1" xmlns="http://www.w3.org/2000/svg" xmlns:xlink="http://www.w3.org/1999/xlink">
    <!-- Generator: Sketch 50.2 (55047) - http://www.bohemiancoding.com/sketch -->
    <title>topic-yellow</title>
    <desc>Created with Sketch.</desc>
    <defs>
        <filter x="-2.3%" y="-6.5%" width="104.5%" height="116.1%" filterUnits="objectBoundingBox" id="filter-1">
            <feOffset dx="0" dy="1" in="SourceAlpha" result="shadowOffsetOuter1"></feOffset>
            <feGaussianBlur stdDeviation="1.5" in="shadowOffsetOuter1" result="shadowBlurOuter1"></feGaussianBlur>
            <feColorMatrix values="0 0 0 0 0.494924532   0 0 0 0 0.494924532   0 0 0 0 0.494924532  0 0 0 0.5 0" type="matrix" in="shadowBlurOuter1" result="shadowMatrixOuter1"></feColorMatrix>
            <feMerge>
                <feMergeNode in="shadowMatrixOuter1"></feMergeNode>
                <feMergeNode in="SourceGraphic"></feMergeNode>
            </feMerge>
        </filter>
    </defs>
    <g id="Page-1" stroke="none" stroke-width="1" fill="none" fill-rule="evenodd">
        <g id="phase4-copy" transform="translate(-843.000000, -1295.000000)" fill="#FFCD00">
            <g id="content-header" filter="url(#filter-1)" transform="translate(826.000000, 1279.000000)">
                <g id="human&amp;social">
                    <g id="brain-icon" transform="translate(20.000000, 18.000000)">
                        <path d="M16.3102781,26.4864865 L5.26041814,26.4864865 C4.79574318,26.234213 4.64417063,25.8483178 4.66021298,25.3210386 C4.69285087,24.2614901 4.68897858,23.1997239 4.66242572,22.1401754 C4.61761778,20.3820236 4.25528195,18.7719091 3.01227642,17.3752568 C2.19301021,16.455429 1.53582705,15.3404358 1.00864225,14.2176804 C-1.04422535,9.84586472 0.0947814878,5.10700508 3.89460567,2.23552339 C6.36236162,0.370917682 9.20462347,-0.229548562 12.2604145,0.0753973603 C15.8588796,0.435233549 18.7415239,2.05588252 20.7938383,5.03825364 C22.1823313,7.0564412 22.9977252,9.27422972 22.5479863,11.7936375 C22.3471803,12.9163929 22.6425808,13.8855665 23.404869,14.7233361 C23.8269488,15.1868539 24.2501349,15.6498173 24.661151,16.1233151 C25.2176545,16.7631471 25.0107636,17.4162859 24.1881782,17.6253124 C23.9237561,17.6924005 23.653802,17.7428552 23.383848,17.7838843 C23.0004912,17.8421013 22.8334294,18.0112076 22.8400677,18.4409042 C22.85611,19.4610869 22.8041107,20.4823785 22.7864088,21.5031157 C22.76926,22.474507 22.3056915,23.0688744 21.3420441,23.1769916 C20.7080947,23.2479608 20.0575497,23.2024961 19.4158557,23.1697837 C17.7485577,23.0849533 16.98461,23.7286665 16.9149087,25.3742655 C16.8938877,25.8754857 16.732911,26.2364308 16.3102781,26.4864865 M7.35643413,3.6931649 C7.24579723,3.66766033 7.1722237,3.65102691 7.09865016,3.63383905 C5.94360097,3.36049662 4.70612729,3.88223137 4.36315292,4.86859282 C4.1855807,5.37923862 4.06498648,5.85273647 3.58537554,6.20702819 C3.3696336,6.36670897 3.20865691,6.82745453 3.27006039,7.09358916 C3.41997338,7.73785672 3.14559388,8.18751335 2.85406566,8.6998225 C2.0901179,10.0415846 2.32577449,11.4199401 3.42605841,12.4573107 C3.49686603,12.5243988 3.55605677,12.6424961 3.55882269,12.7384154 C3.60197108,14.199938 4.18613389,14.6634558 5.69577433,14.3840145 C5.90100577,15.0277276 6.41325459,15.3077234 7.04056579,15.4302562 C7.32766854,15.4857009 7.62140949,15.5882737 7.90519313,15.5683136 C8.8721596,15.4990077 9.44304598,15.8211415 9.43751413,16.89067 C9.43640776,17.0193017 9.70912771,17.2067048 9.8878063,17.2654762 C10.1726963,17.3597322 10.3441835,17.2011604 10.4315866,16.9000956 C10.5947761,16.3378862 10.8282199,15.7956369 10.9759202,15.2301008 C11.2491933,14.1855224 11.9484185,13.6848567 12.9668311,13.5179681 C13.7224811,13.3937719 14.3508987,13.0378169 14.8714453,12.4550929 C15.5463303,11.698827 16.3478946,11.1404988 17.3674136,10.8998687 C18.1888926,10.7063667 18.3841667,10.4047474 18.4665912,9.54479993 C19.4103239,9.0951433 19.7328304,8.45087573 19.3522395,7.45564313 C19.1519867,6.93169059 18.729907,6.49312291 18.4046345,6.01851617 C17.9659592,5.37868418 17.4282639,4.89187959 16.7876763,4.41117393 C16.0497282,3.85728125 15.4146724,3.45586152 14.4974926,3.51407847 C14.3215799,3.52516741 14.0737532,3.44920816 13.9675418,3.32223976 C13.49125,2.75171367 12.9209168,2.63306198 12.2272235,2.80771283 C12.0120347,2.8614942 11.7282511,2.84763302 11.5357429,2.74783254 C10.8293263,2.38356077 10.1599731,2.39520416 9.46959883,2.77999047 C9.29921801,2.87535538 9.06522098,2.93246343 8.87658507,2.90307773 C8.1950618,2.79717833 7.68281297,2.98901704 7.35643413,3.6931649" id="topic-yellow"></path>
                    </g>
                </g>
            </g>
        </g>
    </g>
</svg>