<?xml version="1.0" encoding="UTF-8"?>
<svg width="22px" height="18px" viewBox="0 0 22 18" version="1.1" xmlns="http://www.w3.org/2000/svg" xmlns:xlink="http://www.w3.org/1999/xlink">
    <!-- Generator: Sketch 48.2 (47327) - http://www.bohemiancoding.com/sketch -->
    <title>twitter</title>
    <desc>Created with Sketch.</desc>
    <defs></defs>
    <g id="phase2" stroke="none" stroke-width="1" fill="none" fill-rule="evenodd" transform="translate(-1072.000000, -3159.000000)">
        <g id="Articles" transform="translate(100.000000, 2965.000000)" fill="#BA0C2F">
            <g id="profile-AS" transform="translate(0.000000, 141.000000)">
                <g id="more-options" transform="translate(829.000000, 45.000000)">
                    <path d="M165,10.1282051 C164.388889,11.0512821 163.625,11.8461538 162.759259,12.4871795 L162.759259,13.0769231 C162.759259,19.0769231 158.226852,26 149.925926,26 C147.37963,26 144.986111,25.4358974 143,24.1538462 C143.356481,24.2051282 143.712963,24.2307692 144.069444,24.2307692 C146.18287,24.2307692 148.143519,23.3076923 149.671296,22.0769231 C147.710648,22.0512821 146.030093,20.7179487 145.469907,18.9230769 C145.75,18.974359 146.030093,19 146.310185,19 C146.717593,19 147.125,18.9487179 147.506944,18.8461538 C145.444444,18.4358974 143.891204,16.5897436 143.891204,14.3846154 L143.891204,14.3333333 C144.502315,14.6666667 145.189815,14.8717949 145.928241,14.8974359 C144.706019,14.0769231 143.916667,12.6923077 143.916667,11.1282051 C143.916667,10.2820513 144.145833,9.58974359 144.527778,8.92307692 C146.768519,11.6666667 150.078704,13.3846154 153.821759,13.5897436 C153.74537,13.2564103 153.719907,12.8974359 153.719907,12.5384615 C153.719907,10.025641 155.731481,8 158.226852,8 C159.525463,8 160.696759,8.56410256 161.537037,9.43589744 C162.555556,9.23076923 163.523148,8.84615385 164.388889,8.33333333 C164.05787,9.38461538 163.344907,10.2820513 162.402778,10.8461538 C163.319444,10.7435897 164.185185,10.4871795 165,10.1282051 Z" id="twitter"></path>
                </g>
            </g>
        </g>
    </g>
</svg>