<?xml version="1.0" encoding="UTF-8"?>
<svg width="341px" height="29px" viewBox="0 0 341 29" version="1.1" xmlns="http://www.w3.org/2000/svg" xmlns:xlink="http://www.w3.org/1999/xlink">
    <!-- Generator: Sketch 48.2 (47327) - http://www.bohemiancoding.com/sketch -->
    <title>logo</title>
    <desc>Created with Sketch.</desc>
    <defs></defs>
    <g id="phase1" stroke="none" stroke-width="1" fill="none" fill-rule="evenodd" transform="translate(-69.000000, -29.000000)">
        <g id="logo" transform="translate(69.000000, 29.000000)" fill="#FFFFFF">
            <path d="M159.056359,11.9079952 C155.644326,11.9079952 153,9.51957208 153,6.02223825 C153,2.52490442 155.644326,0.13648132 159.056359,0.13648132 C161.564203,0.13648132 163.014317,1.50129452 163.816145,2.91728822 L161.734804,3.94089812 C161.25712,3.01964921 160.23351,2.28606211 159.056359,2.28606211 C156.992079,2.28606211 155.490784,3.87265746 155.490784,6.02223825 C155.490784,8.17181904 156.992079,9.75841439 159.056359,9.75841439 C160.23351,9.75841439 161.25712,9.04188746 161.734804,8.10357838 L163.816145,9.11012812 C162.997257,10.5261218 161.564203,11.9079952 159.056359,11.9079952 Z M169.036555,11.9079952 C166.323989,11.9079952 164.686213,9.92901604 164.686213,7.57471327 C164.686213,5.23747066 166.323989,3.25849152 169.036555,3.25849152 C171.766182,3.25849152 173.403957,5.23747066 173.403957,7.57471327 C173.403957,9.92901604 171.766182,11.9079952 169.036555,11.9079952 Z M169.036555,9.98019653 C170.384308,9.98019653 171.152016,8.87128581 171.152016,7.57471327 C171.152016,6.29520089 170.384308,5.18629016 169.036555,5.18629016 C167.688802,5.18629016 166.938155,6.29520089 166.938155,7.57471327 C166.938155,8.87128581 167.688802,9.98019653 169.036555,9.98019653 Z M177.174254,11.7032732 L175.007613,11.7032732 L175.007613,0.324143135 L177.174254,0.324143135 L177.174254,11.7032732 Z M181.490476,11.7032732 L179.323835,11.7032732 L179.323835,0.324143135 L181.490476,0.324143135 L181.490476,11.7032732 Z M187.512714,11.9079952 C185.00487,11.9079952 183.111191,10.2190388 183.111191,7.57471327 C183.111191,5.18629016 184.868388,3.25849152 187.376233,3.25849152 C189.832896,3.25849152 191.504792,5.10098934 191.504792,7.79649541 L191.504792,8.27418003 L185.380193,8.27418003 C185.516675,9.3148501 186.352623,10.1849185 187.751556,10.1849185 C188.451023,10.1849185 189.423452,9.87783554 189.952317,9.36603059 L190.907687,10.7649641 C190.088799,11.5156114 188.792226,11.9079952 187.512714,11.9079952 Z M189.406392,6.80700584 C189.355212,6.02223825 188.809286,4.98156818 187.376233,4.98156818 C186.028479,4.98156818 185.448434,5.98811792 185.346073,6.80700584 L189.406392,6.80700584 Z M196.45224,15.0470655 C195.036247,15.0470655 193.944396,14.7229224 192.903726,13.8187337 L193.876155,12.2491985 C194.541502,12.9827856 195.41157,13.2728084 196.45224,13.2728084 C197.49291,13.2728084 198.721242,12.8121839 198.721242,11.1914682 L198.721242,10.3555202 C198.072956,11.1744081 197.185827,11.6520927 196.179278,11.6520927 C194.114998,11.6520927 192.545463,10.2019787 192.545463,7.45529211 C192.545463,4.75978604 194.097938,3.25849152 196.179278,3.25849152 C197.168767,3.25849152 198.055896,3.68499564 198.721242,4.52094373 L198.721242,3.4632135 L200.904943,3.4632135 L200.904943,11.1402878 C200.904943,14.2793581 198.4824,15.0470655 196.45224,15.0470655 Z M196.861684,9.72429406 C197.578211,9.72429406 198.362979,9.3148501 198.721242,8.78598498 L198.721242,6.12459924 C198.362979,5.57867396 197.578211,5.18629016 196.861684,5.18629016 C195.633352,5.18629016 194.780344,6.03929841 194.780344,7.45529211 C194.780344,8.87128581 195.633352,9.72429406 196.861684,9.72429406 Z M206.927182,11.9079952 C204.419337,11.9079952 202.525659,10.2190388 202.525659,7.57471327 C202.525659,5.18629016 204.282856,3.25849152 206.7907,3.25849152 C209.247364,3.25849152 210.91926,5.10098934 210.91926,7.79649541 L210.91926,8.27418003 L204.794661,8.27418003 C204.931142,9.3148501 205.76709,10.1849185 207.166024,10.1849185 C207.865491,10.1849185 208.83792,9.87783554 209.366785,9.36603059 L210.322154,10.7649641 C209.503267,11.5156114 208.206694,11.9079952 206.927182,11.9079952 Z M208.82086,6.80700584 C208.769679,6.02223825 208.223754,4.98156818 206.7907,4.98156818 C205.442947,4.98156818 204.862902,5.98811792 204.760541,6.80700584 L208.82086,6.80700584 Z M220.677675,11.9079952 C217.965108,11.9079952 216.327333,9.92901604 216.327333,7.57471327 C216.327333,5.23747066 217.965108,3.25849152 220.677675,3.25849152 C223.407301,3.25849152 225.045077,5.23747066 225.045077,7.57471327 C225.045077,9.92901604 223.407301,11.9079952 220.677675,11.9079952 Z M220.677675,9.98019653 C222.025428,9.98019653 222.793135,8.87128581 222.793135,7.57471327 C222.793135,6.29520089 222.025428,5.18629016 220.677675,5.18629016 C219.329922,5.18629016 218.579274,6.29520089 218.579274,7.57471327 C218.579274,8.87128581 219.329922,9.98019653 220.677675,9.98019653 Z M229.310118,11.7032732 L227.126417,11.7032732 L227.126417,5.35689181 L225.761604,5.35689181 L225.761604,3.4632135 L227.126417,3.4632135 L227.126417,3.01964921 C227.126417,1.26245221 228.252388,0.153541485 229.907224,0.153541485 C230.691991,0.153541485 231.52794,0.358263465 232.056805,0.921248911 L231.237917,2.20076129 C231.016135,1.97897914 230.726112,1.85955799 230.333728,1.85955799 C229.736622,1.85955799 229.310118,2.25194178 229.310118,3.01964921 L229.310118,3.4632135 L230.982014,3.4632135 L230.982014,5.35689181 L229.310118,5.35689181 L229.310118,11.7032732 Z M247.257412,11.7032732 L244.493665,11.7032732 L243.794198,9.77547455 L238.914991,9.77547455 L238.198464,11.7032732 L235.434717,11.7032732 L239.83624,0.324143135 L242.872949,0.324143135 L247.257412,11.7032732 Z M243.128852,7.64295393 L241.354595,2.74668657 L239.580337,7.64295393 L243.128852,7.64295393 Z M251.641874,15.0470655 C250.22588,15.0470655 249.13403,14.7229224 248.09336,13.8187337 L249.065789,12.2491985 C249.731136,12.9827856 250.601204,13.2728084 251.641874,13.2728084 C252.682544,13.2728084 253.910876,12.8121839 253.910876,11.1914682 L253.910876,10.3555202 C253.26259,11.1744081 252.375461,11.6520927 251.368911,11.6520927 C249.304632,11.6520927 247.735096,10.2019787 247.735096,7.45529211 C247.735096,4.75978604 249.287571,3.25849152 251.368911,3.25849152 C252.358401,3.25849152 253.24553,3.68499564 253.910876,4.52094373 L253.910876,3.4632135 L256.094577,3.4632135 L256.094577,11.1402878 C256.094577,14.2793581 253.672034,15.0470655 251.641874,15.0470655 Z M252.051318,9.72429406 C252.767845,9.72429406 253.552613,9.3148501 253.910876,8.78598498 L253.910876,6.12459924 C253.552613,5.57867396 252.767845,5.18629016 252.051318,5.18629016 C250.822986,5.18629016 249.969978,6.03929841 249.969978,7.45529211 C249.969978,8.87128581 250.822986,9.72429406 252.051318,9.72429406 Z M260.410799,11.7032732 L258.244158,11.7032732 L258.244158,3.4632135 L260.410799,3.4632135 L260.410799,4.58918439 C260.990845,3.85559729 262.014454,3.25849152 263.038064,3.25849152 L263.038064,5.37395198 C262.884523,5.33983165 262.679801,5.32277148 262.440959,5.32277148 C261.724432,5.32277148 260.769062,5.73221544 260.410799,6.26108056 L260.410799,11.7032732 Z M265.460608,2.57608492 C264.761141,2.57608492 264.164035,1.99603931 264.164035,1.27951238 C264.164035,0.562985445 264.761141,0 265.460608,0 C266.177135,0 266.75718,0.562985445 266.75718,1.27951238 C266.75718,1.99603931 266.177135,2.57608492 265.460608,2.57608492 Z M266.552458,11.7032732 L264.385817,11.7032732 L264.385817,3.4632135 L266.552458,3.4632135 L266.552458,11.7032732 Z M272.540576,11.9079952 C269.998612,11.9079952 268.173174,10.1166779 268.173174,7.57471327 C268.173174,5.04980884 269.998612,3.25849152 272.540576,3.25849152 C274.229533,3.25849152 275.253142,3.99207861 275.799068,4.74272587 L274.383074,6.07341874 C273.99069,5.49337313 273.393584,5.18629016 272.642937,5.18629016 C271.329305,5.18629016 270.408056,6.1416594 270.408056,7.57471327 C270.408056,9.00776713 271.329305,9.98019653 272.642937,9.98019653 C273.393584,9.98019653 273.99069,9.63899323 274.383074,9.09306795 L275.799068,10.4067007 C275.253142,11.1744081 274.229533,11.9079952 272.540576,11.9079952 Z M284.943316,11.7032732 L282.776675,11.7032732 L282.776675,10.6626031 C282.21369,11.2938292 281.2242,11.9079952 279.876447,11.9079952 C278.06807,11.9079952 277.215061,10.9185056 277.215061,9.3148501 L277.215061,3.4632135 L279.381702,3.4632135 L279.381702,8.46184185 C279.381702,9.6048729 279.978808,9.98019653 280.900057,9.98019653 C281.736005,9.98019653 282.401352,9.51957208 282.776675,9.04188746 L282.776675,3.4632135 L284.943316,3.4632135 L284.943316,11.7032732 Z M289.259538,11.7032732 L287.092897,11.7032732 L287.092897,0.324143135 L289.259538,0.324143135 L289.259538,11.7032732 Z M294.172865,11.9079952 C292.654511,11.9079952 291.835623,11.1232276 291.835623,9.6560534 L291.835623,5.35689181 L290.47081,5.35689181 L290.47081,3.4632135 L291.835623,3.4632135 L291.835623,1.21127172 L294.019324,1.21127172 L294.019324,3.4632135 L295.69122,3.4632135 L295.69122,5.35689181 L294.019324,5.35689181 L294.019324,9.07600779 C294.019324,9.58781274 294.292287,9.98019653 294.769971,9.98019653 C295.094114,9.98019653 295.401197,9.86077538 295.520619,9.74135422 L295.981243,11.3791301 C295.6571,11.6691529 295.077054,11.9079952 294.172865,11.9079952 Z M304.903709,11.7032732 L302.737068,11.7032732 L302.737068,10.6626031 C302.174083,11.2938292 301.184593,11.9079952 299.83684,11.9079952 C298.028463,11.9079952 297.175455,10.9185056 297.175455,9.3148501 L297.175455,3.4632135 L299.342095,3.4632135 L299.342095,8.46184185 C299.342095,9.6048729 299.939201,9.98019653 300.86045,9.98019653 C301.696398,9.98019653 302.361745,9.51957208 302.737068,9.04188746 L302.737068,3.4632135 L304.903709,3.4632135 L304.903709,11.7032732 Z M309.219931,11.7032732 L307.05329,11.7032732 L307.05329,3.4632135 L309.219931,3.4632135 L309.219931,4.58918439 C309.799977,3.85559729 310.823587,3.25849152 311.847196,3.25849152 L311.847196,5.37395198 C311.693655,5.33983165 311.488933,5.32277148 311.250091,5.32277148 C310.533564,5.32277148 309.578194,5.73221544 309.219931,6.26108056 L309.219931,11.7032732 Z M320.309038,11.7032732 L318.142397,11.7032732 L318.142397,10.8502649 C317.579412,11.5156114 316.606982,11.9079952 315.532192,11.9079952 C314.218559,11.9079952 312.666084,11.0208666 312.666084,9.17836878 C312.666084,7.25057013 314.218559,6.51698304 315.532192,6.51698304 C316.624043,6.51698304 317.596472,6.8752465 318.142397,7.52353277 L318.142397,6.41462205 C318.142397,5.57867396 317.42587,5.03274868 316.33402,5.03274868 C315.446891,5.03274868 314.628003,5.35689181 313.928537,6.00517808 L313.109649,4.55506406 C314.116198,3.66793548 315.412771,3.25849152 316.709343,3.25849152 C318.585962,3.25849152 320.309038,4.00913878 320.309038,6.38050172 L320.309038,11.7032732 Z M316.40226,10.440821 C317.101727,10.440821 317.784134,10.2019787 318.142397,9.72429406 L318.142397,8.70068416 C317.784134,8.22299954 317.101727,7.98415723 316.40226,7.98415723 C315.549252,7.98415723 314.849785,8.42772152 314.849785,9.22954927 C314.849785,9.9972567 315.549252,10.440821 316.40226,10.440821 Z M324.62526,11.7032732 L322.458619,11.7032732 L322.458619,0.324143135 L324.62526,0.324143135 L324.62526,11.7032732 Z M340.951838,11.7032732 L338.188091,11.7032732 C337.949249,11.4814911 337.659226,11.1914682 337.335083,10.8502649 C336.482075,11.4985512 335.441405,11.9079952 334.230133,11.9079952 C332.148793,11.9079952 330.476897,10.8161446 330.476897,8.61538333 C330.476897,6.89230667 331.619928,5.98811792 332.9165,5.33983165 C332.472936,4.50388356 332.165853,3.65087531 332.165853,2.88316789 C332.165853,1.34775304 333.530666,0.153541485 335.424344,0.153541485 C337.028,0.153541485 338.409873,1.04067007 338.409873,2.55902475 C338.409873,4.29916158 337.01094,5.03274868 335.612006,5.68103495 C335.95321,6.1416594 336.311473,6.56816353 336.601496,6.90936683 C336.925639,7.31881079 337.249782,7.69413442 337.556865,8.06945805 C338.03455,7.33587096 338.392813,6.5340432 338.597535,5.86869676 L340.337672,6.67052452 C339.928228,7.57471327 339.399363,8.54714267 338.751077,9.41721109 C339.433483,10.1507982 340.15001,10.9014454 340.951838,11.7032732 Z M334.537216,10.2019787 C335.117262,10.2019787 335.680247,9.98019653 336.174992,9.62193307 C335.663187,9.05894762 335.185502,8.51302234 334.91254,8.17181904 C334.537216,7.71119459 334.144832,7.19938964 333.769508,6.67052452 C333.172403,7.09702865 332.780019,7.62589376 332.780019,8.41066135 C332.780019,9.51957208 333.598907,10.2019787 334.537216,10.2019787 Z M334.332494,2.93434838 C334.332494,3.39497284 334.537216,3.92383795 334.827239,4.46976323 C335.782608,4.00913878 336.533255,3.51439399 336.533255,2.67844591 C336.533255,2.08134013 336.089691,1.72307667 335.526705,1.72307667 C334.861359,1.72307667 334.332494,2.23488162 334.332494,2.93434838 Z M165.539221,28.107278 L157.486823,28.107278 L157.486823,16.728148 L165.539221,16.728148 L165.539221,18.8606686 L159.909367,18.8606686 L159.909367,21.2661518 L165.4198,21.2661518 L165.4198,23.3986725 L159.909367,23.3986725 L159.909367,25.9747574 L165.539221,25.9747574 L165.539221,28.107278 Z M175.109974,28.107278 L172.943333,28.107278 L172.943333,23.1257098 C172.943333,21.9826788 172.346227,21.590295 171.424978,21.590295 C170.57197,21.590295 169.906624,22.0679796 169.54836,22.5627244 L169.54836,28.107278 L167.381719,28.107278 L167.381719,19.8672183 L169.54836,19.8672183 L169.54836,20.9420087 C170.077225,20.3107826 171.083775,19.6624963 172.431528,19.6624963 C174.239905,19.6624963 175.109974,20.6861062 175.109974,22.2897618 L175.109974,28.107278 Z M181.729318,28.107278 L179.392075,28.107278 L176.082403,19.8672183 L178.402586,19.8672183 L180.552166,25.5994338 L182.701747,19.8672183 L185.03899,19.8672183 L181.729318,28.107278 Z M187.08621,18.9800897 C186.386743,18.9800897 185.789637,18.4000441 185.789637,17.6835172 C185.789637,16.9669903 186.386743,16.4040048 187.08621,16.4040048 C187.802737,16.4040048 188.382782,16.9669903 188.382782,17.6835172 C188.382782,18.4000441 187.802737,18.9800897 187.08621,18.9800897 Z M188.17806,28.107278 L186.011419,28.107278 L186.011419,19.8672183 L188.17806,19.8672183 L188.17806,28.107278 Z M192.494282,28.107278 L190.327641,28.107278 L190.327641,19.8672183 L192.494282,19.8672183 L192.494282,20.9931892 C193.074328,20.2596021 194.097938,19.6624963 195.121547,19.6624963 L195.121547,21.7779568 C194.968006,21.7438365 194.763284,21.7267763 194.524442,21.7267763 C193.807915,21.7267763 192.852545,22.1362203 192.494282,22.6650854 L192.494282,28.107278 Z M200.290777,28.312 C197.578211,28.312 195.940435,26.3330209 195.940435,23.9787181 C195.940435,21.6414755 197.578211,19.6624963 200.290777,19.6624963 C203.020404,19.6624963 204.65818,21.6414755 204.65818,23.9787181 C204.65818,26.3330209 203.020404,28.312 200.290777,28.312 Z M200.290777,26.3842014 C201.63853,26.3842014 202.406238,25.2752906 202.406238,23.9787181 C202.406238,22.6992057 201.63853,21.590295 200.290777,21.590295 C198.943024,21.590295 198.192377,22.6992057 198.192377,23.9787181 C198.192377,25.2752906 198.943024,26.3842014 200.290777,26.3842014 Z M213.99009,28.107278 L211.823449,28.107278 L211.823449,23.1257098 C211.823449,21.9826788 211.226343,21.590295 210.305094,21.590295 C209.452086,21.590295 208.78674,22.0679796 208.428476,22.5627244 L208.428476,28.107278 L206.261835,28.107278 L206.261835,19.8672183 L208.428476,19.8672183 L208.428476,20.9420087 C208.957341,20.3107826 209.963891,19.6624963 211.311644,19.6624963 C213.120022,19.6624963 213.99009,20.6861062 213.99009,22.2897618 L213.99009,28.107278 Z M228.542411,28.107278 L226.35871,28.107278 L226.35871,22.9039277 C226.35871,22.1362203 226.017506,21.590295 225.130378,21.590295 C224.36267,21.590295 223.731444,22.1020999 223.424361,22.5456642 L223.424361,28.107278 L221.24066,28.107278 L221.24066,22.9039277 C221.24066,22.1362203 220.899457,21.590295 220.012328,21.590295 C219.261681,21.590295 218.630455,22.1020999 218.306312,22.5627244 L218.306312,28.107278 L216.139671,28.107278 L216.139671,19.8672183 L218.306312,19.8672183 L218.306312,20.9420087 C218.647515,20.4472639 219.739366,19.6624963 221.001818,19.6624963 C222.213089,19.6624963 222.980797,20.2254818 223.28788,21.1637909 C223.765564,20.4131436 224.857415,19.6624963 226.119867,19.6624963 C227.638222,19.6624963 228.542411,20.4643241 228.542411,22.1532804 L228.542411,28.107278 Z M234.547589,28.312 C232.039745,28.312 230.146066,26.6230437 230.146066,23.9787181 C230.146066,21.590295 231.903263,19.6624963 234.411107,19.6624963 C236.867771,19.6624963 238.539667,21.5049942 238.539667,24.2005002 L238.539667,24.6781849 L232.415068,24.6781849 C232.551549,25.7188549 233.387498,26.5889233 234.786431,26.5889233 C235.485898,26.5889233 236.458327,26.2818404 236.987192,25.7700354 L237.942562,27.1689689 C237.123674,27.9196162 235.827101,28.312 234.547589,28.312 Z M236.441267,23.2110107 C236.390087,22.4262431 235.844161,21.385573 234.411107,21.385573 C233.063354,21.385573 232.483309,22.3921227 232.380948,23.2110107 L236.441267,23.2110107 Z M247.837457,28.107278 L245.670816,28.107278 L245.670816,23.1257098 C245.670816,21.9826788 245.073711,21.590295 244.152462,21.590295 C243.299453,21.590295 242.634107,22.0679796 242.275844,22.5627244 L242.275844,28.107278 L240.109203,28.107278 L240.109203,19.8672183 L242.275844,19.8672183 L242.275844,20.9420087 C242.804709,20.3107826 243.811258,19.6624963 245.159011,19.6624963 C246.967389,19.6624963 247.837457,20.6861062 247.837457,22.2897618 L247.837457,28.107278 Z M252.750785,28.312 C251.23243,28.312 250.413542,27.5272324 250.413542,26.0600582 L250.413542,21.7608966 L249.048729,21.7608966 L249.048729,19.8672183 L250.413542,19.8672183 L250.413542,17.6152765 L252.597243,17.6152765 L252.597243,19.8672183 L254.26914,19.8672183 L254.26914,21.7608966 L252.597243,21.7608966 L252.597243,25.4800126 C252.597243,25.9918176 252.870206,26.3842014 253.347891,26.3842014 C253.672034,26.3842014 253.979117,26.2647802 254.098538,26.145359 L254.559162,27.7831349 C254.235019,28.0731577 253.654974,28.312 252.750785,28.312 Z M262.867463,28.107278 L260.700822,28.107278 L260.700822,27.2542698 C260.137836,27.9196162 259.165407,28.312 258.090616,28.312 C256.776984,28.312 255.224509,27.4248714 255.224509,25.5823736 C255.224509,23.654575 256.776984,22.9209879 258.090616,22.9209879 C259.182467,22.9209879 260.154896,23.2792513 260.700822,23.9275376 L260.700822,22.8186269 C260.700822,21.9826788 259.984295,21.4367535 258.892444,21.4367535 C258.005316,21.4367535 257.186428,21.7608966 256.486961,22.4091829 L255.668073,20.9590689 C256.674623,20.0719403 257.971195,19.6624963 259.267768,19.6624963 C261.144386,19.6624963 262.867463,20.4131436 262.867463,22.7845065 L262.867463,28.107278 Z M258.960685,26.8448258 C259.660152,26.8448258 260.342558,26.6059835 260.700822,26.1282989 L260.700822,25.104689 C260.342558,24.6270044 259.660152,24.388162 258.960685,24.388162 C258.107677,24.388162 257.40821,24.8317263 257.40821,25.6335541 C257.40821,26.4012615 258.107677,26.8448258 258.960685,26.8448258 Z M267.183684,28.107278 L265.017043,28.107278 L265.017043,16.728148 L267.183684,16.728148 L267.183684,28.107278 Z M277.795107,28.312 C275.611406,28.312 274.041871,27.5784129 272.984141,26.5036225 L274.297773,24.6611247 C275.099601,25.4970728 276.344993,26.1965395 277.914528,26.1965395 C279.245221,26.1965395 279.893507,25.5823736 279.893507,24.9340873 C279.893507,22.9209879 273.342404,24.3028612 273.342404,20.0207598 C273.342404,18.1270815 274.98018,16.5575463 277.658626,16.5575463 C279.467003,16.5575463 280.968298,17.1034716 282.094269,18.1441417 L280.746516,19.9183988 C279.825267,19.0653906 278.596935,18.6730068 277.436844,18.6730068 C276.396174,18.6730068 275.816128,19.1336312 275.816128,19.8160378 C275.816128,21.6244153 282.350171,20.4131436 282.350171,24.6611247 C282.350171,26.7424648 280.865937,28.312 277.795107,28.312 Z M287.775304,28.312 C285.233339,28.312 283.407901,26.5206827 283.407901,23.9787181 C283.407901,21.4538137 285.233339,19.6624963 287.775304,19.6624963 C289.46426,19.6624963 290.48787,20.3960834 291.033795,21.1467307 L289.617801,22.4774236 C289.225418,21.897378 288.628312,21.590295 287.877665,21.590295 C286.564032,21.590295 285.642783,22.5456642 285.642783,23.9787181 C285.642783,25.4117719 286.564032,26.3842014 287.877665,26.3842014 C288.628312,26.3842014 289.225418,26.0429981 289.617801,25.4970728 L291.033795,26.8107055 C290.48787,27.5784129 289.46426,28.312 287.775304,28.312 Z M293.524579,18.9800897 C292.825112,18.9800897 292.228007,18.4000441 292.228007,17.6835172 C292.228007,16.9669903 292.825112,16.4040048 293.524579,16.4040048 C294.241106,16.4040048 294.821152,16.9669903 294.821152,17.6835172 C294.821152,18.4000441 294.241106,18.9800897 293.524579,18.9800897 Z M294.61643,28.107278 L292.449789,28.107278 L292.449789,19.8672183 L294.61643,19.8672183 L294.61643,28.107278 Z M300.638668,28.312 C298.130824,28.312 296.237145,26.6230437 296.237145,23.9787181 C296.237145,21.590295 297.994342,19.6624963 300.502187,19.6624963 C302.95885,19.6624963 304.630747,21.5049942 304.630747,24.2005002 L304.630747,24.6781849 L298.506147,24.6781849 C298.642629,25.7188549 299.478577,26.5889233 300.87751,26.5889233 C301.576977,26.5889233 302.549407,26.2818404 303.078272,25.7700354 L304.033641,27.1689689 C303.214753,27.9196162 301.91818,28.312 300.638668,28.312 Z M302.532346,23.2110107 C302.481166,22.4262431 301.935241,21.385573 300.502187,21.385573 C299.154434,21.385573 298.574388,22.3921227 298.472027,23.2110107 L302.532346,23.2110107 Z M313.928537,28.107278 L311.761896,28.107278 L311.761896,23.1257098 C311.761896,21.9826788 311.16479,21.590295 310.243541,21.590295 C309.390533,21.590295 308.725186,22.0679796 308.366923,22.5627244 L308.366923,28.107278 L306.200282,28.107278 L306.200282,19.8672183 L308.366923,19.8672183 L308.366923,20.9420087 C308.895788,20.3107826 309.902338,19.6624963 311.250091,19.6624963 C313.058468,19.6624963 313.928537,20.6861062 313.928537,22.2897618 L313.928537,28.107278 Z M319.916654,28.312 C317.37469,28.312 315.549252,26.5206827 315.549252,23.9787181 C315.549252,21.4538137 317.37469,19.6624963 319.916654,19.6624963 C321.605611,19.6624963 322.629221,20.3960834 323.175146,21.1467307 L321.759152,22.4774236 C321.366769,21.897378 320.769663,21.590295 320.019015,21.590295 C318.705383,21.590295 317.784134,22.5456642 317.784134,23.9787181 C317.784134,25.4117719 318.705383,26.3842014 320.019015,26.3842014 C320.769663,26.3842014 321.366769,26.0429981 321.759152,25.4970728 L323.175146,26.8107055 C322.629221,27.5784129 321.605611,28.312 319.916654,28.312 Z M328.463797,28.312 C325.955953,28.312 324.062275,26.6230437 324.062275,23.9787181 C324.062275,21.590295 325.819472,19.6624963 328.327316,19.6624963 C330.78398,19.6624963 332.455876,21.5049942 332.455876,24.2005002 L332.455876,24.6781849 L326.331277,24.6781849 C326.467758,25.7188549 327.303706,26.5889233 328.702639,26.5889233 C329.402106,26.5889233 330.374536,26.2818404 330.903401,25.7700354 L331.85877,27.1689689 C331.039882,27.9196162 329.74331,28.312 328.463797,28.312 Z M330.357475,23.2110107 C330.306295,22.4262431 329.76037,21.385573 328.327316,21.385573 C326.979563,21.385573 326.399517,22.3921227 326.297156,23.2110107 L330.357475,23.2110107 Z M336.99388,28.312 C335.560826,28.312 334.178952,27.8343154 333.308884,27.0324876 L334.247193,25.5141329 C334.844299,26.0771184 336.072631,26.6401038 337.096241,26.6401038 C338.03455,26.6401038 338.478114,26.2647802 338.478114,25.7529752 C338.478114,24.388162 333.581847,25.4970728 333.581847,22.2556414 C333.581847,20.8737681 334.793118,19.6624963 336.959759,19.6624963 C338.358693,19.6624963 339.467604,20.140181 340.286492,20.7884672 L339.416423,22.2727016 C338.921678,21.7438365 337.983369,21.3173323 336.97682,21.3173323 C336.192052,21.3173323 335.680247,21.6755958 335.680247,22.1362203 C335.680247,23.3645521 340.559454,22.3409422 340.559454,25.6676744 C340.559454,27.1689689 339.279942,28.312 336.99388,28.312 Z" id="College-of-Agricultu" fill-opacity="0.85"></path>
            <g id="UCDAVIS" opacity="0.85" transform="translate(0.000000, 4.000000)" fill-rule="nonzero">
                <path d="M82.7077074,6.5487446 L82.7077074,6.5487446 C82.8496162,7.43600299 84.2546537,13.8038605 84.2546537,13.8038605 L81.1705964,13.8038605 L82.7077074,6.5487446 Z M71.0065551,21.3542817 L79.1642028,21.3542817 L79.7796092,18.7394869 L85.6020846,18.7394869 L86.3790704,21.3542817 L94.5367181,21.3542817 L86.8961242,0.543307342 L78.3436609,0.543307342 L71.0065551,21.3542817 Z" id="Shape"></path>
                <path d="M50.9805555,0.541965045 L58.8824865,0.541965045 C66.058013,0.541965045 71.5376592,3.59837556 71.5376592,11.2454422 C71.5376592,17.4079282 67.06964,21.3515971 60.7961475,21.3515971 L50.9805555,21.3395164 L50.9805555,0.541965045 Z M58.7419827,15.3770327 L59.2702768,15.3770327 C61.8597609,15.3770327 63.7762321,13.9367479 63.7762321,11.2212808 C63.7762321,8.29641543 62.0761367,6.66418215 59.2323408,6.66418215 L58.7419827,6.66418215 L58.7419827,15.3770327 Z" id="Shape"></path>
                <path d="M46.2835152,1.19432144 L46.6994063,4.61046758 C46.7991639,5.42121503 47.2979523,7.36486124 46.6839509,7.1044556 C46.2961605,6.94203765 45.978622,6.06283305 45.6638936,5.27893154 C45.5037194,4.88295389 44.739379,3.00373794 44.5384586,2.86413904 C43.5760079,2.19164819 41.1649636,1.43593492 39.53512,1.42922343 C34.587983,1.41177357 31.3198658,4.79704687 31.3198658,10.8011418 C31.3198658,15.107231 33.5426351,20.2791017 39.197911,20.2791017 C41.2225701,20.2791017 45.1004736,19.6831218 46.1556568,17.0106083 C46.6319645,15.8011986 47.0689311,14.723334 47.3864696,15.0521968 C47.6197058,15.2884411 47.3162177,16.2589219 47.175714,16.7810754 C46.5097262,19.2602982 46.4717902,20.0106423 46.2624396,20.10863 C43.7080814,21.2965629 40.431534,21.6885137 37.5638524,21.6885137 C28.4521842,21.6885137 25.3034952,16.7528872 25.3034952,11.818603 C25.3034952,3.2560898 30.9686064,-0.290259162 39.7557109,0.0184691729 C41.9756702,0.0963224051 44.1998446,0.466796407 46.2835152,1.19432144" id="Shape"></path>
                <path d="M19.3672117,1.57419152 L17.9073778,1.10170294 C17.4156146,0.690960024 18.0127556,0.57686477 18.0127556,0.57686477 C18.0127556,0.57686477 20.1203118,0.940627286 25.3751521,0.528542074 C25.3751521,0.528542074 25.8360044,0.611764494 25.519871,0.956734851 L23.7944849,1.64264867 C22.673265,2.09634509 22.673265,1.83459716 22.673265,2.976892 L22.6634297,13.5823814 C22.6634297,21.8764353 13.5728371,21.689856 11.8024898,21.689856 C10.9594673,21.689856 2.68660651,21.689856 2.68660651,15.03072 L2.68660651,3.80643161 C2.68660651,1.84667783 2.91000747,1.90171201 2.21170383,1.67083691 L0.099932463,0.935258097 C0.099932463,0.935258097 -0.256947063,0.468138704 0.378129889,0.496326943 C2.1021109,0.57686477 4.59886255,0.920492829 10.4002624,0.528542074 C10.4002624,0.528542074 10.908886,0.642637328 10.5758921,0.987607684 L8.88844204,1.4426464 C7.55365641,1.99835741 7.7292861,1.57419152 7.6955652,2.84534688 L7.73490625,13.9152711 C7.73490625,16.6293959 9.23829638,19.9891655 13.9100461,19.9891655 C20.352143,19.9891655 20.4111546,14.8159525 20.4111546,13.6669462 L20.4237999,2.70440568 C20.4926468,1.67083691 20.350738,1.96479998 19.3672117,1.57419152" id="Shape"></path>
                <path d="M123.151712,19.7556058 L125.399772,14.2360801 L125.794587,14.5461508 C127.174334,15.5931425 129.050059,16.4830855 130.817597,16.5193275 C132.399669,16.5502003 133.171034,16.1595919 132.963089,14.9206517 C132.802915,13.9890975 131.676074,13.8293641 130.972151,13.697819 L129.423799,13.4119097 C126.412804,12.8897561 123.885141,11.1675889 123.885141,7.90446468 C123.885141,2.96883821 128.468374,0.203706174 133.079707,0.203706174 C135.503397,0.203706174 137.723356,0.772840147 139.804216,2.02923024 L137.849809,6.92324549 C136.779171,6.20780113 135.156352,5.19839371 133.106403,5.12859426 C132.42777,5.10443291 130.885038,5.4359803 131.378206,6.88968807 C131.591772,7.50982933 132.548603,7.77157726 133.137313,7.90312238 L134.880965,8.29507314 C138.146272,9.00112141 140.503925,10.7246309 140.503925,14.2441339 C140.503925,19.2092909 135.893997,21.6656946 131.31217,21.6656946 C128.639788,21.6656946 125.543086,20.958304 123.151712,19.7556058" id="Shape"></path>
                <rect id="Rectangle-path" x="113.778707" y="0.543307342" width="7.71506093" height="20.8109744"></rect>
                <polygon id="Shape" points="104.932591 0.541965045 112.97081 0.541965045 104.759771 21.3515971 98.2361819 21.3515971 90.0490283 0.541965045 98.0633623 0.541965045 101.495869 13.0991545"></polygon>
            </g>
        </g>
    </g>
</svg>