<?xml version="1.0" encoding="UTF-8"?>
<svg width="27px" height="97px" viewBox="0 0 27 97" version="1.1" xmlns="http://www.w3.org/2000/svg" xmlns:xlink="http://www.w3.org/1999/xlink">
    <!-- Generator: Sketch 48.2 (47327) - http://www.bohemiancoding.com/sketch -->
    <title>Page 1</title>
    <desc>Created with Sketch.</desc>
    <defs></defs>
    <g id="phase1" stroke="none" stroke-width="1" fill="none" fill-rule="evenodd" transform="translate(-540.000000, -649.000000)">
        <g id="Page-1" transform="translate(540.000000, 649.000000)" fill="#DAAA00">
            <path d="M-0.000261497946,96.5589656 C0.933286171,96.2147366 1.62782472,96.1825311 1.80878129,95.8583646 C4.53463589,90.9715806 7.20557591,86.054703 9.83676825,81.1151232 C10.0098799,80.7904287 9.7536119,80.2323766 9.69712834,79.7825559 C9.25362783,80.0417835 8.60511292,80.189084 8.39800655,80.5771335 C5.68261187,85.6534546 3.0304997,90.763565 -0.000261497946,96.5589656 M9.2065582,77.2990391 C13.7477315,69.0560229 12.5704678,62.2928743 6.21606768,58.8585042 C2.59641311,65.6417152 4.49279622,71.6530508 9.2065582,77.2990391 M14.1739732,32.4457959 C13.3879104,21.9742668 11.9172459,20.3249244 2.36734091,17.8619979 C2.89818174,25.3700959 6.86405959,30.166599 14.1739732,32.4457959 M13.430273,62.7495585 C16.5217017,53.8487059 14.450638,48.082871 7.25892149,45.1131044 C5.49381035,52.5694624 6.83686381,56.4615726 13.430273,62.7495585 M15.1477915,47.6705354 C16.5546505,36.6261713 13.6949089,34.0740199 6.09054867,31.438451 C5.029913,39.0188793 8.7484138,44.0381809 15.1477915,47.6705354 M24.1558728,61.7337663 C16.6383298,64.5139958 12.4826045,69.9234587 11.7708071,78.0313175 C19.8746284,76.9880715 24.7322143,70.5485616 24.1558728,61.7337663 M23.9864221,28.015696 C17.6769997,33.0909612 16.1514207,37.7692015 17.630453,47.510564 C24.4858832,45.424072 27.2054618,37.0844393 23.9864221,28.015696 M16.7831997,31.9774967 C23.3352922,27.1017998 24.1872525,20.927853 19.6183604,11.3670523 C14.4339021,17.6154413 13.3779734,24.5074117 16.7831997,31.9774967 M25.655302,44.7857701 C18.1686158,48.567009 15.6116889,55.0957439 16.0311316,63.1872361 C24.4686243,59.7000701 27.8513618,53.1333221 25.655302,44.7857701 M4.86830727,0.527536144 C4.58902746,0.71337754 4.31027065,0.899746894 4.03099084,1.08506033 C3.86886212,3.96401809 3.61782409,6.84191993 3.59010531,9.72193361 C3.58016838,10.8063604 3.73968213,12.2666936 4.42062278,12.9171385 C7.01834338,15.4006553 9.86030306,17.6238886 13.2116607,20.4511065 C13.8371638,16.5832824 14.5615131,13.5897577 14.702199,10.5687791 C14.7675735,9.17285675 14.0793109,7.2711502 13.0615609,6.38681969 C10.5360138,4.19209617 7.62449562,2.450889 4.86830727,0.527536144" id="Fill-1"></path>
        </g>
    </g>
</svg>