<?xml version="1.0" encoding="UTF-8"?>
<svg width="78px" height="78px" viewBox="0 0 78 78" version="1.1" xmlns="http://www.w3.org/2000/svg" xmlns:xlink="http://www.w3.org/1999/xlink">
    <!-- Generator: Sketch 48.2 (47327) - http://www.bohemiancoding.com/sketch -->
    <title>yellowtopic</title>
    <desc>Created with Sketch.</desc>
    <defs></defs>
    <g id="phase2" stroke="none" stroke-width="1" fill="none" fill-rule="evenodd" transform="translate(-985.000000, -871.000000)">
        <g id="topics" transform="translate(0.000000, 785.000000)">
            <g id="items" transform="translate(177.000000, 78.000000)">
                <g id="yellowtopic" transform="translate(810.000000, 10.000000)">
                    <circle id="Oval-2" stroke="#FFCD00" stroke-width="3.2" cx="37" cy="37" r="37"></circle>
                    <g id="conserv" transform="translate(22.000000, 12.000000)" fill="#FFCD00">
                        <path d="M18.1298279,44.8607937 C19.2573628,42.1901587 20.3809442,39.9234921 21.1795488,37.5425397 C22.408293,33.8806349 24.814386,31.9242857 28.4982465,31.3322222 C30.2994558,31.0433333 32.0548047,30.4552381 33.9508977,30.2409524 C32.5924791,30.9433333 31.2941535,31.8409524 29.8629907,32.31 C26.0059674,33.5726984 24.0292233,36.2949206 23.308107,40.2552381 C22.9578279,42.1734921 22.3379209,44.0401587 21.9536419,45.975873 C24.0861535,42.8393651 26.1902,39.7504762 29.948386,38.3973016 C26.4819674,41.2988889 25.0634558,45.4250794 23.5105256,49.5163492 L15.9166651,49.5163492 C15.9166651,48.3488889 15.8217814,47.2242857 15.9316884,46.1203175 C16.6211767,39.2068254 17.3454558,32.2973016 18.0895023,25.3893651 C18.1685721,24.6536508 18.0855488,24.1615873 17.5945256,23.5131746 C17.1003395,22.8607937 16.7927581,21.7480952 16.9469442,20.9465079 C17.7004791,17.01 18.6137349,13.1036508 19.518293,9.19888889 C19.8108512,7.93380952 20.5129907,7.00444444 21.8635023,6.67507937 C22.2090372,6.59095238 22.5830372,6.1615873 22.7340605,5.79888889 C23.258293,4.53936508 23.6362465,3.21555556 24.1834093,1.96873016 C24.3874093,1.50285714 24.9029442,1.18142857 25.2761535,0.793333333 C25.3006651,1.37904762 25.4659209,2.0052381 25.3204326,2.54174603 C25.0002,3.72031746 24.4475023,4.83301587 24.1446651,6.01396825 C24.0213163,6.49571429 24.2988512,7.08619048 24.396107,7.62666667 C24.5645256,8.5631746 25.0247116,9.56 24.8531302,10.425873 C24.0861535,14.3092063 23.190293,18.1687302 22.2145721,22.0028571 C22.016107,22.7814286 21.3946186,23.5965079 20.742293,24.062381 C20.1128977,24.5107937 19.7784326,24.8687302 19.7151767,25.6742857 C19.2897814,31.0965079 18.8098279,36.5139683 18.3504326,41.9338095 C18.2784791,42.7774603 18.2223395,43.6226984 18.1298279,44.8607937" id="Fill-1"></path>
                        <path d="M14.1926279,49.5680952 C13.3299767,49.5680952 12.544814,49.6331746 11.7794186,49.5379365 C11.4520698,49.4966667 11.0100698,49.1911111 10.8796047,48.8887302 C8.36439535,43.0522222 4.98574419,37.7704762 1.15323256,32.7450794 C3.25806977,33.811746 4.98574419,35.3752381 6.52048837,37.1673016 C8.03704651,38.9387302 9.49430233,40.7633333 11.2520233,42.8974603 C10.4463023,39.6466667 9.7425814,36.7403175 8.98351163,33.8490476 C8.91234884,33.5784127 8.4837907,33.4165079 8.2434186,33.18 C7.54760465,32.4934921 6.58137209,31.9196825 6.22318605,31.077619 C4.63862791,27.3585714 3.18611628,23.5784127 1.79686047,19.7784127 C1.51616279,19.0109524 1.39993023,17.8649206 1.76760465,17.2395238 C2.32662791,16.2911111 2.06411628,15.6839683 1.62765116,14.9506349 C1.12239535,14.1022222 0.549139535,13.2879365 0.130860465,12.3966667 C-0.0644418605,11.9807937 0.0343953488,11.4188889 0.000395348837,10.9236508 C0.390209302,11.1466667 0.873325581,11.2863492 1.14927907,11.611746 C1.59839535,12.1411111 1.91625581,12.7887302 2.28234884,13.3911111 C2.96076744,14.5101587 3.35927907,15.8315873 5.09406977,15.8673016 C5.65230233,15.8784127 6.42560465,16.7657143 6.69997674,17.4268254 C8.32327907,21.3339683 9.90309302,25.2649206 11.3136977,29.2553968 C11.6094186,30.0903175 11.1421163,31.2109524 11.0163953,32.198254 C10.9412791,32.7966667 10.6692791,33.4339683 10.7910465,33.9831746 C11.8497907,38.7673016 12.9812791,43.5355556 14.0787674,48.3109524 C14.1602093,48.6680952 14.1483488,49.0474603 14.1926279,49.5680952" id="Fill-4"></path>
                        <path d="M14.4857395,44.530873 C14.3022977,35.5888095 13.9757395,26.6618254 11.8337395,17.9372222 C11.963414,17.8951587 12.0930884,17.8523016 12.2227628,17.8102381 C12.6750419,18.8499206 13.2775535,19.8499206 13.5511349,20.9372222 C14.4564837,24.5396032 15.4116465,28.1451587 16.0022977,31.8078571 C16.2782512,33.5197619 15.771414,35.3665873 15.6022047,37.1507143 C15.3697395,39.5919841 15.1206698,42.0316667 14.8787163,44.4713492 C14.7474605,44.4911905 14.6169953,44.5110317 14.4857395,44.530873" id="Fill-6"></path>
                        <path d="M10.2672884,49.2678571 C6.33593953,50.8980159 4.45724186,47.875 2.2005907,45.6202381 C3.2878,45.9361111 4.3750093,46.2519841 5.82752093,46.6734127 C4.49203256,44.4861111 3.31942791,42.5662698 1.9950093,40.3996032 C5.79905581,42.6115079 8.24863721,45.7559524 10.2672884,49.2678571" id="Fill-8"></path>
                    </g>
                </g>
            </g>
        </g>
    </g>
</svg>