<?xml version="1.0" encoding="UTF-8"?>
<svg width="78px" height="78px" viewBox="0 0 78 78" version="1.1" xmlns="http://www.w3.org/2000/svg" xmlns:xlink="http://www.w3.org/1999/xlink">
    <!-- Generator: Sketch 48.2 (47327) - http://www.bohemiancoding.com/sketch -->
    <title>yellowtopic</title>
    <desc>Created with Sketch.</desc>
    <defs></defs>
    <g id="Page-1" stroke="none" stroke-width="1" fill="none" fill-rule="evenodd">
        <g id="yellowtopic" transform="translate(2.000000, 2.000000)">
            <circle id="Oval-2-Copy" stroke="#FFCD00" stroke-width="3.2" cx="37" cy="37" r="37"></circle>
            <g id="Group-13" transform="translate(11.000000, 11.000000)" fill="#FFCD00">
                <path d="M3.8995,38.3276 C3.0655,37.6166 2.0595,36.7586 0.9995,35.8556 C3.2455,33.5856 5.8795,33.0146 8.7865,33.6416 C11.5915,34.2456 14.3635,35.0036 17.1535,35.6796 C17.8075,35.8376 18.4755,35.9336 19.7285,36.1686 C17.9555,33.7856 16.5265,31.8656 15.0985,29.9456 C14.9645,30.0016 14.8315,30.0576 14.6975,30.1136 C14.8895,31.4366 15.0815,32.7606 15.3115,34.3426 C13.9135,33.9496 12.5685,33.6656 11.3105,33.1646 C10.8865,32.9956 10.4655,32.3006 10.4115,31.8056 C9.6365,24.7006 15.0165,20.1046 21.9605,21.8996 C24.5325,22.5646 27.0915,23.2846 29.6715,23.9216 C30.4485,24.1136 31.2735,24.1106 32.2625,23.7896 C30.5215,22.4826 28.7795,21.1756 26.7235,19.6326 C26.8755,20.8186 26.9705,21.5666 27.0835,22.4456 C26.5635,22.3226 26.0325,22.2286 25.5195,22.0716 C21.9965,20.9986 21.7105,20.5176 22.4055,16.9026 C23.4535,11.4476 27.5795,8.8286 33.6085,9.9916 C36.1425,10.4796 38.6155,11.3036 41.0975,12.0386 C43.3725,12.7126 45.6055,13.1086 47.4015,11.7916 C48.5065,12.8266 49.4695,13.7276 50.4895,14.6816 C47.8125,17.0666 44.6895,17.4996 41.3205,16.6136 C38.2245,15.7996 35.1565,14.8806 31.7875,14.3466 C33.3595,16.3986 34.9325,18.4496 36.5045,20.5016 C36.6635,20.4736 36.8225,20.4456 36.9815,20.4166 C36.8485,19.0586 36.7155,17.7006 36.5665,16.1826 C37.0215,16.2916 37.3385,16.3526 37.6465,16.4446 C41.3645,17.5476 42.0355,18.7716 41.0285,22.6016 C39.7935,27.2966 35.2985,29.8156 30.1055,28.5966 C27.0425,27.8786 24.0285,26.9546 20.9845,26.1536 C20.3495,25.9866 19.6785,25.9536 18.8195,26.3036 C20.7515,27.8436 22.6835,29.3826 25.0045,31.2316 C24.8225,29.9546 24.7045,29.1266 24.5395,27.9656 C25.9745,28.4036 27.3665,28.7266 28.6555,29.2866 C29.0355,29.4516 29.2955,30.2786 29.3215,30.8156 C29.6715,38.1166 24.7365,42.1036 17.4385,40.3876 C14.9195,39.7956 12.4765,38.8216 9.9365,38.3926 C8.0115,38.0666 5.9875,38.3276 3.8995,38.3276 M15.7585,27.6536 C15.5455,27.7026 15.3325,27.7526 15.1195,27.8016 C15.3065,28.4036 15.3595,29.1006 15.7055,29.5916 C16.9925,31.4196 18.4565,33.1266 19.6985,34.9836 C20.8595,36.7176 22.0415,36.4976 23.5055,35.4116 C20.8695,32.7716 18.3135,30.2126 15.7585,27.6536 M27.3455,15.6106 C26.8495,16.9356 25.7335,18.0116 27.1855,19.1306 C29.2285,20.7056 31.2995,22.2486 33.4295,23.7016 C33.8565,23.9926 34.6015,23.8206 35.6925,23.8956 C32.7035,20.9286 30.1365,18.3806 27.3455,15.6106 M36.5115,23.1906 C36.3115,22.1696 36.3685,21.4756 36.0585,21.0486 C34.6255,19.0756 33.0615,17.1986 31.6015,15.2456 C30.5105,13.7846 29.4285,13.8006 28.1875,15.0256 C30.8585,17.6456 33.4705,20.2076 36.5115,23.1906 M16.1085,26.2026 C19.1585,29.3106 21.7185,31.9216 24.3005,34.5536 C25.3095,33.3416 25.3325,32.2656 23.9635,31.2356 C22.0135,29.7686 20.1335,28.2086 18.1735,26.7556 C17.7755,26.4606 17.1545,26.4686 16.1085,26.2026" id="Fill-1"></path>
                <path d="M38.8716,10.5792 C38.5226,10.4752 38.2106,10.3812 37.8986,10.2882 C33.6216,9.0152 33.3006,8.5232 34.4726,4.1192 C34.8166,2.8242 35.5576,1.6352 36.2956,0.0002 C37.4356,1.4032 38.2706,2.4322 38.8716,3.1722 L38.8716,10.5792 Z" id="Fill-4"></path>
                <path d="M12.7049,40.0948 C12.7529,40.0768 12.8119,40.0318 12.8589,40.0418 C17.8489,41.1018 18.6859,42.7048 16.7229,47.5428 C16.3859,48.3748 15.8829,49.1388 15.3199,50.1898 C14.1869,49.1148 13.2029,48.1788 12.7049,47.7068 L12.7049,40.0948 Z" id="Fill-6"></path>
            </g>
        </g>
    </g>
</svg>