<?xml version="1.0" encoding="UTF-8"?>
<svg width="750px" height="106px" viewBox="0 0 750 106" version="1.1" xmlns="http://www.w3.org/2000/svg" xmlns:xlink="http://www.w3.org/1999/xlink">
    <!-- Generator: Sketch 48.2 (47327) - http://www.bohemiancoding.com/sketch -->
    <title>AESlogo</title>
    <desc>Created with Sketch.</desc>
    <defs>
        <path d="M304.651021,24.4676128 C303.761437,23.7191662 303.242513,23.2700982 303.242513,23.2700982 C303.613173,20.9561507 304.799285,23.2700982 304.799285,23.2700982 C304.725153,23.7191662 304.651021,24.0933895 304.651021,24.4676128 M244.974784,59.5510489 C244.974784,59.6258936 244.900652,59.6258936 244.900652,59.7007382 C244.82652,59.7007382 244.604124,58.3535343 244.752388,56.5572624 C245.19718,56.7817963 245.790236,57.081175 246.531555,57.3805537 C246.012631,58.1290003 245.493708,58.8774469 244.974784,59.5510489 M286.556642,37.7837259 C286.556642,37.7837259 283.894069,45.7858678 279.668546,47.5821398 C279.668546,47.5821398 278.260039,46.4594698 278.482435,44.5883532 C281.29945,40.4032891 284.258551,37.7837259 286.556642,37.7837259 M402.869705,37.7837259 C402.869705,37.7837259 400.200954,45.7858678 395.98161,47.5821398 C395.98161,47.5821398 394.573102,46.4594698 394.795498,44.5883532 C397.606335,40.4032891 400.571614,37.7837259 402.869705,37.7837259 M468.099663,14.444665 C468.099663,14.444665 466.919729,8.75647053 461.211567,8.75647053 C461.211567,8.75647053 460.396115,10.9269658 457.140486,18.9353448 C452.618436,18.6297291 448.318782,18.2555058 444.463919,18.1058164 C444.463919,18.1058164 439.799783,20.8064614 438.168879,25.5902828 C438.168879,25.5902828 438.613671,26.1890401 439.280859,26.7877974 C439.280859,26.7877974 445.063153,25.7399721 454.694131,25.0663701 C453.501842,28.0601567 450.357411,35.8440017 447.79368,44.7629908 C444.575117,48.8233138 434.530235,61.4471137 431.558778,64.634249 C432.225966,62.1706121 435.703991,49.3784117 445.637675,34.64025 C445.637675,34.64025 442.227605,29.9250362 439.78125,29.9250362 C437.341072,29.9250362 424.448287,40.6278231 420.593424,46.1600912 C420.593424,46.1600912 428.890027,29.9250362 416.516166,29.9250362 C416.516166,29.9250362 417.560191,34.7837023 413.272892,45.4241186 C412.648948,46.3472028 411.821141,47.5571916 410.795649,49.0041884 C406.42804,56.4824177 399.459635,64.0417287 392.645671,63.8171947 C392.645671,63.8171947 389.680392,62.9190588 389.680392,56.4824177 C389.680392,53.6383205 391.533691,49.6777904 392.942199,47.2827611 C393.164595,49.752635 394.943762,52.2911165 399.459635,52.2911165 C399.459635,52.2911165 409.387141,48.4802757 409.387141,38.9812405 C409.387141,32.8439781 400.497482,30.7483275 400.497482,30.7483275 C400.497482,30.7483275 392.108214,30.7857499 385.93055,43.9708848 C383.749834,46.7463744 372.345866,61.260002 369.133481,64.634249 C369.726537,62.9190588 377.65248,38.8315512 384.769149,30.9728615 C384.769149,30.9728615 383.879565,27.6859334 379.135119,26.1890401 C379.135119,26.1890401 367.280181,40.1039105 359.05771,48.7048097 C359.05771,48.7048097 363.209101,37.3346579 363.579761,34.0414927 C363.579761,34.0414927 362.097121,30.9728615 359.205974,30.9728615 C359.205974,30.9728615 351.644513,37.6340366 346.609717,45.4116445 C346.609717,45.4116445 351.354163,30.2244149 340.981865,30.9728615 C340.981865,30.9728615 341.4699,38.8440253 338.764083,45.8856607 C336.194175,49.8773761 330.887561,57.9294145 326.81648,62.6945248 C327.113008,57.754777 328.818044,43.315994 337.114647,35.6880753 C337.114647,35.6880753 336.225063,31.1225508 330.152419,31.1225508 C330.152419,31.1225508 326.099871,35.8065794 323.171658,44.5509309 C322.102923,45.8918978 320.342288,48.0998154 318.210994,50.7256156 C310.359183,59.7755829 305.392341,64.5656414 305.392341,64.5656414 C307.468036,56.407573 317.099014,39.5799978 317.099014,39.5799978 C315.838771,35.8377646 311.983908,31.4967742 308.728279,28.2846907 C309.617863,23.6443215 309.173071,20.7253797 309.173071,20.7253797 C309.173071,20.7253797 307.24564,18.1058164 304.280361,18.0372088 C301.395392,17.8875195 298.578377,25.6651275 298.578377,25.6651275 C300.061016,26.4135741 301.759874,27.985312 303.390777,29.7815839 C301.401569,36.7171894 298.003854,43.2723346 295.971403,46.8773525 C295.532788,47.5135322 295.032398,48.2307935 294.482585,49.0041884 C290.114977,56.4824177 283.152749,64.0417287 276.332608,63.8171947 C276.332608,63.8171947 273.373507,62.9190588 273.373507,56.4824177 C273.373507,53.6383205 275.220628,49.6777904 276.629136,47.2827611 C276.851532,49.752635 278.630699,52.2911165 283.152749,52.2911165 C283.152749,52.2911165 293.074078,48.4802757 293.074078,38.9812405 C293.074078,32.8439781 284.184419,30.7483275 284.184419,30.7483275 C284.184419,30.7483275 275.739552,30.7919869 269.549532,44.1268111 C268.036005,46.2286988 263.600442,51.7297816 257.348645,53.7131651 C259.572605,48.7796544 262.093092,42.5675473 264.465315,34.5654054 C264.465315,34.5654054 263.130939,29.6318946 259.572605,29.6318946 C256.977986,29.6318946 247.643535,37.3346579 240.458911,47.3576058 C242.312211,42.5675473 245.123048,35.313852 246.605687,33.0685121 C246.605687,33.0685121 243.788672,29.6318946 240.977835,29.6318946 C240.977835,29.6318946 238.339972,35.1080292 234.750749,44.0706776 C233.218689,46.0104018 229.079654,51.2557653 225.17537,56.0333497 C223.396202,53.7942469 221.913563,50.3513923 220.505056,47.1330718 C229.32676,38.3076385 237.475099,30.6797199 237.475099,30.6797199 C237.10444,27.6859334 233.027181,24.3179235 233.027181,24.3179235 C229.32676,27.3865547 223.396202,33.5175801 217.471822,40.0290658 C215.247863,34.5654054 213.2463,30.0061179 212.13432,29.107982 C209.169042,26.8626421 205.320357,29.107982 205.320357,29.107982 C206.506468,33.2182014 205.468621,37.9334152 204.208377,41.3014251 C201.836154,46.3097805 199.612195,49.752635 199.612195,49.752635 C199.389799,51.7672039 201.243098,51.5489069 201.243098,51.5489069 C205.097961,47.5072951 207.908798,43.546765 209.836229,39.8793765 C210.799945,41.8253377 211.689529,43.6153726 212.579112,45.4116445 C203.985981,54.8420721 196.42452,63.6675054 196.42452,63.6675054 C199.389799,68.1519482 202.206814,67.0292782 202.206814,67.0292782 C205.394489,62.7693694 210.503417,57.1560197 215.915051,51.6985963 C218.657934,56.7817963 221.023979,63.5178161 222.877279,65.9128453 C223.637131,65.9440306 226.620943,61.8525223 229.833329,57.0874121 C227.133689,64.7028566 224.322852,73.4783934 221.864142,82.8901098 C221.864142,82.8901098 226.083486,88.1292363 229.487379,87.6053236 C229.487379,87.6053236 229.048765,59.3265149 256.310798,36.8107453 C256.310798,36.8107453 253.197255,46.0104018 248.755514,53.8628545 C247.050479,53.3389418 245.345444,52.5967322 243.566276,51.3992176 C242.460474,52.4470429 242.231901,53.9439362 242.608738,54.9917615 C242.460474,55.1352137 242.312211,55.3597477 242.163947,55.5842817 C242.163947,55.5842817 240.829571,61.2724762 241.422627,65.1581616 C241.422627,65.1581616 243.936936,68.9003948 247.717667,68.8255501 C247.717667,68.8255501 250.757078,66.1311422 254.834336,58.6529129 C258.392671,58.3660084 262.482284,56.856641 266.479233,53.020852 C263.26067,68.364008 276.653846,69.8733754 278.037643,69.8733754 C278.853095,69.8733754 281.447714,69.8733754 285.963586,66.2059869 C287.446226,64.9336276 286.48251,66.1311422 288.409941,64.0417287 C291.18989,60.9793346 294.723514,54.8171239 298.640154,48.3867199 C302.902742,43.2723346 305.559138,38.4136685 307.097376,34.191182 C308.728279,36.3616773 309.914391,38.0831046 309.914391,38.0831046 C302.871854,46.9833825 297.318133,66.0562976 297.318133,66.0562976 C297.985321,68.6010161 304.799285,71.969026 304.799285,71.969026 C306.13366,70.6966667 307.393904,69.4243074 308.580015,68.1519482 C310.748376,66.1498534 316.098233,59.7755829 321.170095,52.8025551 C320.626461,55.9397939 320.224913,59.2890926 320.224913,63.062511 C320.224913,63.062511 320.966232,65.089554 322.961618,66.6550549 C324.221861,67.8525695 325.482105,70.0230647 326.890612,70.0230647 C326.890612,70.0230647 329.670561,65.7070225 334.062881,58.7651799 C333.939327,62.9190588 335.662896,66.324491 339.054433,67.7028802 C339.054433,67.7028802 348.759544,50.201703 354.461528,44.5135086 C354.461528,44.5135086 351.496249,56.856641 350.019787,60.5988742 C350.019787,60.5988742 351.354163,62.6945248 354.319442,62.6945248 C354.319442,62.6945248 362.912573,51.9979749 366.83539,49.303567 C366.83539,49.303567 361.948857,61.1227868 361.429933,67.7028802 C360.985142,74.2143659 366.83539,74.8131232 366.83539,74.8131232 C366.83539,74.8131232 375.00844,65.3452733 382.557545,54.4553747 C380.463317,68.4326156 393.010153,69.8733754 394.350706,69.8733754 C395.15998,69.8733754 397.754599,69.8733754 402.27665,66.2059869 C403.759289,64.9336276 402.795573,66.1311422 404.723005,64.0417287 C405.044243,63.6799795 405.390193,63.2496227 405.736142,62.8130288 C405.068954,64.9149165 405.099842,66.0188752 405.84734,66.5802102 C407.552375,67.8525695 409.850466,69.9482201 411.703765,69.1249288 C411.703765,69.1249288 418.295333,53.2703342 431.63291,42.9417706 C431.63291,42.9417706 426.005058,49.2287224 424.596551,64.634249 C424.596551,64.634249 426.7402,70.1727541 433.11555,71.2205794 C433.11555,71.2205794 438.29861,64.7153307 444.67396,54.4678488 C445.013731,54.0250179 445.365858,53.5135794 445.70563,53.0520373 C442.524133,68.139474 442.975102,83.4140225 458.098024,83.4140225 C467.877267,83.4140225 486.32995,75.4867252 487.960853,48.0312078 C489.511447,21.548671 465.282648,27.536244 464.176846,33.4427354 C464.176846,33.4427354 479.29359,28.0601567 477.736819,48.7048097 C476.105916,69.3494628 461.433963,77.5761387 456.318857,75.0314202 C451.506456,72.7174726 451.135797,60.7485635 453.50802,51.324373 C455.287187,44.5883532 458.246288,35.538386 463.138998,24.6921468 C470.546018,24.4676128 505.517775,24.7669915 514.778094,25.5902828 C514.778094,25.5902828 519.077748,17.9623642 519.077748,16.5403155 C519.077748,16.5403155 481.363108,19.6089468 465.511221,19.6775544 C466.771465,16.9893835 466.468759,17.5819038 468.099663,14.444665 M100.637364,44.2178721 L86.4102034,59.9976221 C92.2666291,37.1887108 100.4891,34.9433709 104.269831,35.3175942 C103.157851,37.4818524 101.897608,40.475639 100.637364,44.2178721 M89.0048224,90.7463047 C89.0048224,90.7463047 88.3376346,88.2764308 86.4102034,86.2556249 C87.8928428,84.0851296 89.7461421,81.2472695 92.0442332,78.1786383 C92.3407611,77.8044149 92.7114209,77.5050363 93.0820808,77.2056576 C90.1168019,90.8211493 89.0048224,90.7463047 89.0048224,90.7463047 M6.42798376,71.8168419 C6.42798376,71.8168419 7.61409531,57.8333639 19.765561,44.3675615 C31.9170266,30.9766037 38.4344625,28.6564192 38.4344625,28.6564192 C38.4344625,28.6564192 32.2135545,43.5442702 20.0620889,48.4029363 C20.0620889,48.4029363 19.1725052,51.7709461 25.1771949,54.0911307 C25.1771949,54.0911307 27.9880321,52.2200141 33.0290062,50.3488975 C23.9910833,58.2075872 14.7987189,65.7606612 6.42798376,71.8168419 M136.424573,47.2865034 C136.424573,47.2865034 140.650096,50.2740528 141.687943,58.5069658 C141.687943,58.5069658 124.7179,54.016286 101.526948,70.4696379 C99.0805928,87.6776735 96.1894459,98 92.8596849,98 C89.1530863,98 86.7808632,95.0810581 86.7808632,95.0810581 C87.0032591,93.5093202 85.7430156,91.0456833 84.5569041,89.0248774 C83.6673204,90.3720814 83.2966606,91.0456833 83.2966606,91.0456833 C77.5946764,91.4199067 77.2240166,86.7795375 77.2240166,86.7795375 C80.3375594,81.6901004 84.0379803,77.5798809 87.9669748,73.6131138 C87.9669748,73.6131138 90.04267,71.3740109 93.5268726,68.2305351 C94.1137507,67.6317777 94.7129842,67.1078651 95.3060399,66.5091078 L95.7446541,63.2159426 C96.5601058,59.1057231 97.3014255,55.5131793 98.1168772,52.3697034 C95.4543039,56.1119366 92.4148931,60.4529271 89.968538,64.4883019 C89.968538,64.4883019 88.4117666,65.0870592 87.0773911,66.5091078 C85.9098126,67.6879112 81.5174932,64.1826862 80.0472091,61.3323519 C75.982306,68.673366 70.7189361,76.4946333 65.0354849,80.4239782 C63.9235053,80.3428964 62.7373938,77.9541043 61.9960741,76.008143 C59.9203789,75.0351624 57.1095416,71.3740109 61.1064904,58.3572765 C64.664825,46.456975 71.4787888,30.8269144 75.8525751,21.1033452 C68.0007638,28.7312638 60.6616986,35.6169729 53.9218668,41.6731536 C59.9945108,43.6939595 61.6254142,47.5048003 61.6254142,47.5048003 C56.7388818,46.7625907 52.1426995,46.687746 47.9974868,46.9808876 C22.5084439,69.7211913 7.31756742,80.3428964 7.31756742,80.3428964 C7.31756742,80.3428964 4.79708039,80.9478908 1.09665948,75.783609 C-2.6099391,70.700409 3.32061862,54.0911307 15.2435107,38.679367 C27.0984485,23.2738404 42.141061,18.4089373 43.6237005,18.6334713 C45.1063399,18.93285 48.0654411,20.0555199 48.0654411,24.0908947 C48.0654411,28.1325065 35.9139754,41.5234643 35.9139754,41.5234643 C38.9533863,40.9247069 41.6962692,40.5504836 44.1426243,40.475639 C64.1459012,22.3757045 80.8194172,5.54189223 80.8194172,5.54189223 C55.1079784,11.2300867 53.625339,20.3548986 53.625339,20.3548986 C53.625339,20.3548986 42.6599848,16.3881314 53.402943,7.48785349 C64.2200332,-1.33757976 87.9299088,0.0844688443 87.9299088,0.0844688443 C89.6349441,0.383847499 91.6303297,5.54189223 91.6303297,5.54189223 C89.5608121,7.63754281 87.5592489,9.65834873 85.4835537,11.6791546 C87.1144571,13.4005819 87.9299088,16.0887527 87.9299088,16.0887527 C75.3336513,35.3862018 68.0007638,59.3240201 65.1096169,70.3261856 C69.7675758,66.5465301 74.8209051,58.6878404 84.1306452,45.1409563 C87.6086702,37.0514956 92.7917306,28.6564192 98.8581969,28.6564192 C98.8581969,28.6564192 102.935455,29.1054872 106.191084,32.0992737 C107.747856,29.5545551 108.711571,28.6564192 108.711571,28.6564192 C112.41817,28.6564192 116.050637,33.371633 116.050637,33.371633 C116.050637,33.371633 108.26678,42.5712895 104.115389,56.7106939 L103.306115,60.5215347 C111.973378,54.3905093 123.680052,48.2532469 136.424573,47.2865034 Z M159.798384,31.4238006 C150.834593,30.6005093 152.607583,18.5567555 152.607583,18.5567555 C179.505133,-2.01305285 212.327064,4.34874355 220.259185,6.28846775 C228.185128,8.234429 224.107869,18.5567555 224.107869,18.5567555 C224.107869,18.5567555 209.219698,9.65647761 186.251143,13.1741768 C156.172095,17.7334642 159.798384,31.4238006 159.798384,31.4238006 Z M179.803514,70.246975 C206.108009,66.8789652 199.880923,79.9705442 199.880923,79.9705442 C199.880923,79.9705442 186.246818,69.7230624 155.426451,89.9997292 C155.426451,89.9997292 148.390091,89.0953561 147.20398,83.8624668 C147.20398,83.8624668 150.020995,79.2969423 159.874369,75.2615675 C159.281314,69.1243051 162.765516,59.7749592 166.910729,51.0243706 C165.872881,51.6231279 164.760902,52.2218852 163.648922,52.8206425 C163.648922,52.8206425 159.577841,52.2218852 159.800237,46.6833801 C159.800237,46.6833801 164.68677,41.9744034 173.279901,38.7560828 C175.806566,34.1219507 177.950215,30.5294069 178.617403,29.1073583 C183.429803,19.6831677 183.510113,15.6415559 183.510113,15.6415559 C192.770432,16.9887598 190.843,24.9160571 185.585808,35.8371409 C187.655326,35.6874516 189.731021,35.612607 191.95498,35.6874516 C191.95498,35.6874516 199.880923,43.7644382 196.47703,44.7436559 C194.178939,45.4172579 189.656889,43.3216073 180.693098,45.4858655 C177.505423,51.4734386 174.10153,57.8289979 171.358647,64.3404837 C169.95014,67.4839595 168.83816,70.246975 167.948577,72.5671596 C171.358647,71.6690236 175.287642,70.8457323 179.803514,70.246975 Z M342.525045,22.0744547 C342.525045,22.0744547 338.96671,22.897746 336.668619,19.2303575 C336.668619,19.2303575 337.039279,8.98287564 342.080253,5.54625817 C342.080253,5.54625817 346.966786,5.6959475 348.449425,9.58163295 C348.449425,9.58163295 340.301086,19.4548915 342.525045,22.0744547 Z M676.411738,51.1734362 C675.077363,46.3833777 676.11521,38.5309251 681.594799,34.1899346 C681.594799,34.1899346 681.230316,42.6473816 676.411738,51.1734362 M665.520516,62.9178113 C665.520516,62.9178113 659.812354,56.4063256 671.148368,41.3750223 C670.629444,43.4706729 670.413226,45.8594651 670.56149,48.7035623 C670.777708,51.9967275 671.667292,54.3917568 673.001668,56.113184 C671.006282,58.6516655 668.559927,60.9718501 665.520516,62.9178113 M615.475258,60.5227821 C615.475258,60.5227821 622.066825,47.1380614 621.10311,43.8448962 C620.145572,40.551731 616.364841,40.2523524 616.364841,40.2523524 C616.364841,40.2523524 605.844279,58.8761995 598.659655,62.543588 C598.659655,62.543588 597.32528,46.4582224 614.363278,36.0610512 C617.847481,33.9716377 618.879151,37.5579445 620.516232,38.7554591 C620.516232,38.7554591 623.549465,29.9300259 612.806507,29.9300259 C609.235817,29.9300259 601.649645,34.4331798 596.534539,43.6141252 C595.292828,45.3729748 588.787748,54.5601572 583.981525,60.9718501 C584.790799,55.882413 587.607814,42.6473816 595.756153,24.5412101 C602.607183,24.3353873 610.458994,24.4726025 618.947105,25.1586786 C618.910039,25.2584714 618.860618,25.3395532 618.829729,25.4393461 C618.829729,25.4393461 619.268344,26.0381034 619.867577,26.6368607 C619.867577,26.6368607 625.643693,25.5890354 635.126408,24.9154334 C632.772718,30.8406359 629.93717,38.0569089 627.540236,44.8054028 C625.106236,48.7409847 618.786486,58.6080061 615.475258,60.5227821 M735.630828,50.7992129 C726.592905,53.4187761 718.370434,59.6994908 712.58814,65.0134619 C712.9588,61.0466948 714.219044,57.4541509 714.737967,56.1880287 C716.733353,50.4998342 719.476236,44.1442749 726.073981,34.339624 C726.073981,34.339624 722.589779,29.6306472 720.143424,29.6306472 C717.697069,29.6306472 704.662197,40.4020417 700.733203,46.0091544 C700.733203,46.0091544 709.17807,29.6306472 696.655944,29.6306472 C696.655944,29.6306472 697.681436,34.3084387 693.579467,44.6993728 C691.2196,47.4062548 685.289042,53.8990294 681.594799,55.1402034 C683.15157,52.2212615 684.708341,48.8532516 686.042717,44.8927215 C691.380219,28.1337539 678.042642,28.0589093 676.337606,30.5287832 C675.299759,29.7803365 673.965383,29.1067346 672.186216,29.1067346 C672.186216,29.1067346 663.772237,34.339624 659.540537,45.4103971 C657.106537,49.2087638 651.521929,57.7348184 647.284051,62.6932774 C647.580579,57.7535296 649.285614,43.3209836 657.588395,35.693065 C657.588395,35.693065 656.698811,31.1275405 650.61999,31.1275405 C650.61999,31.1275405 646.585975,35.7803837 643.657762,44.4810759 C641.582067,47.4187289 635.991281,55.2836557 631.722515,60.9718501 C632.531789,55.882413 635.348804,42.6473816 643.497143,24.5412101 C650.836208,24.3166761 659.281075,24.4663654 668.467262,25.2896567 C668.467262,25.2896567 670.172297,23.6430741 670.172297,22.2210255 C670.172297,22.2210255 667.274973,21.8655134 662.783811,21.3603119 C661.968359,18.0671467 668.924409,9.58475148 668.924409,9.58475148 C667.435592,5.69282897 662.54906,5.54313964 662.54906,5.54313964 C657.508085,8.98599417 657.137426,19.233476 657.137426,19.233476 C657.606928,19.9756856 658.119674,20.4933612 658.650953,20.9050068 C654.85169,20.4933612 650.447015,20.0380562 645.869366,19.6076993 C647.129609,16.9132915 646.833082,17.5120488 648.389853,14.4434176 C648.389853,14.4434176 647.277873,8.76146018 641.569712,8.76146018 C641.569712,8.76146018 640.83457,10.9257184 637.572763,18.8592527 C633.124845,18.5598741 628.831368,18.1856507 625.050637,18.0359614 C625.050637,18.0359614 622.622815,19.45801 620.683029,22.0152027 C617.025851,21.5786088 607.963218,20.5307835 598.128376,19.6076993 C599.38862,16.9132915 599.092092,17.5120488 600.648863,14.4434176 C600.648863,14.4434176 599.536884,8.76146018 593.828722,8.76146018 C593.828722,8.76146018 593.09358,10.9257184 589.831773,18.8592527 C589.52289,18.8343045 589.23254,18.8155933 588.923656,18.7968822 C589.158408,18.2979177 589.436403,17.8675609 589.658799,17.3623594 C589.658799,17.3623594 592.24724,11.5993203 581.43015,5.31860565 C570.693369,-0.962109035 552.01829,11.5993203 545.278458,19.008942 C538.458317,26.4123267 533.201125,33.666022 534.387236,39.2793718 C535.573348,44.5184982 537.649043,47.6619741 552.907874,55.5892714 C565.504131,62.09452 566.171319,73.5395165 547.502417,83.5624644 C547.502417,83.5624644 550.090859,72.9407592 558.838431,64.9386173 C558.838431,64.9386173 558.838431,62.1693647 556.54034,62.6932774 C556.54034,62.6932774 549.207453,66.4355105 544.388875,72.7162252 C539.570296,78.9969399 537.865261,83.5624644 542.683839,87.7537656 C547.502417,91.863985 555.650757,94.7080822 563.280172,85.882649 C570.989897,76.982371 573.430074,64.9386173 562.09406,55.0653587 C558.016802,51.6225042 551.944158,47.6619741 542.980367,43.0216049 C538.828977,40.9259544 561.575137,9.2042911 580.324348,11.2999417 C580.324348,11.2999417 580.052531,14.1689871 578.606957,18.1108061 C578.186876,18.0920949 577.717373,18.0484355 577.309648,18.0359614 C577.309648,18.0359614 572.645511,20.7303693 571.08874,25.4393461 C571.08874,25.4393461 571.527354,26.0381034 572.126587,26.6368607 C572.126587,26.6368607 572.898795,26.4934084 574.307303,26.2938226 C572.108054,29.3936391 569.13042,32.4872185 565.059339,35.0132259 C565.059339,35.0132259 565.355867,27.3104626 568.46941,24.1669868 C568.46941,24.1669868 561.130345,26.7117053 558.838431,34.7138473 C556.54034,42.7222263 560.839995,44.7430322 563.650832,44.9613291 C566.023055,45.2170484 577.371424,37.8199008 585.47652,25.0651227 C586.106642,25.0152263 586.712053,24.9653298 587.385418,24.9154334 C582.27649,37.7824785 574.789161,56.8616307 574.789161,63.5914133 C574.789161,63.5914133 574.047841,69.1236814 582.128226,72.4168466 C582.27649,72.6413806 582.492708,72.7162252 582.795414,72.7162252 C582.795414,72.7162252 583.159896,72.4168466 583.382292,71.8180893 C583.314337,71.7432446 583.314337,71.7432446 583.314337,71.6683999 C584.593114,69.4292971 587.904342,63.5727022 592.210174,56.3065327 C591.969245,57.7410554 591.654184,59.1132076 591.542986,60.6724714 C591.542986,60.6724714 593.025626,67.2588018 600.284381,67.2588018 C600.284381,67.2588018 603.546188,65.3876852 608.506852,58.5768209 C608.068238,60.2234035 607.987929,61.8699861 608.809558,63.3668793 C608.809558,63.3668793 612.954771,67.2588018 615.771786,67.2588018 C615.771786,67.2588018 619.855222,61.5518962 624.167231,55.1963369 C623.178805,58.6890879 622.53015,61.6704003 622.53015,63.5914133 C622.53015,63.5914133 621.788831,69.1236814 629.869215,72.4168466 C630.017479,72.6413806 630.233698,72.7162252 630.536403,72.7162252 C630.536403,72.7162252 630.900885,72.4168466 631.123281,71.8180893 C631.055327,71.7432446 631.055327,71.7432446 631.055327,71.6683999 C632.482367,69.1673408 636.41754,62.20055 641.470869,53.7493401 C641.019899,56.6308596 640.692483,59.6745426 640.692483,63.0675007 C640.692483,63.0675007 641.433803,65.0883066 643.435366,66.6538075 C644.69561,67.8513221 645.949676,70.0218173 647.358183,70.0218173 C647.358183,70.0218173 651.410731,63.7286285 657.483375,54.086141 C656.711167,64.6454757 663.846369,68.7556951 670.258785,68.2255454 C670.258785,68.2255454 674.187779,65.9115979 678.413301,59.9988695 C679.895941,60.5227821 681.37858,60.6724714 683.967022,60.2234035 C684.955448,60.0362918 686.425732,58.8075919 688.013392,57.1485352 C685.233443,63.3980646 684.597143,65.7307233 685.838854,66.6538075 C687.618021,67.9324038 689.916112,70.0218173 691.769412,69.2047631 C691.769412,69.2047631 698.435111,53.1942421 711.920953,42.7222263 C711.920953,42.7222263 705.545603,52.5954848 703.550217,65.3128406 C703.550217,65.5373746 703.469908,65.6870639 703.469908,65.9115979 L703.469908,65.9864426 C703.179558,68.0758561 703.105426,70.9199533 704.211228,73.9137398 C704.143273,74.0634292 704.069141,74.0634292 704.069141,74.0634292 C704.069141,76.6829924 708.362618,80.8680565 708.362618,80.8680565 C722.960439,62.992656 742,61.4209181 742,61.4209181 C739.479513,54.6848984 735.630828,50.7992129 735.630828,50.7992129" id="path-1"></path>
        <filter x="-0.9%" y="-5.1%" width="101.9%" height="114.3%" filterUnits="objectBoundingBox" id="filter-2">
            <feOffset dx="0" dy="2" in="SourceAlpha" result="shadowOffsetOuter1"></feOffset>
            <feGaussianBlur stdDeviation="2" in="shadowOffsetOuter1" result="shadowBlurOuter1"></feGaussianBlur>
            <feColorMatrix values="0 0 0 0 0   0 0 0 0 0   0 0 0 0 0  0 0 0 0.5 0" type="matrix" in="shadowBlurOuter1"></feColorMatrix>
        </filter>
    </defs>
    <g id="phase1-copy" stroke="none" stroke-width="1" fill="none" fill-rule="evenodd" transform="translate(-324.000000, -246.000000)">
        <g id="AESlogo" transform="translate(328.000000, 248.000000)">
            <g id="Fill-9">
                <use fill="black" fill-opacity="1" filter="url(#filter-2)" xlink:href="#path-1"></use>
                <use fill="#FFFFFF" fill-rule="evenodd" xlink:href="#path-1"></use>
            </g>
        </g>
    </g>
</svg>