<?xml version="1.0" encoding="UTF-8"?>
<svg width="31px" height="34px" viewBox="0 0 31 34" version="1.1" xmlns="http://www.w3.org/2000/svg" xmlns:xlink="http://www.w3.org/1999/xlink">
    <!-- Generator: Sketch 49.1 (51147) - http://www.bohemiancoding.com/sketch -->
    <title>brain icon</title>
    <desc>Created with Sketch.</desc>
    <defs>
        <polygon id="path-1" points="0 0 30.9664865 0 30.9664865 33.3533534 0 33.3533534"></polygon>
    </defs>
    <g id="Page-1" stroke="none" stroke-width="1" fill="none" fill-rule="evenodd">
        <g id="phase4" transform="translate(-1079.000000, -873.000000)">
            <g id="Group-5" transform="translate(174.000000, 864.000000)">
                <g id="humansocial" transform="translate(760.000000, 9.000000)">
                    <g id="brain-icon" transform="translate(145.000000, 0.000000)">
                        <mask id="mask-2" fill="white">
                            <use xlink:href="#path-1"></use>
                        </mask>
                        <g id="Clip-2"></g>
                        <path d="M20.2247448,33.3533534 L6.5229185,33.3533534 C5.94672154,33.0356757 5.75877159,32.5497336 5.7786641,31.8857523 C5.81913508,30.5515061 5.81433343,29.2144671 5.78140789,27.8802209 C5.72584605,25.6662519 5.27654961,23.6387003 3.73522277,21.879953 C2.71933266,20.7216513 1.90442555,19.3175858 1.25071638,17.9037456 C-1.29483944,12.3984963 0.117529045,6.43104344 4.82931103,2.81510352 C7.88932841,0.467081525 11.4137331,-0.289061152 15.202914,0.094944824 C19.6650106,0.548071876 23.2394896,2.58888909 25.7843595,6.34446754 C27.5060908,8.88588892 28.5171793,11.6786597 27.959503,14.8512472 C27.7105036,16.2650874 28.0768002,17.4855282 29.0220376,18.5404974 C29.5454165,19.1241864 30.0701673,19.7071773 30.5798272,20.3034339 C31.2698916,21.1091482 31.0133468,21.9316192 29.993341,22.1948379 C29.6654575,22.2793192 29.3307145,22.3428547 28.9959715,22.394521 C28.520609,22.4678312 28.3134525,22.68078 28.3216839,23.2218793 C28.3415764,24.5065538 28.2770972,25.7926248 28.2551469,27.0779975 C28.2338825,28.3012311 27.6590574,29.0496936 26.4641347,29.1858412 C25.6780374,29.2752099 24.8713617,29.2179581 24.0756611,29.1767647 C22.0082116,29.0699412 21.0609164,29.8805429 20.9744868,31.9527788 C20.9484208,32.583945 20.7488097,33.0384685 20.2247448,33.3533534 M9.12197832,4.65065209 C8.98478857,4.61853523 8.89355738,4.59758945 8.8023262,4.57594547 C7.3700652,4.23173648 5.83559785,4.8887358 5.41030962,6.13082058 C5.19012007,6.77385604 5.04058324,7.3701126 4.44586567,7.81625772 C4.17834566,8.01733722 3.97873457,8.59753534 4.05487488,8.93266783 C4.240767,9.74396772 3.90053641,10.310202 3.53904142,10.955332 C2.5917462,12.6449583 2.88396036,14.3806653 4.24831243,15.6869839 C4.33611387,15.7714652 4.40951039,15.9201802 4.41294013,16.0409675 C4.46644414,17.8814035 5.19080602,18.4650925 7.06276016,18.1132034 C7.31724715,18.9238051 7.9524357,19.2763924 8.73030158,19.430693 C9.08630898,19.5005123 9.45054777,19.6296779 9.80243948,19.604543 C11.0014779,19.5172689 11.709377,19.9229189 11.7025175,21.2697326 C11.7011456,21.4317133 12.0393184,21.6677024 12.2608798,21.7417108 C12.6141434,21.8604036 12.8267875,21.6607205 12.9351674,21.2816018 C13.1375223,20.5736345 13.4269927,19.890802 13.610141,19.1786455 C13.9489997,17.8632505 14.8160389,17.2327825 16.0788706,17.0226265 C17.0158766,16.8662313 17.7951143,16.4179916 18.4405921,15.6841911 C19.2774496,14.7318563 20.2713893,14.0287762 21.5355929,13.7257606 C22.5542268,13.4820914 22.7963667,13.1022745 22.8985731,12.0193777 C24.0688016,11.4531434 24.4687098,10.6418435 23.996777,9.38858765 C23.7484636,8.72879556 23.2250847,8.17652515 22.8217468,7.57887221 C22.2777894,6.77315785 21.6110473,6.16014467 20.8167186,5.55481162 C19.901663,4.85731713 19.1141938,4.35182562 17.9768908,4.42513585 C17.7587591,4.43909971 17.451454,4.34344731 17.3197519,4.18356118 C16.72915,3.46512091 16.0219368,3.31570768 15.1617571,3.53563837 C14.894923,3.60336306 14.5430313,3.58590825 14.3043211,3.46023356 C13.4283646,3.00152097 12.5983666,3.01618302 11.7423026,3.50072874 C11.5310303,3.62081788 11.240874,3.69273173 11.0069655,3.65572752 C10.1618766,3.52237271 9.52668808,3.76394738 9.12197832,4.65065209" id="Fill-1" fill="#FFCD00" mask="url(#mask-2)"></path>
                    </g>
                </g>
            </g>
        </g>
    </g>
</svg>