<?xml version="1.0" encoding="UTF-8"?>
<svg width="27px" height="29px" viewBox="0 0 27 29" version="1.1" xmlns="http://www.w3.org/2000/svg" xmlns:xlink="http://www.w3.org/1999/xlink">
    <!-- Generator: Sketch 49.2 (51160) - http://www.bohemiancoding.com/sketch -->
    <title>brain icon</title>
    <desc>Created with Sketch.</desc>
    <defs>
        <polygon id="path-1" points="0 0 26.9708108 0 26.9708108 28.4484484 0 28.4484484"></polygon>
    </defs>
    <g id="Page-1" stroke="none" stroke-width="1" fill="none" fill-rule="evenodd">
        <g id="phase4" transform="translate(-833.000000, -5208.000000)">
            <g id="Articles" transform="translate(100.000000, 4902.000000)">
                <g id="brain-icon" transform="translate(733.000000, 306.000000)">
                    <mask id="mask-2" fill="white">
                        <use xlink:href="#path-1"></use>
                    </mask>
                    <g id="Clip-2"></g>
                    <path d="M17.6151003,28.4484484 L5.68125159,28.4484484 C5.17940263,28.1774881 5.01570428,27.763008 5.03303002,27.1966711 C5.06827894,26.0586376 5.06409686,24.918222 5.03541978,23.7801884 C4.9870272,21.8918031 4.5957045,20.1624209 3.25325854,18.6623128 C2.36845103,17.6743496 1.65869322,16.4767644 1.08933362,15.2708419 C-1.12776338,10.575188 0.102364007,5.48530175 4.20617412,2.40111771 C6.87135055,0.398393065 9.94099335,-0.246552159 13.2412477,0.0809823499 C17.1275899,0.467473071 20.2408458,2.20817011 22.4573453,5.41145761 C23.9569178,7.57914055 24.8375433,9.9612097 24.3518252,12.6672403 C24.1349547,13.8731628 24.4539873,14.914127 25.2772585,15.8139536 C25.7331047,16.3118061 26.1901457,16.809063 26.634043,17.3176348 C27.2350669,18.0048617 27.0116246,18.7063811 26.1232325,18.9308911 C25.8376565,19.0029487 25.5461062,19.0571408 25.2545558,19.1012091 C24.8405305,19.1637384 24.6601038,19.3453712 24.6672731,19.8068971 C24.6845988,20.9026489 24.6284395,21.9995917 24.6093215,23.095939 C24.5908009,24.1392853 24.0901468,24.7776799 23.0494076,24.8938057 C22.3647423,24.970032 21.6621537,24.9211995 20.9691242,24.886064 C19.1684423,24.7949499 18.3433788,25.4863454 18.2681014,27.2538408 C18.2453987,27.7921884 18.0715439,28.1798702 17.6151003,28.4484484 M7.94494886,3.96673267 C7.82546101,3.93933887 7.74600159,3.92147335 7.66654217,3.90301232 C6.41908905,3.60942229 5.08261748,4.16980406 4.71220515,5.22922932 C4.52042716,5.77770074 4.3901854,6.28627251 3.87220559,6.66680806 C3.63920428,6.83831704 3.46534947,7.3331919 3.53166522,7.6190402 C3.69357125,8.31103129 3.39724139,8.79399582 3.08239092,9.34425379 C2.25732733,10.7854056 2.51183645,12.2658616 3.70014309,13.3800745 C3.77661531,13.4521321 3.84054131,13.5789772 3.8435285,13.6820017 C3.89012876,15.2517853 4.5210246,15.7496378 6.15143627,15.449497 C6.37308623,16.1408926 6.92631496,16.4416289 7.60381105,16.5732382 C7.91388202,16.6327899 8.23112225,16.7429606 8.53760858,16.721522 C9.58193236,16.6470823 10.1984897,16.9930779 10.1925153,18.1418307 C10.1913204,18.2799907 10.4858579,18.4812756 10.6788308,18.5444004 C10.986512,18.6456383 11.1717182,18.4753204 11.2661136,18.1519545 C11.4423581,17.5481 11.6944775,16.9656841 11.8539938,16.3582564 C12.1491288,15.2363019 12.904292,14.6985497 14.0041776,14.519299 C14.8202796,14.3859032 15.4989706,14.0035811 16.0611609,13.3776924 C16.7900367,12.5654068 17.6557262,11.9657209 18.7568067,11.7072664 C19.644004,11.4994309 19.8549,11.1754695 19.9439185,10.2518221 C20.9631498,9.76885762 21.3114569,9.07686653 20.9004187,8.00791299 C20.6841457,7.44514916 20.2282996,6.97409498 19.8770053,6.46433218 C19.403236,5.77710523 18.822525,5.25424105 18.1306904,4.73792756 C17.3337065,4.14300578 16.6478462,3.71185127 15.657292,3.77438058 C15.4673063,3.78629093 15.1996535,3.70470506 15.0849452,3.5683316 C14.57055,2.95554431 13.9545901,2.82810361 13.2054013,3.01569155 C12.9729975,3.07345673 12.6665111,3.0585688 12.4586023,2.95137569 C11.6956724,2.56012083 10.9727709,2.57262669 10.2271667,2.98591569 C10.0431555,3.08834466 9.79043866,3.14968294 9.58671188,3.11812053 C8.85066674,3.00437673 8.29743801,3.21042571 7.94494886,3.96673267" id="Fill-1" fill="#FFFFFF" mask="url(#mask-2)"></path>
                </g>
            </g>
        </g>
    </g>
</svg>