<?xml version="1.0" encoding="UTF-8"?>
<svg width="315px" height="58px" viewBox="0 0 315 58" version="1.1" xmlns="http://www.w3.org/2000/svg" xmlns:xlink="http://www.w3.org/1999/xlink">
    <!-- Generator: Sketch 62 (91390) - https://sketch.com -->
    <title>caes-logo</title>
    <desc>Created with Sketch.</desc>
    <defs>
        <polygon id="path-1" points="0.4335 0.38325 21.4515 0.38325 21.4515 11.205 0.4335 11.205"></polygon>
    </defs>
    <g id="Page-1" stroke="none" stroke-width="1" fill="none" fill-rule="evenodd">
        <g id="phase-5-brand-2.0" transform="translate(-986.000000, -100.000000)">
            <g id="caes-logo" transform="translate(986.000000, 100.000000)">
                <path d="M38.469,22.05225 C38.8275,15.6675 37.6305,9.5625 35.22375,4.08675 C34.70775,2.9115 34.116,1.779 33.492,0.6675 L0,0.6675 L0,57.67725 L9.648,57.67725 C25.47225,53.35575 37.49475,39.33225 38.469,22.05225" id="Fill-1" fill="#FFFFFE"></path>
                <path d="M37.3785,0.6675 C40.85325,5.47425 43.3995,11.06325 44.66325,17.25225 C47.80425,32.64525 42.31425,47.7885 31.518,57.67725 L57.01275,57.67725 L57.01275,0.6675 L37.3785,0.6675" id="Fill-2" fill="#FFFFFE"></path>
                <path d="M173.81475,19.47825 L175.85325,14.0925 L176.20575,14.39925 C177.45525,15.4185 179.151,16.2855 180.75075,16.32 C182.18175,16.353 182.88,15.972 182.69025,14.76075 C182.55,13.857 181.5285,13.69725 180.8895,13.572 L179.49075,13.29225 C176.76825,12.783 174.4785,11.10375 174.4785,7.92075 C174.4785,3.10875 178.626,0.41025 182.7975,0.41025 C184.98825,0.41025 187.0005,0.96825 188.88075,2.193 L187.1145,6.96525 C186.144,6.26625 184.67775,5.283 182.82,5.21625 C182.2095,5.193 180.81,5.51475 181.25775,6.933 C181.45125,7.5375 182.3175,7.79175 182.85075,7.92075 L184.43175,8.3025 C187.38,8.9895 189.51525,10.6695 189.51525,14.106 C189.51525,18.9435 185.34225,21.33675 181.1985,21.33675 C178.779,21.33675 175.9785,20.64825 173.81475,19.47825" id="Fill-3" fill="#FFFFFE"></path>
                <polygon id="Fill-4" fill="#FFFFFE" points="165.213 21.03225 172.31475 21.03225 172.31475 0.741 165.213 0.741"></polygon>
                <polyline id="Fill-5" fill="#FFFFFE" points="157.2045 0.74025 164.478 0.74025 157.04775 21.03225 151.146 21.03225 143.73975 0.74025 150.9885 0.74025 154.098 12.9855 157.2045 0.74025"></polyline>
                <path d="M137.09625,6.59775 L137.09625,6.59775 C137.22525,7.461 138.49725,13.67175 138.49725,13.67175 L135.705,13.67175 L137.09625,6.59775 Z M126.51075,21.03225 L133.89,21.03225 L134.45175,18.48375 L139.71675,18.48375 L140.41575,21.03225 L147.7995,21.03225 L140.88825,0.741 L133.1475,0.741 L126.51075,21.03225 L126.51075,21.03225 Z" id="Fill-6" fill="#FFFFFE"></path>
                <g id="Group-10" transform="translate(84.750000, 0.000000)" fill="#FFFFFE">
                    <path d="M23.51475,0.74025 L30.789,0.74025 C37.28175,0.74025 42.24075,3.72075 42.24075,11.1795 C42.24075,17.1885 38.19975,21.03225 32.52225,21.03225 L23.51475,21.021 L23.51475,0.74025 Z M30.6645,15.20625 L31.14075,15.20625 C33.4815,15.20625 35.2185,13.8015 35.2185,11.15325 C35.2185,8.3025 33.68025,6.7125 31.1085,6.7125 L30.6645,6.7125 L30.6645,15.20625 L30.6645,15.20625 Z" id="Fill-7"></path>
                    <path d="M19.2675,1.377 L19.647,4.70775 C19.7355,5.4975 20.18775,7.3935 19.62825,7.14 C19.28025,6.984 18.993,6.1245 18.708,5.36025 C18.56325,4.9725 17.87175,3.1395 17.691,3.0045 C16.81575,2.35125 14.6355,1.61325 13.16025,1.6065 C8.68725,1.59 5.7285,4.89 5.7285,10.74675 C5.7285,14.94675 7.7385,19.98525 12.85425,19.98525 C14.68725,19.98525 18.19725,19.4085 19.1535,16.80075 C19.5855,15.62025 19.98,14.571 20.26575,14.8905 C20.47875,15.12225 20.202,16.06725 20.0745,16.5765 C19.4715,18.99375 19.4385,19.7265 19.24875,19.82025 C16.938,20.982 13.97325,21.36375 11.37975,21.36375 C3.12975,21.36375 0.282,16.551 0.282,11.73975 C0.282,3.39 5.41125,-0.12675 13.3605,0.23325 C15.372,0.30825 17.38425,0.666 19.2675,1.377" id="Fill-9"></path>
                </g>
                <path d="M79.662,1.7475 L78.3405,1.28625 C77.89875,0.88725 78.43875,0.7755 78.43875,0.7755 C78.43875,0.7755 80.3475,1.13025 85.10325,0.726 C85.10325,0.726 85.51575,0.80925 85.2315,1.14375 L83.67,1.81275 C82.65375,2.256 82.65375,2.00175 82.65375,3.1155 L82.64475,13.4565 C82.64475,21.54525 74.4195,21.36375 72.81675,21.36375 C72.0525,21.36375 64.5075,21.36375 64.5075,14.871 L64.5075,3.92325 C64.5075,2.01525 64.71225,2.06475 64.07775,1.842 L62.16975,1.12575 C62.16975,1.12575 61.84575,0.6675 62.42175,0.69675 C63.98175,0.7755 66.23925,1.10925 71.55,0.726 C71.55,0.726 72.01275,0.83925 71.70825,1.173 L70.1205,1.62075 C68.91225,2.16225 69.072,1.7475 69.03975,2.98875 L69.078,13.782 C69.078,16.42875 70.44,19.70625 74.72325,19.70625 C80.55375,19.70625 80.60925,14.6625 80.60925,13.5405 L80.619,2.8485 C80.68125,1.842 80.55375,2.1285 79.662,1.7475" id="Fill-11" fill="#FFFFFE"></path>
                <polygon id="Fill-12" fill="#FFFFFE" points="64.509 26.37525 314.04375 26.37525 314.04375 25.52775 64.509 25.52775"></polygon>
                <path d="M71.77575,34.8675 C71.64,34.68225 71.484,34.52025 71.31075,34.38225 C71.13675,34.24275 70.95,34.12725 70.749,34.032 C70.54875,33.9375 70.3395,33.86625 70.119,33.8175 C69.89925,33.7695 69.6765,33.74475 69.45225,33.74475 C69.04725,33.74475 68.6775,33.8175 68.34225,33.963 C68.0085,34.10775 67.722,34.30875 67.485,34.56375 C67.24725,34.81875 67.062,35.118 66.93,35.4615 C66.79875,35.80425 66.73275,36.17475 66.73275,36.57075 C66.73275,36.97575 66.79875,37.347 66.93,37.686 C67.062,38.025 67.2495,38.31675 67.491,38.56125 C67.73325,38.805 68.02425,38.997 68.3625,39.135 C68.7015,39.273 69.07725,39.342 69.492,39.342 C69.70725,39.342 69.921,39.318 70.13475,39.267 C70.3485,39.21675 70.55325,39.144 70.749,39.0495 C70.94475,38.95425 71.13,38.841 71.30325,38.709 C71.47725,38.577 71.6355,38.42775 71.77575,38.2605 L71.77575,41.436 C71.55525,41.50125 71.349,41.56425 71.1555,41.62425 C70.962,41.68275 70.77225,41.73375 70.587,41.77575 C70.4025,41.81775 70.21725,41.85075 70.029,41.87475 C69.84225,41.8995 69.645,41.9115 69.4395,41.9115 C68.7255,41.9115 68.04225,41.781 67.389,41.5215 C66.735,41.262 66.1425,40.89225 65.60925,40.41225 C65.04675,39.90225 64.63275,39.32175 64.36875,38.673 C64.10475,38.02425 63.97275,37.3185 63.97275,36.558 C63.97275,35.8575 64.101,35.18625 64.356,34.54425 C64.611,33.9015 64.98525,33.32925 65.478,32.8275 C65.72925,32.5725 66.00375,32.34225 66.303,32.1375 C66.60225,31.9335 66.91875,31.75875 67.251,31.6155 C67.58175,31.473 67.92675,31.3635 68.28375,31.28925 C68.64,31.21425 68.99625,31.17675 69.3525,31.17675 C69.78,31.17675 70.19175,31.2225 70.587,31.3125 C70.98375,31.40325 71.37975,31.52925 71.77575,31.69275 L71.77575,34.8675" id="Fill-13" fill="#FFFFFE"></path>
                <path d="M79.4145,33.67875 C79.0185,33.67875 78.64575,33.75225 78.2985,33.9 C77.95125,34.04775 77.646,34.24575 77.38425,34.49475 C77.12325,34.743 76.9155,35.0295 76.764,35.352 C76.6125,35.676 76.536,36.01425 76.536,36.366 C76.536,36.80625 76.6125,37.212 76.764,37.584 C76.9155,37.95525 77.12325,38.27625 77.38425,38.547 C77.646,38.81775 77.95125,39.02925 78.2985,39.18075 C78.64575,39.333 79.0185,39.4095 79.4145,39.4095 C79.80975,39.4095 80.18325,39.333 80.53275,39.18075 C80.883,39.02925 81.18825,38.81775 81.447,38.547 C81.7065,38.27625 81.91275,37.95525 82.0635,37.584 C82.2165,37.212 82.293,36.80625 82.293,36.366 C82.293,36.01425 82.2165,35.676 82.0635,35.352 C81.91275,35.0295 81.7065,34.743 81.447,34.49475 C81.18825,34.24575 80.883,34.04775 80.53275,33.9 C80.18325,33.75225 79.80975,33.67875 79.4145,33.67875 M79.4145,31.11075 C79.90275,31.11075 80.38125,31.16925 80.85,31.28625 C81.31875,31.40325 81.762,31.56825 82.17975,31.78425 C82.59825,31.9995 82.98375,32.2635 83.3355,32.57325 C83.688,32.88375 83.99025,33.23325 84.243,33.62325 C84.4965,34.0125 84.6945,34.43625 84.83775,34.89375 C84.98025,35.35125 85.05225,35.838 85.05225,36.3525 C85.05225,37.17975 84.91275,37.938 84.633,38.6265 C84.35325,39.31575 83.9625,39.9075 83.46075,40.4025 C82.959,40.89825 82.36425,41.28375 81.675,41.56125 C80.9865,41.838 80.23275,41.97675 79.4145,41.97675 C78.86775,41.97675 78.35025,41.9145 77.85975,41.78925 C77.36925,41.664 76.9155,41.484 76.49925,41.25075 C76.08375,41.01825 75.708,40.734 75.37125,40.4025 C75.03375,40.07025 74.748,39.69525 74.5125,39.2775 C74.27775,38.859 74.0955,38.40375 73.96875,37.914 C73.84125,37.42275 73.77675,36.903 73.77675,36.3525 C73.77675,35.838 73.84875,35.35125 73.99125,34.89375 C74.1345,34.43625 74.33325,34.0125 74.589,33.62325 C74.844,33.23325 75.14625,32.88375 75.4965,32.57325 C75.846,32.2635 76.23075,31.9995 76.6485,31.78425 C77.06625,31.56825 77.5095,31.40325 77.97825,31.28625 C78.44775,31.16925 78.9255,31.11075 79.4145,31.11075" id="Fill-14" fill="#FFFFFE"></path>
                <polyline id="Fill-15" fill="#FFFFFE" points="89.9745 39.396 93.15675 39.396 93.15675 41.64075 87.327 41.64075 87.327 31.4475 89.9745 31.4475 89.9745 39.396"></polyline>
                <polyline id="Fill-16" fill="#FFFFFE" points="98.1825 39.396 101.36475 39.396 101.36475 41.64075 95.535 41.64075 95.535 31.4475 98.1825 31.4475 98.1825 39.396"></polyline>
                <polyline id="Fill-17" fill="#FFFFFE" points="106.3905 33.69225 106.3905 35.39475 109.38 35.39475 109.38 37.64025 106.3905 37.64025 106.3905 39.396 109.54575 39.396 109.54575 41.63925 103.743 41.63925 103.743 31.4475 109.54575 31.4475 109.54575 33.69225 106.3905 33.69225"></polyline>
                <path d="M122.5995,35.94975 C122.592,36.3195 122.5755,36.678 122.55375,37.026 C122.532,37.37325 122.484,37.71375 122.41125,38.046 C122.34,38.3775 122.23575,38.7045 122.1015,39.0225 C121.96725,39.342 121.785,39.66 121.557,39.97725 C121.30575,40.3245 121.026,40.6245 120.71925,40.87725 C120.41025,41.13075 120.078,41.33925 119.721,41.502 C119.3655,41.664 118.989,41.78475 118.59375,41.86125 C118.19625,41.9385 117.7845,41.97675 117.3585,41.97675 C116.5575,41.97675 115.82325,41.847 115.15725,41.58825 C114.4905,41.328 113.91675,40.962 113.4375,40.48875 C112.9575,40.01475 112.58475,39.44925 112.31775,38.7885 C112.0515,38.1285 111.91875,37.398 111.91875,36.59625 C111.91875,35.769 112.053,35.0175 112.3215,34.3425 C112.59,33.6675 112.968,33.09075 113.45325,32.613 C113.93925,32.136 114.522,31.76625 115.2,31.50375 C115.87725,31.242 116.62725,31.11075 117.45075,31.11075 C118.4985,31.11075 119.41575,31.34775 120.20325,31.821 C120.9915,32.29425 121.605,33.00825 122.04525,33.963 L119.53125,35.013 C119.43825,34.77075 119.32125,34.551 119.181,34.353 C119.0385,34.15425 118.8765,33.98325 118.692,33.84075 C118.50675,33.6975 118.3005,33.588 118.071,33.51075 C117.84225,33.43425 117.594,33.396 117.32625,33.396 C116.8905,33.396 116.50575,33.48975 116.1765,33.6795 C115.8465,33.8685 115.5705,34.116 115.34775,34.42125 C115.12575,34.728 114.9585,35.07225 114.84675,35.45475 C114.73425,35.838 114.678,36.22275 114.678,36.6105 C114.678,37.0065 114.7365,37.39425 114.85275,37.776 C114.96975,38.1555 115.1415,38.49675 115.368,38.79825 C115.5945,39.09975 115.87575,39.342 116.21325,39.525 C116.54925,39.708 116.93625,39.79875 117.372,39.79875 C117.657,39.79875 117.92475,39.762 118.17375,39.68625 C118.422,39.61125 118.6395,39.4995 118.827,39.35325 C119.01375,39.2055 119.16675,39.02175 119.28525,38.80125 C119.4045,38.5815 119.47725,38.32425 119.5035,38.0295 L117.339,38.0295 L117.339,35.94975 L122.5995,35.94975" id="Fill-18" fill="#FFFFFE"></path>
                <polyline id="Fill-19" fill="#FFFFFE" points="127.4895 33.69225 127.4895 35.39475 130.47975 35.39475 130.47975 37.64025 127.4895 37.64025 127.4895 39.396 130.64475 39.396 130.64475 41.63925 124.842 41.63925 124.842 31.4475 130.64475 31.4475 130.64475 33.69225 127.4895 33.69225"></polyline>
                <path d="M141.76425,35.95575 C141.4815,35.95575 141.216,36.00825 140.96775,36.11325 C140.7195,36.21975 140.50125,36.36 140.31525,36.5385 C140.12775,36.71625 139.98,36.92025 139.872,37.1505 C139.76325,37.3815 139.71,37.62375 139.71,37.8735 C139.71,38.18925 139.76325,38.478 139.872,38.74425 C139.98,39.00975 140.12775,39.2385 140.31525,39.43275 C140.50125,39.62475 140.7195,39.77625 140.96775,39.885 C141.216,39.993 141.4815,40.04775 141.76425,40.04775 C142.047,40.04775 142.31325,39.993 142.563,39.885 C142.8135,39.77625 143.031,39.62475 143.21625,39.43275 C143.4015,39.2385 143.54775,39.00975 143.6565,38.74425 C143.7645,38.478 143.81925,38.18925 143.81925,37.8735 C143.81925,37.62375 143.7645,37.3815 143.6565,37.1505 C143.54775,36.92025 143.4015,36.71625 143.21625,36.5385 C143.031,36.36 142.8135,36.21975 142.563,36.11325 C142.31325,36.00825 142.047,35.95575 141.76425,35.95575 M141.76425,34.12275 C142.113,34.12275 142.45425,34.164 142.78875,34.24725 C143.124,34.33125 143.43975,34.449 143.739,34.6035 C144.03675,34.7565 144.3135,34.944 144.564,35.16675 C144.8145,35.388 145.032,35.637 145.212,35.916 C145.392,36.19425 145.533,36.4965 145.6365,36.8235 C145.73775,37.14975 145.78875,37.497 145.78875,37.8645 C145.78875,38.4555 145.689,38.99775 145.4895,39.48825 C145.29,39.9795 145.0125,40.40325 144.65325,40.75725 C144.2955,41.10975 143.871,41.3865 143.37825,41.5845 C142.88625,41.78175 142.34925,41.88075 141.76425,41.88075 C141.37425,41.88075 141.0045,41.83725 140.65425,41.7465 C140.30325,41.6565 139.98,41.52975 139.683,41.361 C139.386,41.196 139.1175,40.99425 138.87675,40.75725 C138.63675,40.51875 138.43275,40.251 138.264,39.9525 C138.09675,39.65475 137.967,39.32925 137.87625,38.9805 C137.784,38.62875 137.739,38.2575 137.739,37.8645 C137.739,37.497 137.79,37.14975 137.8935,36.8235 C137.99475,36.4965 138.1365,36.19425 138.31875,35.916 C138.501,35.637 138.71775,35.388 138.96675,35.16675 C139.2165,34.944 139.491,34.7565 139.7895,34.6035 C140.088,34.449 140.4045,34.33125 140.739,34.24725 C141.07425,34.164 141.41475,34.12275 141.76425,34.12275" id="Fill-20" fill="#FFFFFE"></path>
                <polyline id="Fill-21" fill="#FFFFFE" points="148.935 35.9655 148.935 37.18125 151.014 37.18125 151.014 38.784 148.935 38.784 148.935 41.64075 147.045 41.64075 147.045 34.3635 151.2255 34.3635 151.2255 35.9655 148.935 35.9655"></polyline>
                <path d="M162.36225,34.59675 L162.33675,34.59675 L161.24025,37.84425 L163.4445,37.84425 L162.36225,34.59675 Z M160.5075,39.87075 L159.80775,41.63925 L156.996,41.63925 L160.917,31.4475 L163.80825,31.4475 L167.6505,41.63925 L164.82525,41.63925 L164.1585,39.87075 L160.5075,39.87075 L160.5075,39.87075 Z" id="Fill-22" fill="#FFFFFE"></path>
                <path d="M179.811,35.94975 C179.802,36.3195 179.78625,36.678 179.76525,37.026 C179.74275,37.37325 179.6955,37.71375 179.62275,38.046 C179.55075,38.3775 179.4465,38.7045 179.313,39.0225 C179.178,39.342 178.9965,39.66 178.76775,39.97725 C178.51725,40.3245 178.2375,40.6245 177.93,40.87725 C177.62175,41.13075 177.2895,41.33925 176.9325,41.502 C176.577,41.664 176.2005,41.78475 175.8045,41.86125 C175.407,41.9385 174.996,41.97675 174.57,41.97675 C173.76825,41.97675 173.034,41.847 172.368,41.58825 C171.7005,41.328 171.1275,40.962 170.64825,40.48875 C170.169,40.01475 169.79625,39.44925 169.53,38.7885 C169.26225,38.1285 169.13025,37.398 169.13025,36.59625 C169.13025,35.769 169.2645,35.0175 169.53225,34.3425 C169.8015,33.6675 170.17875,33.09075 170.66475,32.613 C171.1515,32.136 171.7335,31.76625 172.41075,31.50375 C173.0895,31.242 173.8395,31.11075 174.66225,31.11075 C175.71,31.11075 176.6265,31.34775 177.414,31.821 C178.20225,32.29425 178.81575,33.00825 179.25675,33.963 L176.742,35.013 C176.649,34.77075 176.532,34.551 176.39175,34.353 C176.25075,34.15425 176.08875,33.98325 175.90275,33.84075 C175.71825,33.6975 175.512,33.588 175.2825,33.51075 C175.053,33.43425 174.8055,33.396 174.53625,33.396 C174.1005,33.396 173.71875,33.48975 173.38725,33.6795 C173.058,33.8685 172.782,34.116 172.56,34.42125 C172.33725,34.728 172.17,35.07225 172.05825,35.45475 C171.94575,35.838 171.8895,36.22275 171.8895,36.6105 C171.8895,37.0065 171.94725,37.39425 172.0635,37.776 C172.18125,38.1555 172.35225,38.49675 172.5795,38.79825 C172.806,39.09975 173.088,39.342 173.424,39.525 C173.76075,39.708 174.147,39.79875 174.58275,39.79875 C174.8685,39.79875 175.1355,39.762 175.3845,39.68625 C175.63275,39.61125 175.851,39.4995 176.0385,39.35325 C176.22525,39.2055 176.37825,39.02175 176.49675,38.80125 C176.616,38.5815 176.68875,38.32425 176.715,38.0295 L174.5505,38.0295 L174.5505,35.94975 L179.811,35.94975" id="Fill-23" fill="#FFFFFE"></path>
                <path d="M185.24175,36.0165 L185.49825,36.0165 C185.71425,36.0165 185.9325,36.0015 186.15225,35.973 C186.37275,35.9445 186.57,35.88525 186.747,35.79525 C186.9225,35.70375 187.065,35.577 187.17525,35.412 C187.28475,35.24775 187.34025,35.0265 187.34025,34.74825 C187.34025,34.4715 187.28475,34.24875 187.17525,34.0815 C187.065,33.91425 186.9225,33.78525 186.747,33.69525 C186.57,33.60525 186.37275,33.546 186.15225,33.51675 C185.9325,33.48825 185.71425,33.47475 185.49825,33.47475 L185.24175,33.47475 L185.24175,36.0165 Z M191.07,41.64075 L187.76925,41.64075 L185.27475,37.71975 L185.24175,37.71975 L185.24175,41.64075 L182.59425,41.64075 L182.59425,31.4475 L186.555,31.4475 C187.05675,31.4475 187.524,31.509 187.9575,31.63275 C188.391,31.7565 188.76675,31.94475 189.08325,32.20125 C189.4005,32.4555 189.64875,32.78025 189.82875,33.17325 C190.0095,33.56775 190.0995,34.03725 190.0995,34.5825 C190.0995,34.93575 190.0515,35.27025 189.95475,35.5905 C189.85725,35.91 189.714,36.1965 189.525,36.4515 C189.336,36.70725 189.10275,36.9225 188.82525,37.09875 C188.5485,37.275 188.229,37.39575 187.869,37.46175 L191.07,41.64075 L191.07,41.64075 Z" id="Fill-24" fill="#FFFFFE"></path>
                <polygon id="Fill-25" fill="#FFFFFE" points="193.371 41.63925 196.0185 41.63925 196.0185 31.4475 193.371 31.4475"></polygon>
                <path d="M206.35425,34.8675 C206.21775,34.68225 206.0625,34.52025 205.8885,34.38225 C205.71525,34.24275 205.52775,34.12725 205.32675,34.032 C205.12725,33.9375 204.91725,33.86625 204.69675,33.8175 C204.477,33.7695 204.255,33.74475 204.03075,33.74475 C203.62575,33.74475 203.25525,33.8175 202.92075,33.963 C202.58625,34.10775 202.29975,34.30875 202.0635,34.56375 C201.825,34.81875 201.6405,35.118 201.5085,35.4615 C201.3765,35.80425 201.31125,36.17475 201.31125,36.57075 C201.31125,36.97575 201.3765,37.347 201.5085,37.686 C201.6405,38.025 201.82725,38.31675 202.06875,38.56125 C202.31175,38.805 202.602,38.997 202.94025,39.135 C203.28075,39.273 203.65575,39.342 204.06975,39.342 C204.285,39.342 204.50025,39.318 204.71325,39.267 C204.927,39.21675 205.131,39.144 205.32675,39.0495 C205.52325,38.95425 205.7085,38.841 205.88175,38.709 C206.055,38.577 206.21325,38.42775 206.35425,38.2605 L206.35425,41.436 C206.13375,41.50125 205.9275,41.56425 205.73325,41.62425 C205.53975,41.68275 205.35,41.73375 205.1655,41.77575 C204.98025,41.81775 204.795,41.85075 204.6075,41.87475 C204.42075,41.8995 204.2235,41.9115 204.01725,41.9115 C203.30475,41.9115 202.62075,41.781 201.9675,41.5215 C201.3135,41.262 200.72025,40.89225 200.1885,40.41225 C199.62525,39.90225 199.21125,39.32175 198.94725,38.673 C198.68325,38.02425 198.55125,37.3185 198.55125,36.558 C198.55125,35.8575 198.67875,35.18625 198.9345,34.54425 C199.18875,33.9015 199.56375,33.32925 200.0565,32.8275 C200.307,32.5725 200.58225,32.34225 200.88075,32.1375 C201.18075,31.9335 201.4965,31.75875 201.82875,31.6155 C202.16175,31.473 202.5045,31.3635 202.8615,31.28925 C203.2185,31.21425 203.574,31.17675 203.93175,31.17675 C204.3585,31.17675 204.7695,31.2225 205.1655,31.3125 C205.5615,31.40325 205.95825,31.52925 206.35425,31.69275 L206.35425,34.8675" id="Fill-26" fill="#FFFFFE"></path>
                <path d="M218.358,31.4475 L218.358,37.1775 C218.358,37.5075 218.3505,37.83375 218.33475,38.15475 C218.31975,38.4765 218.277,38.78925 218.2065,39.096 C218.136,39.40125 218.0295,39.69675 217.8855,39.981 C217.743,40.2645 217.5465,40.52925 217.29525,40.77525 C217.08375,40.98675 216.8445,41.16375 216.576,41.307 C216.3075,41.45025 216.0255,41.5665 215.73075,41.6565 C215.43525,41.74725 215.133,41.81175 214.82175,41.85225 C214.51275,41.8905 214.20975,41.91075 213.915,41.91075 C213.61575,41.91075 213.31125,41.8905 213.00075,41.85225 C212.69025,41.81175 212.3895,41.74725 212.0955,41.6565 C211.80375,41.5665 211.52325,41.45025 211.25475,41.307 C210.987,41.16375 210.74625,40.98675 210.53475,40.77525 C210.2805,40.52925 210.081,40.2645 209.9385,39.981 C209.7945,39.69675 209.68875,39.40125 209.61825,39.096 C209.54775,38.78925 209.5035,38.4765 209.49,38.15475 C209.4735,37.83375 209.466,37.5075 209.466,37.1775 L209.466,31.4475 L212.1135,31.4475 L212.1135,36.8145 C212.1135,37.03425 212.11875,37.25775 212.13,37.48125 C212.13975,37.70625 212.1645,37.92 212.202,38.1255 C212.2395,38.32875 212.2965,38.5215 212.37375,38.69925 C212.451,38.87775 212.556,39.03225 212.69025,39.16425 C212.82525,39.29625 212.991,39.4005 213.18825,39.4755 C213.387,39.54975 213.6285,39.58725 213.915,39.58725 C214.197,39.58725 214.43775,39.54975 214.638,39.4755 C214.83825,39.4005 215.00475,39.29625 215.13675,39.16425 C215.26875,39.03225 215.373,38.87775 215.4495,38.69925 C215.5275,38.5215 215.586,38.32875 215.625,38.1255 C215.664,37.92 215.68875,37.70625 215.697,37.48125 C215.706,37.25775 215.71125,37.03425 215.71125,36.8145 L215.71125,31.4475 L218.358,31.4475" id="Fill-27" fill="#FFFFFE"></path>
                <polyline id="Fill-28" fill="#FFFFFE" points="224.27775 39.396 227.45925 39.396 227.45925 41.64075 221.6295 41.64075 221.6295 31.4475 224.27775 31.4475 224.27775 39.396"></polyline>
                <polyline id="Fill-29" fill="#FFFFFE" points="233.17425 41.64075 230.5275 41.64075 230.5275 33.693 228.336 33.693 228.336 31.4475 235.36725 31.4475 235.36725 33.693 233.17425 33.693 233.17425 41.64075"></polyline>
                <path d="M246.64275,31.4475 L246.64275,37.1775 C246.64275,37.5075 246.63525,37.83375 246.6195,38.15475 C246.6045,38.4765 246.56175,38.78925 246.492,39.096 C246.42075,39.40125 246.31425,39.69675 246.171,39.981 C246.02775,40.2645 245.832,40.52925 245.5815,40.77525 C245.36925,40.98675 245.1285,41.16375 244.8615,41.307 C244.59225,41.45025 244.31025,41.5665 244.0155,41.6565 C243.72,41.74725 243.4185,41.81175 243.10725,41.85225 C242.79825,41.8905 242.4945,41.91075 242.2005,41.91075 C241.902,41.91075 241.596,41.8905 241.2855,41.85225 C240.975,41.81175 240.67425,41.74725 240.38175,41.6565 C240.08925,41.5665 239.80875,41.45025 239.54025,41.307 C239.27175,41.16375 239.0325,40.98675 238.821,40.77525 C238.56525,40.52925 238.36575,40.2645 238.22325,39.981 C238.08,39.69675 237.97275,39.40125 237.903,39.096 C237.8325,38.78925 237.789,38.4765 237.77475,38.15475 C237.75825,37.83375 237.75075,37.5075 237.75075,37.1775 L237.75075,31.4475 L240.39825,31.4475 L240.39825,36.8145 C240.39825,37.03425 240.4035,37.25775 240.41475,37.48125 C240.42525,37.70625 240.45,37.92 240.4875,38.1255 C240.525,38.32875 240.58125,38.5215 240.65925,38.69925 C240.7365,38.87775 240.8415,39.03225 240.975,39.16425 C241.11,39.29625 241.2765,39.4005 241.47375,39.4755 C241.67175,39.54975 241.914,39.58725 242.2005,39.58725 C242.48175,39.58725 242.72325,39.54975 242.9235,39.4755 C243.12375,39.4005 243.2895,39.29625 243.42225,39.16425 C243.55425,39.03225 243.657,38.87775 243.73575,38.69925 C243.813,38.5215 243.87075,38.32875 243.909,38.1255 C243.9495,37.92 243.9735,37.70625 243.9825,37.48125 C243.9915,37.25775 243.996,37.03425 243.996,36.8145 L243.996,31.4475 L246.64275,31.4475" id="Fill-30" fill="#FFFFFE"></path>
                <path d="M252.5625,36.0165 L252.819,36.0165 C253.035,36.0165 253.25325,36.0015 253.47225,35.973 C253.69275,35.9445 253.8915,35.88525 254.06775,35.79525 C254.244,35.70375 254.3865,35.577 254.4975,35.412 C254.607,35.24775 254.661,35.0265 254.661,34.74825 C254.661,34.4715 254.607,34.24875 254.4975,34.0815 C254.3865,33.91425 254.244,33.78525 254.06775,33.69525 C253.8915,33.60525 253.69275,33.546 253.47225,33.51675 C253.25325,33.48825 253.035,33.47475 252.819,33.47475 L252.5625,33.47475 L252.5625,36.0165 Z M258.3915,41.64075 L255.09,41.64075 L252.5955,37.71975 L252.5625,37.71975 L252.5625,41.64075 L249.915,41.64075 L249.915,31.4475 L253.87575,31.4475 C254.37675,31.4475 254.84475,31.509 255.279,31.63275 C255.7125,31.7565 256.08825,31.94475 256.40475,32.20125 C256.7205,32.4555 256.9695,32.78025 257.15025,33.17325 C257.33025,33.56775 257.42025,34.03725 257.42025,34.5825 C257.42025,34.93575 257.37225,35.27025 257.2755,35.5905 C257.17875,35.91 257.0355,36.1965 256.8465,36.4515 C256.6575,36.70725 256.42425,36.9225 256.14675,37.09875 C255.87,37.275 255.5505,37.39575 255.18975,37.46175 L258.3915,41.64075 L258.3915,41.64075 Z" id="Fill-31" fill="#FFFFFE"></path>
                <path d="M265.6005,34.59675 L265.57575,34.59675 L264.4785,37.84425 L266.6835,37.84425 L265.6005,34.59675 Z M263.7465,39.87075 L263.0475,41.63925 L260.23425,41.63925 L264.15675,31.4475 L267.04725,31.4475 L270.88875,41.63925 L268.0635,41.63925 L267.3975,39.87075 L263.7465,39.87075 L263.7465,39.87075 Z" id="Fill-32" fill="#FFFFFE"></path>
                <polyline id="Fill-33" fill="#FFFFFE" points="275.883 39.396 279.0645 39.396 279.0645 41.64075 273.2355 41.64075 273.2355 31.4475 275.883 31.4475 275.883 39.396"></polyline>
                <path d="M67.4175,52.3845 L67.398,52.3845 L66.61575,54.70275 L68.19075,54.70275 L67.4175,52.3845 Z M66.093,56.15025 L65.5935,57.41325 L63.585,57.41325 L66.3855,50.136 L68.4495,50.136 L71.19225,57.41325 L69.17475,57.41325 L68.69925,56.15025 L66.093,56.15025 L66.093,56.15025 Z" id="Fill-34" fill="#FFFFFE"></path>
                <polyline id="Fill-35" fill="#FFFFFE" points="72.11775 50.136 74.00775 50.136 77.4765 54.585 77.49675 54.585 77.49675 50.136 79.38525 50.136 79.38525 57.41325 77.49675 57.41325 74.03175 52.95375 74.00775 52.95375 74.00775 57.41325 72.11775 57.41325 72.11775 50.136"></polyline>
                <path d="M82.90125,55.81125 L83.331,55.81125 C83.613,55.81125 83.8815,55.7715 84.13425,55.6935 C84.387,55.61475 84.609,55.491 84.79875,55.32525 C84.98925,55.1595 85.14075,54.94725 85.25325,54.6915 C85.3665,54.435 85.42275,54.12975 85.42275,53.77425 C85.42275,53.448 85.37175,53.157 85.26975,52.90425 C85.16775,52.65225 85.02525,52.43925 84.8415,52.26675 C84.657,52.0935 84.43875,51.96225 84.186,51.873 C83.93325,51.783 83.65425,51.73725 83.349,51.73725 L82.90125,51.73725 L82.90125,55.81125 Z M81.012,50.136 L83.694,50.136 C84.03,50.136 84.3555,50.178 84.66975,50.26275 C84.984,50.3475 85.278,50.46825 85.55325,50.6235 C85.8285,50.77875 86.07825,50.967 86.30475,51.18675 C86.53125,51.40725 86.724,51.6525 86.88525,51.9225 C87.04425,52.19325 87.1695,52.4835 87.2595,52.797 C87.3495,53.10825 87.393,53.4345 87.393,53.77425 C87.393,54.114 87.3495,54.44025 87.2595,54.753 C87.1695,55.065 87.0435,55.3575 86.88225,55.62675 C86.72025,55.89675 86.526,56.142 86.2995,56.36175 C86.07375,56.5815 85.824,56.769 85.551,56.925 C85.27725,57.08025 84.984,57.201 84.66975,57.28575 C84.3555,57.3705 84.03,57.41325 83.694,57.41325 L81.012,57.41325 L81.012,50.136 L81.012,50.136 Z" id="Fill-36" fill="#FFFFFE"></path>
                <polyline id="Fill-37" fill="#FFFFFE" points="96.5535 49.4655 96.5535 51.16875 99.54375 51.16875 99.54375 53.4135 96.5535 53.4135 96.5535 55.16925 99.70875 55.16925 99.70875 57.4125 93.90675 57.4125 93.90675 47.22 99.70875 47.22 99.70875 49.4655 96.5535 49.4655"></polyline>
                <polyline id="Fill-38" fill="#FFFFFE" points="102.684 47.22075 105.33075 47.22075 110.1885 53.4525 110.2155 53.4525 110.2155 47.22075 112.863 47.22075 112.863 57.41325 110.2155 57.41325 105.36375 51.16875 105.33075 51.16875 105.33075 57.41325 102.684 57.41325 102.684 47.22075"></polyline>
                <polyline id="Fill-39" fill="#FFFFFE" points="120.15825 53.4135 122.63325 47.22 125.51175 47.22 121.16175 57.414 119.1015 57.414 114.81675 47.22 117.70275 47.22 120.15825 53.4135"></polyline>
                <polygon id="Fill-40" fill="#FFFFFE" points="127.47375 57.41175 130.12125 57.41175 130.12125 47.22 127.47375 47.22"></polygon>
                <g id="Group-44" transform="translate(132.750000, 46.500000)">
                    <mask id="mask-2" fill="white">
                        <use xlink:href="#path-1"></use>
                    </mask>
                    <g id="Clip-42"></g>
                    <path d="M3.081,5.28975 L3.33825,5.28975 C3.55425,5.28975 3.77175,5.27475 3.9915,5.24625 C4.212,5.217 4.40925,5.15775 4.58625,5.06775 C4.761,4.97775 4.905,4.85025 5.0145,4.68525 C5.1255,4.51875 5.18025,4.299 5.18025,4.02075 C5.18025,3.744 5.1255,3.522 5.0145,3.35475 C4.905,3.1875 4.761,3.0585 4.58625,2.96775 C4.40925,2.87775 4.212,2.8185 3.9915,2.79075 C3.77175,2.7615 3.55425,2.7465 3.33825,2.7465 L3.081,2.7465 L3.081,5.28975 Z M8.90925,10.91325 L5.6085,10.91325 L3.11325,6.99225 L3.081,6.99225 L3.081,10.91325 L0.4335,10.91325 L0.4335,0.72075 L4.39425,0.72075 C4.896,0.72075 5.364,0.78225 5.79675,0.90525 C6.231,1.029 6.606,1.218 6.9225,1.473 C7.23975,1.72875 7.48725,2.05275 7.668,2.4465 C7.848,2.841 7.93875,3.3105 7.93875,3.8565 C7.93875,4.20825 7.89075,4.54425 7.794,4.863 C7.69725,5.1825 7.554,5.469 7.36425,5.724 C7.17525,5.97975 6.942,6.19575 6.6645,6.372 C6.38775,6.54675 6.06825,6.669 5.70825,6.73425 L8.90925,10.91325 L8.90925,10.91325 Z" id="Fill-41" fill="#FFFFFE" mask="url(#mask-2)"></path>
                    <path d="M15.81375,2.95125 C15.417,2.95125 15.04575,3.0255 14.69775,3.1725 C14.34975,3.321 14.04525,3.51825 13.78275,3.76725 C13.52175,4.01625 13.314,4.302 13.16325,4.62525 C13.011,4.94925 12.93525,5.28675 12.93525,5.63925 C12.93525,6.078 13.011,6.4845 13.16325,6.85725 C13.314,7.2285 13.52175,7.54875 13.78275,7.821 C14.04525,8.09175 14.34975,8.301 14.69775,8.45325 C15.04575,8.60625 15.417,8.682 15.81375,8.682 C16.209,8.682 16.5825,8.60625 16.93275,8.45325 C17.28225,8.301 17.58675,8.09175 17.84625,7.821 C18.10725,7.54875 18.312,7.2285 18.46425,6.85725 C18.61575,6.4845 18.6915,6.078 18.6915,5.63925 C18.6915,5.28675 18.61575,4.94925 18.46425,4.62525 C18.312,4.302 18.10725,4.01625 17.84625,3.76725 C17.58675,3.51825 17.28225,3.321 16.93275,3.1725 C16.5825,3.0255 16.209,2.95125 15.81375,2.95125 M15.81375,0.38325 C16.302,0.38325 16.78125,0.4425 17.24925,0.5595 C17.718,0.67575 18.16125,0.84225 18.579,1.05825 C18.9975,1.2735 19.38225,1.536 19.734,1.8465 C20.0865,2.157 20.3895,2.50575 20.64225,2.89575 C20.89575,3.285 21.09375,3.708 21.237,4.167 C21.3795,4.6245 21.4515,5.10975 21.4515,5.625 C21.4515,6.453 21.31125,7.2105 21.03225,7.899 C20.75175,8.58825 20.36175,9.18 19.86075,9.675 C19.35825,10.1715 18.76275,10.55625 18.07425,10.83375 C17.385,11.1105 16.632,11.25 15.81375,11.25 C15.26775,11.25 14.7495,11.18775 14.25825,11.061 C13.7685,10.9365 13.314,10.75725 12.8985,10.52325 C12.483,10.29075 12.1065,10.008 11.7705,9.675 C11.43375,9.34275 11.14725,8.96775 10.91175,8.55 C10.677,8.13225 10.4955,7.677 10.368,7.1865 C10.23975,6.69675 10.176,6.1755 10.176,5.625 C10.176,5.10975 10.248,4.6245 10.38975,4.167 C10.533,3.708 10.7325,3.285 10.98825,2.89575 C11.24325,2.50575 11.5455,2.157 11.895,1.8465 C12.24525,1.536 12.62925,1.2735 13.047,1.05825 C13.4655,0.84225 13.90875,0.67575 14.3775,0.5595 C14.84625,0.4425 15.32475,0.38325 15.81375,0.38325" id="Fill-43" fill="#FFFFFE" mask="url(#mask-2)"></path>
                </g>
                <polyline id="Fill-45" fill="#FFFFFE" points="157.017 47.22075 159.6645 47.22075 164.523 53.4525 164.54925 53.4525 164.54925 47.22075 167.196 47.22075 167.196 57.41325 164.54925 57.41325 159.6975 51.16875 159.6645 51.16875 159.6645 57.41325 157.017 57.41325 157.017 47.22075"></polyline>
                <polyline id="Fill-46" fill="#FFFFFE" points="171.351 47.22075 173.95875 47.22075 176.03175 52.66725 178.2165 47.22075 180.85725 47.22075 182.3955 57.41325 179.74875 57.41325 179.00175 51.5445 178.9755 51.5445 176.52675 57.41325 175.47675 57.41325 173.133 51.5445 173.1075 51.5445 172.2555 57.41325 169.623 57.41325 171.351 47.22075"></polyline>
                <polyline id="Fill-47" fill="#FFFFFE" points="187.503 49.4655 187.503 51.16875 190.494 51.16875 190.494 53.4135 187.503 53.4135 187.503 55.16925 190.6575 55.16925 190.6575 57.4125 184.8555 57.4125 184.8555 47.22 190.6575 47.22 190.6575 49.4655 187.503 49.4655"></polyline>
                <polyline id="Fill-48" fill="#FFFFFE" points="193.63275 47.22075 196.281 47.22075 201.13875 53.4525 201.16425 53.4525 201.16425 47.22075 203.8125 47.22075 203.8125 57.41325 201.16425 57.41325 196.31325 51.16875 196.281 51.16875 196.281 57.41325 193.63275 57.41325 193.63275 47.22075"></polyline>
                <polyline id="Fill-49" fill="#FFFFFE" points="210.7875 57.41325 208.14075 57.41325 208.14075 49.4655 205.9485 49.4655 205.9485 47.22075 212.97975 47.22075 212.97975 49.4655 210.7875 49.4655 210.7875 57.41325"></polyline>
                <path d="M218.92125,50.36925 L218.895,50.36925 L217.79925,53.61675 L220.0035,53.61675 L218.92125,50.36925 Z M217.06575,55.64325 L216.36675,57.41325 L213.55425,57.41325 L217.476,47.22075 L220.36725,47.22075 L224.2095,57.41325 L221.3835,57.41325 L220.7175,55.64325 L217.06575,55.64325 L217.06575,55.64325 Z" id="Fill-50" fill="#FFFFFE"></path>
                <polyline id="Fill-51" fill="#FFFFFE" points="229.20225 55.16925 232.3845 55.16925 232.3845 57.414 226.55475 57.414 226.55475 47.22 229.20225 47.22 229.20225 55.16925"></polyline>
                <path d="M246.18525,49.84125 C245.9385,49.6395 245.6655,49.476 245.367,49.353 C245.06625,49.22925 244.75425,49.16775 244.42875,49.16775 C244.305,49.16775 244.17825,49.1865 244.0455,49.22025 C243.91425,49.25625 243.79125,49.3095 243.68025,49.37925 C243.567,49.4505 243.474,49.539 243.402,49.647 C243.33,49.755 243.29325,49.87875 243.29325,50.019 C243.29325,50.169 243.333,50.29725 243.4125,50.40225 C243.49125,50.508 243.591,50.598 243.7095,50.673 C243.828,50.74725 243.9555,50.811 244.092,50.86125 C244.22775,50.91225 244.3545,50.955 244.46925,50.9895 L245.14125,51.195 C245.49825,51.30075 245.829,51.426 246.135,51.5745 C246.44025,51.7215 246.70725,51.90525 246.93075,52.12575 C247.15575,52.3455 247.332,52.6065 247.46325,52.908 C247.5915,53.20875 247.6575,53.56725 247.6575,53.9805 C247.6575,54.231 247.641,54.48375 247.608,54.73575 C247.575,54.98925 247.51725,55.2345 247.43625,55.47225 C247.3545,55.71 247.24575,55.93575 247.10925,56.1495 C246.97275,56.3625 246.8025,56.5545 246.6,56.72625 C246.20025,57.066 245.74875,57.30975 245.244,57.459 C244.74,57.60975 244.22775,57.684 243.7095,57.684 C243.06675,57.684 242.439,57.58125 241.8285,57.3765 C241.2165,57.17175 240.64875,56.8875 240.126,56.52225 L241.26,54.3825 C241.428,54.5295 241.602,54.66525 241.782,54.79275 C241.962,54.92025 242.15175,55.032 242.34825,55.1295 C242.5485,55.2255 242.751,55.302 242.96325,55.35675 C243.174,55.4115 243.39225,55.44 243.61725,55.44 C243.771,55.44 243.9255,55.41975 244.07925,55.38075 C244.23225,55.34025 244.371,55.27875 244.491,55.1955 C244.61325,55.11075 244.7115,55.005 244.78575,54.87525 C244.86075,54.74475 244.8975,54.59025 244.8975,54.41025 C244.8975,54.225 244.8405,54.06825 244.72575,53.9415 C244.61175,53.81325 244.4715,53.70375 244.30575,53.613 C244.1415,53.52375 243.9675,53.45025 243.78225,53.3925 C243.597,53.33625 243.43425,53.2875 243.29325,53.24775 C242.8755,53.1285 242.49675,53.00475 242.15775,52.878 C241.8195,52.74975 241.53075,52.58175 241.29,52.37325 C241.05,52.16475 240.864,51.90075 240.73275,51.58425 C240.6,51.267 240.53325,50.862 240.53325,50.3685 C240.53325,49.85475 240.62025,49.386 240.7935,48.963 C240.969,48.54075 241.21275,48.18075 241.524,47.88375 C241.83675,47.5875 242.20725,47.35725 242.63625,47.19375 C243.066,47.031 243.5355,46.95 244.0455,46.95 C244.30125,46.95 244.569,46.9695 244.851,47.00925 C245.13225,47.049 245.412,47.10525 245.6895,47.17725 C245.967,47.25 246.23775,47.3385 246.501,47.442 C246.765,47.5455 247.01175,47.661 247.24125,47.7885 L246.18525,49.84125" id="Fill-52" fill="#FFFFFE"></path>
                <path d="M257.45025,50.64 C257.3145,50.45475 257.15775,50.29425 256.98525,50.1555 C256.812,50.016 256.6245,49.89975 256.4235,49.8045 C256.224,49.71 256.014,49.64025 255.7935,49.59075 C255.5745,49.542 255.351,49.518 255.126,49.518 C254.72175,49.518 254.35275,49.59075 254.01825,49.7355 C253.683,49.881 253.3965,50.08125 253.16025,50.33625 C252.92175,50.59125 252.73725,50.8905 252.60525,51.23475 C252.47325,51.57825 252.40725,51.948 252.40725,52.34325 C252.40725,52.74825 252.47325,53.1195 252.60525,53.4585 C252.73725,53.7975 252.92325,54.09 253.1655,54.33375 C253.40775,54.5775 253.69875,54.76875 254.037,54.90825 C254.376,55.04625 254.7525,55.11525 255.1665,55.11525 C255.38175,55.11525 255.59625,55.0905 255.81,55.04025 C256.02375,54.9885 256.2285,54.9165 256.4235,54.82275 C256.62075,54.72825 256.80525,54.6135 256.97775,54.48225 C257.15175,54.35025 257.31075,54.201 257.45025,54.033 L257.45025,57.2085 C257.22975,57.2745 257.02425,57.33675 256.83,57.39675 C256.6365,57.45525 256.4475,57.507 256.26225,57.54825 C256.07775,57.59025 255.891,57.624 255.70425,57.648 C255.5175,57.672 255.321,57.684 255.114,57.684 C254.4,57.684 253.7175,57.5535 253.0635,57.29475 C252.41025,57.03525 251.817,56.66475 251.2845,56.18475 C250.72125,55.67475 250.308,55.095 250.044,54.4455 C249.78,53.79675 249.64875,53.091 249.64875,52.32975 C249.64875,51.63075 249.7755,50.95875 250.0305,50.31675 C250.2855,49.674 250.65975,49.1025 251.15325,48.6 C251.40375,48.345 251.67975,48.11475 251.9775,47.91 C252.27675,47.70675 252.59325,47.532 252.9255,47.38875 C253.2585,47.24625 253.60125,47.13675 253.95825,47.06175 C254.31525,46.9875 254.6715,46.95 255.02775,46.95 C255.45525,46.95 255.867,46.995 256.26225,47.08575 C256.65825,47.17575 257.05575,47.30175 257.45025,47.4645 L257.45025,50.64" id="Fill-53" fill="#FFFFFE"></path>
                <polygon id="Fill-54" fill="#FFFFFE" points="260.439 57.41175 263.08725 57.41175 263.08725 47.22 260.439 47.22"></polygon>
                <polyline id="Fill-55" fill="#FFFFFE" points="268.797 49.4655 268.797 51.16875 271.7865 51.16875 271.7865 53.4135 268.797 53.4135 268.797 55.16925 271.95225 55.16925 271.95225 57.4125 266.1495 57.4125 266.1495 47.22 271.95225 47.22 271.95225 49.4655 268.797 49.4655"></polyline>
                <polyline id="Fill-56" fill="#FFFFFE" points="275.19075 47.22075 277.83825 47.22075 282.6975 53.4525 282.72225 53.4525 282.72225 47.22075 285.37125 47.22075 285.37125 57.41325 282.72225 57.41325 277.872 51.16875 277.83825 51.16875 277.83825 57.41325 275.19075 57.41325 275.19075 47.22075"></polyline>
                <path d="M295.44225,50.64 C295.3065,50.45475 295.1505,50.29425 294.97725,50.1555 C294.804,50.016 294.6165,49.89975 294.4155,49.8045 C294.21675,49.71 294.00525,49.64025 293.78475,49.59075 C293.56575,49.542 293.34375,49.518 293.11875,49.518 C292.7145,49.518 292.34475,49.59075 292.0095,49.7355 C291.675,49.881 291.3885,50.08125 291.15225,50.33625 C290.91375,50.59125 290.72925,50.8905 290.59725,51.23475 C290.46525,51.57825 290.39925,51.948 290.39925,52.34325 C290.39925,52.74825 290.46525,53.1195 290.59725,53.4585 C290.72925,53.7975 290.91525,54.09 291.1575,54.33375 C291.4005,54.5775 291.69075,54.76875 292.02975,54.90825 C292.3695,55.04625 292.7445,55.11525 293.1585,55.11525 C293.3745,55.11525 293.58825,55.0905 293.802,55.04025 C294.015,54.9885 294.21975,54.9165 294.4155,54.82275 C294.612,54.72825 294.79725,54.6135 294.96975,54.48225 C295.14375,54.35025 295.302,54.201 295.44225,54.033 L295.44225,57.2085 C295.221,57.2745 295.0155,57.33675 294.82125,57.39675 C294.62775,57.45525 294.43875,57.507 294.25425,57.54825 C294.06975,57.59025 293.883,57.624 293.6955,57.648 C293.50875,57.672 293.313,57.684 293.106,57.684 C292.392,57.684 291.70875,57.5535 291.0555,57.29475 C290.40225,57.03525 289.809,56.66475 289.27725,56.18475 C288.71325,55.67475 288.29925,55.095 288.03525,54.4455 C287.77125,53.79675 287.64,53.091 287.64,52.32975 C287.64,51.63075 287.76675,50.95875 288.02175,50.31675 C288.2775,49.674 288.6525,49.1025 289.1445,48.6 C289.39575,48.345 289.671,48.11475 289.9695,47.91 C290.26875,47.70675 290.5845,47.532 290.91675,47.38875 C291.24975,47.24625 291.594,47.13675 291.951,47.06175 C292.30725,46.9875 292.66275,46.95 293.0205,46.95 C293.4465,46.95 293.85825,46.995 294.25425,47.08575 C294.651,47.17575 295.047,47.30175 295.44225,47.4645 L295.44225,50.64" id="Fill-57" fill="#FFFFFE"></path>
                <polyline id="Fill-58" fill="#FFFFFE" points="301.0695 49.4655 301.0695 51.16875 304.0605 51.16875 304.0605 53.4135 301.0695 53.4135 301.0695 55.16925 304.224 55.16925 304.224 57.4125 298.422 57.4125 298.422 47.22 304.224 47.22 304.224 49.4655 301.0695 49.4655"></polyline>
                <path d="M312.64575,49.84125 C312.399,49.6395 312.126,49.476 311.82675,49.353 C311.5275,49.22925 311.21625,49.16775 310.89,49.16775 C310.76625,49.16775 310.63875,49.1865 310.50675,49.22025 C310.37475,49.25625 310.2525,49.3095 310.14075,49.37925 C310.029,49.4505 309.93525,49.539 309.8625,49.647 C309.7905,49.755 309.75375,49.87875 309.75375,50.019 C309.75375,50.169 309.7935,50.29725 309.87375,50.40225 C309.9525,50.508 310.05075,50.598 310.17075,50.673 C310.2885,50.74725 310.416,50.811 310.5525,50.86125 C310.689,50.91225 310.81425,50.955 310.92975,50.9895 L311.60175,51.195 C311.95875,51.30075 312.29025,51.426 312.59625,51.5745 C312.90225,51.7215 313.16775,51.90525 313.39125,52.12575 C313.61625,52.3455 313.79325,52.6065 313.92225,52.908 C314.05275,53.20875 314.118,53.56725 314.118,53.9805 C314.118,54.231 314.10075,54.48375 314.06775,54.73575 C314.0355,54.98925 313.97775,55.2345 313.89675,55.47225 C313.81425,55.71 313.70625,55.93575 313.56975,56.1495 C313.43325,56.3625 313.26375,56.5545 313.062,56.72625 C312.66075,57.066 312.20925,57.30975 311.7045,57.459 C311.20125,57.60975 310.689,57.684 310.17075,57.684 C309.528,57.684 308.90025,57.58125 308.289,57.3765 C307.67775,57.17175 307.10925,56.8875 306.5865,56.52225 L307.72125,54.3825 C307.8885,54.5295 308.06175,54.66525 308.2425,54.79275 C308.4225,54.92025 308.61225,55.032 308.81025,55.1295 C309.009,55.2255 309.213,55.302 309.4245,55.35675 C309.63525,55.4115 309.85275,55.44 310.07775,55.44 C310.2315,55.44 310.386,55.41975 310.53975,55.38075 C310.6935,55.34025 310.8315,55.27875 310.95225,55.1955 C311.07375,55.11075 311.1705,55.005 311.24625,54.87525 C311.3205,54.74475 311.35875,54.59025 311.35875,54.41025 C311.35875,54.225 311.30175,54.06825 311.187,53.9415 C311.07225,53.81325 310.93275,53.70375 310.767,53.613 C310.60275,53.52375 310.428,53.45025 310.2435,53.3925 C310.059,53.33625 309.89475,53.2875 309.75375,53.24775 C309.336,53.1285 308.95725,53.00475 308.619,52.878 C308.27925,52.74975 307.98975,52.58175 307.75125,52.37325 C307.50975,52.16475 307.3245,51.90075 307.19175,51.58425 C307.06125,51.267 306.99525,50.862 306.99525,50.3685 C306.99525,49.85475 307.0815,49.386 307.25475,48.963 C307.4295,48.54075 307.67325,48.18075 307.98525,47.88375 C308.298,47.5875 308.66775,47.35725 309.09675,47.19375 C309.52725,47.031 309.99675,46.95 310.50675,46.95 C310.76175,46.95 311.03025,46.9695 311.31225,47.00925 C311.59425,47.049 311.87325,47.10525 312.15075,47.17725 C312.4275,47.25 312.699,47.3385 312.96225,47.442 C313.2255,47.5455 313.47225,47.661 313.70175,47.7885 L312.64575,49.84125" id="Fill-59" fill="#FFFFFE"></path>
            </g>
        </g>
    </g>
</svg>