<?xml version="1.0" encoding="UTF-8"?>
<svg width="507px" height="100px" viewBox="0 0 507 100" version="1.1" xmlns="http://www.w3.org/2000/svg" xmlns:xlink="http://www.w3.org/1999/xlink">
    <!-- Generator: Sketch 48.2 (47327) - http://www.bohemiancoding.com/sketch -->
    <title>impact</title>
    <desc>Created with Sketch.</desc>
    <defs>
        <linearGradient x1="2.38638231%" y1="48.3546217%" x2="95.3376685%" y2="48.3546227%" id="linearGradient-1">
            <stop stop-color="#1D3A5C" offset="0%"></stop>
            <stop stop-color="#3E90A1" offset="38.5542889%"></stop>
            <stop stop-color="#57A6A2" offset="51.1499522%"></stop>
            <stop stop-color="#8EB172" offset="58.1592793%"></stop>
            <stop stop-color="#A7B55B" offset="74.5754943%"></stop>
            <stop stop-color="#B0B44F" offset="79.7054369%"></stop>
            <stop stop-color="#DABA54" offset="100%"></stop>
        </linearGradient>
    </defs>
    <g id="phase1-copy" stroke="none" stroke-width="1" fill="none" fill-rule="evenodd" transform="translate(-446.000000, -992.000000)">
        <g id="impact" transform="translate(444.000000, 990.000000)" fill="url(#linearGradient-1)">
            <path d="M422.040178,50.0654256 C422.040178,50.0654256 407.278755,73.2547977 397.35384,70.3157047 C395.54015,62.9068907 392.258234,54.463286 412.547093,39.8971698 C412.547093,39.8971698 409.697009,51.3661 406.242361,55.4980767 C406.242361,55.4980767 414.619882,57.0502628 418.412798,40.2421 C418.412798,40.2421 414.188051,34.0405419 408.919713,34.0405419 C408.919713,34.0405419 402.096784,31.5397977 393.553727,44.8124256 C385.010671,58.0778674 387.515291,69.8917279 388.292586,71.0989837 C388.983516,72.220007 396.058347,79.025193 399.851262,79.1114256 C415.476347,75.8345884 424.199333,52.9973326 424.976629,51.6176116 C424.976629,51.6176116 424.285699,49.9001465 422.040178,50.0654256 M116.205958,28.8651512 C115.169564,28.0028256 114.565,27.4926163 114.565,27.4926163 C114.996831,24.819407 116.378691,27.4926163 116.378691,27.4926163 C116.292324,28.0028256 116.205958,28.4339884 116.205958,28.8651512 M150.651677,65.7511279 C136.314888,69.9765233 123.71262,81.8694302 117.674184,88.329686 C115.860493,83.7665465 117.674184,72.2185698 122.942522,61.3532674 C126.735437,53.5995233 130.881015,46.449407 130.881015,46.449407 C129.412789,42.1377791 124.842578,37.0572442 121.042465,33.3492442 C122.07886,27.916593 121.560662,24.5535233 121.560662,24.5535233 C121.560662,24.5535233 119.315141,21.4563372 115.774127,21.3701047 C112.413043,21.1976395 109.044761,30.3311047 109.044761,30.3311047 C110.858451,31.1934302 112.837677,33.004314 114.737733,35.0667093 C111.290282,47.1177093 103.776423,58.6297558 103.762029,58.6585 C100.537691,62.8479651 97.0614512,67.935686 94.3769019,71.2628256 C95.4132962,64.7163372 98.4361131,52.3132209 106.201874,39.8095 C106.201874,39.8095 103.179057,36.6188953 99.9907047,35.0667093 C99.9907047,35.0667093 93.3405075,43.7761977 89.3676624,56.6176628 C85.3156484,60.5843605 79.8745779,66.1822907 76.2543948,70.2352209 C76.2543948,70.2352209 74.9589019,60.2322442 86.0065779,39.6370349 C86.0065779,39.6370349 83.2428596,36.0152674 79.2700146,35.0667093 C79.2700146,35.0667093 68.4814371,50.7610349 66.0631836,71.3562442 C66.0631836,71.3562442 66.9268455,80.2310116 77.0316906,80.2310116 C77.0316906,80.2310116 82.2928315,72.1323372 87.3884371,64.8025698 C86.6975075,68.7692674 86.3520427,72.9084302 86.5247751,77.2200581 C86.5247751,77.2200581 89.6339582,80.6621744 94.4632681,81.8694302 C94.4632681,81.8694302 95.9314934,81.2658023 95.6723948,79.6273837 C95.6723948,79.6273837 99.2997751,73.6773372 103.179057,67.5620116 C104.532127,65.5571047 106.086719,63.286314 107.727677,60.8215 L107.734874,60.8215 C113.435043,51.2784302 116.896888,46.0972907 119.142409,40.2406628 C121.042465,42.741407 122.424324,44.7247558 122.424324,44.7247558 C114.133169,55.0654767 107.576536,77.2991047 107.576536,77.2991047 C107.576536,77.3853372 107.576536,77.3853372 107.662902,77.3853372 C106.885606,79.8932674 104.726451,89.3716628 114.737733,95.4007558 C115.515029,96.6080116 117.76055,99.2812209 117.76055,99.2812209 C134.681127,78.6860116 158.590169,76.9541744 158.590169,76.9541744 C155.653719,69.2004302 150.651677,65.7511279 150.651677,65.7511279 M31.5857977,68.5989581 C31.4994315,68.0815628 31.4130653,67.5569814 31.4130653,66.9533535 C30.3838681,53.7741442 37.9768962,19.906307 55.8403047,11.0243535 C55.8403047,11.0243535 64.4769244,22.3998651 45.5699244,50.5835395 C40.4743188,58.1720047 35.8177413,64.0286326 31.5857977,68.5989581 M12.9450934,83.7615163 C12.9450934,83.7615163 7.93585399,73.8519581 17.6880371,50.5835395 C19.3289948,46.5377953 25.11553,33.8616093 32.7085582,24.2969814 C27.7928822,34.0340744 23.9927695,46.6168419 23.4745723,60.0691209 C23.3018399,66.4431442 23.9064033,71.3584 25.2018962,75.1454465 C17.6016709,82.0440512 12.9450934,83.7615163 12.9450934,83.7615163 M66.8088117,50.7631907 C66.8088117,50.7631907 68.7016709,49.6349814 69.7380653,52.3081907 C69.7380653,52.3081907 60.1586146,82.3889814 38.322361,85.5724 C38.0632624,85.5724 37.8833329,85.4933535 37.8041638,85.4071209 C36.1632061,85.4071209 34.6086146,85.2274698 33.054023,84.6238419 C24.5973329,91.9536093 19.0698962,92.2985395 19.0698962,92.2985395 C9.40407934,90.3151907 -7.51649812,73.5932605 10.0086427,38.9493302 C27.3610512,4.56409767 40.8269808,3.44307442 40.8269808,3.44307442 C42.8925723,4.38444651 44.1016991,5.85758605 44.8789948,7.40258605 C47.9881779,4.65033023 51.0109948,3.1771907 53.5084174,3.44307442 C63.3541638,4.38444651 75.2655019,16.8881674 55.4948399,54.1190744 C50.1473329,64.0286326 45.1380934,71.4446326 40.5678822,76.8700977 C44.1016991,76.1874233 51.6947272,72.3069581 66.8088117,50.7631907 Z M239.457719,50.3248419 C239.457719,50.3248419 241.271409,49.2038186 242.307803,51.8770279 C242.307803,51.8770279 229.871071,83.416586 215.375944,93.2470977 C214.598648,93.2470977 213.821353,92.3847721 213.130423,91.1775163 C213.044057,92.1260744 212.957691,92.5572372 212.957691,92.5572372 C203.464606,90.2289581 202.68731,82.9926093 202.68731,82.9926093 C210.971268,56.6198186 234.016648,9.5584 234.016648,9.5584 C196.123479,20.071586 193.791592,34.903586 193.791592,34.903586 C189.825944,32.5681209 175.237254,25.7629349 196.123479,13.1801674 C217.009705,0.5974 237.298564,2.32205116 240.666846,2.6669814 C243.948761,3.01191163 246.878015,9.5584 246.878015,9.5584 C227.805479,45.244307 219.427958,67.7366326 215.807775,80.1397488 C220.550719,75.1454465 228.661944,65.7460977 239.457719,50.3248419 Z M300.943254,52.135007 C299.993226,53.687193 298.964029,55.1531465 298.006803,56.6191 C288.340986,71.7026116 275.220522,86.6998907 275.220522,86.6998907 C275.220522,86.6998907 268.404789,86.0100302 268.922986,78.5077977 C269.52755,70.9193326 275.220522,57.3089605 275.220522,57.3089605 C270.65031,60.4061465 260.631831,72.7302163 260.631831,72.7302163 C257.177184,72.7302163 255.629789,70.3157047 255.629789,70.3157047 C257.349916,66.0112628 260.804564,51.7900767 260.804564,51.7900767 C254.161564,58.3365651 242.854789,78.5077977 242.854789,78.5077977 C236.204592,75.8345884 234.909099,66.6148907 240.436536,57.6538907 C245.956775,48.8581698 245.093113,36.1891698 245.093113,36.1891698 C257.177184,35.3268442 251.656944,52.8248674 251.656944,52.8248674 C257.529846,43.8638674 266.332,36.1891698 266.332,36.1891698 C269.700282,36.1891698 271.420409,39.7247047 271.420409,39.7247047 C270.988578,43.5189372 266.159268,56.6191 266.159268,56.6191 C275.738719,46.7023558 289.550113,30.6774721 289.550113,30.6774721 C295.07755,32.4021233 296.113944,36.1891698 296.113944,36.1891698 C287.822789,45.2435884 278.588803,72.988914 277.897874,74.9794488 C282.043451,70.6678209 297.927634,50.5828209 297.927634,50.5828209 C300.252324,50.4103558 300.943254,52.135007 300.943254,52.135007 Z M314.268838,69.1106047 C314.268838,69.2040233 314.182472,69.2040233 314.182472,69.2830698 C314.096106,69.2830698 313.837008,67.7380698 314.00974,65.6684884 C314.527937,65.927186 315.218867,66.2649302 316.082529,66.6098605 C315.477965,67.472186 314.873402,68.3416977 314.268838,69.1106047 M343.618951,50.3262791 C345.864472,50.153814 346.641768,51.8784651 346.641768,51.8784651 C339.991571,63.8576047 332.132247,67.5584186 325.748346,68.075814 C321.005402,76.6990698 317.464388,79.7962558 317.464388,79.7962558 C313.059712,79.8896744 310.123261,75.5780465 310.123261,75.5780465 C309.432331,71.0939535 310.986923,64.5474651 310.986923,64.5474651 C311.159655,64.2887674 311.332388,64.0300698 311.50512,63.8576047 C311.073289,62.6503488 311.332388,60.9256977 312.627881,59.7184419 C314.700669,61.0981628 316.687092,61.9604884 318.673515,62.5641163 C323.848289,53.5168837 327.475669,42.9102791 327.475669,42.9102791 C295.707303,68.859093 296.2255,101.433442 296.2255,101.433442 C292.259853,102.03707 287.336979,96.0007907 287.336979,96.0007907 C296.40543,61.7017907 309.612261,34.6391395 309.612261,34.6391395 C312.886979,34.6391395 316.168895,38.6058372 316.168895,38.6058372 C314.441571,41.1856279 311.159655,49.550186 309.007698,55.0690698 C317.378022,43.513907 328.252965,34.6391395 331.275782,34.6391395 C335.414162,34.6391395 336.968754,40.3304884 336.968754,40.3304884 C334.212233,49.550186 331.275782,56.7003023 328.684796,62.3916512 C337.74605,59.5459767 343.618951,50.3262791 343.618951,50.3262791 Z M385.850582,50.1566884 C388.096103,49.9842233 388.873399,51.7088744 388.873399,51.7088744 C382.827765,61.5322 370.916427,77.9882465 370.916427,77.9882465 C367.634512,77.9882465 362.805202,73.5113395 362.805202,73.5113395 C361.855174,71.7866884 361.94154,69.8895721 362.459737,67.9924558 C356.673202,75.8324326 352.873089,77.9882465 352.873089,77.9882465 C344.416399,77.9882465 342.689075,70.4069674 342.689075,70.4069674 C344.416399,46.2762233 361.25061,34.9869442 367.461779,34.9869442 C379.984878,34.9869442 376.443864,45.1552 376.443864,45.1552 C374.543808,43.7754791 373.334681,39.6363163 369.275469,42.0508279 C349.425638,54.0299674 350.98023,72.5627814 350.98023,72.5627814 C359.350554,68.337386 371.607357,46.8798512 371.607357,46.8798512 C371.607357,46.8798512 376.012033,47.2247814 377.134793,51.0118279 C378.250357,54.8060605 370.570962,70.2345023 370.570962,70.2345023 C375.407469,67.4750605 385.850582,50.1566884 385.850582,50.1566884 Z M443.638924,28.9492279 C437.938755,41.4457628 434.491305,51.8727163 432.418516,59.6408326 C429.654798,70.4917628 430.086629,84.281786 435.693234,86.9549953 C441.652502,89.8797163 458.745812,80.4013209 460.645868,56.622693 C462.459558,32.829693 444.848051,39.0312512 444.848051,39.0312512 C446.143544,32.2260651 474.370896,25.3346465 472.557206,55.839414 C470.65715,87.4723907 449.166361,96.6058558 437.77322,96.6058558 C406.004854,96.6058558 429.741164,39.4696 433.800375,29.3875767 C422.579967,30.1564837 415.843403,31.3637395 415.843403,31.3637395 C415.066108,30.6738791 414.54791,29.9912047 414.54791,29.9912047 C416.447967,24.4723209 421.889037,21.3679488 421.889037,21.3679488 C426.380079,21.540414 431.382122,21.9715767 436.65046,22.316507 C440.443375,13.0968093 441.393403,10.5888791 441.393403,10.5888791 C448.0436,10.5888791 449.42546,17.1425535 449.42546,17.1425535 C447.525403,20.7643209 447.870868,20.0744605 446.402643,23.1788326 C464.877812,23.0926 508.809417,19.5570651 508.809417,19.5570651 C508.809417,21.1954837 503.800178,29.9912047 503.800178,29.9912047 C493.0116,29.0426465 452.268347,28.6977163 443.638924,28.9492279 Z" id="Fill-15"></path>
        </g>
    </g>
</svg>