<?xml version="1.0" encoding="UTF-8"?>
<svg width="742px" height="205px" viewBox="0 0 742 205" version="1.1" xmlns="http://www.w3.org/2000/svg" xmlns:xlink="http://www.w3.org/1999/xlink">
    <!-- Generator: Sketch 50.2 (55047) - http://www.bohemiancoding.com/sketch -->
    <title>logo2</title>
    <desc>Created with Sketch.</desc>
    <defs>
        <filter x="-2.6%" y="-10.8%" width="105.2%" height="128.3%" filterUnits="objectBoundingBox" id="filter-1">
            <feOffset dx="0" dy="2" in="SourceAlpha" result="shadowOffsetOuter1"></feOffset>
            <feGaussianBlur stdDeviation="2.5" in="shadowOffsetOuter1" result="shadowBlurOuter1"></feGaussianBlur>
            <feColorMatrix values="0 0 0 0 0   0 0 0 0 0   0 0 0 0 0  0 0 0 0.5 0" type="matrix" in="shadowBlurOuter1" result="shadowMatrixOuter1"></feColorMatrix>
            <feMerge>
                <feMergeNode in="shadowMatrixOuter1"></feMergeNode>
                <feMergeNode in="SourceGraphic"></feMergeNode>
            </feMerge>
        </filter>
        <path d="M228.044,188 L223.536,188 L215.716,175.81 L209.598,175.81 L209.598,188 L205.78,188 L205.78,157.318 L218.108,157.318 C223.72,157.318 227.722,160.906 227.722,166.564 C227.722,172.084 223.95,175.12 219.764,175.488 L228.044,188 Z M217.648,172.452 C221.282,172.452 223.766,170.014 223.766,166.564 C223.766,163.114 221.282,160.722 217.648,160.722 L209.598,160.722 L209.598,172.452 L217.648,172.452 Z M243.638,188.552 C237.06,188.552 232.322,183.814 232.322,176.868 C232.322,170.428 236.922,165.23 243.27,165.23 C249.986,165.23 253.942,170.474 253.942,177.144 L253.942,178.018 L235.956,178.018 C236.232,182.204 239.176,185.7 243.96,185.7 C246.49,185.7 249.066,184.688 250.814,182.894 L252.47,185.148 C250.262,187.356 247.272,188.552 243.638,188.552 Z M250.538,175.488 C250.492,172.176 248.284,168.082 243.224,168.082 C238.486,168.082 236.14,172.084 235.956,175.488 L250.538,175.488 Z M266.546,188.552 C262.912,188.552 259.83,187.448 257.576,185.056 L259.37,182.572 C260.842,184.274 263.648,185.746 266.684,185.746 C270.088,185.746 271.928,184.136 271.928,181.928 C271.928,176.546 258.174,179.858 258.174,171.624 C258.174,168.174 261.164,165.23 266.454,165.23 C270.226,165.23 272.894,166.656 274.688,168.45 L273.078,170.842 C271.744,169.232 269.306,168.036 266.454,168.036 C263.418,168.036 261.532,169.554 261.532,171.532 C261.532,176.408 275.286,173.188 275.286,181.836 C275.286,185.562 272.296,188.552 266.546,188.552 Z M290.926,188.552 C284.348,188.552 279.61,183.814 279.61,176.868 C279.61,170.428 284.21,165.23 290.558,165.23 C297.274,165.23 301.23,170.474 301.23,177.144 L301.23,178.018 L283.244,178.018 C283.52,182.204 286.464,185.7 291.248,185.7 C293.778,185.7 296.354,184.688 298.102,182.894 L299.758,185.148 C297.55,187.356 294.56,188.552 290.926,188.552 Z M297.826,175.488 C297.78,172.176 295.572,168.082 290.512,168.082 C285.774,168.082 283.428,172.084 283.244,175.488 L297.826,175.488 Z M324.138,188 L320.688,188 L320.688,185.47 C318.848,187.494 316.318,188.552 313.328,188.552 C309.556,188.552 305.554,186.022 305.554,181.192 C305.554,176.224 309.556,173.878 313.328,173.878 C316.364,173.878 318.894,174.844 320.688,176.914 L320.688,172.912 C320.688,169.922 318.296,168.22 315.076,168.22 C312.408,168.22 310.246,169.186 308.268,171.302 L306.658,168.91 C309.05,166.426 311.902,165.23 315.536,165.23 C320.228,165.23 324.138,167.346 324.138,172.728 L324.138,188 Z M314.57,186.068 C317.008,186.068 319.354,185.148 320.688,183.308 L320.688,179.122 C319.354,177.282 317.008,176.362 314.57,176.362 C311.35,176.362 309.096,178.386 309.096,181.238 C309.096,184.044 311.35,186.068 314.57,186.068 Z M334.488,188 L331.038,188 L331.038,165.782 L334.488,165.782 L334.488,169.37 C336.282,167.024 338.858,165.322 341.894,165.322 L341.894,168.864 C341.48,168.772 341.066,168.726 340.514,168.726 C338.398,168.726 335.5,170.474 334.488,172.268 L334.488,188 Z M356.016,188.552 C349.392,188.552 344.93,183.492 344.93,176.868 C344.93,170.29 349.392,165.23 356.016,165.23 C360.064,165.23 362.456,166.886 364.158,169.094 L361.858,171.21 C360.386,169.186 358.5,168.312 356.2,168.312 C351.462,168.312 348.518,171.946 348.518,176.868 C348.518,181.79 351.462,185.47 356.2,185.47 C358.5,185.47 360.386,184.55 361.858,182.572 L364.158,184.688 C362.456,186.896 360.064,188.552 356.016,188.552 Z M387.48,188 L384.03,188 L384.03,173.372 C384.03,169.462 382.006,168.312 379.016,168.312 C376.348,168.312 373.772,169.968 372.438,171.762 L372.438,188 L368.988,188 L368.988,157.318 L372.438,157.318 L372.438,169.002 C374.002,167.162 377.038,165.23 380.396,165.23 C385.042,165.23 387.48,167.484 387.48,172.314 L387.48,188 Z M410.204,188 L406.386,188 L406.386,157.318 L410.204,157.318 L410.204,188 Z M447.51,188 L444.06,188 L444.06,172.912 C444.06,170.106 442.818,168.312 439.966,168.312 C437.666,168.312 435.228,169.968 434.078,171.716 L434.078,188 L430.628,188 L430.628,172.912 C430.628,170.106 429.432,168.312 426.534,168.312 C424.28,168.312 421.888,169.968 420.692,171.762 L420.692,188 L417.242,188 L417.242,165.782 L420.692,165.782 L420.692,169.002 C421.612,167.576 424.602,165.23 427.868,165.23 C431.272,165.23 433.204,167.07 433.848,169.37 C435.09,167.346 438.08,165.23 441.3,165.23 C445.348,165.23 447.51,167.484 447.51,171.946 L447.51,188 Z M465.358,188.552 C462.322,188.552 459.654,187.126 457.86,184.642 L457.86,196.464 L454.41,196.464 L454.41,165.782 L457.86,165.782 L457.86,169.094 C459.47,166.84 462.23,165.23 465.358,165.23 C471.2,165.23 475.248,169.646 475.248,176.868 C475.248,184.044 471.2,188.552 465.358,188.552 Z M464.484,185.47 C468.946,185.47 471.614,181.79 471.614,176.868 C471.614,171.946 468.946,168.312 464.484,168.312 C461.77,168.312 459.056,169.922 457.86,171.854 L457.86,181.882 C459.056,183.814 461.77,185.47 464.484,185.47 Z M498.064,188 L494.614,188 L494.614,185.47 C492.774,187.494 490.244,188.552 487.254,188.552 C483.482,188.552 479.48,186.022 479.48,181.192 C479.48,176.224 483.482,173.878 487.254,173.878 C490.29,173.878 492.82,174.844 494.614,176.914 L494.614,172.912 C494.614,169.922 492.222,168.22 489.002,168.22 C486.334,168.22 484.172,169.186 482.194,171.302 L480.584,168.91 C482.976,166.426 485.828,165.23 489.462,165.23 C494.154,165.23 498.064,167.346 498.064,172.728 L498.064,188 Z M488.496,186.068 C490.934,186.068 493.28,185.148 494.614,183.308 L494.614,179.122 C493.28,177.282 490.934,176.362 488.496,176.362 C485.276,176.362 483.022,178.386 483.022,181.238 C483.022,184.044 485.276,186.068 488.496,186.068 Z M514.762,188.552 C508.138,188.552 503.676,183.492 503.676,176.868 C503.676,170.29 508.138,165.23 514.762,165.23 C518.81,165.23 521.202,166.886 522.904,169.094 L520.604,171.21 C519.132,169.186 517.246,168.312 514.946,168.312 C510.208,168.312 507.264,171.946 507.264,176.868 C507.264,181.79 510.208,185.47 514.946,185.47 C517.246,185.47 519.132,184.55 520.604,182.572 L522.904,184.688 C521.202,186.896 518.81,188.552 514.762,188.552 Z M533.346,188.552 C530.08,188.552 528.424,186.666 528.424,183.354 L528.424,168.818 L524.744,168.818 L524.744,165.782 L528.424,165.782 L528.424,159.71 L531.874,159.71 L531.874,165.782 L536.382,165.782 L536.382,168.818 L531.874,168.818 L531.874,182.618 C531.874,184.274 532.61,185.47 534.128,185.47 C535.094,185.47 536.014,185.056 536.474,184.55 L537.486,187.126 C536.612,187.954 535.37,188.552 533.346,188.552 Z" id="path-2"></path>
        <filter x="-2.1%" y="-12.8%" width="104.2%" height="135.8%" filterUnits="objectBoundingBox" id="filter-3">
            <feOffset dx="0" dy="2" in="SourceAlpha" result="shadowOffsetOuter1"></feOffset>
            <feGaussianBlur stdDeviation="2" in="shadowOffsetOuter1" result="shadowBlurOuter1"></feGaussianBlur>
            <feComposite in="shadowBlurOuter1" in2="SourceAlpha" operator="out" result="shadowBlurOuter1"></feComposite>
            <feColorMatrix values="0 0 0 0 0   0 0 0 0 0   0 0 0 0 0  0 0 0 0.5 0" type="matrix" in="shadowBlurOuter1"></feColorMatrix>
        </filter>
        <path d="M36.776,129 L28.352,129 L26.22,123.124 L11.348,123.124 L9.164,129 L0.74,129 L14.156,94.316 L23.412,94.316 L36.776,129 Z M24.192,116.624 L18.784,101.7 L13.376,116.624 L24.192,116.624 Z M50.14,139.192 C45.824,139.192 42.496,138.204 39.324,135.448 L42.288,130.664 C44.316,132.9 46.968,133.784 50.14,133.784 C53.312,133.784 57.056,132.38 57.056,127.44 L57.056,124.892 C55.08,127.388 52.376,128.844 49.308,128.844 C43.016,128.844 38.232,124.424 38.232,116.052 C38.232,107.836 42.964,103.26 49.308,103.26 C52.324,103.26 55.028,104.56 57.056,107.108 L57.056,103.884 L63.712,103.884 L63.712,127.284 C63.712,136.852 56.328,139.192 50.14,139.192 Z M51.388,122.968 C53.572,122.968 55.964,121.72 57.056,120.108 L57.056,111.996 C55.964,110.332 53.572,109.136 51.388,109.136 C47.644,109.136 45.044,111.736 45.044,116.052 C45.044,120.368 47.644,122.968 51.388,122.968 Z M76.868,129 L70.264,129 L70.264,103.884 L76.868,103.884 L76.868,107.316 C78.636,105.08 81.756,103.26 84.876,103.26 L84.876,109.708 C84.408,109.604 83.784,109.552 83.056,109.552 C80.872,109.552 77.96,110.8 76.868,112.412 L76.868,129 Z M92.26,101.18 C90.128,101.18 88.308,99.412 88.308,97.228 C88.308,95.044 90.128,93.328 92.26,93.328 C94.444,93.328 96.212,95.044 96.212,97.228 C96.212,99.412 94.444,101.18 92.26,101.18 Z M95.588,129 L88.984,129 L88.984,103.884 L95.588,103.884 L95.588,129 Z M113.84,129.624 C106.092,129.624 100.528,124.164 100.528,116.416 C100.528,108.72 106.092,103.26 113.84,103.26 C118.988,103.26 122.108,105.496 123.772,107.784 L119.456,111.84 C118.26,110.072 116.44,109.136 114.152,109.136 C110.148,109.136 107.34,112.048 107.34,116.416 C107.34,120.784 110.148,123.748 114.152,123.748 C116.44,123.748 118.26,122.708 119.456,121.044 L123.772,125.048 C122.108,127.388 118.988,129.624 113.84,129.624 Z M151.644,129 L145.04,129 L145.04,125.828 C143.324,127.752 140.308,129.624 136.2,129.624 C130.688,129.624 128.088,126.608 128.088,121.72 L128.088,103.884 L134.692,103.884 L134.692,119.12 C134.692,122.604 136.512,123.748 139.32,123.748 C141.868,123.748 143.896,122.344 145.04,120.888 L145.04,103.884 L151.644,103.884 L151.644,129 Z M164.8,129 L158.196,129 L158.196,94.316 L164.8,94.316 L164.8,129 Z M179.776,129.624 C175.148,129.624 172.652,127.232 172.652,122.76 L172.652,109.656 L168.492,109.656 L168.492,103.884 L172.652,103.884 L172.652,97.02 L179.308,97.02 L179.308,103.884 L184.404,103.884 L184.404,109.656 L179.308,109.656 L179.308,120.992 C179.308,122.552 180.14,123.748 181.596,123.748 C182.584,123.748 183.52,123.384 183.884,123.02 L185.288,128.012 C184.3,128.896 182.532,129.624 179.776,129.624 Z M212.484,129 L205.88,129 L205.88,125.828 C204.164,127.752 201.148,129.624 197.04,129.624 C191.528,129.624 188.928,126.608 188.928,121.72 L188.928,103.884 L195.532,103.884 L195.532,119.12 C195.532,122.604 197.352,123.748 200.16,123.748 C202.708,123.748 204.736,122.344 205.88,120.888 L205.88,103.884 L212.484,103.884 L212.484,129 Z M225.64,129 L219.036,129 L219.036,103.884 L225.64,103.884 L225.64,107.316 C227.408,105.08 230.528,103.26 233.648,103.26 L233.648,109.708 C233.18,109.604 232.556,109.552 231.828,109.552 C229.644,109.552 226.732,110.8 225.64,112.412 L225.64,129 Z M259.44,129 L252.836,129 L252.836,126.4 C251.12,128.428 248.156,129.624 244.88,129.624 C240.876,129.624 236.144,126.92 236.144,121.304 C236.144,115.428 240.876,113.192 244.88,113.192 C248.208,113.192 251.172,114.284 252.836,116.26 L252.836,112.88 C252.836,110.332 250.652,108.668 247.324,108.668 C244.62,108.668 242.124,109.656 239.992,111.632 L237.496,107.212 C240.564,104.508 244.516,103.26 248.468,103.26 C254.188,103.26 259.44,105.548 259.44,112.776 L259.44,129 Z M247.532,125.152 C249.664,125.152 251.744,124.424 252.836,122.968 L252.836,119.848 C251.744,118.392 249.664,117.664 247.532,117.664 C244.932,117.664 242.8,119.016 242.8,121.46 C242.8,123.8 244.932,125.152 247.532,125.152 Z M272.596,129 L265.992,129 L265.992,94.316 L272.596,94.316 L272.596,129 Z M317.16,129 L292.616,129 L292.616,94.316 L317.16,94.316 L317.16,100.816 L300,100.816 L300,108.148 L316.796,108.148 L316.796,114.648 L300,114.648 L300,122.5 L317.16,122.5 L317.16,129 Z M345.708,129 L338.324,129 L332.604,120.524 L326.832,129 L319.5,129 L328.392,116.104 L320.02,103.884 L327.404,103.884 L332.604,111.632 L337.752,103.884 L345.136,103.884 L336.712,116.104 L345.708,129 Z M363.336,129.624 C360.372,129.624 357.616,128.376 355.588,125.776 L355.588,138.568 L348.984,138.568 L348.984,103.884 L355.588,103.884 L355.588,107.056 C357.512,104.612 360.268,103.26 363.336,103.26 C369.784,103.26 374.464,108.044 374.464,116.416 C374.464,124.788 369.784,129.624 363.336,129.624 Z M361.256,123.748 C365.052,123.748 367.6,120.784 367.6,116.416 C367.6,112.1 365.052,109.136 361.256,109.136 C359.124,109.136 356.68,110.384 355.588,111.996 L355.588,120.888 C356.68,122.448 359.124,123.748 361.256,123.748 Z M391.104,129.624 C383.46,129.624 377.688,124.476 377.688,116.416 C377.688,109.136 383.044,103.26 390.688,103.26 C398.176,103.26 403.272,108.876 403.272,117.092 L403.272,118.548 L384.604,118.548 C385.02,121.72 387.568,124.372 391.832,124.372 C393.964,124.372 396.928,123.436 398.54,121.876 L401.452,126.14 C398.956,128.428 395.004,129.624 391.104,129.624 Z M396.876,114.076 C396.72,111.684 395.056,108.512 390.688,108.512 C386.58,108.512 384.812,111.58 384.5,114.076 L396.876,114.076 Z M414.66,129 L408.056,129 L408.056,103.884 L414.66,103.884 L414.66,107.316 C416.428,105.08 419.548,103.26 422.668,103.26 L422.668,109.708 C422.2,109.604 421.576,109.552 420.848,109.552 C418.664,109.552 415.752,110.8 414.66,112.412 L414.66,129 Z M430.052,101.18 C427.92,101.18 426.1,99.412 426.1,97.228 C426.1,95.044 427.92,93.328 430.052,93.328 C432.236,93.328 434.004,95.044 434.004,97.228 C434.004,99.412 432.236,101.18 430.052,101.18 Z M433.38,129 L426.776,129 L426.776,103.884 L433.38,103.884 L433.38,129 Z M477.736,129 L471.08,129 L471.08,113.14 C471.08,110.8 470.04,109.136 467.336,109.136 C464.996,109.136 463.072,110.696 462.136,112.048 L462.136,129 L455.48,129 L455.48,113.14 C455.48,110.8 454.44,109.136 451.736,109.136 C449.448,109.136 447.524,110.696 446.536,112.1 L446.536,129 L439.932,129 L439.932,103.884 L446.536,103.884 L446.536,107.16 C447.576,105.652 450.904,103.26 454.752,103.26 C458.444,103.26 460.784,104.976 461.72,107.836 C463.176,105.548 466.504,103.26 470.352,103.26 C474.98,103.26 477.736,105.704 477.736,110.852 L477.736,129 Z M496.04,129.624 C488.396,129.624 482.624,124.476 482.624,116.416 C482.624,109.136 487.98,103.26 495.624,103.26 C503.112,103.26 508.208,108.876 508.208,117.092 L508.208,118.548 L489.54,118.548 C489.956,121.72 492.504,124.372 496.768,124.372 C498.9,124.372 501.864,123.436 503.476,121.876 L506.388,126.14 C503.892,128.428 499.94,129.624 496.04,129.624 Z M501.812,114.076 C501.656,111.684 499.992,108.512 495.624,108.512 C491.516,108.512 489.748,111.58 489.436,114.076 L501.812,114.076 Z M536.548,129 L529.944,129 L529.944,113.816 C529.944,110.332 528.124,109.136 525.316,109.136 C522.716,109.136 520.688,110.592 519.596,112.1 L519.596,129 L512.992,129 L512.992,103.884 L519.596,103.884 L519.596,107.16 C521.208,105.236 524.276,103.26 528.384,103.26 C533.896,103.26 536.548,106.38 536.548,111.268 L536.548,129 Z M551.524,129.624 C546.896,129.624 544.4,127.232 544.4,122.76 L544.4,109.656 L540.24,109.656 L540.24,103.884 L544.4,103.884 L544.4,97.02 L551.056,97.02 L551.056,103.884 L556.152,103.884 L556.152,109.656 L551.056,109.656 L551.056,120.992 C551.056,122.552 551.888,123.748 553.344,123.748 C554.332,123.748 555.268,123.384 555.632,123.02 L557.036,128.012 C556.048,128.896 554.28,129.624 551.524,129.624 Z M586.468,129.624 C579.812,129.624 575.028,127.388 571.804,124.112 L575.808,118.496 C578.252,121.044 582.048,123.176 586.832,123.176 C590.888,123.176 592.864,121.304 592.864,119.328 C592.864,113.192 572.896,117.404 572.896,104.352 C572.896,98.58 577.888,93.796 586.052,93.796 C591.564,93.796 596.14,95.46 599.572,98.632 L595.464,104.04 C592.656,101.44 588.912,100.244 585.376,100.244 C582.204,100.244 580.436,101.648 580.436,103.728 C580.436,109.24 600.352,105.548 600.352,118.496 C600.352,124.84 595.828,129.624 586.468,129.624 Z M613.612,129.624 C608.984,129.624 606.488,127.232 606.488,122.76 L606.488,109.656 L602.328,109.656 L602.328,103.884 L606.488,103.884 L606.488,97.02 L613.144,97.02 L613.144,103.884 L618.24,103.884 L618.24,109.656 L613.144,109.656 L613.144,120.992 C613.144,122.552 613.976,123.748 615.432,123.748 C616.42,123.748 617.356,123.384 617.72,123.02 L619.124,128.012 C618.136,128.896 616.368,129.624 613.612,129.624 Z M644.448,129 L637.844,129 L637.844,126.4 C636.128,128.428 633.164,129.624 629.888,129.624 C625.884,129.624 621.152,126.92 621.152,121.304 C621.152,115.428 625.884,113.192 629.888,113.192 C633.216,113.192 636.18,114.284 637.844,116.26 L637.844,112.88 C637.844,110.332 635.66,108.668 632.332,108.668 C629.628,108.668 627.132,109.656 625,111.632 L622.504,107.212 C625.572,104.508 629.524,103.26 633.476,103.26 C639.196,103.26 644.448,105.548 644.448,112.776 L644.448,129 Z M632.54,125.152 C634.672,125.152 636.752,124.424 637.844,122.968 L637.844,119.848 C636.752,118.392 634.672,117.664 632.54,117.664 C629.94,117.664 627.808,119.016 627.808,121.46 C627.808,123.8 629.94,125.152 632.54,125.152 Z M659.424,129.624 C654.796,129.624 652.3,127.232 652.3,122.76 L652.3,109.656 L648.14,109.656 L648.14,103.884 L652.3,103.884 L652.3,97.02 L658.956,97.02 L658.956,103.884 L664.052,103.884 L664.052,109.656 L658.956,109.656 L658.956,120.992 C658.956,122.552 659.788,123.748 661.244,123.748 C662.232,123.748 663.168,123.384 663.532,123.02 L664.936,128.012 C663.948,128.896 662.18,129.624 659.424,129.624 Z M671.852,101.18 C669.72,101.18 667.9,99.412 667.9,97.228 C667.9,95.044 669.72,93.328 671.852,93.328 C674.036,93.328 675.804,95.044 675.804,97.228 C675.804,99.412 674.036,101.18 671.852,101.18 Z M675.18,129 L668.576,129 L668.576,103.884 L675.18,103.884 L675.18,129 Z M693.38,129.624 C685.112,129.624 680.12,123.592 680.12,116.416 C680.12,109.292 685.112,103.26 693.38,103.26 C701.7,103.26 706.692,109.292 706.692,116.416 C706.692,123.592 701.7,129.624 693.38,129.624 Z M693.38,123.748 C697.488,123.748 699.828,120.368 699.828,116.416 C699.828,112.516 697.488,109.136 693.38,109.136 C689.272,109.136 686.984,112.516 686.984,116.416 C686.984,120.368 689.272,123.748 693.38,123.748 Z M735.136,129 L728.532,129 L728.532,113.816 C728.532,110.332 726.712,109.136 723.904,109.136 C721.304,109.136 719.276,110.592 718.184,112.1 L718.184,129 L711.58,129 L711.58,103.884 L718.184,103.884 L718.184,107.16 C719.796,105.236 722.864,103.26 726.972,103.26 C732.484,103.26 735.136,106.38 735.136,111.268 L735.136,129 Z" id="path-4"></path>
        <filter x="-1.0%" y="-10.9%" width="101.9%" height="130.5%" filterUnits="objectBoundingBox" id="filter-5">
            <feOffset dx="0" dy="2" in="SourceAlpha" result="shadowOffsetOuter1"></feOffset>
            <feGaussianBlur stdDeviation="2" in="shadowOffsetOuter1" result="shadowBlurOuter1"></feGaussianBlur>
            <feComposite in="shadowBlurOuter1" in2="SourceAlpha" operator="out" result="shadowBlurOuter1"></feComposite>
            <feColorMatrix values="0 0 0 0 0   0 0 0 0 0   0 0 0 0 0  0 0 0 0.5 0" type="matrix" in="shadowBlurOuter1"></feColorMatrix>
        </filter>
    </defs>
    <g id="Page-1" stroke="none" stroke-width="1" fill="none" fill-rule="evenodd">
        <g id="phase4-copy" transform="translate(-327.000000, -62.000000)">
            <g id="logo2" transform="translate(330.000000, 65.000000)">
                <g id="Group" filter="url(#filter-1)" transform="translate(208.000000, 0.000000)" fill="#FFFFFF" fill-opacity="0.98">
                    <path d="M39.7849642,22.6176923 C40.1557279,16.0692308 38.9177804,9.80769231 36.4286993,4.19153846 C35.8950477,2.98615385 35.2830549,1.82461538 34.6377088,0.684615385 L0,0.684615385 L0,59.1561538 L9.97804296,59.1561538 C26.3436158,54.7238462 38.7773866,40.3407692 39.7849642,22.6176923" id="Fill-1"></path>
                    <path d="M38.6571599,0.684615385 C42.2507757,5.61461538 44.8841289,11.3469231 46.1911098,17.6946154 C49.4395585,33.4823077 43.7617542,49.0138462 32.5961814,59.1561538 L58.9630668,59.1561538 L58.9630668,0.684615385 L38.6571599,0.684615385" id="Fill-2"></path>
                    <path d="M179.76068,19.9776923 L181.868914,14.4538462 L182.233473,14.7684615 C183.525716,15.8138462 185.279475,16.7030769 186.933174,16.7384615 C188.413902,16.7723077 189.136038,16.3815385 188.939797,15.1392308 C188.794749,14.2115385 187.738305,14.0484615 187.077446,13.92 L185.630847,13.6330769 C182.815215,13.1107692 180.447136,11.3884615 180.447136,8.12384615 C180.447136,3.18769231 184.73574,0.420769231 189.050716,0.420769231 C191.316408,0.420769231 193.396718,0.993076923 195.342064,2.24923077 L193.515394,7.14384615 C192.511695,6.42692308 190.995286,5.41846154 189.073986,5.35 C188.442601,5.32615385 186.995227,5.65538462 187.458294,7.11076923 C187.658413,7.73076923 188.554296,7.99153846 189.105788,8.12384615 L190.740871,8.51538462 C193.789976,9.22 195.99827,10.9430769 195.99827,14.4676923 C195.99827,19.4292308 191.682518,21.8838462 187.397017,21.8838462 C184.894749,21.8838462 181.998449,21.1776923 179.76068,19.9776923" id="Fill-4"></path>
                    <polygon id="Fill-5" points="170.864678 21.5715385 178.209368 21.5715385 178.209368 0.76 170.864678 0.76"></polygon>
                    <polyline id="Fill-6" points="162.58222 0.759230769 170.104535 0.759230769 162.420107 21.5715385 156.316468 21.5715385 148.656862 0.759230769 156.15358 0.759230769 159.369451 13.3184615 162.58222 0.759230769"></polyline>
                    <path d="M141.786098,6.76692308 C141.919511,7.65230769 143.235024,14.0223077 143.235024,14.0223077 L140.347255,14.0223077 L141.786098,6.76692308 Z M130.838484,21.5715385 L138.470167,21.5715385 L139.051134,18.9576923 L144.496241,18.9576923 L145.219153,21.5715385 L152.855489,21.5715385 L145.707816,0.76 L137.702267,0.76 L130.838484,21.5715385 Z" id="Fill-7"></path>
                    <path d="M111.968317,0.759230769 L119.491408,0.759230769 C126.205489,0.759230769 131.334905,3.81615385 131.334905,11.4661538 C131.334905,17.6292308 127.155668,21.5715385 121.28395,21.5715385 L111.968317,21.56 L111.968317,0.759230769 Z M119.362649,15.5961538 L119.855191,15.5961538 C122.276014,15.5961538 124.072434,14.1553846 124.072434,11.4392308 C124.072434,8.51538462 122.481563,6.88461538 119.821838,6.88461538 L119.362649,6.88461538 L119.362649,15.5961538 Z" id="Fill-8"></path>
                    <path d="M107.575776,1.41230769 L107.968258,4.82846154 C108.059785,5.63846154 108.527506,7.58307692 107.948866,7.32230769 C107.588962,7.16230769 107.291885,6.28076923 106.997136,5.49769231 C106.847434,5.1 106.132279,3.22 105.945346,3.08153846 C105.040155,2.41153846 102.785322,1.65461538 101.259606,1.64769231 C96.6335919,1.63076923 93.5736277,5.01538462 93.5736277,11.0223077 C93.5736277,15.33 95.6523866,20.4976923 100.943138,20.4976923 C102.838842,20.4976923 106.468914,19.9061538 107.457876,17.2315385 C107.904654,16.0207692 108.312649,14.9446154 108.608174,15.2723077 C108.828461,15.51 108.542243,16.4792308 108.410382,17.0015385 C107.786754,19.4807692 107.752625,20.2323077 107.556384,20.3284615 C105.165811,21.52 102.100418,21.9115385 99.4181981,21.9115385 C90.8859785,21.9115385 87.9408115,16.9753846 87.9408115,12.0407692 C87.9408115,3.47692308 93.2455251,-0.13 101.466706,0.239230769 C103.547017,0.316153846 105.628103,0.683076923 107.575776,1.41230769" id="Fill-10"></path>
                    <path d="M82.3871122,1.79230769 L81.0204057,1.31923077 C80.5635442,0.91 81.1220167,0.795384615 81.1220167,0.795384615 C81.1220167,0.795384615 83.0960621,1.15923077 88.0144988,0.744615385 C88.0144988,0.744615385 88.4411098,0.83 88.147136,1.17307692 L86.5322196,1.85846154 C85.4812053,2.31384615 85.4812053,2.05307692 85.4812053,3.19538462 L85.4718974,13.8015385 C85.4718974,22.0969231 76.9652745,21.9115385 75.3076969,21.9115385 C74.5173031,21.9115385 66.7142005,21.9115385 66.7142005,15.2523077 L66.7142005,4.02384615 C66.7142005,2.06692308 66.9259547,2.11769231 66.2697494,1.88923077 L64.2964797,1.15461538 C64.2964797,1.15461538 63.9606205,0.684615385 64.5571002,0.714615385 C66.1704654,0.795384615 68.5051909,1.13769231 73.9976134,0.744615385 C73.9976134,0.744615385 74.4761933,0.860769231 74.1612768,1.20307692 L72.5192124,1.66230769 C71.2696301,2.21769231 71.4348449,1.79230769 71.4014916,3.06538462 L71.4410501,14.1353846 C71.4410501,16.85 72.849642,20.2115385 77.2794153,20.2115385 C83.3093675,20.2115385 83.3667661,15.0384615 83.3667661,13.8876923 L83.3768496,2.92153846 C83.4412291,1.88923077 83.3093675,2.18307692 82.3871122,1.79230769" id="Fill-12"></path>
                    <polygon id="Fill-13" points="66.7157518 27.0515385 324.786695 27.0515385 324.786695 26.1823077 66.7157518 26.1823077"></polygon>
                    <path d="M74.2310859,35.7615385 C74.0899165,35.5715385 73.9293556,35.4053846 73.750179,35.2638462 C73.5702267,35.1207692 73.3770883,35.0023077 73.1684368,34.9046154 C72.9621122,34.8076923 72.7457041,34.7346154 72.5176611,34.6846154 C72.2903938,34.6353846 72.0600239,34.61 71.8281026,34.61 C71.4092482,34.61 71.0268496,34.6846154 70.6801313,34.8338462 C70.3349642,34.9815385 70.0386635,35.1884615 69.7935561,35.45 C69.547673,35.7115385 69.3560859,36.0184615 69.2195704,36.3707692 C69.0838305,36.7223077 69.0155728,37.1023077 69.0155728,37.5084615 C69.0155728,37.9238462 69.0838305,38.3046154 69.2195704,38.6523077 C69.3560859,39 69.5492243,39.2992308 69.7997613,39.5492308 C70.0502983,39.8 70.351253,39.9969231 70.701074,40.1384615 C71.0516706,40.28 71.4402745,40.3507692 71.8692124,40.3507692 C72.0918258,40.3507692 72.3128878,40.3261538 72.5339499,40.2738462 C72.7550119,40.2215385 72.9667661,40.1476923 73.1684368,40.0507692 C73.3716587,39.9530769 73.5632458,39.8369231 73.7424224,39.7015385 C73.9223747,39.5661538 74.0860382,39.4130769 74.2310859,39.2415385 L74.2310859,42.4976923 C74.003043,42.5653846 73.7897375,42.63 73.5888425,42.6915385 C73.3894988,42.7515385 73.1932578,42.8038462 73.0016706,42.8469231 C72.8108592,42.89 72.6192721,42.9238462 72.4245823,42.9484615 C72.2314439,42.9738462 72.0274463,42.9861538 71.8141408,42.9861538 C71.0764916,42.9861538 70.3698687,42.8523077 69.6942721,42.5861538 C69.0178998,42.32 68.4051313,41.9407692 67.8536396,41.4484615 C67.2718974,40.9253846 66.8437351,40.33 66.5707041,39.6646154 C66.297673,38.9992308 66.1611575,38.2753846 66.1611575,37.4953846 C66.1611575,36.7769231 66.2937947,36.0884615 66.5575179,35.43 C66.8212411,34.7707692 67.2082936,34.1838462 67.7178998,33.6692308 C67.9777446,33.4076923 68.2616348,33.1715385 68.5711217,32.9615385 C68.8806086,32.7523077 69.2079356,32.5730769 69.5515513,32.4261538 C69.8936158,32.28 70.2504177,32.1676923 70.6196301,32.0915385 C70.9880668,32.0146154 71.3565036,31.9761538 71.7249403,31.9761538 C72.1670644,31.9761538 72.5928998,32.0230769 73.0016706,32.1153846 C73.4119928,32.2084615 73.8215394,32.3369231 74.2310859,32.5053846 L74.2310859,35.7615385" id="Fill-14"></path>
                    <path d="M82.1311456,34.5423077 C81.721599,34.5423077 81.3360979,34.6176923 80.976969,34.7692308 C80.6178401,34.9207692 80.302148,35.1238462 80.0314439,35.3792308 C79.7615155,35.6338462 79.5466587,35.9276923 79.3899761,36.2584615 C79.2332936,36.5907692 79.1541766,36.9369231 79.1541766,37.2984615 C79.1541766,37.75 79.2332936,38.1661538 79.3899761,38.5476923 C79.5466587,38.9284615 79.7615155,39.2576923 80.0314439,39.5353846 C80.302148,39.8130769 80.6178401,40.0292308 80.976969,40.1853846 C81.3360979,40.3415385 81.721599,40.42 82.1311456,40.42 C82.5399165,40.42 82.9261933,40.3415385 83.2876492,40.1853846 C83.6498807,40.0292308 83.9647971,39.8130769 84.2331742,39.5353846 C84.5015513,39.2576923 84.7148568,38.9284615 84.8707637,38.5476923 C85.0289976,38.1661538 85.1081146,37.75 85.1081146,37.2984615 C85.1081146,36.9369231 85.0289976,36.5907692 84.8707637,36.2584615 C84.7148568,35.9276923 84.5015513,35.6338462 84.2331742,35.3792308 C83.9647971,35.1238462 83.6498807,34.9207692 83.2876492,34.7692308 C82.9261933,34.6176923 82.5399165,34.5423077 82.1311456,34.5423077 M82.1311456,31.9084615 C82.6360979,31.9084615 83.1309666,31.9684615 83.6157518,32.0884615 C84.100537,32.2084615 84.5589499,32.3776923 84.9909905,32.5992308 C85.4238067,32.82 85.822494,33.09 86.1862768,33.4084615 C86.5500597,33.7269231 86.8634248,34.0853846 87.124821,34.4853846 C87.3869928,34.8846154 87.5917661,35.3184615 87.7399165,35.7884615 C87.8872912,36.2576923 87.9617542,36.7569231 87.9617542,37.2846154 C87.9617542,38.1330769 87.8174821,38.9107692 87.5281623,39.6169231 C87.2388425,40.3238462 86.8347255,40.9307692 86.3158115,41.4384615 C85.7968974,41.9469231 85.1818019,42.3423077 84.4689737,42.6261538 C83.7569212,42.9107692 82.9773866,43.0530769 82.1311456,43.0530769 C81.5656921,43.0530769 81.0304893,42.9892308 80.52321,42.8607692 C80.0159308,42.7323077 79.5466587,42.5476923 79.1161695,42.3084615 C78.6864558,42.07 78.297852,41.7784615 77.9495823,41.4384615 C77.600537,41.0976923 77.3050119,40.7130769 77.0614558,40.2846154 C76.8186754,39.8553846 76.6301909,39.3884615 76.499105,38.8861538 C76.3672434,38.3823077 76.300537,37.8492308 76.300537,37.2846154 C76.300537,36.7569231 76.375,36.2576923 76.5223747,35.7884615 C76.6705251,35.3184615 76.876074,34.8846154 77.1405728,34.4853846 C77.4042959,34.0853846 77.7168854,33.7269231 78.0791169,33.4084615 C78.4405728,33.09 78.8384845,32.82 79.2705251,32.5992308 C79.7025656,32.3776923 80.1609785,32.2084615 80.6457637,32.0884615 C81.1313246,31.9684615 81.6254177,31.9084615 82.1311456,31.9084615" id="Fill-15"></path>
                    <polyline id="Fill-16" points="93.0523866 40.4061538 96.3427208 40.4061538 96.3427208 42.7084615 90.3143198 42.7084615 90.3143198 32.2538462 93.0523866 32.2538462 93.0523866 40.4061538"></polyline>
                    <polyline id="Fill-17" points="101.541169 40.4061538 104.832279 40.4061538 104.832279 42.7084615 98.8031026 42.7084615 98.8031026 32.2538462 101.541169 32.2538462 101.541169 40.4061538"></polyline>
                    <polyline id="Fill-18" points="110.029952 34.5561538 110.029952 36.3023077 113.121718 36.3023077 113.121718 38.6053846 110.029952 38.6053846 110.029952 40.4061538 113.293138 40.4061538 113.293138 42.7069231 107.291885 42.7069231 107.291885 32.2538462 113.293138 32.2538462 113.293138 34.5561538 110.029952 34.5561538"></polyline>
                    <path d="M126.793437,36.8715385 C126.78568,37.2507692 126.768616,37.6184615 126.746122,37.9753846 C126.722852,38.3315385 126.673986,38.6807692 126.598747,39.0215385 C126.52506,39.3615385 126.417243,39.6969231 126.278401,40.0230769 C126.139558,40.3507692 125.951074,40.6769231 125.715274,41.0023077 C125.45543,41.3584615 125.16611,41.6661538 124.848091,41.9253846 C124.529296,42.1853846 124.18568,42.3992308 123.816468,42.5661538 C123.448807,42.7323077 123.059427,42.8561538 122.650656,42.9346154 C122.239558,43.0138462 121.813723,43.0530769 121.37315,43.0530769 C120.544749,43.0530769 119.785382,42.92 119.095823,42.6546154 C118.407041,42.3876923 117.813663,42.0123077 117.318019,41.5269231 C116.821599,41.0407692 116.436098,40.4607692 116.159964,39.7830769 C115.884606,39.1061538 115.747315,38.3569231 115.747315,37.5346154 C115.747315,36.6861538 115.886158,35.9153846 116.163842,35.2230769 C116.441527,34.5307692 116.832458,33.9392308 117.334308,33.4492308 C117.836933,32.96 118.439618,32.5807692 119.140811,32.3115385 C119.841229,32.0430769 120.616885,31.9084615 121.468556,31.9084615 C122.552148,31.9084615 123.500776,32.1515385 124.315215,32.6369231 C125.13043,33.1223077 125.764916,33.8546154 126.220227,34.8338462 L123.620227,35.9107692 C123.52327,35.6623077 123.403043,35.4369231 123.257995,35.2338462 C123.110621,35.0292308 122.943079,34.8546154 122.752267,34.7084615 C122.56068,34.5615385 122.347375,34.4492308 122.110024,34.37 C121.873449,34.2915385 121.616706,34.2523077 121.339797,34.2523077 C120.889141,34.2523077 120.491229,34.3484615 120.150716,34.5430769 C119.809427,34.7369231 119.523986,34.9907692 119.293616,35.3038462 C119.064021,35.6184615 118.89105,35.9715385 118.775477,36.3638462 C118.659129,36.7569231 118.600955,37.1515385 118.600955,37.5492308 C118.600955,37.9553846 118.661456,38.3530769 118.781683,38.7446154 C118.902685,39.1338462 119.08031,39.4838462 119.314558,39.7930769 C119.548807,40.1023077 119.839678,40.3507692 120.188723,40.5384615 C120.536217,40.7261538 120.936456,40.8192308 121.387112,40.8192308 C121.681862,40.8192308 121.958771,40.7815385 122.216289,40.7038462 C122.473031,40.6269231 122.697971,40.5123077 122.891885,40.3623077 C123.085024,40.2107692 123.243258,40.0223077 123.365811,39.7961538 C123.489141,39.5707692 123.564379,39.3069231 123.591527,39.0046154 L121.352983,39.0046154 L121.352983,36.8715385 L126.793437,36.8715385" id="Fill-19"></path>
                    <polyline id="Fill-20" points="131.850716 34.5561538 131.850716 36.3023077 134.943258 36.3023077 134.943258 38.6053846 131.850716 38.6053846 131.850716 40.4061538 135.113902 40.4061538 135.113902 42.7069231 129.112649 42.7069231 129.112649 32.2538462 135.113902 32.2538462 135.113902 34.5561538 131.850716 34.5561538"></polyline>
                    <path d="M146.613783,36.8776923 C146.32136,36.8776923 146.046778,36.9315385 145.790036,37.0392308 C145.532518,37.1484615 145.306802,37.2923077 145.115215,37.4753846 C144.921301,37.6569231 144.768496,37.8661538 144.656802,38.1030769 C144.544332,38.34 144.48926,38.5884615 144.48926,38.8446154 C144.48926,39.1684615 144.544332,39.4646154 144.656802,39.7376923 C144.768496,40.01 144.921301,40.2446154 145.115215,40.4438462 C145.306802,40.6407692 145.532518,40.7961538 145.790036,40.9076923 C146.046778,41.0184615 146.32136,41.0746154 146.613783,41.0746154 C146.906205,41.0746154 147.180788,41.0184615 147.439081,40.9076923 C147.698926,40.7961538 147.923866,40.6407692 148.115453,40.4438462 C148.307041,40.2446154 148.458294,40.01 148.570764,39.7376923 C148.682458,39.4646154 148.739081,39.1684615 148.739081,38.8446154 C148.739081,38.5884615 148.682458,38.34 148.570764,38.1030769 C148.458294,37.8661538 148.307041,37.6569231 148.115453,37.4753846 C147.923866,37.2923077 147.698926,37.1484615 147.439081,37.0392308 C147.180788,36.9315385 146.906205,36.8776923 146.613783,36.8776923 M146.613783,34.9969231 C146.974463,34.9969231 147.327387,35.04 147.673329,35.1253846 C148.020048,35.2115385 148.346599,35.3323077 148.656086,35.4907692 C148.964021,35.6476923 149.249463,35.84 149.509308,36.0684615 C149.768377,36.2953846 149.992542,36.5507692 150.179475,36.8369231 C150.365632,37.1223077 150.511456,37.4323077 150.618496,37.7676923 C150.72321,38.1023077 150.775955,38.4584615 150.775955,38.8353846 C150.775955,39.4415385 150.672792,39.9969231 150.466468,40.5007692 C150.260143,41.0046154 149.97315,41.4392308 149.601611,41.8023077 C149.231623,42.1638462 148.792601,42.4476923 148.282995,42.6507692 C147.774165,42.8530769 147.218795,42.9546154 146.613783,42.9546154 C146.210442,42.9546154 145.828043,42.91 145.465811,42.8169231 C145.102804,42.7246154 144.768496,42.5938462 144.461337,42.4215385 C144.154177,42.2523077 143.876492,42.0453846 143.627506,41.8023077 C143.379296,41.5576923 143.168317,41.2830769 142.993795,40.9769231 C142.820823,40.6715385 142.686635,40.3376923 142.59278,39.98 C142.497375,39.6192308 142.450835,39.2384615 142.450835,38.8353846 C142.450835,38.4584615 142.50358,38.1023077 142.610621,37.7676923 C142.715334,37.4323077 142.861933,37.1223077 143.050418,36.8369231 C143.238126,36.5507692 143.463067,36.2953846 143.720585,36.0684615 C143.978878,35.84 144.262768,35.6476923 144.57148,35.4907692 C144.880191,35.3323077 145.207518,35.2115385 145.553461,35.1253846 C145.900179,35.04 146.252327,34.9969231 146.613783,34.9969231" id="Fill-21"></path>
                    <polyline id="Fill-22" points="154.029833 36.8876923 154.029833 38.1346154 156.179952 38.1346154 156.179952 39.7784615 154.029833 39.7784615 154.029833 42.7084615 152.075179 42.7084615 152.075179 35.2446154 156.398687 35.2446154 156.398687 36.8876923 154.029833 36.8876923"></polyline>
                    <path d="M167.916408,35.4838462 L167.890036,35.4838462 L166.756026,38.8146154 L169.03568,38.8146154 L167.916408,35.4838462 Z M165.99821,40.8930769 L165.274523,42.7069231 L162.366587,42.7069231 L166.421718,32.2538462 L169.411874,32.2538462 L173.385561,42.7069231 L170.463663,42.7069231 L169.774105,40.8930769 L165.99821,40.8930769 Z" id="Fill-23"></path>
                    <path d="M185.962053,36.8715385 C185.952745,37.2507692 185.936456,37.6184615 185.914737,37.9753846 C185.891468,38.3315385 185.842601,38.6807692 185.767363,39.0215385 C185.6929,39.3615385 185.585084,39.6969231 185.446241,40.0230769 C185.307399,40.3507692 185.11969,40.6769231 184.883115,41.0023077 C184.624045,41.3584615 184.334726,41.6661538 184.016706,41.9253846 C183.697912,42.1853846 183.354296,42.3992308 182.985084,42.5661538 C182.617422,42.7323077 182.228043,42.8561538 181.818496,42.9346154 C181.407399,43.0138462 180.982339,43.0530769 180.541766,43.0530769 C179.712589,43.0530769 178.953222,42.92 178.264439,42.6546154 C177.574105,42.3876923 176.981504,42.0123077 176.485859,41.5269231 C175.990215,41.0407692 175.604714,40.4607692 175.329356,39.7830769 C175.052446,39.1061538 174.915931,38.3569231 174.915931,37.5346154 C174.915931,36.6861538 175.054773,35.9153846 175.331683,35.2230769 C175.610143,34.5307692 176.000298,33.9392308 176.502924,33.4492308 C177.006325,32.96 177.608234,32.5807692 178.308652,32.3115385 C179.010621,32.0430769 179.786277,31.9084615 180.637172,31.9084615 C181.720764,31.9084615 182.668616,32.1515385 183.483055,32.6369231 C184.29827,33.1223077 184.932757,33.8546154 185.388842,34.8338462 L182.788067,35.9107692 C182.691885,35.6623077 182.570883,35.4369231 182.425835,35.2338462 C182.279236,35.0292308 182.11247,34.8546154 181.920107,34.7084615 C181.729296,34.5615385 181.51599,34.4492308 181.277864,34.37 C181.041289,34.2915385 180.785322,34.2523077 180.506862,34.2523077 C180.056205,34.2523077 179.661396,34.3484615 179.318556,34.5430769 C178.978043,34.7369231 178.691826,34.9907692 178.463007,35.3038462 C178.232637,35.6184615 178.059666,35.9715385 177.944093,36.3638462 C177.827745,36.7569231 177.76957,37.1515385 177.76957,37.5492308 C177.76957,37.9553846 177.829296,38.3530769 177.949523,38.7446154 C178.071301,39.1338462 178.24815,39.4838462 178.483174,39.7930769 C178.717422,40.1023077 179.009069,40.3507692 179.356563,40.5384615 C179.704833,40.7261538 180.104296,40.8192308 180.554952,40.8192308 C180.850477,40.8192308 181.126611,40.7815385 181.384129,40.7038462 C181.640871,40.6269231 181.866587,40.5123077 182.060501,40.3623077 C182.25364,40.2107692 182.411874,40.0223077 182.534427,39.7961538 C182.657757,39.5707692 182.732995,39.3069231 182.760143,39.0046154 L180.521599,39.0046154 L180.521599,36.8715385 L185.962053,36.8715385" id="Fill-24"></path>
                    <path d="M191.57858,36.94 L191.843854,36.94 C192.067243,36.94 192.292959,36.9246154 192.520227,36.8953846 C192.74827,36.8661538 192.952267,36.8053846 193.135322,36.7123077 C193.316826,36.6192308 193.4642,36.4892308 193.578222,36.32 C193.691468,36.1507692 193.748866,35.9246154 193.748866,35.6392308 C193.748866,35.3553846 193.691468,35.1269231 193.578222,34.9553846 C193.4642,34.7838462 193.316826,34.6515385 193.135322,34.5592308 C192.952267,34.4669231 192.74827,34.4061538 192.520227,34.3761538 C192.292959,34.3469231 192.067243,34.3330769 191.843854,34.3330769 L191.57858,34.3330769 L191.57858,36.94 Z M197.606205,42.7084615 L194.192542,42.7084615 L191.612709,38.6869231 L191.57858,38.6869231 L191.57858,42.7084615 L188.839737,42.7084615 L188.839737,32.2538462 L192.936754,32.2538462 C193.455668,32.2538462 193.938902,32.3169231 194.387232,32.4438462 C194.835561,32.5707692 195.224165,32.7638462 195.551492,33.0261538 C195.879594,33.2876923 196.136337,33.6207692 196.322494,34.0238462 C196.509427,34.4284615 196.602506,34.91 196.602506,35.4692308 C196.602506,35.8315385 196.552864,36.1746154 196.452804,36.5030769 C196.351969,36.8307692 196.203819,37.1246154 196.008353,37.3853846 C195.812888,37.6484615 195.571659,37.8692308 195.284666,38.05 C194.998449,38.2307692 194.668019,38.3546154 194.295704,38.4223077 L197.606205,42.7084615 Z" id="Fill-25"></path>
                    <polygon id="Fill-26" points="199.985919 42.7069231 202.723986 42.7069231 202.723986 32.2538462 199.985919 32.2538462"></polygon>
                    <path d="M213.413305,35.7615385 C213.272136,35.5715385 213.111575,35.4053846 212.931623,35.2638462 C212.752446,35.1207692 212.558532,35.0023077 212.350656,34.9046154 C212.144332,34.8076923 211.927148,34.7346154 211.699105,34.6846154 C211.471838,34.6353846 211.242243,34.61 211.010322,34.61 C210.591468,34.61 210.208294,34.6846154 209.862351,34.8338462 C209.516408,34.9815385 209.220107,35.1884615 208.975,35.45 C208.729117,35.7115385 208.538305,36.0184615 208.40179,36.3707692 C208.265274,36.7223077 208.197792,37.1023077 208.197792,37.5084615 C208.197792,37.9238462 208.265274,38.3046154 208.40179,38.6523077 C208.538305,39 208.731444,39.2992308 208.981205,39.5492308 C209.232518,39.8 209.532697,39.9969231 209.882518,40.1384615 C210.234666,40.28 210.622494,40.3507692 211.050656,40.3507692 C211.27327,40.3507692 211.495883,40.3261538 211.716169,40.2738462 C211.937232,40.2215385 212.14821,40.1476923 212.350656,40.0507692 C212.553878,39.9530769 212.745465,39.8369231 212.924642,39.7015385 C213.103819,39.5661538 213.267482,39.4130769 213.413305,39.2415385 L213.413305,42.4976923 C213.185263,42.5653846 212.971957,42.63 212.771062,42.6915385 C212.570943,42.7515385 212.374702,42.8038462 212.18389,42.8469231 C211.992303,42.89 211.800716,42.9238462 211.606802,42.9484615 C211.413663,42.9738462 211.209666,42.9861538 210.99636,42.9861538 C210.259487,42.9861538 209.552088,42.8523077 208.876492,42.5861538 C208.200119,42.32 207.586575,41.9407692 207.036635,41.4484615 C206.454117,40.9253846 206.025955,40.33 205.752924,39.6646154 C205.479893,38.9992308 205.343377,38.2753846 205.343377,37.4953846 C205.343377,36.7769231 205.475239,36.0884615 205.739737,35.43 C206.002685,34.7707692 206.389737,34.1838462 206.900119,33.6692308 C207.159189,33.4076923 207.443854,33.1715385 207.752566,32.9615385 C208.062828,32.7523077 208.389379,32.5730769 208.732995,32.4261538 C209.077387,32.28 209.431862,32.1676923 209.801074,32.0915385 C210.170286,32.0146154 210.537947,31.9761538 210.907936,31.9761538 C211.349284,31.9761538 211.774344,32.0230769 212.18389,32.1153846 C212.593437,32.2084615 213.003759,32.3369231 213.413305,32.5053846 L213.413305,35.7615385" id="Fill-27"></path>
                    <path d="M225.827685,32.2538462 L225.827685,38.1307692 C225.827685,38.4692308 225.819928,38.8038462 225.80364,39.1323077 C225.788126,39.4630769 225.743914,39.7838462 225.671002,40.0984615 C225.598091,40.4115385 225.487947,40.7146154 225.339021,41.0061538 C225.191647,41.2961538 224.988425,41.5684615 224.72858,41.8207692 C224.509845,42.0376923 224.261635,42.2192308 223.984726,42.3661538 C223.707041,42.5130769 223.415394,42.6323077 223.110561,42.7246154 C222.804952,42.8176923 222.492363,42.8838462 222.170465,42.9253846 C221.850895,42.9646154 221.53753,42.9853846 221.232697,42.9853846 C220.92321,42.9853846 220.608294,42.9646154 220.286396,42.9253846 C219.96605,42.8838462 219.655012,42.8176923 219.350955,42.7246154 C219.049224,42.6323077 218.759129,42.5130769 218.481444,42.3661538 C218.204535,42.2192308 217.955549,42.0376923 217.736814,41.8207692 C217.473866,41.5684615 217.267542,41.2961538 217.119391,41.0061538 C216.971241,40.7146154 216.861098,40.4115385 216.788962,40.0984615 C216.71605,39.7838462 216.670286,39.4630769 216.656325,39.1323077 C216.63926,38.8038462 216.631504,38.4692308 216.631504,38.1307692 L216.631504,32.2538462 L219.36957,32.2538462 L219.36957,37.7584615 C219.36957,37.9838462 219.375,38.2130769 219.386635,38.4423077 C219.396718,38.6730769 219.422315,38.8923077 219.461098,39.1030769 C219.499881,39.3115385 219.558831,39.5092308 219.638723,39.6915385 C219.718616,39.8746154 219.827208,40.0330769 219.96605,40.1684615 C220.105668,40.3038462 220.277088,40.4107692 220.481086,40.4876923 C220.686635,40.5638462 220.936396,40.6023077 221.232697,40.6023077 C221.524344,40.6023077 221.773329,40.5638462 221.98043,40.4876923 C222.18753,40.4107692 222.359726,40.3038462 222.496241,40.1684615 C222.632757,40.0330769 222.740573,39.8746154 222.81969,39.6915385 C222.900358,39.5092308 222.960859,39.3115385 223.001193,39.1030769 C223.041527,38.8923077 223.066348,38.6730769 223.075656,38.4423077 C223.084964,38.2130769 223.090394,37.9838462 223.090394,37.7584615 L223.090394,32.2538462 L225.827685,32.2538462" id="Fill-28"></path>
                    <polyline id="Fill-29" points="231.94994 40.4061538 235.240274 40.4061538 235.240274 42.7084615 229.211098 42.7084615 229.211098 32.2538462 231.94994 32.2538462 231.94994 40.4061538"></polyline>
                    <polyline id="Fill-30" points="241.150776 42.7084615 238.413484 42.7084615 238.413484 34.5569231 236.147017 34.5569231 236.147017 32.2538462 243.418795 32.2538462 243.418795 34.5569231 241.150776 34.5569231 241.150776 42.7084615"></polyline>
                    <path d="M255.080012,32.2538462 L255.080012,38.1307692 C255.080012,38.4692308 255.072255,38.8038462 255.055967,39.1323077 C255.040453,39.4630769 254.996241,39.7838462 254.924105,40.0984615 C254.850418,40.4115385 254.740274,40.7146154 254.592124,41.0061538 C254.443974,41.2961538 254.241527,41.5684615 253.982458,41.8207692 C253.762947,42.0376923 253.513962,42.2192308 253.237828,42.3661538 C252.959368,42.5130769 252.667721,42.6323077 252.362888,42.7246154 C252.057279,42.8176923 251.745465,42.8838462 251.423568,42.9253846 C251.103998,42.9646154 250.789857,42.9853846 250.4858,42.9853846 C250.177088,42.9853846 249.860621,42.9646154 249.539499,42.9253846 C249.218377,42.8838462 248.907339,42.8176923 248.604833,42.7246154 C248.302327,42.6323077 248.012232,42.5130769 247.734547,42.3661538 C247.456862,42.2192308 247.208652,42.0376923 246.990692,41.8207692 C246.726193,41.5684615 246.519869,41.2961538 246.372494,41.0061538 C246.224344,40.7146154 246.113425,40.4115385 246.041289,40.0984615 C245.968377,39.7838462 245.923389,39.4630769 245.908652,39.1323077 C245.891587,38.8038462 245.883831,38.4692308 245.883831,38.1307692 L245.883831,32.2538462 L248.621897,32.2538462 L248.621897,37.7584615 C248.621897,37.9838462 248.627327,38.2130769 248.638962,38.4423077 C248.649821,38.6730769 248.675418,38.8923077 248.7142,39.1030769 C248.752983,39.3115385 248.811158,39.5092308 248.891826,39.6915385 C248.971718,39.8746154 249.08031,40.0330769 249.218377,40.1684615 C249.357995,40.3038462 249.530191,40.4107692 249.734189,40.4876923 C249.938962,40.5638462 250.189499,40.6023077 250.4858,40.6023077 C250.776671,40.6023077 251.026432,40.5638462 251.233532,40.4876923 C251.440632,40.4107692 251.612053,40.3038462 251.749344,40.1684615 C251.885859,40.0330769 251.992124,39.8746154 252.073568,39.6915385 C252.152685,39.5092308 252.213186,39.3115385 252.252745,39.1030769 C252.29463,38.8923077 252.319451,38.6730769 252.328759,38.4423077 C252.338067,38.2130769 252.342721,37.9838462 252.342721,37.7584615 L252.342721,32.2538462 L255.080012,32.2538462" id="Fill-31"></path>
                    <path d="M261.202267,36.94 L261.467542,36.94 C261.690931,36.94 261.916647,36.9246154 262.143138,36.8953846 C262.371181,36.8661538 262.57673,36.8053846 262.75901,36.7123077 C262.941289,36.6192308 263.088663,36.4892308 263.203461,36.32 C263.316706,36.1507692 263.372554,35.9246154 263.372554,35.6392308 C263.372554,35.3553846 263.316706,35.1269231 263.203461,34.9553846 C263.088663,34.7838462 262.941289,34.6515385 262.75901,34.5592308 C262.57673,34.4669231 262.371181,34.4061538 262.143138,34.3761538 C261.916647,34.3469231 261.690931,34.3330769 261.467542,34.3330769 L261.202267,34.3330769 L261.202267,36.94 Z M267.230668,42.7084615 L263.816229,42.7084615 L261.236396,38.6869231 L261.202267,38.6869231 L261.202267,42.7084615 L258.4642,42.7084615 L258.4642,32.2538462 L262.559666,32.2538462 C263.07858,32.2538462 263.562589,32.3169231 264.011695,32.4438462 C264.460024,32.5707692 264.848628,32.7638462 265.175955,33.0261538 C265.502506,33.2876923 265.760024,33.6207692 265.946957,34.0238462 C266.133115,34.4284615 266.226193,34.91 266.226193,35.4692308 C266.226193,35.8315385 266.176551,36.1746154 266.076492,36.5030769 C265.976432,36.8307692 265.828282,37.1246154 265.632816,37.3853846 C265.436575,37.6484615 265.196122,37.8692308 264.909129,38.05 C264.622912,38.2307692 264.292482,38.3546154 263.919391,38.4223077 L267.230668,42.7084615 Z" id="Fill-32"></path>
                    <path d="M274.686277,35.4838462 L274.66068,35.4838462 L273.525895,38.8146154 L275.806325,38.8146154 L274.686277,35.4838462 Z M272.768854,40.8930769 L272.045943,42.7069231 L269.136456,42.7069231 L273.192363,32.2538462 L276.182518,32.2538462 L280.15543,42.7069231 L277.233532,42.7069231 L276.544749,40.8930769 L272.768854,40.8930769 Z" id="Fill-33"></path>
                    <polyline id="Fill-34" points="285.320525 40.4061538 288.610859 40.4061538 288.610859 42.7084615 282.582458 42.7084615 282.582458 32.2538462 285.320525 32.2538462 285.320525 40.4061538"></polyline>
                    <path d="M69.723747,53.7276923 L69.70358,53.7276923 L68.8945704,56.1053846 L70.5234487,56.1053846 L69.723747,53.7276923 Z M68.3531623,57.59 L67.8365752,58.8853846 L65.7601432,58.8853846 L68.6564439,51.4215385 L70.7910501,51.4215385 L73.6276253,58.8853846 L71.5411098,58.8853846 L71.0493437,57.59 L68.3531623,57.59 Z" id="Fill-35"></path>
                    <polyline id="Fill-36" points="74.5847852 51.4215385 76.5394391 51.4215385 80.1268496 55.9846154 80.1477924 55.9846154 80.1477924 51.4215385 82.100895 51.4215385 82.100895 58.8853846 80.1477924 58.8853846 76.5642601 54.3115385 76.5394391 54.3115385 76.5394391 58.8853846 74.5847852 58.8853846 74.5847852 51.4215385"></polyline>
                    <path d="M85.7371718,57.2423077 L86.1816229,57.2423077 C86.4732697,57.2423077 86.7509547,57.2015385 87.0123508,57.1215385 C87.273747,57.0407692 87.5033413,56.9138462 87.6995823,56.7438462 C87.896599,56.5738462 88.0532816,56.3561538 88.1696301,56.0938462 C88.2867542,55.8307692 88.3449284,55.5176923 88.3449284,55.1530769 C88.3449284,54.8184615 88.2921838,54.52 88.1866945,54.2607692 C88.0812053,54.0023077 87.9338305,53.7838462 87.7437947,53.6069231 C87.5529833,53.4292308 87.3272673,53.2946154 87.0658711,53.2030769 C86.8044749,53.1107692 86.5159308,53.0638462 86.2002387,53.0638462 L85.7371718,53.0638462 L85.7371718,57.2423077 Z M83.7832936,51.4215385 L86.5570406,51.4215385 C86.9045346,51.4215385 87.2411695,51.4646154 87.5661695,51.5515385 C87.8911695,51.6384615 88.1952267,51.7623077 88.4798926,51.9215385 C88.7645585,52.0807692 89.022852,52.2738462 89.2571002,52.4992308 C89.4913484,52.7253846 89.6906921,52.9769231 89.8574582,53.2530769 C90.0218974,53.5315385 90.151432,53.8292308 90.2445107,54.1507692 C90.3375895,54.47 90.3825776,54.8046154 90.3825776,55.1530769 C90.3825776,55.5015385 90.3375895,55.8361538 90.2445107,56.1569231 C90.151432,56.4769231 90.0211217,56.7761538 89.8543556,57.0530769 C89.6868138,57.33 89.4859189,57.5815385 89.2516706,57.8069231 C89.0181981,58.0323077 88.7599045,58.2246154 88.4775656,58.3846154 C88.1944511,58.5438462 87.8911695,58.6669231 87.5661695,58.7546154 C87.2411695,58.8415385 86.9045346,58.8853846 86.5570406,58.8853846 L83.7832936,58.8853846 L83.7832936,51.4215385 Z" id="Fill-37"></path>
                    <polyline id="Fill-38" points="99.8564439 50.7338462 99.8564439 52.4807692 102.948986 52.4807692 102.948986 54.7830769 99.8564439 54.7830769 99.8564439 56.5838462 103.11963 56.5838462 103.11963 58.8846154 97.1183771 58.8846154 97.1183771 48.4307692 103.11963 48.4307692 103.11963 50.7338462 99.8564439 50.7338462"></polyline>
                    <polyline id="Fill-39" points="106.196659 48.4315385 108.93395 48.4315385 113.957876 54.8230769 113.9858 54.8230769 113.9858 48.4315385 116.723866 48.4315385 116.723866 58.8853846 113.9858 58.8853846 108.968079 52.4807692 108.93395 52.4807692 108.93395 58.8853846 106.196659 58.8853846 106.196659 48.4315385"></polyline>
                    <polyline id="Fill-40" points="124.268675 54.7830769 126.828341 48.4307692 129.80531 48.4307692 125.306504 58.8861538 123.175776 58.8861538 118.744451 48.4307692 121.729177 48.4307692 124.268675 54.7830769"></polyline>
                    <polygon id="Fill-41" points="131.834427 58.8838462 134.572494 58.8838462 134.572494 48.4307692 131.834427 48.4307692"></polygon>
                    <path d="M140.477566,53.1176923 L140.743616,53.1176923 C140.967005,53.1176923 141.191945,53.1023077 141.419212,53.0730769 C141.647255,53.0430769 141.851253,52.9823077 142.034308,52.89 C142.215036,52.7976923 142.363962,52.6669231 142.477208,52.4976923 C142.591229,52.3269231 142.648628,52.1007692 142.648628,51.8161538 C142.648628,51.5323077 142.591229,51.3046154 142.477208,51.1330769 C142.363962,50.9615385 142.215036,50.8292308 142.034308,50.7361538 C141.851253,50.6438462 141.647255,50.5830769 141.419212,50.5546154 C141.191945,50.5246154 140.967005,50.5092308 140.743616,50.5092308 L140.477566,50.5092308 L140.477566,53.1176923 Z M146.505191,58.8853846 L143.091527,58.8853846 L140.510919,54.8638462 L140.477566,54.8638462 L140.477566,58.8853846 L137.739499,58.8853846 L137.739499,48.4315385 L141.83574,48.4315385 C142.354654,48.4315385 142.838663,48.4946154 143.286217,48.6207692 C143.735322,48.7469231 144.12315,48.9415385 144.450477,49.2030769 C144.77858,49.4653846 145.034547,49.7976923 145.22148,50.2015385 C145.407637,50.6061538 145.501492,51.0876923 145.501492,51.6476923 C145.501492,52.0084615 145.45185,52.3530769 145.35179,52.68 C145.25173,53.0076923 145.10358,53.3015385 144.907339,53.5630769 C144.711874,53.8253846 144.470644,54.0469231 144.183652,54.2276923 C143.897434,54.4069231 143.567005,54.5323077 143.19469,54.5992308 L146.505191,58.8853846 Z" id="Fill-42"></path>
                    <path d="M153.645107,50.7192308 C153.235561,50.7192308 152.851611,50.7953846 152.491706,50.9461538 C152.131802,51.0984615 151.816885,51.3007692 151.545406,51.5561538 C151.275477,51.8107692 151.060621,52.1046154 150.904714,52.4361538 C150.747255,52.7684615 150.668914,53.1146154 150.668914,53.4761538 C150.668914,53.9261538 150.747255,54.3430769 150.904714,54.7246154 C151.060621,55.1061538 151.275477,55.4346154 151.545406,55.7138462 C151.816885,55.9915385 152.131802,56.2061538 152.491706,56.3623077 C152.851611,56.5192308 153.235561,56.5969231 153.645107,56.5969231 C154.054654,56.5969231 154.440931,56.5192308 154.803162,56.3623077 C155.163842,56.2061538 155.479535,55.9915385 155.747912,55.7138462 C156.01784,55.4346154 156.229594,55.1061538 156.387053,54.7246154 C156.543735,54.3430769 156.622076,53.9261538 156.622076,53.4761538 C156.622076,53.1146154 156.543735,52.7684615 156.387053,52.4361538 C156.229594,52.1046154 156.01784,51.8107692 155.747912,51.5561538 C155.479535,51.3007692 155.163842,51.0984615 154.803162,50.9461538 C154.440931,50.7953846 154.054654,50.7192308 153.645107,50.7192308 M153.645107,48.0853846 C154.150835,48.0853846 154.64648,48.1461538 155.130489,48.2661538 C155.615274,48.3853846 156.073687,48.5553846 156.505728,48.7776923 C156.938544,48.9984615 157.336456,49.2676923 157.700239,49.5861538 C158.064797,49.9046154 158.378162,50.2623077 158.639558,50.6623077 C158.90173,51.0615385 159.106504,51.4953846 159.254654,51.9661538 C159.402029,52.4353846 159.476492,52.9330769 159.476492,53.4615385 C159.476492,54.3107692 159.331444,55.0876923 159.042124,55.7938462 C158.752804,56.5007692 158.349463,57.1076923 157.831325,57.6153846 C157.311635,58.1246154 156.695764,58.5192308 155.983711,58.8038462 C155.270883,59.0876923 154.492124,59.2307692 153.645107,59.2307692 C153.081205,59.2307692 152.545227,59.1669231 152.037172,59.0369231 C151.530668,58.9092308 151.060621,58.7253846 150.630907,58.4853846 C150.201193,58.2469231 149.811814,57.9569231 149.46432,57.6153846 C149.11605,57.2746154 148.819749,56.89 148.576193,56.4615385 C148.333413,56.0330769 148.145704,55.5661538 148.013842,55.0630769 C147.881205,54.5607692 147.815274,54.0261538 147.815274,53.4615385 C147.815274,52.9330769 147.889737,52.4353846 148.036337,51.9661538 C148.184487,51.4953846 148.390811,51.0615385 148.65531,50.6623077 C148.919033,50.2623077 149.231623,49.9046154 149.593079,49.5861538 C149.95531,49.2676923 150.352446,48.9984615 150.784487,48.7776923 C151.217303,48.5553846 151.675716,48.3853846 152.160501,48.2661538 C152.645286,48.1461538 153.140155,48.0853846 153.645107,48.0853846" id="Fill-44"></path>
                    <polyline id="Fill-46" points="162.388305 48.4315385 165.126372 48.4315385 170.151074 54.8230769 170.178222 54.8230769 170.178222 48.4315385 172.915513 48.4315385 172.915513 58.8853846 170.178222 58.8853846 165.160501 52.4807692 165.126372 52.4807692 165.126372 58.8853846 162.388305 58.8853846 162.388305 48.4315385"></polyline>
                    <polyline id="Fill-47" points="177.212649 48.4315385 179.909606 48.4315385 182.052745 54.0176923 184.313007 48.4315385 187.044093 48.4315385 188.634964 58.8853846 185.897673 58.8853846 185.125119 52.8653846 185.097971 52.8653846 182.565453 58.8853846 181.479535 58.8853846 179.055609 52.8653846 179.029236 52.8653846 178.148091 58.8853846 175.425537 58.8853846 177.212649 48.4315385"></polyline>
                    <polyline id="Fill-48" points="193.917184 50.7338462 193.917184 52.4807692 197.010501 52.4807692 197.010501 54.7830769 193.917184 54.7830769 193.917184 56.5838462 197.179594 56.5838462 197.179594 58.8846154 191.179117 58.8846154 191.179117 48.4307692 197.179594 48.4307692 197.179594 50.7338462 193.917184 50.7338462"></polyline>
                    <polyline id="Fill-49" points="200.256623 48.4315385 202.995465 48.4315385 208.019391 54.8230769 208.045764 54.8230769 208.045764 48.4315385 210.784606 48.4315385 210.784606 58.8853846 208.045764 58.8853846 203.028819 52.4807692 202.995465 52.4807692 202.995465 58.8853846 200.256623 58.8853846 200.256623 48.4315385"></polyline>
                    <polyline id="Fill-50" points="217.99821 58.8853846 215.260919 58.8853846 215.260919 50.7338462 212.993675 50.7338462 212.993675 48.4315385 220.265453 48.4315385 220.265453 50.7338462 217.99821 50.7338462 217.99821 58.8853846"></polyline>
                    <path d="M226.410203,51.6607692 L226.383055,51.6607692 L225.249821,54.9915385 L227.529475,54.9915385 L226.410203,51.6607692 Z M224.491229,57.07 L223.768317,58.8853846 L220.859606,58.8853846 L224.915513,48.4315385 L227.905668,48.4315385 L231.879356,58.8853846 L228.956683,58.8853846 L228.2679,57.07 L224.491229,57.07 Z" id="Fill-51"></path>
                    <polyline id="Fill-52" points="237.0429 56.5838462 240.33401 56.5838462 240.33401 58.8861538 234.304833 58.8861538 234.304833 48.4307692 237.0429 48.4307692 237.0429 56.5838462"></polyline>
                    <path d="M254.606862,51.1192308 C254.350895,50.9115385 254.069332,50.7446154 253.760621,50.6184615 C253.449582,50.4915385 253.126909,50.4284615 252.790274,50.4284615 C252.662291,50.4284615 252.531205,50.4469231 252.393914,50.4823077 C252.258174,50.5192308 252.130967,50.5738462 252.016169,50.6453846 C251.899045,50.7184615 251.802864,50.8092308 251.728401,50.92 C251.653938,51.0307692 251.615931,51.1576923 251.615931,51.3015385 C251.615931,51.4553846 251.657041,51.5869231 251.73926,51.6946154 C251.820704,51.8030769 251.923866,51.8953846 252.04642,51.9723077 C252.168974,52.0484615 252.300835,52.1138462 252.442005,52.1653846 C252.582399,52.2176923 252.713484,52.2615385 252.831384,52.2969231 L253.527148,52.5076923 C253.89636,52.6161538 254.238425,52.7446154 254.554893,52.8969231 C254.870585,53.0476923 255.146718,53.2361538 255.377864,53.4623077 C255.610561,53.6876923 255.79284,53.9553846 255.92858,54.2646154 C256.061217,54.5730769 256.128699,54.9407692 256.128699,55.3646154 C256.128699,55.6215385 256.112411,55.8807692 256.078282,56.1392308 C256.044153,56.3992308 255.984427,56.6507692 255.900656,56.8946154 C255.81611,57.1384615 255.70364,57.37 255.56247,57.5892308 C255.421301,57.8076923 255.245227,58.0046154 255.0358,58.1807692 C254.622375,58.5292308 254.15543,58.7792308 253.633413,58.9323077 C253.112172,59.0869231 252.582399,59.1630769 252.04642,59.1630769 C251.381683,59.1630769 250.732458,59.0576923 250.101074,58.8476923 C249.468138,58.6376923 248.880967,58.3461538 248.339558,57.9715385 L249.513126,55.7769231 C249.686874,55.9276923 249.866826,56.0669231 250.052208,56.1976923 C250.239141,56.3284615 250.435382,56.4430769 250.638604,56.5430769 C250.845704,56.6415385 251.055131,56.72 251.274642,56.7761538 C251.492601,56.8323077 251.718317,56.8615385 251.951014,56.8615385 C252.110024,56.8615385 252.269809,56.84 252.428819,56.8007692 C252.587053,56.7592308 252.730549,56.6961538 252.854654,56.6107692 C252.981086,56.5238462 253.082697,56.4153846 253.159487,56.2823077 C253.237053,56.1484615 253.27506,55.99 253.27506,55.8053846 C253.27506,55.6153846 253.21611,55.4546154 253.097434,55.3246154 C252.979535,55.1930769 252.834487,55.0807692 252.663067,54.9876923 C252.493198,54.8961538 252.313246,54.8207692 252.120883,54.7615385 C251.930072,54.7038462 251.761754,54.6538462 251.615931,54.6130769 C251.183115,54.4907692 250.792184,54.3638462 250.441587,54.2338462 C250.091766,54.1023077 249.793138,53.93 249.544153,53.7161538 C249.295943,53.5023077 249.10358,53.2315385 248.96784,52.9069231 C248.830549,52.5815385 248.761516,52.1661538 248.761516,51.66 C248.761516,51.1330769 248.851492,50.6523077 249.030668,50.2184615 C249.212172,49.7853846 249.46426,49.4161538 249.786158,49.1115385 C250.109606,48.8076923 250.49278,48.5715385 250.936456,48.4038462 C251.380907,48.2369231 251.866468,48.1538462 252.393914,48.1538462 C252.658413,48.1538462 252.935322,48.1738462 253.226969,48.2146154 C253.51784,48.2553846 253.80716,48.3130769 254.094153,48.3869231 C254.381146,48.4615385 254.661158,48.5523077 254.933413,48.6584615 C255.206444,48.7646154 255.461635,48.8830769 255.698986,49.0138462 L254.606862,51.1192308" id="Fill-53"></path>
                    <path d="M266.25722,51.9384615 C266.116826,51.7484615 265.954714,51.5838462 265.776313,51.4415385 C265.597136,51.2984615 265.403222,51.1792308 265.195346,51.0815385 C264.989021,50.9846154 264.771838,50.9130769 264.543795,50.8623077 C264.317303,50.8123077 264.086158,50.7876923 263.853461,50.7876923 C263.435382,50.7876923 263.053759,50.8623077 262.707816,51.0107692 C262.361098,51.16 262.064797,51.3653846 261.820465,51.6269231 C261.573807,51.8884615 261.382995,52.1953846 261.24648,52.5484615 C261.109964,52.9007692 261.040931,53.28 261.040931,53.6853846 C261.040931,54.1007692 261.109964,54.4815385 261.24648,54.8292308 C261.382995,55.1769231 261.575358,55.4769231 261.825895,55.7269231 C262.076432,55.9769231 262.377387,56.1730769 262.727208,56.3161538 C263.077804,56.4576923 263.467184,56.5284615 263.895346,56.5284615 C264.117959,56.5284615 264.339797,56.5030769 264.560859,56.4515385 C264.781921,56.3984615 264.993675,56.3246154 265.195346,56.2284615 C265.399344,56.1315385 265.590155,56.0138462 265.768556,55.8784615 C265.948508,55.7438462 266.112947,55.59 266.25722,55.4184615 L266.25722,58.6753846 C266.029177,58.7430769 265.816647,58.8069231 265.615752,58.8684615 C265.415632,58.9284615 265.220167,58.9815385 265.02858,59.0238462 C264.837768,59.0669231 264.64463,59.1015385 264.451492,59.1261538 C264.258353,59.1507692 264.055131,59.1630769 263.84105,59.1630769 C263.102625,59.1630769 262.396778,59.0292308 261.71963,58.7630769 C261.044809,58.4976923 260.431265,58.1176923 259.880549,57.6253846 C259.298031,57.1023077 258.870644,56.5076923 258.597613,55.8415385 C258.324582,55.1761538 258.188842,54.4523077 258.188842,53.6715385 C258.188842,52.9546154 258.319928,52.2653846 258.583652,51.6069231 C258.847375,50.9469231 259.234427,50.3615385 259.744809,49.8461538 C260.003878,49.5846154 260.28932,49.3484615 260.597255,49.1384615 C260.906742,48.93 261.234069,48.7507692 261.577685,48.6030769 C261.922076,48.4576923 262.276551,48.3453846 262.645764,48.2684615 C263.014976,48.1923077 263.383413,48.1538462 263.75185,48.1538462 C264.193974,48.1538462 264.619809,48.2 265.02858,48.2930769 C265.438126,48.3853846 265.849224,48.5146154 266.25722,48.6815385 L266.25722,51.9384615" id="Fill-54"></path>
                    <polygon id="Fill-55" points="269.34821 58.8838462 272.087053 58.8838462 272.087053 48.4307692 269.34821 48.4307692"></polygon>
                    <polyline id="Fill-56" points="277.992124 50.7338462 277.992124 52.4807692 281.08389 52.4807692 281.08389 54.7830769 277.992124 54.7830769 277.992124 56.5838462 281.25531 56.5838462 281.25531 58.8846154 275.254057 58.8846154 275.254057 48.4307692 281.25531 48.4307692 281.25531 50.7338462 277.992124 50.7338462"></polyline>
                    <polyline id="Fill-57" points="284.604594 48.4315385 287.342661 48.4315385 292.368138 54.8230769 292.393735 54.8230769 292.393735 48.4315385 295.133353 48.4315385 295.133353 58.8853846 292.393735 58.8853846 287.377566 52.4807692 287.342661 52.4807692 287.342661 58.8853846 284.604594 58.8853846 284.604594 48.4315385"></polyline>
                    <path d="M305.548866,51.9384615 C305.408473,51.7484615 305.247136,51.5838462 305.067959,51.4415385 C304.888783,51.2984615 304.694869,51.1792308 304.486993,51.0815385 C304.281444,50.9846154 304.062709,50.9130769 303.834666,50.8623077 C303.608174,50.8123077 303.37858,50.7876923 303.145883,50.7876923 C302.727804,50.7876923 302.34463,50.8623077 301.998687,51.0107692 C301.652745,51.16 301.356444,51.3653846 301.112112,51.6269231 C300.865453,51.8884615 300.674642,52.1953846 300.538126,52.5484615 C300.401611,52.9007692 300.333353,53.28 300.333353,53.6853846 C300.333353,54.1007692 300.401611,54.4815385 300.538126,54.8292308 C300.674642,55.1769231 300.867005,55.4769231 301.117542,55.7269231 C301.368854,55.9769231 301.669033,56.1730769 302.01963,56.3161538 C302.371002,56.4576923 302.758831,56.5284615 303.186993,56.5284615 C303.410382,56.5284615 303.631444,56.5030769 303.852506,56.4515385 C304.072792,56.3984615 304.284547,56.3246154 304.486993,56.2284615 C304.690215,56.1315385 304.881802,56.0138462 305.060203,55.8784615 C305.240155,55.7438462 305.403819,55.59 305.548866,55.4184615 L305.548866,58.6753846 C305.320048,58.7430769 305.107518,58.8069231 304.906623,58.8684615 C304.706504,58.9284615 304.511038,58.9815385 304.320227,59.0238462 C304.129415,59.0669231 303.936277,59.1015385 303.742363,59.1261538 C303.549224,59.1507692 303.346002,59.1630769 303.132697,59.1630769 C302.394272,59.1630769 301.687649,59.0292308 301.012053,58.7630769 C300.336456,58.4976923 299.722912,58.1176923 299.172971,57.6253846 C298.589678,57.1023077 298.161516,56.5076923 297.888484,55.8415385 C297.615453,55.1761538 297.479714,54.4523077 297.479714,53.6715385 C297.479714,52.9546154 297.6108,52.2653846 297.874523,51.6069231 C298.139021,50.9469231 298.52685,50.3615385 299.03568,49.8461538 C299.295525,49.5846154 299.580191,49.3484615 299.888126,49.1384615 C300.198389,48.93 300.52494,48.7507692 300.868556,48.6030769 C301.212947,48.4576923 301.568974,48.3453846 301.938186,48.2684615 C302.306623,48.1923077 302.674284,48.1538462 303.044272,48.1538462 C303.484845,48.1538462 303.91068,48.2 304.320227,48.2930769 C304.730549,48.3853846 305.140095,48.5146154 305.548866,48.6815385 L305.548866,51.9384615" id="Fill-58"></path>
                    <polyline id="Fill-59" points="311.368616 50.7338462 311.368616 52.4807692 314.461933 52.4807692 314.461933 54.7830769 311.368616 54.7830769 311.368616 56.5838462 314.631026 56.5838462 314.631026 58.8846154 308.630549 58.8846154 308.630549 48.4307692 314.631026 48.4307692 314.631026 50.7338462 311.368616 50.7338462"></polyline>
                    <path d="M323.340871,51.1192308 C323.08568,50.9115385 322.803341,50.7446154 322.493854,50.6184615 C322.184368,50.4915385 321.86247,50.4284615 321.52506,50.4284615 C321.397076,50.4284615 321.265215,50.4469231 321.128699,50.4823077 C320.992184,50.5192308 320.865752,50.5738462 320.750179,50.6453846 C320.634606,50.7184615 320.537649,50.8092308 320.462411,50.92 C320.387947,51.0307692 320.34994,51.1576923 320.34994,51.3015385 C320.34994,51.4553846 320.39105,51.5869231 320.474045,51.6946154 C320.555489,51.8030769 320.6571,51.8953846 320.781205,51.9723077 C320.902983,52.0484615 321.034845,52.1138462 321.176014,52.1653846 C321.317184,52.2176923 321.446718,52.2615385 321.566169,52.2969231 L322.261158,52.5076923 C322.63037,52.6161538 322.97321,52.7446154 323.289678,52.8969231 C323.606146,53.0476923 323.880728,53.2361538 324.111874,53.4623077 C324.34457,53.6876923 324.527625,53.9553846 324.661038,54.2646154 C324.796002,54.5730769 324.863484,54.9407692 324.863484,55.3646154 C324.863484,55.6215385 324.845644,55.8807692 324.811516,56.1392308 C324.778162,56.3992308 324.718437,56.6507692 324.634666,56.8946154 C324.549344,57.1384615 324.437649,57.37 324.29648,57.5892308 C324.15531,57.8076923 323.980012,58.0046154 323.77136,58.1807692 C323.356384,58.5292308 322.889439,58.7792308 322.367422,58.9323077 C321.846957,59.0869231 321.317184,59.1630769 320.781205,59.1630769 C320.116468,59.1630769 319.467243,59.0576923 318.835084,58.8476923 C318.202924,58.6376923 317.614976,58.3461538 317.074344,57.9715385 L318.247912,55.7769231 C318.420883,55.9276923 318.60006,56.0669231 318.786993,56.1976923 C318.97315,56.3284615 319.169391,56.4430769 319.374165,56.5430769 C319.579714,56.6415385 319.790692,56.72 320.009427,56.7761538 C320.227387,56.8323077 320.452327,56.8615385 320.685024,56.8615385 C320.844033,56.8615385 321.003819,56.84 321.162828,56.8007692 C321.321838,56.7592308 321.464558,56.6961538 321.589439,56.6107692 C321.715095,56.5238462 321.815155,56.4153846 321.893496,56.2823077 C321.970286,56.1484615 322.009845,55.99 322.009845,55.8053846 C322.009845,55.6153846 321.950895,55.4546154 321.83222,55.3246154 C321.713544,55.1930769 321.569272,55.0807692 321.397852,54.9876923 C321.227983,54.8961538 321.047255,54.8207692 320.856444,54.7615385 C320.665632,54.7038462 320.495764,54.6538462 320.34994,54.6130769 C319.9179,54.4907692 319.526193,54.3638462 319.176372,54.2338462 C318.825,54.1023077 318.525597,53.93 318.278938,53.7161538 C318.029177,53.5023077 317.837589,53.2315385 317.700298,52.9069231 C317.565334,52.5815385 317.497076,52.1661538 317.497076,51.66 C317.497076,51.1330769 317.586277,50.6523077 317.765453,50.2184615 C317.946181,49.7853846 318.19827,49.4161538 318.520943,49.1115385 C318.844391,48.8076923 319.22679,48.5715385 319.670465,48.4038462 C320.115692,48.2369231 320.601253,48.1538462 321.128699,48.1538462 C321.392422,48.1538462 321.670107,48.1738462 321.961754,48.2146154 C322.252625,48.2553846 322.541945,48.3130769 322.828938,48.3869231 C323.115155,48.4615385 323.395943,48.5523077 323.668198,48.6584615 C323.940453,48.7646154 324.195644,48.8830769 324.432995,49.0138462 L323.340871,51.1192308" id="Fill-60"></path>
                </g>
                <g id="Research-Impact">
                    <use fill="black" fill-opacity="1" filter="url(#filter-3)" xlink:href="#path-2"></use>
                    <use fill-opacity="0.98" fill="#FFFFFF" fill-rule="evenodd" xlink:href="#path-2"></use>
                </g>
                <g id="Agricultural-Experim">
                    <use fill="black" fill-opacity="1" filter="url(#filter-5)" xlink:href="#path-4"></use>
                    <use fill-opacity="0.98" fill="#FFFFFF" fill-rule="evenodd" xlink:href="#path-4"></use>
                </g>
            </g>
        </g>
    </g>
</svg>