<?xml version="1.0" encoding="UTF-8"?>
<svg width="78px" height="78px" viewBox="0 0 78 78" version="1.1" xmlns="http://www.w3.org/2000/svg" xmlns:xlink="http://www.w3.org/1999/xlink">
    <!-- Generator: Sketch 48.2 (47327) - http://www.bohemiancoding.com/sketch -->
    <title>orangetopic</title>
    <desc>Created with Sketch.</desc>
    <defs>
        <polygon id="path-1" points="4.29901215e-05 0.623858333 42.4311458 0.623858333 42.4311458 37.625 4.29901215e-05 37.625"></polygon>
        <polygon id="path-3" points="0.343283333 0.84925 16.9412833 0.84925 16.9412833 8.80144688 0.343283333 8.80144688"></polygon>
    </defs>
    <g id="phase2" stroke="none" stroke-width="1" fill="none" fill-rule="evenodd" transform="translate(-175.000000, -871.000000)">
        <g id="topics" transform="translate(0.000000, 785.000000)">
            <g id="items" transform="translate(177.000000, 78.000000)">
                <g id="orangetopic" transform="translate(0.000000, 10.000000)">
                    <g id="orange" transform="translate(18.000000, 14.000000)">
                        <g id="Group-3" transform="translate(0.000000, 4.525660)">
                            <mask id="mask-2" fill="white">
                                <use xlink:href="#path-1"></use>
                            </mask>
                            <g id="Clip-2"></g>
                            <path d="M15.0679167,7.01025417 C14.7776667,5.08331667 14.1255,3.38750417 12.8265417,1.95237917 C12.7423333,1.86010833 12.5792917,1.79023333 12.5640625,1.69348333 C12.5067292,1.340525 12.496875,0.9804 12.4682083,0.623858333 C12.8274375,0.673129167 13.3067083,0.597879167 13.5252917,0.792275 C15.1377917,2.2247125 15.8625208,4.114025 16.34,6.11442083 C16.4107708,6.41094167 16.4806458,6.70656667 16.5612708,7.048775 C19.9376667,7.274525 23.021125,8.26800417 25.6539792,10.316775 C29.9423333,13.6555458 31.9525833,18.0012333 31.7196667,23.3126292 C31.6883125,24.0364625 31.2645833,24.0642333 30.702,24.0633375 C26.4808333,24.055275 22.2587708,24.0579625 18.0376042,24.0588583 C16.7502917,24.0597542 16.727,24.0848375 16.7296875,25.2798792 C16.7386458,30.1514208 20.9822083,35.1107542 26.095625,36.2278583 C33.0965625,37.7570458 39.6701875,33.7365458 41.1895208,26.990025 C41.2701458,26.6316917 41.2244583,26.2312542 41.371375,25.9069625 C41.5012708,25.6229833 41.8192917,25.4196292 42.0548958,25.1804417 C42.1865833,25.452775 42.478625,25.7582542 42.424875,25.9911708 C42.1229792,27.2999833 41.9035,28.6598583 41.3543542,29.8772958 C38.3792917,36.4670458 30.4610208,39.4026917 23.6329792,36.493025 C22.9906667,36.2189 22.4872083,36.2341292 21.849375,36.4840667 C12.3042708,40.2196917 1.69491667,34.3985667 0.180958333,24.614275 C-1.13770833,16.0975875 4.8885625,8.4059625 13.8119583,7.2127125 C14.1882083,7.16254583 14.5617708,7.09267083 15.0679167,7.01025417" id="Fill-1" fill="#ED8B00" mask="url(#mask-2)"></path>
                        </g>
                        <g id="Group-6" transform="translate(16.125000, 0.046494)">
                            <mask id="mask-4" fill="white">
                                <use xlink:href="#path-3"></use>
                            </mask>
                            <g id="Clip-5"></g>
                            <path d="M16.9412833,1.23777292 C16.1986375,4.06950208 14.1973458,5.64527292 11.7248458,6.78835625 C8.91909583,8.08462708 5.9001375,8.54329375 2.83549167,8.77262708 C2.04715833,8.83175208 1.24897083,8.78158542 0.343283333,8.78158542 C0.613825,7.00604375 1.38692917,5.46521042 2.63124167,4.15639792 C4.688075,1.99385625 7.39349167,1.08816875 10.3192833,0.891085417 C12.28295,0.759397917 14.2717,0.973502083 16.2488042,1.04696042 C16.4575333,1.05502292 16.6626792,1.15804375 16.9412833,1.23777292" id="Fill-4" fill="#ED8B00" mask="url(#mask-4)"></path>
                        </g>
                        <path d="M28.5685729,35.1210563 C28.5676771,36.2265146 28.5775313,37.3319729 28.5649896,38.4365354 C28.5524479,39.5330354 28.2362188,39.8197021 27.0976146,39.6593479 C25.4304688,39.4255354 23.9272604,38.7778479 22.5745521,37.8202021 C21.9232813,37.3606396 21.9044688,36.7971604 22.4580938,36.2578688 C24.1861563,34.5772854 25.9267604,32.9083479 27.6772188,31.2501604 C27.8357813,31.1005563 28.1063229,31.0593479 28.3249063,30.9679729 C28.4064271,31.1856604 28.5533438,31.4024521 28.5578229,31.6210354 C28.5811146,32.7874104 28.5694688,33.9546813 28.5685729,35.1210563" id="Fill-7" fill="#ED8B00"></path>
                        <path d="M29.5870458,30.7136458 C30.0949833,31.0334583 30.4049417,31.1669375 30.6315875,31.3819375 C32.2655875,32.9299375 33.8906292,34.4868958 35.504025,36.0563958 C36.3219208,36.8518958 36.2762333,37.3535625 35.3347125,37.9770625 C33.9542333,38.8917083 32.44565,39.5080417 30.7650667,39.6916875 C30.0770667,39.7669375 29.6031708,39.5080417 29.5969,38.8155625 C29.5727125,36.21675 29.5870458,33.6179375 29.5870458,30.7136458" id="Fill-9" fill="#ED8B00"></path>
                        <path d="M35.2952063,29.6924854 C36.4777063,29.6915896 37.6611021,29.7014437 38.8436021,29.6889021 C39.7036021,29.6790479 40.0789563,30.0552979 39.9732479,30.8848396 C39.7555604,32.6030479 39.0388938,34.1295479 37.9907688,35.5091313 C37.5509146,36.0869438 36.9363729,36.0654438 36.4176854,35.5736313 C34.6412479,33.8921521 32.8818313,32.1936521 31.1295813,30.4888812 C30.9916229,30.3545063 30.9629563,30.1171104 30.8832271,29.9271938 C31.1071854,29.8492562 31.3302479,29.7077146 31.5551021,29.7041312 C32.8012063,29.6817354 34.0482062,29.6933812 35.2952063,29.6924854" id="Fill-11" fill="#ED8B00"></path>
                        <path d="M22.9573417,29.6928438 C24.1407375,29.6919479 25.3250292,29.6785104 26.5075292,29.7035938 C26.7592583,29.7089688 27.0065083,29.8558854 27.2564458,29.9383021 C27.14805,30.1461354 27.0853417,30.3996563 26.9231958,30.5573229 C25.2112583,32.2164063 23.4948417,33.8719063 21.756925,35.5041146 C21.0778833,36.1419479 20.4624458,36.1383646 20.0414042,35.3249479 C19.2969667,33.8853438 18.6698833,32.3794479 18.1386542,30.8547396 C17.8923,30.1479271 18.4208417,29.7018021 19.21455,29.6955313 C20.4624458,29.6865729 21.7094458,29.6937396 22.9573417,29.6928438" id="Fill-13" fill="#ED8B00"></path>
                    </g>
                    <circle id="Oval-2" stroke="#ED8B00" stroke-width="3.2" cx="37" cy="37" r="37"></circle>
                </g>
            </g>
        </g>
    </g>
</svg>