<?xml version="1.0" encoding="UTF-8"?>
<svg width="78px" height="78px" viewBox="0 0 78 78" version="1.1" xmlns="http://www.w3.org/2000/svg" xmlns:xlink="http://www.w3.org/1999/xlink">
    <!-- Generator: Sketch 48.2 (47327) - http://www.bohemiancoding.com/sketch -->
    <title>pinktopic</title>
    <desc>Created with Sketch.</desc>
    <defs>
        <polygon id="path-1" points="0 0 33 0 33 35 0 35"></polygon>
    </defs>
    <g id="phase2" stroke="none" stroke-width="1" fill="none" fill-rule="evenodd" transform="translate(-337.000000, -871.000000)">
        <g id="topics" transform="translate(0.000000, 785.000000)">
            <g id="items" transform="translate(177.000000, 78.000000)">
                <g id="pinktopic" transform="translate(162.000000, 10.000000)">
                    <circle id="Oval-2" stroke="#C6007E" stroke-width="3.2" cx="37" cy="37" r="37"></circle>
                    <g id="brain-icon" transform="translate(21.000000, 20.000000)">
                        <mask id="mask-2" fill="white">
                            <use xlink:href="#path-1"></use>
                        </mask>
                        <g id="Clip-2"></g>
                        <path d="M21.5528675,35 L6.95126683,35 C6.33723206,34.6666387 6.13693977,34.1567057 6.15813858,33.4599439 C6.20126722,32.0598263 6.19615026,30.656778 6.16106256,29.2566604 C6.10185206,26.9333883 5.62305114,24.805737 3.98050813,22.9601607 C2.89790635,21.744674 2.02948575,20.2712902 1.33284868,18.787649 C-1.37986922,13.0106069 0.125246966,6.74854243 5.1464432,2.95408447 C8.40740643,0.490141222 12.1632524,-0.303332029 16.201262,0.0996322261 C20.9563766,0.575130047 24.7655851,2.7167019 27.477572,6.65769231 C29.3123664,9.32458301 30.3898512,12.2552321 29.7955533,15.5844495 C29.5302025,17.0680907 29.9205532,18.3487843 30.9278626,19.455837 C31.4856109,20.0683427 32.0448211,20.6801157 32.5879495,21.3058093 C33.3233292,22.1513016 33.0499376,23.0143777 31.9629498,23.2905914 C31.6135348,23.3792436 31.2568098,23.4459158 30.9000849,23.5001328 C30.3935062,23.5770624 30.1727461,23.8005244 30.181518,24.3683376 C30.2027168,25.7164362 30.1340034,27.0660002 30.1106116,28.4148314 C30.0879508,29.6984557 29.475378,30.4838697 28.2019868,30.6267388 C27.364268,30.7205196 26.5046193,30.6604413 25.6566665,30.6172142 C23.4534513,30.5051169 22.4439489,31.3557378 22.3518437,33.5302795 C22.3240659,34.1926062 22.1113467,34.6695693 21.5528675,35 M9.72100224,4.88025361 C9.57480349,4.84655115 9.47758131,4.82457128 9.38035914,4.80185875 C7.85404414,4.44065624 6.21881107,5.13009145 5.76559493,6.43349765 C5.53094593,7.10827961 5.37158928,7.7339732 4.73781768,8.2021444 C4.45273011,8.41315113 4.24001092,9.02199349 4.32115123,9.37367138 C4.51925054,10.225025 4.15667763,10.8192141 3.77144391,11.496194 C2.76194151,13.2692367 3.07334486,15.0906352 4.52729147,16.4614463 C4.62085868,16.5500984 4.69907501,16.7061555 4.70272998,16.8329061 C4.75974749,18.7642038 5.53167692,19.3767095 7.52655893,19.0074477 C7.79775762,19.8580686 8.47465786,20.2280631 9.3036048,20.3899814 C9.68299056,20.4632477 10.0711483,20.5987902 10.4461481,20.5724144 C11.7239252,20.4808316 12.4783108,20.9065084 12.4710008,22.3198139 C12.4695388,22.4897915 12.8299188,22.7374314 13.0660298,22.8150936 C13.4424915,22.9396462 13.6690996,22.7301048 13.7845966,22.3322692 C14.0002398,21.5893496 14.3087192,20.8728059 14.5038945,20.1254904 C14.8650054,18.7451546 15.7889816,18.0835606 17.1347411,17.8630292 C18.1332786,17.6989129 18.9636875,17.2285437 19.6515527,16.4585156 C20.5433651,15.4591643 21.602575,14.7213734 22.9497966,14.4033979 C24.0353223,14.1476988 24.2933631,13.7491305 24.4022812,12.6127713 C25.6493566,12.0185822 26.075526,11.1672286 25.5726022,9.85209985 C25.3079825,9.159734 24.7502342,8.58019813 24.3204099,7.95303922 C23.7407318,7.10754695 23.0302059,6.46426946 22.1837151,5.82905127 C21.2085694,5.09712165 20.3693885,4.56667416 19.1574009,4.6436037 C18.9249449,4.65825694 18.5974596,4.55788221 18.4571088,4.39010255 C17.8277232,3.63619306 17.0740686,3.47940333 16.1574024,3.71019195 C15.8730458,3.78126019 15.498046,3.76294363 15.2436602,3.63106442 C14.3101812,3.1497053 13.4256787,3.16509121 12.5133985,3.67355883 C12.2882524,3.79957675 11.979042,3.87504096 11.7297731,3.83620986 C10.8291888,3.69627137 10.1522886,3.94977251 9.72100224,4.88025361" id="Fill-1" fill="#C6007E" mask="url(#mask-2)"></path>
                    </g>
                </g>
            </g>
        </g>
    </g>
</svg>