<?xml version="1.0" encoding="UTF-8"?>
<svg width="78px" height="78px" viewBox="0 0 78 78" version="1.1" xmlns="http://www.w3.org/2000/svg" xmlns:xlink="http://www.w3.org/1999/xlink">
    <!-- Generator: Sketch 48.2 (47327) - http://www.bohemiancoding.com/sketch -->
    <title>redtopic</title>
    <desc>Created with Sketch.</desc>
    <defs></defs>
    <g id="phase2" stroke="none" stroke-width="1" fill="none" fill-rule="evenodd" transform="translate(-661.000000, -871.000000)">
        <g id="topics" transform="translate(0.000000, 785.000000)">
            <g id="items" transform="translate(177.000000, 78.000000)">
                <g id="redtopic" transform="translate(486.000000, 10.000000)">
                    <circle id="Oval-2" stroke="#BA0C2F" stroke-width="3.2" cx="37" cy="37" r="37"></circle>
                    <path d="M14.4782609,31.3451448 L14.4782609,30.9157441 C14.7504528,30.5038833 15.1018987,30.1680284 15.5137595,29.8990846 C16.3569698,29.3488541 17.0624601,28.660254 17.6679084,27.8657655 C17.8816343,27.5864277 18.0973091,27.3083892 18.3045387,27.024504 C18.6436418,26.5587245 19.1256618,26.2676935 19.6011857,25.9682175 C19.7239644,25.8909124 19.8447942,25.8116584 19.9942074,25.7155142 C19.7382561,25.7155142 19.5303768,25.719412 19.3231472,25.7148646 C18.7898069,25.7044706 18.2512697,25.7337037 17.7250752,25.6680918 C17.0683067,25.5862393 16.6402053,25.113314 16.5531559,24.4909754 C16.5187258,24.2460676 16.6265632,24.1401791 16.8617266,24.221382 C17.0507669,24.2869939 17.2333108,24.3805395 17.403512,24.4851288 C17.6523175,24.6377901 17.9147651,24.7021028 18.2057961,24.6969058 C19.142552,24.6800156 20.0149954,24.3733937 20.90238,24.1304348 L21.5097772,24.1304348 C21.9469733,24.2512646 22.2146179,24.5520399 22.3997604,24.9437624 C22.4367889,25.0210675 22.4868098,25.092526 22.5361811,25.1626853 C22.7518559,25.4667087 22.9162104,25.5310214 23.2793495,25.4413734 C23.4190184,25.4069434 23.5573881,25.3614698 23.6886119,25.3036534 C23.9978323,25.1659334 24.303155,25.0204179 24.6084776,24.8736032 C24.819605,24.7716124 24.9670694,24.8092905 25.0619143,24.9970315 C25.2905815,25.4517674 25.0547685,26.1039886 24.5902882,26.3040724 C24.4973922,26.3436994 24.3986495,26.3781294 24.3180963,26.4352962 C24.2407912,26.4905141 24.1836244,26.5723666 24.1173629,26.6425259 C24.1920695,26.7035904 24.2570317,26.7919391 24.3427819,26.8211721 C25.7297265,27.2999441 27.1446048,27.5364067 28.6010589,27.1934059 C29.6164192,26.9536951 30.6200863,26.9296591 31.6490887,27.1271444 C32.8892185,27.3649063 34.138443,27.566939 35.3909156,27.7247973 C36.9656011,27.9235819 38.5532791,27.9092902 40.13576,27.8508241 C42.0638403,27.7800153 43.9912709,27.6741267 45.9167526,27.5461511 C47.162729,27.4629994 48.4035084,27.2992944 49.6481856,27.196654 C50.3738142,27.1368888 51.1085375,27.0550363 51.8289691,27.1122031 C52.6325524,27.1752165 53.4302891,27.3161846 54.2423175,27.3220312 C54.4521456,27.3239801 54.692506,27.4090807 54.8659553,27.5305601 C55.7734782,28.1652415 56.4036123,29.006503 56.7186793,30.0712346 C57.161722,31.5705639 57.0902635,33.0991261 56.994769,34.628338 C56.9577405,35.2201443 56.8719903,35.8100018 56.8557497,36.4018081 C56.8369106,37.1053495 57.0727237,37.7179437 57.6294504,38.1934675 C57.9185325,38.4409738 58.1978703,38.704071 58.4570697,38.9821095 C58.9969062,39.561573 59.0573211,40.0812712 58.7071745,40.7874111 C58.6578031,40.887453 58.6188258,41.0037354 58.6175265,41.1135217 C58.6136288,41.3629768 58.6324679,41.6130816 58.6474092,41.8625367 C58.6675475,42.2042382 58.7104226,42.5459398 58.7091233,42.8876413 C58.7078241,43.1708769 58.5714033,43.2676706 58.2868686,43.2364887 C57.9074889,43.1942633 57.6638804,42.9662457 57.545649,42.6277923 C57.4547019,42.3672935 57.3754479,42.089255 57.3657035,41.8164135 C57.3410179,41.1109232 57.1019567,40.4924824 56.6978914,39.9227632 C56.5153474,39.6655126 56.3483944,39.3972184 56.1781932,39.1315227 C55.999547,38.852185 55.9118479,38.5436142 55.9287381,38.2136058 C55.9514749,37.7783586 56.0021454,37.3444106 56.0144883,36.9091634 C56.0638596,35.2240421 55.9748613,33.5480154 55.6201673,31.8947256 C55.5090818,31.3789251 55.3700625,30.8689713 55.2193501,30.3629152 C55.1745261,30.213502 55.0459008,30.0881248 54.9556032,29.951704 C54.9367642,29.9627476 54.9185747,29.9731416 54.9003853,29.9841852 C54.9029838,30.0251114 54.9010349,30.0679865 54.9101296,30.1076135 C55.0725353,30.824797 55.2167516,31.5465278 55.4031933,32.2572151 C55.7345009,33.5161839 55.6682394,34.7758024 55.4824473,36.0451652 C55.3687633,36.822114 55.2992537,37.605559 55.2251967,38.3877047 C55.166081,39.0145907 55.3635663,39.5557264 55.8280466,39.9981195 C55.9417305,40.1066065 56.0333273,40.2384799 56.1281723,40.3645067 C56.3561898,40.670479 56.4256995,41.014779 56.33865,41.3818159 C56.2840817,41.6104831 56.2100247,41.8359022 56.1281723,42.0567739 C55.8962569,42.6869079 55.772179,43.3352314 55.7474933,44.0062917 C55.7150122,44.8969244 55.8209007,45.7771632 55.9560222,46.6535043 C56.0359258,47.1673559 56.1632519,47.6747112 56.2554983,48.1872635 C56.3029208,48.4510104 56.319811,48.7271 56.0813994,48.9226365 C55.8377909,49.1227203 55.7682813,49.3741243 55.8040105,49.6697026 C55.8202511,49.8048241 55.841039,49.939296 55.8520826,50.0744175 C55.8975562,50.6441367 55.7598362,50.8266807 55.1959636,50.9715465 C54.4872253,51.1521416 53.7648448,51.1683822 53.0418147,51.1307041 C52.8014543,51.1177116 52.5558969,51.0520997 52.3298282,50.9656999 C52.071928,50.8682565 52.0556874,50.7032523 52.2720118,50.5395474 C52.5182188,50.3524561 52.7748197,50.1777076 53.03272,50.0068568 C53.466668,49.7184243 53.7687425,49.3312492 53.8661859,48.8245434 C53.9636293,48.3204362 54.0350878,47.8091831 54.0818607,47.2985796 C54.1909973,46.0954784 54.0149495,44.9300552 53.5335791,43.8172515 C53.3218021,43.3287352 53.0450628,42.8791962 52.6559388,42.4874737 C52.6215088,42.5342466 52.5929254,42.5654285 52.5727871,42.6005081 C51.7042415,44.0822975 51.0864503,45.6446402 50.9350882,47.3700381 C50.8798703,48.0027707 50.7298074,48.5971755 50.0275652,48.8830095 C49.8865971,48.9408259 49.7813582,49.1766389 49.7345854,49.3500882 C49.6709224,49.5878501 49.6787178,49.8444511 49.6546818,50.1049498 C49.5903692,50.12184 49.5221588,50.145876 49.4519995,50.1569196 C48.8179677,50.25956 48.1852352,50.3758425 47.5479553,50.4550965 C47.2289905,50.4947235 46.8996318,50.4908257 46.5787182,50.4602934 C46.3019789,50.4343085 46.2591038,50.3121795 46.4325531,50.0880596 C46.6040535,49.8678375 46.7865975,49.6495643 46.9970752,49.4676699 C47.6752814,48.8843087 48.266438,48.24508 48.6081396,47.40122 C48.8952728,46.6924816 49.232427,46.0032319 49.5247573,45.2957928 C49.7495267,44.7507593 49.8424228,44.1816898 49.6852141,43.5963797 C49.6046609,43.296254 49.4279635,43.2040076 49.1310859,43.2995021 C48.8199166,43.399544 48.67635,43.6379556 48.5568194,43.9224903 C48.3814213,44.3408474 48.1936803,44.3720293 47.8305412,44.0991877 C47.6473476,43.9621173 47.4654532,43.8003613 47.2562747,43.7237058 C46.8671507,43.5807888 46.6215933,43.6139195 46.434502,43.9452271 C46.4098163,43.9887519 46.3766855,44.0270796 46.3461533,44.0673562 C46.2344182,44.2141709 46.0928004,44.3083662 45.8998625,44.2654911 C45.7134207,44.2239153 45.5815473,44.0946404 45.5594601,43.9146949 C45.5172347,43.5645482 45.2775239,43.3923982 45.0144267,43.2131023 C44.5570923,42.9012834 44.0919624,42.5940119 43.6723061,42.2367194 C43.4092089,42.0125995 43.147411,41.9339952 42.8225996,41.9716733 C42.5854873,41.9989575 42.348375,42.0314386 42.1106131,42.0346867 C41.1556677,42.0463799 40.2325538,41.8313548 39.3081407,41.6332199 C38.46558,41.4526247 37.6210704,41.2986642 36.7525249,41.3564806 C35.5786566,41.4337857 35.0134848,41.9041125 34.8010582,43.0461493 C34.7107606,43.528819 34.6906223,44.0251307 34.6600901,44.5162455 C34.6354044,44.9157635 34.651645,45.3172303 34.6334555,45.7173979 C34.5892812,46.6749418 34.5132753,47.6318361 34.9699601,48.5354613 C35.0518126,48.6965677 35.0472652,48.9109432 35.0440171,49.0999835 C35.0401194,49.2942207 34.932282,49.4436339 34.7166072,49.4644218 C34.4372695,49.4923556 34.3151404,49.6619071 34.2768127,49.9146104 C34.2592728,50.0276447 34.241733,50.1406791 34.2287406,50.2537134 C34.1930113,50.5622842 34.0280072,50.7753605 33.7343777,50.8715046 C33.5648262,50.9273722 33.3835814,50.9585541 33.2055848,50.9747946 C32.7021272,51.018969 32.1973703,51.0559975 31.6926135,51.0839313 C31.4412095,51.098223 31.1865574,51.1014711 30.9351534,51.0806831 C30.8338122,51.0722381 30.7383177,50.9864879 30.6402246,50.9364669 C30.6973914,50.8429212 30.7357192,50.7292373 30.8143235,50.6597276 C31.0196043,50.4797821 31.2385272,50.3141283 31.4593989,50.1523723 C32.0778397,49.6995852 32.4728104,49.1038812 32.6469092,48.3633113 C32.8275044,47.594158 32.8411464,46.8172092 32.7346083,46.0389612 C32.635216,45.3191792 32.4052496,44.6318784 32.1687869,43.9250888 C32.1291599,43.9673143 32.1064231,43.9848541 32.0914818,44.0082405 C31.4496546,45.0028129 31.0702749,46.0818363 31.0072615,47.2673978 C30.9786781,47.8156793 30.9351534,48.3639609 30.8799354,48.9102936 C30.8571986,49.1350631 30.7318214,49.2896733 30.4700235,49.2942207 C30.2764359,49.2974688 30.1666497,49.4118024 30.1361174,49.5982441 C30.1101325,49.7606498 30.0821987,49.9224058 30.0640093,50.0854611 C30.0393236,50.3167268 29.9217419,50.4440529 29.6833304,50.476534 C28.8336238,50.5934661 27.9852166,50.5304527 27.1290138,50.4986212 C27.0601538,50.0952055 27.225158,49.8106707 27.5330791,49.6034411 C27.7533013,49.4553271 27.9897639,49.3286507 28.2268762,49.2071712 C28.6380874,48.9953942 28.9200237,48.6770791 29.0733346,48.2457296 C29.4579113,47.1647574 29.4994871,46.0623476 29.2578275,44.9495439 C29.0752835,44.1108809 28.8687035,43.277415 28.9226222,42.4075701 C28.934965,42.208136 28.8082886,42.094452 28.6224965,42.0795107 C28.299634,42.0535258 27.974173,42.0457303 27.6500112,42.0418326 C27.3810674,42.0385844 27.1601957,41.9456884 26.9692066,41.7605459 C26.6768764,41.47796 26.5417549,41.118069 26.4579535,40.7380397 C26.3033433,40.0370968 26.1324926,39.3387524 25.7420693,38.7268078 C25.3334566,38.0862798 24.8917132,37.4665397 24.4532178,36.84615 C23.9146806,36.0847922 23.3871869,35.3143396 22.8129204,34.5796163 C21.9521703,33.4778562 20.8133817,32.9951865 19.3926568,33.1225125 C18.5955697,33.1933214 17.7893879,33.2037154 16.9897023,33.1790297 C16.5349664,33.164738 16.077632,33.0484556 15.6339397,32.9321731 C15.2863915,32.8412259 15.0369364,32.6021647 14.894669,32.2591639 C14.7666934,31.9505931 14.6179298,31.6498178 14.4782609,31.3451448" id="Fill-1" fill="#BA0C2F"></path>
                </g>
            </g>
        </g>
    </g>
</svg>