<?xml version="1.0" encoding="UTF-8"?>
<svg width="533px" height="118px" viewBox="0 0 533 118" version="1.1" xmlns="http://www.w3.org/2000/svg" xmlns:xlink="http://www.w3.org/1999/xlink">
    <!-- Generator: Sketch 49.1 (51147) - http://www.bohemiancoding.com/sketch -->
    <title>research-logo</title>
    <desc>Created with Sketch.</desc>
    <defs>
        <filter x="-1.3%" y="-4.5%" width="102.7%" height="112.6%" filterUnits="objectBoundingBox" id="filter-1">
            <feOffset dx="0" dy="2" in="SourceAlpha" result="shadowOffsetOuter1"></feOffset>
            <feGaussianBlur stdDeviation="2" in="shadowOffsetOuter1" result="shadowBlurOuter1"></feGaussianBlur>
            <feColorMatrix values="0 0 0 0 0   0 0 0 0 0   0 0 0 0 0  0 0 0 0.5 0" type="matrix" in="shadowBlurOuter1" result="shadowMatrixOuter1"></feColorMatrix>
            <feMerge>
                <feMergeNode in="shadowMatrixOuter1"></feMergeNode>
                <feMergeNode in="SourceGraphic"></feMergeNode>
            </feMerge>
        </filter>
    </defs>
    <g id="Page-1" stroke="none" stroke-width="1" fill="none" fill-rule="evenodd">
        <g id="phase4" transform="translate(-434.000000, -183.000000)" fill="#FFFFFF">
            <g id="research-logo" filter="url(#filter-1)" transform="translate(438.000000, 185.000000)">
                <path d="M18.4715385,17.8863855 C18.4715385,15.9545542 18.0653846,15.3445022 18.0653846,14.6327749 C18.0653846,13.6244945 19.2838462,12.9127672 20.7053846,12.9127672 C24.0476923,12.9127672 26.3830769,14.9378009 26.3830769,17.3780089 L26.3830769,50.6088966 C34.1,49.1854419 47.19,42.178317 47.19,25.0036588 C47.19,17.2763335 42.2146154,7.62564991 30.3430769,7.62564991 C14.7146154,7.62564991 7.71692308,18.9031388 7.71692308,30.7906798 C7.71692308,39.738109 11.3638462,42.8900443 11.5669231,43.1865973 C12.6838462,42.8900443 13.09,43.6017716 13.09,44.610052 C13.09,46.440208 10.3484615,53.1507799 7.40384615,50.9139226 C5.77923077,49.3887926 0,43.2967456 0,31.4007318 C0,12.5992682 12.1761538,0 30.2415385,0 C45.0576923,0 55,10.3708839 55,24.8003081 C55,38.6196803 46.3776923,49.3887926 35.7246154,54.3708839 C45.7684615,60.1579049 44.55,73.8756018 51.4461538,81.297901 C51.9623077,81.907953 53.3753846,81.907953 53.3753846,82.7213557 C53.3753846,84.653187 48.1038462,88 46.4792308,88 C45.9715385,88 45.5653846,87.7966493 45.1592308,87.398421 C35.2169231,76.120932 40.1838462,61.2763335 26.3830769,57.5228192 L26.3830769,71.6472174 C26.3830769,73.3672251 25.0630769,73.98575 23.5484615,73.98575 C21.2130769,73.98575 18.4715385,72.5622954 18.4715385,71.0286925 L18.4715385,17.8863855 Z" id="Fill-1"></path>
                <path d="M61.2767853,54.697439 C66.2628006,52.3960691 69.4455403,47.2013103 69.4455403,41.1977367 C69.4455403,38.9964264 68.6560879,37.6956522 67.3514139,37.6956522 C62.473429,37.6956522 60.9776244,48.6938654 61.177065,52.8963669 C61.177065,53.4967242 61.2767853,54.0970816 61.2767853,54.697439 M62.473429,60.2007147 C63.8695133,63.5944014 66.5619615,66.3960691 71.7391073,66.3960691 C79.5172911,66.3960691 82.7083409,59.900536 83.9049846,53.7969029 C84.8024673,49.2942228 90.3784944,51.2954139 89.9796132,54.7974985 C89.281571,60.9011316 85.3010688,73 70.642184,73 C61.5759462,73 53,65.6956522 53,53.1965456 C53,40.4973198 60.5787432,31 68.2488967,31 C73.8332338,31 77.2237241,35.0941036 77.2237241,41.0976772 C77.2237241,48.4937463 72.1379886,57.2989875 62.473429,60.2007147" id="Fill-3"></path>
                <path d="M84.1967234,54.2994441 C85.2081823,49.84974 87.332246,44.093778 89.152872,38.7339071 C88.1414131,37.2169625 87.5345378,35.7000179 87.5345378,33.9808141 C87.5345378,30.5508338 93.3925706,26 96.1235097,26 C98.551011,26 99.7647617,27.811906 99.7647617,30.5508338 C99.7647617,33.4751659 97.4384062,36.812444 97.3372603,37.4192218 C102.091117,45.8045544 108.252588,49.4452214 108.252588,59.0441097 C108.252588,60.2660929 108.058725,61.5723507 107.746858,62.6847768 C112.500715,61.6734804 114.928216,58.6480186 116.040821,55.4118702 C116.748843,53.490407 117.456864,52.6813699 118.367177,52.6813699 C120.086657,52.6813699 122,55.3107405 122,56.7265555 C122,58.7407208 119.682073,62.5836471 117.355718,64.5051103 C114.220195,67.0333513 110.073214,68.9548144 103.810597,69.359333 C101.383096,71.4830554 98.0452816,73 93.8983001,73 C89.6501727,73 84.8035987,70.6740183 82.7806809,68.7525551 C77.8329611,63.9994621 80.5554713,58.6480186 82.7806809,58.6480186 C84.8035987,58.6480186 94.0078748,64.5051103 99.0567405,64.5051103 C100.169345,63.190425 101.28195,60.8644432 101.28195,58.3362023 C101.28195,51.9734624 97.5395521,47.7260176 94.0078748,44.093778 C92.3895405,48.0294065 91.3780816,51.4678142 90.063185,56.3220369 C88.9505802,60.5694818 83.3875563,57.7378519 84.1967234,54.2994441" id="Fill-5"></path>
                <path d="M122.276785,54.697439 C127.262801,52.3960691 130.44554,47.2013103 130.44554,41.1977367 C130.44554,38.9964264 129.656088,37.6956522 128.351414,37.6956522 C123.473429,37.6956522 121.977624,48.6938654 122.177065,52.8963669 C122.177065,53.4967242 122.276785,54.0970816 122.276785,54.697439 M123.473429,60.2007147 C124.869513,63.5944014 127.561962,66.3960691 132.739107,66.3960691 C140.517291,66.3960691 143.708341,59.900536 144.904985,53.7969029 C145.802467,49.2942228 151.378494,51.2954139 150.979613,54.7974985 C150.281571,60.9011316 146.301069,73 131.642184,73 C122.575946,73 114,65.6956522 114,53.1965456 C114,40.4973198 121.578743,31 129.248897,31 C134.833234,31 138.223724,35.0941036 138.223724,41.0976772 C138.223724,48.4937463 133.137989,57.2989875 123.473429,60.2007147" id="Fill-7"></path>
                <path d="M182.04227,55.597975 C182.446184,53.4967242 183.447554,52.5961882 184.465753,52.5961882 C186.072994,52.5961882 188,54.7974985 188,56.6986301 C188,56.7986897 188,56.9988088 187.890607,57.3990471 C186.182387,63.9946397 182.143249,73 173.4591,73 C169.933268,73 167.206849,71.2989875 165.692172,68.8975581 C163.672603,71.1989279 160.845205,73 157.008023,73 C149.140117,73 145,66.3960691 145,57.8993448 C145,41.1977367 156.705088,31 169.024462,31 C171.742466,31 173.661057,32.5926147 173.661057,35.1941632 C173.661057,36.8951757 173.358121,37.4955331 172.356751,37.4955331 C171.43953,37.4955331 170.43816,37.2954139 169.419961,37.2954139 C161.754012,37.2954139 152.766928,43.7992853 152.766928,58.1995235 C152.766928,63.4026206 154.996869,66.3960691 158.522701,66.3960691 C161.249119,66.3960691 163.066732,63.9946397 164.177495,61.192972 L164.177495,45.8004765 C164.177495,43.8993448 163.773581,43.2989875 163.773581,42.5985706 C163.773581,41.597975 164.985323,40.8975581 166.399022,40.8975581 C169.731311,40.8975581 171.851859,42.8987493 171.851859,45.3001787 L171.851859,61.8016677 C171.851859,63.9946397 172.853229,66.3960691 175.276712,66.3960691 C179.315851,66.3960691 181.133464,60.0005956 182.04227,55.597975" id="Fill-9"></path>
                <path d="M192.42693,62.4298577 C192.42693,55.9295876 194.21889,48.7268143 197.404595,39.9920764 L189.838545,39.9920764 L188.751755,39.9920764 C188.643906,43.9531785 188.054882,52.7810193 186.254627,58.6718891 C184.96873,62.9376913 179.791959,59.2812894 180.687939,55.8280209 C181.783025,51.773816 182.181238,43.3437781 182.280791,38.1638754 C179.791959,36.7419413 178,34.6175041 178,31.6720692 C178,28.828201 180.389279,27 182.977664,27 C185.358647,27 188.146139,28.2188006 189.241225,32.3830362 C192.526484,32.7893031 193.522017,32.7893031 194.517549,32.7893031 L199.686024,32.7893031 C200.88896,32.7893031 204.871091,36.1410049 204.464582,38.4685755 C204.464582,39.6873762 199.99298,51.6722492 199.99298,61.8204574 C199.99298,64.6643256 201.278877,67.3050603 203.975112,67.3050603 C208.546267,67.3050603 210.238673,60.8047902 211.134652,56.3358545 C211.532865,54.2029534 212.528398,53.2888529 213.523931,53.2888529 C215.116784,53.2888529 217,55.5233207 217,57.4530884 C217,57.7577886 216.908743,57.960922 216.908743,58.1640555 C215.116784,64.867459 211.234205,74 202.672623,74 C198.001914,74 192.42693,71.3592653 192.42693,62.4298577" id="Fill-11"></path>
                <path d="M211,54.0970816 C211,42.5985706 217.780986,31 227.246112,31 C234.126819,31 236.719549,37.2954139 236.719549,40.7974985 C236.719549,44.5997618 229.838842,46.6009529 230.437165,43.0988684 C229.938563,41.3978559 229.739122,37.6956522 226.348629,37.6956522 C222.658975,37.6956522 219.168761,45.1000596 219.168761,54.0970816 C219.168761,62.0017868 223.465048,66.4044074 229.34024,66.4044074 C237.11843,66.4044074 240.700054,59.900536 241.896699,53.7969029 C242.794182,49.2942228 248.378524,51.3037522 247.979642,54.7974985 C247.281599,60.9011316 242.893902,73 228.243316,73 C219.376512,73 211,66.4044074 211,54.0970816" id="Fill-13"></path>
                <path d="M242.994094,7.9518768 C242.994094,5.02117421 242,4.81905679 242,4.11164581 C242,3.40423484 243.789369,3 245.181101,3 C248.461611,3 250.540924,5.02117421 250.540924,7.44658325 L250.540924,40.5769971 C253.224978,34.9177093 256.803716,30.5806064 261.666493,30.5806064 C268.326923,30.5806064 269.917473,36.1304139 269.917473,40.770693 L269.917473,61.6814244 C269.917473,62.5909528 269.917473,66.3301251 272.502117,66.3301251 C276.478493,66.3301251 278.259579,59.8707892 279.154263,55.424206 C280.347176,49.2596246 285.715283,54.009384 284.920008,57.2432628 C283.130639,63.9047161 279.253673,73 270.712748,73 C265.44405,73 262.362359,68.6544755 262.362359,63.5004812 L262.362359,43.0024062 C262.362359,39.8695861 262.16354,37.2420597 260.283045,37.2420597 C257.400173,37.2420597 251.23679,45.9246872 250.540924,53.9083253 L250.540924,68.6544755 C250.540924,70.574591 250.640334,73 247.765745,73 C245.769273,73 242.994094,72.292589 242.994094,68.5534167 L242.994094,7.9518768 Z" id="Fill-15"></path>
                <path d="M332.92905,71.1636525 C332.92905,72.875178 331.62225,73.4792458 330.114404,73.4792458 C327.802373,73.4792458 325.08825,72.0697542 325.08825,70.5595847 L325.08825,8.07212712 C316.04955,9.17958475 308.619219,15.9250085 308.619219,28.6020424 C308.619219,36.6478898 312.631765,41.7824661 313.938565,41.7824661 C314.441181,41.7824661 314.541704,41.0777203 315.044319,41.0777203 C315.546935,41.0777203 315.747981,41.8831441 315.747981,42.5878898 C315.747981,46.8163644 312.028627,50.7344153 309.113458,48.620178 C305.603527,46.2039068 300.677896,38.7621271 300.677896,28.6020424 C300.677896,7.26670339 317.054781,0.219245763 328.908127,0.219245763 C331.019112,0.219245763 332.92905,2.03144915 332.92905,4.44772034 L332.92905,71.1636525 Z" id="Fill-17"></path>
                <path d="M385.409003,73 C380.035596,73 376.901108,68.697439 376.901108,63.6027397 L376.901108,43.2989875 C376.901108,40.1971412 376.698338,37.5955926 374.974792,37.5955926 C372.237396,37.5955926 366.458449,46.2007147 365.850139,54.0970816 L365.850139,68.697439 C365.850139,70.5985706 365.951524,73 363.019806,73 C360.992105,73 358.153324,72.2995831 358.153324,68.5973794 L358.153324,43.2989875 C358.153324,40.1971412 357.950554,37.5955926 356.227008,37.5955926 C353.489612,37.5955926 347.719114,46.2007147 347.102355,54.0970816 L347.102355,68.697439 C347.102355,70.5985706 347.212188,73 344.272022,73 C342.244321,73 339.40554,72.2995831 339.40554,68.5973794 L339.40554,36.8951757 C339.40554,34.9940441 339,34.402025 339,33.7016081 C339,32.7010125 340.21662,32.0005956 341.636011,32.0005956 C344.981717,32.0005956 347.102355,33.9934485 347.102355,36.3948779 L347.102355,40.5973794 C349.738366,35.1941632 353.286842,31 357.849169,31 C363.932271,31 365.647368,35.8945801 365.850139,40.3972603 C368.384765,35.1024419 371.933241,31 376.495568,31 C383.077147,31 384.597922,36.4949375 384.597922,41.0976772 L384.597922,61.8016677 C384.597922,62.7022037 384.597922,66.3960691 387.233934,66.3960691 C391.289335,66.3960691 393.114266,60.0005956 394.026731,55.597975 C394.423823,53.4967242 395.437673,52.5961882 396.451524,52.5961882 C398.073684,52.5961882 400,54.7974985 400,56.6986301 C400,56.7986897 400,56.9988088 399.898615,57.3990471 C398.073684,63.9946397 394.119668,73 385.409003,73" id="Fill-20"></path>
                <path d="M401.955634,46.3734857 L401.955634,68.0885333 C403.34352,65.9765333 406.7141,64.970819 411.266034,64.5685333 C413.653528,61.0485333 414.735749,54.2180571 414.735749,50.4969143 C414.735749,41.2527238 411.869104,37.9338667 408.498524,37.9338667 C405.623618,37.9338667 403.046116,41.4538667 401.955634,46.3734857 M401.955634,72.9159619 L401.955634,105.576533 C401.955634,109.297676 398.684189,110.001676 396.709757,110.001676 C394.727063,110.001676 394.429659,108.794819 394.429659,107.286248 L394.429659,37.1292952 C394.429659,34.2127238 393.438312,34.011581 393.438312,33.307581 C393.438312,32.603581 395.222736,32.2012952 396.610622,32.2012952 C399.774671,32.2012952 401.8565,34.2127238 401.955634,36.5258667 C404.037463,33.5087238 406.813234,31.195581 410.976891,31.195581 C418.701136,31.195581 422.468255,38.939581 422.468255,48.8877714 C422.468255,54.5197714 421.377773,59.9422476 419.890753,63.562819 C426.425381,63.2611048 427.920663,60.6462476 430.1925,55.9277714 C431.084712,54.0169143 431.580385,53.2123429 432.472598,53.2123429 C434.157887,53.2123429 436.041447,55.6260571 436.041447,57.0256762 C436.041447,61.6519619 429.895096,69.7982476 416.718442,69.7982476 C414.041806,72.714819 410.183814,74.4161524 406.7141,74.4161524 C404.334867,74.4161524 402.748712,73.8127238 401.955634,72.9159619" id="Fill-22"></path>
                <path d="M465.04227,55.597975 C465.446184,53.4967242 466.447554,52.5961882 467.465753,52.5961882 C469.072994,52.5961882 471,54.7974985 471,56.6986301 C471,56.7986897 471,56.9988088 470.890607,57.3990471 C469.182387,63.9946397 465.143249,73 456.4591,73 C452.933268,73 450.206849,71.2989875 448.692172,68.8975581 C446.672603,71.1989279 443.845205,73 440.008023,73 C432.140117,73 428,66.3960691 428,57.8993448 C428,41.1977367 439.705088,31 452.024462,31 C454.742466,31 456.661057,32.5926147 456.661057,35.1941632 C456.661057,36.8951757 456.358121,37.4955331 455.356751,37.4955331 C454.447945,37.4955331 453.43816,37.2954139 452.419961,37.2954139 C444.754012,37.2954139 435.766928,43.7992853 435.766928,58.1995235 C435.766928,63.4026206 437.996869,66.3960691 441.531115,66.3960691 C444.249119,66.3960691 446.066732,63.9946397 447.177495,61.192972 L447.177495,45.8004765 C447.177495,43.8993448 446.773581,43.2989875 446.773581,42.5985706 C446.773581,41.597975 447.985323,40.8975581 449.399022,40.8975581 C452.731311,40.8975581 454.851859,42.8987493 454.851859,45.3001787 L454.851859,61.8016677 C454.851859,63.9946397 455.853229,66.3960691 458.276712,66.3960691 C462.315851,66.3960691 464.133464,60.0005956 465.04227,55.597975" id="Fill-25"></path>
                <path d="M464,54.0970816 C464,42.5985706 470.780986,31 480.246112,31 C487.126819,31 489.711239,37.2954139 489.711239,40.7974985 C489.711239,44.5997618 482.838842,46.6009529 483.437165,43.0988684 C482.938563,41.3978559 482.739122,37.6956522 479.348629,37.6956522 C475.658975,37.6956522 472.177071,45.1000596 472.177071,54.0970816 C472.177071,62.0017868 476.465048,66.4044074 482.34024,66.4044074 C490.11843,66.4044074 493.700054,59.900536 494.896699,53.7969029 C495.794182,49.2942228 501.378524,51.3037522 500.979642,54.7974985 C500.281599,60.9011316 495.893902,73 481.243316,73 C472.376512,73 464,66.4044074 464,54.0970816" id="Fill-27"></path>
                <path d="M496.280763,23.7043621 L496.280763,6.87393287 C496.280763,3.98444626 495.297295,3.79347445 495.297295,3.09601216 C495.297295,2.39854988 497.067538,2 498.444394,2 C501.689839,2 503.746927,3.98444626 503.746927,6.37574553 L503.746927,23.8039995 C509.746083,23.8039995 516.622165,23.7043621 523.309749,23.4054497 C526.06346,20.4163256 525.178339,29.9815226 522.621321,30.0811601 C514.753575,30.280435 508.959308,30.280435 503.746927,30.280435 L503.746927,61.8489066 C503.746927,65.0373056 505.025435,66.4322301 507.090719,66.4322301 C511.024592,66.4322301 512.794834,60.0554321 513.679956,55.6713835 C514.073343,53.5789966 515.056811,52.6822594 516.04028,52.6822594 C517.613829,52.6822594 519.474223,54.8742837 519.474223,56.7673956 C519.474223,56.8670331 519.474223,57.066308 519.375876,57.4648579 C517.70398,64.0326278 513.778303,73 505.320476,73 C500.017943,73 496.280763,69.811601 496.280763,61.9402409 L496.280763,30.280435 C491.953503,30.280435 489.494832,30.0811601 489.494832,30.0811601 C486.35593,30.0811601 484.585687,23.4054497 487.429549,23.4054497 C487.429549,23.4054497 490.970035,23.6047246 496.280763,23.7043621" id="Fill-29"></path>
            </g>
        </g>
    </g>
</svg>