<?xml version="1.0" encoding="UTF-8"?>
<svg width="21px" height="44px" viewBox="0 0 21 44" version="1.1" xmlns="http://www.w3.org/2000/svg" xmlns:xlink="http://www.w3.org/1999/xlink">
    <!-- Generator: Sketch 49.2 (51160) - http://www.bohemiancoding.com/sketch -->
    <title>seed</title>
    <desc>Created with Sketch.</desc>
    <defs></defs>
    <g id="Page-1" stroke="none" stroke-width="1" fill="none" fill-rule="evenodd">
        <g id="phase4" transform="translate(-834.000000, -5200.000000)" fill="#FFFFFF">
            <g id="Articles" transform="translate(100.000000, 4902.000000)">
                <g id="seed" transform="translate(734.000000, 298.000000)">
                    <path d="M12.127637,14.0521917 C12.8326114,15.6880005 13.6696757,17.2750702 14.2158453,18.9695183 C15.4224646,22.7110121 16.3545149,26.5263762 16.052489,30.5603052 C16.0280005,30.88701 16.2357824,31.3439398 16.4762158,31.5670739 C18.5570033,33.4960794 19.0608744,35.1570193 18.1837379,37.9526684 C17.1567015,41.2227629 14.9571815,43.1616685 11.8278374,43.7907086 C9.28028262,44.3017084 7.16535951,42.3559489 7.02436463,39.5450688 C6.83513467,35.7548358 10.0075193,31.5503198 13.5502011,31.2258996 C15.0914977,31.0842514 15.3861027,30.3722024 15.3081845,28.9976051 C15.0499413,24.4587687 14.1423795,20.0958504 12.3101883,15.9743432 C12.0719811,15.4382122 11.8308057,14.9036043 11.5903723,14.3689964 C11.7692132,14.263141 11.9487961,14.1580471 12.127637,14.0521917 M15.4402745,31.6615061 C14.7894718,34.8120373 12.7584035,36.706773 10.2857987,38.2214954 C13.3171885,37.1758876 15.511514,35.389292 15.4402745,31.6615061" id="Fill-1"></path>
                    <path d="M1.22212873,0.761549727 C4.37076689,1.18649447 7.25893558,1.6677939 9.74489783,3.46962056 C12.286516,5.31180935 11.9748431,8.03815737 11.5481481,10.804106 C11.2809999,12.5328239 10.6190661,13.1001784 8.89002365,12.8739981 C3.85205417,12.2167807 1.91597192,10.2291359 1.47072495,4.78253229 C1.36683399,3.51455199 1.3119202,2.2420024 1.22212873,0.761549727" id="Fill-4"></path>
                    <path d="M0,16.421906 C3.44398532,11.9622708 7.58700839,11.9424705 10.7460356,16.2749269 C7.37403192,20.717808 3.42543336,20.8053862 0,16.421906" id="Fill-7"></path>
                    <path d="M12.6948816,13.283255 C13.0844727,8.37354387 16.0490755,6.09117934 20.7976344,6.94030728 C20.3991384,11.8363105 17.6319285,14.0387123 12.6948816,13.283255" id="Fill-9"></path>
                </g>
            </g>
        </g>
    </g>
</svg>