<?xml version="1.0" encoding="UTF-8"?>
<svg width="19px" height="32px" viewBox="0 0 19 32" version="1.1" xmlns="http://www.w3.org/2000/svg" xmlns:xlink="http://www.w3.org/1999/xlink">
    <!-- Generator: Sketch 49.3 (51167) - http://www.bohemiancoding.com/sketch -->
    <title>small_seed</title>
    <desc>Created with Sketch.</desc>
    <defs>
        <filter x="-63.6%" y="-20.8%" width="227.3%" height="158.3%" filterUnits="objectBoundingBox" id="filter-1">
            <feOffset dx="0" dy="2" in="SourceAlpha" result="shadowOffsetOuter1"></feOffset>
            <feGaussianBlur stdDeviation="2" in="shadowOffsetOuter1" result="shadowBlurOuter1"></feGaussianBlur>
            <feColorMatrix values="0 0 0 0 0   0 0 0 0 0   0 0 0 0 0  0 0 0 0.5 0" type="matrix" in="shadowBlurOuter1" result="shadowMatrixOuter1"></feColorMatrix>
            <feMerge>
                <feMergeNode in="shadowMatrixOuter1"></feMergeNode>
                <feMergeNode in="SourceGraphic"></feMergeNode>
            </feMerge>
        </filter>
    </defs>
    <g id="Page-1" stroke="none" stroke-width="1" fill="none" fill-rule="evenodd">
        <g id="phase4" transform="translate(-600.000000, -5202.000000)" fill="#78BE20">
            <g id="small_seed" filter="url(#filter-1)" transform="translate(604.000000, 5204.000000)">
                <path d="M6.64854275,8 C7.01384004,8.87769404 7.44758251,9.72923705 7.73059177,10.6383941 C8.35582692,12.6458944 8.83878839,14.69303 8.68228734,16.8574366 C8.66959807,17.0327302 8.77726464,17.2778961 8.90185024,17.3976188 C9.98005403,18.4326277 10.2411455,19.3238059 9.78663873,20.8238128 C9.25445826,22.5783836 8.11473071,23.6187044 6.49319527,23.9562162 C5.17312623,24.2303934 4.07723436,23.1863951 4.0041749,21.678216 C3.90612142,19.6445646 5.54995922,17.3886294 7.38567423,17.2145616 C8.18432946,17.1385602 8.33698527,16.7565099 8.29661031,16.0189691 C8.16279615,13.5836541 7.69252395,11.2427281 6.74313552,9.03133136 C6.61970349,8.74367 6.49473337,8.45682586 6.37014776,8.16998171 C6.46281792,8.11318494 6.5558726,8.05679677 6.64854275,8 M8.36505549,17.4482865 C8.02782841,19.1387056 6.97538769,20.155327 5.69415552,20.9680521 C7.26493386,20.4070307 8.40196974,19.4484319 8.36505549,17.4482865" id="Fill-1"></path>
                <path d="M1,0 C2.77982083,0.209680407 4.4124069,0.447167892 5.817639,1.33624288 C7.25433152,2.24523375 7.07815317,3.59049514 6.83695661,4.95529664 C6.6859466,5.80829757 6.31177733,6.08824722 5.33440695,5.97664313 C2.48660972,5.65235247 1.39220657,4.67158928 1.14052321,1.98407267 C1.08179709,1.35841339 1.05075614,0.730499481 1,0" id="Fill-4"></path>
                <path d="M0,9.04050976 C1.9229335,6.34089133 4.23617154,6.32890532 6,8.95153668 C4.1172571,11.6410131 1.9125751,11.6940282 0,9.04050976" id="Fill-7"></path>
                <path d="M7,7.91278118 C7.1923253,4.96496956 8.65582929,3.5946281 11,4.10444816 C10.8032787,7.0440295 9.43721953,8.36636101 7,7.91278118" id="Fill-9"></path>
            </g>
        </g>
    </g>
</svg>