<?xml version="1.0" encoding="UTF-8"?>
<svg width="31px" height="32px" viewBox="0 0 31 32" version="1.1" xmlns="http://www.w3.org/2000/svg" xmlns:xlink="http://www.w3.org/1999/xlink">
    <!-- Generator: Sketch 50.2 (55047) - http://www.bohemiancoding.com/sketch -->
    <title>topic-blue</title>
    <desc>Created with Sketch.</desc>
    <defs></defs>
    <g id="Page-1" stroke="none" stroke-width="1" fill="none" fill-rule="evenodd">
        <g id="phase4-copy" transform="translate(-609.000000, -1294.000000)" fill="#00B5E2">
            <g id="content-header-copy" transform="translate(589.000000, 1279.000000)">
                <g id="topic-blue">
                    <path d="M40.4393125,19.4242082 C42.0116273,18.4933406 43.2229934,18.4901159 44.3506849,19.3989479 C45.4740013,20.3040178 45.6211152,21.4461041 44.8499974,23.4293035 C46.3096524,23.570116 47.2557757,24.3187872 47.6736013,25.7118638 C47.7162589,25.8553636 47.9607197,25.9827398 48.1373658,26.0386349 C49.4012335,26.4374245 50.229775,27.4397733 50.2686044,28.6517284 C50.3101682,29.9324775 49.5713169,31.0294178 48.3512006,31.5002261 C47.6872736,31.7560535 47.6118025,32.089274 48.1324438,32.5874923 C49.0036429,33.421081 49.2776359,34.4266545 48.9259842,35.5434805 C48.5726919,36.6656811 47.7414159,37.3428712 46.5563007,37.5218428 C45.3859516,37.6986647 44.4403752,37.2466672 43.7726199,36.3141873 C43.4707355,35.8917497 43.2432284,35.7831843 42.732978,36.0142888 C40.1653196,37.1784107 37.5391437,35.792321 37.1229588,33.0454018 C36.9561567,31.9457742 37.4221088,30.9869591 38.0428313,29.9389269 C37.8667321,29.9840729 37.6572724,29.9846104 37.5200025,30.0824267 C37.0026425,30.4495067 36.4989549,30.8375473 36.0111272,31.242249 C35.8689352,31.3604885 35.7015862,31.5625706 35.7065083,31.7211191 C35.7453376,32.9615592 35.7704946,34.206299 35.9044832,35.4386773 C36.047222,36.7489863 36.7641976,37.7884192 37.7185243,38.6961763 C37.9241557,38.891809 38.0679884,39.236316 38.0865827,39.5222406 C38.1385375,40.3402432 38.0942392,41.1641577 38.1193962,41.9848475 C38.1817419,44.034691 38.9938767,44.9123508 41.050191,45.1907511 C41.4034833,45.2385844 41.7688072,45.2633072 42.1024114,45.3734849 C42.4119524,45.4756009 42.687586,45.6782204 42.9779857,45.8362314 C42.9555631,45.9001883 42.9336874,45.9636076 42.9118118,46.027027 L28.545503,46.027027 C28.2966671,45.4444286 28.7024611,45.1998878 29.1826323,45.0757363 C29.8717164,44.898377 30.5815823,44.802173 31.2772291,44.6468493 C33.6113646,44.1271328 34.4185773,42.9624734 34.1090364,40.6541154 C33.9072332,39.1503236 33.7530097,37.6400823 33.5648788,36.0218132 C33.340653,36.2163709 33.1787729,36.362558 33.0108771,36.5022956 C32.0155334,37.333197 30.9009673,37.7325242 29.5758478,37.4815339 C29.3696694,37.4422999 29.0579409,37.5411911 28.9059049,37.6873782 C27.0535814,39.4674205 24.7254617,38.9783388 23.8209021,36.6022618 C23.7880886,36.5157319 23.7481655,36.4318894 23.7126175,36.3496591 C21.6437247,36.5404547 20.3995451,35.6074374 20.0621127,33.9719697 C19.7492904,32.4585038 20.6352556,31.2685842 22.3322618,30.6505139 C22.6970388,29.7228711 23.0246272,28.8908947 23.3582314,28.0427949 C22.4367182,28.1341618 21.4572344,27.911119 20.8255741,27.0678562 C20.4493123,26.5653382 20.1507092,25.9160957 20.0763319,25.3023251 C19.9067953,23.9173102 20.9354994,22.7548007 22.5406277,22.3151646 C22.8053235,19.0496039 24.55155,17.9155793 27.3160896,19.2543732 C27.4522657,18.224077 27.7421185,17.2491383 28.7358215,16.7299593 C29.2231023,16.4752069 29.8274181,16.2188421 30.3387622,16.2806491 C31.0311276,16.3650291 31.4309058,16.1597223 31.9351403,15.7415844 C33.5818324,14.3743055 36.0740198,14.97249 36.9758448,16.9218298 C37.1645226,17.3292187 37.3624976,17.4625069 37.8104022,17.473256 C38.8090272,17.4974413 39.5713948,17.9849107 40.097505,18.8190368 C40.2205557,19.0146695 40.325559,19.2215886 40.4393125,19.4242082"></path>
                </g>
            </g>
        </g>
    </g>
</svg>