<?xml version="1.0" encoding="UTF-8"?>
<svg width="537px" height="191px" viewBox="0 0 537 191" version="1.1" xmlns="http://www.w3.org/2000/svg" xmlns:xlink="http://www.w3.org/1999/xlink">
    <!-- Generator: Sketch 49.1 (51147) - http://www.bohemiancoding.com/sketch -->
    <title>total-logo</title>
    <desc>Created with Sketch.</desc>
    <defs>
        <filter x="-1.7%" y="-2.7%" width="103.4%" height="107.7%" filterUnits="objectBoundingBox" id="filter-1">
            <feOffset dx="0" dy="2" in="SourceAlpha" result="shadowOffsetOuter1"></feOffset>
            <feGaussianBlur stdDeviation="2" in="shadowOffsetOuter1" result="shadowBlurOuter1"></feGaussianBlur>
            <feColorMatrix values="0 0 0 0 0   0 0 0 0 0   0 0 0 0 0  0 0 0 0.5 0" type="matrix" in="shadowBlurOuter1" result="shadowMatrixOuter1"></feColorMatrix>
            <feMerge>
                <feMergeNode in="shadowMatrixOuter1"></feMergeNode>
                <feMergeNode in="SourceGraphic"></feMergeNode>
            </feMerge>
        </filter>
    </defs>
    <g id="Page-1" stroke="none" stroke-width="1" fill="none" fill-rule="evenodd">
        <g id="phase4" transform="translate(-446.000000, -146.000000)">
            <g id="total-logo" filter="url(#filter-1)" transform="translate(452.000000, 148.000000)">
                <path d="M0,66 L525,66" id="Line-4" stroke="#FFFFFF" stroke-width="4" stroke-linecap="round"></path>
                <g id="logo" fill="#FFFFFF">
                    <path d="M244.093279,18.5063502 C238.823972,18.5063502 234.74026,14.7944748 234.74026,9.3592287 C234.74026,3.92398257 238.823972,0.212107166 244.093279,0.212107166 C247.966219,0.212107166 250.205674,2.33317883 251.443961,4.53379067 L248.229684,6.12459442 C247.491981,4.69287105 245.911189,3.55279503 244.093279,3.55279503 C240.905348,3.55279503 238.586853,6.01854084 238.586853,9.3592287 C238.586853,12.6999166 240.905348,15.1656624 244.093279,15.1656624 C245.911189,15.1656624 247.491981,14.0520997 248.229684,12.593863 L251.443961,14.1581533 C250.179327,16.3587652 247.966219,18.5063502 244.093279,18.5063502 Z M259.506,18.5063502 C255.316901,18.5063502 252.787634,15.4307963 252.787634,11.7719477 C252.787634,8.1396125 255.316901,5.06405859 259.506,5.06405859 C263.721445,5.06405859 266.250712,8.1396125 266.250712,11.7719477 C266.250712,15.4307963 263.721445,18.5063502 259.506,18.5063502 Z M259.506,15.5103365 C261.587376,15.5103365 262.77297,13.7869658 262.77297,11.7719477 C262.77297,9.78344303 261.587376,8.06007231 259.506,8.06007231 C257.424624,8.06007231 256.265376,9.78344303 256.265376,11.7719477 C256.265376,13.7869658 257.424624,15.5103365 259.506,15.5103365 Z M272.073295,18.1881895 L268.727286,18.1881895 L268.727286,0.503754519 L272.073295,0.503754519 L272.073295,18.1881895 Z M278.738968,18.1881895 L275.392958,18.1881895 L275.392958,0.503754519 L278.738968,0.503754519 L278.738968,18.1881895 Z M288.039293,18.5063502 C284.166353,18.5063502 281.241888,15.8815241 281.241888,11.7719477 C281.241888,8.06007231 283.955581,5.06405859 287.828521,5.06405859 C291.622422,5.06405859 294.204382,7.92750533 294.204382,12.1166219 L294.204382,12.8589969 L284.745977,12.8589969 C284.956749,14.4763141 286.247729,15.8284973 288.408145,15.8284973 C289.488353,15.8284973 290.990105,15.3512561 291.806848,14.5558543 L293.282253,16.7299527 C292.01762,17.8965421 290.015283,18.5063502 288.039293,18.5063502 Z M290.963758,10.5788449 C290.884719,9.3592287 290.04163,7.74191156 287.828521,7.74191156 C285.747145,7.74191156 284.851363,9.30620191 284.693284,10.5788449 L290.963758,10.5788449 Z M301.844876,23.3848151 C299.658114,23.3848151 297.971936,22.8810605 296.364797,21.4758506 L297.86655,19.0366182 C298.894065,20.1766942 300.237738,20.6274219 301.844876,20.6274219 C303.452015,20.6274219 305.348965,19.9115602 305.348965,17.3927876 L305.348965,16.0936312 C304.347797,17.3662742 302.977777,18.1086493 301.423332,18.1086493 C298.235401,18.1086493 295.81152,15.8550107 295.81152,11.5863539 C295.81152,7.39723742 298.209055,5.06405859 301.423332,5.06405859 C302.95143,5.06405859 304.32145,5.72689348 305.348965,7.02604987 L305.348965,5.38221934 L308.721321,5.38221934 L308.721321,17.3132474 C308.721321,22.1917122 304.980113,23.3848151 301.844876,23.3848151 Z M302.477193,15.1126356 C303.583747,15.1126356 304.795688,14.4763141 305.348965,13.6543988 L305.348965,9.51830908 C304.795688,8.66988041 303.583747,8.06007231 302.477193,8.06007231 C300.580243,8.06007231 299.262916,9.3857421 299.262916,11.5863539 C299.262916,13.7869658 300.580243,15.1126356 302.477193,15.1126356 Z M318.021647,18.5063502 C314.148706,18.5063502 311.224241,15.8815241 311.224241,11.7719477 C311.224241,8.06007231 313.937934,5.06405859 317.810874,5.06405859 C321.604775,5.06405859 324.186735,7.92750533 324.186735,12.1166219 L324.186735,12.8589969 L314.72833,12.8589969 C314.939102,14.4763141 316.230082,15.8284973 318.390498,15.8284973 C319.470706,15.8284973 320.972458,15.3512561 321.789201,14.5558543 L323.264606,16.7299527 C321.999973,17.8965421 319.997636,18.5063502 318.021647,18.5063502 Z M320.946112,10.5788449 C320.867072,9.3592287 320.023983,7.74191156 317.810874,7.74191156 C315.729498,7.74191156 314.833716,9.30620191 314.675637,10.5788449 L320.946112,10.5788449 Z M339.256951,18.5063502 C335.067853,18.5063502 332.538586,15.4307963 332.538586,11.7719477 C332.538586,8.1396125 335.067853,5.06405859 339.256951,5.06405859 C343.472396,5.06405859 346.001663,8.1396125 346.001663,11.7719477 C346.001663,15.4307963 343.472396,18.5063502 339.256951,18.5063502 Z M339.256951,15.5103365 C341.338327,15.5103365 342.523921,13.7869658 342.523921,11.7719477 C342.523921,9.78344303 341.338327,8.06007231 339.256951,8.06007231 C337.175575,8.06007231 336.016328,9.78344303 336.016328,11.7719477 C336.016328,13.7869658 337.175575,15.5103365 339.256951,15.5103365 Z M352.588296,18.1881895 L349.21594,18.1881895 L349.21594,8.32520627 L347.108218,8.32520627 L347.108218,5.38221934 L349.21594,5.38221934 L349.21594,4.69287105 C349.21594,1.96199129 350.954811,0.238620562 353.510425,0.238620562 C354.722365,0.238620562 356.013345,0.556781311 356.830088,1.43172337 L355.565454,3.42022805 C355.222949,3.07555391 354.775058,2.88996014 354.169088,2.88996014 C353.24696,2.88996014 352.588296,3.49976824 352.588296,4.69287105 L352.588296,5.38221934 L355.170256,5.38221934 L355.170256,8.32520627 L352.588296,8.32520627 L352.588296,18.1881895 Z M380.304848,18.1881895 L376.03671,18.1881895 L374.956502,15.1921758 L367.421394,15.1921758 L366.314839,18.1881895 L362.046701,18.1881895 L368.844106,0.503754519 L373.533789,0.503754519 L380.304848,18.1881895 Z M373.928987,11.8780013 L371.188948,4.26865672 L368.448908,11.8780013 L373.928987,11.8780013 Z M387.075906,23.3848151 C384.889144,23.3848151 383.202966,22.8810605 381.595828,21.4758506 L383.09758,19.0366182 C384.125095,20.1766942 385.468768,20.6274219 387.075906,20.6274219 C388.683045,20.6274219 390.579995,19.9115602 390.579995,17.3927876 L390.579995,16.0936312 C389.578827,17.3662742 388.208807,18.1086493 386.654362,18.1086493 C383.466431,18.1086493 381.042551,15.8550107 381.042551,11.5863539 C381.042551,7.39723742 383.440085,5.06405859 386.654362,5.06405859 C388.182461,5.06405859 389.55248,5.72689348 390.579995,7.02604987 L390.579995,5.38221934 L393.952351,5.38221934 L393.952351,17.3132474 C393.952351,22.1917122 390.211144,23.3848151 387.075906,23.3848151 Z M387.708223,15.1126356 C388.814777,15.1126356 390.026718,14.4763141 390.579995,13.6543988 L390.579995,9.51830908 C390.026718,8.66988041 388.814777,8.06007231 387.708223,8.06007231 C385.811273,8.06007231 384.493946,9.3857421 384.493946,11.5863539 C384.493946,13.7869658 385.811273,15.1126356 387.708223,15.1126356 Z M400.618024,18.1881895 L397.272014,18.1881895 L397.272014,5.38221934 L400.618024,5.38221934 L400.618024,7.13210346 C401.513806,5.99202744 403.094598,5.06405859 404.67539,5.06405859 L404.67539,8.35171966 C404.438271,8.29869287 404.122112,8.27217948 403.753261,8.27217948 C402.646707,8.27217948 401.171301,8.90850097 400.618024,9.73041624 L400.618024,18.1881895 Z M408.416597,4.00352276 C407.336389,4.00352276 406.414261,3.1020673 406.414261,1.98850468 C406.414261,0.87494206 407.336389,0 408.416597,0 C409.523151,0 410.418933,0.87494206 410.418933,1.98850468 C410.418933,3.1020673 409.523151,4.00352276 408.416597,4.00352276 Z M410.102775,18.1881895 L406.756766,18.1881895 L406.756766,5.38221934 L410.102775,5.38221934 L410.102775,18.1881895 Z M419.350408,18.5063502 C415.424774,18.5063502 412.605696,15.7224437 412.605696,11.7719477 C412.605696,7.84796514 415.424774,5.06405859 419.350408,5.06405859 C421.958714,5.06405859 423.539506,6.20413461 424.382595,7.37072402 L422.195833,9.43876889 C421.589863,8.53731343 420.667734,8.06007231 419.508487,8.06007231 C417.479804,8.06007231 416.057091,9.54482247 416.057091,11.7719477 C416.057091,13.999073 417.479804,15.5103365 419.508487,15.5103365 C420.667734,15.5103365 421.589863,14.9800686 422.195833,14.1316399 L424.382595,16.1731714 C423.539506,17.3662742 421.958714,18.5063502 419.350408,18.5063502 Z M438.504336,18.1881895 L435.158327,18.1881895 L435.158327,16.5708723 C434.288891,17.551868 432.760792,18.5063502 430.679416,18.5063502 C427.886684,18.5063502 426.569357,16.9685733 426.569357,14.4763141 L426.569357,5.38221934 L429.915367,5.38221934 L429.915367,13.1506443 C429.915367,14.9270418 430.837496,15.5103365 432.260208,15.5103365 C433.551188,15.5103365 434.578703,14.7944748 435.158327,14.0520997 L435.158327,5.38221934 L438.504336,5.38221934 L438.504336,18.1881895 Z M445.170009,18.1881895 L441.823999,18.1881895 L441.823999,0.503754519 L445.170009,0.503754519 L445.170009,18.1881895 Z M452.75781,18.5063502 C450.412969,18.5063502 449.148335,17.286734 449.148335,15.006582 L449.148335,8.32520627 L447.040613,8.32520627 L447.040613,5.38221934 L449.148335,5.38221934 L449.148335,1.8824511 L452.520691,1.8824511 L452.520691,5.38221934 L455.102651,5.38221934 L455.102651,8.32520627 L452.520691,8.32520627 L452.520691,14.1051265 C452.520691,14.9005284 452.942236,15.5103365 453.679939,15.5103365 C454.180523,15.5103365 454.65476,15.3247427 454.839186,15.139149 L455.550542,17.684435 C455.049958,18.1351627 454.154176,18.5063502 452.75781,18.5063502 Z M469.329778,18.1881895 L465.983769,18.1881895 L465.983769,16.5708723 C465.114333,17.551868 463.586234,18.5063502 461.504858,18.5063502 C458.712126,18.5063502 457.3948,16.9685733 457.3948,14.4763141 L457.3948,5.38221934 L460.740809,5.38221934 L460.740809,13.1506443 C460.740809,14.9270418 461.662938,15.5103365 463.08565,15.5103365 C464.37663,15.5103365 465.404145,14.7944748 465.983769,14.0520997 L465.983769,5.38221934 L469.329778,5.38221934 L469.329778,18.1881895 Z M475.995451,18.1881895 L472.649441,18.1881895 L472.649441,5.38221934 L475.995451,5.38221934 L475.995451,7.13210346 C476.891233,5.99202744 478.472025,5.06405859 480.052817,5.06405859 L480.052817,8.35171966 C479.815698,8.29869287 479.49954,8.27217948 479.130688,8.27217948 C478.024134,8.27217948 476.548728,8.90850097 475.995451,9.73041624 L475.995451,18.1881895 Z M493.120697,18.1881895 L489.774687,18.1881895 L489.774687,16.8625197 C488.905252,17.8965421 487.403499,18.5063502 485.743668,18.5063502 C483.714985,18.5063502 481.31745,17.1276537 481.31745,14.2642069 C481.31745,11.2681932 483.714985,10.1281172 485.743668,10.1281172 C487.429846,10.1281172 488.931598,10.6848985 489.774687,11.6924075 L489.774687,9.9690368 C489.774687,8.66988041 488.668133,7.82145175 486.981955,7.82145175 C485.611935,7.82145175 484.347302,8.32520627 483.267094,9.33271531 L482.00246,7.07907667 C483.556906,5.70038009 485.559242,5.06405859 487.561578,5.06405859 C490.459697,5.06405859 493.120697,6.230648 493.120697,9.91601001 L493.120697,18.1881895 Z M487.087341,16.2261982 C488.167549,16.2261982 489.22141,15.8550107 489.774687,15.1126356 L489.774687,13.5218318 C489.22141,12.7794568 488.167549,12.4082692 487.087341,12.4082692 C485.770014,12.4082692 484.689806,13.0976175 484.689806,14.3437471 C484.689806,15.5368499 485.770014,16.2261982 487.087341,16.2261982 Z M499.786369,18.1881895 L496.44036,18.1881895 L496.44036,0.503754519 L499.786369,0.503754519 L499.786369,18.1881895 Z M525,18.1881895 L520.731862,18.1881895 C520.36301,17.8435153 519.915119,17.3927876 519.414535,16.8625197 C518.097209,17.8700287 516.49007,18.5063502 514.619466,18.5063502 C511.40519,18.5063502 508.82323,16.8094929 508.82323,13.3892649 C508.82323,10.7114119 510.588447,9.30620191 512.590784,8.29869287 C511.905774,6.99953648 511.431536,5.67386669 511.431536,4.48076388 C511.431536,2.09455826 513.539259,0.238620562 516.463724,0.238620562 C518.940298,0.238620562 521.074367,1.61731714 521.074367,3.97700936 C521.074367,6.68137573 518.913951,7.82145175 516.753536,8.82896079 C517.280466,9.54482247 517.833743,10.2076574 518.281634,10.7379253 C518.782219,11.3742468 519.282803,11.9575415 519.75704,12.5408362 C520.494743,11.4007602 521.04802,10.1546306 521.364179,9.12060814 L524.051525,10.3667377 C523.419208,11.7719477 522.602466,13.2832113 521.601297,14.6353945 C522.655159,15.7754705 523.761713,16.9420599 525,18.1881895 Z M515.093704,15.8550107 C515.989486,15.8550107 516.858922,15.5103365 517.622971,14.9535552 C516.832575,14.0786131 516.094872,13.2301845 515.673328,12.6999166 C515.093704,11.9840549 514.487734,11.188653 513.90811,10.3667377 C512.985982,11.0295726 512.380011,11.8514879 512.380011,13.0711041 C512.380011,14.7944748 513.644645,15.8550107 515.093704,15.8550107 Z M514.777546,4.56030407 C514.777546,5.27616576 515.093704,6.09808102 515.541595,6.94650969 C517.017001,6.230648 518.176248,5.46175953 518.176248,4.16260313 C518.176248,3.23463428 517.491238,2.67785297 516.621803,2.67785297 C515.594288,2.67785297 514.777546,3.47325484 514.777546,4.56030407 Z M254.104961,43.6818393 L241.669398,43.6818393 L241.669398,25.9974043 L254.104961,25.9974043 L254.104961,29.3115788 L245.410605,29.3115788 L245.410605,33.0499676 L253.920535,33.0499676 L253.920535,36.364142 L245.410605,36.364142 L245.410605,40.3676648 L254.104961,40.3676648 L254.104961,43.6818393 Z M268.885365,43.6818393 L265.539355,43.6818393 L265.539355,35.9399277 C265.539355,34.1635302 264.617227,33.5537221 263.194514,33.5537221 C261.877187,33.5537221 260.849673,34.2960972 260.296396,35.0649856 L260.296396,43.6818393 L256.950386,43.6818393 L256.950386,30.8758691 L260.296396,30.8758691 L260.296396,32.546213 C261.113138,31.5652174 262.667583,30.5577084 264.748959,30.5577084 C267.541692,30.5577084 268.885365,32.1485121 268.885365,34.6407713 L268.885365,43.6818393 Z M279.107819,43.6818393 L275.498344,43.6818393 L270.387117,30.8758691 L273.970246,30.8758691 L277.289909,39.7843701 L280.609572,30.8758691 L284.219046,30.8758691 L279.107819,43.6818393 Z M287.38063,29.4971725 C286.300422,29.4971725 285.378294,28.5957171 285.378294,27.4821544 C285.378294,26.3685918 286.300422,25.4936498 287.38063,25.4936498 C288.487185,25.4936498 289.382967,26.3685918 289.382967,27.4821544 C289.382967,28.5957171 288.487185,29.4971725 287.38063,29.4971725 Z M289.066808,43.6818393 L285.720799,43.6818393 L285.720799,30.8758691 L289.066808,30.8758691 L289.066808,43.6818393 Z M295.732481,43.6818393 L292.386471,43.6818393 L292.386471,30.8758691 L295.732481,30.8758691 L295.732481,32.6257532 C296.628263,31.4856772 298.209055,30.5577084 299.789847,30.5577084 L299.789847,33.8453694 C299.552728,33.7923426 299.236569,33.7658292 298.867718,33.7658292 C297.761164,33.7658292 296.285758,34.4021507 295.732481,35.224066 L295.732481,43.6818393 Z M307.772846,44 C303.583747,44 301.05448,40.9244461 301.05448,37.2655975 C301.05448,33.6332623 303.583747,30.5577084 307.772846,30.5577084 C311.988291,30.5577084 314.517558,33.6332623 314.517558,37.2655975 C314.517558,40.9244461 311.988291,44 307.772846,44 Z M307.772846,41.0039863 C309.854222,41.0039863 311.039816,39.2806156 311.039816,37.2655975 C311.039816,35.2770928 309.854222,33.5537221 307.772846,33.5537221 C305.69147,33.5537221 304.532222,35.2770928 304.532222,37.2655975 C304.532222,39.2806156 305.69147,41.0039863 307.772846,41.0039863 Z M328.929111,43.6818393 L325.583101,43.6818393 L325.583101,35.9399277 C325.583101,34.1635302 324.660973,33.5537221 323.23826,33.5537221 C321.920933,33.5537221 320.893419,34.2960972 320.340141,35.0649856 L320.340141,43.6818393 L316.994132,43.6818393 L316.994132,30.8758691 L320.340141,30.8758691 L320.340141,32.546213 C321.156884,31.5652174 322.711329,30.5577084 324.792705,30.5577084 C327.585438,30.5577084 328.929111,32.1485121 328.929111,34.6407713 L328.929111,43.6818393 Z M351.402702,43.6818393 L348.030346,43.6818393 L348.030346,35.5952535 C348.030346,34.4021507 347.503416,33.5537221 346.133396,33.5537221 C344.947802,33.5537221 343.97298,34.3491239 343.498743,35.0384722 L343.498743,43.6818393 L340.126387,43.6818393 L340.126387,35.5952535 C340.126387,34.4021507 339.599456,33.5537221 338.229436,33.5537221 C337.070189,33.5537221 336.095367,34.3491239 335.594783,35.0649856 L335.594783,43.6818393 L332.248774,43.6818393 L332.248774,30.8758691 L335.594783,30.8758691 L335.594783,32.546213 C336.121714,31.7773246 337.807892,30.5577084 339.757535,30.5577084 C341.628139,30.5577084 342.813733,31.4326504 343.287971,32.8908872 C344.025673,31.7242978 345.711851,30.5577084 347.661495,30.5577084 C350.006336,30.5577084 351.402702,31.803838 351.402702,34.4286641 L351.402702,43.6818393 Z M360.676681,44 C356.803741,44 353.879276,41.3751738 353.879276,37.2655975 C353.879276,33.5537221 356.592969,30.5577084 360.465909,30.5577084 C364.25981,30.5577084 366.84177,33.4211551 366.84177,37.6102716 L366.84177,38.3526467 L357.383365,38.3526467 C357.594137,39.9699638 358.885117,41.322147 361.045533,41.322147 C362.125741,41.322147 363.627493,40.8449059 364.444236,40.049504 L365.919641,42.2236025 C364.655008,43.3901919 362.652671,44 360.676681,44 Z M363.601147,36.0724947 C363.522107,34.8528785 362.679018,33.2355613 360.465909,33.2355613 C358.384533,33.2355613 357.488751,34.7998517 357.330672,36.0724947 L363.601147,36.0724947 Z M381.20063,43.6818393 L377.85462,43.6818393 L377.85462,35.9399277 C377.85462,34.1635302 376.932492,33.5537221 375.509779,33.5537221 C374.192452,33.5537221 373.164938,34.2960972 372.61166,35.0649856 L372.61166,43.6818393 L369.265651,43.6818393 L369.265651,30.8758691 L372.61166,30.8758691 L372.61166,32.546213 C373.428403,31.5652174 374.982848,30.5577084 377.064224,30.5577084 C379.856957,30.5577084 381.20063,32.1485121 381.20063,34.6407713 L381.20063,43.6818393 Z M388.788431,44 C386.44359,44 385.178956,42.7803838 385.178956,40.5002318 L385.178956,33.818856 L383.071233,33.818856 L383.071233,30.8758691 L385.178956,30.8758691 L385.178956,27.3761009 L388.551312,27.3761009 L388.551312,30.8758691 L391.133272,30.8758691 L391.133272,33.818856 L388.551312,33.818856 L388.551312,39.5987763 C388.551312,40.3941782 388.972857,41.0039863 389.710559,41.0039863 C390.211144,41.0039863 390.685381,40.8183925 390.869807,40.6327987 L391.581163,43.1780847 C391.080579,43.6288125 390.184797,44 388.788431,44 Z M404.411924,43.6818393 L401.065915,43.6818393 L401.065915,42.3561695 C400.196479,43.3901919 398.694727,44 397.034895,44 C395.006212,44 392.608678,42.6213034 392.608678,39.7578567 C392.608678,36.761843 395.006212,35.6217669 397.034895,35.6217669 C398.721073,35.6217669 400.222826,36.1785483 401.065915,37.1860573 L401.065915,35.4626866 C401.065915,34.1635302 399.95936,33.3151015 398.273182,33.3151015 C396.903163,33.3151015 395.638529,33.818856 394.558321,34.8263651 L393.293688,32.5727264 C394.848133,31.1940299 396.85047,30.5577084 398.852806,30.5577084 C401.750924,30.5577084 404.411924,31.7242978 404.411924,35.4096598 L404.411924,43.6818393 Z M398.378568,41.719848 C399.458776,41.719848 400.512637,41.3486604 401.065915,40.6062853 L401.065915,39.0154816 C400.512637,38.2731065 399.458776,37.901919 398.378568,37.901919 C397.061242,37.901919 395.981034,38.5912673 395.981034,39.8373969 C395.981034,41.0304997 397.061242,41.719848 398.378568,41.719848 Z M411.077597,43.6818393 L407.731587,43.6818393 L407.731587,25.9974043 L411.077597,25.9974043 L411.077597,43.6818393 Z M427.465139,44 C424.092783,44 421.668902,42.859924 420.035418,41.1895801 L422.0641,38.3261333 C423.302387,39.6252897 425.225684,40.7123389 427.649565,40.7123389 C429.704595,40.7123389 430.705763,39.7578567 430.705763,38.7503476 C430.705763,35.6217669 420.588695,37.769352 420.588695,31.1144897 C420.588695,28.1715027 423.117962,25.7322703 427.254367,25.7322703 C430.0471,25.7322703 432.365594,26.580699 434.104465,28.1980161 L432.023089,30.9554093 C430.600377,29.6297395 428.703426,29.0199314 426.911862,29.0199314 C425.304724,29.0199314 424.408942,29.7357931 424.408942,30.7963289 C424.408942,33.6067489 434.499663,31.7242978 434.499663,38.3261333 C434.499663,41.5607676 432.207515,44 427.465139,44 Z M442.877861,44 C438.952227,44 436.133148,41.2160934 436.133148,37.2655975 C436.133148,33.3416149 438.952227,30.5577084 442.877861,30.5577084 C445.486167,30.5577084 447.066959,31.6977844 447.910048,32.8643738 L445.723286,34.9324187 C445.117316,34.0309632 444.195187,33.5537221 443.03594,33.5537221 C441.007257,33.5537221 439.584544,35.0384722 439.584544,37.2655975 C439.584544,39.4927227 441.007257,41.0039863 443.03594,41.0039863 C444.195187,41.0039863 445.117316,40.4737184 445.723286,39.6252897 L447.910048,41.6668212 C447.066959,42.859924 445.486167,44 442.877861,44 Z M451.756642,29.4971725 C450.676434,29.4971725 449.754305,28.5957171 449.754305,27.4821544 C449.754305,26.3685918 450.676434,25.4936498 451.756642,25.4936498 C452.863196,25.4936498 453.758978,26.3685918 453.758978,27.4821544 C453.758978,28.5957171 452.863196,29.4971725 451.756642,29.4971725 Z M453.44282,43.6818393 L450.09681,43.6818393 L450.09681,30.8758691 L453.44282,30.8758691 L453.44282,43.6818393 Z M462.743145,44 C458.870205,44 455.94574,41.3751738 455.94574,37.2655975 C455.94574,33.5537221 458.659433,30.5577084 462.532373,30.5577084 C466.326274,30.5577084 468.908234,33.4211551 468.908234,37.6102716 L468.908234,38.3526467 L459.449829,38.3526467 C459.660601,39.9699638 460.951581,41.322147 463.111997,41.322147 C464.192205,41.322147 465.693957,40.8449059 466.5107,40.049504 L467.986105,42.2236025 C466.721472,43.3901919 464.719135,44 462.743145,44 Z M465.667611,36.0724947 C465.588571,34.8528785 464.745482,33.2355613 462.532373,33.2355613 C460.450997,33.2355613 459.555215,34.7998517 459.397136,36.0724947 L465.667611,36.0724947 Z M483.267094,43.6818393 L479.921084,43.6818393 L479.921084,35.9399277 C479.921084,34.1635302 478.998956,33.5537221 477.576243,33.5537221 C476.258916,33.5537221 475.231402,34.2960972 474.678124,35.0649856 L474.678124,43.6818393 L471.332115,43.6818393 L471.332115,30.8758691 L474.678124,30.8758691 L474.678124,32.546213 C475.494867,31.5652174 477.049312,30.5577084 479.130688,30.5577084 C481.923421,30.5577084 483.267094,32.1485121 483.267094,34.6407713 L483.267094,43.6818393 Z M492.514726,44 C488.589093,44 485.770014,41.2160934 485.770014,37.2655975 C485.770014,33.3416149 488.589093,30.5577084 492.514726,30.5577084 C495.123033,30.5577084 496.703825,31.6977844 497.546914,32.8643738 L495.360152,34.9324187 C494.754182,34.0309632 493.832053,33.5537221 492.672806,33.5537221 C490.644123,33.5537221 489.22141,35.0384722 489.22141,37.2655975 C489.22141,39.4927227 490.644123,41.0039863 492.672806,41.0039863 C493.832053,41.0039863 494.754182,40.4737184 495.360152,39.6252897 L497.546914,41.6668212 C496.703825,42.859924 495.123033,44 492.514726,44 Z M505.714339,44 C501.841399,44 498.916934,41.3751738 498.916934,37.2655975 C498.916934,33.5537221 501.630626,30.5577084 505.503567,30.5577084 C509.297467,30.5577084 511.879427,33.4211551 511.879427,37.6102716 L511.879427,38.3526467 L502.421022,38.3526467 C502.631795,39.9699638 503.922775,41.322147 506.08319,41.322147 C507.163398,41.322147 508.66515,40.8449059 509.481893,40.049504 L510.957299,42.2236025 C509.692665,43.3901919 507.690329,44 505.714339,44 Z M508.638804,36.0724947 C508.559764,34.8528785 507.716675,33.2355613 505.503567,33.2355613 C503.42219,33.2355613 502.526408,34.7998517 502.368329,36.0724947 L508.638804,36.0724947 Z M518.887605,44 C516.674496,44 514.540427,43.2576249 513.196754,42.0114953 L514.645813,39.6518031 C515.567942,40.5267452 517.464892,41.4016872 519.045684,41.4016872 C520.494743,41.4016872 521.179753,40.8183925 521.179753,40.0229906 C521.179753,37.901919 513.618298,39.6252897 513.618298,34.5877445 C513.618298,32.4401595 515.488902,30.5577084 518.834912,30.5577084 C520.995327,30.5577084 522.707852,31.3000834 523.972485,32.3075925 L522.628812,34.6142579 C521.864763,33.7923426 520.415703,33.1295077 518.861258,33.1295077 C517.649318,33.1295077 516.858922,33.6862891 516.858922,34.4021507 C516.858922,36.3111152 524.39403,34.7203115 524.39403,39.8904237 C524.39403,42.2236025 522.41804,44 518.887605,44 Z" id="College-of-Agricultu"></path>
                    <g id="UCDAVIS" transform="translate(0.000000, 5.866667)" fill-rule="nonzero">
                        <path d="M127.980979,10.186936 L127.980979,10.186936 C128.200567,11.5671158 130.374706,21.4726718 130.374706,21.4726718 L125.60247,21.4726718 L127.980979,10.186936 Z M109.874747,33.2177715 L122.497799,33.2177715 L123.450072,29.150313 L132.459705,29.150313 L133.662004,33.2177715 L146.285057,33.2177715 L134.462088,0.845144754 L121.228102,0.845144754 L109.874747,33.2177715 Z" id="Shape"></path>
                        <path d="M78.8867397,0.843056736 L91.114099,0.843056736 C102.217428,0.843056736 110.696571,5.59747309 110.696571,17.4929101 C110.696571,27.0789994 103.782808,33.2135955 94.0752767,33.2135955 L78.8867397,33.1948033 L78.8867397,0.843056736 Z M90.896685,23.9198286 L91.7141614,23.9198286 C95.7211001,23.9198286 98.686626,21.6793856 98.686626,17.4553257 C98.686626,12.9055351 96.0559175,10.3665056 91.6554597,10.3665056 L90.896685,10.3665056 L90.896685,23.9198286 Z" id="Shape"></path>
                        <path d="M71.6185921,1.85783335 L72.2621374,7.17183845 C72.4165013,8.43300116 73.1883207,11.4564508 72.2382218,11.0513754 C71.6381594,10.7987252 71.1468039,9.43107363 70.6597967,8.21167128 C70.4119449,7.59570605 69.2292131,4.67248124 68.9183112,4.4553274 C67.4290258,3.40923052 63.6982028,2.23367654 61.1762012,2.22323645 C53.5210569,2.19609222 48.4640089,7.46207292 48.4640089,16.8017762 C48.4640089,23.500137 51.9034973,31.5452693 60.6544078,31.5452693 C63.7873425,31.5452693 69.7879669,30.6181895 71.4207455,26.4609462 C72.1577787,24.5796422 72.833936,22.902964 73.3252915,23.4145283 C73.6861986,23.7820194 73.2165845,25.2916562 72.9991706,26.1038951 C71.9686286,29.9604639 71.9099268,31.1276658 71.5859801,31.2800911 C67.6333949,33.1279868 62.5633021,33.7376879 58.1258838,33.7376879 C44.0265907,33.7376879 39.1543446,26.0600468 39.1543446,18.3844936 C39.1543446,5.06502857 47.9204741,-0.451514252 61.5175411,0.0287298245 C64.9526811,0.149834852 68.3943436,0.726127744 71.6185921,1.85783335" id="Shape"></path>
                        <path d="M29.9686062,2.44874236 L27.7096755,1.71376013 C26.9487267,1.0748267 27.8727359,0.897345197 27.8727359,0.897345197 C27.8727359,0.897345197 31.1339448,1.463198 39.2652257,0.822176559 C39.2652257,0.822176559 39.9783434,0.951633658 39.489162,1.48825421 L36.819319,2.55523127 C35.0843559,3.26098126 35.0843559,2.8538178 35.0843559,4.63072088 L35.0691369,21.1281489 C35.0691369,34.0300104 21.0024558,33.739776 18.2630403,33.739776 C16.9585568,33.739776 4.15722477,33.739776 4.15722477,23.38112 L4.15722477,5.92111584 C4.15722477,2.87260996 4.50291291,2.95821869 3.42236569,2.59907964 L0.154634372,1.45484593 C0.154634372,1.45484593 -0.397597002,0.728215762 0.585113947,0.772064134 C3.25278283,0.897345197 7.11622831,1.43187773 16.0932494,0.822176559 C16.0932494,0.822176559 16.8802878,0.999658065 16.3650168,1.53627862 L13.7538755,2.24411663 C11.6884432,3.10855597 11.9602106,2.44874236 11.9080313,4.42609515 L11.9689072,21.6459773 C11.9689072,25.8679491 14.2952362,31.0942575 21.5242492,31.0942575 C31.4926778,31.0942575 31.5839916,23.0470372 31.5839916,21.259694 L31.6035589,4.20685329 C31.7100917,2.59907964 31.4905037,3.05635552 29.9686062,2.44874236" id="Shape"></path>
                        <path d="M190.563577,30.7309424 L194.0422,22.1450135 L194.653133,22.6273456 C196.788138,24.2559995 199.690614,25.6403552 202.425681,25.6967317 C204.873762,25.7447561 206.067365,25.1371429 205.745592,23.2099026 C205.49774,21.7608183 203.75408,21.5123442 202.664837,21.3077184 L200.268935,20.8629707 C195.609755,20.0507318 191.698478,17.371805 191.698478,12.2958339 C191.698478,4.61819278 198.79052,0.31687627 205.926045,0.31687627 C209.676436,0.31687627 213.111576,1.20219578 216.331476,3.15658037 L213.307248,10.769493 C211.650554,9.65657954 209.139423,8.08639022 205.967354,7.97781329 C204.917245,7.94022897 202.53004,8.45596935 203.293163,10.7172925 C203.623632,11.6819567 205.104221,12.0891202 206.015185,12.2937459 L208.713292,12.9034471 C213.765992,14.0017444 217.414197,16.6827592 217.414197,22.1575416 C217.414197,29.8811192 210.280846,33.7021916 203.190978,33.7021916 C199.055765,33.7021916 194.263962,32.6018063 190.563577,30.7309424" id="Shape"></path>
                        <rect id="Rectangle-path" x="176.059894" y="0.845144754" width="11.9381987" height="32.3726268"></rect>
                        <polygon id="Shape" points="162.371514 0.843056736 174.809764 0.843056736 162.104094 33.2135955 152.009566 33.2135955 139.340856 0.843056736 151.742147 0.843056736 157.053569 20.3764625"></polygon>
                    </g>
                </g>
                <g id="Page-1" transform="translate(0.000000, 90.000000)" fill="#FFFFFF">
                    <path d="M30.0433824,48.6447267 C29.3639706,48.6447267 28.6742647,48.5413933 28.0875,48.4483933 C32.8845588,56.8907267 43.8375,74.2817267 51.6713235,74.2817267 C54.0183824,74.2817267 53.8227941,72.5147267 54.2139706,72.12206 C54.7080882,71.7293933 55.4904412,71.9257267 55.4904412,73.5997267 C55.4904412,76.3483933 50.3948529,79.09706 47.4610294,79.09706 C37.8669118,79.09706 25.0507353,59.7427267 19.3786765,50.2153933 C15.8580882,56.99406 13.2125,64.1653933 13.2125,70.8407267 C13.2125,73.88906 14.6742647,72.71106 14.9727941,73.0003933 C15.6625,73.6927267 15.4566176,75.3563933 12.8213235,75.3563933 C9.98014706,75.3563933 7.33455882,72.0187267 7.33455882,65.24006 C7.33455882,46.8777267 29.0654412,15.14406 32.1948529,15.14406 C33.5639706,15.14406 39.8330882,18.2853933 39.8330882,20.2487267 C39.8330882,21.6333933 31.4125,30.76806 23.9801471,42.36206 C35.1286765,41.0807267 59.0110294,26.4487267 59.0110294,13.5733933 C59.0110294,9.54339333 53.8227941,8.07606 49.3242647,8.07606 C24.8551471,8.07606 5.67720588,25.65306 5.67720588,35.3767267 C5.67720588,37.9393933 6.35661765,39.9027267 6.35661765,39.9027267 C6.35661765,39.9027267 0.00514705882,38.3217267 0.00514705882,31.0573933 C0.00514705882,17.6963933 22.6007353,0.997726667 47.1727941,0.997726667 C60.1845588,0.997726667 65.7639706,9.93606 65.7639706,14.8443933 C65.7639706,29.68306 43.1580882,48.6447267 30.0433824,48.6447267" id="Fill-1"></path>
                    <path d="M61.8398529,44.6136933 C67.5119118,43.73536 74.8619118,36.3676933 72.3089706,36.3676933 C69.4780882,36.3676933 64.8766176,39.9946933 61.8398529,44.6136933 M81.6045588,48.1476933 C78.0839706,53.4590267 68.2016176,63.1826933 58.8133824,63.1826933 C53.4295588,63.1826933 49.8986765,58.6566933 49.8986765,52.6736933 C49.8986765,40.7800267 64.1869118,29.19636 71.1354412,29.19636 C74.9545588,29.19636 78.1766176,31.2630267 78.1766176,36.26436 C78.1766176,40.0980267 72.1133824,49.53236 64.8766176,49.53236 C62.6222059,49.53236 61.1604412,48.1476933 60.4707353,46.8766933 C59.2045588,48.9330267 57.2383824,54.6370267 61.4486765,55.42236 C68.8913235,56.7966933 76.3236765,49.2326933 80.6266176,45.6986933 C84.9398529,42.1646933 82.4898529,47.0730267 81.6045588,48.1476933" id="Fill-4"></path>
                    <path d="M85.9363235,62.29816 C84.1760294,62.88716 82.3127941,63.1764933 80.4598529,63.1764933 L79.5745588,63.1764933 C81.4377941,65.4394933 83.2907353,67.7954933 84.6598529,66.42116 C85.2569118,65.83216 85.6480882,64.3648267 85.9363235,62.29816 M101.984853,51.4894933 C100.121618,53.3598267 97.6819118,55.5194933 94.9436765,57.5758267 C94.8407353,66.5244933 93.6672059,75.07016 85.3495588,75.07016 C79.7701471,75.07016 75.8583824,63.1764933 73.5010294,63.1764933 C71.4525,63.1764933 71.9466176,60.1384933 74.4892647,59.6424933 C74.2936765,58.17516 74.9730882,56.6974933 75.3642647,56.6974933 C76.2495588,56.6974933 76.3422059,58.17516 79.5745588,58.17516 C81.6333824,58.17516 83.8775,57.4828267 86.3275,56.40816 C86.4201471,52.2748267 86.3275,47.5628267 86.2245588,43.72916 C83.5892647,46.8704933 80.4598529,50.02216 76.9289706,53.2564933 C74.9730882,55.2198267 73.2127941,50.4148267 76.0539706,48.25516 C79.3789706,45.5994933 83.7848529,40.3914933 87.1098529,35.48316 C88.8701471,31.2568267 92.6892647,29.09716 94.5422059,29.09716 C98.0730882,29.09716 103.940735,30.5644933 96.6010294,38.0354933 C94.6451471,39.9988267 94.6451471,45.40316 94.8407353,51.4894933 C97.9701471,49.3298267 100.615735,47.0668267 102.376029,45.7028267 C106.678971,42.0654933 104.723088,48.84416 101.984853,51.4894933" id="Fill-6"></path>
                    <path d="M112.607353,44.6136933 C118.279412,43.73536 125.629412,36.3676933 123.076471,36.3676933 C120.245588,36.3676933 115.644118,39.9946933 112.607353,44.6136933 M132.372059,48.1476933 C128.851471,53.4590267 118.969118,63.1826933 109.580882,63.1826933 C104.197059,63.1826933 100.666176,58.6566933 100.666176,52.6736933 C100.666176,40.7800267 114.954412,29.19636 121.902941,29.19636 C125.722059,29.19636 128.944118,31.2630267 128.944118,36.26436 C128.944118,40.0980267 122.880882,49.53236 115.644118,49.53236 C113.389706,49.53236 111.927941,48.1476933 111.238235,46.8766933 C109.972059,48.9330267 108.005882,54.6370267 112.216176,55.42236 C119.658824,56.7966933 127.091176,49.2326933 131.394118,45.6986933 C135.707353,42.1646933 133.257353,47.0730267 132.372059,48.1476933" id="Fill-8"></path>
                    <path d="M154.985147,35.0873933 C155.088088,34.98406 155.180735,34.89106 155.283676,34.6947267 C154.8925,34.6017267 154.501324,34.6017267 154.007206,34.6017267 C145.493971,34.6017267 134.149853,53.9457267 138.051324,53.9457267 C140.501324,53.9457267 154.696912,35.48006 154.985147,35.0873933 M166.236618,51.3933933 C163.796912,53.7493933 153.708676,63.1837267 151.268971,63.1837267 C150.291029,63.1837267 148.139559,61.6027267 148.139559,55.6197267 C148.139559,54.0387267 148.335147,52.28206 148.726324,50.51506 C144.814559,56.2087267 139.430735,63.1837267 136.105735,63.1837267 C131.596912,63.1837267 128.374853,59.1537267 128.374853,53.8423933 C128.374853,43.9223933 139.626324,28.8977267 151.763088,28.8977267 C154.305735,28.8977267 155.7675,30.86106 156.549853,32.7313933 C158.124853,30.36506 159.586618,28.8977267 160.368971,28.8977267 C163.796912,28.8977267 167.420441,31.2537267 167.420441,33.21706 C167.420441,34.6947267 158.505735,45.1107267 155.7675,54.2453933 C157.435147,52.87106 165.464559,46.6813933 166.627794,45.5963933 C169.860147,42.36206 170.158676,47.8593933 166.236618,51.3933933" id="Fill-10"></path>
                    <path d="M178.689412,30.7639267 C179.965882,28.1185933 180.254118,26.24826 178.885,26.24826 C176.435,26.24826 175.065882,30.1749267 178.689412,30.7639267 M195.520294,51.4925933 C193.070294,53.7555933 183.095294,63.1795933 180.552647,63.1795933 C179.564412,63.1795933 177.515882,61.71226 177.515882,55.6155933 C177.515882,51.0999267 182.014412,40.6839267 184.268824,35.7755933 C184.268824,35.7755933 182.796765,36.07526 180.840882,36.2715933 C177.608529,41.0869267 172.327647,46.9769267 165.574706,53.06326 C163.618824,55.0265933 162.146765,50.4075933 164.987941,48.35126 C168.405588,45.6955933 172.523235,40.4875933 175.56,36.07526 C173.11,35.48626 171.154118,34.1015933 171.154118,31.0635933 C171.154118,26.1449267 175.065882,20.8439267 180.933529,20.8439267 C185.442353,20.8439267 186.708529,24.2849267 184.361471,29.9785933 C186.224706,29.4825933 188.087941,28.8935933 189.642353,28.8935933 L189.642353,28.9969267 C193.070294,28.9969267 196.693824,31.45626 196.693824,33.4195933 C196.693824,34.7939267 187.789412,45.1995933 185.051176,54.24126 C186.708529,52.9599267 194.737941,46.7805933 195.911471,45.6025933 C199.143824,42.4509267 199.432059,47.85526 195.520294,51.4925933" id="Fill-12"></path>
                    <path d="M223.515147,35.0873933 C223.515147,40.78106 219.407794,43.72606 215.485735,43.72606 C212.160735,43.72606 212.160735,41.1737267 213.529853,41.1737267 C218.5225,41.1737267 221.260735,36.06906 217.544559,36.06906 C212.7475,36.06906 203.451912,46.08206 203.451912,53.46006 C203.451912,63.5763933 225.378382,46.08206 225.965147,45.5963933 C230.268088,41.9693933 228.404853,48.84106 225.573971,51.4863933 C220.869559,56.0123933 212.551912,63.38006 203.843088,63.38006 C198.366618,63.38006 194.743088,58.6577267 194.743088,52.6747267 C194.743088,40.5847267 209.329853,28.8047267 216.268088,28.8047267 C220.190147,28.8047267 223.515147,30.9643933 223.515147,35.0873933" id="Fill-14"></path>
                    <path d="M264.103824,51.4905267 C261.653824,53.7535267 251.483235,63.28086 248.940588,63.28086 C247.962647,63.28086 245.903824,61.8031933 245.903824,55.71686 C245.903824,50.41586 248.353824,43.53386 251.092059,38.1295267 C231.615588,54.04286 229.567059,60.6251933 229.464118,61.4105267 C229.464118,61.4105267 229.464118,61.51386 229.361176,61.51386 C229.165588,62.78486 228.97,63.28086 227.600882,63.28086 C224.77,63.28086 223.987647,59.83986 223.987647,57.3805267 C223.987647,38.82186 244.040588,8.65886 247.17,8.65886 C248.549412,8.65886 254.808235,11.8105267 254.808235,13.6705267 C254.808235,16.0265267 247.767059,18.3825267 234.652353,47.4605267 C242.383235,39.3075267 255.199412,28.7985267 258.133235,28.7985267 C261.561176,28.7985267 265.277353,31.25786 265.277353,33.2211933 C265.277353,34.5955267 256.280294,45.1045267 253.439118,54.2391933 C255.096471,52.9681933 263.228824,46.6751933 264.402353,45.6005267 C267.727353,42.35586 267.922941,47.8531933 264.103824,51.4905267" id="Fill-16"></path>
                    <path d="M311.819118,72.51576 C312.498529,73.19776 312.302941,74.87176 309.760294,74.87176 C306.919118,74.87176 304.283824,71.6270933 304.283824,64.8484267 C304.283824,50.6090933 321.022059,22.8020933 330.997059,9.15176 C311.427941,12.68576 297.036765,26.9354267 297.036765,35.1814267 C297.036765,37.7440933 297.726471,39.7074267 297.726471,39.7074267 C297.726471,39.7074267 291.457353,38.22976 291.457353,30.9654267 C291.457353,17.80076 313.775,1.19509333 338.141176,1.19509333 C339.510294,1.19509333 345.769118,4.33642667 345.769118,6.20676 C345.769118,8.75909333 309.760294,50.7020933 310.058824,70.3560933 C310.058824,73.4974267 311.520588,72.2160933 311.819118,72.51576" id="Fill-18"></path>
                    <path d="M379.806618,51.4905267 C377.356618,53.7535267 367.278676,63.1775267 364.736029,63.1775267 C363.758088,63.1775267 361.699265,61.7101933 361.699265,55.6135267 C361.699265,51.09786 363.469853,45.4971933 365.713971,40.58886 C352.897794,51.2011933 348.203676,60.42886 347.318382,62.19586 C347.019853,62.8881933 346.731618,63.1775267 345.753676,63.1775267 C342.9125,63.1775267 342.130147,59.74686 342.130147,57.2875267 C342.130147,51.3975267 343.890441,45.4971933 346.041912,40.49586 C333.8125,50.8085267 329.6125,59.6435267 328.727206,61.9995267 C328.428676,62.78486 328.130147,63.1775267 327.059559,63.1775267 C324.228676,63.1775267 323.436029,59.74686 323.436029,57.2875267 C323.436029,43.44086 333.318382,28.8915267 335.480147,28.8915267 C339.000735,28.8915267 343.211029,31.6505267 343.211029,34.4921933 C343.211029,35.7735267 339.690441,37.3441933 334.008088,48.3491933 C341.543382,39.0181933 351.1375,28.99486 354.163971,28.8915267 C357.694853,28.8915267 361.894853,31.6505267 361.894853,34.4921933 C361.894853,35.7735267 358.281618,37.3441933 352.506618,48.64886 C360.433088,39.2145267 370.902206,28.8915267 373.938971,28.8915267 C377.356618,28.8915267 380.980147,31.35086 380.980147,33.3245267 C380.980147,34.69886 372.075735,45.1045267 369.234559,54.2391933 C370.902206,52.9681933 378.931618,46.6751933 380.094853,45.6005267 C383.430147,42.35586 383.625735,47.8531933 379.806618,51.4905267" id="Fill-20"></path>
                    <path d="M412.463676,36.2684933 C412.463676,40.9804933 404.629853,63.1764933 394.850441,63.1764933 C390.156324,63.1764933 387.901912,57.2864933 389.950441,55.32316 C390.835735,54.3414933 390.938676,55.6228267 391.618088,55.6228267 C399.544559,55.6228267 404.732794,36.5578267 404.732794,36.5578267 C404.732794,36.5578267 392.307794,43.8324933 383.393088,63.5794933 C380.366618,70.45116 377.041618,78.69716 373.510735,88.52416 C372.440147,91.5724933 373.901912,92.55416 373.119559,92.7504933 C371.359265,93.23616 367.550441,90.5908267 367.550441,85.67216 C367.550441,70.45116 389.662206,29.2934933 391.123971,29.2934933 C394.551912,29.2934933 398.175441,31.6494933 398.175441,33.6128267 C398.175441,34.2018267 396.898971,36.2684933 394.654853,40.3914933 C399.832794,34.1088267 404.825441,29.19016 407.965147,29.19016 C410.796029,29.19016 412.463676,31.94916 412.463676,36.2684933" id="Fill-22"></path>
                    <path d="M436.645588,35.0873933 C436.738235,34.98406 436.841176,34.89106 436.933824,34.6947267 C436.542647,34.6017267 436.151471,34.6017267 435.667647,34.6017267 C427.154412,34.6017267 415.8,53.9457267 419.711765,53.9457267 C422.161765,53.9457267 436.347059,35.48006 436.645588,35.0873933 M447.897059,51.3933933 C445.447059,53.7493933 435.369118,63.1837267 432.929412,63.1837267 C431.941176,63.1837267 429.789706,61.6027267 429.789706,55.6197267 C429.789706,54.0387267 429.995588,52.28206 430.386765,50.51506 C426.464706,56.2087267 421.080882,63.1837267 417.755882,63.1837267 C413.257353,63.1837267 410.025,59.1537267 410.025,53.8423933 C410.025,43.9223933 421.276471,28.8977267 433.413235,28.8977267 C435.955882,28.8977267 437.427941,30.86106 438.210294,32.7313933 C439.775,30.36506 441.247059,28.8977267 442.019118,28.8977267 C445.447059,28.8977267 449.070588,31.2537267 449.070588,33.21706 C449.070588,34.6947267 440.166176,45.1107267 437.427941,54.2453933 C439.085294,52.87106 447.114706,46.6813933 448.288235,45.5963933 C451.520588,42.36206 451.808824,47.8593933 447.897059,51.3933933" id="Fill-25"></path>
                    <path d="M476.233676,35.0873933 C476.233676,40.78106 472.136618,43.72606 468.214559,43.72606 C464.879265,43.72606 464.879265,41.1737267 466.248382,41.1737267 C471.251324,41.1737267 473.989559,36.06906 470.273382,36.06906 C465.476324,36.06906 456.180735,46.08206 456.180735,53.46006 C456.180735,63.5763933 478.096912,46.08206 478.683676,45.5963933 C482.986618,41.9693933 481.133676,48.84106 478.2925,51.4863933 C473.598382,56.0123933 465.280735,63.38006 456.571912,63.38006 C451.085147,63.38006 447.471912,58.6577267 447.471912,52.6747267 C447.471912,40.5847267 462.048382,28.8047267 468.996912,28.8047267 C472.908676,28.8047267 476.233676,30.9643933 476.233676,35.0873933" id="Fill-27"></path>
                    <path d="M521.129412,17.0143933 C521.129412,19.6597267 518.586765,22.2223933 517.907353,21.53006 C517.217647,20.84806 519.657353,17.3037267 517.608824,17.3037267 C517.217647,17.3037267 509.301471,18.6883933 502.445588,19.3703933 C497.154412,26.73806 491.379412,37.3503933 484.533824,53.8423933 C488.836765,50.60806 494.323529,46.2887267 495.105882,45.5963933 C498.327941,42.36206 498.616176,47.8593933 494.714706,51.4863933 C492.563235,53.55306 484.338235,61.6027267 481.404412,62.9873933 C481.404412,62.9873933 480.817647,63.1837267 480.323529,63.1837267 C477.492647,63.1837267 476.710294,59.7427267 476.710294,57.2833933 C476.710294,46.9707267 483.854412,31.8427267 490.988235,19.85606 L490.885294,19.85606 C485.717647,19.85606 481.208824,18.2957267 481.208824,13.37706 C481.208824,9.45039333 484.533824,7.68339333 485.120588,8.17939333 C486.191176,9.34706 481.692647,12.9843933 487.179412,12.9843933 C488.744118,12.9843933 492.172059,12.69506 495.888235,12.19906 C500.386765,5.61672667 502.147059,3.94272667 503.330882,3.94272667 C504.689706,3.94272667 509.980882,6.40206 509.980882,8.36539333 C509.980882,9.05772667 510.176471,8.95439333 508.210294,11.4137267 C516.630882,9.93606 521.129412,14.46206 521.129412,17.0143933" id="Fill-29"></path>
                </g>
            </g>
        </g>
    </g>
</svg>