<?xml version="1.0" encoding="UTF-8"?>
<svg width="530px" height="235px" viewBox="0 0 530 235" version="1.1" xmlns="http://www.w3.org/2000/svg" xmlns:xlink="http://www.w3.org/1999/xlink">
    <!-- Generator: Sketch 50.2 (55047) - http://www.bohemiancoding.com/sketch -->
    <title>Group 7</title>
    <desc>Created with Sketch.</desc>
    <defs>
        <filter x="-1.3%" y="-5.4%" width="102.7%" height="115.1%" filterUnits="objectBoundingBox" id="filter-1">
            <feOffset dx="0" dy="2" in="SourceAlpha" result="shadowOffsetOuter1"></feOffset>
            <feGaussianBlur stdDeviation="2" in="shadowOffsetOuter1" result="shadowBlurOuter1"></feGaussianBlur>
            <feColorMatrix values="0 0 0 0 0   0 0 0 0 0   0 0 0 0 0  0 0 0 0.5 0" type="matrix" in="shadowBlurOuter1" result="shadowMatrixOuter1"></feColorMatrix>
            <feMerge>
                <feMergeNode in="shadowMatrixOuter1"></feMergeNode>
                <feMergeNode in="SourceGraphic"></feMergeNode>
            </feMerge>
        </filter>
        <filter x="-1.3%" y="-5.2%" width="102.7%" height="115.6%" filterUnits="objectBoundingBox" id="filter-2">
            <feOffset dx="0" dy="2" in="SourceAlpha" result="shadowOffsetOuter1"></feOffset>
            <feGaussianBlur stdDeviation="2" in="shadowOffsetOuter1" result="shadowBlurOuter1"></feGaussianBlur>
            <feColorMatrix values="0 0 0 0 0   0 0 0 0 0   0 0 0 0 0  0 0 0 0.5 0" type="matrix" in="shadowBlurOuter1" result="shadowMatrixOuter1"></feColorMatrix>
            <feMerge>
                <feMergeNode in="shadowMatrixOuter1"></feMergeNode>
                <feMergeNode in="SourceGraphic"></feMergeNode>
            </feMerge>
        </filter>
        <polygon id="path-3" points="0.720085919 0.636297603 35.6330406 0.636297603 35.6330406 18.6032998 0.720085919 18.6032998"></polygon>
    </defs>
    <g id="Page-1" stroke="none" stroke-width="1" fill="none" fill-rule="evenodd">
        <g id="phase4" transform="translate(-448.000000, -102.000000)">
            <g id="Group-7" transform="translate(452.000000, 104.000000)">
                <g id="total-logo" filter="url(#filter-1)" transform="translate(0.000000, 134.000000)" fill="#FFFFFF">
                    <g id="Page-1">
                        <path d="M30.0433824,48.6447267 C29.3639706,48.6447267 28.6742647,48.5413933 28.0875,48.4483933 C32.8845588,56.8907267 43.8375,74.2817267 51.6713235,74.2817267 C54.0183824,74.2817267 53.8227941,72.5147267 54.2139706,72.12206 C54.7080882,71.7293933 55.4904412,71.9257267 55.4904412,73.5997267 C55.4904412,76.3483933 50.3948529,79.09706 47.4610294,79.09706 C37.8669118,79.09706 25.0507353,59.7427267 19.3786765,50.2153933 C15.8580882,56.99406 13.2125,64.1653933 13.2125,70.8407267 C13.2125,73.88906 14.6742647,72.71106 14.9727941,73.0003933 C15.6625,73.6927267 15.4566176,75.3563933 12.8213235,75.3563933 C9.98014706,75.3563933 7.33455882,72.0187267 7.33455882,65.24006 C7.33455882,46.8777267 29.0654412,15.14406 32.1948529,15.14406 C33.5639706,15.14406 39.8330882,18.2853933 39.8330882,20.2487267 C39.8330882,21.6333933 31.4125,30.76806 23.9801471,42.36206 C35.1286765,41.0807267 59.0110294,26.4487267 59.0110294,13.5733933 C59.0110294,9.54339333 53.8227941,8.07606 49.3242647,8.07606 C24.8551471,8.07606 5.67720588,25.65306 5.67720588,35.3767267 C5.67720588,37.9393933 6.35661765,39.9027267 6.35661765,39.9027267 C6.35661765,39.9027267 0.00514705882,38.3217267 0.00514705882,31.0573933 C0.00514705882,17.6963933 22.6007353,0.997726667 47.1727941,0.997726667 C60.1845588,0.997726667 65.7639706,9.93606 65.7639706,14.8443933 C65.7639706,29.68306 43.1580882,48.6447267 30.0433824,48.6447267" id="Fill-1"></path>
                        <path d="M61.8398529,44.6136933 C67.5119118,43.73536 74.8619118,36.3676933 72.3089706,36.3676933 C69.4780882,36.3676933 64.8766176,39.9946933 61.8398529,44.6136933 M81.6045588,48.1476933 C78.0839706,53.4590267 68.2016176,63.1826933 58.8133824,63.1826933 C53.4295588,63.1826933 49.8986765,58.6566933 49.8986765,52.6736933 C49.8986765,40.7800267 64.1869118,29.19636 71.1354412,29.19636 C74.9545588,29.19636 78.1766176,31.2630267 78.1766176,36.26436 C78.1766176,40.0980267 72.1133824,49.53236 64.8766176,49.53236 C62.6222059,49.53236 61.1604412,48.1476933 60.4707353,46.8766933 C59.2045588,48.9330267 57.2383824,54.6370267 61.4486765,55.42236 C68.8913235,56.7966933 76.3236765,49.2326933 80.6266176,45.6986933 C84.9398529,42.1646933 82.4898529,47.0730267 81.6045588,48.1476933" id="Fill-4"></path>
                        <path d="M85.9363235,62.29816 C84.1760294,62.88716 82.3127941,63.1764933 80.4598529,63.1764933 L79.5745588,63.1764933 C81.4377941,65.4394933 83.2907353,67.7954933 84.6598529,66.42116 C85.2569118,65.83216 85.6480882,64.3648267 85.9363235,62.29816 M101.984853,51.4894933 C100.121618,53.3598267 97.6819118,55.5194933 94.9436765,57.5758267 C94.8407353,66.5244933 93.6672059,75.07016 85.3495588,75.07016 C79.7701471,75.07016 75.8583824,63.1764933 73.5010294,63.1764933 C71.4525,63.1764933 71.9466176,60.1384933 74.4892647,59.6424933 C74.2936765,58.17516 74.9730882,56.6974933 75.3642647,56.6974933 C76.2495588,56.6974933 76.3422059,58.17516 79.5745588,58.17516 C81.6333824,58.17516 83.8775,57.4828267 86.3275,56.40816 C86.4201471,52.2748267 86.3275,47.5628267 86.2245588,43.72916 C83.5892647,46.8704933 80.4598529,50.02216 76.9289706,53.2564933 C74.9730882,55.2198267 73.2127941,50.4148267 76.0539706,48.25516 C79.3789706,45.5994933 83.7848529,40.3914933 87.1098529,35.48316 C88.8701471,31.2568267 92.6892647,29.09716 94.5422059,29.09716 C98.0730882,29.09716 103.940735,30.5644933 96.6010294,38.0354933 C94.6451471,39.9988267 94.6451471,45.40316 94.8407353,51.4894933 C97.9701471,49.3298267 100.615735,47.0668267 102.376029,45.7028267 C106.678971,42.0654933 104.723088,48.84416 101.984853,51.4894933" id="Fill-6"></path>
                        <path d="M112.607353,44.6136933 C118.279412,43.73536 125.629412,36.3676933 123.076471,36.3676933 C120.245588,36.3676933 115.644118,39.9946933 112.607353,44.6136933 M132.372059,48.1476933 C128.851471,53.4590267 118.969118,63.1826933 109.580882,63.1826933 C104.197059,63.1826933 100.666176,58.6566933 100.666176,52.6736933 C100.666176,40.7800267 114.954412,29.19636 121.902941,29.19636 C125.722059,29.19636 128.944118,31.2630267 128.944118,36.26436 C128.944118,40.0980267 122.880882,49.53236 115.644118,49.53236 C113.389706,49.53236 111.927941,48.1476933 111.238235,46.8766933 C109.972059,48.9330267 108.005882,54.6370267 112.216176,55.42236 C119.658824,56.7966933 127.091176,49.2326933 131.394118,45.6986933 C135.707353,42.1646933 133.257353,47.0730267 132.372059,48.1476933" id="Fill-8"></path>
                        <path d="M154.985147,35.0873933 C155.088088,34.98406 155.180735,34.89106 155.283676,34.6947267 C154.8925,34.6017267 154.501324,34.6017267 154.007206,34.6017267 C145.493971,34.6017267 134.149853,53.9457267 138.051324,53.9457267 C140.501324,53.9457267 154.696912,35.48006 154.985147,35.0873933 M166.236618,51.3933933 C163.796912,53.7493933 153.708676,63.1837267 151.268971,63.1837267 C150.291029,63.1837267 148.139559,61.6027267 148.139559,55.6197267 C148.139559,54.0387267 148.335147,52.28206 148.726324,50.51506 C144.814559,56.2087267 139.430735,63.1837267 136.105735,63.1837267 C131.596912,63.1837267 128.374853,59.1537267 128.374853,53.8423933 C128.374853,43.9223933 139.626324,28.8977267 151.763088,28.8977267 C154.305735,28.8977267 155.7675,30.86106 156.549853,32.7313933 C158.124853,30.36506 159.586618,28.8977267 160.368971,28.8977267 C163.796912,28.8977267 167.420441,31.2537267 167.420441,33.21706 C167.420441,34.6947267 158.505735,45.1107267 155.7675,54.2453933 C157.435147,52.87106 165.464559,46.6813933 166.627794,45.5963933 C169.860147,42.36206 170.158676,47.8593933 166.236618,51.3933933" id="Fill-10"></path>
                        <path d="M178.689412,30.7639267 C179.965882,28.1185933 180.254118,26.24826 178.885,26.24826 C176.435,26.24826 175.065882,30.1749267 178.689412,30.7639267 M195.520294,51.4925933 C193.070294,53.7555933 183.095294,63.1795933 180.552647,63.1795933 C179.564412,63.1795933 177.515882,61.71226 177.515882,55.6155933 C177.515882,51.0999267 182.014412,40.6839267 184.268824,35.7755933 C184.268824,35.7755933 182.796765,36.07526 180.840882,36.2715933 C177.608529,41.0869267 172.327647,46.9769267 165.574706,53.06326 C163.618824,55.0265933 162.146765,50.4075933 164.987941,48.35126 C168.405588,45.6955933 172.523235,40.4875933 175.56,36.07526 C173.11,35.48626 171.154118,34.1015933 171.154118,31.0635933 C171.154118,26.1449267 175.065882,20.8439267 180.933529,20.8439267 C185.442353,20.8439267 186.708529,24.2849267 184.361471,29.9785933 C186.224706,29.4825933 188.087941,28.8935933 189.642353,28.8935933 L189.642353,28.9969267 C193.070294,28.9969267 196.693824,31.45626 196.693824,33.4195933 C196.693824,34.7939267 187.789412,45.1995933 185.051176,54.24126 C186.708529,52.9599267 194.737941,46.7805933 195.911471,45.6025933 C199.143824,42.4509267 199.432059,47.85526 195.520294,51.4925933" id="Fill-12"></path>
                        <path d="M223.515147,35.0873933 C223.515147,40.78106 219.407794,43.72606 215.485735,43.72606 C212.160735,43.72606 212.160735,41.1737267 213.529853,41.1737267 C218.5225,41.1737267 221.260735,36.06906 217.544559,36.06906 C212.7475,36.06906 203.451912,46.08206 203.451912,53.46006 C203.451912,63.5763933 225.378382,46.08206 225.965147,45.5963933 C230.268088,41.9693933 228.404853,48.84106 225.573971,51.4863933 C220.869559,56.0123933 212.551912,63.38006 203.843088,63.38006 C198.366618,63.38006 194.743088,58.6577267 194.743088,52.6747267 C194.743088,40.5847267 209.329853,28.8047267 216.268088,28.8047267 C220.190147,28.8047267 223.515147,30.9643933 223.515147,35.0873933" id="Fill-14"></path>
                        <path d="M264.103824,51.4905267 C261.653824,53.7535267 251.483235,63.28086 248.940588,63.28086 C247.962647,63.28086 245.903824,61.8031933 245.903824,55.71686 C245.903824,50.41586 248.353824,43.53386 251.092059,38.1295267 C231.615588,54.04286 229.567059,60.6251933 229.464118,61.4105267 C229.464118,61.4105267 229.464118,61.51386 229.361176,61.51386 C229.165588,62.78486 228.97,63.28086 227.600882,63.28086 C224.77,63.28086 223.987647,59.83986 223.987647,57.3805267 C223.987647,38.82186 244.040588,8.65886 247.17,8.65886 C248.549412,8.65886 254.808235,11.8105267 254.808235,13.6705267 C254.808235,16.0265267 247.767059,18.3825267 234.652353,47.4605267 C242.383235,39.3075267 255.199412,28.7985267 258.133235,28.7985267 C261.561176,28.7985267 265.277353,31.25786 265.277353,33.2211933 C265.277353,34.5955267 256.280294,45.1045267 253.439118,54.2391933 C255.096471,52.9681933 263.228824,46.6751933 264.402353,45.6005267 C267.727353,42.35586 267.922941,47.8531933 264.103824,51.4905267" id="Fill-16"></path>
                        <path d="M311.819118,72.51576 C312.498529,73.19776 312.302941,74.87176 309.760294,74.87176 C306.919118,74.87176 304.283824,71.6270933 304.283824,64.8484267 C304.283824,50.6090933 321.022059,22.8020933 330.997059,9.15176 C311.427941,12.68576 297.036765,26.9354267 297.036765,35.1814267 C297.036765,37.7440933 297.726471,39.7074267 297.726471,39.7074267 C297.726471,39.7074267 291.457353,38.22976 291.457353,30.9654267 C291.457353,17.80076 313.775,1.19509333 338.141176,1.19509333 C339.510294,1.19509333 345.769118,4.33642667 345.769118,6.20676 C345.769118,8.75909333 309.760294,50.7020933 310.058824,70.3560933 C310.058824,73.4974267 311.520588,72.2160933 311.819118,72.51576" id="Fill-18"></path>
                        <path d="M379.806618,51.4905267 C377.356618,53.7535267 367.278676,63.1775267 364.736029,63.1775267 C363.758088,63.1775267 361.699265,61.7101933 361.699265,55.6135267 C361.699265,51.09786 363.469853,45.4971933 365.713971,40.58886 C352.897794,51.2011933 348.203676,60.42886 347.318382,62.19586 C347.019853,62.8881933 346.731618,63.1775267 345.753676,63.1775267 C342.9125,63.1775267 342.130147,59.74686 342.130147,57.2875267 C342.130147,51.3975267 343.890441,45.4971933 346.041912,40.49586 C333.8125,50.8085267 329.6125,59.6435267 328.727206,61.9995267 C328.428676,62.78486 328.130147,63.1775267 327.059559,63.1775267 C324.228676,63.1775267 323.436029,59.74686 323.436029,57.2875267 C323.436029,43.44086 333.318382,28.8915267 335.480147,28.8915267 C339.000735,28.8915267 343.211029,31.6505267 343.211029,34.4921933 C343.211029,35.7735267 339.690441,37.3441933 334.008088,48.3491933 C341.543382,39.0181933 351.1375,28.99486 354.163971,28.8915267 C357.694853,28.8915267 361.894853,31.6505267 361.894853,34.4921933 C361.894853,35.7735267 358.281618,37.3441933 352.506618,48.64886 C360.433088,39.2145267 370.902206,28.8915267 373.938971,28.8915267 C377.356618,28.8915267 380.980147,31.35086 380.980147,33.3245267 C380.980147,34.69886 372.075735,45.1045267 369.234559,54.2391933 C370.902206,52.9681933 378.931618,46.6751933 380.094853,45.6005267 C383.430147,42.35586 383.625735,47.8531933 379.806618,51.4905267" id="Fill-20"></path>
                        <path d="M412.463676,36.2684933 C412.463676,40.9804933 404.629853,63.1764933 394.850441,63.1764933 C390.156324,63.1764933 387.901912,57.2864933 389.950441,55.32316 C390.835735,54.3414933 390.938676,55.6228267 391.618088,55.6228267 C399.544559,55.6228267 404.732794,36.5578267 404.732794,36.5578267 C404.732794,36.5578267 392.307794,43.8324933 383.393088,63.5794933 C380.366618,70.45116 377.041618,78.69716 373.510735,88.52416 C372.440147,91.5724933 373.901912,92.55416 373.119559,92.7504933 C371.359265,93.23616 367.550441,90.5908267 367.550441,85.67216 C367.550441,70.45116 389.662206,29.2934933 391.123971,29.2934933 C394.551912,29.2934933 398.175441,31.6494933 398.175441,33.6128267 C398.175441,34.2018267 396.898971,36.2684933 394.654853,40.3914933 C399.832794,34.1088267 404.825441,29.19016 407.965147,29.19016 C410.796029,29.19016 412.463676,31.94916 412.463676,36.2684933" id="Fill-22"></path>
                        <path d="M436.645588,35.0873933 C436.738235,34.98406 436.841176,34.89106 436.933824,34.6947267 C436.542647,34.6017267 436.151471,34.6017267 435.667647,34.6017267 C427.154412,34.6017267 415.8,53.9457267 419.711765,53.9457267 C422.161765,53.9457267 436.347059,35.48006 436.645588,35.0873933 M447.897059,51.3933933 C445.447059,53.7493933 435.369118,63.1837267 432.929412,63.1837267 C431.941176,63.1837267 429.789706,61.6027267 429.789706,55.6197267 C429.789706,54.0387267 429.995588,52.28206 430.386765,50.51506 C426.464706,56.2087267 421.080882,63.1837267 417.755882,63.1837267 C413.257353,63.1837267 410.025,59.1537267 410.025,53.8423933 C410.025,43.9223933 421.276471,28.8977267 433.413235,28.8977267 C435.955882,28.8977267 437.427941,30.86106 438.210294,32.7313933 C439.775,30.36506 441.247059,28.8977267 442.019118,28.8977267 C445.447059,28.8977267 449.070588,31.2537267 449.070588,33.21706 C449.070588,34.6947267 440.166176,45.1107267 437.427941,54.2453933 C439.085294,52.87106 447.114706,46.6813933 448.288235,45.5963933 C451.520588,42.36206 451.808824,47.8593933 447.897059,51.3933933" id="Fill-25"></path>
                        <path d="M476.233676,35.0873933 C476.233676,40.78106 472.136618,43.72606 468.214559,43.72606 C464.879265,43.72606 464.879265,41.1737267 466.248382,41.1737267 C471.251324,41.1737267 473.989559,36.06906 470.273382,36.06906 C465.476324,36.06906 456.180735,46.08206 456.180735,53.46006 C456.180735,63.5763933 478.096912,46.08206 478.683676,45.5963933 C482.986618,41.9693933 481.133676,48.84106 478.2925,51.4863933 C473.598382,56.0123933 465.280735,63.38006 456.571912,63.38006 C451.085147,63.38006 447.471912,58.6577267 447.471912,52.6747267 C447.471912,40.5847267 462.048382,28.8047267 468.996912,28.8047267 C472.908676,28.8047267 476.233676,30.9643933 476.233676,35.0873933" id="Fill-27"></path>
                        <path d="M521.129412,17.0143933 C521.129412,19.6597267 518.586765,22.2223933 517.907353,21.53006 C517.217647,20.84806 519.657353,17.3037267 517.608824,17.3037267 C517.217647,17.3037267 509.301471,18.6883933 502.445588,19.3703933 C497.154412,26.73806 491.379412,37.3503933 484.533824,53.8423933 C488.836765,50.60806 494.323529,46.2887267 495.105882,45.5963933 C498.327941,42.36206 498.616176,47.8593933 494.714706,51.4863933 C492.563235,53.55306 484.338235,61.6027267 481.404412,62.9873933 C481.404412,62.9873933 480.817647,63.1837267 480.323529,63.1837267 C477.492647,63.1837267 476.710294,59.7427267 476.710294,57.2833933 C476.710294,46.9707267 483.854412,31.8427267 490.988235,19.85606 L490.885294,19.85606 C485.717647,19.85606 481.208824,18.2957267 481.208824,13.37706 C481.208824,9.45039333 484.533824,7.68339333 485.120588,8.17939333 C486.191176,9.34706 481.692647,12.9843933 487.179412,12.9843933 C488.744118,12.9843933 492.172059,12.69506 495.888235,12.19906 C500.386765,5.61672667 502.147059,3.94272667 503.330882,3.94272667 C504.689706,3.94272667 509.980882,6.40206 509.980882,8.36539333 C509.980882,9.05772667 510.176471,8.95439333 508.210294,11.4137267 C516.630882,9.93606 521.129412,14.46206 521.129412,17.0143933" id="Fill-29"></path>
                    </g>
                </g>
                <g id="Group" filter="url(#filter-2)">
                    <path d="M63.9007733,36.6126388 C64.4962768,26.0122445 62.5079427,15.8763101 58.5100955,6.7850991 C57.652969,4.83386946 56.6700143,2.95361627 55.6334893,1.1082287 L0,1.1082287 L0,95.7596762 L16.0262721,95.7596762 C42.3118998,88.5848293 62.2824487,65.302065 63.9007733,36.6126388" id="Fill-1" fill="#FFFFFF"></path>
                    <path d="M62.0893461,1.1082287 C67.8612458,9.08872056 72.0908162,18.3679568 74.1900286,28.6433537 C79.407537,54.1998547 70.2881098,79.3417038 52.3544821,95.7596762 L94.7037566,95.7596762 L94.7037566,1.1082287 L62.0893461,1.1082287" id="Fill-2" fill="#FFFFFF"></path>
                    <path d="M288.723308,32.3391097 L292.109456,23.3973228 L292.694993,23.9066099 C294.770535,25.5988378 297.587341,27.0382899 300.243437,27.0955692 C302.621714,27.150358 303.781575,26.517796 303.466382,24.5067967 C303.233413,23.0050846 301.536601,22.741102 300.47516,22.5331535 L298.151699,22.0686936 C293.62936,21.2232022 289.825862,18.4351977 289.825862,13.1505655 C289.825862,5.16011207 296.714019,0.681124831 303.644535,0.681124831 C307.283585,0.681124831 310.624883,1.60755422 313.749408,3.64096711 L310.815494,11.5641797 C309.203399,10.4036526 306.767814,8.77119436 303.681909,8.66037148 C302.667809,8.62177026 300.343103,9.1547162 301.086859,11.5106361 C301.408282,12.5142679 302.847208,12.936391 303.732988,13.1505655 L306.359184,13.7843727 C311.256516,14.9249767 314.803375,17.7142264 314.803375,23.4197364 C314.803375,31.4512815 307.871613,35.4247172 300.988439,35.4247172 C296.969413,35.4247172 292.317508,34.2816229 288.723308,32.3391097" id="Fill-4" fill="#FFFFFF"></path>
                    <polygon id="Fill-5" fill="#FFFFFF" points="274.434959 34.9191657 286.231661 34.9191657 286.231661 1.23025838 274.434959 1.23025838"></polygon>
                    <polyline id="Fill-6" fill="#FFFFFF" points="261.132057 1.22901318 273.214053 1.22901318 260.87168 34.9191657 251.068296 34.9191657 238.76579 1.22901318 250.806673 1.22901318 255.971857 21.5594065 261.132057 1.22901318"></polyline>
                    <path d="M227.730286,10.9540313 C227.944568,12.3872574 230.057484,22.6987652 230.057484,22.6987652 L225.419284,22.6987652 L227.730286,10.9540313 Z M210.146735,34.9191657 L222.404391,34.9191657 L223.337513,30.6879734 L232.083193,30.6879734 L233.244301,34.9191657 L245.509432,34.9191657 L234.029169,1.23025838 L221.171026,1.23025838 L210.146735,34.9191657 Z" id="Fill-7" fill="#FFFFFF"></path>
                    <g id="Group-11" transform="translate(140.778043, 0.000000)" fill="#FFFFFF">
                        <path d="M39.0603007,1.22901318 L51.1435418,1.22901318 C61.927389,1.22901318 70.1660191,6.17744111 70.1660191,18.560963 C70.1660191,28.5375117 63.4535227,34.9191657 54.0226396,34.9191657 L39.0603007,34.9004877 L39.0603007,1.22901318 Z M50.9367351,25.246446 L51.7278329,25.246446 C55.6160477,25.246446 58.5013747,22.9141849 58.5013747,18.5173809 C58.5013747,13.7843727 55.9461909,11.1445471 51.6742625,11.1445471 L50.9367351,11.1445471 L50.9367351,25.246446 Z" id="Fill-8"></path>
                        <path d="M32.0052029,2.28618865 L32.6355895,7.81612535 C32.7825967,9.12732178 33.5338282,12.2751894 32.6044439,11.8530663 C32.0263819,11.5940645 31.5492315,10.1670644 31.0758186,8.89945004 C30.8353747,8.25568123 29.6867255,5.2124105 29.3864821,4.98827436 C27.9326062,3.90370447 24.3109976,2.6784269 21.860463,2.66722009 C14.4303723,2.63982567 9.51559905,8.11870914 9.51559905,17.8424821 C9.51559905,24.8156065 12.8544057,33.1808654 21.3521671,33.1808654 C24.3969594,33.1808654 30.2274129,32.223306 31.8158377,27.8937429 C32.533432,25.9337968 33.1887351,24.1917609 33.6633938,24.7222165 C34.0172076,25.1069835 33.5574988,26.6759365 33.3457088,27.5214278 C32.3440668,31.53471 32.2892506,32.7512711 31.9740573,32.9069212 C28.1344296,34.8357373 23.2109356,35.4695445 18.9028783,35.4695445 C5.198821,35.4695445 0.468429594,27.479091 0.468429594,19.4911279 C0.468429594,5.62830756 8.98861575,-0.210438933 22.1930979,0.387257445 C25.5343962,0.511777524 28.8769403,1.1057383 32.0052029,2.28618865" id="Fill-10"></path>
                    </g>
                    <path d="M132.326377,2.90131784 L130.131236,2.13551935 C129.397446,1.47307253 130.294439,1.28753762 130.294439,1.28753762 C130.294439,1.28753762 133.46506,1.87651759 141.364826,1.20535436 C141.364826,1.20535436 142.050029,1.34357165 141.577862,1.8989312 L138.984057,3.00840511 C137.295967,3.74556397 137.295967,3.3234409 137.295967,5.17256408 L137.281017,22.3413925 C137.281017,35.7696379 123.618072,35.4695445 120.955747,35.4695445 C119.686253,35.4695445 107.15327,35.4695445 107.15327,24.6898412 L107.15327,6.51364533 C107.15327,3.34585452 107.493379,3.42803777 106.439413,3.05821314 L103.270038,1.86904638 C103.270038,1.86904638 102.730597,1.1082287 103.688635,1.15679153 C106.279947,1.28753762 110.029876,1.84165197 118.851551,1.20535436 C118.851551,1.20535436 119.620224,1.39337968 119.11442,1.94749403 L116.477012,2.6908789 C114.46999,3.58991387 114.735351,2.90131784 114.68178,4.96212514 L114.745317,22.8818097 C114.745317,27.2761233 117.007733,32.7176507 124.12263,32.7176507 C133.807661,32.7176507 133.899852,24.3436754 133.899852,22.480855 L133.916048,4.7292726 C134.019451,3.05821314 133.807661,3.53387984 132.326377,2.90131784" id="Fill-12" fill="#FFFFFF"></path>
                    <polygon id="Fill-13" fill="#FFFFFF" points="107.155761 43.7899761 521.657399 43.7899761 521.657399 42.3828992 107.155761 42.3828992"></polygon>
                    <path d="M119.226544,57.8893847 C118.999804,57.5818201 118.741919,57.3128567 118.454134,57.0837398 C118.165103,56.8521324 117.854893,56.6603715 117.519766,56.502231 C117.188377,56.3453357 116.840792,56.2270416 116.47452,56.1461036 C116.109494,56.0664107 115.739484,56.0253191 115.366983,56.0253191 C114.694239,56.0253191 114.080048,56.1461036 113.523165,56.3876725 C112.968773,56.6267511 112.492869,56.9617101 112.099189,57.3850783 C111.704263,57.8084466 111.396544,58.3052817 111.177279,58.8755837 C110.95926,59.4446404 110.849628,60.0597696 110.849628,60.7172357 C110.849628,61.3896441 110.95926,62.0060185 111.177279,62.5688492 C111.396544,63.13168 111.706754,63.6160631 112.109155,64.0207533 C112.511556,64.4266888 112.994936,64.7454602 113.556802,64.9745772 C114.119914,65.2036941 114.744072,65.3182526 115.433012,65.3182526 C115.790563,65.3182526 116.145623,65.2784061 116.500683,65.1937325 C116.855742,65.1090588 117.195852,64.9895196 117.519766,64.8326243 C117.846172,64.6744838 118.15389,64.4864584 118.441675,64.2673031 C118.730706,64.0481478 118.993575,63.8003528 119.226544,63.522673 L119.226544,68.793608 C118.860272,68.9031856 118.517671,69.0077825 118.195002,69.1073986 C117.874826,69.2045242 117.559632,69.2891979 117.251914,69.3589291 C116.945442,69.4286604 116.637723,69.4834492 116.325021,69.5232956 C116.014811,69.5643873 115.68716,69.5843105 115.344558,69.5843105 C114.15978,69.5843105 113.024835,69.3676455 111.939723,68.9368061 C110.853365,68.5059666 109.869165,67.8920826 108.983384,67.0951541 C108.049017,66.2484176 107.361322,65.2846321 106.922792,64.2075335 C106.484263,63.1304348 106.264998,61.9587008 106.264998,60.6960672 C106.264998,59.5330497 106.478033,58.418595 106.901613,57.3527031 C107.325193,56.285566 107.946859,55.3354778 108.765365,54.5024385 C109.182716,54.0790703 109.638687,53.6967936 110.135771,53.3568538 C110.632854,53.0181592 111.158592,52.7280274 111.710492,52.490194 C112.2599,52.2536059 112.832979,52.0718066 113.42599,51.9485317 C114.017757,51.8240116 114.609523,51.7617516 115.201289,51.7617516 C115.911408,51.7617516 116.595365,51.8377088 117.251914,51.9871329 C117.910955,52.1378022 118.568749,52.3457508 119.226544,52.6184497 L119.226544,57.8893847" id="Fill-14" fill="#FFFFFF"></path>
                    <path d="M131.915255,55.9157414 C131.257461,55.9157414 130.638286,56.0377711 130.06147,56.2830756 C129.484654,56.5283802 128.977604,56.8571132 128.542811,57.2705199 C128.109265,57.6826813 127.764172,58.158348 127.512516,58.6937844 C127.260859,59.2317111 127.133785,59.7920515 127.133785,60.3772958 C127.133785,61.1082287 127.260859,61.7818823 127.512516,62.3995019 C127.764172,63.0158763 128.109265,63.5488222 128.542811,63.9983397 C128.977604,64.4478572 129.484654,64.7977586 130.06147,65.0505344 C130.638286,65.3033102 131.257461,65.4303206 131.915255,65.4303206 C132.571804,65.4303206 133.192224,65.3033102 133.772778,65.0505344 C134.354578,64.7977586 134.860382,64.4478572 135.291437,63.9983397 C135.722492,63.5488222 136.065093,63.0158763 136.315504,62.3995019 C136.569652,61.7818823 136.696726,61.1082287 136.696726,60.3772958 C136.696726,59.7920515 136.569652,59.2317111 136.315504,58.6937844 C136.065093,58.158348 135.722492,57.6826813 135.291437,57.2705199 C134.860382,56.8571132 134.354578,56.5283802 133.772778,56.2830756 C133.192224,56.0377711 132.571804,55.9157414 131.915255,55.9157414 M131.915255,51.6521739 C132.726286,51.6521739 133.521122,51.7492996 134.299761,51.9435509 C135.078401,52.1378022 135.814683,52.4117464 136.508606,52.7703642 C137.203776,53.1277368 137.844129,53.5648023 138.42842,54.0803155 C139.012711,54.5958286 139.516024,55.1760921 139.935866,55.8235966 C140.356955,56.4698558 140.685852,57.172149 140.923804,57.9329667 C141.160511,58.6925392 141.28011,59.5006745 141.28011,60.3548822 C141.28011,61.7283387 141.048387,62.9872367 140.583695,64.130331 C140.119002,65.2746705 139.469928,66.257134 138.636473,67.0789665 C137.803017,67.9020442 136.815079,68.5420774 135.670167,69.0015565 C134.526501,69.4622808 133.274449,69.6926429 131.915255,69.6926429 C131.00705,69.6926429 130.147432,69.5892913 129.332663,69.3813427 C128.517895,69.1733942 127.764172,68.874546 127.07274,68.4872886 C126.382554,68.1012763 125.758396,67.6293452 125.199021,67.0789665 C124.638401,66.5273425 124.163742,65.9047421 123.772554,65.2111653 C123.382611,64.5163433 123.079876,63.7605064 122.869332,62.9473903 C122.657542,62.1317838 122.550401,61.2688596 122.550401,60.3548822 C122.550401,59.5006745 122.67,58.6925392 122.906706,57.9329667 C123.144659,57.172149 123.474802,56.4698558 123.899628,55.8235966 C124.323208,55.1760921 124.825274,54.5958286 125.407074,54.0803155 C125.987628,53.5648023 126.626735,53.1277368 127.320659,52.7703642 C128.014582,52.4117464 128.750864,52.1378022 129.529504,51.9435509 C130.309389,51.7492996 131.102979,51.6521739 131.915255,51.6521739" id="Fill-15" fill="#FFFFFF"></path>
                    <polyline id="Fill-16" fill="#FFFFFF" points="149.456449 65.407907 154.741232 65.407907 154.741232 69.134793 145.058692 69.134793 145.058692 52.2112691 149.456449 52.2112691 149.456449 65.407907"></polyline>
                    <polyline id="Fill-17" fill="#FFFFFF" points="163.09074 65.407907 168.376768 65.407907 168.376768 69.134793 158.692983 69.134793 158.692983 52.2112691 163.09074 52.2112691 163.09074 65.407907"></polyline>
                    <polyline id="Fill-18" fill="#FFFFFF" points="176.725031 55.938155 176.725031 58.7647608 181.690883 58.7647608 181.690883 62.492892 176.725031 62.492892 176.725031 65.407907 181.96621 65.407907 181.96621 69.1323026 172.327274 69.1323026 172.327274 52.2112691 181.96621 52.2112691 181.96621 55.938155 176.725031 55.938155"></polyline>
                    <path d="M203.649766,59.6862094 C203.637308,60.3000934 203.6099,60.8952994 203.573771,61.4730725 C203.536396,62.0496005 203.457909,62.6149217 203.337064,63.1665456 C203.218711,63.7169244 203.045542,64.2598319 202.822539,64.787797 C202.599537,65.3182526 202.296802,65.8462177 201.918072,66.3729376 C201.500721,66.9494656 201.036029,67.4475459 200.525241,67.8671786 C200.013208,68.2880564 199.461308,68.6342223 198.868296,68.9044308 C198.277776,69.1733942 197.652372,69.3738715 196.995823,69.500882 C196.335537,69.6291377 195.65158,69.6926429 194.943952,69.6926429 C193.613413,69.6926429 192.393752,69.4772232 191.286215,69.0476289 C190.179924,68.6155443 189.226869,68.0078863 188.430788,67.2221646 C187.633461,66.4351977 187.014286,65.4963163 186.570773,64.3992944 C186.128506,63.3035177 185.907995,62.0906921 185.907995,60.7595725 C185.907995,59.386116 186.130998,58.1384248 186.577002,57.0177441 C187.023007,55.8970634 187.650902,54.939504 188.45695,54.1463111 C189.264243,53.3543634 190.232248,52.7404794 191.358473,52.3046591 C192.483451,51.8700841 193.729274,51.6521739 195.097189,51.6521739 C196.837604,51.6521739 198.361246,52.0456574 199.66936,52.8313791 C200.978721,53.6171008 201.997804,54.8025319 202.729103,56.3876725 L198.553103,58.1309536 C198.397375,57.7287538 198.204272,57.3639099 197.971303,57.0351769 C197.734597,56.7039535 197.465499,56.4212929 197.159026,56.1847048 C196.851308,55.9468714 196.508706,55.7650721 196.127484,55.6368164 C195.747508,55.509806 195.335141,55.4463007 194.890382,55.4463007 C194.166558,55.4463007 193.527451,55.6019508 192.980535,55.9169866 C192.432372,56.2307772 191.973909,56.6416935 191.6039,57.1484902 C191.235136,57.6577773 190.957317,58.2293245 190.77169,58.8643769 C190.584816,59.5006745 190.491379,60.1394625 190.491379,60.7832313 C190.491379,61.4406973 190.588554,62.0844661 190.781656,62.7182733 C190.976005,63.3483449 191.261298,63.9149113 191.637537,64.415482 C192.013776,64.9160527 192.480959,65.3182526 193.04158,65.6220816 C193.599709,65.9259106 194.242554,66.0765798 194.966377,66.0765798 C195.43979,66.0765798 195.884549,66.015565 196.298162,65.8897997 C196.71053,65.7652797 197.071819,65.5797447 197.383274,65.3369306 C197.693484,65.091626 197.947632,64.7865518 198.144473,64.4204628 C198.342558,64.055619 198.463403,63.6285151 198.507007,63.1391512 L194.911561,63.1391512 L194.911561,59.6862094 L203.649766,59.6862094" id="Fill-19" fill="#FFFFFF"></path>
                    <polyline id="Fill-20" fill="#FFFFFF" points="211.772535 55.938155 211.772535 58.7647608 216.739632 58.7647608 216.739632 62.492892 211.772535 62.492892 211.772535 65.407907 217.013714 65.407907 217.013714 69.1323026 207.374778 69.1323026 207.374778 52.2112691 217.013714 52.2112691 217.013714 55.938155 211.772535 55.938155"></polyline>
                    <path d="M235.484291,59.696171 C235.014616,59.696171 234.573594,59.7833351 234.161227,59.9576632 C233.747613,60.1344817 233.385079,60.3673342 233.07736,60.663692 C232.765905,60.9575594 232.520477,61.296254 232.341079,61.6797759 C232.160434,62.0632977 232.071981,62.4654976 232.071981,62.8801494 C232.071981,63.404379 232.160434,63.8837813 232.341079,64.3258275 C232.520477,64.7666286 232.765905,65.1464149 233.07736,65.4689219 C233.385079,65.7876933 233.747613,66.0392238 234.161227,66.2197779 C234.573594,66.3990869 235.014616,66.4899865 235.484291,66.4899865 C235.953967,66.4899865 236.394988,66.3990869 236.809847,66.2197779 C237.227198,66.0392238 237.588487,65.7876933 237.896205,65.4689219 C238.203924,65.1464149 238.446859,64.7666286 238.627504,64.3258275 C238.806902,63.8837813 238.897847,63.404379 238.897847,62.8801494 C238.897847,62.4654976 238.806902,62.0632977 238.627504,61.6797759 C238.446859,61.296254 238.203924,60.9575594 237.896205,60.663692 C237.588487,60.3673342 237.227198,60.1344817 236.809847,59.9576632 C236.394988,59.7833351 235.953967,59.696171 235.484291,59.696171 M235.484291,56.6516551 C236.063599,56.6516551 236.630449,56.7213863 237.186086,56.8596036 C237.742969,56.9990661 238.267461,57.1945626 238.764544,57.451074 C239.259136,57.7050949 239.717599,58.0163951 240.13495,58.3862198 C240.551055,58.753554 240.911098,59.1669607 241.211341,59.6301754 C241.510339,60.0921449 241.744554,60.5939608 241.916477,61.1368683 C242.084663,61.6785307 242.169379,62.2550586 242.169379,62.865207 C242.169379,63.8464252 242.003685,64.7454602 241.672296,65.5610667 C241.340907,66.3766732 240.879952,67.0802117 240.283203,67.6679465 C239.688945,68.2531908 238.983809,68.7126699 238.165303,69.0414029 C237.348043,69.3688907 236.456033,69.5332572 235.484291,69.5332572 C234.836463,69.5332572 234.222272,69.4610356 233.640473,69.3103663 C233.057427,69.1609422 232.520477,68.9492581 232.027131,68.6703331 C231.533785,68.3963889 231.08778,68.0614299 230.687871,67.6679465 C230.289208,67.2719726 229.950344,66.8274359 229.670033,66.331846 C229.392215,65.8375013 229.176687,65.2970842 229.025943,64.7180658 C228.872706,64.1340666 228.797957,63.5176922 228.797957,62.865207 C228.797957,62.2550586 228.882673,61.6785307 229.054597,61.1368683 C229.222783,60.5939608 229.458243,60.0921449 229.760979,59.6301754 C230.062468,59.1669607 230.423757,58.753554 230.83737,58.3862198 C231.252229,58.0163951 231.7082,57.7050949 232.204038,57.451074 C232.699876,57.1945626 233.225613,56.9990661 233.781251,56.8596036 C234.338134,56.7213863 234.903737,56.6516551 235.484291,56.6516551" id="Fill-21" fill="#FFFFFF"></path>
                    <polyline id="Fill-22" fill="#FFFFFF" points="247.395609 59.7123586 247.395609 61.7308291 250.849031 61.7308291 250.849031 64.3918232 247.395609 64.3918232 247.395609 69.134793 244.256134 69.134793 244.256134 57.0526097 251.200353 57.0526097 251.200353 59.7123586 247.395609 59.7123586"></polyline>
                    <path d="M269.699585,57.4398672 L269.657227,57.4398672 L267.835833,62.8315866 L271.497308,62.8315866 L269.699585,57.4398672 Z M266.618663,66.1961191 L265.45631,69.1323026 L260.785718,69.1323026 L267.298883,52.2112691 L272.101532,52.2112691 L278.483885,69.1323026 L273.790869,69.1323026 L272.683332,66.1961191 L266.618663,66.1961191 Z" id="Fill-23" fill="#FFFFFF"></path>
                    <path d="M298.683666,59.6862094 C298.668716,60.3000934 298.642554,60.8952994 298.607671,61.4730725 C298.570296,62.0496005 298.491809,62.6149217 298.370964,63.1665456 C298.251365,63.7169244 298.078196,64.2598319 297.855193,64.787797 C297.632191,65.3182526 297.330702,65.8462177 296.950726,66.3729376 C296.534621,66.9494656 296.069928,67.4475459 295.559141,67.8671786 C295.047107,68.2880564 294.495208,68.6342223 293.902196,68.9044308 C293.311675,69.1733942 292.686272,69.3738715 292.028477,69.500882 C291.368191,69.6291377 290.68548,69.6926429 289.977852,69.6926429 C288.646067,69.6926429 287.426406,69.4772232 286.320115,69.0476289 C285.211332,68.6155443 284.259523,68.0078863 283.463442,67.2221646 C282.66736,66.4351977 282.048186,65.4963163 281.605919,64.3992944 C281.16116,63.3035177 280.941895,62.0906921 280.941895,60.7595725 C280.941895,59.386116 281.164897,58.1384248 281.609656,57.0177441 C282.056907,55.8970634 282.683556,54.939504 283.49085,54.1463111 C284.299389,53.3543634 285.266148,52.7404794 286.391126,52.3046591 C287.518597,51.8700841 288.76442,51.6521739 290.131088,51.6521739 C291.871504,51.6521739 293.3939,52.0456574 294.702014,52.8313791 C296.011375,53.6171008 297.030458,54.8025319 297.763002,56.3876725 L293.585757,58.1309536 C293.431274,57.7287538 293.236926,57.3639099 293.003957,57.0351769 C292.768496,56.7039535 292.500644,56.4212929 292.19168,56.1847048 C291.885208,55.9468714 291.542606,55.7650721 291.160138,55.6368164 C290.780162,55.509806 290.369041,55.4463007 289.92179,55.4463007 C289.197967,55.4463007 288.563842,55.6019508 288.013189,55.9169866 C287.466272,56.2307772 287.006563,56.6416935 286.639045,57.1484902 C286.269036,57.6577773 285.991217,58.2293245 285.805589,58.8643769 C285.618716,59.5006745 285.525279,60.1394625 285.525279,60.7832313 C285.525279,61.4406973 285.621208,62.0844661 285.81431,62.7182733 C286.009905,63.3483449 286.293952,63.9149113 286.671437,64.415482 C287.047675,64.9160527 287.516105,65.3182526 288.074234,65.6220816 C288.633609,65.9259106 289.275208,66.0765798 289.999031,66.0765798 C290.47369,66.0765798 290.917203,66.015565 291.330816,65.8897997 C291.743184,65.7652797 292.105718,65.5797447 292.417174,65.3369306 C292.727384,65.091626 292.981532,64.7865518 293.178372,64.4204628 C293.376458,64.055619 293.497303,63.6285151 293.540907,63.1391512 L289.945461,63.1391512 L289.945461,59.6862094 L298.683666,59.6862094" id="Fill-24" fill="#FFFFFF"></path>
                    <path d="M307.704673,59.7970323 L308.130745,59.7970323 C308.489542,59.7970323 308.852076,59.7721283 309.217103,59.7248106 C309.583375,59.677493 309.911026,59.5791221 310.205041,59.4284528 C310.496563,59.2777835 310.73327,59.0673446 310.916406,58.7934004 C311.098296,58.5194563 311.190487,58.1533672 311.190487,57.6913977 C311.190487,57.2319186 311.098296,56.862094 310.916406,56.5844142 C310.73327,56.3067345 310.496563,56.0925599 310.205041,55.9431358 C309.911026,55.7937117 309.583375,55.6953409 309.217103,55.646778 C308.852076,55.5994604 308.489542,55.5770468 308.130745,55.5770468 L307.704673,55.5770468 L307.704673,59.7970323 Z M317.385967,69.134793 L311.903098,69.134793 L307.759489,62.6248833 L307.704673,62.6248833 L307.704673,69.134793 L303.305671,69.134793 L303.305671,52.2112691 L309.88611,52.2112691 C310.719566,52.2112691 311.495714,52.3133755 312.2158,52.5188337 C312.935885,52.7242918 313.560043,53.0368372 314.08578,53.4614507 C314.612764,53.8848189 315.025131,54.4239909 315.324129,55.0764761 C315.624372,55.7314517 315.773871,56.5109474 315.773871,57.4162084 C315.773871,58.0026979 315.694138,58.5580575 315.533427,59.0897582 C315.37147,59.6202138 315.133518,60.0958805 314.81957,60.5180035 C314.505623,60.9438622 314.118172,61.3012348 313.657217,61.593857 C313.197508,61.8864792 312.666788,62.0869565 312.068792,62.1965342 L317.385967,69.134793 Z" id="Fill-25" fill="#FFFFFF"></path>
                    <polygon id="Fill-26" fill="#FFFFFF" points="321.208153 69.1323026 325.605909 69.1323026 325.605909 52.2112691 321.208153 52.2112691"></polygon>
                    <path d="M342.774601,57.8893847 C342.547862,57.5818201 342.289976,57.3128567 342.000945,57.0837398 C341.71316,56.8521324 341.401704,56.6603715 341.067823,56.502231 C340.736434,56.3453357 340.387604,56.2270416 340.021332,56.1461036 C339.656305,56.0664107 339.287542,56.0253191 338.915041,56.0253191 C338.242296,56.0253191 337.626859,56.1461036 337.071222,56.3876725 C336.515585,56.6267511 336.03968,56.9617101 335.646,57.3850783 C335.251074,57.8084466 334.944601,58.3052817 334.725337,58.8755837 C334.506072,59.4446404 334.397685,60.0597696 334.397685,60.7172357 C334.397685,61.3896441 334.506072,62.0060185 334.725337,62.5688492 C334.944601,63.13168 335.254811,63.6160631 335.655967,64.0207533 C336.059613,64.4266888 336.541747,64.7454602 337.103613,64.9745772 C337.669217,65.2036941 338.292129,65.3182526 338.979823,65.3182526 C339.337375,65.3182526 339.694926,65.2784061 340.04874,65.1937325 C340.4038,65.1090588 340.742663,64.9895196 341.067823,64.8326243 C341.394229,64.6744838 341.701947,64.4864584 341.989733,64.2673031 C342.277518,64.0481478 342.540387,63.8003528 342.774601,63.522673 L342.774601,68.793608 C342.408329,68.9031856 342.065728,69.0077825 341.74306,69.1073986 C341.421637,69.2045242 341.106444,69.2891979 340.799971,69.3589291 C340.492253,69.4286604 340.184535,69.4834492 339.873079,69.5232956 C339.562869,69.5643873 339.235217,69.5843105 338.892616,69.5843105 C337.709084,69.5843105 336.572893,69.3676455 335.48778,68.9368061 C334.401422,68.5059666 333.415976,67.8920826 332.532687,67.0951541 C331.597074,66.2484176 330.909379,65.2846321 330.47085,64.2075335 C330.03232,63.1304348 329.813055,61.9587008 329.813055,60.6960672 C329.813055,59.5330497 330.024845,58.418595 330.449671,57.3527031 C330.872005,56.285566 331.493671,55.3354778 332.313422,54.5024385 C332.729527,54.0790703 333.186745,53.6967936 333.682582,53.3568538 C334.180912,53.0181592 334.705403,52.7280274 335.257303,52.490194 C335.810449,52.2536059 336.37979,52.0718066 336.972802,51.9485317 C337.565814,51.8240116 338.156334,51.7617516 338.750592,51.7617516 C339.459465,51.7617516 340.142177,51.8377088 340.799971,51.9871329 C341.457766,52.1378022 342.116807,52.3457508 342.774601,52.6184497 L342.774601,57.8893847" id="Fill-27" fill="#FFFFFF"></path>
                    <path d="M362.714005,52.2112691 L362.714005,61.7246031 C362.714005,62.2724914 362.701547,62.8141538 362.675384,63.3458545 C362.650468,63.8812909 362.579456,64.4005396 362.462348,64.9098267 C362.345241,65.4166234 362.168334,65.9072325 361.929136,66.3791636 C361.69243,66.8486043 361.366024,67.2894054 360.948673,67.6978313 C360.597351,68.0489779 360.198687,68.3428453 359.753928,68.5806786 C359.307924,68.818512 358.839494,69.0115181 358.349885,69.1609422 C357.859031,69.3116115 357.356964,69.4186988 356.839947,69.4859396 C356.326668,69.5494448 355.823356,69.5830653 355.333747,69.5830653 C354.836663,69.5830653 354.330859,69.5494448 353.813842,69.4859396 C353.299317,69.4186988 352.799742,69.3116115 352.311379,69.1609422 C351.826754,69.0115181 351.360816,68.818512 350.914811,68.5806786 C350.470053,68.3428453 350.070143,68.0489779 349.718821,67.6978313 C349.296487,67.2894054 348.965098,66.8486043 348.727146,66.3791636 C348.489193,65.9072325 348.312286,65.4166234 348.196425,64.9098267 C348.079317,64.4005396 348.005814,63.8812909 347.983389,63.3458545 C347.955981,62.8141538 347.943523,62.2724914 347.943523,61.7246031 L347.943523,52.2112691 L352.341279,52.2112691 L352.341279,61.1219259 C352.341279,61.4867697 352.35,61.8578396 352.368687,62.2289094 C352.384883,62.6024696 352.425995,62.9573519 352.488286,63.2985369 C352.550578,63.6359863 352.64526,63.9560029 352.77358,64.2511155 C352.9019,64.5474733 353.076315,64.8039846 353.299317,65.02314 C353.523566,65.2422953 353.798893,65.4153782 354.126544,65.5398983 C354.456687,65.6631732 354.857842,65.7254332 355.333747,65.7254332 C355.802177,65.7254332 356.202086,65.6631732 356.534721,65.5398983 C356.867356,65.4153782 357.143928,65.2422953 357.363193,65.02314 C357.582458,64.8039846 357.755628,64.5474733 357.882702,64.2511155 C358.012267,63.9560029 358.109442,63.6359863 358.174224,63.2985369 C358.239007,62.9573519 358.278874,62.6024696 358.293823,62.2289094 C358.308773,61.8578396 358.317494,61.4867697 358.317494,61.1219259 L358.317494,52.2112691 L362.714005,52.2112691" id="Fill-28" fill="#FFFFFF"></path>
                    <polyline id="Fill-29" fill="#FFFFFF" points="372.547289 65.407907 377.832072 65.407907 377.832072 69.134793 368.148286 69.134793 368.148286 52.2112691 372.547289 52.2112691 372.547289 65.407907"></polyline>
                    <polyline id="Fill-30" fill="#FFFFFF" points="387.325246 69.134793 382.928735 69.134793 382.928735 55.9394002 379.288439 55.9394002 379.288439 52.2112691 390.968033 52.2112691 390.968033 55.9394002 387.325246 55.9394002 387.325246 69.134793"></polyline>
                    <path d="M409.697742,52.2112691 L409.697742,61.7246031 C409.697742,62.2724914 409.685284,62.8141538 409.659122,63.3458545 C409.634205,63.8812909 409.563193,64.4005396 409.447332,64.9098267 C409.328979,65.4166234 409.152072,65.9072325 408.914119,66.3791636 C408.676167,66.8486043 408.351007,67.2894054 407.934902,67.6978313 C407.582334,68.0489779 407.182425,68.3428453 406.738912,68.5806786 C406.291661,68.818512 405.823232,69.0115181 405.333623,69.1609422 C404.842768,69.3116115 404.341947,69.4186988 403.824931,69.4859396 C403.311652,69.5494448 402.807093,69.5830653 402.31873,69.5830653 C401.822893,69.5830653 401.314597,69.5494448 400.798826,69.4859396 C400.283055,69.4186988 399.78348,69.3116115 399.297609,69.1609422 C398.811737,69.0115181 398.3458,68.818512 397.899795,68.5806786 C397.45379,68.3428453 397.055126,68.0489779 396.70505,67.6978313 C396.280224,67.2894054 395.948835,66.8486043 395.712129,66.3791636 C395.474177,65.9072325 395.296024,65.4166234 395.180162,64.9098267 C395.063055,64.4005396 394.990797,63.8812909 394.967126,63.3458545 C394.939718,62.8141538 394.92726,62.2724914 394.92726,61.7246031 L394.92726,52.2112691 L399.325017,52.2112691 L399.325017,61.1219259 C399.325017,61.4867697 399.333737,61.8578396 399.352425,62.2289094 C399.369866,62.6024696 399.410979,62.9573519 399.47327,63.2985369 C399.535561,63.6359863 399.628998,63.9560029 399.758563,64.2511155 C399.886883,64.5474733 400.061298,64.8039846 400.283055,65.02314 C400.507303,65.2422953 400.783876,65.4153782 401.111527,65.5398983 C401.440425,65.6631732 401.842826,65.7254332 402.31873,65.7254332 C402.785914,65.7254332 403.187069,65.6631732 403.519704,65.5398983 C403.852339,65.4153782 404.127666,65.2422953 404.348177,65.02314 C404.567442,64.8039846 404.738119,64.5474733 404.868931,64.2511155 C404.996005,63.9560029 405.093179,63.6359863 405.156716,63.2985369 C405.22399,62.9573519 405.263857,62.6024696 405.278807,62.2289094 C405.293757,61.8578396 405.301232,61.4867697 405.301232,61.1219259 L405.301232,52.2112691 L409.697742,52.2112691" id="Fill-31" fill="#FFFFFF"></path>
                    <path d="M419.531026,59.7970323 L419.957098,59.7970323 C420.315895,59.7970323 420.67843,59.7721283 421.04221,59.7248106 C421.408482,59.677493 421.738625,59.5791221 422.031394,59.4284528 C422.324162,59.2777835 422.560869,59.0673446 422.745251,58.7934004 C422.927141,58.5194563 423.01684,58.1533672 423.01684,57.6913977 C423.01684,57.2319186 422.927141,56.862094 422.745251,56.5844142 C422.560869,56.3067345 422.324162,56.0925599 422.031394,55.9431358 C421.738625,55.7937117 421.408482,55.6953409 421.04221,55.646778 C420.67843,55.5994604 420.315895,55.5770468 419.957098,55.5770468 L419.531026,55.5770468 L419.531026,59.7970323 Z M429.213566,69.134793 L423.729451,69.134793 L419.585842,62.6248833 L419.531026,62.6248833 L419.531026,69.134793 L415.13327,69.134793 L415.13327,52.2112691 L421.711217,52.2112691 C422.544673,52.2112691 423.322067,52.3133755 424.043399,52.5188337 C424.763484,52.7242918 425.387642,53.0368372 425.913379,53.4614507 C426.437871,53.8848189 426.851484,54.4239909 427.151728,55.0764761 C427.450726,55.7314517 427.600224,56.5109474 427.600224,57.4162084 C427.600224,58.0026979 427.520492,58.5580575 427.35978,59.0897582 C427.199069,59.6202138 426.961117,60.0958805 426.647169,60.5180035 C426.331976,60.9438622 425.945771,61.3012348 425.484816,61.593857 C425.025107,61.8864792 424.494387,62.0869565 423.895146,62.1965342 L429.213566,69.134793 Z" id="Fill-32" fill="#FFFFFF"></path>
                    <path d="M441.18842,57.4398672 L441.147308,57.4398672 L439.324668,62.8315866 L442.987389,62.8315866 L441.18842,57.4398672 Z M438.108745,66.1961191 L436.947637,69.1323026 L432.274554,69.1323026 L438.788964,52.2112691 L443.591613,52.2112691 L449.972721,69.1323026 L445.279704,69.1323026 L444.173413,66.1961191 L438.108745,66.1961191 Z" id="Fill-33" fill="#FFFFFF"></path>
                    <polyline id="Fill-34" fill="#FFFFFF" points="458.268659 65.407907 463.553442 65.407907 463.553442 69.134793 453.870902 69.134793 453.870902 52.2112691 458.268659 52.2112691 458.268659 65.407907"></polyline>
                    <path d="M111.987064,86.9722943 L111.954673,86.9722943 L110.655279,90.8212099 L113.271508,90.8212099 L111.987064,86.9722943 Z M109.785695,93.2244474 L108.955976,95.3213656 L105.620907,95.3213656 L110.272811,83.2391823 L113.701317,83.2391823 L118.257294,95.3213656 L114.906029,95.3213656 L114.116177,93.2244474 L109.785695,93.2244474 Z" id="Fill-35" fill="#FFFFFF"></path>
                    <polyline id="Fill-36" fill="#FFFFFF" points="119.79464 83.2391823 122.934115 83.2391823 128.696048 90.6257134 128.729685 90.6257134 128.729685 83.2391823 131.866668 83.2391823 131.866668 95.3213656 128.729685 95.3213656 122.973981 87.9174017 122.934115 87.9174017 122.934115 95.3213656 119.79464 95.3213656 119.79464 83.2391823"></polyline>
                    <path d="M137.707088,92.6616167 L138.420945,92.6616167 C138.889375,92.6616167 139.335379,92.595621 139.755222,92.4661202 C140.175064,92.3353741 140.543828,92.1299159 140.859021,91.8547266 C141.175461,91.5795372 141.427117,91.2271454 141.61399,90.8025319 C141.80211,90.3766732 141.895547,89.8698765 141.895547,89.2796513 C141.895547,88.737989 141.810831,88.2548511 141.641399,87.8352184 C141.471967,87.416831 141.23526,87.0631939 140.930033,86.7767978 C140.623561,86.4891564 140.261026,86.2712462 139.841184,86.1230673 C139.421341,85.9736432 138.957895,85.897686 138.450845,85.897686 L137.707088,85.897686 L137.707088,92.6616167 Z M134.568859,83.2391823 L139.023924,83.2391823 C139.582053,83.2391823 140.12274,83.3089136 140.64474,83.4496213 C141.16674,83.5903289 141.655103,83.7908063 142.11232,84.0485628 C142.569537,84.3063194 142.984396,84.6188648 143.360635,84.9837086 C143.736874,85.3497977 144.05705,85.7569783 144.324902,86.2040054 C144.589017,86.6547681 144.797069,87.1366608 144.946568,87.6571547 C145.096067,88.173913 145.168325,88.7155754 145.168325,89.2796513 C145.168325,89.8437273 145.096067,90.3853896 144.946568,90.9046384 C144.797069,91.4226419 144.587771,91.907025 144.319919,92.3552973 C144.050821,92.8035696 143.728153,93.2107502 143.351914,93.5755941 C142.976921,93.9404379 142.562062,94.2517381 142.108582,94.5107399 C141.653857,94.7684964 141.16674,94.9677285 140.64474,95.1096814 C140.12274,95.2503891 139.582053,95.3213656 139.023924,95.3213656 L134.568859,95.3213656 L134.568859,83.2391823 Z" id="Fill-37" fill="#FFFFFF"></path>
                    <polyline id="Fill-38" fill="#FFFFFF" points="160.384811 82.1259728 160.384811 84.9538238 165.351909 84.9538238 165.351909 88.6807098 160.384811 88.6807098 160.384811 91.5957248 165.62599 91.5957248 165.62599 95.3201204 155.987055 95.3201204 155.987055 78.3978417 165.62599 78.3978417 165.62599 82.1259728 160.384811 82.1259728"></polyline>
                    <polyline id="Fill-39" fill="#FFFFFF" points="170.568172 78.3990869 174.964683 78.3990869 183.033881 88.7454602 183.07873 88.7454602 183.07873 78.3990869 187.476487 78.3990869 187.476487 95.3213656 183.07873 95.3213656 175.019499 84.9538238 174.964683 84.9538238 174.964683 95.3213656 170.568172 95.3213656 170.568172 78.3990869"></polyline>
                    <polyline id="Fill-40" fill="#FFFFFF" points="199.594611 88.6807098 203.705828 78.3978417 208.487298 78.3978417 201.261523 95.3226108 197.839246 95.3226108 190.721857 78.3978417 195.515785 78.3978417 199.594611 88.6807098"></polyline>
                    <polygon id="Fill-41" fill="#FFFFFF" points="211.746372 95.3188752 216.144129 95.3188752 216.144129 78.3978417 211.746372 78.3978417"></polygon>
                    <g id="Group-45" transform="translate(220.510740, 77.202449)">
                        <mask id="mask-4" fill="white">
                            <use xlink:href="#path-3"></use>
                        </mask>
                        <g id="Clip-43"></g>
                        <path d="M5.11784248,8.78240116 L5.5451599,8.78240116 C5.90395704,8.78240116 6.26524582,8.75749715 6.63027208,8.71017952 C6.99654415,8.66161669 7.3241957,8.56324582 7.61821002,8.41382173 C7.90848687,8.26439763 8.14768496,8.0527135 8.32957518,7.77876933 C8.51271122,7.50233475 8.60490215,7.13624572 8.60490215,6.67552143 C8.60490215,6.21604234 8.51271122,5.8474629 8.32957518,5.56978313 C8.14768496,5.29210335 7.90848687,5.07792882 7.61821002,4.92725952 C7.3241957,4.77783543 6.99654415,4.67946456 6.63027208,4.63339213 C6.26524582,4.5848293 5.90395704,4.55992529 5.5451599,4.55992529 L5.11784248,4.55992529 L5.11784248,8.78240116 Z M14.799136,18.1189167 L9.3162673,18.1189167 L5.17141289,11.609007 L5.11784248,11.609007 L5.11784248,18.1189167 L0.720085919,18.1189167 L0.720085919,1.19663796 L7.29927924,1.19663796 C8.13273508,1.19663796 8.91012888,1.29874442 9.62896897,1.50295735 C10.3503007,1.70717028 10.9732124,2.02220608 11.4989499,2.44557435 C12.0259332,2.87018782 12.4370549,3.40811456 12.7372983,4.06184497 C13.0362959,4.71682059 13.1870406,5.49631628 13.1870406,6.40282246 C13.1870406,6.98682162 13.1073079,7.54467158 12.9465967,8.07388191 C12.7858854,8.60433745 12.5479332,9.08000415 12.2327399,9.50337242 C11.9187924,9.92798589 11.5313413,10.2866037 11.0703866,10.5792259 C10.6106778,10.8693577 10.079957,11.0723254 9.48196181,11.1806579 L14.799136,18.1189167 Z" id="Fill-42" fill="#FFFFFF" mask="url(#mask-4)"></path>
                        <path d="M26.2669403,4.8998651 C25.6091456,4.8998651 24.992463,5.02313998 24.414401,5.26719934 C23.8363389,5.51374909 23.3305346,5.8412369 22.8944964,6.25464356 C22.4609499,6.66680502 22.1158568,7.14247172 21.8654463,7.67915326 C21.6125442,8.21708 21.486716,8.77742036 21.486716,9.36266473 C21.486716,10.0911072 21.6125442,10.766006 21.8654463,11.3836256 C22.1158568,12.0012452 22.4609499,12.5329459 22.8944964,12.9849538 C23.3305346,13.4344713 23.8363389,13.7818823 24.414401,14.0346581 C24.992463,14.288679 25.6091456,14.4144443 26.2669403,14.4144443 C26.9247351,14.4144443 27.5451551,14.288679 28.1269547,14.0346581 C28.7062625,13.7818823 29.2133126,13.4344713 29.6443675,12.9849538 C30.0779141,12.5329459 30.4180239,12.0012452 30.670926,11.3836256 C30.9225823,10.766006 31.0484105,10.0911072 31.0484105,9.36266473 C31.0484105,8.77742036 30.9225823,8.21708 30.670926,7.67915326 C30.4180239,7.14247172 30.0779141,6.66680502 29.6443675,6.25464356 C29.2133126,5.8412369 28.7062625,5.51374909 28.1269547,5.26719934 C27.5451551,5.02313998 26.9247351,4.8998651 26.2669403,4.8998651 M26.2669403,0.636297603 C27.0792172,0.636297603 27.8752983,0.734668465 28.6526921,0.928919788 C29.4313317,1.12192591 30.1676134,1.39711528 30.861537,1.75697831 C31.5567064,2.11435094 32.1958138,2.55017122 32.780105,3.06568434 C33.365642,3.58119747 33.8689547,4.16021583 34.2887971,4.80772024 C34.7098854,5.45397945 35.0387828,6.1562727 35.2767351,6.91833558 C35.5134415,7.67790806 35.6330406,8.48355297 35.6330406,9.33900591 C35.6330406,10.7137076 35.4000716,11.9713604 34.9353795,13.1144547 C34.4706874,14.2587942 33.8228592,15.2412577 32.9906492,16.0630902 C32.1559475,16.8874131 31.1667637,17.5262011 30.0230979,17.9869254 C28.8781862,18.4464045 27.6273795,18.6780118 26.2669403,18.6780118 C25.3612267,18.6780118 24.5003628,18.5746602 23.6843484,18.3642212 C22.8708258,18.1575179 22.1158568,17.8599149 21.4256706,17.4714123 C20.7354845,17.0854 20.1100811,16.6159593 19.5519523,16.0630902 C18.9925776,15.5114662 18.516673,14.8888658 18.1254845,14.195289 C17.7355418,13.5017122 17.4340525,12.7458753 17.2222625,11.931514 C17.0092267,11.1183978 16.9033317,10.2529833 16.9033317,9.33900591 C16.9033317,8.48355297 17.0229308,7.67790806 17.2583914,6.91833558 C17.4963437,6.1562727 17.8277327,5.45397945 18.2525585,4.80772024 C18.6761384,4.16021583 19.1782053,3.58119747 19.7587589,3.06568434 C20.3405585,2.55017122 20.97842,2.11435094 21.6723437,1.75697831 C22.3675131,1.39711528 23.1037947,1.12192591 23.8824344,0.928919788 C24.661074,0.734668465 25.4559093,0.636297603 26.2669403,0.636297603" id="Fill-44" fill="#FFFFFF" mask="url(#mask-4)"></path>
                    </g>
                    <polyline id="Fill-46" fill="#FFFFFF" points="260.820601 78.3990869 265.218358 78.3990869 273.288802 88.7454602 273.332406 88.7454602 273.332406 78.3990869 277.728916 78.3990869 277.728916 95.3213656 273.332406 95.3213656 265.273174 84.9538238 265.218358 84.9538238 265.218358 95.3213656 260.820601 95.3213656 260.820601 78.3990869"></polyline>
                    <polyline id="Fill-47" fill="#FFFFFF" points="284.630778 78.3990869 288.962506 78.3990869 292.404716 87.441735 296.035045 78.3990869 300.421589 78.3990869 302.976773 95.3213656 298.580263 95.3213656 297.339422 85.5764242 297.295819 85.5764242 293.228205 95.3213656 291.484053 95.3213656 287.590854 85.5764242 287.548496 85.5764242 286.133241 95.3213656 281.760401 95.3213656 284.630778 78.3990869"></polyline>
                    <polyline id="Fill-48" fill="#FFFFFF" points="311.460831 82.1259728 311.460831 84.9538238 316.429174 84.9538238 316.429174 88.6807098 311.460831 88.6807098 311.460831 91.5957248 316.700764 91.5957248 316.700764 95.3201204 307.063074 95.3201204 307.063074 78.3978417 316.700764 78.3978417 316.700764 82.1259728 311.460831 82.1259728"></polyline>
                    <polyline id="Fill-49" fill="#FFFFFF" points="321.642945 78.3990869 326.041947 78.3990869 334.111146 88.7454602 334.153504 88.7454602 334.153504 78.3990869 338.552506 78.3990869 338.552506 95.3213656 334.153504 95.3213656 326.095518 84.9538238 326.041947 84.9538238 326.041947 95.3213656 321.642945 95.3213656 321.642945 78.3990869"></polyline>
                    <polyline id="Fill-50" fill="#FFFFFF" points="350.138663 95.3213656 345.742153 95.3213656 345.742153 82.1259728 342.100611 82.1259728 342.100611 78.3990869 353.780205 78.3990869 353.780205 82.1259728 350.138663 82.1259728 350.138663 95.3213656"></polyline>
                    <path d="M363.649618,83.6264398 L363.606014,83.6264398 L361.785866,89.0181592 L365.447341,89.0181592 L363.649618,83.6264398 Z M360.567451,92.3826917 L359.406344,95.3213656 L354.734506,95.3213656 L361.248916,78.3990869 L366.051566,78.3990869 L372.433919,95.3213656 L367.739656,95.3213656 L366.633365,92.3826917 L360.567451,92.3826917 Z" id="Fill-51" fill="#FFFFFF"></path>
                    <polyline id="Fill-52" fill="#FFFFFF" points="380.727365 91.5957248 386.013394 91.5957248 386.013394 95.3226108 376.329609 95.3226108 376.329609 78.3978417 380.727365 78.3978417 380.727365 91.5957248"></polyline>
                    <path d="M408.93779,82.7498184 C408.526668,82.4136142 408.074434,82.1434056 407.578597,81.9391927 C407.079021,81.7337346 406.560759,81.6316281 406.020072,81.6316281 C405.814511,81.6316281 405.603967,81.6615129 405.383456,81.7187922 C405.165437,81.7785618 404.961122,81.866971 404.77674,81.9827747 C404.588621,82.1010688 404.434138,82.2480025 404.314539,82.4273114 C404.19494,82.6066203 404.133895,82.8120784 404.133895,83.044931 C404.133895,83.2939712 404.199924,83.5069005 404.331981,83.6812286 C404.462792,83.8568019 404.628487,84.006226 404.825327,84.1307461 C405.022167,84.254021 405.233957,84.359863 405.460697,84.4432915 C405.686191,84.5279651 405.896735,84.5989416 406.0861,84.6562208 L407.203604,84.9974058 C407.796616,85.1729791 408.346024,85.3809277 408.85432,85.6274774 C409.36137,85.8715368 409.804883,86.176611 410.176138,86.5427 C410.549885,86.9075438 410.842654,87.3408737 411.060673,87.8414444 C411.273709,88.3407699 411.382095,88.9359759 411.382095,89.6220816 C411.382095,90.0379786 411.355933,90.4576113 411.301117,90.8759988 C411.246301,91.2968766 411.150372,91.7040573 411.015823,92.0987859 C410.880029,92.4935146 410.699384,92.86832 410.472644,93.2232022 C410.245905,93.5768393 409.963103,93.8956107 409.62673,94.1807616 C408.962706,94.7448376 408.212721,95.1495279 407.374282,95.3973228 C406.537088,95.6476082 405.686191,95.7708831 404.825327,95.7708831 C403.757656,95.7708831 402.714902,95.6002905 401.700802,95.2603507 C400.68421,94.9204109 399.741122,94.4484798 398.871537,93.842067 L400.756468,90.2895092 C401.035532,90.5335685 401.324563,90.7589499 401.622315,90.970634 C401.922558,91.1823181 402.237752,91.3678531 402.564158,91.5297292 C402.896792,91.6891149 403.233165,91.8161254 403.585733,91.907025 C403.935809,91.9979247 404.298344,92.0452423 404.672091,92.0452423 C404.927484,92.0452423 405.184124,92.0103767 405.439518,91.9468714 C405.693666,91.8796306 405.924143,91.7775241 406.123475,91.6393068 C406.326544,91.4985991 406.489747,91.3230258 406.613084,91.1076061 C406.737666,90.8909412 406.798711,90.6344298 406.798711,90.3355816 C406.798711,90.028017 406.704029,89.7677701 406.513418,89.5573311 C406.324053,89.3444018 406.091084,89.1626025 405.815757,89.0119332 C405.542921,88.8637543 405.25389,88.7417246 404.944926,88.6458441 C404.638453,88.5524541 404.36811,88.471516 404.133895,88.4055204 C403.438726,88.2075335 402.810831,88.0020753 402.247718,87.7916364 C401.685852,87.5787071 401.20621,87.2997821 400.806301,86.9536163 C400.407637,86.6074505 400.098673,86.1691398 399.880654,85.643665 C399.660143,85.1169451 399.549265,84.4445367 399.549265,83.6251946 C399.549265,82.772232 399.69378,81.9939815 399.981566,81.2916883 C400.273088,80.5906402 400.677981,79.9929439 401.194998,79.4998443 C401.714506,79.00799 402.329943,78.6257134 403.042554,78.3542596 C403.756411,78.0840511 404.536296,77.9495694 405.383456,77.9495694 C405.808282,77.9495694 406.253041,77.9819446 406.72147,78.0479402 C407.188654,78.1139359 407.653346,78.2073259 408.114301,78.3268652 C408.575255,78.4476497 409.024998,78.5945834 409.462282,78.7664211 C409.900811,78.9382588 410.310687,79.1300197 410.691909,79.3417038 L408.93779,82.7498184" id="Fill-53" fill="#FFFFFF"></path>
                    <path d="M427.650057,84.0759572 C427.424563,83.7683927 427.164186,83.5019197 426.877647,83.2715575 C426.589862,83.0399502 426.278406,82.8469441 425.944525,82.6888036 C425.613136,82.5319083 425.264305,82.4161046 424.898033,82.3339213 C424.534253,82.2529833 424.162998,82.2131369 423.789251,82.2131369 C423.117752,82.2131369 422.504807,82.3339213 421.949169,82.5742451 C421.392286,82.8158141 420.916382,83.1482827 420.523947,83.5716509 C420.127776,83.9950192 419.821303,84.4918543 419.602038,85.0634015 C419.382773,85.6337034 419.271895,86.2475874 419.271895,86.9038082 C419.271895,87.5762167 419.382773,88.1925911 419.602038,88.7554218 C419.821303,89.3182526 420.130267,89.8038809 420.532668,90.2085711 C420.935069,90.6132614 421.418449,90.9307876 421.980315,91.1623949 C422.543427,91.3915119 423.168831,91.5060704 423.856525,91.5060704 C424.214076,91.5060704 424.570382,91.4649787 424.925442,91.3815503 C425.280501,91.2956314 425.620611,91.1760921 425.944525,91.020442 C426.272177,90.8635467 426.578649,90.673031 426.865189,90.4538757 C427.15422,90.2359655 427.418334,89.9869254 427.650057,89.7092456 L427.650057,94.9814258 C427.283785,95.0910034 426.94243,95.1943551 426.619761,95.2939712 C426.298339,95.3910968 425.984391,95.4770157 425.676673,95.5455017 C425.3702,95.615233 425.05999,95.671267 424.74978,95.7111134 C424.43957,95.7509598 424.113165,95.7708831 423.769317,95.7708831 C422.583294,95.7708831 421.449594,95.5542181 420.36199,95.1233786 C419.278124,94.6937844 418.292678,94.0786552 417.408143,93.2817267 C416.47253,92.4349901 415.786081,91.4724499 415.347551,90.394106 C414.909021,89.3170074 414.691002,88.1452734 414.691002,86.8813946 C414.691002,85.7208675 414.901547,84.6051676 415.325126,83.5392757 C415.748706,82.4708934 416.370372,81.5232956 417.190124,80.6890111 C417.606229,80.2656428 418.064692,79.8833662 418.559284,79.5434264 C419.056368,79.205977 419.582105,78.9158452 420.134005,78.6767666 C420.68715,78.4414237 421.256492,78.2596244 421.849504,78.1351043 C422.442516,78.0118294 423.034282,77.9495694 423.626048,77.9495694 C424.336167,77.9495694 425.020124,78.0242814 425.676673,78.1749507 C426.334468,78.3243748 426.994754,78.5335685 427.650057,78.8037771 L427.650057,84.0759572" id="Fill-54" fill="#FFFFFF"></path>
                    <polygon id="Fill-55" fill="#FFFFFF" points="432.614663 95.3188752 437.013666 95.3188752 437.013666 78.3978417 432.614663 78.3978417"></polygon>
                    <polyline id="Fill-56" fill="#FFFFFF" points="446.498119 82.1259728 446.498119 84.9538238 451.463971 84.9538238 451.463971 88.6807098 446.498119 88.6807098 446.498119 91.5957248 451.739298 91.5957248 451.739298 95.3201204 442.100363 95.3201204 442.100363 78.3978417 451.739298 78.3978417 451.739298 82.1259728 446.498119 82.1259728"></polyline>
                    <polyline id="Fill-57" fill="#FFFFFF" points="457.118764 78.3990869 461.51652 78.3990869 469.58821 88.7454602 469.629322 88.7454602 469.629322 78.3990869 474.02957 78.3990869 474.02957 95.3213656 469.629322 95.3213656 461.572582 84.9538238 461.51652 84.9538238 461.51652 95.3213656 457.118764 95.3213656 457.118764 78.3990869"></polyline>
                    <path d="M490.758487,84.0759572 C490.532993,83.7683927 490.273862,83.5019197 489.986076,83.2715575 C489.698291,83.0399502 489.386835,82.8469441 489.052955,82.6888036 C488.722811,82.5319083 488.371489,82.4161046 488.005217,82.3339213 C487.641437,82.2529833 487.272673,82.2131369 486.898926,82.2131369 C486.227427,82.2131369 485.61199,82.3339213 485.056353,82.5742451 C484.500716,82.8158141 484.024811,83.1482827 483.632377,83.5716509 C483.236205,83.9950192 482.929733,84.4918543 482.710468,85.0634015 C482.491203,85.6337034 482.38157,86.2475874 482.38157,86.9038082 C482.38157,87.5762167 482.491203,88.1925911 482.710468,88.7554218 C482.929733,89.3182526 483.238697,89.8038809 483.641098,90.2085711 C484.044745,90.6132614 484.526878,90.9307876 485.08999,91.1623949 C485.654348,91.3915119 486.27726,91.5060704 486.964955,91.5060704 C487.323752,91.5060704 487.678811,91.4649787 488.033871,91.3815503 C488.387685,91.2956314 488.727795,91.1760921 489.052955,91.020442 C489.37936,90.8635467 489.687079,90.673031 489.973618,90.4538757 C490.262649,90.2359655 490.525518,89.9869254 490.758487,89.7092456 L490.758487,94.9814258 C490.390969,95.0910034 490.049613,95.1943551 489.726945,95.2939712 C489.405523,95.3910968 489.091575,95.4770157 488.785103,95.5455017 C488.47863,95.615233 488.16842,95.671267 487.856964,95.7111134 C487.546754,95.7509598 487.220348,95.7708831 486.877747,95.7708831 C485.691723,95.7708831 484.556778,95.5542181 483.471666,95.1233786 C482.386554,94.6937844 481.401107,94.0786552 480.517819,93.2817267 C479.580959,92.4349901 478.893265,91.4724499 478.454735,90.394106 C478.016205,89.3170074 477.798186,88.1452734 477.798186,86.8813946 C477.798186,85.7208675 478.00873,84.6051676 478.43231,83.5392757 C478.857136,82.4708934 479.480048,81.5232956 480.297308,80.6890111 C480.714659,80.2656428 481.171876,79.8833662 481.666468,79.5434264 C482.164797,79.205977 482.689289,78.9158452 483.241189,78.6767666 C483.794334,78.4414237 484.366167,78.2596244 484.959179,78.1351043 C485.550945,78.0118294 486.141465,77.9495694 486.735723,77.9495694 C487.443351,77.9495694 488.127308,78.0242814 488.785103,78.1749507 C489.444143,78.3243748 490.101938,78.5335685 490.758487,78.8037771 L490.758487,84.0759572" id="Fill-58" fill="#FFFFFF"></path>
                    <polyline id="Fill-59" fill="#FFFFFF" points="500.1059 82.1259728 500.1059 84.9538238 505.074243 84.9538238 505.074243 88.6807098 500.1059 88.6807098 500.1059 91.5957248 505.345833 91.5957248 505.345833 95.3201204 495.708143 95.3201204 495.708143 78.3978417 505.345833 78.3978417 505.345833 82.1259728 500.1059 82.1259728"></polyline>
                    <path d="M519.335184,82.7498184 C518.925308,82.4136142 518.471828,82.1434056 517.974745,81.9391927 C517.477661,81.7337346 516.960644,81.6316281 516.418711,81.6316281 C516.21315,81.6316281 516.00136,81.6615129 515.782095,81.7187922 C515.562831,81.7785618 515.359761,81.866971 515.174134,81.9827747 C514.988506,82.1010688 514.832778,82.2480025 514.711933,82.4273114 C514.592334,82.6066203 514.531289,82.8120784 514.531289,83.044931 C514.531289,83.2939712 514.597317,83.5069005 514.730621,83.6812286 C514.861432,83.8568019 515.024635,84.006226 515.223967,84.1307461 C515.419561,84.254021 515.631351,84.359863 515.858091,84.4432915 C516.084831,84.5279651 516.292883,84.5989416 516.48474,84.6562208 L517.600998,84.9974058 C518.19401,85.1729791 518.744663,85.3809277 519.252959,85.6274774 C519.761255,85.8715368 520.202277,86.176611 520.573532,86.5427 C520.947279,86.9075438 521.241294,87.3408737 521.455575,87.8414444 C521.672348,88.3407699 521.780735,88.9359759 521.780735,89.6220816 C521.780735,90.0379786 521.752081,90.4576113 521.697265,90.8759988 C521.643695,91.2968766 521.547766,91.7040573 521.413217,92.0987859 C521.276177,92.4935146 521.096778,92.86832 520.870038,93.2232022 C520.643298,93.5768393 520.361742,93.8956107 520.026616,94.1807616 C519.3601,94.7448376 518.610115,95.1495279 517.771675,95.3973228 C516.935728,95.6476082 516.084831,95.7708831 515.223967,95.7708831 C514.156296,95.7708831 513.113542,95.6002905 512.098196,95.2603507 C511.08285,94.9204109 510.138516,94.4484798 509.270177,93.842067 L511.155107,90.2895092 C511.432926,90.5335685 511.720711,90.7589499 512.020955,90.970634 C512.319952,91.1823181 512.635146,91.3678531 512.964043,91.5297292 C513.294186,91.6891149 513.63305,91.8161254 513.984372,91.907025 C514.334449,91.9979247 514.695737,92.0452423 515.069484,92.0452423 C515.324878,92.0452423 515.581518,92.0103767 515.836912,91.9468714 C516.092305,91.8796306 516.321537,91.7775241 516.522115,91.6393068 C516.723938,91.4985991 516.884649,91.3230258 517.010477,91.1076061 C517.133814,90.8909412 517.197351,90.6344298 517.197351,90.3355816 C517.197351,90.028017 517.102668,89.7677701 516.912057,89.5573311 C516.721446,89.3444018 516.489723,89.1626025 516.214396,89.0119332 C515.941561,88.8637543 515.651284,88.7417246 515.344811,88.6458441 C515.038339,88.5524541 514.765504,88.471516 514.531289,88.4055204 C513.837365,88.2075335 513.208224,88.0020753 512.646358,87.7916364 C512.082,87.5787071 511.601112,87.2997821 511.20494,86.9536163 C510.803785,86.6074505 510.496067,86.1691398 510.275556,85.643665 C510.058783,85.1169451 509.94915,84.4445367 509.94915,83.6251946 C509.94915,82.772232 510.09242,81.9939815 510.380205,81.2916883 C510.670482,80.5906402 511.075375,79.9929439 511.593637,79.4998443 C512.113146,79.00799 512.727337,78.6257134 513.439947,78.3542596 C514.15505,78.0840511 514.934936,77.9495694 515.782095,77.9495694 C516.205675,77.9495694 516.65168,77.9819446 517.12011,78.0479402 C517.587294,78.1139359 518.051986,78.2073259 518.51294,78.3268652 C518.972649,78.4476497 519.423637,78.5945834 519.860921,78.7664211 C520.298205,78.9382588 520.708081,79.1300197 521.089303,79.3417038 L519.335184,82.7498184" id="Fill-60" fill="#FFFFFF"></path>
                </g>
            </g>
        </g>
    </g>
</svg>