<?xml version="1.0" encoding="UTF-8"?>
<svg width="38px" height="39px" viewBox="0 0 38 39" version="1.1" xmlns="http://www.w3.org/2000/svg" xmlns:xlink="http://www.w3.org/1999/xlink">
    <!-- Generator: Sketch 49.1 (51147) - http://www.bohemiancoding.com/sketch -->
    <title>Fill 1</title>
    <desc>Created with Sketch.</desc>
    <defs></defs>
    <g id="Page-1" stroke="none" stroke-width="1" fill="none" fill-rule="evenodd">
        <g id="phase4" transform="translate(-681.000000, -873.000000)" fill="#00B5E2">
            <g id="Group-5" transform="translate(174.000000, 864.000000)">
                <g id="Group-3" transform="translate(379.000000, 9.000000)">
                    <path d="M153.658637,5.56109096 C155.632454,4.39101963 157.153151,4.38696627 158.568806,5.5293396 C159.978969,6.66698401 160.16365,8.10255073 159.195622,10.5953701 C161.02801,10.7723671 162.215733,11.7134233 162.740253,13.4644769 C162.793804,13.6448516 163.100689,13.8049595 163.322443,13.8752179 C164.909048,14.376484 165.949164,15.6364049 165.997909,17.1597945 C166.050086,18.7696559 165.122564,20.1484756 163.590882,20.7402668 C162.757417,21.0618338 162.662674,21.4806815 163.316264,22.1069264 C164.40993,23.1547212 164.753889,24.4186954 164.312441,25.8225108 C163.868933,27.2330818 162.825385,28.0842884 161.337642,28.3092502 C159.868436,28.5315097 158.6814,27.963363 157.843128,26.791265 C157.464155,26.2602742 157.178553,26.1238109 156.538006,26.4143021 C153.314678,27.8775668 150.017889,26.1352955 149.495429,22.6825042 C149.286032,21.3003067 149.870969,20.0951063 150.650197,18.7777627 C150.42913,18.8345098 150.166183,18.8351853 149.99386,18.9581374 C149.344389,19.4195454 148.712081,19.9073003 148.099683,20.4159976 C147.921181,20.564621 147.711098,20.8186319 147.717277,21.0179223 C147.766022,22.5771167 147.797603,24.1417155 147.965807,25.6907765 C148.144995,27.3377937 149.045055,28.6443283 150.243076,29.7853505 C150.501217,30.0312547 150.681778,30.4642891 150.705121,30.8236875 C150.770343,31.8518911 150.714732,32.8875258 150.746313,33.9191071 C150.82458,36.4956961 151.844099,37.5988869 154.425508,37.9488274 C154.869016,38.0089523 155.327628,38.0400281 155.74642,38.1785181 C156.135004,38.3068746 156.481023,38.561561 156.845578,38.7601759 C156.81743,38.8405676 156.789968,38.9202838 156.762507,39 L138.727658,39 C138.41528,38.2676921 138.924697,37.9603119 139.527483,37.8042574 C140.39253,37.5813223 141.283665,37.4603969 142.15695,37.2651598 C145.087124,36.6118925 146.100464,35.1479523 145.71188,32.2464186 C145.458545,30.3561994 145.264939,28.4578735 145.028767,26.4237599 C144.747284,26.6683129 144.544067,26.8520655 144.333297,27.0277113 C143.083786,28.0721283 141.684607,28.57407 140.021109,28.2585831 C139.762281,28.2092672 139.370951,28.3335703 139.180091,28.5173229 C136.854764,30.7547803 133.932142,30.14002 132.796597,27.1533656 C132.755404,27.0446003 132.705286,26.9392128 132.660661,26.835852 C130.063461,27.0756761 128.501572,25.9029026 128.077974,23.847171 C127.68527,21.9447918 128.797473,20.4491001 130.927822,19.6722052 C131.385747,18.5061872 131.796987,17.4604191 132.21578,16.3943841 C131.058952,16.5092295 129.82935,16.2288717 129.03639,15.1689168 C128.564047,14.5372675 128.189194,13.72119 128.095824,12.9496996 C127.882995,11.2087793 129.174386,9.74754131 131.189395,9.19493256 C131.521683,5.09022507 133.713821,3.66479176 137.184305,5.34761374 C137.355255,4.05256367 137.719124,2.82709636 138.966576,2.17450461 C139.578287,1.85428879 140.33692,1.53204628 140.978839,1.60973577 C141.848005,1.71579882 142.349869,1.45773459 142.982864,0.93214828 C145.05005,-0.786478424 148.178636,-0.0345792412 149.310748,2.41567982 C149.547606,2.92775492 149.796135,3.095294 150.358416,3.10880521 C151.612047,3.13920545 152.56909,3.75193911 153.229546,4.80040949 C153.384019,5.04631362 153.515836,5.30640453 153.658637,5.56109096" id="Fill-1"></path>
                </g>
            </g>
        </g>
    </g>
</svg>