<?xml version="1.0" encoding="UTF-8"?>
<svg width="37px" height="37px" viewBox="0 0 37 37" version="1.1" xmlns="http://www.w3.org/2000/svg" xmlns:xlink="http://www.w3.org/1999/xlink">
    <!-- Generator: Sketch 49.2 (51160) - http://www.bohemiancoding.com/sketch -->
    <title>Fill 1</title>
    <desc>Created with Sketch.</desc>
    <defs>
        <filter x="-1.8%" y="-6.2%" width="103.6%" height="115.4%" filterUnits="objectBoundingBox" id="filter-1">
            <feOffset dx="0" dy="1" in="SourceAlpha" result="shadowOffsetOuter1"></feOffset>
            <feGaussianBlur stdDeviation="1.5" in="shadowOffsetOuter1" result="shadowBlurOuter1"></feGaussianBlur>
            <feColorMatrix values="0 0 0 0 0   0 0 0 0 0   0 0 0 0 0  0 0 0 0.5 0" type="matrix" in="shadowBlurOuter1" result="shadowMatrixOuter1"></feColorMatrix>
            <feMerge>
                <feMergeNode in="shadowMatrixOuter1"></feMergeNode>
                <feMergeNode in="SourceGraphic"></feMergeNode>
            </feMerge>
        </filter>
    </defs>
    <g id="Page-1" stroke="none" stroke-width="1" fill="none" fill-rule="evenodd">
        <g id="phase4" transform="translate(-828.000000, -5207.000000)" fill="#FFFFFF">
            <g id="Articles" transform="translate(100.000000, 4902.000000)">
                <g id="what-content" transform="translate(0.000000, 262.000000)">
                    <g id="profile-AS">
                        <g id="article-title" filter="url(#filter-1)" transform="translate(509.000000, 28.000000)">
                            <path d="M246.350685,21.3989479 C247.474001,22.3040178 247.621115,23.4461041 246.849997,25.4293035 C248.309652,25.570116 249.255776,26.3187872 249.673601,27.7118638 C249.716259,27.8553636 249.96072,27.9827398 250.137366,28.0386349 C251.401233,28.4374245 252.229775,29.4397733 252.268604,30.6517284 C252.310168,31.9324775 251.571317,33.0294178 250.351201,33.5002261 C249.687274,33.7560535 249.611803,34.089274 250.132444,34.5874923 C251.003643,35.421081 251.277636,36.4266545 250.925984,37.5434805 C250.572692,38.6656811 249.741416,39.3428712 248.556301,39.5218428 C247.385952,39.6986647 246.440375,39.2466672 245.77262,38.3141873 C245.470735,37.8917497 245.243228,37.7831843 244.732978,38.0142888 C242.16532,39.1784107 239.539144,37.792321 239.122959,35.0454018 C238.956157,33.9457742 239.422109,32.9869591 240.042831,31.9389269 C239.866732,31.9840729 239.657272,31.9846104 239.520002,32.0824267 C239.002643,32.4495067 238.498955,32.8375473 238.011127,33.242249 C237.868935,33.3604885 237.701586,33.5625706 237.706508,33.7211191 C237.745338,34.9615592 237.770495,36.206299 237.904483,37.4386773 C238.047222,38.7489863 238.764198,39.7884192 239.718524,40.6961763 C239.924156,40.891809 240.067988,41.236316 240.086583,41.5222406 C240.138537,42.3402432 240.094239,43.1641577 240.119396,43.9848475 C240.181742,46.034691 240.993877,46.9123508 243.050191,47.1907511 C243.403483,47.2385844 243.768807,47.2633072 244.102411,47.3734849 C244.411952,47.4756009 244.687586,47.6782204 244.977986,47.8362314 C244.955563,47.9001883 244.933687,47.9636076 244.911812,48.027027 L230.545503,48.027027 C230.296667,47.4444286 230.702461,47.1998878 231.182632,47.0757363 C231.871716,46.898377 232.581582,46.802173 233.277229,46.6468493 C235.611365,46.1271328 236.418577,44.9624734 236.109036,42.6541154 C235.907233,41.1503236 235.75301,39.6400823 235.564879,38.0218132 C235.340653,38.2163709 235.178773,38.362558 235.010877,38.5022956 C234.015533,39.333197 232.900967,39.7325242 231.575848,39.4815339 C231.369669,39.4422999 231.057941,39.5411911 230.905905,39.6873782 C229.053581,41.4674205 226.725462,40.9783388 225.820902,38.6022618 C225.788089,38.5157319 225.748165,38.4318894 225.712617,38.3496591 C223.643725,38.5404547 222.399545,37.6074374 222.062113,35.9719697 C221.74929,34.4585038 222.635256,33.2685842 224.332262,32.6505139 C224.697039,31.7228711 225.024627,30.8908947 225.358231,30.0427949 C224.436718,30.1341618 223.457234,29.911119 222.825574,29.0678562 C222.449312,28.5653382 222.150709,27.9160957 222.076332,27.3023251 C221.906795,25.9173102 222.935499,24.7548007 224.540628,24.3151646 C224.805323,21.0496039 226.55155,19.9155793 229.31609,21.2543732 C229.452266,20.224077 229.742119,19.2491383 230.735821,18.7299593 C231.223102,18.4752069 231.827418,18.2188421 232.338762,18.2806491 C233.031128,18.3650291 233.430906,18.1597223 233.93514,17.7415844 C235.581832,16.3743055 238.07402,16.97249 238.975845,18.9218298 C239.164523,19.3292187 239.362498,19.4625069 239.810402,19.473256 C240.809027,19.4974413 241.571395,19.9849107 242.097505,20.8190368 C242.220556,21.0146695 242.325559,21.2215886 242.439313,21.4242082 C244.011627,20.4933406 245.222993,20.4901159 246.350685,21.3989479 Z" id="Fill-1"></path>
                        </g>
                    </g>
                </g>
            </g>
        </g>
    </g>
</svg>