<?xml version="1.0" encoding="UTF-8"?>
<svg width="31px" height="32px" viewBox="0 0 31 32" version="1.1" xmlns="http://www.w3.org/2000/svg" xmlns:xlink="http://www.w3.org/1999/xlink">
    <!-- Generator: Sketch 49.3 (51167) - http://www.bohemiancoding.com/sketch -->
    <title>Fill 1</title>
    <desc>Created with Sketch.</desc>
    <defs></defs>
    <g id="Page-1" stroke="none" stroke-width="1" fill="none" fill-rule="evenodd">
        <path d="M24.3506849,4.39894793 C25.4740013,5.30401777 25.6211152,6.44610412 24.8499974,8.42930347 C26.3096524,8.570116 27.2557757,9.31878719 27.6736013,10.7118638 C27.7162589,10.8553636 27.9607197,10.9827398 28.1373658,11.0386349 C29.4012335,11.4374245 30.229775,12.4397733 30.2686044,13.6517284 C30.3101682,14.9324775 29.5713169,16.0294178 28.3512006,16.5002261 C27.6872736,16.7560535 27.6118025,17.089274 28.1324438,17.5874923 C29.0036429,18.421081 29.2776359,19.4266545 28.9259842,20.5434805 C28.5726919,21.6656811 27.7414159,22.3428712 26.5563007,22.5218428 C25.3859516,22.6986647 24.4403752,22.2466672 23.7726199,21.3141873 C23.4707355,20.8917497 23.2432284,20.7831843 22.732978,21.0142888 C20.1653196,22.1784107 17.5391437,20.792321 17.1229588,18.0454018 C16.9561567,16.9457742 17.4221088,15.9869591 18.0428313,14.9389269 C17.8667321,14.9840729 17.6572724,14.9846104 17.5200025,15.0824267 C17.0026425,15.4495067 16.4989549,15.8375473 16.0111272,16.242249 C15.8689352,16.3604885 15.7015862,16.5625706 15.7065083,16.7211191 C15.7453376,17.9615592 15.7704946,19.206299 15.9044832,20.4386773 C16.047222,21.7489863 16.7641976,22.7884192 17.7185243,23.6961763 C17.9241557,23.891809 18.0679884,24.236316 18.0865827,24.5222406 C18.1385375,25.3402432 18.0942392,26.1641577 18.1193962,26.9848475 C18.1817419,29.034691 18.9938767,29.9123508 21.050191,30.1907511 C21.4034833,30.2385844 21.7688072,30.2633072 22.1024114,30.3734849 C22.4119524,30.4756009 22.687586,30.6782204 22.9779857,30.8362314 C22.9555631,30.9001883 22.9336874,30.9636076 22.9118118,31.027027 L8.54550303,31.027027 C8.29666712,30.4444286 8.70246106,30.1998878 9.18263233,30.0757363 C9.87171638,29.898377 10.5815823,29.802173 11.2772291,29.6468493 C13.6113646,29.1271328 14.4185773,27.9624734 14.1090364,25.6541154 C13.9072332,24.1503236 13.7530097,22.6400823 13.5648788,21.0218132 C13.340653,21.2163709 13.1787729,21.362558 13.0108771,21.5022956 C12.0155334,22.333197 10.9009673,22.7325242 9.57584775,22.4815339 C9.36966943,22.4422999 9.05794093,22.5411911 8.90590492,22.6873782 C7.05358136,24.4674205 4.72546167,23.9783388 3.82090213,21.6022618 C3.7880886,21.5157319 3.74816548,21.4318894 3.71261749,21.3496591 C1.64372465,21.5404547 0.399545114,20.6074374 0.0621126845,18.9719697 C-0.2507096,17.4585038 0.635255611,16.2685842 2.33226182,15.6505139 C2.69703885,14.7228711 3.02462722,13.8908947 3.35823141,13.0427949 C2.43671821,13.1341618 1.45723445,12.911119 0.825574064,12.0678562 C0.449312295,11.5653382 0.150709206,10.9160957 0.0763318792,10.3023251 C-0.0932046735,8.91731025 0.935499377,7.75480071 2.54062771,7.31516465 C2.80532349,4.04960387 4.55154998,2.91557931 7.31608957,4.25437323 C7.45226571,3.22407699 7.74211852,2.24913833 8.73582148,1.72995932 C9.22310235,1.47520688 9.82741812,1.21884209 10.3387622,1.28064911 C11.0311276,1.36502914 11.4309058,1.15972232 11.9351403,0.741584356 C13.5818324,-0.625694547 16.0740198,-0.0275100269 16.9758448,1.92182982 C17.1645226,2.32921874 17.3624976,2.46250694 17.8104022,2.47325598 C18.8090272,2.49744134 19.5713948,2.98491067 20.097505,3.81903679 C20.2205557,4.01466946 20.325559,4.22158864 20.4393125,4.42420819 C22.0116273,3.49334064 23.2229934,3.49011592 24.3506849,4.39894793 Z" id="Fill-1" fill="#FFFFFF"></path>
    </g>
</svg>