<?xml version="1.0" encoding="UTF-8"?>
<svg width="27px" height="34px" viewBox="0 0 27 34" version="1.1" xmlns="http://www.w3.org/2000/svg" xmlns:xlink="http://www.w3.org/1999/xlink">
    <!-- Generator: Sketch 62 (91390) - https://sketch.com -->
    <title>apple</title>
    <desc>Created with Sketch.</desc>
    <g id="map-icons" stroke="none" stroke-width="1" fill="none" fill-rule="evenodd">
        <g id="art" transform="translate(-1278.000000, -601.000000)">
            <g id="apple" transform="translate(1278.000000, 601.000000)">
                <path d="M18.5734413,3.12349057 C18.1178413,2.82259056 17.6222913,2.53954055 17.1785912,2.19189054 C16.7382912,1.84764053 16.3761912,1.94029054 16.0421412,2.29559055 C14.5877912,3.84344059 13.7029411,5.73639064 12.8988411,7.6633407 C12.8180911,7.8588407 13.1317411,8.33399072 13.3816411,8.50484072 C13.5031911,8.58814072 13.9630412,8.33059072 14.1568412,8.12234071 C14.4653912,7.7899907 14.6345412,7.32929069 14.9413912,6.99524068 C16.1305412,5.69389064 17.3511412,4.42059061 18.5734413,3.12349057 M7.24634096,0.0456404832 C7.28629096,0.684840501 7.25739096,1.35379052 7.38149097,1.99299054 C7.80989098,4.1902406 10.035191,6.06279065 12.0989911,5.98374065 C12.3182911,5.97524065 12.6795411,5.76444064 12.7186411,5.59019064 C13.3578411,2.72654056 10.3573411,-0.41675953 7.24634096,0.0456404832 M-6.7146294e-14,18.137041 C0.414040771,22.1957911 1.85054081,26.7985412 4.9445409,30.7595413 C6.93014095,33.3018914 8.90044101,33.8424914 11.9111411,32.7825414 C12.9438911,32.4178914 13.8669911,32.4212914 14.8980412,32.7850914 C17.7183413,33.7795914 19.7940413,33.3027414 21.5509914,31.1301414 C24.8013915,27.1121912 26.5948915,22.4507911 26.7657415,17.309141 C26.9799415,10.8899408 20.7655913,6.48354066 14.6923412,8.58984072 C13.7955911,8.90094073 12.9940411,8.89329073 12.1023911,8.58559072 C6.06399093,6.49629066 -0.027109241,10.8627408 -6.7146294e-14,18.137041" id="Fill-96" fill="#FEFEFE"></path>
                <path d="M0.000340000009,18.137041 C-0.026769241,10.8627408 6.06433093,6.49629066 12.1027311,8.58559072 C12.9943811,8.89329073 13.7950811,8.90094073 14.6926812,8.58984072 C20.7650813,6.48354066 26.9794315,10.8899408 26.7660815,17.309141 C26.5943815,22.4507911 24.8017315,27.1121912 21.5513314,31.1301414 C19.7943813,33.3027414 17.7186813,33.7795914 14.8983812,32.7842414 C13.8664811,32.4212914 12.9442311,32.4178914 11.9106311,32.7816914 C8.90078101,33.8424914 6.93048095,33.3018914 4.9440309,30.7595413 C1.85088081,26.7976912 0.414380771,22.1957911 0.000340000009,18.137041" id="Fill-98" fill="#231F20"></path>
                <path d="M7.24659596,0.0455554832 C10.3575961,-0.41684453 13.3572461,2.72645556 12.7188961,5.59010564 C12.6797961,5.76520564 12.3176961,5.97600565 12.0983961,5.98365565 C10.034596,6.06270565 7.81014598,4.1901556 7.38174597,1.99290554 C7.25679596,1.35370552 7.28654596,0.684755501 7.24659596,0.0455554832" id="Fill-100" fill="#231F20"></path>
                <path d="M18.5734413,3.12349057 C17.3511412,4.42059061 16.1305412,5.69389064 14.9413912,6.99524068 C14.6345412,7.32929069 14.4653912,7.7899907 14.1568412,8.12234071 C13.9630412,8.33059072 13.5031911,8.58814072 13.3816411,8.50484072 C13.1317411,8.33399072 12.8180911,7.8588407 12.8988411,7.6633407 C13.7029411,5.73639064 14.5877912,3.84344059 16.0421412,2.29559055 C16.3761912,1.94029054 16.7382912,1.84764053 17.1785912,2.19189054 C17.6222913,2.53954055 18.1178413,2.82259056 18.5734413,3.12349057" id="Fill-102" fill="#231F20"></path>
            </g>
        </g>
    </g>
</svg>