<?xml version="1.0" encoding="UTF-8"?>
<svg width="29px" height="40px" viewBox="0 0 29 40" version="1.1" xmlns="http://www.w3.org/2000/svg" xmlns:xlink="http://www.w3.org/1999/xlink">
    <!-- Generator: Sketch 49.3 (51167) - http://www.bohemiancoding.com/sketch -->
    <title>bigwater</title>
    <desc>Created with Sketch.</desc>
    <defs></defs>
    <g id="bigwater">
        <path d="M13.1011962,39.1917778 C12.2958885,39.0217778 11.4816577,38.884 10.6863885,38.6773333 C3.81896538,36.894 -0.712842308,30.5006667 0.0924653846,23.6306667 C0.371311538,21.2528889 1.32608077,19.0495556 2.41692692,16.9228889 C5.57458077,10.7651111 9.81638846,5.33844444 14.4586192,-0.000444444444 C15.7881577,1.604 17.0953885,3.12622222 18.3412731,4.694 C21.6606577,8.86733333 24.74135,13.1928889 26.9832731,18.0262222 C28.0506962,20.3273333 28.8850038,22.6862222 28.8626962,25.2806667 C28.8080423,31.7651111 24.1022346,37.4617778 17.5917346,38.8362222 C16.9894269,38.9628889 16.3837731,39.074 15.7792346,39.1917778 L13.1011962,39.1917778 Z M20.2619654,13.3895556 C20.3846577,13.6351111 20.5140423,13.8784444 20.6300423,14.1284444 C21.4331192,15.8651111 22.3644654,17.5584444 23.0091577,19.3506667 C24.8082731,24.3551111 23.9940423,28.8651111 19.9630423,32.614 C19.3161192,33.2162222 18.5041192,33.6495556 17.5984269,34.2795556 C18.1170808,34.1817778 18.4583885,34.1384444 18.7874269,34.0506667 C22.7726962,32.9951111 25.5935038,29.0051111 25.2756192,24.6684444 C24.9610808,20.3673333 22.5485038,16.894 20.2619654,13.3895556 Z" ></path>
    </g>
</svg>