<?xml version="1.0" encoding="UTF-8"?>
<svg width="18px" height="38px" viewBox="0 0 18 38" version="1.1" xmlns="http://www.w3.org/2000/svg" xmlns:xlink="http://www.w3.org/1999/xlink">
    <!-- Generator: Sketch 62 (91390) - https://sketch.com -->
    <title>bolt</title>
    <desc>Created with Sketch.</desc>
    <g id="map-icons">
        <g id="art" transform="translate(-894.000000, -598.000000)">
            <path d="M897.444479,636 C897.433306,635.937951 897.414313,635.903101 897.424368,635.874201 C897.587487,635.415205 897.75284,634.956209 897.920427,634.498063 C898.069021,634.094316 898.220967,633.69142 898.369561,633.287673 C898.533797,632.839727 898.693563,632.391781 898.857799,631.943835 C899.004159,631.542638 899.15387,631.142292 899.302464,630.741945 C899.452176,630.338198 899.604121,629.934452 899.752716,629.530705 C899.918068,629.078509 900.082304,628.627163 900.24654,628.174967 C900.478927,627.535773 900.710198,626.895728 900.94482,626.256533 C901.090063,625.862987 901.240891,625.47029 901.385016,625.075894 C901.554838,624.611798 901.715722,624.145152 901.888896,623.680206 C902.033021,623.289209 902.190553,622.899912 902.353671,622.477466 L902.053131,622.477466 C900.170567,622.477466 898.288002,622.474066 896.405437,622.480866 C896.162994,622.481716 896.11607,622.428166 896.190925,622.265818 C896.405437,621.806822 896.617715,621.346126 896.825523,620.885429 C896.92831,620.656781 897.018807,620.425583 897.11489,620.195235 C897.301471,619.747289 897.4847,619.298493 897.676867,618.850547 C897.815406,618.5284 897.970703,618.208802 898.110359,617.886655 C898.360623,617.31376 898.603066,616.738315 898.85333,616.16542 C898.994103,615.843273 899.148284,615.525375 899.289057,615.204078 C899.532617,614.648183 899.76724,614.090588 900.011917,613.534692 C900.171684,613.174296 900.342623,612.816449 900.520266,612.430552 L894,612.430552 C894.125132,612.075255 894.234622,611.734408 894.366458,611.399511 C894.563094,610.895465 894.77984,610.395669 894.979827,609.892474 C895.08038,609.637476 895.155236,609.377378 895.254671,609.12238 C895.45801,608.600485 895.672522,608.081139 895.876978,607.559244 C895.976414,607.304246 896.062442,607.046698 896.155173,606.79085 C896.34734,606.263855 896.537273,605.736859 896.732791,605.209864 C896.886972,604.793367 897.047856,604.377721 897.207622,603.962074 C897.445596,603.33818 897.684687,602.715985 897.924896,602.09209 C898.070138,601.718094 898.217615,601.344947 898.36174,600.9701 C898.528211,600.536604 898.689094,600.103107 898.854447,599.669611 C899.004159,599.276915 899.154987,598.885918 899.30805,598.494921 C899.360561,598.358922 899.413072,598.222924 899.482341,598.092025 C899.503569,598.052925 899.580659,598.012125 899.636522,598.007025 C899.775061,597.994276 899.916951,598.002775 900.057725,598.002775 C903.178201,598.002775 906.299795,598.001925 909.421389,598.001925 L910.342002,598.001925 C910.207932,598.290073 910.090621,598.563771 909.954317,598.830668 C909.769971,599.192765 909.569983,599.549762 909.380051,599.910159 C909.286202,600.086958 909.200174,600.266306 909.114146,600.445655 C908.833716,601.02365 908.556638,601.602495 908.272857,602.17964 C908.051642,602.630136 907.821488,603.079782 907.594687,603.529428 C907.361182,603.995224 907.128794,604.46102 906.895289,604.925116 C906.735522,605.242163 906.57799,605.559211 906.415989,605.875408 C906.145615,606.399004 905.868537,606.920899 905.601514,607.446195 C905.512135,607.624693 905.4451,607.809141 905.357954,608.01144 L911.604494,608.01144 C911.489417,608.238388 911.39892,608.440686 911.284961,608.636184 C911.196698,608.785783 911.06598,608.923482 910.978834,609.073081 C910.782198,609.412228 910.610142,609.759025 910.412389,610.096472 C910.140898,610.564818 909.852647,611.026364 909.577804,611.49301 C909.38452,611.820257 909.206877,612.151754 909.01471,612.479851 C908.824778,612.803699 908.623673,613.124146 908.429272,613.447143 C908.342126,613.591642 908.256098,613.736991 908.172305,613.882339 C907.844951,614.452685 907.518714,615.02388 907.190243,615.594225 C906.860654,616.16882 906.529948,616.742565 906.20036,617.31716 C905.960151,617.733656 905.722177,618.151853 905.479734,618.567499 C905.4451,618.626999 905.385885,618.677148 905.305443,618.768948 L912,618.768948 C911.696108,619.136144 911.423499,619.473592 911.139718,619.804239 C910.794488,620.209685 910.436969,620.609182 910.089504,621.012078 C909.904041,621.227127 909.728633,621.448125 909.546521,621.664873 C909.14878,622.137469 908.75104,622.610915 908.351064,623.083511 C907.986841,623.513607 907.617032,623.940303 907.257278,624.3721 C906.908696,624.790296 906.575756,625.216142 906.222705,625.632639 C905.788095,626.144334 905.334492,626.64838 904.898765,627.160926 C904.623922,627.483073 904.377009,627.81967 904.103283,628.143517 C903.830675,628.467365 903.535721,628.779312 903.261995,629.103159 C902.989386,629.424456 902.738005,629.755953 902.466514,630.078101 C902.199491,630.394298 901.91571,630.703695 901.646453,631.019043 C901.378313,631.33269 901.117994,631.650587 900.853206,631.966785 C900.594004,632.274482 900.332568,632.581329 900.074483,632.889027 C899.872261,633.130425 899.674508,633.373522 899.470052,633.61407 C899.30023,633.815519 899.122587,634.011867 898.951648,634.211615 C898.725964,634.476813 898.504748,634.742861 898.280181,635.008908 C898.009807,635.330206 897.739433,635.651503 897.444479,636" id="bolt"></path>
        </g>
    </g>
</svg>
