<?xml version="1.0" encoding="UTF-8"?>
<svg width="46px" height="48px" viewBox="0 0 46 48" version="1.1" xmlns="http://www.w3.org/2000/svg" xmlns:xlink="http://www.w3.org/1999/xlink">
    <!-- Generator: Sketch 49.3 (51167) - http://www.bohemiancoding.com/sketch -->
    <title>brain</title>
    <desc>Created with Sketch.</desc>
    <defs></defs>
    <g id="Page-1" stroke="none" stroke-width="1" fill="none" fill-rule="evenodd">
        <g id="brain" fill="#00447B">
            <path d="M29.4842,47.7709 L9.5092,47.7709 C8.6692,47.3159 8.3952,46.6199 8.4242,45.6689 C8.4832,43.7579 8.4762,41.8429 8.4282,39.9319 C8.3472,36.7609 7.6922,33.8569 5.4452,31.3379 C3.9642,29.6789 2.7762,27.6679 1.8232,25.6429 C-1.8878,17.7579 0.1712,9.2109 7.0402,4.0319 C11.5012,0.6689 16.6392,-0.4141 22.1632,0.1359 C28.6682,0.7849 33.8792,3.7079 37.5892,9.0869 C40.0992,12.7269 41.5732,16.7269 40.7602,21.2709 C40.3972,23.2959 40.9312,25.0439 42.3092,26.5549 C43.0722,27.3909 43.8372,28.2259 44.5802,29.0799 C45.5862,30.2339 45.2122,31.4119 43.7252,31.7889 C43.2472,31.9099 42.7592,32.0009 42.2712,32.0749 C41.5782,32.1799 41.2762,32.4849 41.2882,33.2599 C41.3172,35.0999 41.2232,36.9419 41.1912,38.7829 C41.1602,40.5349 40.3222,41.6069 38.5802,41.8019 C37.4342,41.9299 36.2582,41.8479 35.0982,41.7889 C32.0842,41.6359 30.7032,42.7969 30.5772,45.7649 C30.5392,46.6689 30.2482,47.3199 29.4842,47.7709 M13.2982,6.6609 C13.0982,6.6149 12.9652,6.5849 12.8322,6.5539 C10.7442,6.0609 8.5072,7.0019 7.8872,8.7809 C7.5662,9.7019 7.3482,10.5559 6.4812,11.1949 C6.0912,11.4829 5.8002,12.3139 5.9112,12.7939 C6.1822,13.9559 5.6862,14.7669 5.1592,15.6909 C3.7782,18.1109 4.2042,20.5969 6.1932,22.4679 C6.3212,22.5889 6.4282,22.8019 6.4332,22.9749 C6.5112,25.6109 7.5672,26.4469 10.2962,25.9429 C10.6672,27.1039 11.5932,27.6089 12.7272,27.8299 C13.2462,27.9299 13.7772,28.1149 14.2902,28.0789 C16.0382,27.9539 17.0702,28.5349 17.0602,30.4639 C17.0582,30.6959 17.5512,31.0339 17.8742,31.1399 C18.3892,31.3099 18.6992,31.0239 18.8572,30.4809 C19.1522,29.4669 19.5742,28.4889 19.8412,27.4689 C20.3352,25.5849 21.5992,24.6819 23.4402,24.3809 C24.8062,24.1569 25.9422,23.5149 26.8832,22.4639 C28.1032,21.0999 29.5522,20.0929 31.3952,19.6589 C32.8802,19.3099 33.2332,18.7659 33.3822,17.2149 C35.0882,16.4039 35.6712,15.2419 34.9832,13.4469 C34.6212,12.5019 33.8582,11.7109 33.2702,10.8549 C32.4772,9.7009 31.5052,8.8229 30.3472,7.9559 C29.0132,6.9569 27.8652,6.2329 26.2072,6.3379 C25.8892,6.3579 25.4412,6.2209 25.2492,5.9919 C24.3882,4.9629 23.3572,4.7489 22.1032,5.0639 C21.7142,5.1609 21.2012,5.1359 20.8532,4.9559 C19.5762,4.2989 18.3662,4.3199 17.1182,5.0139 C16.8102,5.1859 16.3872,5.2889 16.0462,5.2359 C14.8142,5.0449 13.8882,5.3909 13.2982,6.6609" id="Fill-1"></path>
        </g>
    </g>
</svg>