<?xml version="1.0" encoding="UTF-8"?>
<svg width="69px" height="42px" viewBox="0 0 69 42" version="1.1" xmlns="http://www.w3.org/2000/svg" xmlns:xlink="http://www.w3.org/1999/xlink">
    <!-- Generator: Sketch 49.3 (51167) - http://www.bohemiancoding.com/sketch -->
    <title>cow</title>
    <desc>Created with Sketch.</desc>
    <defs></defs>
    <g id="Page-1" stroke="none" stroke-width="1" fill="none" fill-rule="evenodd">
        <g id="cow" fill="#00447B">
            <path d="M0,11.106 L0,10.445 C0.419,9.811 0.96,9.294 1.594,8.88 C2.892,8.033 3.978,6.973 4.91,5.75 C5.239,5.32 5.571,4.892 5.89,4.455 C6.412,3.738 7.154,3.29 7.886,2.829 C8.075,2.71 8.261,2.588 8.491,2.44 C8.097,2.44 7.777,2.446 7.458,2.439 C6.637,2.423 5.808,2.468 4.998,2.367 C3.987,2.241 3.328,1.513 3.194,0.555 C3.141,0.178 3.307,0.015 3.669,0.14 C3.96,0.241 4.241,0.385 4.503,0.546 C4.886,0.781 5.29,0.88 5.738,0.872 C7.18,0.846 8.523,0.374 9.889,0 L10.824,0 C11.497,0.186 11.909,0.649 12.194,1.252 C12.251,1.371 12.328,1.481 12.404,1.589 C12.736,2.057 12.989,2.156 13.548,2.018 C13.763,1.965 13.976,1.895 14.178,1.806 C14.654,1.594 15.124,1.37 15.594,1.144 C15.919,0.987 16.146,1.045 16.292,1.334 C16.644,2.034 16.281,3.038 15.566,3.346 C15.423,3.407 15.271,3.46 15.147,3.548 C15.028,3.633 14.94,3.759 14.838,3.867 C14.953,3.961 15.053,4.097 15.185,4.142 C17.32,4.879 19.498,5.243 21.74,4.715 C23.303,4.346 24.848,4.309 26.432,4.613 C28.341,4.979 30.264,5.29 32.192,5.533 C34.616,5.839 37.06,5.817 39.496,5.727 C42.464,5.618 45.431,5.455 48.395,5.258 C50.313,5.13 52.223,4.878 54.139,4.72 C55.256,4.628 56.387,4.502 57.496,4.59 C58.733,4.687 59.961,4.904 61.211,4.913 C61.534,4.916 61.904,5.047 62.171,5.234 C63.568,6.211 64.538,7.506 65.023,9.145 C65.705,11.453 65.595,13.806 65.448,16.16 C65.391,17.071 65.259,17.979 65.234,18.89 C65.205,19.973 65.568,20.916 66.425,21.648 C66.87,22.029 67.3,22.434 67.699,22.862 C68.53,23.754 68.623,24.554 68.084,25.641 C68.008,25.795 67.948,25.974 67.946,26.143 C67.94,26.527 67.969,26.912 67.992,27.296 C68.023,27.822 68.089,28.348 68.087,28.874 C68.085,29.31 67.875,29.459 67.437,29.411 C66.853,29.346 66.478,28.995 66.296,28.474 C66.156,28.073 66.034,27.645 66.019,27.225 C65.981,26.139 65.613,25.187 64.991,24.31 C64.71,23.914 64.453,23.501 64.191,23.092 C63.916,22.662 63.781,22.187 63.807,21.679 C63.842,21.009 63.92,20.341 63.939,19.671 C64.015,17.077 63.878,14.497 63.332,11.952 C63.161,11.158 62.947,10.373 62.715,9.594 C62.646,9.364 62.448,9.171 62.309,8.961 C62.28,8.978 62.252,8.994 62.224,9.011 C62.228,9.074 62.225,9.14 62.239,9.201 C62.489,10.305 62.711,11.416 62.998,12.51 C63.508,14.448 63.406,16.387 63.12,18.341 C62.945,19.537 62.838,20.743 62.724,21.947 C62.633,22.912 62.937,23.745 63.652,24.426 C63.827,24.593 63.968,24.796 64.114,24.99 C64.465,25.461 64.572,25.991 64.438,26.556 C64.354,26.908 64.24,27.255 64.114,27.595 C63.757,28.565 63.566,29.563 63.528,30.596 C63.478,31.967 63.641,33.322 63.849,34.671 C63.972,35.462 64.168,36.243 64.31,37.032 C64.383,37.438 64.409,37.863 64.042,38.164 C63.667,38.472 63.56,38.859 63.615,39.314 C63.64,39.522 63.672,39.729 63.689,39.937 C63.759,40.814 63.547,41.095 62.679,41.318 C61.588,41.596 60.476,41.621 59.363,41.563 C58.993,41.543 58.615,41.442 58.267,41.309 C57.87,41.159 57.845,40.905 58.178,40.653 C58.557,40.365 58.952,40.096 59.349,39.833 C60.017,39.389 60.482,38.793 60.632,38.013 C60.782,37.237 60.892,36.45 60.964,35.664 C61.132,33.812 60.861,32.018 60.12,30.305 C59.794,29.553 59.368,28.861 58.769,28.258 C58.716,28.33 58.672,28.378 58.641,28.432 C57.304,30.713 56.353,33.118 56.12,35.774 C56.035,36.748 55.804,37.663 54.723,38.103 C54.506,38.192 54.344,38.555 54.272,38.822 C54.174,39.188 54.186,39.583 54.149,39.984 C54.05,40.01 53.945,40.047 53.837,40.064 C52.861,40.222 51.887,40.401 50.906,40.523 C50.415,40.584 49.908,40.578 49.414,40.531 C48.988,40.491 48.922,40.303 49.189,39.958 C49.453,39.619 49.734,39.283 50.058,39.003 C51.102,38.105 52.012,37.121 52.538,35.822 C52.98,34.731 53.499,33.67 53.949,32.581 C54.295,31.742 54.438,30.866 54.196,29.965 C54.072,29.503 53.8,29.361 53.343,29.508 C52.864,29.662 52.643,30.029 52.459,30.467 C52.189,31.111 51.9,31.159 51.341,30.739 C51.059,30.528 50.779,30.279 50.457,30.161 C49.858,29.941 49.48,29.992 49.192,30.502 C49.154,30.569 49.103,30.628 49.056,30.69 C48.884,30.916 48.666,31.061 48.369,30.995 C48.082,30.931 47.879,30.732 47.845,30.455 C47.78,29.916 47.411,29.651 47.006,29.375 C46.302,28.895 45.586,28.422 44.94,27.872 C44.535,27.527 44.132,27.406 43.632,27.464 C43.267,27.506 42.902,27.556 42.536,27.561 C41.066,27.579 39.645,27.248 38.222,26.943 C36.925,26.665 35.625,26.428 34.288,26.517 C32.481,26.636 31.611,27.36 31.284,29.118 C31.145,29.861 31.114,30.625 31.067,31.381 C31.029,31.996 31.054,32.614 31.026,33.23 C30.958,34.704 30.841,36.177 31.544,37.568 C31.67,37.816 31.663,38.146 31.658,38.437 C31.652,38.736 31.486,38.966 31.154,38.998 C30.724,39.041 30.536,39.302 30.477,39.691 C30.45,39.865 30.423,40.039 30.403,40.213 C30.348,40.688 30.094,41.016 29.642,41.164 C29.381,41.25 29.102,41.298 28.828,41.323 C28.053,41.391 27.276,41.448 26.499,41.491 C26.112,41.513 25.72,41.518 25.333,41.486 C25.177,41.473 25.03,41.341 24.879,41.264 C24.967,41.12 25.026,40.945 25.147,40.838 C25.463,40.561 25.8,40.306 26.14,40.057 C27.092,39.36 27.7,38.443 27.968,37.303 C28.246,36.119 28.267,34.923 28.103,33.725 C27.95,32.617 27.596,31.559 27.232,30.471 C27.171,30.536 27.136,30.563 27.113,30.599 C26.125,32.13 25.541,33.791 25.444,35.616 C25.4,36.46 25.333,37.304 25.248,38.145 C25.213,38.491 25.02,38.729 24.617,38.736 C24.319,38.741 24.15,38.917 24.103,39.204 C24.063,39.454 24.02,39.703 23.992,39.954 C23.954,40.31 23.773,40.506 23.406,40.556 C22.098,40.736 20.792,40.639 19.474,40.59 C19.368,39.969 19.622,39.531 20.096,39.212 C20.435,38.984 20.799,38.789 21.164,38.602 C21.797,38.276 22.231,37.786 22.467,37.122 C23.059,35.458 23.123,33.761 22.751,32.048 C22.47,30.757 22.152,29.474 22.235,28.135 C22.254,27.828 22.059,27.653 21.773,27.63 C21.276,27.59 20.775,27.578 20.276,27.572 C19.862,27.567 19.522,27.424 19.228,27.139 C18.778,26.704 18.57,26.15 18.441,25.565 C18.203,24.486 17.94,23.411 17.339,22.469 C16.71,21.483 16.03,20.529 15.355,19.574 C14.526,18.402 13.714,17.216 12.83,16.085 C11.505,14.389 9.752,13.646 7.565,13.842 C6.338,13.951 5.097,13.967 3.866,13.929 C3.166,13.907 2.462,13.728 1.779,13.549 C1.244,13.409 0.86,13.041 0.641,12.513 C0.444,12.038 0.215,11.575 0,11.106" id="Fill-1"></path>
        </g>
    </g>
</svg>