<?xml version="1.0" encoding="UTF-8"?>
<svg width="42px" height="37px" viewBox="0 0 42 37" version="1.1" xmlns="http://www.w3.org/2000/svg" xmlns:xlink="http://www.w3.org/1999/xlink">
    <!-- Generator: Sketch 49.3 (51167) - http://www.bohemiancoding.com/sketch -->
    <title>crab</title>
    <desc>Created with Sketch.</desc>
    <defs></defs>
    <g id="Page-1" stroke="none" stroke-width="1" fill="none" fill-rule="evenodd">
        <g id="crab" fill="#00447B">
            <path d="M0,18.1504588 C0.183473684,17.5334294 0.366947368,16.9174882 0.550421053,16.3004588 C1.22131579,20.1462824 2.33652632,23.5970765 7.54563158,23.5557235 C7.08031579,22.9778706 6.73547368,22.1954294 6.13310526,21.8537235 C1.28542105,19.1059294 1.69105263,14.0956941 4.62,10.3391059 C4.221,13.6821647 2.63605263,17.1101059 6.26573684,19.4791941 C7.42957895,17.2026059 7.55557895,14.9662824 6.89352632,12.5471353 C6.49231579,11.0834588 6.66473684,9.45545882 6.67247368,7.90145882 C6.67468421,7.43787059 6.85373684,6.79581176 7.18973684,6.54334118 C9.91973684,4.49854706 12.3225789,1.81387059 16.0263158,1.50263529 C17.5571053,1.37531176 19.1210526,1.63213529 20.7192632,2.02281176 C18.6988421,2.77478235 16.4286316,2.88142941 15.3056842,5.50081176 C16.7126842,5.92522353 18.1451053,6.35834118 20.0958947,6.94816471 C18.8071579,7.26919412 17.9859474,7.5184 17.1481579,7.67184118 C16.0871053,7.86554706 15.0039474,7.93845882 13.9462105,8.14413529 C13.0785789,8.3139 11.8539474,8.34001765 11.4604737,8.89284118 C10.6392632,10.0496353 10.2424737,11.5046059 9.72963158,12.8583706 C9.66663158,13.0248706 9.95952632,13.3219588 10.0755789,13.5374294 C17.2155789,10.8549294 24.2914737,10.8745176 31.3983158,13.3067235 C32.0106316,10.6601353 30.8832632,8.53372353 28.4030526,7.56845882 C26.6467895,6.88504706 24.927,6.11457647 23.1917368,5.38219412 C23.2348421,5.19066471 23.2790526,4.99804706 23.3221579,4.80542941 L27.9333158,4.80542941 C27.1695789,2.44287059 27.1695789,2.44287059 22.9563158,0.182605882 C23.9864211,0.0999 24.6164211,-0.0535411765 25.2198947,0.0182823529 C28.2770526,0.382841176 30.8578421,1.61363529 32.7191053,4.13181176 C33.4198421,5.07966471 34.1360526,6.03731176 34.9793684,6.85675294 C35.8967368,7.74692941 35.9420526,8.62948824 35.5143158,9.74166471 C34.8997895,11.3424588 34.3825263,12.9813412 33.8718947,14.6180471 C33.7867895,14.8911941 33.8884737,15.2677235 34.0144737,15.5474 C34.5814737,16.8097529 35.1882632,18.0536059 35.8602632,19.4726647 C37.1777368,18.5454882 38.0884737,17.1449294 38.2321579,15.4886353 C38.3703158,13.9041647 38.052,12.2805176 37.9337368,10.6819 C40.803,13.5776941 39.9740526,18.9100471 37.0185789,21.0908706 C36.0857368,21.7786353 35.2125789,22.5447529 34.4576842,23.4686647 C36.7787368,24.1031059 38.5228421,23.1128118 39.5441053,21.5381353 C40.5244737,20.0254882 40.8339474,18.0906059 41.4131053,16.4136353 C42.4067368,19.5869294 41.6905263,21.9059588 39.8436316,23.9344294 C37.7303684,26.2545471 34.5925263,25.1456353 32.2449474,26.5744882 C34.4422105,26.8302235 37.0185789,26.3688118 38.2631053,28.5039294 C39.2512105,30.2015765 38.7096316,32.2137235 37.2893684,34.1997529 C37.2893684,33.3063118 37.2595263,32.7023412 37.2948947,32.1016353 C37.4452105,29.5497235 36.6383684,28.5431059 34.0564737,28.5202529 C32.2007368,28.5039294 30.3416842,28.7868706 28.4317895,29.2384882 C30.9142105,29.6182824 33.6983684,29.1155176 33.8674737,32.9036647 C33.9713684,35.2292235 32.1664737,35.5143412 30.7185789,36.3533706 C31.1131579,35.7341647 31.5386842,35.1323706 31.8945789,34.4914 C32.8141579,32.8427235 31.9432105,31.2604294 30.0697895,31.3289882 C27.4193684,31.4269294 24.7755789,31.6837529 22.1284737,31.8448118 C21.336,31.8926941 20.5346842,31.8926941 19.7433158,31.8426353 C17.1525789,31.6815765 14.5673684,31.4236647 11.9755263,31.3257235 C10.0402105,31.2528118 9.177,32.7589294 10.0932632,34.4620176 C10.4104737,35.0518412 10.8172105,35.5937824 11.1896842,36.1683706 C9.33394737,35.8429882 7.98884211,34.7623706 8.21984211,33.4782529 C8.44310526,32.2441941 8.757,30.6390471 9.63347368,30.0133118 C10.5862105,29.3320765 12.2319474,29.5910765 13.5903158,29.4398118 C12.1744737,28.4005471 6.87363158,27.9804882 5.68657895,29.0687235 C5.04994737,29.6531059 4.88747368,30.8284 4.70510526,31.7740765 C4.57578947,32.4389882 4.77142105,33.1659294 4.67636842,33.8787235 C3.28594737,32.1756353 2.68247368,30.0285471 3.81757895,28.3417824 C5.05768421,26.4994 7.52021053,26.6060471 9.71194737,26.8313118 C9.73626316,26.6778706 9.76168421,26.5255176 9.786,26.3731647 C9.22563158,26.2077529 8.67410526,25.9520176 8.10157895,25.8932529 C5.78273684,25.6549294 3.36442105,25.6266353 1.848,23.4904294 C1.11742105,22.4620471 0.609,21.2802235 0,20.1680471 L0,18.1504588 Z" id="Fill-1"></path>
        </g>
    </g>
</svg>