<?xml version="1.0" encoding="UTF-8"?>
<svg width="39px" height="29px" viewBox="0 0 39 29" version="1.1" xmlns="http://www.w3.org/2000/svg" xmlns:xlink="http://www.w3.org/1999/xlink">
    <!-- Generator: Sketch 62 (91390) - https://sketch.com -->
    <title>family</title>
    <desc>Created with Sketch.</desc>
    <g>
        <g id="art" transform="translate(-1146.000000, -654.000000)">
            <g id="family" transform="translate(1146.000000, 654.000000)">
                <path d="M19.0497703,9.6657979 C17.8755703,9.66352183 16.8761704,10.6538018 16.8670504,11.8280018 C16.8579304,13.0105618 17.8892503,14.0426418 19.0604103,14.0221218 C20.2422103,14.0016018 21.2324903,13.0029618 21.227946,11.8348418 C21.2233703,10.6652018 20.2216903,9.66732183 19.0497703,9.6657979 L19.0497703,9.6657979 Z M32.4713702,3.25520191 C32.4949302,1.51936193 31.0798102,0.0290019469 29.3834902,0.00316194726 C27.5169302,-0.0249580524 26.0296102,1.36356193 26.0045302,3.15716191 C25.9794502,4.94392189 27.3915302,6.44416187 29.1174902,6.46468187 C31.0098902,6.48672187 32.4455302,5.11340188 32.4713702,3.25520191 L32.4713702,3.25520191 Z M5.5552105,3.22556191 C5.5430505,4.98116188 6.96729048,6.44948187 8.69553046,6.46316187 C10.5484104,6.47836187 12.0152104,5.06704188 12.0243813,3.25976191 C12.0342104,1.48896193 10.6031304,0.0160819471 8.85893046,0.000121947294 C7.00985048,-0.0150780525 5.5681305,1.39244193 5.5552105,3.22556191 L5.5552105,3.22556191 Z M16.7826904,17.2848017 C16.8108104,17.2901217 16.8396904,17.2962017 16.8678104,17.3015217 L16.8678104,17.6222417 L16.8662904,21.5582817 C16.8662904,23.6262417 16.8678104,25.6934416 16.8640104,27.7614016 C16.8632504,28.1338016 16.9240504,28.4834016 17.2181704,28.7372416 C17.5236903,28.9994416 17.8801303,29.0632816 18.2555703,28.8983616 C18.6750903,28.7129216 18.8582503,28.3648416 18.8590103,27.9217616 C18.8635703,26.1631216 18.8620503,24.4052416 18.8643303,22.6473617 C18.8643303,22.5645217 18.8848503,22.4816817 18.8985303,22.3760417 C19.0208903,22.3897217 19.1234903,22.4018817 19.2412903,22.4148017 L19.2412903,22.8905617 C19.2412903,24.5739616 19.2390103,26.2581216 19.2435703,27.9415216 C19.2450903,28.5024016 19.6159703,28.9386416 20.1023703,28.9774016 C20.6951703,29.0252816 21.1245703,28.6863216 21.2188103,28.0874416 C21.2416103,27.9422816 21.2347703,27.7918016 21.2347703,27.6428416 C21.2347703,24.3376016 21.2340103,21.0323617 21.2332503,17.7263617 L21.2332503,17.3015217 C21.3586503,17.3874017 21.4209703,17.4869617 21.4749303,17.5903217 C22.0426503,18.6854817 22.6020103,19.7844417 23.1780903,20.8758017 C23.4463703,21.3842417 23.9608903,21.5514417 24.4282903,21.3112817 C24.8698503,21.0840417 25.0294503,20.5725617 24.7999303,20.0664017 C24.6167703,19.6620817 24.4199303,19.2646017 24.2208103,18.8686417 C23.6728503,17.7795617 23.1484503,16.6775617 22.5602103,15.6097618 C22.0738103,14.7266418 21.2978503,14.3002818 20.2627303,14.3375218 C19.3970903,14.3686818 18.5291703,14.3481618 17.6627703,14.3428418 C16.8488104,14.3367618 16.1959704,14.6544418 15.7308504,15.3194418 C15.5051304,15.6416818 15.2999304,15.9829217 15.1243704,16.3332817 C14.5064904,17.5675217 13.8969704,18.8063217 13.3026504,20.0519617 C12.9530504,20.7830817 13.4364104,21.4784817 14.2207304,21.3979217 C14.5916104,21.3599217 14.8013704,21.1083617 14.9617304,20.7990417 C15.5674504,19.6271217 16.1754504,18.4559617 16.7826904,17.2848017 L16.7826904,17.2848017 Z M12.0266104,11.2124018 C12.0532104,11.2086018 12.0798104,11.2048018 12.1064104,11.2017618 C12.8740104,12.7377218 13.6416104,14.2744418 14.4358104,15.8636017 C14.9298104,14.9348818 15.4336904,14.1125618 16.4224504,13.7188818 C16.2370104,13.3054418 16.0736104,12.9079618 15.8828504,12.5241618 C15.2778904,11.3081618 14.6972504,10.0777218 14.0413704,8.88984184 C13.3208904,7.58492185 12.1748104,6.96932186 10.6707704,6.99972186 C9.43273045,7.02480186 8.19317047,7.03468186 6.95589048,7.00048186 C5.3857305,6.95716186 4.22901052,7.61684185 3.47737053,8.96964183 C2.92029053,9.97360182 2.40653054,11.0026418 1.89277055,12.0301618 C1.30225055,13.2134818 0.72617056,14.4028818 0.159970567,15.5976018 C-0.259549427,16.4830017 0.181250567,17.3927217 1.09933056,17.5804417 C1.69441055,17.7020417 2.25529054,17.3980417 2.59805054,16.7421617 C3.51309053,14.9888418 4.41977051,13.2309618 5.3302505,11.4761218 C5.3842105,11.3712418 5.4442505,11.2701618 5.5012505,11.1675618 C5.5620505,11.3112018 5.5620505,11.4411618 5.5620505,11.5718818 C5.5605305,16.7474817 5.5597705,21.9238417 5.5605305,27.0994416 C5.5605305,27.3586016 5.5506505,27.6261216 5.6106905,27.8738816 C5.7816905,28.5844816 6.46569049,29.0480816 7.16945048,28.9644816 C7.90513047,28.8770816 8.45689046,28.2812416 8.45917046,27.5273216 C8.46753046,24.8521216 8.46449046,22.1776817 8.46601046,19.5024817 L8.46601046,19.0989217 L9.09377046,19.0989217 C9.10213046,19.2364817 9.11505046,19.3451617 9.11505046,19.4546017 C9.11581046,20.7549617 9.11201046,22.0553217 9.11429046,23.3549217 C9.11733045,24.7913216 9.10897046,26.2277216 9.13785045,27.6641216 C9.15153045,28.3633216 9.76789045,28.9348416 10.4640504,28.9736016 C11.3760504,29.0245216 12.0250904,28.3732016 12.0258504,27.3950816 C12.0281304,22.8008817 12.0266104,18.2066817 12.0266104,13.6124818 L12.0266104,11.2124018 Z" id="Fill-104"></path>
                <path d="M38.0363941,16.5703257 C37.9702741,16.7002857 37.9117541,16.8363257 37.8357541,16.9609657 C37.2946341,17.8478857 36.0322741,17.8212857 35.5169941,16.8842057 C34.8975941,15.7586457 34.3268341,14.6057258 33.7355541,13.4642058 C33.3563142,12.7315658 32.9785942,11.9974058 32.5438742,11.2852858 C33.2749942,14.8344858 34.0068741,18.3844457 34.7471141,21.9746857 L32.5028342,21.9746857 C32.4944742,22.1137657 32.4823142,22.2201657 32.4823142,22.3258057 C32.4800342,24.0228856 32.4853542,25.7192056 32.4754742,27.4155256 C32.4693942,28.3222056 31.8925542,28.9537656 31.0808742,28.9750456 C30.2311942,28.9993656 29.5753142,28.3662856 29.5715142,27.4930456 C29.5631542,25.7845656 29.5669542,24.0753256 29.5661942,22.3668457 L29.5661942,22.0126857 L28.9277942,22.0126857 C28.9277942,22.1631657 28.9270342,22.3090857 28.9277942,22.4542457 C28.9285542,24.0768456 28.9308342,25.6994456 28.9300742,27.3212856 C28.9293142,28.1116856 28.5926342,28.6543256 27.9686742,28.8815656 C26.9852342,29.2395256 26.0093942,28.5182856 26.0048342,27.4162856 C25.9987542,25.7579656 26.0040742,24.0981256 26.0048342,22.4390457 L26.0048342,22.0066057 L24.5828743,22.0066057 C25.1057543,21.7033657 25.4454743,21.2808057 25.4971542,20.6940857 C25.5267942,20.3604457 25.4523143,20.0161657 25.4067143,19.6794857 C25.3922743,19.5738457 25.3185543,19.4765657 25.2691543,19.3770057 C24.5714743,17.9626457 24.5866743,17.9664457 24.9187943,16.4046457 C25.2714343,14.7501258 25.5906342,13.0887658 25.9235142,11.4304458 C25.9273142,11.4076458 25.9174342,11.3825658 25.8999542,11.2533658 C25.1095543,12.7543658 24.3594343,14.1808858 23.5819543,15.6575658 C23.1023943,14.7759658 22.5377143,14.0524458 21.5641543,13.7210858 C21.9608743,12.8767258 22.3249143,12.0544058 22.7292343,11.2518458 C23.1631943,10.3922858 23.5986743,9.52968583 24.0995143,8.70888584 C24.7303143,7.67528585 25.6620742,7.04980586 26.9031542,7.02928586 C28.4748342,7.00344586 30.0480342,6.99964586 31.6197142,7.03232586 C32.9291942,7.05892586 33.8784341,7.76572585 34.4826341,8.86772584 C35.3421941,10.4386458 36.1196741,12.0544058 36.9267941,13.6526858 C37.3029941,14.3997658 37.6670341,15.1521658 38.0363941,15.9015257 L38.0363941,16.5703257 Z" id="Fill-106"></path>
                <path d="M12.0267624,11.2124778 L12.0267624,13.6125578 C12.0267624,18.2067577 12.0275224,22.8009577 12.0260024,27.3951576 C12.0252424,28.3732776 11.3762024,29.0245976 10.4634424,28.9736776 C9.76728245,28.9349176 9.15168245,28.3626376 9.13724245,27.6634376 C9.10912246,26.2277976 9.11672246,24.7913976 9.11368246,23.3549977 C9.11216246,22.0553977 9.11520246,20.7550377 9.11444246,19.4546777 C9.11444246,19.3452377 9.10228246,19.2365577 9.09392246,19.0989977 L8.46616246,19.0989977 L8.46616246,19.5025577 C8.46464246,22.1777577 8.46768246,24.8521976 8.45932246,27.5273976 C8.45704246,28.2813176 7.90528247,28.8771576 7.16960248,28.9637976 C6.46584249,29.0481576 5.7810825,28.5837976 5.6108425,27.8739576 C5.5508025,27.6261976 5.5606825,27.3586776 5.5606825,27.0995176 C5.5591625,21.9239177 5.5606825,16.7475577 5.5622025,11.5719578 C5.5622025,11.4412378 5.5622025,11.3112778 5.5014025,11.1668778 C5.4436425,11.2702378 5.3843625,11.3713178 5.3296425,11.4761978 C4.41916251,13.2310378 3.51248253,14.9889178 2.59820254,16.7414777 C2.25544254,17.3981177 1.69456255,17.7021177 1.09948256,17.5805177 C0.181402567,17.3927977 -0.260157427,16.4830777 0.159362567,15.5976778 C0.72556256,14.4029578 1.30240255,13.2135578 1.89292255,12.0302378 C2.40592254,11.0027178 2.92044253,9.97367782 3.47752253,8.96971783 C4.22916252,7.61691785 5.3858825,6.95647786 6.95604248,7.00055786 C8.19332247,7.03475786 9.43288245,7.02487786 10.6709224,6.99979786 C12.1742024,6.96939786 13.3210424,7.58499785 14.0415224,8.88915784 C14.6974024,10.0777978 15.2772824,11.3082378 15.8830024,12.5242378 C16.0737624,12.9072778 16.2371624,13.3055178 16.4226024,13.7189578 C15.4338424,14.1118778 14.9299624,14.9341978 14.4359624,15.8636777 C13.6417624,14.2745178 12.8741624,12.7377978 12.1058024,11.2010778 C12.0792024,11.2048778 12.0533624,11.2086778 12.0267624,11.2124778" id="Fill-108"></path>
                <path d="M16.7823864,17.2851057 C16.1751464,18.4562657 15.5671464,19.6274257 14.9614264,20.7993457 C14.8010664,21.1079057 14.5920664,21.3594657 14.2204264,21.3974657 C13.4368664,21.4787857 12.9527464,20.7833857 13.3023464,20.0522657 C13.8966664,18.8066257 14.5069464,17.5678257 15.1240664,16.3335857 C15.3003864,15.9824657 15.5055864,15.6419858 15.7305464,15.3197458 C16.1964264,14.6547458 16.8485064,14.3370658 17.6632263,14.3431458 C18.5296263,14.3484658 19.3967863,14.3689858 20.2624263,14.3378258 C21.2975463,14.2998258 22.0742663,14.7269458 22.5606663,15.6100658 C23.1481463,16.6771057 23.6725463,17.7791057 24.2212663,18.8689457 C24.4203863,19.2641457 24.6172263,19.6623857 24.7996263,20.0659457 C25.0299063,20.5721057 24.8703063,21.0843457 24.4279863,21.3115857 C23.9613463,21.5509857 23.4460663,21.3845457 23.1777863,20.8761057 C22.6017063,19.7847457 22.0423463,18.6857857 21.4746263,17.5898657 C21.4214263,17.4872657 21.3583463,17.3877057 21.2329463,17.3010657 L21.2329463,17.7266657 C21.2337063,21.0326657 21.2352263,24.3371456 21.2352263,27.6431456 C21.2352263,27.7913456 21.2413063,27.9418256 21.2185063,28.0877456 C21.1242663,28.6866256 20.6948663,29.0248256 20.1020663,28.9777056 C19.6156663,28.9389456 19.2447863,28.5027056 19.2432663,27.9410656 C19.2387063,26.2584256 19.2417463,24.5742656 19.2417463,22.8908657 L19.2417463,22.4151057 C19.1239463,22.4014257 19.0213463,22.3900257 18.8982263,22.3755857 C18.8845463,22.4819857 18.8647863,22.5640657 18.8647863,22.6476657 C18.8617463,24.4047856 18.8640263,26.1634256 18.8587063,27.9213056 C18.8579463,28.3643856 18.6755463,28.7124656 18.2552663,28.8979056 C17.8798263,29.0635856 17.5241463,28.9997456 17.2186264,28.7367856 C16.9237464,28.4829456 16.8629464,28.1333456 16.8637064,27.7609456 C16.8682664,25.6929856 16.8659864,23.6265457 16.8667464,21.5585857 L16.8675064,17.6217857 L16.8675064,17.3010657 C16.8393864,17.2965057 16.8112664,17.2904257 16.7823864,17.2851057" id="Fill-110" ></path>
                <path d="M5.5552865,3.22578991 C5.5682065,1.39266993 7.00992648,-0.0156100525 8.85900646,0.000349947291 C10.6032064,0.0155499471 12.0342864,1.48918993 12.0244573,3.25998991 C12.0152864,5.06726988 10.5484864,6.47782987 8.69560646,6.46338987 C6.96660648,6.44894987 5.5431265,4.98138988 5.5552865,3.22578991" id="Fill-112"></path>
                <path d="M32.4710662,3.25550591 C32.4459862,5.11294588 31.0095862,6.48702587 29.1171862,6.46498587 C27.3912262,6.44370587 25.9791462,4.94422589 26.0042262,3.15670591 C26.0293062,1.36386593 27.5166262,-0.0246540524 29.3831862,0.00346594725 C31.0795062,0.0293059469 32.4946262,1.51966593 32.4710662,3.25550591" id="Fill-114"></path>
                <path d="M19.0497703,9.6657979 C20.2216903,9.66732183 21.2233703,10.6652018 21.227946,11.8348418 C21.2324903,13.0029618 20.2422103,14.0016018 19.0604103,14.0221218 C17.8892503,14.0426418 16.8579304,13.0105618 16.8670504,11.8280018 C16.8761704,10.6538018 17.8755703,9.66352183 19.0497703,9.6657979" id="Fill-116"></path>
            </g>
        </g>
    </g>
</svg>
