<?xml version="1.0" encoding="UTF-8"?>
<svg width="42px" height="16px" viewBox="0 0 42 16" version="1.1" xmlns="http://www.w3.org/2000/svg" xmlns:xlink="http://www.w3.org/1999/xlink">
    <!-- Generator: Sketch 62 (91390) - https://sketch.com -->
    <title>fish</title>
    <desc>Created with Sketch.</desc>
    <g id="map-icons" stroke="none" stroke-width="1" fill="none" fill-rule="evenodd">
        <g id="art" transform="translate(-959.000000, -611.000000)" fill="#231F20">
            <path d="M972.983817,623.905815 C973.028444,623.866636 972.944274,623.935638 972.866318,624.011073 C971.485139,625.335571 971.304372,625.303994 970.394884,623.570159 C968.866266,620.656263 966.566561,620.206577 964.022819,622.276069 C962.920136,623.173102 961.768871,624.012828 960.596705,624.81045 C960.321034,624.998161 959.697385,625.081198 959.539213,624.909861 C959.293482,624.643792 959.27484,624.121594 959.229083,623.699977 C959.206487,623.496478 959.295176,623.241519 959.411546,623.065505 C960.479205,621.443945 960.25607,619.794901 959.644284,618.070422 C959.325116,617.169295 959.194624,616.191564 959.036453,615.237809 C958.962451,614.791631 959.024025,614.321478 959.024025,613.862436 C959.126272,613.77823 959.228518,613.693438 959.33133,613.609232 C961.04128,614.667661 962.904883,615.538379 964.408645,616.851182 C965.455969,617.764589 966.415733,617.728918 967.708222,617.696756 C967.457972,617.340632 967.290197,617.101462 966.950127,616.61786 C967.546661,616.66698 967.970901,616.674582 968.384972,616.743585 C968.792264,616.810833 969.210855,617.08275 969.587078,617.021349 C972.242104,616.583943 974.887528,616.083967 977.944763,615.529608 C977.40359,615.183426 977.081597,614.977587 976.738138,614.7583 C978.176372,613.85191 978.643544,613.052533 978.853121,611 C980.085167,612.062522 981.27315,612.955462 982.299572,614.016815 C983.031682,614.773504 983.80051,614.993961 984.786259,615.051268 C989.215635,615.312659 993.625239,615.7641 997.85916,617.266367 C998.701425,617.564598 999.501887,617.989139 1000.50458,618.437071 C999.862858,618.908978 999.388342,619.258084 998.774862,619.708355 C999.580408,619.794901 1000.22835,619.863903 1000.87572,619.933491 C1000.91752,620.044012 1000.9582,620.154533 1001,620.265054 C1000.09842,620.835202 999.240903,621.50593 998.286788,621.95737 C995.10471,623.461392 991.691024,624.054931 988.247962,624.439708 C986.062367,624.684141 983.859824,624.756652 981.671404,624.978863 C981.286143,625.018043 980.924607,625.398726 980.569286,625.648422 C979.968798,626.072378 979.425929,626.616797 978.77573,626.920291 C978.318162,627.134316 977.827829,626.926723 977.979222,626.183484 C978.183151,625.184701 977.725582,624.958396 976.814965,624.847875 C975.585744,624.699344 974.389287,624.266617 972.983817,623.905815" id="fish"></path>
        </g>
    </g>
</svg>