<?xml version="1.0" encoding="UTF-8"?>
<svg width="36px" height="29px" viewBox="0 0 36 29" version="1.1" xmlns="http://www.w3.org/2000/svg" xmlns:xlink="http://www.w3.org/1999/xlink">
    <!-- Generator: Sketch 62 (91390) - https://sketch.com -->
    <title>fowl</title>
    <desc>Created with Sketch.</desc>
    <g id="map-icons" stroke="none" stroke-width="1" fill="none" fill-rule="evenodd">
        <g id="art" transform="translate(-1137.000000, -603.000000)" fill="#020303">
            <g id="fowl" transform="translate(1137.000000, 603.000000)">
                <path d="M18.7054594,26.3398003 C16.8218594,25.1960403 15.8916194,24.4602803 15.9385394,24.1495203 C15.9643794,23.9815603 16.1330194,23.6368002 16.3744194,23.2124802 C17.3740194,23.1574002 18.6823394,23.0608402 20.1021794,22.8901602 C20.2952994,23.5905602 20.4312994,24.3140803 20.3836994,24.8696403 C20.3422194,25.3517603 20.1252994,25.4605603 19.6934994,25.6774803 C19.4996994,25.7747203 19.2800594,25.8848803 19.0257394,26.0548803 C18.8577794,26.1664003 18.7550994,26.2575203 18.7054594,26.3398003 M35.1111396,8.12804009 C34.9540596,7.54936008 34.5766596,7.13524008 34.1774995,6.69596007 C33.8123395,6.29408007 33.4342595,5.87928006 33.2166595,5.31352006 C33.1452595,5.12720005 33.0684195,4.90552005 32.9793395,4.64916005 C32.4978995,3.25652003 31.7702995,1.15260001 30.3749395,0.462400005 C29.7540995,0.155720002 29.1454995,-1.93267626e-14 28.5654595,-1.93267626e-14 C27.3706995,-1.93267626e-14 26.3568195,0.648720007 25.5516995,1.92916002 C24.7608595,3.18648003 24.8832595,5.00004005 25.0015795,6.75308007 C25.1151395,8.43132009 25.2218995,10.0170801 24.4650594,10.7854801 C24.4650594,10.7854801 24.4616594,10.7868401 24.4514594,10.7868401 C24.3011794,10.7868401 23.8870594,10.5298001 23.4062994,10.2312801 C22.2448594,9.5098001 20.3000594,8.30280009 18.1893394,8.18244009 C18.1138594,8.17768009 18.0336194,8.17564009 17.9492994,8.17564009 C15.5896994,8.17564009 10.1877793,9.9014801 6.61301926,11.0432001 C4.90349924,11.5892401 3.55301923,12.0203601 3.12597922,12.0768001 C3.02397922,12.0904001 2.71457922,12.1312001 2.65745922,12.3481201 C2.58265922,12.6371201 3.01309922,12.9866401 3.63053923,13.4497201 C3.81005923,13.5843601 4.04533923,13.7611601 4.13169923,13.8570401 C3.95081923,13.8937601 3.43809923,13.9134801 2.97977922,13.9311601 C1.49193921,13.9876001 0.332539194,14.0569601 0.063939191,14.3786002 C0.0136191905,14.4398002 -0.00814080976,14.5105202 0.00273919036,14.5832802 C0.0482991908,14.9022002 0.493019196,15.0354802 1.1090992,15.2204402 C1.99377921,15.4856402 3.20485922,15.8487602 3.97733923,16.9279202 C5.92893925,19.6540402 9.15757929,23.2770802 14.6485793,23.2770802 C14.7369793,23.2770802 14.8267393,23.2743602 14.9164993,23.2730002 C14.8573393,23.4185202 14.7934193,23.5538402 14.7233793,23.6748802 C14.4799393,24.0930803 14.2371793,24.0985203 13.7543793,24.1107603 C13.5374593,24.1155203 13.2919793,24.1209603 12.9893793,24.1665203 C12.6561793,24.2154803 12.5086193,24.2882403 12.4820993,24.4181203 C12.4426593,24.6119203 12.7058193,24.7730803 13.1838593,25.0661603 C13.8182993,25.4558003 14.6873393,25.9882403 15.0463793,26.7491603 C15.3156594,27.3203603 15.5454994,27.5869203 15.7698994,27.5869203 C15.9779794,27.5869203 16.1268994,27.3754403 16.2254994,26.9416003 C16.2309394,26.9171203 16.2370594,26.9103203 16.2384194,26.9116803 C16.3784994,26.9116803 16.7756194,27.2863603 17.1258194,27.6161603 C17.6664194,28.1261603 18.2790994,28.7048403 18.7448994,28.7789603 C18.7686994,28.7823603 18.7904594,28.7844003 18.8101794,28.7844003 C18.9237394,28.7844003 18.9754194,28.7245603 18.9958194,28.6892003 C19.0910194,28.5266803 18.9373394,28.2322403 18.6741794,27.7678003 C18.5871394,27.6141203 18.4640594,27.3965203 18.4246194,27.2829603 C18.4361794,27.2877203 18.4497794,27.2931603 18.4647394,27.3006403 C18.8788594,27.4964803 19.4758994,27.5991603 19.8526194,27.5991603 C20.1286994,27.5991603 20.2667394,27.5495203 20.2980194,27.4386803 C20.3347394,27.3088003 20.1837794,27.2156403 20.1348194,27.1857203 C20.0627394,27.1415203 19.9308194,27.0640003 19.7567394,26.9633603 C19.6418194,26.8967203 19.5309794,26.8321203 19.4214994,26.7675203 C19.4738594,26.7736403 19.5282594,26.7790803 19.5860594,26.7858803 C20.3265794,26.8661203 21.3404594,26.9769603 21.9891794,27.5121203 C22.3788194,27.8324003 22.6650994,27.9888003 22.8643394,27.9888003 C22.9615794,27.9888003 23.0431794,27.9507203 23.0989394,27.8813603 C23.2009394,27.7535203 23.2131794,27.5230003 23.1370194,27.1789203 C23.1329394,27.1592003 23.1336194,27.1469603 23.1329394,27.1462803 C23.1370194,27.1435603 23.1560594,27.1279203 23.2111394,27.1279203 C23.4137794,27.1279203 23.8149794,27.2476003 24.2392994,27.3856403 C24.8077795,27.5712803 25.4524195,27.7589603 25.9120995,27.7589603 L25.9120995,27.7589603 C26.0215795,27.7589603 26.1181395,27.7691603 26.1997395,27.7446803 C26.3377795,27.7052403 26.3778995,27.6508403 26.3874195,27.5937203 C26.4200595,27.3978803 26.1487395,27.1959203 25.7040195,26.8824403 C25.5605395,26.7804403 25.3558595,26.6369603 25.2715395,26.5519603 C25.2837795,26.5506003 25.2987395,26.5506003 25.3157395,26.5506003 C25.9046195,26.5506003 27.0170995,26.2289603 27.0340995,25.9250003 C27.0381795,25.8502003 26.9966995,25.7577203 26.7763795,25.7325603 C26.6927395,25.7237203 26.5404195,25.7101203 26.3398195,25.6931203 C23.3573394,25.4401603 21.7919794,25.1328003 21.6858994,24.7798803 C21.6042994,24.5078803 21.6750194,23.6198002 21.7892594,22.6582802 C24.0318994,22.3053602 26.3554595,21.7566002 28.0676995,20.9004802 C31.5479395,19.1596802 31.5968995,14.0086801 30.6476195,11.7354401 C29.2665395,8.42996009 28.7538195,6.47292007 29.1237395,5.91736006 C29.2243795,5.76640006 29.3970995,5.73308006 29.6595795,5.80448006 C29.8261795,5.85004006 29.9832595,5.87180006 30.1410195,5.87180006 C30.2613795,5.87180006 30.3654195,5.85956006 30.4572195,5.84800006 C30.5320195,5.83984006 30.6020595,5.83100006 30.6680195,5.83100006 C30.8835795,5.83100006 31.1263395,5.89764006 31.7213395,6.71024007 C32.8501395,8.24976009 34.1904195,8.54216009 34.4481396,8.58568009 C34.5086596,8.59520009 34.5678196,8.60064009 34.6228996,8.60064009 C34.8146596,8.60064009 34.9683396,8.53808009 35.0546996,8.42520009 C35.1199796,8.33884009 35.1396996,8.23344009 35.1111396,8.12804009" id="Fill-206"></path>
            </g>
        </g>
    </g>
</svg>
