<?xml version="1.0" encoding="UTF-8"?>
<svg width="31px" height="49px" viewBox="0 0 31 49" version="1.1" xmlns="http://www.w3.org/2000/svg" xmlns:xlink="http://www.w3.org/1999/xlink">
    <!-- Generator: Sketch 49.3 (51167) - http://www.bohemiancoding.com/sketch -->
    <title>grapes</title>
    <desc>Created with Sketch.</desc>
    <defs></defs>
    <g id="Page-1" stroke="none" stroke-width="1" fill="none" fill-rule="evenodd">
        <g id="grapes" fill="#00447B">
            <path d="M14.4766,48.7821 C12.7126,47.8091 11.2386,46.5691 11.4376,44.2381 C11.4826,43.7111 12.0406,43.0761 12.5246,42.7801 C13.4346,42.2231 14.4626,41.8771 15.5256,41.4051 C16.6276,41.9161 17.9266,42.5191 19.3286,43.1681 C19.9326,46.0211 19.3496,47.1961 16.4096,48.7821 L14.4766,48.7821 Z" id="Fill-1"></path>
            <path d="M17.0053,5.0217 C17.4293,1.5847 18.7013,-0.2113 21.1753,0.0557 C23.0323,0.2567 24.8123,1.2337 26.8543,1.9457 C26.1523,2.9067 25.6933,3.5347 25.3133,4.0557 C26.1833,4.4897 27.2123,4.7737 27.9393,5.4247 C28.7373,6.1387 29.2563,7.1907 29.9693,8.1987 C27.9873,9.1197 26.7083,12.3187 23.6613,9.6337 C24.0303,10.8497 24.2923,11.7117 24.6043,12.7377 C24.0733,12.8067 23.6433,12.9687 23.2533,12.8947 C21.6443,12.5907 19.9823,12.4027 18.4643,11.8187 C16.3613,11.0107 16.0003,9.3517 17.1083,6.1877 C15.9203,6.1117 14.8153,6.0417 13.4423,5.9537 C13.8353,7.0717 14.1583,7.9247 14.4353,8.7947 C14.7173,9.6777 14.9533,10.5767 15.2093,11.4687 C15.0923,11.6287 14.9763,11.7877 14.8593,11.9477 C14.4743,11.6527 13.9413,11.4447 13.7303,11.0497 C12.0183,7.8527 10.3673,4.6207 8.5603,1.1357 C8.7433,0.9877 9.2563,0.5717 9.9603,-0.0003 C11.7403,2.7257 12.9533,6.1917 17.0053,5.0217" id="Fill-3"></path>
            <path d="M15.1743,24.2162 C15.1413,21.7822 16.9683,19.7892 19.2293,19.7932 C21.3703,19.7972 23.2703,21.7382 23.3523,24.0052 C23.4353,26.3032 21.5273,28.4662 19.3343,28.5602 C17.1623,28.6532 15.2073,26.6112 15.1743,24.2162" id="Fill-6"></path>
            <path d="M11.5959,28.5636 C9.9199,28.2916 8.5059,27.5516 7.8299,25.6866 C7.1839,23.9066 7.5939,22.3226 8.8039,21.0606 C10.0959,19.7126 11.7379,19.4306 13.4249,20.2426 C14.3959,20.7096 15.1399,21.3216 14.5289,22.7316 C14.2379,23.4016 14.3039,24.3186 14.4189,25.0886 C14.7509,27.3086 13.7999,28.5676 11.5959,28.5636" id="Fill-8"></path>
            <path d="M4.0115,20.1401 C6.1635,20.1941 6.9895,21.2771 6.7985,23.3371 C6.7205,24.1771 6.7505,25.1431 7.0795,25.8831 C7.6435,27.1481 7.1185,27.7331 6.1755,28.2661 C4.5375,29.1921 2.9585,29.0891 1.5215,27.8661 C-0.0095,26.5641 -0.3325,24.8041 0.3165,22.9631 C0.9495,21.1701 2.3725,20.3011 4.0115,20.1401" id="Fill-13"></path>
            <path d="M30.8291,24.5565 C30.8171,27.6525 27.9131,29.7435 25.1871,28.5445 C24.0351,28.0375 23.0331,27.3605 23.8881,25.6705 C24.2151,25.0225 24.1711,24.0915 24.0911,23.3125 C23.8711,21.1735 25.0281,19.9175 27.1111,20.1615 C29.2241,20.4095 30.8381,22.3175 30.8291,24.5565" id="Fill-10"></path>
            <path d="M19.451,41.966 C17.482,41.937 16.183,40.974 15.466,39.212 C14.731,37.407 15.215,36.513 16.959,35.83 C17.716,35.534 18.583,35.099 19.021,34.449 C20.029,32.951 21.011,33.517 21.91,34.333 C23.285,35.581 23.769,37.218 23.142,39.059 C22.521,40.885 21.222,41.839 19.451,41.966" id="Fill-16"></path>
            <path d="M15.3385,20.4513 C14.6125,20.0533 13.9155,19.4353 13.1385,19.2923 C11.1035,18.9203 11.1725,17.4563 11.4435,15.9703 C11.8575,13.6993 14.2615,12.2933 16.5325,12.8663 C18.5495,13.3753 19.9525,15.6883 19.4575,17.8343 C19.3595,18.2603 18.9575,18.7283 18.5745,18.9393 C17.5665,19.4973 16.4915,19.9243 15.3385,20.4513" id="Fill-18"></path>
            <path d="M14.395,36.3522 C14.433,37.1832 14.235,38.2272 14.567,39.0322 C15.266,40.7262 14.264,41.2192 13.151,41.6822 C11.169,42.5072 8.838,41.4712 7.979,39.4402 C7.079,37.3142 7.94,34.7062 9.944,33.8212 C10.379,33.6282 11.117,33.7632 11.538,34.0412 C12.495,34.6692 13.341,35.4802 14.395,36.3522" id="Fill-20"></path>
            <path d="M15.3681,27.8695 C16.7341,28.5005 18.0501,29.1085 19.4121,29.7385 C19.7581,32.6645 18.7441,34.5665 16.4981,35.0765 C14.2671,35.5835 12.1301,34.3395 11.5391,32.0795 C11.1881,30.7365 11.0781,29.4695 12.9411,29.0815 C13.8371,28.8955 14.6441,28.2455 15.3681,27.8695" id="Fill-22"></path>
            <path d="M20.35,32.1509 L20.35,29.3639 C21.178,28.8759 21.998,28.3929 22.694,27.9829 C23.711,28.5329 24.621,29.2859 25.641,29.5179 C27.365,29.9089 27.598,31.0449 26.996,32.3079 C26.387,33.5839 25.352,34.6389 24.565,35.7089 C22.913,34.3139 21.693,33.2839 20.35,32.1509" id="Fill-24"></path>
            <path d="M10.573,32.2637 C9.672,32.9807 8.596,33.4937 8.028,34.3677 C7.05,35.8707 6.076,35.5527 5.305,34.5057 C4.612,33.5607 4.186,32.3317 3.915,31.1597 C3.826,30.7757 4.504,30.0267 4.99,29.7077 C5.945,29.0807 7.011,28.6387 8.146,28.0617 C10.603,29.4197 10.603,29.4197 10.573,32.2637" id="Fill-26"></path>
            <path d="M10.6159,18.846 C9.5579,19.536 8.6449,20.131 7.7939,20.685 C6.5569,20.147 5.2909,19.595 3.9409,19.007 C3.5809,16.583 5.1849,14.418 7.6449,14.223 C9.9489,14.041 10.5009,14.897 10.6159,18.846" id="Fill-28"></path>
            <path d="M27.358,18.8348 C25.713,19.5498 24.438,20.1048 23.079,20.6958 C22.289,20.1758 21.333,19.5468 20.303,18.8698 C20.303,18.4968 20.284,18.0398 20.307,17.5848 C20.367,16.3928 19.867,14.9778 21.587,14.4838 C23.363,13.9738 24.967,14.2308 26.073,15.7928 C26.705,16.6868 26.965,17.8688 27.358,18.8348" id="Fill-30"></path>
        </g>
    </g>
</svg>