<?xml version="1.0" encoding="UTF-8"?>
<svg width="43px" height="62px" viewBox="0 0 43 62" version="1.1" xmlns="http://www.w3.org/2000/svg" xmlns:xlink="http://www.w3.org/1999/xlink">
    <!-- Generator: Sketch 49.3 (51167) - http://www.bohemiancoding.com/sketch -->
    <title>marsh</title>
    <desc>Created with Sketch.</desc>
    <defs></defs>
    <g id="Page-1" stroke="none" stroke-width="1" fill="none" fill-rule="evenodd">
        <g id="marsh" fill="#00447B">
            <path d="M22.9289,55.5246 C24.3549,52.1596 25.7759,49.3036 26.7859,46.3036 C28.3399,41.6896 31.3829,39.2246 36.0419,38.4786 C38.3199,38.1146 40.5399,37.3736 42.9379,37.1036 C41.2199,37.9886 39.5779,39.1196 37.7679,39.7106 C32.8899,41.3016 30.3899,44.7316 29.4779,49.7216 C29.0349,52.1386 28.2509,54.4906 27.7649,56.9296 C30.4619,52.9776 33.1229,49.0856 37.8759,47.3806 C33.4919,51.0366 31.6979,56.2356 29.7339,61.3906 L20.1299,61.3906 C20.1299,59.9196 20.0099,58.5026 20.1489,57.1116 C21.0209,48.4006 21.9369,39.6946 22.8779,30.9906 C22.9779,30.0636 22.8729,29.4436 22.2519,28.6266 C21.6269,27.8046 21.2379,26.4026 21.4329,25.3926 C22.3859,20.4326 23.5409,15.5106 24.6849,10.5906 C25.0549,8.9966 25.9429,7.8256 27.6509,7.4106 C28.0879,7.3046 28.5609,6.7636 28.7519,6.3066 C29.4149,4.7196 29.8929,3.0516 30.5849,1.4806 C30.8429,0.8936 31.4949,0.4886 31.9669,-0.0004 C31.9979,0.7376 32.2069,1.5266 32.0229,2.2026 C31.6179,3.6876 30.9189,5.0896 30.5359,6.5776 C30.3799,7.1846 30.7309,7.9286 30.8539,8.6096 C31.0669,9.7896 31.6489,11.0456 31.4319,12.1366 C30.4619,17.0296 29.3289,21.8926 28.0949,26.7236 C27.8439,27.7046 27.0579,28.7316 26.2329,29.3186 C25.4369,29.8836 25.0139,30.3346 24.9339,31.3496 C24.3959,38.1816 23.7889,45.0076 23.2079,51.8366 C23.1169,52.8996 23.0459,53.9646 22.9289,55.5246" id="Fill-1"></path>
            <path d="M17.9495,61.4558 C16.8585,61.4558 15.8655,61.5378 14.8975,61.4178 C14.4835,61.3658 13.9245,60.9808 13.7595,60.5998 C10.5785,53.2458 6.3055,46.5908 1.4585,40.2588 C4.1205,41.6028 6.3055,43.5728 8.2465,45.8308 C10.1645,48.0628 12.0075,50.3618 14.2305,53.0508 C13.2115,48.9548 12.3215,45.2928 11.3615,41.6498 C11.2715,41.3088 10.7295,41.1048 10.4255,40.8068 C9.5455,39.9418 8.3235,39.2188 7.8705,38.1578 C5.8665,33.4718 4.0295,28.7088 2.2725,23.9208 C1.9175,22.9538 1.7705,21.5098 2.2355,20.7218 C2.9425,19.5268 2.6105,18.7618 2.0585,17.8378 C1.4195,16.7688 0.6945,15.7428 0.1655,14.6198 C-0.0815,14.0958 0.0435,13.3878 0.0005,12.7638 C0.4935,13.0448 1.1045,13.2208 1.4535,13.6308 C2.0215,14.2978 2.4235,15.1138 2.8865,15.8728 C3.7445,17.2828 4.2485,18.9478 6.4425,18.9928 C7.1485,19.0068 8.1265,20.1248 8.4735,20.9578 C10.5265,25.8808 12.5245,30.8338 14.3085,35.8618 C14.6825,36.9138 14.0915,38.3258 13.9325,39.5698 C13.8375,40.3238 13.4935,41.1268 13.6475,41.8188 C14.9865,47.8468 16.4175,53.8548 17.8055,59.8718 C17.9085,60.3218 17.8935,60.7998 17.9495,61.4558" id="Fill-4"></path>
            <path d="M18.3202,55.1089 C18.0882,43.8419 17.6752,32.5939 14.9662,21.6009 C15.1302,21.5479 15.2942,21.4939 15.4582,21.4409 C16.0302,22.7509 16.7922,24.0109 17.1382,25.3809 C18.2832,29.9199 19.4912,34.4629 20.2382,39.0779 C20.5872,41.2349 19.9462,43.5619 19.7322,45.8099 C19.4382,48.8859 19.1232,51.9599 18.8172,55.0339 C18.6512,55.0589 18.4862,55.0839 18.3202,55.1089" id="Fill-6"></path>
            <path d="M12.9851,61.0775 C8.0131,63.1315 5.6371,59.3225 2.7831,56.4815 C4.1581,56.8795 5.5331,57.2775 7.3701,57.8085 C5.6811,55.0525 4.1981,52.6335 2.5231,49.9035 C7.3341,52.6905 10.4321,56.6525 12.9851,61.0775" id="Fill-8"></path>
        </g>
    </g>
</svg>