<?xml version="1.0" encoding="UTF-8"?>
<svg width="26px" height="56px" viewBox="0 0 26 56" version="1.1" xmlns="http://www.w3.org/2000/svg" xmlns:xlink="http://www.w3.org/1999/xlink">
    <!-- Generator: Sketch 49.3 (51167) - http://www.bohemiancoding.com/sketch -->
    <title>milk</title>
    <desc>Created with Sketch.</desc>
    <defs></defs>
    <g id="Page-1" stroke="none" stroke-width="1" fill="none" fill-rule="evenodd">
        <g id="milk" fill="#00447B">
            <path d="M0.0487,38.5712 L25.1257,38.5712 C25.1257,39.5582 25.1247,40.4792 25.1257,41.4002 C25.1277,45.0932 25.1447,48.7872 25.1277,52.4792 C25.1177,54.7512 24.3937,55.4952 22.1697,55.4992 C15.8027,55.5132 9.4347,55.5112 3.0677,55.4962 C0.7757,55.4912 0.0487,54.7222 0.0487,52.4152 C0.0487,47.8332 0.0487,43.2522 0.0487,38.5712" id="Fill-4"></path>
            <path d="M25.1218,27.5508 L0.1718,27.5508 C-0.2102,23.6478 -0.2092,19.9178 2.9208,16.9318 C4.1138,15.7938 5.1428,14.4828 6.2568,13.2598 C7.4538,11.9468 8.1108,10.4648 7.9268,8.6358 C7.8348,7.7178 7.9108,6.7828 7.9108,5.8848 C5.3668,5.1388 5.0628,4.7558 5.1268,2.4658 C5.1688,0.9978 5.8728,0.0748 7.3308,0.0438 C10.8928,-0.0302 14.4588,-0.0022 18.0218,0.0638 C19.2038,0.0848 19.9648,0.9918 20.1208,2.2338 C20.3298,3.8968 19.7908,5.0638 18.5848,5.5048 C18.2288,5.6358 17.8508,5.7078 17.4638,5.8118 C17.0838,8.9618 17.1128,11.9498 19.7988,14.2988 C20.9718,15.3248 21.9538,16.5788 22.9728,17.7708 C24.4248,19.4708 25.2668,21.3998 25.1348,23.7028 C25.0628,24.9618 25.1218,26.2288 25.1218,27.5508" id="Fill-1"></path>
            <path d="M7.1732,36.5669 L5.9852,36.5669 L5.9852,31.6469 C5.8922,31.6299 5.7992,31.6119 5.7052,31.5949 C5.2602,33.2419 4.8152,34.8899 4.3632,36.5629 L2.9602,36.5629 C2.5172,34.8959 2.0722,33.2219 1.6262,31.5469 C1.5392,31.5619 1.4522,31.5759 1.3652,31.5899 L1.3652,36.5299 L0.1242,36.5299 L0.1242,29.4499 C2.1142,28.9859 2.1972,29.0349 2.7282,30.9499 C2.9872,31.8839 3.2432,32.8179 3.5102,33.7489 C3.5292,33.8129 3.6332,33.8529 3.7692,33.9609 C4.0582,32.9359 4.3522,31.9509 4.6132,30.9569 C5.0992,29.1049 5.0902,29.1029 7.1732,29.4039 L7.1732,36.5669 Z" id="Fill-7"></path>
            <path d="M19.7753,36.5652 L18.4503,36.5652 L18.4503,29.3262 C18.8433,29.3092 19.2363,29.2912 19.7893,29.2672 L19.7893,32.3222 C21.6233,31.4822 22.0593,28.7782 24.8103,29.3652 C23.8913,30.3262 23.0643,31.1902 22.1453,32.1502 C23.0803,33.5852 24.0133,35.0172 24.9873,36.5112 C22.1153,37.1692 22.4523,34.2192 21.0603,33.3452 C19.5413,33.8892 19.9043,35.2812 19.7753,36.5652" id="Fill-9"></path>
            <path d="M11.9672,29.4435 L13.2772,29.4435 L13.2772,35.4275 L16.9662,35.4275 C17.2472,36.2385 17.1902,36.6315 16.3552,36.6145 C14.9192,36.5865 13.4822,36.6075 11.9672,36.6075 L11.9672,29.4435 Z" id="Fill-11"></path>
            <path d="M8.9418,29.3134 L10.2118,29.3134 L10.2118,36.5384 C9.8148,36.5624 9.4208,36.5854 8.9418,36.6144 L8.9418,29.3134 Z" id="Fill-13"></path>
        </g>
    </g>
</svg>