<?xml version="1.0" encoding="UTF-8"?>
<svg width="53px" height="51px" viewBox="0 0 53 51" version="1.1" xmlns="http://www.w3.org/2000/svg" xmlns:xlink="http://www.w3.org/1999/xlink">
    <!-- Generator: Sketch 49.3 (51167) - http://www.bohemiancoding.com/sketch -->
    <title>orangeslice</title>
    <desc>Created with Sketch.</desc>
    <defs></defs>
    <g id="orangeslice">
        <path d="M40.7561167,0.582933333 C39.8407625,4.07320417 37.3740542,6.01543333 34.3265542,7.42435 C30.8683042,9.02207917 27.1472625,9.5874125 23.3699083,9.87007917 C22.3982417,9.94295417 21.4144292,9.88112083 20.2981167,9.88112083 C20.631575,7.6926625 21.5844708,5.79349583 23.1181583,4.18030833 C25.653325,1.51485 28.9879083,0.3985375 32.5941167,0.155620833 C35.01445,-0.00669166667 37.4657,0.257204167 39.9025958,0.347745833 C40.1598667,0.357683333 40.4127208,0.4846625 40.7561167,0.582933333" id="Fill-4"></path>
        <path d="M18.5720833,13.2186854 C18.2143333,10.8436229 17.4105,8.75343542 15.8094583,6.98456042 C15.7056667,6.87083125 15.5047083,6.78470625 15.4859375,6.66545625 C15.4152708,6.23041458 15.403125,5.78653958 15.3677917,5.34708125 C15.8105625,5.40781042 16.4012917,5.31506042 16.6707083,5.55466458 C18.6582083,7.32022708 19.5514792,9.64891458 20.14,12.1145187 C20.2272292,12.4799979 20.3133542,12.8443729 20.4127292,13.2661646 C24.5743333,13.5444146 28.374875,14.7689354 31.6200208,17.2941646 C36.9056667,21.4093937 39.3834167,26.7657062 39.0963333,33.3123104 C39.0576875,34.2044771 38.5354167,34.2387062 37.842,34.2376021 C32.6391667,34.2276646 27.4352292,34.2309771 22.2323958,34.2320812 C20.6457083,34.2331854 20.617,34.2641021 20.6203125,35.7370604 C20.6313542,41.7415187 25.8617917,47.8541854 32.164375,49.2310812 C40.7934375,51.1158937 48.8958125,46.1603937 50.7684792,37.8449146 C50.8678542,37.4032479 50.8115417,36.9096854 50.992625,36.5099771 C51.1527292,36.1599562 51.5447083,35.9093104 51.8351042,35.6144979 C51.9974167,35.9501646 52.357375,36.3266854 52.291125,36.6137687 C51.9190208,38.2269562 51.6485,39.9030812 50.9716458,41.4036437 C47.3047083,49.5258937 37.5449792,53.1442479 29.1290208,49.5579146 C28.3373333,49.2200396 27.7167917,49.2388104 26.930625,49.5468729 C15.1657292,54.1512479 2.08908333,46.9763729 0.223041667,34.9166646 C-1.40229167,24.4193521 6.0254375,14.9389771 17.0240417,13.4682271 C17.4877917,13.4063937 17.9482292,13.3202687 18.5720833,13.2186854" id="Fill-1"></path>
        <path d="M35.2124271,42.2887437 C35.2113229,43.6512854 35.2234688,45.0138271 35.2080104,46.3752646 C35.1925521,47.7267646 34.8027813,48.0800979 33.3993854,47.8824521 C31.3445313,47.5942646 29.4917396,46.7959521 27.8244479,45.6155979 C27.0217188,45.0491604 26.9985313,44.3546396 27.6809063,43.6899312 C29.8108438,41.6185146 31.9562396,39.5614521 34.1137813,37.5176396 C34.3092188,37.3332437 34.6426771,37.2824521 34.9120938,37.1698271 C35.0125729,37.4381396 35.1936563,37.7053479 35.1991771,37.9747646 C35.2278854,39.4123896 35.2135313,40.8511187 35.2124271,42.2887437" id="Fill-7"></path>
        <path d="M36.4677542,36.8563542 C37.0938167,37.2505417 37.4758583,37.4150625 37.7552125,37.6800625 C39.7692125,39.5880625 41.7721708,41.5071042 43.760775,43.4416042 C44.7688792,44.4221042 44.7125667,45.0404375 43.5520875,45.8089375 C41.8505667,46.9362917 39.99115,47.6959583 37.9197333,47.9223125 C37.0717333,48.0150625 36.4876292,47.6959583 36.4799,46.8424375 C36.4500875,43.63925 36.4677542,40.4360625 36.4677542,36.8563542" id="Fill-9"></path>
        <path d="M43.5033938,35.5977146 C44.9608938,35.5966104 46.4194979,35.6087562 47.8769979,35.5932979 C48.9369979,35.5811521 49.3996438,36.0449021 49.2693521,37.0673604 C49.0010396,39.1851521 48.1177063,41.0666521 46.8258313,42.7670687 C46.2836854,43.4792562 45.5262271,43.4527562 44.8869146,42.8465687 C42.6973521,40.7740479 40.5287688,38.6805479 38.3690188,36.5793187 C38.1989771,36.4136937 38.1636438,36.1210896 38.0653729,35.8870062 C38.3414146,35.7909437 38.6163521,35.6164854 38.8934979,35.6120687 C40.4293938,35.5844646 41.9663938,35.5988187 43.5033938,35.5977146" id="Fill-11"></path>
        <path d="M28.2962583,35.5981563 C29.7548625,35.5970521 31.2145708,35.5804896 32.6720708,35.6114063 C32.9823417,35.6180313 33.2870917,35.7991146 33.5951542,35.9006979 C33.46155,36.1568646 33.3842583,36.4693438 33.1844042,36.6636771 C31.0743417,38.7085938 28.9587583,40.7490938 26.816675,42.7608854 C25.9797167,43.5470521 25.2211542,43.5426354 24.7021958,42.5400521 C23.7846333,40.7656563 23.0117167,38.9095521 22.3569458,37.0302604 C22.0533,36.1590729 22.7047583,35.6091979 23.68305,35.6014688 C25.2211542,35.5904271 26.7581542,35.5992604 28.2962583,35.5981563" id="Fill-13"></path>
    </g>
</svg>