<?xml version="1.0" encoding="UTF-8"?>
<svg width="32px" height="32px" viewBox="0 0 32 32" version="1.1" xmlns="http://www.w3.org/2000/svg" xmlns:xlink="http://www.w3.org/1999/xlink">
    <!-- Generator: Sketch 62 (91390) - https://sketch.com -->
    <title>pest</title>
    <desc>Created with Sketch.</desc>
        <g id="scott" transform="translate(-1014.000000, -601.000000)">
            <path d="M1032.76419,621.181792 L1032.76419,621.46307 C1032.76636,623.0974 1032.77577,624.73173 1032.76926,626.36679 C1032.76274,627.917833 1031.69877,629.080202 1030.17271,629.223398 C1028.75602,629.355634 1027.3386,628.177193 1027.25386,626.742314 C1027.20026,625.827615 1027.22778,624.909263 1027.22633,623.992373 C1027.22416,623.136852 1027.2314,622.282061 1027.23358,621.427271 C1027.23358,621.340331 1027.21982,621.254121 1027.17274,621.162067 C1026.99239,621.706356 1026.79177,622.245532 1026.63677,622.797858 C1026.41369,623.591279 1026.22031,624.393467 1026.02041,625.192732 C1025.87845,625.763323 1025.5699,626.233092 1025.20269,626.677291 C1023.95548,628.185229 1022.71479,629.698281 1021.4712,631.209872 C1021.03953,631.733705 1020.60568,632.257538 1020.17401,632.782833 C1019.97049,633.029772 1019.68367,633.069954 1019.4519,632.883654 C1019.23607,632.709043 1019.20275,632.402926 1019.39541,632.164023 C1019.8785,631.565669 1020.37102,630.974622 1020.85918,630.381383 C1021.4444,629.670519 1022.02889,628.960385 1022.61411,628.251713 C1023.29566,627.425415 1023.98156,626.602771 1024.65876,625.773551 C1024.8927,625.48716 1025.00062,625.141591 1025.0955,624.784332 C1025.37145,623.742511 1025.66261,622.704342 1025.96319,621.669827 C1026.0979,621.20298 1026.26884,620.747822 1026.39776,620.272938 C1026.09283,620.63385 1025.76691,620.978688 1025.48661,621.358595 C1024.75436,622.352198 1023.80628,623.094477 1022.81909,623.807533 C1021.53059,624.736844 1020.27107,625.707798 1018.99778,626.658296 C1018.88334,626.743044 1018.76311,626.834368 1018.63129,626.877473 C1018.41401,626.949071 1018.17065,626.82487 1018.07722,626.630533 C1017.9664,626.401128 1018.01203,626.158572 1018.217,626.001495 C1018.63564,625.680036 1019.06079,625.367343 1019.48305,625.051728 C1020.85484,624.02598 1022.23242,623.008268 1023.59189,621.965716 C1023.87509,621.74873 1024.09672,621.446266 1024.33138,621.170103 C1025.12013,620.245907 1025.90162,619.315135 1026.6853,618.387285 C1026.70558,618.363906 1026.72224,618.336144 1026.74324,618.30619 L1026.03924,618.30619 C1024.34225,618.30619 1022.65467,618.184912 1020.97217,617.957698 C1019.69164,617.783818 1018.42125,617.56391 1017.18201,617.188387 C1016.27159,616.912955 1015.3713,616.603184 1014.62602,615.975607 C1014.17624,615.597162 1013.89594,615.139082 1014.03645,614.512236 C1014.14582,614.020548 1014.47754,613.733426 1014.91501,613.552971 C1015.54079,613.293611 1016.20061,613.250506 1016.86767,613.260735 C1018.02,613.278999 1019.15133,613.4653 1020.27613,613.698358 C1022.05787,614.065845 1023.79324,614.596984 1025.5011,615.220177 C1026.07111,615.428396 1026.63025,615.66876 1027.22344,615.906201 L1027.22344,615.588395 C1027.22344,615.180725 1027.21257,614.773787 1027.22778,614.367579 C1027.23503,614.173242 1027.17201,614.08411 1026.99312,614.002284 C1026.49119,613.771417 1025.96609,613.56466 1025.51848,613.249776 C1024.44872,612.495807 1023.89682,611.436451 1023.88088,610.106047 C1023.87509,609.603401 1023.87798,609.098563 1023.82584,608.600301 C1023.75558,607.924505 1023.3804,607.387521 1022.96322,606.873916 C1021.65154,605.259312 1020.34929,603.636671 1019.04558,602.015492 C1018.95577,601.903712 1018.85799,601.789009 1018.80802,601.658233 C1018.71893,601.425175 1018.82975,601.178236 1019.04341,601.05915 C1019.23679,600.951753 1019.49753,600.99778 1019.65615,601.186272 C1019.8814,601.453668 1020.09579,601.731292 1020.31525,602.003803 C1021.51683,603.495668 1022.71624,604.989724 1023.92217,606.478667 C1024.55229,607.256745 1024.85649,608.143682 1024.86445,609.146782 C1024.8688,609.668423 1024.85504,610.201754 1024.95209,610.708784 C1025.14185,611.699464 1025.76691,612.366492 1026.67009,612.775623 C1026.89824,612.880097 1027.13001,612.977266 1027.36829,613.080279 C1027.45448,612.90859 1027.52619,612.746399 1027.61455,612.593706 C1027.91368,612.07864 1028.34173,611.705308 1028.87625,611.455447 C1028.95737,611.417456 1029.01748,611.392616 1029.02762,611.272799 C1029.1015,610.388054 1029.17972,609.502579 1029.27388,608.620026 C1029.38252,607.605967 1029.50782,606.5941 1029.62588,605.581502 C1029.64109,605.451457 1029.65412,605.321412 1029.67223,605.191367 C1029.69903,605.00945 1029.79898,604.908629 1029.98874,604.907168 C1030.18357,604.905706 1030.29729,604.994108 1030.32191,605.195751 C1030.39506,605.791182 1030.45952,606.387343 1030.52978,606.982043 C1030.65798,608.083773 1030.79197,609.184773 1030.91437,610.287233 C1030.94986,610.607962 1030.94986,610.933805 1030.97376,611.255995 C1030.97811,611.312982 1031.00781,611.399922 1031.04909,611.418917 C1031.7922,611.752066 1032.31006,612.299278 1032.60267,613.059822 C1033.96142,612.831148 1035.09854,611.524122 1035.13186,610.154996 C1035.14345,609.659656 1035.12607,609.161394 1035.163,608.667515 C1035.22095,607.885053 1035.51066,607.183686 1036.001,606.572913 C1037.2569,605.00945 1038.51715,603.450371 1039.77523,601.889831 C1039.9476,601.676498 1040.11491,601.458052 1040.28874,601.244719 C1040.51254,600.968556 1040.80081,600.92326 1041.03692,601.123442 C1041.26217,601.314126 1041.27521,601.611476 1041.06155,601.875949 C1039.72308,603.540234 1038.39982,605.216207 1037.03672,606.860035 C1036.40877,607.618387 1036.0756,608.439571 1036.11399,609.430251 C1036.13209,609.902943 1036.11978,610.387324 1036.03649,610.850518 C1035.87497,611.755719 1035.40781,612.497268 1034.70816,613.091238 C1034.21709,613.506944 1033.62825,613.734888 1033.05173,613.981097 C1032.83951,614.070959 1032.75187,614.174703 1032.76419,614.417989 C1032.78664,614.878992 1032.76708,615.342186 1032.76636,615.803919 C1032.76636,615.836065 1032.77288,615.86748 1032.77795,615.90401 C1033.30812,615.691408 1033.82236,615.472231 1034.34602,615.277894 C1036.47613,614.488126 1038.6468,613.845207 1040.89134,613.479181 C1041.81697,613.32868 1042.74623,613.21836 1043.68634,613.270963 C1044.24766,613.302378 1044.80463,613.376899 1045.30439,613.664751 C1046.06561,614.103105 1046.2264,614.990041 1045.6658,615.673143 C1045.24427,616.188209 1044.67136,616.484098 1044.07673,616.736882 C1042.84328,617.261446 1041.54609,617.552951 1040.23297,617.777243 C1038.36288,618.095049 1036.47975,618.264546 1034.58503,618.304729 C1034.21637,618.312765 1033.84699,618.2945 1033.47833,618.288656 C1033.40662,618.287925 1033.33492,618.288656 1033.227,618.288656 C1033.59711,618.729932 1033.94259,619.144177 1034.29169,619.555499 C1034.90806,620.283897 1035.50849,621.028369 1036.15382,621.729735 C1036.4515,622.052656 1036.83537,622.297404 1037.18882,622.566261 C1037.98987,623.175573 1038.796,623.77831 1039.6014,624.381046 C1040.30323,624.90561 1041.0094,625.42579 1041.71123,625.949623 C1041.99442,626.160764 1042.05526,626.456653 1041.87492,626.70067 C1041.70109,626.93592 1041.39399,626.955646 1041.11297,626.744505 C1040.24746,626.095011 1039.38484,625.440402 1038.51787,624.792369 C1037.62339,624.123879 1036.71152,623.480229 1035.83586,622.786899 C1035.47082,622.497585 1035.1717,622.11914 1034.86098,621.765534 C1034.43076,621.276039 1034.01792,620.771201 1033.57031,620.289011 C1033.71806,620.728827 1033.86582,621.167911 1034.01357,621.607726 C1034.37281,622.67658 1034.71757,623.749817 1034.92109,624.863236 C1034.98338,625.207344 1035.12969,625.518575 1035.35204,625.788894 C1036.81002,627.559113 1038.268,629.329333 1039.72597,631.099553 C1040.00917,631.444391 1040.29598,631.787038 1040.577,632.132607 C1040.78632,632.390506 1040.76749,632.697353 1040.53789,632.885115 C1040.30685,633.072877 1040.02076,633.024658 1039.8042,632.761645 C1038.68229,631.399095 1037.56037,630.037275 1036.43919,628.675455 C1035.82862,627.933906 1035.21805,627.193818 1034.61038,626.450808 C1034.23737,625.994189 1034.04906,625.46232 1033.90638,624.888807 C1033.63912,623.81557 1033.3074,622.759136 1032.99958,621.696858 C1032.94815,621.520056 1032.88152,621.348367 1032.82213,621.173025 C1032.80257,621.175948 1032.78302,621.17887 1032.76419,621.181792" id="pest"></path>
        </g>
</svg>
