<?xml version="1.0" encoding="UTF-8"?>
<svg width="35px" height="36px" viewBox="0 0 35 36" version="1.1" xmlns="http://www.w3.org/2000/svg" xmlns:xlink="http://www.w3.org/1999/xlink">
    <!-- Generator: Sketch 62 (91390) - https://sketch.com -->
    <title>solar</title>
    <desc>Created with Sketch.</desc>
    <g id="map-icons">
        <g id="art" transform="translate(-1231.000000, -597.000000)">
            <g id="solar" transform="translate(1231.000000, 597.000000)">
                <path d="M33.1113749,27.0219053 C33.1113749,26.8836953 33.1215749,26.8352453 33.1103549,26.7924053 C32.0679149,22.9077354 31.019865,19.0240855 29.989155,15.1363556 C29.910615,14.8395356 29.772405,14.7875156 29.505165,14.7880256 C22.2779551,14.7936356 15.0507453,14.7951656 7.8235354,14.7875156 C7.5205954,14.7875156 7.40176541,14.8793156 7.32424541,15.1756256 C6.62401542,17.8388455 5.90542543,20.4969655 5.19244545,23.1566154 C4.85278545,24.4224354 4.51312546,25.6882554 4.15561547,27.0219053 L33.1113749,27.0219053 Z M19.7850752,33.5172652 C21.1177051,33.5172652 22.4187151,33.5111452 23.7197251,33.5198152 C24.4194451,33.5249152 24.8952751,33.9426052 24.9314851,34.5489952 C24.9727951,35.2283152 24.5051251,35.7250552 23.7957151,35.7281152 C22.0897651,35.7347452 20.3833052,35.7306652 18.6773552,35.7306652 C16.9872152,35.7306652 15.2965653,35.7321952 13.6059153,35.7291352 C12.8460153,35.7281152 12.3742653,35.3139952 12.3655953,34.6494652 C12.3574353,33.9752452 12.8495853,33.5223652 13.6181553,33.5182852 C14.9038653,33.5121652 16.1890652,33.5162452 17.5089452,33.5162452 L17.5089452,28.4616353 C17.3217752,28.4616353 17.1422552,28.4621453 16.9632452,28.4616353 C12.4655553,28.4397053 7.9678654,28.4177753 3.47017548,28.3963553 C3.39316548,28.3958453 3.31513548,28.3953353 3.23761548,28.3927853 C2.6317355,28.3739153 2.4313055,28.1158553 2.5873655,27.5303753 C3.28810548,24.8992854 3.99292547,22.2697254 4.69621546,19.6386355 C5.17918545,17.8306855 5.66368544,16.0227355 6.14614543,14.2142756 C6.34300543,13.4768156 6.43174542,13.4059256 7.20592541,13.4059256 C14.8518453,13.4055431 22.4977651,13.4055431 30.143685,13.4059256 C30.888285,13.4059256 30.978045,13.4808956 31.168275,14.1948956 C32.3509649,18.6181255 33.5356949,23.0413554 34.7173649,27.4656053 C34.8989249,28.1449253 34.7148149,28.3881953 34.0084649,28.3922753 C29.448555,28.4172653 24.8886451,28.4391953 20.3292452,28.4621453 C20.1599252,28.4631653 19.9906052,28.4621453 19.7850752,28.4621453 L19.7850752,33.5172652 Z" id="Fill-120"></path>
                <path d="M9.57174992,6.10196073 C9.56304337,8.00018069 7.9983634,9.55721066 6.09912343,9.55721066 C4.19427347,9.55721066 2.6000135,7.95071069 2.6193935,6.04994073 C2.6392835,4.13540077 4.22946347,2.58143079 6.15114343,2.60030079 C8.04579339,2.61815079 9.58038337,4.18946076 9.57174992,6.10196073" id="Fill-122"></path>
                <path d="M5.67648644,10.0763397 L6.76737642,10.0763397 C6.76737642,10.6271396 6.81072642,11.1978296 6.74034642,11.7542396 C6.71994642,11.9164196 6.36345643,12.1591796 6.18087643,12.1428596 C5.99982643,12.1270496 5.72595644,11.8470596 5.69943644,11.6542796 C5.63109644,11.1544796 5.67648644,10.6393796 5.67648644,10.0763397" id="Fill-124"></path>
                <path d="M2.08629051,6.76332872 C1.56507052,6.76332872 1.05660052,6.78168872 0.550680534,6.75618872 C0.220710541,6.74037872 -0.0082794552,6.54504872 0.000390544634,6.19161873 C0.00957054446,5.84175873 0.22683054,5.66376874 0.573630534,5.65968874 C1.06629052,5.65458874 1.55895052,5.65815874 2.08629051,5.65815874 L2.08629051,6.76332872 Z" id="Fill-126"></path>
                <path d="M8.64009638,9.21423567 C8.90682638,8.93373568 9.12918637,8.69964568 9.35562637,8.46198568 C9.76209636,8.84703568 10.1884564,9.21627567 10.5699363,9.62733566 C10.7769963,9.85071566 10.7015163,10.1245857 10.4781363,10.3250156 C10.2491464,10.5300356 9.98547636,10.5269756 9.76719636,10.3265456 C9.38418637,9.97464566 9.02514638,9.59724566 8.64009638,9.21423567" id="Fill-128"></path>
                <path d="M9.26341837,3.55542878 C8.95486838,3.26370878 8.71159838,3.03369879 8.44588839,2.78175879 C8.82430838,2.4002788 9.18130837,2.02032881 9.56176837,1.66536881 C9.81166836,1.43229882 10.1013484,1.43076882 10.3410484,1.68933881 C10.5827883,1.94994881 10.5363783,2.2253488 10.3033084,2.4721888 C9.96517836,2.83071879 9.62143836,3.18363878 9.26341837,3.55542878" id="Fill-130"></path>
                <path d="M6.51171342,2.0493478 C6.13584343,2.0661778 5.80026344,2.0809678 5.41623344,2.0983078 C5.41623344,1.55668781 5.39277344,1.03189782 5.42490344,0.510167833 C5.44377344,0.205697839 5.65491344,-0.0569521561 5.97111343,0.0108778427 C6.17460343,0.0542278419 6.46224342,0.291377837 6.48723342,0.471917834 C6.55710342,0.985487824 6.51171342,1.51486781 6.51171342,2.0493478" id="Fill-132"></path>
                <path d="M3.59063748,2.90247579 C3.30146748,3.21000578 3.06992749,3.45531578 2.80217749,3.73989577 C2.4283475,3.36453578 2.04737751,3.00702579 1.69802751,2.62095579 C1.47209752,2.3725858 1.46546752,2.0767858 1.72199751,1.83351581 C1.96424751,1.60350581 2.2314875,1.63206581 2.4706775,1.85034581 C2.84501749,2.1920458 3.21017748,2.5439458 3.59063748,2.90247579" id="Fill-134"></path>
                <path d="M2.94416149,8.59565668 C3.24761148,8.88482668 3.48221148,9.10922667 3.74384147,9.35861667 C3.35624148,9.75233666 2.98547149,10.1603367 2.5774715,10.5285566 C2.3556215,10.7284766 2.07716151,10.6897166 1.86857151,10.4668466 C1.64315151,10.2251067 1.65743151,9.94970666 1.87061151,9.71357666 C2.2107815,9.33668667 2.5733915,8.97968667 2.94416149,8.59565668" id="Fill-136"></path>
                <path d="M10.1359774,6.49491572 C10.1160874,6.11496573 10.0992574,5.79213573 10.0788574,5.40402574 C10.6434273,5.40402574 11.2110573,5.35965574 11.7644073,5.43054574 C11.9316873,5.45196574 12.1790373,5.79825573 12.1688373,5.98287573 C12.1586373,6.16239573 11.8806873,6.44493572 11.6914773,6.47145572 C11.1926973,6.54081572 10.6781073,6.49491572 10.1359774,6.49491572" id="Fill-138"></path>
                <path d="M16.6392422,26.2095774 C16.6825922,25.3109574 16.7233922,24.4648674 16.7662322,23.5835874 L20.5596122,23.5835874 C20.5988822,24.4516074 20.6376422,25.3094274 20.6779322,26.2095774 L16.6392422,26.2095774 Z" id="Fill-142"></path>
                <path d="M16.8633362,22.9782684 L16.8633362,20.5848385 L20.4272162,20.5848385 C20.4649562,21.3845184 20.5011662,22.1627784 20.5394162,22.9782684 L16.8633362,22.9782684 Z" id="Fill-144"></path>
                <path d="M9.07737037,23.5495194 C8.90244038,24.4705794 8.73720038,25.3411494 8.57196038,26.2101894 L5.22177045,26.2101894 C5.44566044,25.3625694 5.65425044,24.5486094 5.88324043,23.7402594 C5.90670043,23.6581494 6.05562043,23.5592094 6.14691043,23.5576794 C7.10265041,23.5439094 8.05839039,23.5495194 9.07737037,23.5495194" id="Fill-146"></path>
                <path d="M28.244241,23.5490094 C29.270361,23.5490094 30.211821,23.5423794 31.152771,23.5581894 C31.252731,23.5597194 31.412871,23.6714094 31.439391,23.7626994 C31.672461,24.5593194 31.8810509,25.3640994 32.1074909,26.2030494 L28.752201,26.2030494 C28.587981,25.3457394 28.423761,24.4863894 28.244241,23.5490094" id="Fill-148"></path>
                <path d="M21.1027112,23.5629834 L24.1759711,23.5629834 C24.2820511,24.4294734 24.3876211,25.2954534 24.4982911,26.2027434 L21.2271511,26.2027434 C21.1858411,25.3316634 21.1455511,24.4712934 21.1027112,23.5629834" id="Fill-150"></path>
                <path d="M13.1401833,23.5709394 L16.1359232,23.5709394 L16.1359232,26.2066194 L12.8280633,26.2066194 C12.9326133,25.3227894 13.0341033,24.4685394 13.1401833,23.5709394" id="Fill-152"></path>
                <path d="M28.202625,26.2100874 L25.0462351,26.2100874 C24.9406651,25.3364574 24.8376451,24.4811874 24.7295251,23.5851174 L27.696705,23.5851174 C27.862455,24.4444674 28.027695,25.3038174 28.202625,26.2100874" id="Fill-154"></path>
                <path d="M9.11995537,26.2046304 C9.28213537,25.3728204 9.41983537,24.6144504 9.58762537,23.8627104 C9.61414536,23.7428604 9.77326536,23.5653804 9.87526536,23.5628304 C10.7534853,23.5388604 11.6322153,23.5490604 12.5889753,23.5490604 C12.4844253,24.4599204 12.3854853,25.3243704 12.2850153,26.2046304 L9.11995537,26.2046304 Z" id="Fill-156"></path>
                <path d="M31.248957,23.0081544 C30.241197,23.0081544 29.287497,23.0132544 28.334307,22.9979544 C28.255257,22.9974444 28.127247,22.8704544 28.108887,22.7837544 C27.954357,22.0621044 27.820227,21.3363744 27.674877,20.5831045 L30.595647,20.5831045 C30.803727,21.3562644 31.017927,22.1493144 31.248957,23.0081544" id="Fill-158"></path>
                <path d="M6.08015143,23.0076444 C6.30302143,22.1641044 6.50753142,21.3894144 6.71918142,20.5897345 L9.64811136,20.5897345 C9.50378137,21.3322944 9.36608137,22.0677144 9.21155137,22.8000744 C9.19472137,22.8796344 9.08456137,22.9979544 9.01622138,22.9989744 C8.05895139,23.0122344 7.10168141,23.0076444 6.08015143,23.0076444" id="Fill-160"></path>
                <path d="M20.3275112,17.8742905 L20.3275112,19.9719205 L16.9941512,19.9719205 C16.9936412,19.2839305 16.9936412,18.5954305 16.9936412,17.8742905 L20.3275112,17.8742905 Z" id="Fill-162"></path>
                <path d="M21.0536492,20.5781575 L23.8219291,20.5781575 C23.9178091,21.3620274 24.0141991,22.1479374 24.1197691,23.0057574 C23.1359791,23.0057574 22.1996191,23.0118774 21.2637691,22.9924974 C21.1918591,22.9909674 21.0653792,22.8073674 21.0628292,22.7058774 C21.0449792,22.0127874 21.0536492,21.3196974 21.0536492,20.5781575" id="Fill-164"></path>
                <path d="M16.2467462,22.9827564 L13.2096963,22.9827564 C13.3076163,22.1698164 13.4009463,21.3925764 13.4973363,20.5893265 L16.3518062,20.5893265 C16.3176362,21.3655464 16.2834662,22.1432964 16.2467462,22.9827564" id="Fill-166"></path>
                <path d="M27.12882,20.5966195 C27.27723,21.3860994 27.4236,22.1663994 27.57711,22.9854594 L24.6639901,22.9854594 C24.5660701,22.1893494 24.4701901,21.4121094 24.3697201,20.5966195 L27.12882,20.5966195 Z" id="Fill-168"></path>
                <path d="M12.6673113,22.9932114 L9.74705136,22.9932114 C9.89240136,22.2134214 10.0244914,21.4637214 10.1810614,20.7196315 C10.1958514,20.6502715 10.3656814,20.5712215 10.4641113,20.5691815 C11.2653213,20.5574515 12.0675513,20.5625515 12.9467913,20.5625515 C12.8519313,21.3846714 12.7621713,22.1705814 12.6673113,22.9932114" id="Fill-170"></path>
                <path d="M10.1735644,17.8438945 C10.0271944,18.6078745 9.89663436,19.2871945 9.76250436,19.9843645 L6.88457442,19.9843645 C7.06154441,19.3239145 7.22525441,18.6859045 7.41089441,18.0540145 C7.43639441,17.9673145 7.5705244,17.8546045 7.6556944,17.8530745 C8.47118439,17.8372645 9.28667437,17.8438945 10.1735644,17.8438945" id="Fill-172"></path>
                <path d="M27.145752,17.8433845 C28.025502,17.8433845 28.841502,17.8372645 29.656992,17.8525645 C29.747262,17.8540945 29.891082,17.9601745 29.915562,18.0448345 C30.099672,18.6782545 30.260322,19.3193245 30.436272,19.9864045 L27.568032,19.9864045 C27.433902,19.3060645 27.298242,18.6185845 27.145752,17.8433845" id="Fill-174"></path>
                <path d="M20.8395002,17.8662835 L23.5022101,17.8662835 C23.5853401,18.5721235 23.6664301,19.2570535 23.7510901,19.9771735 L20.9552702,19.9771735 C20.9165102,19.2769435 20.8792802,18.5899735 20.8395002,17.8662835" id="Fill-176"></path>
                <path d="M16.4771132,17.8419055 C16.4434532,18.5798755 16.4123432,19.2561355 16.3797032,19.9696255 L13.5782733,19.9696255 C13.6506933,19.3203955 13.7154633,18.6686155 13.8072633,18.0204055 C13.8169533,17.9495155 13.9806633,17.8515955 14.0750133,17.8495555 C14.8476633,17.8357855 15.6208233,17.8419055 16.4771132,17.8419055" id="Fill-178"></path>
                <path d="M13.2758943,17.8687825 C13.1891943,18.5868625 13.1060643,19.2738325 13.0198743,19.9822225 L10.3163644,19.9822225 C10.4545743,19.2651625 10.5876843,18.5746225 10.7238543,17.8687825 L13.2758943,17.8687825 Z" id="Fill-180"></path>
                <path d="M27.007338,19.9854865 L24.3043381,19.9854865 C24.2201881,19.2827065 24.1380781,18.5977765 24.0518881,17.8745965 L26.601888,17.8745965 C26.734488,18.5656465 26.867598,19.2572065 27.007338,19.9854865" id="Fill-182"></path>
                <path d="M17.0271992,17.2706545 C17.0628992,16.7055745 17.0950292,16.1971045 17.1291992,15.6570146 L20.2039892,15.6570146 C20.2305092,16.1843545 20.2580492,16.7142445 20.2866092,17.2706545 L17.0271992,17.2706545 Z" id="Fill-184"></path>
                <path d="M10.2798994,17.2721335 L7.6131094,17.2721335 C7.7604994,16.7198035 7.9012594,16.1894035 8.04609939,15.6472736 L10.5966093,15.6472736 C10.4884893,16.2011335 10.3859794,16.7289835 10.2798994,17.2721335" id="Fill-186"></path>
                <path d="M26.730153,15.6420206 L29.273523,15.6420206 C29.414283,16.1652805 29.556573,16.6941505 29.716713,17.2913605 C28.852263,17.2913605 28.039323,17.2995205 27.227403,17.2796305 C27.146313,17.2775905 27.023403,17.1184705 26.998413,17.0134105 C26.895903,16.5783805 26.823993,16.1362105 26.730153,15.6420206" id="Fill-188"></path>
                <path d="M14.0782773,15.6490076 L16.5023072,15.6490076 L16.5023072,17.2748875 L13.9018173,17.2748875 C13.9604673,16.7353075 14.0165673,16.2196975 14.0782773,15.6490076" id="Fill-190"></path>
                <path d="M20.7388772,15.6410516 L23.2307371,15.6410516 C23.2985671,16.1806315 23.3648671,16.7095015 23.4357571,17.2684615 L20.8347572,17.2684615 C20.8036472,16.7426515 20.7725372,16.2137815 20.7388772,15.6410516" id="Fill-192"></path>
                <path d="M23.7886771,15.6261086 C24.5460271,15.6261086 25.2528871,15.6169286 25.9582171,15.6368186 C26.0495071,15.6393686 26.1933271,15.7750285 26.2157671,15.8714185 C26.3208271,16.3197085 26.3917171,16.7761585 26.481477,17.2642285 L23.9773771,17.2642285 C23.9166871,16.7379085 23.8554871,16.2095485 23.7886771,15.6261086" id="Fill-194"></path>
                <path d="M13.5358923,15.6280976 C13.4711223,16.1972575 13.4124723,16.7149075 13.3502523,17.2616275 L10.8476823,17.2616275 C10.9384623,16.7633575 11.0185323,16.2808975 11.1230823,15.8045575 C11.1383823,15.7331575 11.2658823,15.6372776 11.3434023,15.6357476 C12.0645423,15.6224876 12.7861923,15.6280976 13.5358923,15.6280976" id="Fill-196"></path>
            </g>
        </g>
    </g>
</svg>
