<?xml version="1.0" encoding="UTF-8"?>
<svg width="32px" height="43px" viewBox="0 0 32 43" version="1.1" xmlns="http://www.w3.org/2000/svg" xmlns:xlink="http://www.w3.org/1999/xlink">
    <!-- Generator: Sketch 49.3 (51167) - http://www.bohemiancoding.com/sketch -->
    <title>strawberry</title>
    <desc>Created with Sketch.</desc>
    <defs></defs>
    <g id="Page-1" stroke="none" stroke-width="1" fill="none" fill-rule="evenodd">
        <g id="strawberry" fill="#00447B">
            <path d="M9.142,12.6921 C8.359,14.1921 7.662,15.5281 6.964,16.8651 C7.125,17.0531 7.285,17.2411 7.446,17.4291 C9.423,16.6311 11.401,15.8331 13.438,15.0111 C14.147,17.2131 13.438,20.0301 15.956,22.1321 C16.578,19.4871 17.149,17.0521 17.726,14.5961 C19.565,15.5961 21.561,16.6811 23.556,17.7661 C23.738,17.6001 23.919,17.4341 24.1,17.2691 C23.489,15.7681 22.879,14.2671 22.272,12.7741 C24.058,12.8541 25.861,12.8591 27.643,13.0591 C28.177,13.1191 28.791,13.6231 29.129,14.0951 C31.248,17.0521 31.727,20.3691 30.57,23.7521 C28.417,30.0501 25.113,35.7061 20.184,40.2571 C17.106,43.0991 14.393,43.2241 11.346,40.4171 C5.792,35.3011 1.581,29.2311 0.125,21.6771 C-0.222,19.8731 0.204,17.7681 0.792,15.9711 C1.741,13.0711 2.812,12.5771 5.852,12.6861 C6.946,12.7251 8.043,12.6921 9.142,12.6921" id="Fill-1"></path>
            <path d="M4.5011,11.5083 C7.7981,9.6223 11.3071,9.1383 15.5811,10.2763 C15.2931,8.1463 14.9881,6.4173 14.8461,4.6743 C14.7191,3.1083 12.5571,1.9743 13.7521,0.0003 C15.4511,1.3513 15.4511,1.3513 17.0911,9.9773 C20.6181,9.5983 24.1381,9.6973 27.1051,12.4353 C24.8571,12.1463 22.6081,11.8573 20.3961,11.5723 C21.2761,13.0653 22.1801,14.5973 23.0831,16.1293 C22.9351,16.2963 22.7871,16.4633 22.6391,16.6303 C20.7921,15.4603 18.9461,14.2903 17.0381,13.0803 C16.6421,15.4593 16.2461,17.8433 15.8501,20.2273 C15.5781,20.2393 15.3061,20.2523 15.0341,20.2653 C14.7211,17.9323 14.4071,15.5993 14.1161,13.4313 C12.3081,14.4173 10.3741,15.4733 8.4391,16.5283 C8.2671,16.3193 8.0941,16.1103 7.9221,15.9023 C9.1211,14.4763 10.3211,13.0513 11.4331,11.7283 C9.2171,11.8263 6.8761,11.9293 4.5351,12.0333 C4.5241,11.8583 4.5121,11.6833 4.5011,11.5083" id="Fill-4"></path>
        </g>
    </g>
</svg>