<?xml version="1.0" encoding="UTF-8"?>
<svg width="29px" height="39px" viewBox="0 0 29 39" version="1.1" xmlns="http://www.w3.org/2000/svg" xmlns:xlink="http://www.w3.org/1999/xlink">
    <!-- Generator: Sketch 62 (91390) - https://sketch.com -->
    <title>wheat</title>
    <desc>Created with Sketch.</desc>
    <g id="map-icons" stroke="none" stroke-width="1" fill="none" fill-rule="evenodd">
        <g id="art" transform="translate(-1059.000000, -600.000000)" fill="#231F20">
            <g id="wheat" transform="translate(1059.000000, 600.000000)">
                <path d="M4.30957995,26.6476897 C3.66357995,26.2746563 3.0391133,25.914923 2.40514664,25.5488563 C2.78577997,26.899123 3.67624662,28.2924563 2.55714663,29.7313896 C0.509579994,29.0144563 -0.169353331,25.5659563 0.528579993,22.589923 C1.03714665,23.3486564 1.47857998,24.0079564 1.92064664,24.666623 C1.16317999,22.5645897 1.57927998,20.5328564 2.26644664,18.4732564 C3.38681329,21.0186231 5.3767466,23.3372564 4.30957995,26.6476897 Z" id="Fill-42"></path>
                <path d="M19.3351598,15.8929298 C17.3496598,17.6124298 15.2938598,18.8632631 13.1056932,19.8645631 C11.7801265,20.4706631 10.3405599,19.7834964 9.22082655,18.2330964 C11.8890599,14.7535631 15.5611265,15.5509298 19.3351598,15.8929298" id="Fill-44"></path>
                <path d="M8.64430322,17.7304831 C6.69616992,16.8735831 5.96466993,15.2136165 6.76140325,13.2971498 C7.34913657,11.8854499 8.01603657,10.5066832 8.66836989,9.12221655 C8.83303656,8.77198322 9.07686989,8.45974989 9.31310322,8.08481657 C10.9262032,12.1052165 11.2055032,15.2364165 8.64430322,17.7304831" id="Fill-46"></path>
                <path d="M12.6759132,13.6391498 C13.9831132,12.3066165 15.3308465,11.3141832 17.3245798,11.5282499 C18.6856131,11.6739165 20.0751464,11.5561165 21.4513797,11.5561165 C21.4741797,11.6808832 21.4969797,11.8050165 21.5197797,11.9304165 C19.7749464,12.9583165 18.0725464,14.0698165 16.2713465,14.9849831 C15.0578798,15.6024831 13.8038798,15.0407165 12.6759132,13.6391498" id="Fill-48"></path>
                <path d="M15.3589031,20.5043564 C13.7179365,21.8976897 12.2714032,23.2295897 10.3562032,23.790723 C8.87673656,24.2245564 7.6746699,23.4271897 6.45613659,22.6133564 C7.20980324,21.3872231 8.34980323,20.6747231 9.64560321,20.5486897 C11.4607365,20.3719897 13.3062698,20.5043564 15.3589031,20.5043564" id="Fill-50"></path>
                <path d="M5.32082327,13.6923498 C5.89208993,15.2009498 6.59128992,16.6753498 6.99725658,18.2270164 C7.38928991,19.7223164 6.91302325,21.1397164 5.91488993,22.4063831 C4.33282328,21.1169164 3.32138996,19.6697498 3.93698995,17.5626498 C4.31572328,16.2674831 4.72042327,14.9805498 5.11372327,13.6904498 C5.1827566,13.6910832 5.25178993,13.6917165 5.32082327,13.6923498" id="Fill-52"></path>
                <path d="M12.2076898,13.2965165 C10.5907899,11.9646165 10.3463232,10.4427165 11.4502232,8.83404989 C12.2855898,7.61678324 13.1367898,6.41154992 13.9848232,5.20378327 C14.0095232,5.1683166 14.0810898,5.16514994 14.2178898,5.11574994 C14.3223898,6.71681658 14.5795232,8.3020499 14.4832565,9.86638321 C14.3939565,11.3274832 13.2640898,12.3110498 12.2076898,13.2965165" id="Fill-54"></path>
                <path d="M11.7596065,25.054603 C10.5157399,26.293403 9.25033988,27.507503 7.46243991,27.9527363 C6.52447325,28.185803 5.73090659,27.8957363 5.0678066,27.201603 C4.72010661,26.8374363 4.72453994,26.5581363 5.14063994,26.223103 C6.28507325,25.3028697 7.52893991,24.7056364 9.03817322,24.7594697 C9.93117321,24.7917697 10.8260732,24.765803 11.7203399,24.765803 C11.7330065,24.8614364 11.7463065,24.9583364 11.7596065,25.054603" id="Fill-56"></path>
                <path d="M18.4383598,2.70857663 C18.4383598,3.87580995 18.4598931,5.0436766 18.4320264,6.21027659 C18.4047931,7.36864324 17.3566264,8.75944322 16.2375265,9.11600989 C16.0538598,9.17490988 15.7428931,9.07357655 15.5883598,8.93614322 C14.9201931,8.34397656 14.7447598,7.25717658 15.2742265,6.52504325 C16.2343598,5.19884327 17.2660598,3.92394328 18.2673598,2.62750997 C18.3243598,2.6547433 18.3813598,2.6813433 18.4383598,2.70857663" id="Fill-58"></path>
                <path d="M24.662253,8.14694656 C22.8870197,8.93861322 21.1282531,9.77017988 19.3308531,10.5073799 C18.2807864,10.9367799 17.5942531,10.6707799 16.7272198,9.69417988 C17.3497864,8.78977989 18.1281531,8.0354799 19.2782864,7.98671323 C21.0585864,7.91071323 22.843953,7.96644657 24.6274197,7.96644657 C24.6388197,8.02724657 24.6502197,8.0867799 24.662253,8.14694656" id="Fill-60"></path>
                <path d="M9.70621321,28.6783463 C8.3489799,29.688513 7.06457991,30.435213 5.56041326,30.7297129 C4.75607994,30.8867796 3.61544662,30.488413 3.49701329,30.0349463 C3.38997996,29.6251796 4.17087995,28.793613 4.97711327,28.5649796 C6.50787992,28.132413 8.03041323,28.295813 9.70621321,28.6783463" id="Fill-62"></path>
                <path d="M22.2485564,4.75823327 C22.1351897,3.91463328 22.5968897,3.39149996 23.1003897,3.03809996 C24.2308897,2.24326664 25.422823,1.53076665 26.6248897,0.846133323 C27.199323,0.519333327 27.852923,0.331866663 28.6705563,0 C27.047323,2.5219333 24.9085564,3.92666662 22.2485564,4.75823327" id="Fill-64"></path>
                <path d="M3.11941996,30.6223653 C2.38538664,32.349458 1.78055331,34.0899171 1.89455331,35.8955876 C1.92875331,36.439152 2.07061997,36.9806911 2.16625331,37.5234454 C2.20741997,37.7587739 2.3068533,37.9957226 2.28151997,38.2278108 C2.2669533,38.3614742 2.05731997,38.4862266 1.93508664,38.6150295 C1.79448664,38.5024283 1.55065331,38.3963076 1.53101998,38.2752005 C1.41701998,37.5866317 1.30808665,36.8948225 1.28781998,36.2030133 C1.23145332,34.2802861 1.45438665,32.3782159 2.55828663,30.5616093 C2.66278663,30.3894671 2.81668663,30.2302861 2.94778663,30.0650296 C3.0516533,30.0877119 3.15615329,30.1095841 3.26065329,30.1322663 C3.21441996,30.2954977 3.18718663,30.4623744 3.11941996,30.6223653 Z" id="Fill-66"></path>
                <path d="M22.4477397,0.26739333 C22.782773,2.15345997 21.3337064,4.96039327 19.6281398,5.92495993 C19.0252064,5.2384266 18.8662398,4.43092661 19.4362398,3.69942662 C20.3514064,2.52395997 21.3983064,1.44982665 22.4477397,0.26739333" id="Fill-68"></path>
                <path d="M20.2650831,6.43371659 C22.3259497,5.12208327 24.4558497,4.67621661 27.0322497,5.13474994 C25.4071163,5.85548326 24.0302497,6.55088325 22.590683,7.07401658 C21.6425831,7.41854991 20.9598497,7.14368324 20.2650831,6.43371659" id="Fill-70"></path>
            </g>
        </g>
    </g>
</svg>