<?xml version="1.0" encoding="UTF-8"?>
<svg width="42px" height="33px" viewBox="0 0 42 33" version="1.1" xmlns="http://www.w3.org/2000/svg" xmlns:xlink="http://www.w3.org/1999/xlink">
    <!-- Generator: Sketch 62 (91390) - https://sketch.com -->
    <title>wind</title>
    <desc>Created with Sketch.</desc>
    <g id="map-icons">
        <g id="art" transform="translate(-1317.000000, -601.000000)">
            <g id="wind" transform="translate(1317.000000, 601.000000)">
                <path d="M15.4184306,20.6501619 L15.4184306,20.6194419 C11.7269106,20.6194419 8.03475073,20.6188019 4.34323081,20.6200819 C4.05651081,20.6200819 3.73203082,20.5471219 3.49331083,20.6565619 C3.24371083,20.7698419 3.07667084,21.0636019 2.87315084,21.2786419 C3.08627084,21.4783219 3.26931083,21.7669619 3.52083083,21.8540019 C3.81459082,21.9557619 4.16915081,21.8834419 4.4974708,21.8840819 C11.6757106,21.8840819 18.8552305,21.9052019 26.0334703,21.8738419 C29.1349103,21.8604019 32.0936302,25.2255218 31.1822702,28.3884017 C30.4437102,30.9509617 27.3518703,32.2853617 25.2891503,30.8268017 C24.2555504,30.0965617 23.7697904,29.0188017 24.0840304,27.8444018 C24.2670704,27.1589618 24.8712303,26.4447218 25.4837103,26.0460018 C26.4597103,25.4098418 27.6341103,25.9340018 28.0712303,27.0207218 C28.4955503,28.0767217 27.8901103,28.5708017 27.0293103,28.9925617 C26.7131503,29.1474417 26.5205103,29.5525617 26.2715503,29.8431217 C26.6670703,29.9743217 27.0901103,30.2693617 27.4529903,30.2085617 C29.0773103,29.9359217 29.9291502,28.1317617 29.2853103,26.4735218 C28.6645103,24.8741618 27.0536303,24.1330418 25.2443503,24.6162418 C23.6782704,25.0348018 22.2990704,27.1378418 22.5851504,28.6866417 C22.9569904,30.6981617 24.0385904,32.1919217 26.0673903,32.6380016 C28.0629103,33.0764016 29.9355502,32.5202417 31.2891502,30.9375217 C32.9672302,28.9752817 33.0984302,26.6917618 32.0283502,24.4191218 C30.9710702,22.1727219 29.1739503,20.7314419 26.6145903,20.6719219 C22.8846704,20.5855219 19.1509105,20.6501619 15.4184306,20.6501619 M22.7566704,17.270962 L22.7566704,17.263282 C18.5742705,17.263282 14.3918706,17.262642 10.2094707,17.263922 C9.96499068,17.263922 9.66995069,17.193522 9.48819069,17.303602 C9.2379507,17.455922 8.91091071,17.753522 8.91721821,17.979442 C8.92435071,18.213682 9.2507507,18.531762 9.50995069,18.640562 C9.79027069,18.758962 10.1544307,18.683442 10.4827507,18.683442 C18.4379505,18.684722 26.3931503,18.684722 34.3489901,18.684082 C38.1102701,18.684082 40.69779,16.633522 41.42547,12.9509621 C41.80947,11.0060021 41.13043,9.26072217 39.68723,7.9948022 C38.1422701,6.63928223 36.2696301,6.15544224 34.2497901,6.98040222 C32.3566702,7.7541622 31.2213102,10.0210422 31.6846702,12.0338421 C32.0699502,13.7061621 33.7825902,14.870962 35.6737901,14.744882 C36.9006701,14.663602 38.1128301,13.5884021 38.30099,12.4146421 C38.56275,10.7864821 37.9989101,9.65304216 36.5646701,9.22424217 C36.1537901,9.10200217 35.6238701,9.37912217 35.1489901,9.47256217 C35.4267501,9.78232216 35.7109101,10.0863222 35.9816301,10.4024821 C36.3509101,10.8338421 37.0113901,11.2844021 36.9966701,11.7080821 C36.9787501,12.2360821 36.5013101,12.8754421 36.0405101,13.2306421 C35.2801901,13.8181621 34.4776301,13.4412021 33.8312301,12.8856821 C33.0325102,12.1989621 32.6453102,11.3554421 33.0325102,10.2706421 C33.5336302,8.86648218 34.9966701,7.7650422 36.2529901,7.8879222 C38.1646701,8.0741622 39.76275,9.57176216 40.04307,11.3112821 C40.53651,14.3724021 38.0411501,17.399602 34.5646701,17.297842 C30.6318702,17.182002 26.6926703,17.270962 22.7566704,17.270962 M11.9713906,15.484722 C15.1688306,15.484722 18.3726705,15.368882 21.5643504,15.512242 C25.9720303,15.710642 29.8254702,12.4837621 30.5499502,8.22648219 C31.3896302,3.2863223 26.6920303,-1.1667976 21.9009904,0.275762371 C19.2033905,1.08856235 17.5777905,3.91032229 18.1243505,6.83256222 C18.5435505,9.07512217 20.7182704,10.5144821 23.3851504,10.3148021 C24.9256303,10.1989621 26.3861103,8.66680218 26.4910703,7.05656222 C26.6254703,4.99256227 25.7653103,3.72216229 23.9163504,3.4367223 C23.5201904,3.3752823 23.0613104,3.72152229 22.6318704,3.88024229 C22.9806704,4.13944228 23.2936304,4.51512228 23.6859504,4.63736227 C25.0056303,5.05144226 25.5905903,6.25528224 24.9992303,7.50712221 C24.4533104,8.66360218 23.2840304,9.29400217 22.1057904,9.06616217 C20.7406704,8.80248218 19.4587505,7.44440221 19.3550705,6.15224224 C19.0913905,2.88312231 22.1397104,0.554802365 25.2897903,1.61784234 C28.8251503,2.81144231 30.3336302,6.49528223 28.6203503,9.98392215 C27.1861103,12.9036021 24.6881904,14.2316021 21.4990704,14.2444021 C14.8161906,14.2732021 8.13267072,14.2405621 1.44979087,14.2783221 C0.941630884,14.2815221 -0.00876909456,14.663602 0.000127999931,14.826162 C0.0590709039,15.848242 0.942910884,15.463602 1.51635087,15.468722 C5.00115079,15.499442 8.48595072,15.484722 11.9713906,15.484722" id="Fill-198"></path>
                <path d="M11.9712626,15.48453 C8.48582272,15.48453 5.00102279,15.49925 1.51622287,15.46917 C0.943422884,15.46405 0.0589429039,15.84805 -1.81898936e-14,14.82661 C-0.00889709456,14.66405 0.941502884,14.2813301 1.45030287,14.2781301 C8.13254272,14.2410101 14.8160626,14.2730101 21.4989424,14.2448501 C24.6880624,14.2314101 27.1859823,12.9040501 28.6202223,9.98373015 C30.3335022,6.49509023 28.8250223,2.81125031 25.2903023,1.61765034 C22.1395824,0.554610365 19.0912625,2.88357031 19.3549425,6.15205024 C19.4592625,7.44421021 20.7411824,8.80293018 22.1056624,9.06661017 C23.2839024,9.29381017 24.4531824,8.66405018 24.9991023,7.50693021 C25.5904623,6.25509024 25.0061423,5.05125026 23.6858224,4.63781027 C23.2935024,4.51493028 22.9811824,4.13925028 22.6317424,3.88005029 C23.0618224,3.72133029 23.5200624,3.3750903 23.9162224,3.4365303 C25.7658223,3.72197029 26.6253423,4.99237027 26.4909423,7.05637022 C26.3859823,8.66725018 24.9261423,10.1987701 23.3850224,10.3146101 C20.7181424,10.5142901 18.5440625,9.07493017 18.1242225,6.83237022 C17.5776625,3.91013029 19.2032625,1.08837035 21.9015024,0.275570371 C26.6919023,-1.1669896 31.3895022,3.2861303 30.5498222,8.22629019 C29.8253422,12.4842101 25.9719023,15.71109 21.5642224,15.51205 C18.3725425,15.36869 15.1693426,15.48453 11.9712626,15.48453" id="Fill-200"></path>
                <path d="M22.7565424,17.27077 C26.6925423,17.27077 30.6317422,17.18181 34.5645421,17.29765 C38.0410221,17.39941 40.536382,14.3728501 40.042942,11.3110901 C39.762622,9.57221016 38.1645421,8.0739702 36.2528621,7.8877302 C34.9965421,7.7648502 33.5335022,8.86629018 33.0330222,10.2704501 C32.6458222,11.3552501 33.0330222,12.1987701 33.8311021,12.8854901 C34.4775021,13.4416501 35.2800621,13.8179701 36.0403821,13.2310901 C36.5011821,12.8752501 36.9786221,12.2358901 36.9965421,11.7085301 C37.0112621,11.2842101 36.3507821,10.8336501 35.9815021,10.4029301 C35.7107821,10.0861302 35.4266221,9.78213016 35.1488621,9.47237017 C35.6237421,9.37893017 36.1543021,9.10181017 36.5645421,9.22469017 C37.9987821,9.65349016 38.562622,10.7862901 38.301502,12.4144501 C38.1127021,13.5882101 36.9005421,14.66405 35.6743021,14.74533 C33.7831022,14.87077 32.0698222,13.7066101 31.6845422,12.0336501 C31.2218222,10.0208502 32.3565422,7.7539702 34.2496621,6.98021022 C36.2695021,6.15525024 38.1427821,6.63973023 39.687102,7.9946102 C41.130302,9.26053017 41.809982,11.0058101 41.425342,12.9507701 C40.697662,16.63333 38.1101421,18.68389 34.3488621,18.68389 C26.3936623,18.68453 18.4378225,18.68453 10.4826227,18.68325 C10.1549427,18.68325 9.79014269,18.75877 9.50982269,18.64101 C9.2506227,18.53221 8.92422271,18.21413 8.91709021,17.97925 C8.91078271,17.75333 9.2378227,17.45573 9.48806269,17.30405 C9.66982269,17.19333 9.96486268,17.26373 10.2093427,17.26373 C14.3917426,17.26245 18.5741425,17.26309 22.7565424,17.26309 L22.7565424,17.27077 Z" id="Fill-202"></path>
                <path d="M15.4184306,20.6501619 C19.1509105,20.6501619 22.8846704,20.5855219 26.6145903,20.6719219 C29.1739503,20.7314419 30.9710702,22.1727219 32.0283502,24.4191218 C33.0984302,26.6917618 32.9672302,28.9752817 31.2891502,30.9375217 C29.9355502,32.5202417 28.0629103,33.0764016 26.0673903,32.6380016 C24.0385904,32.1919217 22.9569904,30.6981617 22.5851504,28.6866417 C22.2990704,27.1378418 23.6782704,25.0348018 25.2443503,24.6162418 C27.0536303,24.1330418 28.6645103,24.8741618 29.2853103,26.4735218 C29.9291502,28.1317617 29.0773103,29.9359217 27.4529903,30.2085617 C27.0901103,30.2693617 26.6670703,29.9743217 26.2715503,29.8431217 C26.5205103,29.5525617 26.7131503,29.1474417 27.0293103,28.9925617 C27.8901103,28.5708017 28.4955503,28.0767217 28.0712303,27.0207218 C27.6341103,25.9340018 26.4597103,25.4098418 25.4837103,26.0460018 C24.8712303,26.4447218 24.2670704,27.1589618 24.0840304,27.8444018 C23.7697904,29.0188017 24.2555504,30.0965617 25.2891503,30.8268017 C27.3518703,32.2853617 30.4437102,30.9509617 31.1822702,28.3884017 C32.0936302,25.2255218 29.1349103,21.8604019 26.0334703,21.8738419 C18.8552305,21.9052019 11.6757106,21.8840819 4.4974708,21.8840819 C4.16915081,21.8834419 3.81459082,21.9557619 3.52083083,21.8540019 C3.26931083,21.7669619 3.08627084,21.4783219 2.87315084,21.2786419 C3.07667084,21.0636019 3.24371083,20.7698419 3.49331083,20.6565619 C3.73203082,20.5471219 4.05651081,20.6200819 4.34323081,20.6200819 C8.03475073,20.6188019 11.7269106,20.6194419 15.4184306,20.6194419 L15.4184306,20.6501619 Z" id="Fill-204"></path>
            </g>
        </g>
    </g>
</svg>
